<?xml version="1.0" encoding="utf-8" standalone="no"?>
<!DOCTYPE svg PUBLIC "-//W3C//DTD SVG 1.1//EN"
  "http://www.w3.org/Graphics/SVG/1.1/DTD/svg11.dtd">
<svg xmlns:xlink="http://www.w3.org/1999/xlink" width="898.989199pt" height="653.068732pt" viewBox="0 0 898.989199 653.068732" xmlns="http://www.w3.org/2000/svg" version="1.1">
 <metadata>
  <rdf:RDF xmlns:dc="http://purl.org/dc/elements/1.1/" xmlns:cc="http://creativecommons.org/ns#" xmlns:rdf="http://www.w3.org/1999/02/22-rdf-syntax-ns#">
   <cc:Work>
    <dc:type rdf:resource="http://purl.org/dc/dcmitype/StillImage"/>
    <dc:date>2023-07-18T15:49:48.262349</dc:date>
    <dc:format>image/svg+xml</dc:format>
    <dc:creator>
     <cc:Agent>
      <dc:title>Matplotlib v3.7.0, https://matplotlib.org/</dc:title>
     </cc:Agent>
    </dc:creator>
   </cc:Work>
  </rdf:RDF>
 </metadata>
 <defs>
  <style type="text/css">*{stroke-linejoin: round; stroke-linecap: butt}</style>
 </defs>
 <g id="figure_1">
  <g id="patch_1">
   <path d="M 0 653.068732 
L 898.989199 653.068732 
L 898.989199 0 
L 0 0 
z
" style="fill: #ffffff"/>
  </g>
  <g id="axes_1">
   <g id="patch_2">
    <path d="M 326.534387 7.2 
C 283.282702 7.2 240.478489 15.987222 200.724932 33.027262 
C 160.971375 50.067302 125.091036 75.007575 95.266017 106.331311 
C 65.440998 137.655047 42.288424 174.714112 27.216343 215.254716 
C 12.144263 255.795321 5.46454 298.978619 7.583411 342.178372 
C 9.702281 385.378124 20.575901 427.700463 39.54298 466.571508 
C 58.510059 505.442552 85.17814 540.058003 117.925373 568.312683 
C 150.672606 596.567363 188.821402 617.876641 230.051701 630.944568 
C 271.281999 644.012495 314.740682 648.568677 357.784763 644.336025 
L 355.380888 619.889746 
C 315.64789 623.79681 275.532183 619.591103 237.473446 607.528401 
C 199.414709 595.465699 164.200435 575.795597 133.97222 549.714354 
C 103.744005 523.633111 79.127315 491.680387 61.619242 455.799422 
C 44.111169 419.918458 34.073981 380.851684 32.118101 340.974989 
C 30.162221 301.098295 36.328119 261.236788 50.240808 223.814692 
C 64.153498 186.392596 85.525105 152.184228 113.055892 123.27001 
C 140.586679 94.355792 173.706992 71.334001 210.402582 55.604734 
C 247.098173 39.875467 286.609755 31.764185 326.534387 31.764185 
z
" style="fill: #f4f5f5; stroke: #ffffff; stroke-linejoin: miter"/>
   </g>
   <g id="patch_3">
    <path d="M 357.784763 644.336025 
C 439.348172 636.315653 514.773415 597.195522 568.31267 535.143414 
C 621.851925 473.091305 649.50037 392.748816 645.485363 310.890428 
C 641.470356 229.03204 606.092227 151.780891 546.737476 95.266031 
C 487.382724 38.75117 408.49118 7.2 326.534387 7.2 
L 326.534387 31.764185 
C 402.186811 31.764185 475.009775 60.888342 529.798776 113.055905 
C 584.587778 165.223469 617.244512 236.532222 620.950672 312.093811 
C 624.656832 387.6554 599.135191 461.817697 549.714341 519.096567 
C 500.29349 576.375436 430.670188 612.486326 355.380888 619.889746 
z
" style="fill: #a8d3b5; stroke: #ffffff; stroke-linejoin: miter"/>
   </g>
   <g id="patch_4">
    <path d="M 326.534387 31.764185 
C 286.375874 31.764185 246.637726 39.970778 209.764551 55.879111 
C 172.891375 71.787445 139.655122 95.064474 112.100417 124.278244 
C 84.545712 153.492014 63.249419 188.030927 49.521643 225.770221 
C 35.793867 263.509515 29.922002 303.659107 32.267272 343.749079 
C 34.612543 383.839051 45.12585 423.030108 63.160438 458.911298 
C 81.195026 494.792488 106.373335 526.612628 137.146448 552.41421 
C 167.919562 578.215792 203.643236 597.458653 242.119825 608.959012 
C 280.596413 620.459371 321.020399 623.976465 360.904983 619.293929 
L 358.040766 594.897302 
C 321.479898 599.189626 284.424578 595.965623 249.154371 585.423628 
C 213.884165 574.881632 181.137464 557.242343 152.928777 533.590893 
C 124.720089 509.939442 101.639973 480.770981 85.108267 447.87989 
C 68.576562 414.988799 58.939363 379.063664 56.789532 342.314523 
C 54.6397 305.565382 60.022244 268.761589 72.606038 234.167236 
C 85.189833 199.572883 104.711435 167.912213 129.969915 141.132924 
C 155.228394 114.353635 185.69496 93.016358 219.49537 78.433719 
C 253.295781 63.85108 289.722417 56.328369 326.534387 56.328369 
z
" style="fill: #f4f5f5; stroke: #ffffff; stroke-linejoin: miter"/>
   </g>
   <g id="patch_5">
    <path d="M 360.904983 619.293929 
C 435.565349 610.528642 504.115936 573.526857 552.414188 515.922349 
C 600.71244 458.317841 625.191632 384.364583 620.801503 309.319748 
C 616.411374 234.274913 583.476125 163.680405 528.790573 112.100459 
C 474.10502 60.520512 401.707579 31.764199 326.534442 31.764185 
L 326.534437 56.328369 
C 395.443146 56.328382 461.807468 82.688336 511.935891 129.969954 
C 562.064313 177.251572 592.254958 241.963204 596.279243 310.754303 
C 600.303528 379.545401 577.864269 447.335887 533.590871 500.14002 
C 489.317474 552.944152 426.479435 586.862456 358.040766 594.897302 
z
" style="fill: #a8d3b5; stroke: #ffffff; stroke-linejoin: miter"/>
   </g>
   <g id="patch_6">
    <path d="M 326.534387 56.328369 
C 285.780105 56.328369 245.549 65.548619 208.862265 83.296716 
C 172.175529 101.044813 139.975084 126.86508 114.679053 158.818519 
C 89.383021 190.771959 71.640871 228.038176 62.784965 267.818629 
C 53.92906 307.599081 54.186772 348.872419 63.538748 388.539181 
C 72.890724 428.205944 91.096855 465.247699 116.789935 496.882761 
C 142.483015 528.517822 175.003381 553.933971 211.908886 571.222556 
C 248.814391 588.511141 289.157498 597.228284 329.908602 596.719362 
C 370.659706 596.21044 410.772536 586.48852 447.23478 568.283679 
L 436.262017 546.306472 
C 403.114523 562.856328 366.648314 571.694437 329.601855 572.157093 
C 292.555397 572.619749 255.879846 564.695074 222.329386 548.978178 
C 188.778927 533.261283 159.214958 510.155693 135.857612 481.396546 
C 112.500267 452.637399 95.949239 418.963076 87.447442 382.902383 
C 78.945646 346.84169 78.711362 309.320474 86.762186 273.156426 
C 94.813009 236.992378 110.942237 203.113999 133.938629 174.065418 
C 156.935021 145.016837 186.208153 121.543867 219.55973 105.409233 
C 252.911308 89.2746 289.48504 80.892554 326.534387 80.892554 
z
" style="fill: #f4f5f5; stroke: #ffffff; stroke-linejoin: miter"/>
   </g>
   <g id="patch_7">
    <path d="M 447.23478 568.283679 
C 501.694538 541.093053 545.400439 496.2817 571.222548 441.159889 
C 597.044658 386.038078 603.498073 323.775597 589.53002 264.529594 
C 575.561967 205.283591 541.975681 152.461015 494.250238 114.679043 
C 446.524794 76.89707 387.404652 56.328358 326.534336 56.328369 
L 326.534341 80.892554 
C 381.870992 80.892543 435.616576 99.591373 479.003342 133.938621 
C 522.390109 168.285868 552.923096 216.306392 565.621326 270.166394 
C 578.319556 324.026397 572.452815 380.628653 548.97817 430.73939 
C 525.503525 480.850127 485.770888 521.587721 436.262017 546.306472 
z
" style="fill: #b3d9be; stroke: #ffffff; stroke-linejoin: miter"/>
   </g>
   <g id="patch_8">
    <path d="M 326.534387 80.892554 
C 288.175583 80.892554 250.34475 89.877573 216.082412 107.125472 
C 181.820074 124.37337 152.069404 149.409347 129.221512 180.221222 
C 106.37362 211.033097 91.057461 246.77268 84.504021 284.567524 
C 77.950581 322.362368 80.340262 361.172056 91.481002 397.877393 
C 102.621741 434.58273 122.206857 468.17329 148.662263 495.949347 
C 175.117669 523.725403 207.715099 544.922337 243.834647 557.836518 
C 279.954196 570.750698 318.601562 575.026623 356.670598 570.320629 
C 394.739633 565.614635 431.182372 552.05627 463.069853 530.73524 
L 449.416307 510.315156 
C 420.717573 529.504083 387.919108 541.706612 353.656976 545.942006 
C 319.394845 550.1774 284.612215 546.329068 252.104621 534.706306 
C 219.597028 523.083544 190.25934 504.006303 166.449475 479.007852 
C 142.63961 454.009401 125.013006 423.777897 114.98634 390.743094 
C 104.959674 357.708291 102.808961 322.779571 108.707058 288.764212 
C 114.605154 254.748852 128.389696 222.583227 148.952799 194.85254 
C 169.515903 167.121853 196.291505 144.589473 227.127609 129.066364 
C 257.963714 113.543256 292.011463 105.456738 326.534387 105.456738 
z
" style="fill: #f4f5f5; stroke: #ffffff; stroke-linejoin: miter"/>
   </g>
   <g id="patch_9">
    <path d="M 463.069853 530.73524 
C 506.865386 501.452092 540.099657 458.84216 557.836504 409.23414 
C 575.573352 359.626119 576.888906 305.603972 561.587772 255.191407 
C 546.286638 204.778842 515.165816 160.601727 472.847565 129.221525 
C 430.529314 97.841324 379.217889 80.892554 326.534387 80.892554 
L 326.534387 105.456738 
C 373.949539 105.456738 420.129821 120.710631 458.216247 148.952813 
C 496.302673 177.194994 524.311413 216.954398 538.082433 262.325706 
C 551.853454 307.697015 550.669455 356.316947 534.706293 400.964166 
C 518.74313 445.611384 488.832286 483.960322 449.416307 510.315156 
z
" style="fill: #b6dbc1; stroke: #ffffff; stroke-linejoin: miter"/>
   </g>
   <g id="patch_10">
    <path d="M 326.534387 105.456738 
C 290.743829 105.456738 255.482871 114.14801 223.792107 130.781095 
C 192.101343 147.41418 164.918642 171.496832 144.588 200.952376 
C 124.257358 230.407919 111.380449 264.364636 107.067663 299.894396 
C 102.754878 335.424157 107.13385 371.475482 119.826976 404.939621 
C 132.520101 438.403759 153.151736 468.290362 179.942788 492.022272 
C 206.733841 515.754182 238.891447 532.629067 273.642618 541.191786 
C 308.393789 549.754505 344.710085 549.751649 379.459909 541.183466 
C 414.209733 532.615283 446.364685 515.735341 473.152006 491.999219 
L 456.861159 473.614239 
C 433.050207 494.713014 404.468028 509.717407 373.579295 517.33357 
C 342.690563 524.949733 310.409411 524.952271 279.519481 517.340965 
C 248.629552 509.729659 220.045013 494.729761 196.230744 473.634731 
C 172.416475 452.5397 154.077244 425.973831 142.794466 396.227929 
C 131.511687 366.482028 127.619268 334.436407 131.452855 302.854397 
C 135.286442 271.272387 146.732584 241.088639 164.804265 214.905934 
C 182.875947 188.723229 207.038348 167.316427 235.207916 152.531462 
C 263.377484 137.746498 294.720558 130.020923 326.534387 130.020923 
z
" style="fill: #f4f5f5; stroke: #ffffff; stroke-linejoin: miter"/>
   </g>
   <g id="patch_11">
    <path d="M 473.152006 491.999219 
C 506.7239 462.251316 530.460326 422.978963 541.191772 379.426169 
C 551.923219 335.873375 549.149783 290.068968 533.241798 248.129179 
C 517.333813 206.189391 489.032325 170.06791 452.116411 144.588013 
C 415.200497 119.108117 371.389819 105.456738 326.534387 105.456738 
L 326.534387 130.020923 
C 366.405882 130.020923 405.348707 142.155481 438.162853 164.804279 
C 470.976998 187.453076 496.133877 219.561059 510.274308 256.840871 
C 524.414739 294.120682 526.880016 334.835711 517.340952 373.549306 
C 507.801888 412.2629 486.702843 447.171659 456.861159 473.614239 
z
" style="fill: #badcc4; stroke: #ffffff; stroke-linejoin: miter"/>
   </g>
   <g id="patch_12">
    <path d="M 326.534387 130.020923 
C 294.657928 130.020923 263.255017 137.776946 235.043968 152.61761 
C 206.832918 167.458274 182.651922 188.942643 164.594145 215.210976 
C 146.536368 241.479309 135.138333 271.751136 131.386683 303.406053 
C 127.635033 335.060969 131.641234 367.158462 143.058501 396.920093 
C 154.475767 426.681724 172.964874 453.223231 196.925359 474.247116 
C 220.885845 495.271002 249.605808 510.152615 280.599177 517.603767 
C 311.592547 525.05492 343.938465 524.854226 374.836989 517.019059 
C 405.735513 509.183892 434.268603 493.947046 457.966364 472.627459 
L 441.537367 454.365827 
C 420.801826 473.020465 395.835372 486.352705 368.799164 493.208476 
C 341.762955 500.064248 313.460277 500.239855 286.341079 493.720096 
C 259.22188 487.200338 234.091913 474.178927 213.126488 455.783027 
C 192.161063 437.387127 175.983094 414.163308 165.992986 388.121881 
C 156.002879 362.080454 152.497452 333.995148 155.780146 306.297096 
C 159.06284 278.599044 169.03612 252.111196 184.836675 229.126404 
C 200.63723 206.141613 221.795602 187.34279 246.48027 174.357209 
C 271.164938 161.371627 298.642485 154.585108 326.534387 154.585108 
z
" style="fill: #f4f5f5; stroke: #ffffff; stroke-linejoin: miter"/>
   </g>
   <g id="patch_13">
    <path d="M 457.966364 472.627459 
C 487.513986 446.045071 508.31326 411.113791 517.603752 372.469618 
C 526.894245 333.825446 524.245928 293.257101 510.01028 256.148724 
C 495.774632 219.040347 470.610578 187.10957 437.857833 164.594174 
C 405.105089 142.078777 366.279679 130.020931 326.534424 130.020923 
L 326.534419 154.585108 
C 361.311517 154.585114 395.283751 165.13573 423.942402 184.836702 
C 452.601054 204.537674 474.619601 232.477104 487.075793 264.946934 
C 499.531985 297.416764 501.849262 332.914065 493.720081 366.727716 
C 485.5909 400.541367 467.391536 431.106237 441.537367 454.365827 
z
" style="fill: #badcc4; stroke: #ffffff; stroke-linejoin: miter"/>
   </g>
   <g id="patch_14">
    <path d="M 326.534387 154.585108 
C 297.952624 154.585108 269.816811 161.711486 244.681195 175.317291 
C 219.545578 188.923096 198.194519 208.583755 182.566326 232.51442 
C 166.938133 256.445086 157.520486 283.898995 155.168346 312.383809 
C 152.816206 340.868622 157.602971 369.495465 169.094086 395.665513 
C 180.585201 421.835561 198.422083 444.732174 220.985451 462.276734 
C 243.548819 479.821294 270.134578 491.466319 298.329202 496.154642 
C 326.523825 500.842966 355.447493 498.428288 382.474435 489.129818 
C 409.501378 479.831349 433.788214 463.93925 453.130118 442.896249 
L 435.045014 426.273128 
C 418.466239 444.309986 397.648951 457.931785 374.483 465.901901 
C 351.317049 473.872018 326.525334 475.941742 302.358514 471.923179 
C 278.191694 467.904616 255.4039 457.923166 236.06387 442.884972 
C 216.72384 427.846778 201.435084 408.22111 191.585557 385.78964 
C 181.73603 363.35817 177.633089 338.820876 179.649209 314.405322 
C 181.665329 289.989767 189.737598 266.457845 203.133192 245.945846 
C 216.528786 225.433847 234.829693 208.581854 256.374508 196.919735 
C 277.919322 185.257617 302.035733 179.149292 326.534387 179.149292 
z
" style="fill: #f4f5f5; stroke: #ffffff; stroke-linejoin: miter"/>
   </g>
   <g id="patch_15">
    <path d="M 453.130118 442.896249 
C 475.724774 418.314421 490.677865 387.675732 496.154629 354.739585 
C 501.631394 321.803439 497.398277 287.974384 483.974688 257.403287 
C 470.551098 226.83219 448.50948 200.822744 420.554366 182.566339 
C 392.599253 164.309934 359.922778 154.585108 326.534387 154.585108 
L 326.534387 179.149292 
C 355.153008 179.149292 383.161415 187.484858 407.122941 203.133205 
C 431.084467 218.781552 449.977282 241.075363 461.483216 267.27916 
C 472.98915 293.482957 476.617536 322.47929 471.923166 350.710273 
C 467.228797 378.941256 454.411861 405.20299 435.045014 426.273128 
z
" style="fill: #bddec7; stroke: #ffffff; stroke-linejoin: miter"/>
   </g>
   <g id="patch_16">
    <path d="M 326.534387 179.149292 
C 300.267095 179.149292 274.47123 186.171413 251.828334 199.485687 
C 229.185438 212.799961 210.508268 231.928478 197.738363 254.882784 
C 184.968457 277.837089 178.564185 303.793247 179.191287 330.053052 
C 179.818389 356.312857 187.454355 381.933725 201.305407 404.252304 
C 215.15646 426.570883 234.725422 444.786058 257.978051 457.004316 
C 281.230681 469.222574 307.332336 475.005346 333.569685 473.7515 
C 359.807035 472.497654 385.2383 464.252195 407.21984 449.87226 
C 429.201379 435.492324 446.944175 415.494074 458.60382 391.956374 
L 436.592248 381.052712 
C 426.875877 400.667461 412.090214 417.33267 393.772264 429.31595 
C 375.454314 441.29923 354.261593 448.170445 332.397136 449.215317 
C 310.532678 450.260188 288.781299 445.441211 269.404107 435.25933 
C 250.026916 425.077448 233.719448 409.898136 222.176904 391.29932 
C 210.63436 372.700504 204.271055 351.349781 203.74847 329.46661 
C 203.225885 307.583439 208.562779 285.953307 219.204367 266.82472 
C 229.845955 247.696132 245.410263 231.7557 264.279342 220.660472 
C 283.148422 209.565244 304.644977 203.713477 326.534387 203.713477 
z
" style="fill: #f4f5f5; stroke: #ffffff; stroke-linejoin: miter"/>
   </g>
   <g id="patch_17">
    <path d="M 458.60382 391.956374 
C 469.734094 369.487335 474.948406 344.545221 473.751487 319.499101 
C 472.554568 294.452982 464.985553 270.121765 451.763366 248.816496 
C 438.54118 227.511226 420.098136 209.928502 398.186003 197.738376 
C 376.273871 185.54825 351.60909 179.149292 326.534387 179.149292 
L 326.534387 203.713477 
C 347.429973 203.713477 367.983957 209.045942 386.244067 219.20438 
C 404.504178 229.362818 419.873381 244.015088 430.89187 261.76948 
C 441.910358 279.523871 448.217871 299.799885 449.215303 320.671651 
C 450.212736 341.543418 445.867476 362.328512 436.592248 381.052712 
z
" style="fill: #c5e2cd; stroke: #ffffff; stroke-linejoin: miter"/>
   </g>
   <g id="patch_18">
    <path d="M 326.534387 203.713477 
C 303.118587 203.713477 280.184006 210.409807 260.446967 223.009369 
C 240.709927 235.608931 224.981662 253.593856 215.124994 274.834048 
C 205.268326 296.07424 201.688384 319.696685 204.809168 342.903588 
C 207.929953 366.110492 217.623194 387.948004 232.740843 405.829736 
C 247.858493 423.711468 267.779186 436.902444 290.143557 443.840353 
C 312.507928 450.778262 336.396757 451.177942 358.980699 444.992055 
C 381.564642 438.806168 401.915454 426.288966 417.622827 408.922962 
C 433.3302 391.556958 443.74853 370.055928 447.643891 346.966411 
L 423.42199 342.880009 
C 420.305701 361.351623 411.971037 378.552446 399.405139 392.44525 
C 386.839241 406.338053 370.558591 416.351814 352.491437 421.300524 
C 334.424283 426.249233 315.31322 425.92949 297.421723 420.379163 
C 279.530226 414.828836 263.593672 404.276054 251.499552 389.970669 
C 239.405432 375.665284 231.65084 358.195274 229.154212 339.629751 
C 226.657584 321.064228 229.521538 302.166272 237.406873 285.174119 
C 245.292207 268.181965 257.874819 253.794024 273.664451 243.714375 
C 289.454082 233.634726 307.801747 228.277662 326.534387 228.277662 
z
" style="fill: #f4f5f5; stroke: #ffffff; stroke-linejoin: miter"/>
   </g>
   <g id="patch_19">
    <path d="M 447.643891 346.966411 
C 450.614595 329.357744 449.709561 311.311201 444.992044 294.088098 
C 440.274528 276.864996 431.857056 260.876157 420.327945 247.239081 
C 408.798834 233.602005 394.433091 222.641978 378.23477 215.125022 
C 362.036449 207.608066 344.391931 203.713484 326.534433 203.713477 
L 326.534424 228.277662 
C 340.820422 228.277667 354.936036 231.393333 367.894693 237.406897 
C 380.85335 243.420462 392.345945 252.188484 401.569233 263.098145 
C 410.792522 274.007806 417.526499 286.798876 421.300513 300.577359 
C 425.074526 314.355841 425.798553 328.793075 423.42199 342.880009 
z
" style="fill: #cee6d5; stroke: #ffffff; stroke-linejoin: miter"/>
   </g>
   <g id="patch_20">
    <path d="M 326.534387 228.277662 
C 316.301496 228.277662 306.13113 229.876209 296.391649 233.015407 
C 286.652167 236.154605 277.462592 240.796091 269.155757 246.771755 
C 260.848923 252.747419 253.526343 259.984236 247.453234 268.220097 
C 241.380125 276.455958 236.630702 285.590216 233.376985 295.29204 
C 230.123267 304.993864 228.405017 315.144692 228.284467 325.376873 
C 228.163917 335.609054 229.64254 345.797545 232.666783 355.573333 
C 235.691026 365.34912 240.22393 374.592737 246.10132 382.969393 
C 251.978709 391.346048 259.12876 398.753374 267.292504 404.923085 
C 275.456248 411.092797 284.533921 415.949497 294.196741 419.317283 
C 303.85956 422.685068 313.989442 424.522782 324.219493 424.763866 
C 334.449543 425.004949 344.654747 423.646455 354.465484 420.737587 
C 364.27622 417.828719 373.572597 413.405025 382.01791 407.626726 
C 390.463223 401.848426 397.954267 394.786135 404.219725 386.695641 
C 410.485182 378.605146 415.448487 369.585318 418.929873 359.962844 
C 422.411258 350.34037 424.368182 340.232841 424.729765 330.00634 
C 425.091348 319.779839 423.853172 309.559339 421.060083 299.715016 
L 397.428659 306.419862 
C 399.523476 313.803105 400.452108 321.468479 400.18092 329.138355 
C 399.909733 336.80823 398.442041 344.388877 395.831001 351.605733 
C 393.219962 358.822589 389.497483 365.58746 384.79839 371.655331 
C 380.099297 377.723202 374.481014 383.01992 368.147029 387.353644 
C 361.813044 391.687369 354.840762 395.00514 347.482709 397.18679 
C 340.124657 399.368441 332.470754 400.387312 324.798216 400.206499 
C 317.125678 400.025687 309.528267 398.647401 302.281152 396.121562 
C 295.034038 393.595723 288.225783 389.953198 282.102975 385.325914 
C 275.980166 380.69863 270.617629 375.143136 266.209587 368.860644 
C 261.801544 362.578153 258.401866 355.64544 256.133684 348.313599 
C 253.865502 340.981759 252.756534 333.34039 252.846947 325.666254 
C 252.937359 317.992119 254.226047 310.378998 256.666335 303.10263 
C 259.106623 295.826262 262.66869 288.975568 267.223522 282.798673 
C 271.778354 276.621777 277.270289 271.194164 283.500415 266.712416 
C 289.73054 262.230668 296.622722 258.749554 303.927333 256.395155 
C 311.231944 254.040757 318.859718 252.841846 326.534387 252.841846 
z
" style="fill: #f4f5f5; stroke: #ffffff; stroke-linejoin: miter"/>
   </g>
   <g id="patch_21">
    <path d="M 421.060083 299.715016 
C 415.224538 279.14747 402.832609 261.035961 385.776262 248.145709 
C 368.719916 235.255458 347.91374 228.277658 326.534368 228.277662 
L 326.534373 252.841846 
C 342.568902 252.841843 358.173534 258.075193 370.965794 267.742882 
C 383.758053 277.410571 393.052001 290.994202 397.428659 306.419862 
z
" style="fill: #dbede0; stroke: #ffffff; stroke-linejoin: miter"/>
   </g>
   <g id="matplotlib.axis_1"/>
   <g id="matplotlib.axis_2"/>
   <g id="text_1">
    <!-- AUPRC_0 on generalized models -->
    <g transform="translate(190.572512 94.3392) scale(0.168 -0.168)">
     <defs>
      <path id="DejaVuSans-41" d="M 2188 4044 
L 1331 1722 
L 3047 1722 
L 2188 4044 
z
M 1831 4666 
L 2547 4666 
L 4325 0 
L 3669 0 
L 3244 1197 
L 1141 1197 
L 716 0 
L 50 0 
L 1831 4666 
z
" transform="scale(0.015625)"/>
      <path id="DejaVuSans-55" d="M 556 4666 
L 1191 4666 
L 1191 1831 
Q 1191 1081 1462 751 
Q 1734 422 2344 422 
Q 2950 422 3222 751 
Q 3494 1081 3494 1831 
L 3494 4666 
L 4128 4666 
L 4128 1753 
Q 4128 841 3676 375 
Q 3225 -91 2344 -91 
Q 1459 -91 1007 375 
Q 556 841 556 1753 
L 556 4666 
z
" transform="scale(0.015625)"/>
      <path id="DejaVuSans-50" d="M 1259 4147 
L 1259 2394 
L 2053 2394 
Q 2494 2394 2734 2622 
Q 2975 2850 2975 3272 
Q 2975 3691 2734 3919 
Q 2494 4147 2053 4147 
L 1259 4147 
z
M 628 4666 
L 2053 4666 
Q 2838 4666 3239 4311 
Q 3641 3956 3641 3272 
Q 3641 2581 3239 2228 
Q 2838 1875 2053 1875 
L 1259 1875 
L 1259 0 
L 628 0 
L 628 4666 
z
" transform="scale(0.015625)"/>
      <path id="DejaVuSans-52" d="M 2841 2188 
Q 3044 2119 3236 1894 
Q 3428 1669 3622 1275 
L 4263 0 
L 3584 0 
L 2988 1197 
Q 2756 1666 2539 1819 
Q 2322 1972 1947 1972 
L 1259 1972 
L 1259 0 
L 628 0 
L 628 4666 
L 2053 4666 
Q 2853 4666 3247 4331 
Q 3641 3997 3641 3322 
Q 3641 2881 3436 2590 
Q 3231 2300 2841 2188 
z
M 1259 4147 
L 1259 2491 
L 2053 2491 
Q 2509 2491 2742 2702 
Q 2975 2913 2975 3322 
Q 2975 3731 2742 3939 
Q 2509 4147 2053 4147 
L 1259 4147 
z
" transform="scale(0.015625)"/>
      <path id="DejaVuSans-43" d="M 4122 4306 
L 4122 3641 
Q 3803 3938 3442 4084 
Q 3081 4231 2675 4231 
Q 1875 4231 1450 3742 
Q 1025 3253 1025 2328 
Q 1025 1406 1450 917 
Q 1875 428 2675 428 
Q 3081 428 3442 575 
Q 3803 722 4122 1019 
L 4122 359 
Q 3791 134 3420 21 
Q 3050 -91 2638 -91 
Q 1578 -91 968 557 
Q 359 1206 359 2328 
Q 359 3453 968 4101 
Q 1578 4750 2638 4750 
Q 3056 4750 3426 4639 
Q 3797 4528 4122 4306 
z
" transform="scale(0.015625)"/>
      <path id="DejaVuSans-5f" d="M 3263 -1063 
L 3263 -1509 
L -63 -1509 
L -63 -1063 
L 3263 -1063 
z
" transform="scale(0.015625)"/>
      <path id="DejaVuSans-30" d="M 2034 4250 
Q 1547 4250 1301 3770 
Q 1056 3291 1056 2328 
Q 1056 1369 1301 889 
Q 1547 409 2034 409 
Q 2525 409 2770 889 
Q 3016 1369 3016 2328 
Q 3016 3291 2770 3770 
Q 2525 4250 2034 4250 
z
M 2034 4750 
Q 2819 4750 3233 4129 
Q 3647 3509 3647 2328 
Q 3647 1150 3233 529 
Q 2819 -91 2034 -91 
Q 1250 -91 836 529 
Q 422 1150 422 2328 
Q 422 3509 836 4129 
Q 1250 4750 2034 4750 
z
" transform="scale(0.015625)"/>
      <path id="DejaVuSans-20" transform="scale(0.015625)"/>
      <path id="DejaVuSans-6f" d="M 1959 3097 
Q 1497 3097 1228 2736 
Q 959 2375 959 1747 
Q 959 1119 1226 758 
Q 1494 397 1959 397 
Q 2419 397 2687 759 
Q 2956 1122 2956 1747 
Q 2956 2369 2687 2733 
Q 2419 3097 1959 3097 
z
M 1959 3584 
Q 2709 3584 3137 3096 
Q 3566 2609 3566 1747 
Q 3566 888 3137 398 
Q 2709 -91 1959 -91 
Q 1206 -91 779 398 
Q 353 888 353 1747 
Q 353 2609 779 3096 
Q 1206 3584 1959 3584 
z
" transform="scale(0.015625)"/>
      <path id="DejaVuSans-6e" d="M 3513 2113 
L 3513 0 
L 2938 0 
L 2938 2094 
Q 2938 2591 2744 2837 
Q 2550 3084 2163 3084 
Q 1697 3084 1428 2787 
Q 1159 2491 1159 1978 
L 1159 0 
L 581 0 
L 581 3500 
L 1159 3500 
L 1159 2956 
Q 1366 3272 1645 3428 
Q 1925 3584 2291 3584 
Q 2894 3584 3203 3211 
Q 3513 2838 3513 2113 
z
" transform="scale(0.015625)"/>
      <path id="DejaVuSans-67" d="M 2906 1791 
Q 2906 2416 2648 2759 
Q 2391 3103 1925 3103 
Q 1463 3103 1205 2759 
Q 947 2416 947 1791 
Q 947 1169 1205 825 
Q 1463 481 1925 481 
Q 2391 481 2648 825 
Q 2906 1169 2906 1791 
z
M 3481 434 
Q 3481 -459 3084 -895 
Q 2688 -1331 1869 -1331 
Q 1566 -1331 1297 -1286 
Q 1028 -1241 775 -1147 
L 775 -588 
Q 1028 -725 1275 -790 
Q 1522 -856 1778 -856 
Q 2344 -856 2625 -561 
Q 2906 -266 2906 331 
L 2906 616 
Q 2728 306 2450 153 
Q 2172 0 1784 0 
Q 1141 0 747 490 
Q 353 981 353 1791 
Q 353 2603 747 3093 
Q 1141 3584 1784 3584 
Q 2172 3584 2450 3431 
Q 2728 3278 2906 2969 
L 2906 3500 
L 3481 3500 
L 3481 434 
z
" transform="scale(0.015625)"/>
      <path id="DejaVuSans-65" d="M 3597 1894 
L 3597 1613 
L 953 1613 
Q 991 1019 1311 708 
Q 1631 397 2203 397 
Q 2534 397 2845 478 
Q 3156 559 3463 722 
L 3463 178 
Q 3153 47 2828 -22 
Q 2503 -91 2169 -91 
Q 1331 -91 842 396 
Q 353 884 353 1716 
Q 353 2575 817 3079 
Q 1281 3584 2069 3584 
Q 2775 3584 3186 3129 
Q 3597 2675 3597 1894 
z
M 3022 2063 
Q 3016 2534 2758 2815 
Q 2500 3097 2075 3097 
Q 1594 3097 1305 2825 
Q 1016 2553 972 2059 
L 3022 2063 
z
" transform="scale(0.015625)"/>
      <path id="DejaVuSans-72" d="M 2631 2963 
Q 2534 3019 2420 3045 
Q 2306 3072 2169 3072 
Q 1681 3072 1420 2755 
Q 1159 2438 1159 1844 
L 1159 0 
L 581 0 
L 581 3500 
L 1159 3500 
L 1159 2956 
Q 1341 3275 1631 3429 
Q 1922 3584 2338 3584 
Q 2397 3584 2469 3576 
Q 2541 3569 2628 3553 
L 2631 2963 
z
" transform="scale(0.015625)"/>
      <path id="DejaVuSans-61" d="M 2194 1759 
Q 1497 1759 1228 1600 
Q 959 1441 959 1056 
Q 959 750 1161 570 
Q 1363 391 1709 391 
Q 2188 391 2477 730 
Q 2766 1069 2766 1631 
L 2766 1759 
L 2194 1759 
z
M 3341 1997 
L 3341 0 
L 2766 0 
L 2766 531 
Q 2569 213 2275 61 
Q 1981 -91 1556 -91 
Q 1019 -91 701 211 
Q 384 513 384 1019 
Q 384 1609 779 1909 
Q 1175 2209 1959 2209 
L 2766 2209 
L 2766 2266 
Q 2766 2663 2505 2880 
Q 2244 3097 1772 3097 
Q 1472 3097 1187 3025 
Q 903 2953 641 2809 
L 641 3341 
Q 956 3463 1253 3523 
Q 1550 3584 1831 3584 
Q 2591 3584 2966 3190 
Q 3341 2797 3341 1997 
z
" transform="scale(0.015625)"/>
      <path id="DejaVuSans-6c" d="M 603 4863 
L 1178 4863 
L 1178 0 
L 603 0 
L 603 4863 
z
" transform="scale(0.015625)"/>
      <path id="DejaVuSans-69" d="M 603 3500 
L 1178 3500 
L 1178 0 
L 603 0 
L 603 3500 
z
M 603 4863 
L 1178 4863 
L 1178 4134 
L 603 4134 
L 603 4863 
z
" transform="scale(0.015625)"/>
      <path id="DejaVuSans-7a" d="M 353 3500 
L 3084 3500 
L 3084 2975 
L 922 459 
L 3084 459 
L 3084 0 
L 275 0 
L 275 525 
L 2438 3041 
L 353 3041 
L 353 3500 
z
" transform="scale(0.015625)"/>
      <path id="DejaVuSans-64" d="M 2906 2969 
L 2906 4863 
L 3481 4863 
L 3481 0 
L 2906 0 
L 2906 525 
Q 2725 213 2448 61 
Q 2172 -91 1784 -91 
Q 1150 -91 751 415 
Q 353 922 353 1747 
Q 353 2572 751 3078 
Q 1150 3584 1784 3584 
Q 2172 3584 2448 3432 
Q 2725 3281 2906 2969 
z
M 947 1747 
Q 947 1113 1208 752 
Q 1469 391 1925 391 
Q 2381 391 2643 752 
Q 2906 1113 2906 1747 
Q 2906 2381 2643 2742 
Q 2381 3103 1925 3103 
Q 1469 3103 1208 2742 
Q 947 2381 947 1747 
z
" transform="scale(0.015625)"/>
      <path id="DejaVuSans-6d" d="M 3328 2828 
Q 3544 3216 3844 3400 
Q 4144 3584 4550 3584 
Q 5097 3584 5394 3201 
Q 5691 2819 5691 2113 
L 5691 0 
L 5113 0 
L 5113 2094 
Q 5113 2597 4934 2840 
Q 4756 3084 4391 3084 
Q 3944 3084 3684 2787 
Q 3425 2491 3425 1978 
L 3425 0 
L 2847 0 
L 2847 2094 
Q 2847 2600 2669 2842 
Q 2491 3084 2119 3084 
Q 1678 3084 1418 2786 
Q 1159 2488 1159 1978 
L 1159 0 
L 581 0 
L 581 3500 
L 1159 3500 
L 1159 2956 
Q 1356 3278 1631 3431 
Q 1906 3584 2284 3584 
Q 2666 3584 2933 3390 
Q 3200 3197 3328 2828 
z
" transform="scale(0.015625)"/>
      <path id="DejaVuSans-73" d="M 2834 3397 
L 2834 2853 
Q 2591 2978 2328 3040 
Q 2066 3103 1784 3103 
Q 1356 3103 1142 2972 
Q 928 2841 928 2578 
Q 928 2378 1081 2264 
Q 1234 2150 1697 2047 
L 1894 2003 
Q 2506 1872 2764 1633 
Q 3022 1394 3022 966 
Q 3022 478 2636 193 
Q 2250 -91 1575 -91 
Q 1294 -91 989 -36 
Q 684 19 347 128 
L 347 722 
Q 666 556 975 473 
Q 1284 391 1588 391 
Q 1994 391 2212 530 
Q 2431 669 2431 922 
Q 2431 1156 2273 1281 
Q 2116 1406 1581 1522 
L 1381 1569 
Q 847 1681 609 1914 
Q 372 2147 372 2553 
Q 372 3047 722 3315 
Q 1072 3584 1716 3584 
Q 2034 3584 2315 3537 
Q 2597 3491 2834 3397 
z
" transform="scale(0.015625)"/>
     </defs>
     <use xlink:href="#DejaVuSans-41"/>
     <use xlink:href="#DejaVuSans-55" x="68.408203"/>
     <use xlink:href="#DejaVuSans-50" x="141.601562"/>
     <use xlink:href="#DejaVuSans-52" x="201.904297"/>
     <use xlink:href="#DejaVuSans-43" x="266.386719"/>
     <use xlink:href="#DejaVuSans-5f" x="336.210938"/>
     <use xlink:href="#DejaVuSans-30" x="386.210938"/>
     <use xlink:href="#DejaVuSans-20" x="449.833984"/>
     <use xlink:href="#DejaVuSans-6f" x="481.621094"/>
     <use xlink:href="#DejaVuSans-6e" x="542.802734"/>
     <use xlink:href="#DejaVuSans-20" x="606.181641"/>
     <use xlink:href="#DejaVuSans-67" x="637.96875"/>
     <use xlink:href="#DejaVuSans-65" x="701.445312"/>
     <use xlink:href="#DejaVuSans-6e" x="762.96875"/>
     <use xlink:href="#DejaVuSans-65" x="826.347656"/>
     <use xlink:href="#DejaVuSans-72" x="887.871094"/>
     <use xlink:href="#DejaVuSans-61" x="928.984375"/>
     <use xlink:href="#DejaVuSans-6c" x="990.263672"/>
     <use xlink:href="#DejaVuSans-69" x="1018.046875"/>
     <use xlink:href="#DejaVuSans-7a" x="1045.830078"/>
     <use xlink:href="#DejaVuSans-65" x="1098.320312"/>
     <use xlink:href="#DejaVuSans-64" x="1159.84375"/>
     <use xlink:href="#DejaVuSans-20" x="1223.320312"/>
     <use xlink:href="#DejaVuSans-6d" x="1255.107422"/>
     <use xlink:href="#DejaVuSans-6f" x="1352.519531"/>
     <use xlink:href="#DejaVuSans-64" x="1413.701172"/>
     <use xlink:href="#DejaVuSans-65" x="1477.177734"/>
     <use xlink:href="#DejaVuSans-6c" x="1538.701172"/>
     <use xlink:href="#DejaVuSans-73" x="1566.484375"/>
    </g>
   </g>
   <g id="legend_1">
    <g id="patch_22">
     <path d="M 595.446387 326.5344 
L 888.989199 326.5344 
Q 891.789199 326.5344 891.789199 323.7344 
L 891.789199 97.1444 
Q 891.789199 94.3444 888.989199 94.3444 
L 595.446387 94.3444 
Q 592.646387 94.3444 592.646387 97.1444 
L 592.646387 323.7344 
Q 592.646387 326.5344 595.446387 326.5344 
z
" style="fill: #ffffff; opacity: 0.8; stroke: #cccccc; stroke-linejoin: miter"/>
    </g>
    <g id="text_2">
     <!-- Models -->
     <g transform="translate(717.552637 110.582212) scale(0.14 -0.14)">
      <defs>
       <path id="DejaVuSans-4d" d="M 628 4666 
L 1569 4666 
L 2759 1491 
L 3956 4666 
L 4897 4666 
L 4897 0 
L 4281 0 
L 4281 4097 
L 3078 897 
L 2444 897 
L 1241 4097 
L 1241 0 
L 628 0 
L 628 4666 
z
" transform="scale(0.015625)"/>
      </defs>
      <use xlink:href="#DejaVuSans-4d"/>
      <use xlink:href="#DejaVuSans-6f" x="86.279297"/>
      <use xlink:href="#DejaVuSans-64" x="147.460938"/>
      <use xlink:href="#DejaVuSans-65" x="210.9375"/>
      <use xlink:href="#DejaVuSans-6c" x="272.460938"/>
      <use xlink:href="#DejaVuSans-73" x="300.244141"/>
     </g>
    </g>
    <g id="patch_23">
     <path d="M 598.246387 131.131588 
L 626.246387 131.131588 
L 626.246387 121.331588 
L 598.246387 121.331588 
z
" style="fill: #a8d3b5; stroke: #ffffff; stroke-linejoin: miter"/>
    </g>
    <g id="text_3">
     <!-- random_forest (48.44%) -->
     <g transform="translate(637.446387 131.131588) scale(0.14 -0.14)">
      <defs>
       <path id="DejaVuSans-66" d="M 2375 4863 
L 2375 4384 
L 1825 4384 
Q 1516 4384 1395 4259 
Q 1275 4134 1275 3809 
L 1275 3500 
L 2222 3500 
L 2222 3053 
L 1275 3053 
L 1275 0 
L 697 0 
L 697 3053 
L 147 3053 
L 147 3500 
L 697 3500 
L 697 3744 
Q 697 4328 969 4595 
Q 1241 4863 1831 4863 
L 2375 4863 
z
" transform="scale(0.015625)"/>
       <path id="DejaVuSans-74" d="M 1172 4494 
L 1172 3500 
L 2356 3500 
L 2356 3053 
L 1172 3053 
L 1172 1153 
Q 1172 725 1289 603 
Q 1406 481 1766 481 
L 2356 481 
L 2356 0 
L 1766 0 
Q 1100 0 847 248 
Q 594 497 594 1153 
L 594 3053 
L 172 3053 
L 172 3500 
L 594 3500 
L 594 4494 
L 1172 4494 
z
" transform="scale(0.015625)"/>
       <path id="DejaVuSans-28" d="M 1984 4856 
Q 1566 4138 1362 3434 
Q 1159 2731 1159 2009 
Q 1159 1288 1364 580 
Q 1569 -128 1984 -844 
L 1484 -844 
Q 1016 -109 783 600 
Q 550 1309 550 2009 
Q 550 2706 781 3412 
Q 1013 4119 1484 4856 
L 1984 4856 
z
" transform="scale(0.015625)"/>
       <path id="DejaVuSans-34" d="M 2419 4116 
L 825 1625 
L 2419 1625 
L 2419 4116 
z
M 2253 4666 
L 3047 4666 
L 3047 1625 
L 3713 1625 
L 3713 1100 
L 3047 1100 
L 3047 0 
L 2419 0 
L 2419 1100 
L 313 1100 
L 313 1709 
L 2253 4666 
z
" transform="scale(0.015625)"/>
       <path id="DejaVuSans-38" d="M 2034 2216 
Q 1584 2216 1326 1975 
Q 1069 1734 1069 1313 
Q 1069 891 1326 650 
Q 1584 409 2034 409 
Q 2484 409 2743 651 
Q 3003 894 3003 1313 
Q 3003 1734 2745 1975 
Q 2488 2216 2034 2216 
z
M 1403 2484 
Q 997 2584 770 2862 
Q 544 3141 544 3541 
Q 544 4100 942 4425 
Q 1341 4750 2034 4750 
Q 2731 4750 3128 4425 
Q 3525 4100 3525 3541 
Q 3525 3141 3298 2862 
Q 3072 2584 2669 2484 
Q 3125 2378 3379 2068 
Q 3634 1759 3634 1313 
Q 3634 634 3220 271 
Q 2806 -91 2034 -91 
Q 1263 -91 848 271 
Q 434 634 434 1313 
Q 434 1759 690 2068 
Q 947 2378 1403 2484 
z
M 1172 3481 
Q 1172 3119 1398 2916 
Q 1625 2713 2034 2713 
Q 2441 2713 2670 2916 
Q 2900 3119 2900 3481 
Q 2900 3844 2670 4047 
Q 2441 4250 2034 4250 
Q 1625 4250 1398 4047 
Q 1172 3844 1172 3481 
z
" transform="scale(0.015625)"/>
       <path id="DejaVuSans-2e" d="M 684 794 
L 1344 794 
L 1344 0 
L 684 0 
L 684 794 
z
" transform="scale(0.015625)"/>
       <path id="DejaVuSans-25" d="M 4653 2053 
Q 4381 2053 4226 1822 
Q 4072 1591 4072 1178 
Q 4072 772 4226 539 
Q 4381 306 4653 306 
Q 4919 306 5073 539 
Q 5228 772 5228 1178 
Q 5228 1588 5073 1820 
Q 4919 2053 4653 2053 
z
M 4653 2450 
Q 5147 2450 5437 2106 
Q 5728 1763 5728 1178 
Q 5728 594 5436 251 
Q 5144 -91 4653 -91 
Q 4153 -91 3862 251 
Q 3572 594 3572 1178 
Q 3572 1766 3864 2108 
Q 4156 2450 4653 2450 
z
M 1428 4353 
Q 1159 4353 1004 4120 
Q 850 3888 850 3481 
Q 850 3069 1003 2837 
Q 1156 2606 1428 2606 
Q 1700 2606 1854 2837 
Q 2009 3069 2009 3481 
Q 2009 3884 1853 4118 
Q 1697 4353 1428 4353 
z
M 4250 4750 
L 4750 4750 
L 1831 -91 
L 1331 -91 
L 4250 4750 
z
M 1428 4750 
Q 1922 4750 2215 4408 
Q 2509 4066 2509 3481 
Q 2509 2891 2217 2550 
Q 1925 2209 1428 2209 
Q 931 2209 642 2551 
Q 353 2894 353 3481 
Q 353 4063 643 4406 
Q 934 4750 1428 4750 
z
" transform="scale(0.015625)"/>
       <path id="DejaVuSans-29" d="M 513 4856 
L 1013 4856 
Q 1481 4119 1714 3412 
Q 1947 2706 1947 2009 
Q 1947 1309 1714 600 
Q 1481 -109 1013 -844 
L 513 -844 
Q 928 -128 1133 580 
Q 1338 1288 1338 2009 
Q 1338 2731 1133 3434 
Q 928 4138 513 4856 
z
" transform="scale(0.015625)"/>
      </defs>
      <use xlink:href="#DejaVuSans-72"/>
      <use xlink:href="#DejaVuSans-61" x="41.113281"/>
      <use xlink:href="#DejaVuSans-6e" x="102.392578"/>
      <use xlink:href="#DejaVuSans-64" x="165.771484"/>
      <use xlink:href="#DejaVuSans-6f" x="229.248047"/>
      <use xlink:href="#DejaVuSans-6d" x="290.429688"/>
      <use xlink:href="#DejaVuSans-5f" x="387.841797"/>
      <use xlink:href="#DejaVuSans-66" x="437.841797"/>
      <use xlink:href="#DejaVuSans-6f" x="473.046875"/>
      <use xlink:href="#DejaVuSans-72" x="534.228516"/>
      <use xlink:href="#DejaVuSans-65" x="573.091797"/>
      <use xlink:href="#DejaVuSans-73" x="634.615234"/>
      <use xlink:href="#DejaVuSans-74" x="686.714844"/>
      <use xlink:href="#DejaVuSans-20" x="725.923828"/>
      <use xlink:href="#DejaVuSans-28" x="757.710938"/>
      <use xlink:href="#DejaVuSans-34" x="796.724609"/>
      <use xlink:href="#DejaVuSans-38" x="860.347656"/>
      <use xlink:href="#DejaVuSans-2e" x="923.970703"/>
      <use xlink:href="#DejaVuSans-34" x="955.757812"/>
      <use xlink:href="#DejaVuSans-34" x="1019.380859"/>
      <use xlink:href="#DejaVuSans-25" x="1083.003906"/>
      <use xlink:href="#DejaVuSans-29" x="1178.023438"/>
     </g>
    </g>
    <g id="patch_24">
     <path d="M 598.246387 152.070338 
L 626.246387 152.070338 
L 626.246387 142.270338 
L 598.246387 142.270338 
z
" style="fill: #a8d3b5; stroke: #ffffff; stroke-linejoin: miter"/>
    </g>
    <g id="text_4">
     <!-- xgboost (48.14%) -->
     <g transform="translate(637.446387 152.070338) scale(0.14 -0.14)">
      <defs>
       <path id="DejaVuSans-78" d="M 3513 3500 
L 2247 1797 
L 3578 0 
L 2900 0 
L 1881 1375 
L 863 0 
L 184 0 
L 1544 1831 
L 300 3500 
L 978 3500 
L 1906 2253 
L 2834 3500 
L 3513 3500 
z
" transform="scale(0.015625)"/>
       <path id="DejaVuSans-62" d="M 3116 1747 
Q 3116 2381 2855 2742 
Q 2594 3103 2138 3103 
Q 1681 3103 1420 2742 
Q 1159 2381 1159 1747 
Q 1159 1113 1420 752 
Q 1681 391 2138 391 
Q 2594 391 2855 752 
Q 3116 1113 3116 1747 
z
M 1159 2969 
Q 1341 3281 1617 3432 
Q 1894 3584 2278 3584 
Q 2916 3584 3314 3078 
Q 3713 2572 3713 1747 
Q 3713 922 3314 415 
Q 2916 -91 2278 -91 
Q 1894 -91 1617 61 
Q 1341 213 1159 525 
L 1159 0 
L 581 0 
L 581 4863 
L 1159 4863 
L 1159 2969 
z
" transform="scale(0.015625)"/>
       <path id="DejaVuSans-31" d="M 794 531 
L 1825 531 
L 1825 4091 
L 703 3866 
L 703 4441 
L 1819 4666 
L 2450 4666 
L 2450 531 
L 3481 531 
L 3481 0 
L 794 0 
L 794 531 
z
" transform="scale(0.015625)"/>
      </defs>
      <use xlink:href="#DejaVuSans-78"/>
      <use xlink:href="#DejaVuSans-67" x="59.179688"/>
      <use xlink:href="#DejaVuSans-62" x="122.65625"/>
      <use xlink:href="#DejaVuSans-6f" x="186.132812"/>
      <use xlink:href="#DejaVuSans-6f" x="247.314453"/>
      <use xlink:href="#DejaVuSans-73" x="308.496094"/>
      <use xlink:href="#DejaVuSans-74" x="360.595703"/>
      <use xlink:href="#DejaVuSans-20" x="399.804688"/>
      <use xlink:href="#DejaVuSans-28" x="431.591797"/>
      <use xlink:href="#DejaVuSans-34" x="470.605469"/>
      <use xlink:href="#DejaVuSans-38" x="534.228516"/>
      <use xlink:href="#DejaVuSans-2e" x="597.851562"/>
      <use xlink:href="#DejaVuSans-31" x="629.638672"/>
      <use xlink:href="#DejaVuSans-34" x="693.261719"/>
      <use xlink:href="#DejaVuSans-25" x="756.884766"/>
      <use xlink:href="#DejaVuSans-29" x="851.904297"/>
     </g>
    </g>
    <g id="patch_25">
     <path d="M 598.246387 172.619712 
L 626.246387 172.619712 
L 626.246387 162.819712 
L 598.246387 162.819712 
z
" style="fill: #b3d9be; stroke: #ffffff; stroke-linejoin: miter"/>
    </g>
    <g id="text_5">
     <!-- neural_network (42.63%) -->
     <g transform="translate(637.446387 172.619712) scale(0.14 -0.14)">
      <defs>
       <path id="DejaVuSans-75" d="M 544 1381 
L 544 3500 
L 1119 3500 
L 1119 1403 
Q 1119 906 1312 657 
Q 1506 409 1894 409 
Q 2359 409 2629 706 
Q 2900 1003 2900 1516 
L 2900 3500 
L 3475 3500 
L 3475 0 
L 2900 0 
L 2900 538 
Q 2691 219 2414 64 
Q 2138 -91 1772 -91 
Q 1169 -91 856 284 
Q 544 659 544 1381 
z
M 1991 3584 
L 1991 3584 
z
" transform="scale(0.015625)"/>
       <path id="DejaVuSans-77" d="M 269 3500 
L 844 3500 
L 1563 769 
L 2278 3500 
L 2956 3500 
L 3675 769 
L 4391 3500 
L 4966 3500 
L 4050 0 
L 3372 0 
L 2619 2869 
L 1863 0 
L 1184 0 
L 269 3500 
z
" transform="scale(0.015625)"/>
       <path id="DejaVuSans-6b" d="M 581 4863 
L 1159 4863 
L 1159 1991 
L 2875 3500 
L 3609 3500 
L 1753 1863 
L 3688 0 
L 2938 0 
L 1159 1709 
L 1159 0 
L 581 0 
L 581 4863 
z
" transform="scale(0.015625)"/>
       <path id="DejaVuSans-32" d="M 1228 531 
L 3431 531 
L 3431 0 
L 469 0 
L 469 531 
Q 828 903 1448 1529 
Q 2069 2156 2228 2338 
Q 2531 2678 2651 2914 
Q 2772 3150 2772 3378 
Q 2772 3750 2511 3984 
Q 2250 4219 1831 4219 
Q 1534 4219 1204 4116 
Q 875 4013 500 3803 
L 500 4441 
Q 881 4594 1212 4672 
Q 1544 4750 1819 4750 
Q 2544 4750 2975 4387 
Q 3406 4025 3406 3419 
Q 3406 3131 3298 2873 
Q 3191 2616 2906 2266 
Q 2828 2175 2409 1742 
Q 1991 1309 1228 531 
z
" transform="scale(0.015625)"/>
       <path id="DejaVuSans-36" d="M 2113 2584 
Q 1688 2584 1439 2293 
Q 1191 2003 1191 1497 
Q 1191 994 1439 701 
Q 1688 409 2113 409 
Q 2538 409 2786 701 
Q 3034 994 3034 1497 
Q 3034 2003 2786 2293 
Q 2538 2584 2113 2584 
z
M 3366 4563 
L 3366 3988 
Q 3128 4100 2886 4159 
Q 2644 4219 2406 4219 
Q 1781 4219 1451 3797 
Q 1122 3375 1075 2522 
Q 1259 2794 1537 2939 
Q 1816 3084 2150 3084 
Q 2853 3084 3261 2657 
Q 3669 2231 3669 1497 
Q 3669 778 3244 343 
Q 2819 -91 2113 -91 
Q 1303 -91 875 529 
Q 447 1150 447 2328 
Q 447 3434 972 4092 
Q 1497 4750 2381 4750 
Q 2619 4750 2861 4703 
Q 3103 4656 3366 4563 
z
" transform="scale(0.015625)"/>
       <path id="DejaVuSans-33" d="M 2597 2516 
Q 3050 2419 3304 2112 
Q 3559 1806 3559 1356 
Q 3559 666 3084 287 
Q 2609 -91 1734 -91 
Q 1441 -91 1130 -33 
Q 819 25 488 141 
L 488 750 
Q 750 597 1062 519 
Q 1375 441 1716 441 
Q 2309 441 2620 675 
Q 2931 909 2931 1356 
Q 2931 1769 2642 2001 
Q 2353 2234 1838 2234 
L 1294 2234 
L 1294 2753 
L 1863 2753 
Q 2328 2753 2575 2939 
Q 2822 3125 2822 3475 
Q 2822 3834 2567 4026 
Q 2313 4219 1838 4219 
Q 1578 4219 1281 4162 
Q 984 4106 628 3988 
L 628 4550 
Q 988 4650 1302 4700 
Q 1616 4750 1894 4750 
Q 2613 4750 3031 4423 
Q 3450 4097 3450 3541 
Q 3450 3153 3228 2886 
Q 3006 2619 2597 2516 
z
" transform="scale(0.015625)"/>
      </defs>
      <use xlink:href="#DejaVuSans-6e"/>
      <use xlink:href="#DejaVuSans-65" x="63.378906"/>
      <use xlink:href="#DejaVuSans-75" x="124.902344"/>
      <use xlink:href="#DejaVuSans-72" x="188.28125"/>
      <use xlink:href="#DejaVuSans-61" x="229.394531"/>
      <use xlink:href="#DejaVuSans-6c" x="290.673828"/>
      <use xlink:href="#DejaVuSans-5f" x="318.457031"/>
      <use xlink:href="#DejaVuSans-6e" x="368.457031"/>
      <use xlink:href="#DejaVuSans-65" x="431.835938"/>
      <use xlink:href="#DejaVuSans-74" x="493.359375"/>
      <use xlink:href="#DejaVuSans-77" x="532.568359"/>
      <use xlink:href="#DejaVuSans-6f" x="614.355469"/>
      <use xlink:href="#DejaVuSans-72" x="675.537109"/>
      <use xlink:href="#DejaVuSans-6b" x="716.650391"/>
      <use xlink:href="#DejaVuSans-20" x="774.560547"/>
      <use xlink:href="#DejaVuSans-28" x="806.347656"/>
      <use xlink:href="#DejaVuSans-34" x="845.361328"/>
      <use xlink:href="#DejaVuSans-32" x="908.984375"/>
      <use xlink:href="#DejaVuSans-2e" x="972.607422"/>
      <use xlink:href="#DejaVuSans-36" x="1004.394531"/>
      <use xlink:href="#DejaVuSans-33" x="1068.017578"/>
      <use xlink:href="#DejaVuSans-25" x="1131.640625"/>
      <use xlink:href="#DejaVuSans-29" x="1226.660156"/>
     </g>
    </g>
    <g id="patch_26">
     <path d="M 598.246387 193.558463 
L 626.246387 193.558463 
L 626.246387 183.758463 
L 598.246387 183.758463 
z
" style="fill: #b6dbc1; stroke: #ffffff; stroke-linejoin: miter"/>
    </g>
    <g id="text_6">
     <!-- crf (40.62%) -->
     <g transform="translate(637.446387 193.558463) scale(0.14 -0.14)">
      <defs>
       <path id="DejaVuSans-63" d="M 3122 3366 
L 3122 2828 
Q 2878 2963 2633 3030 
Q 2388 3097 2138 3097 
Q 1578 3097 1268 2742 
Q 959 2388 959 1747 
Q 959 1106 1268 751 
Q 1578 397 2138 397 
Q 2388 397 2633 464 
Q 2878 531 3122 666 
L 3122 134 
Q 2881 22 2623 -34 
Q 2366 -91 2075 -91 
Q 1284 -91 818 406 
Q 353 903 353 1747 
Q 353 2603 823 3093 
Q 1294 3584 2113 3584 
Q 2378 3584 2631 3529 
Q 2884 3475 3122 3366 
z
" transform="scale(0.015625)"/>
      </defs>
      <use xlink:href="#DejaVuSans-63"/>
      <use xlink:href="#DejaVuSans-72" x="54.980469"/>
      <use xlink:href="#DejaVuSans-66" x="96.09375"/>
      <use xlink:href="#DejaVuSans-20" x="131.298828"/>
      <use xlink:href="#DejaVuSans-28" x="163.085938"/>
      <use xlink:href="#DejaVuSans-34" x="202.099609"/>
      <use xlink:href="#DejaVuSans-30" x="265.722656"/>
      <use xlink:href="#DejaVuSans-2e" x="329.345703"/>
      <use xlink:href="#DejaVuSans-36" x="361.132812"/>
      <use xlink:href="#DejaVuSans-32" x="424.755859"/>
      <use xlink:href="#DejaVuSans-25" x="488.378906"/>
      <use xlink:href="#DejaVuSans-29" x="583.398438"/>
     </g>
    </g>
    <g id="patch_27">
     <path d="M 598.246387 214.107838 
L 626.246387 214.107838 
L 626.246387 204.307838 
L 598.246387 204.307838 
z
" style="fill: #badcc4; stroke: #ffffff; stroke-linejoin: miter"/>
    </g>
    <g id="text_7">
     <!-- logistic_regression (38.46%) -->
     <g transform="translate(637.446387 214.107838) scale(0.14 -0.14)">
      <use xlink:href="#DejaVuSans-6c"/>
      <use xlink:href="#DejaVuSans-6f" x="27.783203"/>
      <use xlink:href="#DejaVuSans-67" x="88.964844"/>
      <use xlink:href="#DejaVuSans-69" x="152.441406"/>
      <use xlink:href="#DejaVuSans-73" x="180.224609"/>
      <use xlink:href="#DejaVuSans-74" x="232.324219"/>
      <use xlink:href="#DejaVuSans-69" x="271.533203"/>
      <use xlink:href="#DejaVuSans-63" x="299.316406"/>
      <use xlink:href="#DejaVuSans-5f" x="354.296875"/>
      <use xlink:href="#DejaVuSans-72" x="404.296875"/>
      <use xlink:href="#DejaVuSans-65" x="443.160156"/>
      <use xlink:href="#DejaVuSans-67" x="504.683594"/>
      <use xlink:href="#DejaVuSans-72" x="568.160156"/>
      <use xlink:href="#DejaVuSans-65" x="607.023438"/>
      <use xlink:href="#DejaVuSans-73" x="668.546875"/>
      <use xlink:href="#DejaVuSans-73" x="720.646484"/>
      <use xlink:href="#DejaVuSans-69" x="772.746094"/>
      <use xlink:href="#DejaVuSans-6f" x="800.529297"/>
      <use xlink:href="#DejaVuSans-6e" x="861.710938"/>
      <use xlink:href="#DejaVuSans-20" x="925.089844"/>
      <use xlink:href="#DejaVuSans-28" x="956.876953"/>
      <use xlink:href="#DejaVuSans-33" x="995.890625"/>
      <use xlink:href="#DejaVuSans-38" x="1059.513672"/>
      <use xlink:href="#DejaVuSans-2e" x="1123.136719"/>
      <use xlink:href="#DejaVuSans-34" x="1154.923828"/>
      <use xlink:href="#DejaVuSans-36" x="1218.546875"/>
      <use xlink:href="#DejaVuSans-25" x="1282.169922"/>
      <use xlink:href="#DejaVuSans-29" x="1377.189453"/>
     </g>
    </g>
    <g id="patch_28">
     <path d="M 598.246387 235.046587 
L 626.246387 235.046587 
L 626.246387 225.246587 
L 598.246387 225.246587 
z
" style="fill: #badcc4; stroke: #ffffff; stroke-linejoin: miter"/>
    </g>
    <g id="text_8">
     <!-- naive_bayes (38.34%) -->
     <g transform="translate(637.446387 235.046587) scale(0.14 -0.14)">
      <defs>
       <path id="DejaVuSans-76" d="M 191 3500 
L 800 3500 
L 1894 563 
L 2988 3500 
L 3597 3500 
L 2284 0 
L 1503 0 
L 191 3500 
z
" transform="scale(0.015625)"/>
       <path id="DejaVuSans-79" d="M 2059 -325 
Q 1816 -950 1584 -1140 
Q 1353 -1331 966 -1331 
L 506 -1331 
L 506 -850 
L 844 -850 
Q 1081 -850 1212 -737 
Q 1344 -625 1503 -206 
L 1606 56 
L 191 3500 
L 800 3500 
L 1894 763 
L 2988 3500 
L 3597 3500 
L 2059 -325 
z
" transform="scale(0.015625)"/>
      </defs>
      <use xlink:href="#DejaVuSans-6e"/>
      <use xlink:href="#DejaVuSans-61" x="63.378906"/>
      <use xlink:href="#DejaVuSans-69" x="124.658203"/>
      <use xlink:href="#DejaVuSans-76" x="152.441406"/>
      <use xlink:href="#DejaVuSans-65" x="211.621094"/>
      <use xlink:href="#DejaVuSans-5f" x="273.144531"/>
      <use xlink:href="#DejaVuSans-62" x="323.144531"/>
      <use xlink:href="#DejaVuSans-61" x="386.621094"/>
      <use xlink:href="#DejaVuSans-79" x="447.900391"/>
      <use xlink:href="#DejaVuSans-65" x="507.080078"/>
      <use xlink:href="#DejaVuSans-73" x="568.603516"/>
      <use xlink:href="#DejaVuSans-20" x="620.703125"/>
      <use xlink:href="#DejaVuSans-28" x="652.490234"/>
      <use xlink:href="#DejaVuSans-33" x="691.503906"/>
      <use xlink:href="#DejaVuSans-38" x="755.126953"/>
      <use xlink:href="#DejaVuSans-2e" x="818.75"/>
      <use xlink:href="#DejaVuSans-33" x="850.537109"/>
      <use xlink:href="#DejaVuSans-34" x="914.160156"/>
      <use xlink:href="#DejaVuSans-25" x="977.783203"/>
      <use xlink:href="#DejaVuSans-29" x="1072.802734"/>
     </g>
    </g>
    <g id="patch_29">
     <path d="M 598.246387 255.985338 
L 626.246387 255.985338 
L 626.246387 246.185338 
L 598.246387 246.185338 
z
" style="fill: #bddec7; stroke: #ffffff; stroke-linejoin: miter"/>
    </g>
    <g id="text_9">
     <!-- svm (36.83%) -->
     <g transform="translate(637.446387 255.985338) scale(0.14 -0.14)">
      <use xlink:href="#DejaVuSans-73"/>
      <use xlink:href="#DejaVuSans-76" x="52.099609"/>
      <use xlink:href="#DejaVuSans-6d" x="111.279297"/>
      <use xlink:href="#DejaVuSans-20" x="208.691406"/>
      <use xlink:href="#DejaVuSans-28" x="240.478516"/>
      <use xlink:href="#DejaVuSans-33" x="279.492188"/>
      <use xlink:href="#DejaVuSans-36" x="343.115234"/>
      <use xlink:href="#DejaVuSans-2e" x="406.738281"/>
      <use xlink:href="#DejaVuSans-38" x="438.525391"/>
      <use xlink:href="#DejaVuSans-33" x="502.148438"/>
      <use xlink:href="#DejaVuSans-25" x="565.771484"/>
      <use xlink:href="#DejaVuSans-29" x="660.791016"/>
     </g>
    </g>
    <g id="patch_30">
     <path d="M 598.246387 276.534713 
L 626.246387 276.534713 
L 626.246387 266.734713 
L 598.246387 266.734713 
z
" style="fill: #c5e2cd; stroke: #ffffff; stroke-linejoin: miter"/>
    </g>
    <g id="text_10">
     <!-- recurrent_neural_network (32.32%) -->
     <g transform="translate(637.446387 276.534713) scale(0.14 -0.14)">
      <use xlink:href="#DejaVuSans-72"/>
      <use xlink:href="#DejaVuSans-65" x="38.863281"/>
      <use xlink:href="#DejaVuSans-63" x="100.386719"/>
      <use xlink:href="#DejaVuSans-75" x="155.367188"/>
      <use xlink:href="#DejaVuSans-72" x="218.746094"/>
      <use xlink:href="#DejaVuSans-72" x="258.109375"/>
      <use xlink:href="#DejaVuSans-65" x="296.972656"/>
      <use xlink:href="#DejaVuSans-6e" x="358.496094"/>
      <use xlink:href="#DejaVuSans-74" x="421.875"/>
      <use xlink:href="#DejaVuSans-5f" x="461.083984"/>
      <use xlink:href="#DejaVuSans-6e" x="511.083984"/>
      <use xlink:href="#DejaVuSans-65" x="574.462891"/>
      <use xlink:href="#DejaVuSans-75" x="635.986328"/>
      <use xlink:href="#DejaVuSans-72" x="699.365234"/>
      <use xlink:href="#DejaVuSans-61" x="740.478516"/>
      <use xlink:href="#DejaVuSans-6c" x="801.757812"/>
      <use xlink:href="#DejaVuSans-5f" x="829.541016"/>
      <use xlink:href="#DejaVuSans-6e" x="879.541016"/>
      <use xlink:href="#DejaVuSans-65" x="942.919922"/>
      <use xlink:href="#DejaVuSans-74" x="1004.443359"/>
      <use xlink:href="#DejaVuSans-77" x="1043.652344"/>
      <use xlink:href="#DejaVuSans-6f" x="1125.439453"/>
      <use xlink:href="#DejaVuSans-72" x="1186.621094"/>
      <use xlink:href="#DejaVuSans-6b" x="1227.734375"/>
      <use xlink:href="#DejaVuSans-20" x="1285.644531"/>
      <use xlink:href="#DejaVuSans-28" x="1317.431641"/>
      <use xlink:href="#DejaVuSans-33" x="1356.445312"/>
      <use xlink:href="#DejaVuSans-32" x="1420.068359"/>
      <use xlink:href="#DejaVuSans-2e" x="1483.691406"/>
      <use xlink:href="#DejaVuSans-33" x="1515.478516"/>
      <use xlink:href="#DejaVuSans-32" x="1579.101562"/>
      <use xlink:href="#DejaVuSans-25" x="1642.724609"/>
      <use xlink:href="#DejaVuSans-29" x="1737.744141"/>
     </g>
    </g>
    <g id="patch_31">
     <path d="M 598.246387 297.473462 
L 626.246387 297.473462 
L 626.246387 287.673462 
L 598.246387 287.673462 
z
" style="fill: #cee6d5; stroke: #ffffff; stroke-linejoin: miter"/>
    </g>
    <g id="text_11">
     <!-- hmm (27.66%) -->
     <g transform="translate(637.446387 297.473462) scale(0.14 -0.14)">
      <defs>
       <path id="DejaVuSans-68" d="M 3513 2113 
L 3513 0 
L 2938 0 
L 2938 2094 
Q 2938 2591 2744 2837 
Q 2550 3084 2163 3084 
Q 1697 3084 1428 2787 
Q 1159 2491 1159 1978 
L 1159 0 
L 581 0 
L 581 4863 
L 1159 4863 
L 1159 2956 
Q 1366 3272 1645 3428 
Q 1925 3584 2291 3584 
Q 2894 3584 3203 3211 
Q 3513 2838 3513 2113 
z
" transform="scale(0.015625)"/>
       <path id="DejaVuSans-37" d="M 525 4666 
L 3525 4666 
L 3525 4397 
L 1831 0 
L 1172 0 
L 2766 4134 
L 525 4134 
L 525 4666 
z
" transform="scale(0.015625)"/>
      </defs>
      <use xlink:href="#DejaVuSans-68"/>
      <use xlink:href="#DejaVuSans-6d" x="63.378906"/>
      <use xlink:href="#DejaVuSans-6d" x="160.791016"/>
      <use xlink:href="#DejaVuSans-20" x="258.203125"/>
      <use xlink:href="#DejaVuSans-28" x="289.990234"/>
      <use xlink:href="#DejaVuSans-32" x="329.003906"/>
      <use xlink:href="#DejaVuSans-37" x="392.626953"/>
      <use xlink:href="#DejaVuSans-2e" x="456.25"/>
      <use xlink:href="#DejaVuSans-36" x="488.037109"/>
      <use xlink:href="#DejaVuSans-36" x="551.660156"/>
      <use xlink:href="#DejaVuSans-25" x="615.283203"/>
      <use xlink:href="#DejaVuSans-29" x="710.302734"/>
     </g>
    </g>
    <g id="patch_32">
     <path d="M 598.246387 318.022838 
L 626.246387 318.022838 
L 626.246387 308.222838 
L 598.246387 308.222838 
z
" style="fill: #dbede0; stroke: #ffffff; stroke-linejoin: miter"/>
    </g>
    <g id="text_12">
     <!-- knn (20.6%) -->
     <g transform="translate(637.446387 318.022838) scale(0.14 -0.14)">
      <use xlink:href="#DejaVuSans-6b"/>
      <use xlink:href="#DejaVuSans-6e" x="57.910156"/>
      <use xlink:href="#DejaVuSans-6e" x="121.289062"/>
      <use xlink:href="#DejaVuSans-20" x="184.667969"/>
      <use xlink:href="#DejaVuSans-28" x="216.455078"/>
      <use xlink:href="#DejaVuSans-32" x="255.46875"/>
      <use xlink:href="#DejaVuSans-30" x="319.091797"/>
      <use xlink:href="#DejaVuSans-2e" x="382.714844"/>
      <use xlink:href="#DejaVuSans-36" x="414.501953"/>
      <use xlink:href="#DejaVuSans-25" x="478.125"/>
      <use xlink:href="#DejaVuSans-29" x="573.144531"/>
     </g>
    </g>
   </g>
  </g>
 </g>
</svg>
