<?xml version="1.0" encoding="utf-8" standalone="no"?>
<!DOCTYPE svg PUBLIC "-//W3C//DTD SVG 1.1//EN"
  "http://www.w3.org/Graphics/SVG/1.1/DTD/svg11.dtd">
<svg xmlns:xlink="http://www.w3.org/1999/xlink" width="898.989191pt" height="653.068783pt" viewBox="0 0 898.989191 653.068783" xmlns="http://www.w3.org/2000/svg" version="1.1">
 <metadata>
  <rdf:RDF xmlns:dc="http://purl.org/dc/elements/1.1/" xmlns:cc="http://creativecommons.org/ns#" xmlns:rdf="http://www.w3.org/1999/02/22-rdf-syntax-ns#">
   <cc:Work>
    <dc:type rdf:resource="http://purl.org/dc/dcmitype/StillImage"/>
    <dc:date>2023-11-21T14:33:25.062759</dc:date>
    <dc:format>image/svg+xml</dc:format>
    <dc:creator>
     <cc:Agent>
      <dc:title>Matplotlib v3.7.0, https://matplotlib.org/</dc:title>
     </cc:Agent>
    </dc:creator>
   </cc:Work>
  </rdf:RDF>
 </metadata>
 <defs>
  <style type="text/css">*{stroke-linejoin: round; stroke-linecap: butt}</style>
 </defs>
 <g id="figure_1">
  <g id="patch_1">
   <path d="M -0 653.068783 
L 898.989191 653.068783 
L 898.989191 0 
L -0 0 
z
" style="fill: #ffffff"/>
  </g>
  <g id="axes_1">
   <g id="patch_2">
    <path d="M 326.534379 7.2 
C 243.399866 7.2 163.465537 39.664466 103.873616 97.631268 
C 44.281695 155.598071 9.62005 234.604456 7.322005 317.707201 
C 5.02396 400.809946 35.266436 481.611129 91.563818 542.782625 
C 147.861201 603.954121 225.879261 640.786454 308.886727 645.380788 
L 310.244238 620.854143 
C 233.621963 616.613219 161.605291 582.614143 109.638477 526.148146 
C 57.671662 469.68215 29.75553 395.096442 31.876803 318.386216 
C 33.998075 241.67599 65.99344 168.747019 121.001367 115.239202 
C 176.009294 61.731384 249.794828 31.764185 326.534379 31.764185 
z
" style="fill: #f4f5f5; stroke: #ffffff; stroke-linejoin: miter"/>
   </g>
   <g id="patch_3">
    <path d="M 308.886727 645.380788 
C 351.498985 647.739311 394.154853 641.531698 434.327407 627.125687 
C 474.499961 612.719677 511.379951 590.405468 542.782615 561.50495 
C 574.185278 532.604432 599.478029 497.699787 617.162532 458.858757 
C 634.847035 420.017727 644.567045 378.02274 645.746753 335.361569 
C 646.926461 292.700398 639.542102 250.232425 624.031123 210.473441 
C 608.520144 170.714458 585.195004 134.465384 555.437479 103.873605 
C 525.679954 73.281826 490.08949 48.963595 450.774457 32.359517 
C 411.459424 15.755438 369.211798 7.199992 326.534319 7.2 
L 326.534323 31.764185 
C 365.92892 31.764177 404.926728 39.661512 441.217527 54.988354 
C 477.508327 70.315195 510.361063 92.762793 537.829548 121.001358 
C 565.298033 149.239923 586.828931 182.700607 601.146758 219.401207 
C 615.464585 256.101807 622.280916 295.303014 621.191955 334.682556 
C 620.102994 374.062099 611.130676 412.826702 594.80652 448.67996 
C 578.482364 484.533219 555.135209 516.752891 526.148135 543.430293 
C 497.161061 570.107694 463.117993 590.705425 426.035636 604.003281 
C 388.953278 617.301136 349.578631 623.031241 310.244238 620.854143 
z
" style="fill: #b4d6e9; stroke: #ffffff; stroke-linejoin: miter"/>
   </g>
   <g id="patch_4">
    <path d="M 326.534379 31.764185 
C 286.531789 31.764185 246.944679 39.907174 210.189825 55.696026 
C 173.434971 71.484878 140.275868 94.591618 112.736864 123.605588 
C 85.197861 152.619558 63.851015 186.938062 49.999543 224.46597 
C 36.14807 261.993877 30.079703 301.951636 32.164912 341.899841 
C 34.25012 381.848045 44.44559 420.956867 62.128891 456.838729 
C 79.812193 492.720591 104.615997 524.630132 135.026043 550.619289 
C 165.436089 576.608445 200.82068 596.137354 239.019601 608.013784 
C 277.218522 619.890213 317.438282 623.867459 357.22348 619.702712 
L 354.666055 595.272019 
C 318.19629 599.089704 281.328177 595.443896 246.312499 584.557169 
C 211.296822 573.670442 178.860946 555.768941 150.985071 531.945548 
C 123.109196 508.122155 100.372375 478.871741 84.162682 445.980035 
C 67.952989 413.088328 58.607142 377.238575 56.6957 340.619387 
C 54.784259 304.0002 60.346929 267.372254 73.044112 232.971672 
C 85.741295 198.57109 105.309238 167.112461 130.553324 140.516322 
C 155.79741 113.920183 186.193255 92.739005 219.885205 78.265891 
C 253.577154 63.792776 289.865339 56.328369 326.534379 56.328369 
z
" style="fill: #f4f5f5; stroke: #ffffff; stroke-linejoin: miter"/>
   </g>
   <g id="patch_5">
    <path d="M 357.22348 619.702712 
C 432.305864 611.843025 501.57269 575.432388 550.619267 518.042735 
C 599.665845 460.653083 624.839039 386.558967 620.903846 311.168959 
C 616.968653 235.778952 584.218177 164.708324 529.463191 112.736886 
C 474.708204 60.765447 402.02702 31.764185 326.534379 31.764185 
L 326.534379 56.328369 
C 395.735967 56.328369 462.360385 82.91286 512.552456 130.553345 
C 562.744527 178.193831 592.765796 243.341906 596.373057 312.449413 
C 599.980317 381.55692 576.904889 449.476526 531.945527 502.083707 
C 486.986164 554.690889 423.491573 588.067307 354.666055 595.272019 
z
" style="fill: #b7d7ea; stroke: #ffffff; stroke-linejoin: miter"/>
   </g>
   <g id="patch_6">
    <path d="M 326.534379 56.328369 
C 282.854951 56.328369 239.819943 66.919689 201.129637 87.191655 
C 162.439331 107.46362 129.235352 136.818071 104.372681 172.731021 
C 79.510011 208.643972 63.722265 250.055747 58.366924 293.405633 
C 53.011582 336.75552 58.246664 380.764405 73.622039 421.648267 
C 88.997415 462.532129 114.059408 499.08462 146.65311 528.162841 
C 179.246812 557.241062 218.410489 577.987012 260.776727 588.616888 
C 303.142965 599.246763 347.461674 599.446913 389.922193 589.200127 
C 432.382713 578.95334 471.732172 558.561968 504.587182 529.779322 
L 488.400564 511.302511 
C 458.532373 537.468552 422.760137 556.006164 384.159665 565.321424 
C 345.559192 574.636685 305.269457 574.45473 266.754695 564.791207 
C 228.239934 555.127683 192.636591 536.26773 163.005953 509.832983 
C 133.375314 483.398236 110.591685 450.168699 96.61407 413.001552 
C 82.636456 375.834405 77.877291 335.826327 82.745783 296.417339 
C 87.614275 257.008351 101.966771 219.361283 124.569199 186.713147 
C 147.171627 154.06501 177.357062 127.379145 212.530068 108.950086 
C 247.703073 90.521027 286.825808 80.892554 326.534379 80.892554 
z
" style="fill: #f4f5f5; stroke: #ffffff; stroke-linejoin: miter"/>
   </g>
   <g id="patch_7">
    <path d="M 504.587182 529.779322 
C 545.922386 493.567598 575.243311 445.593435 588.616863 392.292064 
C 601.990415 338.990693 598.79063 282.856939 579.446727 231.420556 
C 560.102823 179.984174 525.520212 135.652696 480.337788 104.372724 
C 435.155364 73.092753 381.487937 56.32838 326.534429 56.328369 
L 326.534425 80.892554 
C 376.492159 80.892563 425.280729 96.132903 466.35566 124.56924 
C 507.430591 153.005578 538.869328 193.306922 556.454695 240.067269 
C 574.040062 286.827617 576.948957 337.858303 564.791183 386.314094 
C 552.633408 434.769886 525.978022 478.382762 488.400564 511.302511 
z
" style="fill: #c6dfee; stroke: #ffffff; stroke-linejoin: miter"/>
   </g>
   <g id="patch_8">
    <path d="M 326.534379 80.892554 
C 286.623561 80.892554 247.307599 90.619358 212.00065 109.228299 
C 176.693701 127.83724 146.448238 154.773602 123.890746 187.698257 
C 101.333254 220.622912 87.136154 258.554402 82.532309 298.198796 
C 77.928463 337.843189 83.055109 378.018718 97.467052 415.23658 
C 111.878996 452.454441 135.14663 485.605201 165.249415 511.810079 
C 195.352201 538.014957 231.392798 556.492808 270.241477 565.639034 
C 309.090157 574.785259 349.588871 574.327217 388.220751 564.304684 
C 426.852631 554.282151 462.466092 534.99389 491.968497 508.114875 
L 475.425085 489.956828 
C 448.872921 514.147941 416.820806 531.507376 382.052114 540.527656 
C 347.283421 549.547936 310.834579 549.960173 275.870767 541.72857 
C 240.906956 533.496967 208.470418 516.866902 181.377912 493.282511 
C 154.285405 469.69812 133.344535 439.862437 120.373785 406.366362 
C 107.403036 372.870286 102.789055 336.71231 106.932516 301.032356 
C 111.075977 265.352402 123.853366 231.21406 144.155109 201.581871 
C 164.456852 171.949682 191.677769 147.706956 223.454023 130.958909 
C 255.230277 114.210862 290.614643 105.456738 326.534379 105.456738 
z
" style="fill: #f4f5f5; stroke: #ffffff; stroke-linejoin: miter"/>
   </g>
   <g id="patch_9">
    <path d="M 491.968497 508.114875 
C 528.596329 474.744035 554.283784 431.058732 565.63901 382.827312 
C 576.994236 334.595892 573.494428 284.03897 555.601713 237.832242 
C 537.708998 191.625513 506.247171 151.896374 465.37055 123.890787 
C 424.49393 95.885199 376.084511 80.892563 326.534425 80.892554 
L 326.53442 105.456738 
C 371.129497 105.456747 414.697975 118.950119 451.486933 144.155148 
C 488.275892 169.360177 516.591536 205.116402 532.69498 246.702458 
C 548.798423 288.288513 551.94825 333.789743 541.728547 377.198021 
C 531.508843 420.606299 508.390134 459.923072 475.425085 489.956828 
z
" style="fill: #c6dfee; stroke: #ffffff; stroke-linejoin: miter"/>
   </g>
   <g id="patch_10">
    <path d="M 326.534379 105.456738 
C 290.379735 105.456738 254.77106 114.325737 222.840113 131.283711 
C 190.909166 148.241685 163.62032 172.776472 143.373613 202.730255 
C 123.126905 232.684038 110.533824 267.152156 106.701921 303.103161 
C 102.870018 339.054166 107.915025 375.402272 121.393236 408.950686 
C 134.871448 442.4991 156.375797 472.234598 184.01499 495.541963 
C 211.654183 518.849328 244.593466 535.024634 279.93585 542.645273 
C 315.278234 550.265913 351.956314 549.101729 386.744277 539.25511 
C 421.53224 529.408491 453.379425 511.176824 479.484893 486.163572 
L 462.490392 468.426997 
C 439.285531 490.660999 410.976922 506.866926 380.054289 515.619476 
C 349.131655 524.372026 316.528917 525.406856 285.113465 518.632954 
C 253.698012 511.859052 224.41865 497.481002 199.850478 476.763345 
C 175.282306 456.045687 156.167329 429.614133 144.186697 399.793321 
C 132.206064 369.972508 127.721614 337.663081 131.127749 305.706632 
C 134.533885 273.750183 145.727736 243.111856 163.724809 216.486271 
C 181.721882 189.860686 205.978634 168.051986 234.361698 152.978232 
C 262.744762 137.904477 294.396917 130.020923 326.534379 130.020923 
z
" style="fill: #f4f5f5; stroke: #ffffff; stroke-linejoin: miter"/>
   </g>
   <g id="patch_11">
    <path d="M 479.484893 486.163572 
C 511.343094 455.638273 533.345286 416.263548 542.64525 373.132938 
C 551.945214 330.002329 548.123863 285.059446 531.675529 244.118133 
C 515.227194 203.17682 486.893095 168.082031 450.338549 143.373652 
C 413.784004 118.665273 370.656283 105.456747 326.53442 105.456738 
L 326.534415 130.020923 
C 365.753849 130.02093 404.089601 141.761842 436.58253 163.724846 
C 469.07546 185.68785 494.261326 216.883218 508.882067 253.275496 
C 523.502809 289.667774 526.899566 329.617003 518.632931 367.955323 
C 510.366296 406.293643 490.808792 441.293398 462.490392 468.426997 
z
" style="fill: #c8e0ef; stroke: #ffffff; stroke-linejoin: miter"/>
   </g>
   <g id="patch_12">
    <path d="M 326.534379 130.020923 
C 293.848614 130.020923 261.673488 138.175778 232.933584 153.744244 
C 204.193681 169.312711 179.786987 191.808349 161.93197 219.186398 
C 144.076952 246.564447 133.331497 277.969472 130.67232 310.546887 
C 128.013143 343.124303 133.523332 375.856217 146.702033 405.767437 
C 159.880734 435.678656 180.316175 461.834595 206.15086 481.857789 
C 231.985545 501.880982 262.412261 515.145799 294.665346 520.446523 
C 326.918432 525.747247 359.99013 522.918255 390.874362 512.216691 
C 421.758593 501.515127 449.49037 483.275365 471.548991 459.155322 
L 453.422164 442.577706 
C 434.120871 463.682744 409.855566 479.642536 382.831864 489.006405 
C 355.808161 498.370273 326.870425 500.845641 298.648975 496.207508 
C 270.427525 491.569374 243.804149 479.962659 221.1988 462.442365 
C 198.593451 444.922071 180.71244 422.035624 169.181076 395.863307 
C 157.649713 369.69099 152.828298 341.050565 155.155077 312.545326 
C 157.481857 284.040088 166.884131 256.560691 182.507271 232.604898 
C 198.130411 208.649105 219.486268 188.965422 244.633683 175.343014 
C 269.781099 161.720605 297.934335 154.585108 326.534379 154.585108 
z
" style="fill: #f4f5f5; stroke: #ffffff; stroke-linejoin: miter"/>
   </g>
   <g id="patch_13">
    <path d="M 471.548991 459.155322 
C 497.272415 431.027992 514.265119 396.015023 520.446501 358.403432 
C 526.627884 320.791841 521.734925 282.182012 506.366724 247.301363 
C 490.998523 212.420715 465.808999 182.753428 433.882381 161.931991 
C 401.955762 141.110554 364.650533 130.020923 326.534379 130.020923 
L 326.534379 154.585108 
C 359.886014 154.585108 392.528089 164.288534 420.46388 182.507292 
C 448.399672 200.72605 470.440505 226.684926 483.887681 257.205493 
C 497.334857 287.72606 501.616196 321.509661 496.207486 354.419803 
C 490.798776 387.329945 475.930161 417.966293 453.422164 442.577706 
z
" style="fill: #c9e1ef; stroke: #ffffff; stroke-linejoin: miter"/>
   </g>
   <g id="patch_14">
    <path d="M 326.534379 154.585108 
C 296.099872 154.585108 266.204064 162.665332 239.913389 177.996986 
C 213.622714 193.32864 191.867877 215.368975 176.880285 241.857299 
C 161.892693 268.345623 154.202916 298.344234 154.5997 328.776154 
C 154.996484 359.208074 163.465782 388.995997 179.138892 415.084554 
C 194.812003 441.173111 217.134089 462.638753 243.815559 477.279735 
C 270.497029 491.920717 300.593345 499.218739 331.017506 498.425239 
C 361.441666 497.63174 391.11664 488.774807 416.998645 472.762905 
C 442.88065 456.751002 464.053448 434.150959 478.345332 407.280878 
L 456.658053 395.745666 
C 444.407867 418.777165 426.259754 438.14863 404.075179 451.873118 
C 381.890603 465.597606 356.454911 473.189262 330.377059 473.869405 
C 304.299207 474.549548 278.502365 468.2941 255.632533 455.744687 
C 232.762702 443.195274 213.629485 424.796152 200.19539 402.434532 
C 186.761296 380.072911 179.501897 354.540407 179.161797 328.455903 
C 178.821697 302.3714 185.412934 276.658305 198.259441 253.954028 
C 211.105949 231.24975 229.752952 212.358034 252.287816 199.216617 
C 274.822681 186.075199 300.447658 179.149292 326.534379 179.149292 
z
" style="fill: #f4f5f5; stroke: #ffffff; stroke-linejoin: miter"/>
   </g>
   <g id="patch_15">
    <path d="M 478.345332 407.280878 
C 492.280399 381.081645 499.198907 351.715853 498.425218 322.051273 
C 497.651529 292.386693 489.211675 263.421467 473.929865 237.984246 
C 458.648055 212.547026 437.038486 191.493713 411.21148 176.880307 
C 385.384473 162.266901 356.209046 154.585108 326.534379 154.585108 
L 326.534379 179.149292 
C 351.969808 179.149292 376.977317 185.733686 399.114751 198.259463 
C 421.252185 210.785239 439.774673 228.830936 452.873367 250.634268 
C 465.972061 272.4376 473.206222 297.264937 473.869384 322.69172 
C 474.532546 348.118503 468.602396 373.289181 456.658053 395.745666 
z
" style="fill: #cfe4f1; stroke: #ffffff; stroke-linejoin: miter"/>
   </g>
   <g id="patch_16">
    <path d="M 326.534379 179.149292 
C 300.353453 179.149292 274.639305 186.125311 252.047962 199.356793 
C 229.456619 212.588275 210.79364 231.603413 197.986734 254.438124 
C 185.179828 277.272835 178.685661 303.112882 179.175019 329.289234 
C 179.664377 355.465586 187.119811 381.04485 200.771245 403.384931 
C 214.422679 425.725013 233.783332 444.029311 256.853433 456.407168 
C 279.923534 468.785024 305.880452 474.79507 332.043084 473.816524 
C 358.205716 472.837979 383.641159 464.905735 405.722173 450.839119 
C 427.803187 436.772502 445.742411 417.073099 457.686892 393.775669 
L 435.82814 382.568791 
C 425.874405 401.983316 410.925052 418.399485 392.524207 430.121666 
C 374.123362 441.843846 352.92716 448.454049 331.124966 449.269504 
C 309.322773 450.084958 287.692008 445.076587 268.466924 434.761706 
C 249.24184 424.446826 233.107962 409.193244 221.731767 390.576509 
C 210.355572 371.959775 204.142711 350.643722 203.734912 328.830095 
C 203.327114 307.016468 208.73892 285.483096 219.411342 266.45417 
C 230.083763 247.425244 245.636246 231.579296 264.462365 220.553061 
C 283.288484 209.526826 304.71694 203.713477 326.534379 203.713477 
z
" style="fill: #f4f5f5; stroke: #ffffff; stroke-linejoin: miter"/>
   </g>
   <g id="patch_17">
    <path d="M 457.686892 393.775669 
C 469.205383 371.309122 474.760149 346.255259 473.816503 321.025695 
C 472.872857 295.79613 465.462079 271.22721 452.297512 249.683869 
C 439.132945 228.140528 420.650985 210.336914 398.630655 197.986756 
C 376.610325 185.636597 351.781584 179.149292 326.534379 179.149292 
L 326.534379 203.713477 
C 347.573716 203.713477 368.264334 209.119564 386.614609 219.411363 
C 404.964884 229.703162 420.366517 244.539506 431.33699 262.492291 
C 442.307463 280.445075 448.48311 300.919175 449.269482 321.943812 
C 450.055854 342.968449 445.426883 363.846668 435.82814 382.568791 
z
" style="fill: #cfe4f1; stroke: #ffffff; stroke-linejoin: miter"/>
   </g>
   <g id="patch_18">
    <path d="M 326.534379 203.713477 
C 314.422385 203.713477 302.376739 205.505114 290.789049 209.030142 
C 279.201359 212.55517 268.198575 217.77497 258.138403 224.519844 
C 248.078231 231.264717 239.070886 239.46077 231.4092 248.841546 
C 223.747514 258.222321 217.515426 268.685048 212.915544 279.889576 
C 208.315662 291.094105 205.39838 302.917684 204.25854 314.975924 
C 203.1187 327.034164 203.76879 339.194959 206.187675 351.062957 
C 208.60656 362.930955 212.76774 374.376135 218.535934 385.026408 
C 224.304127 395.676682 231.616139 405.415369 240.234254 413.925862 
C 248.852368 422.436354 258.682169 429.625414 269.404084 435.259322 
C 280.125999 440.893229 291.622564 444.910262 303.52002 447.179825 
C 315.417477 449.449387 327.585481 449.946615 339.628445 448.655342 
C 351.67141 447.36407 363.457397 444.298445 374.60324 439.558131 
C 385.749082 434.817817 396.132671 428.454748 405.41643 420.675789 
C 414.700189 412.89683 422.78241 403.787206 429.400336 393.643073 
C 436.018262 383.49894 441.09939 372.431433 444.47853 360.800363 
C 447.85767 349.169293 449.497802 337.102084 449.345604 324.991047 
L 424.783359 325.299718 
C 424.905118 334.988547 423.593012 344.642314 420.8897 353.94717 
C 418.186388 363.252026 414.121485 372.106032 408.827145 380.221338 
C 403.532804 388.336644 397.067027 395.624344 389.64002 401.847511 
C 382.213012 408.070678 373.906142 413.161134 364.989468 416.953385 
C 356.072794 420.745636 346.644004 423.198136 337.009632 424.231154 
C 327.37526 425.264172 317.640857 424.86639 308.122892 423.05074 
C 298.604927 421.23509 289.407675 418.021463 280.830143 413.514337 
C 272.252611 409.007211 264.38877 403.255963 257.494279 396.447569 
C 250.599787 389.639175 244.750177 381.848225 240.135623 373.328007 
C 235.521068 364.807788 232.192124 355.651644 230.257016 346.157245 
C 228.321908 336.662847 227.801836 326.934211 228.713707 317.287619 
C 229.625579 307.641027 231.959405 298.182164 235.639311 289.218541 
C 239.319217 280.254918 244.304887 271.884737 250.434236 264.380117 
C 256.563584 256.875496 263.769461 250.318654 271.817598 244.922755 
C 279.865736 239.526856 288.667963 235.351016 297.938115 232.530994 
C 307.208267 229.710972 316.844784 228.277662 326.534379 228.277662 
z
" style="fill: #f4f5f5; stroke: #ffffff; stroke-linejoin: miter"/>
   </g>
   <g id="patch_19">
    <path d="M 449.345604 324.991047 
C 448.939792 292.698786 435.813418 261.834898 412.834512 239.142946 
C 389.855606 216.450995 358.829212 203.713483 326.534402 203.713477 
L 326.534397 228.277662 
C 352.370246 228.277666 377.19136 238.467676 395.574485 256.621237 
C 413.95761 274.774799 424.458709 299.465909 424.783359 325.299718 
z
" style="fill: #dbebf4; stroke: #ffffff; stroke-linejoin: miter"/>
   </g>
   <g id="patch_20">
    <path d="M 326.534379 228.277662 
C 316.732271 228.277662 306.985114 229.744451 297.617121 232.629241 
C 288.249128 235.514031 279.365332 239.784478 271.26123 245.298536 
C 263.157128 250.812593 255.923581 257.508439 249.801196 265.163353 
C 243.678811 272.818267 238.736231 281.346423 235.137858 290.464154 
C 231.539485 299.581885 229.325663 309.186964 228.57003 318.959902 
C 227.814397 328.732841 228.525424 338.564066 230.679462 348.126567 
C 232.8335 357.689068 236.406397 366.875632 241.279311 375.38069 
C 246.152224 383.885749 252.270519 391.613945 259.430686 398.308219 
C 266.590853 405.002494 274.712614 410.587792 283.525818 414.878332 
C 292.339022 419.168873 301.744858 422.116551 311.430463 423.62332 
C 321.116069 425.130089 330.972851 425.179055 340.672948 423.768589 
C 350.373046 422.358123 359.807703 419.504039 368.663099 415.301272 
C 377.518496 411.098504 385.695347 405.594173 392.92167 398.971367 
C 400.147993 392.348561 406.342767 384.681533 411.29994 376.225308 
C 416.257112 367.769083 419.921104 358.61847 422.170041 349.077842 
C 424.418978 339.537213 425.227646 329.713538 424.569147 319.933574 
L 400.060455 321.583781 
C 400.554329 328.918753 399.947828 336.28651 398.261125 343.441981 
C 396.574422 350.597452 393.826429 357.460412 390.108549 363.802581 
C 386.39067 370.14475 381.744589 375.895021 376.324847 380.862125 
C 370.905105 385.82923 364.772467 389.957478 358.130919 393.109554 
C 351.489372 396.26163 344.413379 398.402192 337.138306 399.460042 
C 329.863233 400.517891 322.470646 400.481167 315.206442 399.35109 
C 307.942238 398.221013 300.887861 396.010255 294.277958 392.792349 
C 287.668055 389.574444 281.576735 385.38547 276.206609 380.364764 
C 270.836484 375.344059 266.247763 369.547911 262.593078 363.169118 
C 258.938393 356.790324 256.25872 349.900401 254.643191 342.728525 
C 253.027663 335.556649 252.494392 328.18323 253.061117 320.853527 
C 253.627842 313.523823 255.288208 306.320014 257.986988 299.481716 
C 260.685768 292.643418 264.392703 286.2473 268.984492 280.506115 
C 273.576281 274.764929 279.00144 269.743045 285.079517 265.607502 
C 291.157594 261.471958 297.820441 258.269123 304.846435 256.105531 
C 311.87243 253.941938 319.182798 252.841846 326.534379 252.841846 
z
" style="fill: #f4f5f5; stroke: #ffffff; stroke-linejoin: miter"/>
   </g>
   <g id="patch_21">
    <path d="M 424.569147 319.933574 
C 422.895799 295.081185 411.833158 271.771764 393.638074 254.760584 
C 375.442991 237.749403 351.443048 228.277664 326.534388 228.277662 
L 326.534385 252.841846 
C 345.21588 252.841848 363.215838 259.945652 376.86215 272.704038 
C 390.508463 285.462423 398.805444 302.944489 400.060455 321.583781 
z
" style="fill: #dcecf5; stroke: #ffffff; stroke-linejoin: miter"/>
   </g>
   <g id="matplotlib.axis_1"/>
   <g id="matplotlib.axis_2"/>
   <g id="text_1">
    <!-- AUPRC_0 on generalized models -->
    <g transform="translate(190.572504 94.3392) scale(0.168 -0.168)">
     <defs>
      <path id="DejaVuSans-41" d="M 2188 4044 
L 1331 1722 
L 3047 1722 
L 2188 4044 
z
M 1831 4666 
L 2547 4666 
L 4325 0 
L 3669 0 
L 3244 1197 
L 1141 1197 
L 716 0 
L 50 0 
L 1831 4666 
z
" transform="scale(0.015625)"/>
      <path id="DejaVuSans-55" d="M 556 4666 
L 1191 4666 
L 1191 1831 
Q 1191 1081 1462 751 
Q 1734 422 2344 422 
Q 2950 422 3222 751 
Q 3494 1081 3494 1831 
L 3494 4666 
L 4128 4666 
L 4128 1753 
Q 4128 841 3676 375 
Q 3225 -91 2344 -91 
Q 1459 -91 1007 375 
Q 556 841 556 1753 
L 556 4666 
z
" transform="scale(0.015625)"/>
      <path id="DejaVuSans-50" d="M 1259 4147 
L 1259 2394 
L 2053 2394 
Q 2494 2394 2734 2622 
Q 2975 2850 2975 3272 
Q 2975 3691 2734 3919 
Q 2494 4147 2053 4147 
L 1259 4147 
z
M 628 4666 
L 2053 4666 
Q 2838 4666 3239 4311 
Q 3641 3956 3641 3272 
Q 3641 2581 3239 2228 
Q 2838 1875 2053 1875 
L 1259 1875 
L 1259 0 
L 628 0 
L 628 4666 
z
" transform="scale(0.015625)"/>
      <path id="DejaVuSans-52" d="M 2841 2188 
Q 3044 2119 3236 1894 
Q 3428 1669 3622 1275 
L 4263 0 
L 3584 0 
L 2988 1197 
Q 2756 1666 2539 1819 
Q 2322 1972 1947 1972 
L 1259 1972 
L 1259 0 
L 628 0 
L 628 4666 
L 2053 4666 
Q 2853 4666 3247 4331 
Q 3641 3997 3641 3322 
Q 3641 2881 3436 2590 
Q 3231 2300 2841 2188 
z
M 1259 4147 
L 1259 2491 
L 2053 2491 
Q 2509 2491 2742 2702 
Q 2975 2913 2975 3322 
Q 2975 3731 2742 3939 
Q 2509 4147 2053 4147 
L 1259 4147 
z
" transform="scale(0.015625)"/>
      <path id="DejaVuSans-43" d="M 4122 4306 
L 4122 3641 
Q 3803 3938 3442 4084 
Q 3081 4231 2675 4231 
Q 1875 4231 1450 3742 
Q 1025 3253 1025 2328 
Q 1025 1406 1450 917 
Q 1875 428 2675 428 
Q 3081 428 3442 575 
Q 3803 722 4122 1019 
L 4122 359 
Q 3791 134 3420 21 
Q 3050 -91 2638 -91 
Q 1578 -91 968 557 
Q 359 1206 359 2328 
Q 359 3453 968 4101 
Q 1578 4750 2638 4750 
Q 3056 4750 3426 4639 
Q 3797 4528 4122 4306 
z
" transform="scale(0.015625)"/>
      <path id="DejaVuSans-5f" d="M 3263 -1063 
L 3263 -1509 
L -63 -1509 
L -63 -1063 
L 3263 -1063 
z
" transform="scale(0.015625)"/>
      <path id="DejaVuSans-30" d="M 2034 4250 
Q 1547 4250 1301 3770 
Q 1056 3291 1056 2328 
Q 1056 1369 1301 889 
Q 1547 409 2034 409 
Q 2525 409 2770 889 
Q 3016 1369 3016 2328 
Q 3016 3291 2770 3770 
Q 2525 4250 2034 4250 
z
M 2034 4750 
Q 2819 4750 3233 4129 
Q 3647 3509 3647 2328 
Q 3647 1150 3233 529 
Q 2819 -91 2034 -91 
Q 1250 -91 836 529 
Q 422 1150 422 2328 
Q 422 3509 836 4129 
Q 1250 4750 2034 4750 
z
" transform="scale(0.015625)"/>
      <path id="DejaVuSans-20" transform="scale(0.015625)"/>
      <path id="DejaVuSans-6f" d="M 1959 3097 
Q 1497 3097 1228 2736 
Q 959 2375 959 1747 
Q 959 1119 1226 758 
Q 1494 397 1959 397 
Q 2419 397 2687 759 
Q 2956 1122 2956 1747 
Q 2956 2369 2687 2733 
Q 2419 3097 1959 3097 
z
M 1959 3584 
Q 2709 3584 3137 3096 
Q 3566 2609 3566 1747 
Q 3566 888 3137 398 
Q 2709 -91 1959 -91 
Q 1206 -91 779 398 
Q 353 888 353 1747 
Q 353 2609 779 3096 
Q 1206 3584 1959 3584 
z
" transform="scale(0.015625)"/>
      <path id="DejaVuSans-6e" d="M 3513 2113 
L 3513 0 
L 2938 0 
L 2938 2094 
Q 2938 2591 2744 2837 
Q 2550 3084 2163 3084 
Q 1697 3084 1428 2787 
Q 1159 2491 1159 1978 
L 1159 0 
L 581 0 
L 581 3500 
L 1159 3500 
L 1159 2956 
Q 1366 3272 1645 3428 
Q 1925 3584 2291 3584 
Q 2894 3584 3203 3211 
Q 3513 2838 3513 2113 
z
" transform="scale(0.015625)"/>
      <path id="DejaVuSans-67" d="M 2906 1791 
Q 2906 2416 2648 2759 
Q 2391 3103 1925 3103 
Q 1463 3103 1205 2759 
Q 947 2416 947 1791 
Q 947 1169 1205 825 
Q 1463 481 1925 481 
Q 2391 481 2648 825 
Q 2906 1169 2906 1791 
z
M 3481 434 
Q 3481 -459 3084 -895 
Q 2688 -1331 1869 -1331 
Q 1566 -1331 1297 -1286 
Q 1028 -1241 775 -1147 
L 775 -588 
Q 1028 -725 1275 -790 
Q 1522 -856 1778 -856 
Q 2344 -856 2625 -561 
Q 2906 -266 2906 331 
L 2906 616 
Q 2728 306 2450 153 
Q 2172 0 1784 0 
Q 1141 0 747 490 
Q 353 981 353 1791 
Q 353 2603 747 3093 
Q 1141 3584 1784 3584 
Q 2172 3584 2450 3431 
Q 2728 3278 2906 2969 
L 2906 3500 
L 3481 3500 
L 3481 434 
z
" transform="scale(0.015625)"/>
      <path id="DejaVuSans-65" d="M 3597 1894 
L 3597 1613 
L 953 1613 
Q 991 1019 1311 708 
Q 1631 397 2203 397 
Q 2534 397 2845 478 
Q 3156 559 3463 722 
L 3463 178 
Q 3153 47 2828 -22 
Q 2503 -91 2169 -91 
Q 1331 -91 842 396 
Q 353 884 353 1716 
Q 353 2575 817 3079 
Q 1281 3584 2069 3584 
Q 2775 3584 3186 3129 
Q 3597 2675 3597 1894 
z
M 3022 2063 
Q 3016 2534 2758 2815 
Q 2500 3097 2075 3097 
Q 1594 3097 1305 2825 
Q 1016 2553 972 2059 
L 3022 2063 
z
" transform="scale(0.015625)"/>
      <path id="DejaVuSans-72" d="M 2631 2963 
Q 2534 3019 2420 3045 
Q 2306 3072 2169 3072 
Q 1681 3072 1420 2755 
Q 1159 2438 1159 1844 
L 1159 0 
L 581 0 
L 581 3500 
L 1159 3500 
L 1159 2956 
Q 1341 3275 1631 3429 
Q 1922 3584 2338 3584 
Q 2397 3584 2469 3576 
Q 2541 3569 2628 3553 
L 2631 2963 
z
" transform="scale(0.015625)"/>
      <path id="DejaVuSans-61" d="M 2194 1759 
Q 1497 1759 1228 1600 
Q 959 1441 959 1056 
Q 959 750 1161 570 
Q 1363 391 1709 391 
Q 2188 391 2477 730 
Q 2766 1069 2766 1631 
L 2766 1759 
L 2194 1759 
z
M 3341 1997 
L 3341 0 
L 2766 0 
L 2766 531 
Q 2569 213 2275 61 
Q 1981 -91 1556 -91 
Q 1019 -91 701 211 
Q 384 513 384 1019 
Q 384 1609 779 1909 
Q 1175 2209 1959 2209 
L 2766 2209 
L 2766 2266 
Q 2766 2663 2505 2880 
Q 2244 3097 1772 3097 
Q 1472 3097 1187 3025 
Q 903 2953 641 2809 
L 641 3341 
Q 956 3463 1253 3523 
Q 1550 3584 1831 3584 
Q 2591 3584 2966 3190 
Q 3341 2797 3341 1997 
z
" transform="scale(0.015625)"/>
      <path id="DejaVuSans-6c" d="M 603 4863 
L 1178 4863 
L 1178 0 
L 603 0 
L 603 4863 
z
" transform="scale(0.015625)"/>
      <path id="DejaVuSans-69" d="M 603 3500 
L 1178 3500 
L 1178 0 
L 603 0 
L 603 3500 
z
M 603 4863 
L 1178 4863 
L 1178 4134 
L 603 4134 
L 603 4863 
z
" transform="scale(0.015625)"/>
      <path id="DejaVuSans-7a" d="M 353 3500 
L 3084 3500 
L 3084 2975 
L 922 459 
L 3084 459 
L 3084 0 
L 275 0 
L 275 525 
L 2438 3041 
L 353 3041 
L 353 3500 
z
" transform="scale(0.015625)"/>
      <path id="DejaVuSans-64" d="M 2906 2969 
L 2906 4863 
L 3481 4863 
L 3481 0 
L 2906 0 
L 2906 525 
Q 2725 213 2448 61 
Q 2172 -91 1784 -91 
Q 1150 -91 751 415 
Q 353 922 353 1747 
Q 353 2572 751 3078 
Q 1150 3584 1784 3584 
Q 2172 3584 2448 3432 
Q 2725 3281 2906 2969 
z
M 947 1747 
Q 947 1113 1208 752 
Q 1469 391 1925 391 
Q 2381 391 2643 752 
Q 2906 1113 2906 1747 
Q 2906 2381 2643 2742 
Q 2381 3103 1925 3103 
Q 1469 3103 1208 2742 
Q 947 2381 947 1747 
z
" transform="scale(0.015625)"/>
      <path id="DejaVuSans-6d" d="M 3328 2828 
Q 3544 3216 3844 3400 
Q 4144 3584 4550 3584 
Q 5097 3584 5394 3201 
Q 5691 2819 5691 2113 
L 5691 0 
L 5113 0 
L 5113 2094 
Q 5113 2597 4934 2840 
Q 4756 3084 4391 3084 
Q 3944 3084 3684 2787 
Q 3425 2491 3425 1978 
L 3425 0 
L 2847 0 
L 2847 2094 
Q 2847 2600 2669 2842 
Q 2491 3084 2119 3084 
Q 1678 3084 1418 2786 
Q 1159 2488 1159 1978 
L 1159 0 
L 581 0 
L 581 3500 
L 1159 3500 
L 1159 2956 
Q 1356 3278 1631 3431 
Q 1906 3584 2284 3584 
Q 2666 3584 2933 3390 
Q 3200 3197 3328 2828 
z
" transform="scale(0.015625)"/>
      <path id="DejaVuSans-73" d="M 2834 3397 
L 2834 2853 
Q 2591 2978 2328 3040 
Q 2066 3103 1784 3103 
Q 1356 3103 1142 2972 
Q 928 2841 928 2578 
Q 928 2378 1081 2264 
Q 1234 2150 1697 2047 
L 1894 2003 
Q 2506 1872 2764 1633 
Q 3022 1394 3022 966 
Q 3022 478 2636 193 
Q 2250 -91 1575 -91 
Q 1294 -91 989 -36 
Q 684 19 347 128 
L 347 722 
Q 666 556 975 473 
Q 1284 391 1588 391 
Q 1994 391 2212 530 
Q 2431 669 2431 922 
Q 2431 1156 2273 1281 
Q 2116 1406 1581 1522 
L 1381 1569 
Q 847 1681 609 1914 
Q 372 2147 372 2553 
Q 372 3047 722 3315 
Q 1072 3584 1716 3584 
Q 2034 3584 2315 3537 
Q 2597 3491 2834 3397 
z
" transform="scale(0.015625)"/>
     </defs>
     <use xlink:href="#DejaVuSans-41"/>
     <use xlink:href="#DejaVuSans-55" x="68.408203"/>
     <use xlink:href="#DejaVuSans-50" x="141.601562"/>
     <use xlink:href="#DejaVuSans-52" x="201.904297"/>
     <use xlink:href="#DejaVuSans-43" x="266.386719"/>
     <use xlink:href="#DejaVuSans-5f" x="336.210938"/>
     <use xlink:href="#DejaVuSans-30" x="386.210938"/>
     <use xlink:href="#DejaVuSans-20" x="449.833984"/>
     <use xlink:href="#DejaVuSans-6f" x="481.621094"/>
     <use xlink:href="#DejaVuSans-6e" x="542.802734"/>
     <use xlink:href="#DejaVuSans-20" x="606.181641"/>
     <use xlink:href="#DejaVuSans-67" x="637.96875"/>
     <use xlink:href="#DejaVuSans-65" x="701.445312"/>
     <use xlink:href="#DejaVuSans-6e" x="762.96875"/>
     <use xlink:href="#DejaVuSans-65" x="826.347656"/>
     <use xlink:href="#DejaVuSans-72" x="887.871094"/>
     <use xlink:href="#DejaVuSans-61" x="928.984375"/>
     <use xlink:href="#DejaVuSans-6c" x="990.263672"/>
     <use xlink:href="#DejaVuSans-69" x="1018.046875"/>
     <use xlink:href="#DejaVuSans-7a" x="1045.830078"/>
     <use xlink:href="#DejaVuSans-65" x="1098.320312"/>
     <use xlink:href="#DejaVuSans-64" x="1159.84375"/>
     <use xlink:href="#DejaVuSans-20" x="1223.320312"/>
     <use xlink:href="#DejaVuSans-6d" x="1255.107422"/>
     <use xlink:href="#DejaVuSans-6f" x="1352.519531"/>
     <use xlink:href="#DejaVuSans-64" x="1413.701172"/>
     <use xlink:href="#DejaVuSans-65" x="1477.177734"/>
     <use xlink:href="#DejaVuSans-6c" x="1538.701172"/>
     <use xlink:href="#DejaVuSans-73" x="1566.484375"/>
    </g>
   </g>
   <g id="legend_1">
    <g id="patch_22">
     <path d="M 595.446379 326.5344 
L 888.989191 326.5344 
Q 891.789191 326.5344 891.789191 323.7344 
L 891.789191 97.1444 
Q 891.789191 94.3444 888.989191 94.3444 
L 595.446379 94.3444 
Q 592.646379 94.3444 592.646379 97.1444 
L 592.646379 323.7344 
Q 592.646379 326.5344 595.446379 326.5344 
z
" style="fill: #ffffff; opacity: 0.8; stroke: #cccccc; stroke-linejoin: miter"/>
    </g>
    <g id="text_2">
     <!-- Models -->
     <g transform="translate(717.552629 110.582213) scale(0.14 -0.14)">
      <defs>
       <path id="DejaVuSans-4d" d="M 628 4666 
L 1569 4666 
L 2759 1491 
L 3956 4666 
L 4897 4666 
L 4897 0 
L 4281 0 
L 4281 4097 
L 3078 897 
L 2444 897 
L 1241 4097 
L 1241 0 
L 628 0 
L 628 4666 
z
" transform="scale(0.015625)"/>
      </defs>
      <use xlink:href="#DejaVuSans-4d"/>
      <use xlink:href="#DejaVuSans-6f" x="86.279297"/>
      <use xlink:href="#DejaVuSans-64" x="147.460938"/>
      <use xlink:href="#DejaVuSans-65" x="210.9375"/>
      <use xlink:href="#DejaVuSans-6c" x="272.460938"/>
      <use xlink:href="#DejaVuSans-73" x="300.244141"/>
     </g>
    </g>
    <g id="patch_23">
     <path d="M 598.246379 131.131588 
L 626.246379 131.131588 
L 626.246379 121.331588 
L 598.246379 121.331588 
z
" style="fill: #b4d6e9; stroke: #ffffff; stroke-linejoin: miter"/>
    </g>
    <g id="text_3">
     <!-- xgboost (50.88%) -->
     <g transform="translate(637.446379 131.131588) scale(0.14 -0.14)">
      <defs>
       <path id="DejaVuSans-78" d="M 3513 3500 
L 2247 1797 
L 3578 0 
L 2900 0 
L 1881 1375 
L 863 0 
L 184 0 
L 1544 1831 
L 300 3500 
L 978 3500 
L 1906 2253 
L 2834 3500 
L 3513 3500 
z
" transform="scale(0.015625)"/>
       <path id="DejaVuSans-62" d="M 3116 1747 
Q 3116 2381 2855 2742 
Q 2594 3103 2138 3103 
Q 1681 3103 1420 2742 
Q 1159 2381 1159 1747 
Q 1159 1113 1420 752 
Q 1681 391 2138 391 
Q 2594 391 2855 752 
Q 3116 1113 3116 1747 
z
M 1159 2969 
Q 1341 3281 1617 3432 
Q 1894 3584 2278 3584 
Q 2916 3584 3314 3078 
Q 3713 2572 3713 1747 
Q 3713 922 3314 415 
Q 2916 -91 2278 -91 
Q 1894 -91 1617 61 
Q 1341 213 1159 525 
L 1159 0 
L 581 0 
L 581 4863 
L 1159 4863 
L 1159 2969 
z
" transform="scale(0.015625)"/>
       <path id="DejaVuSans-74" d="M 1172 4494 
L 1172 3500 
L 2356 3500 
L 2356 3053 
L 1172 3053 
L 1172 1153 
Q 1172 725 1289 603 
Q 1406 481 1766 481 
L 2356 481 
L 2356 0 
L 1766 0 
Q 1100 0 847 248 
Q 594 497 594 1153 
L 594 3053 
L 172 3053 
L 172 3500 
L 594 3500 
L 594 4494 
L 1172 4494 
z
" transform="scale(0.015625)"/>
       <path id="DejaVuSans-28" d="M 1984 4856 
Q 1566 4138 1362 3434 
Q 1159 2731 1159 2009 
Q 1159 1288 1364 580 
Q 1569 -128 1984 -844 
L 1484 -844 
Q 1016 -109 783 600 
Q 550 1309 550 2009 
Q 550 2706 781 3412 
Q 1013 4119 1484 4856 
L 1984 4856 
z
" transform="scale(0.015625)"/>
       <path id="DejaVuSans-35" d="M 691 4666 
L 3169 4666 
L 3169 4134 
L 1269 4134 
L 1269 2991 
Q 1406 3038 1543 3061 
Q 1681 3084 1819 3084 
Q 2600 3084 3056 2656 
Q 3513 2228 3513 1497 
Q 3513 744 3044 326 
Q 2575 -91 1722 -91 
Q 1428 -91 1123 -41 
Q 819 9 494 109 
L 494 744 
Q 775 591 1075 516 
Q 1375 441 1709 441 
Q 2250 441 2565 725 
Q 2881 1009 2881 1497 
Q 2881 1984 2565 2268 
Q 2250 2553 1709 2553 
Q 1456 2553 1204 2497 
Q 953 2441 691 2322 
L 691 4666 
z
" transform="scale(0.015625)"/>
       <path id="DejaVuSans-2e" d="M 684 794 
L 1344 794 
L 1344 0 
L 684 0 
L 684 794 
z
" transform="scale(0.015625)"/>
       <path id="DejaVuSans-38" d="M 2034 2216 
Q 1584 2216 1326 1975 
Q 1069 1734 1069 1313 
Q 1069 891 1326 650 
Q 1584 409 2034 409 
Q 2484 409 2743 651 
Q 3003 894 3003 1313 
Q 3003 1734 2745 1975 
Q 2488 2216 2034 2216 
z
M 1403 2484 
Q 997 2584 770 2862 
Q 544 3141 544 3541 
Q 544 4100 942 4425 
Q 1341 4750 2034 4750 
Q 2731 4750 3128 4425 
Q 3525 4100 3525 3541 
Q 3525 3141 3298 2862 
Q 3072 2584 2669 2484 
Q 3125 2378 3379 2068 
Q 3634 1759 3634 1313 
Q 3634 634 3220 271 
Q 2806 -91 2034 -91 
Q 1263 -91 848 271 
Q 434 634 434 1313 
Q 434 1759 690 2068 
Q 947 2378 1403 2484 
z
M 1172 3481 
Q 1172 3119 1398 2916 
Q 1625 2713 2034 2713 
Q 2441 2713 2670 2916 
Q 2900 3119 2900 3481 
Q 2900 3844 2670 4047 
Q 2441 4250 2034 4250 
Q 1625 4250 1398 4047 
Q 1172 3844 1172 3481 
z
" transform="scale(0.015625)"/>
       <path id="DejaVuSans-25" d="M 4653 2053 
Q 4381 2053 4226 1822 
Q 4072 1591 4072 1178 
Q 4072 772 4226 539 
Q 4381 306 4653 306 
Q 4919 306 5073 539 
Q 5228 772 5228 1178 
Q 5228 1588 5073 1820 
Q 4919 2053 4653 2053 
z
M 4653 2450 
Q 5147 2450 5437 2106 
Q 5728 1763 5728 1178 
Q 5728 594 5436 251 
Q 5144 -91 4653 -91 
Q 4153 -91 3862 251 
Q 3572 594 3572 1178 
Q 3572 1766 3864 2108 
Q 4156 2450 4653 2450 
z
M 1428 4353 
Q 1159 4353 1004 4120 
Q 850 3888 850 3481 
Q 850 3069 1003 2837 
Q 1156 2606 1428 2606 
Q 1700 2606 1854 2837 
Q 2009 3069 2009 3481 
Q 2009 3884 1853 4118 
Q 1697 4353 1428 4353 
z
M 4250 4750 
L 4750 4750 
L 1831 -91 
L 1331 -91 
L 4250 4750 
z
M 1428 4750 
Q 1922 4750 2215 4408 
Q 2509 4066 2509 3481 
Q 2509 2891 2217 2550 
Q 1925 2209 1428 2209 
Q 931 2209 642 2551 
Q 353 2894 353 3481 
Q 353 4063 643 4406 
Q 934 4750 1428 4750 
z
" transform="scale(0.015625)"/>
       <path id="DejaVuSans-29" d="M 513 4856 
L 1013 4856 
Q 1481 4119 1714 3412 
Q 1947 2706 1947 2009 
Q 1947 1309 1714 600 
Q 1481 -109 1013 -844 
L 513 -844 
Q 928 -128 1133 580 
Q 1338 1288 1338 2009 
Q 1338 2731 1133 3434 
Q 928 4138 513 4856 
z
" transform="scale(0.015625)"/>
      </defs>
      <use xlink:href="#DejaVuSans-78"/>
      <use xlink:href="#DejaVuSans-67" x="59.179688"/>
      <use xlink:href="#DejaVuSans-62" x="122.65625"/>
      <use xlink:href="#DejaVuSans-6f" x="186.132812"/>
      <use xlink:href="#DejaVuSans-6f" x="247.314453"/>
      <use xlink:href="#DejaVuSans-73" x="308.496094"/>
      <use xlink:href="#DejaVuSans-74" x="360.595703"/>
      <use xlink:href="#DejaVuSans-20" x="399.804688"/>
      <use xlink:href="#DejaVuSans-28" x="431.591797"/>
      <use xlink:href="#DejaVuSans-35" x="470.605469"/>
      <use xlink:href="#DejaVuSans-30" x="534.228516"/>
      <use xlink:href="#DejaVuSans-2e" x="597.851562"/>
      <use xlink:href="#DejaVuSans-38" x="629.638672"/>
      <use xlink:href="#DejaVuSans-38" x="693.261719"/>
      <use xlink:href="#DejaVuSans-25" x="756.884766"/>
      <use xlink:href="#DejaVuSans-29" x="851.904297"/>
     </g>
    </g>
    <g id="patch_24">
     <path d="M 598.246379 151.680963 
L 626.246379 151.680963 
L 626.246379 141.880963 
L 598.246379 141.880963 
z
" style="fill: #b7d7ea; stroke: #ffffff; stroke-linejoin: miter"/>
    </g>
    <g id="text_4">
     <!-- random_forest (48.34%) -->
     <g transform="translate(637.446379 151.680963) scale(0.14 -0.14)">
      <defs>
       <path id="DejaVuSans-66" d="M 2375 4863 
L 2375 4384 
L 1825 4384 
Q 1516 4384 1395 4259 
Q 1275 4134 1275 3809 
L 1275 3500 
L 2222 3500 
L 2222 3053 
L 1275 3053 
L 1275 0 
L 697 0 
L 697 3053 
L 147 3053 
L 147 3500 
L 697 3500 
L 697 3744 
Q 697 4328 969 4595 
Q 1241 4863 1831 4863 
L 2375 4863 
z
" transform="scale(0.015625)"/>
       <path id="DejaVuSans-34" d="M 2419 4116 
L 825 1625 
L 2419 1625 
L 2419 4116 
z
M 2253 4666 
L 3047 4666 
L 3047 1625 
L 3713 1625 
L 3713 1100 
L 3047 1100 
L 3047 0 
L 2419 0 
L 2419 1100 
L 313 1100 
L 313 1709 
L 2253 4666 
z
" transform="scale(0.015625)"/>
       <path id="DejaVuSans-33" d="M 2597 2516 
Q 3050 2419 3304 2112 
Q 3559 1806 3559 1356 
Q 3559 666 3084 287 
Q 2609 -91 1734 -91 
Q 1441 -91 1130 -33 
Q 819 25 488 141 
L 488 750 
Q 750 597 1062 519 
Q 1375 441 1716 441 
Q 2309 441 2620 675 
Q 2931 909 2931 1356 
Q 2931 1769 2642 2001 
Q 2353 2234 1838 2234 
L 1294 2234 
L 1294 2753 
L 1863 2753 
Q 2328 2753 2575 2939 
Q 2822 3125 2822 3475 
Q 2822 3834 2567 4026 
Q 2313 4219 1838 4219 
Q 1578 4219 1281 4162 
Q 984 4106 628 3988 
L 628 4550 
Q 988 4650 1302 4700 
Q 1616 4750 1894 4750 
Q 2613 4750 3031 4423 
Q 3450 4097 3450 3541 
Q 3450 3153 3228 2886 
Q 3006 2619 2597 2516 
z
" transform="scale(0.015625)"/>
      </defs>
      <use xlink:href="#DejaVuSans-72"/>
      <use xlink:href="#DejaVuSans-61" x="41.113281"/>
      <use xlink:href="#DejaVuSans-6e" x="102.392578"/>
      <use xlink:href="#DejaVuSans-64" x="165.771484"/>
      <use xlink:href="#DejaVuSans-6f" x="229.248047"/>
      <use xlink:href="#DejaVuSans-6d" x="290.429688"/>
      <use xlink:href="#DejaVuSans-5f" x="387.841797"/>
      <use xlink:href="#DejaVuSans-66" x="437.841797"/>
      <use xlink:href="#DejaVuSans-6f" x="473.046875"/>
      <use xlink:href="#DejaVuSans-72" x="534.228516"/>
      <use xlink:href="#DejaVuSans-65" x="573.091797"/>
      <use xlink:href="#DejaVuSans-73" x="634.615234"/>
      <use xlink:href="#DejaVuSans-74" x="686.714844"/>
      <use xlink:href="#DejaVuSans-20" x="725.923828"/>
      <use xlink:href="#DejaVuSans-28" x="757.710938"/>
      <use xlink:href="#DejaVuSans-34" x="796.724609"/>
      <use xlink:href="#DejaVuSans-38" x="860.347656"/>
      <use xlink:href="#DejaVuSans-2e" x="923.970703"/>
      <use xlink:href="#DejaVuSans-33" x="955.757812"/>
      <use xlink:href="#DejaVuSans-34" x="1019.380859"/>
      <use xlink:href="#DejaVuSans-25" x="1083.003906"/>
      <use xlink:href="#DejaVuSans-29" x="1178.023438"/>
     </g>
    </g>
    <g id="patch_25">
     <path d="M 598.246379 172.619713 
L 626.246379 172.619713 
L 626.246379 162.819713 
L 598.246379 162.819713 
z
" style="fill: #c6dfee; stroke: #ffffff; stroke-linejoin: miter"/>
    </g>
    <g id="text_5">
     <!-- logistic_regression (38.55%) -->
     <g transform="translate(637.446379 172.619713) scale(0.14 -0.14)">
      <defs>
       <path id="DejaVuSans-63" d="M 3122 3366 
L 3122 2828 
Q 2878 2963 2633 3030 
Q 2388 3097 2138 3097 
Q 1578 3097 1268 2742 
Q 959 2388 959 1747 
Q 959 1106 1268 751 
Q 1578 397 2138 397 
Q 2388 397 2633 464 
Q 2878 531 3122 666 
L 3122 134 
Q 2881 22 2623 -34 
Q 2366 -91 2075 -91 
Q 1284 -91 818 406 
Q 353 903 353 1747 
Q 353 2603 823 3093 
Q 1294 3584 2113 3584 
Q 2378 3584 2631 3529 
Q 2884 3475 3122 3366 
z
" transform="scale(0.015625)"/>
      </defs>
      <use xlink:href="#DejaVuSans-6c"/>
      <use xlink:href="#DejaVuSans-6f" x="27.783203"/>
      <use xlink:href="#DejaVuSans-67" x="88.964844"/>
      <use xlink:href="#DejaVuSans-69" x="152.441406"/>
      <use xlink:href="#DejaVuSans-73" x="180.224609"/>
      <use xlink:href="#DejaVuSans-74" x="232.324219"/>
      <use xlink:href="#DejaVuSans-69" x="271.533203"/>
      <use xlink:href="#DejaVuSans-63" x="299.316406"/>
      <use xlink:href="#DejaVuSans-5f" x="354.296875"/>
      <use xlink:href="#DejaVuSans-72" x="404.296875"/>
      <use xlink:href="#DejaVuSans-65" x="443.160156"/>
      <use xlink:href="#DejaVuSans-67" x="504.683594"/>
      <use xlink:href="#DejaVuSans-72" x="568.160156"/>
      <use xlink:href="#DejaVuSans-65" x="607.023438"/>
      <use xlink:href="#DejaVuSans-73" x="668.546875"/>
      <use xlink:href="#DejaVuSans-73" x="720.646484"/>
      <use xlink:href="#DejaVuSans-69" x="772.746094"/>
      <use xlink:href="#DejaVuSans-6f" x="800.529297"/>
      <use xlink:href="#DejaVuSans-6e" x="861.710938"/>
      <use xlink:href="#DejaVuSans-20" x="925.089844"/>
      <use xlink:href="#DejaVuSans-28" x="956.876953"/>
      <use xlink:href="#DejaVuSans-33" x="995.890625"/>
      <use xlink:href="#DejaVuSans-38" x="1059.513672"/>
      <use xlink:href="#DejaVuSans-2e" x="1123.136719"/>
      <use xlink:href="#DejaVuSans-35" x="1154.923828"/>
      <use xlink:href="#DejaVuSans-35" x="1218.546875"/>
      <use xlink:href="#DejaVuSans-25" x="1282.169922"/>
      <use xlink:href="#DejaVuSans-29" x="1377.189453"/>
     </g>
    </g>
    <g id="patch_26">
     <path d="M 598.246379 193.558463 
L 626.246379 193.558463 
L 626.246379 183.758463 
L 598.246379 183.758463 
z
" style="fill: #c6dfee; stroke: #ffffff; stroke-linejoin: miter"/>
    </g>
    <g id="text_6">
     <!-- neural_network (38.24%) -->
     <g transform="translate(637.446379 193.558463) scale(0.14 -0.14)">
      <defs>
       <path id="DejaVuSans-75" d="M 544 1381 
L 544 3500 
L 1119 3500 
L 1119 1403 
Q 1119 906 1312 657 
Q 1506 409 1894 409 
Q 2359 409 2629 706 
Q 2900 1003 2900 1516 
L 2900 3500 
L 3475 3500 
L 3475 0 
L 2900 0 
L 2900 538 
Q 2691 219 2414 64 
Q 2138 -91 1772 -91 
Q 1169 -91 856 284 
Q 544 659 544 1381 
z
M 1991 3584 
L 1991 3584 
z
" transform="scale(0.015625)"/>
       <path id="DejaVuSans-77" d="M 269 3500 
L 844 3500 
L 1563 769 
L 2278 3500 
L 2956 3500 
L 3675 769 
L 4391 3500 
L 4966 3500 
L 4050 0 
L 3372 0 
L 2619 2869 
L 1863 0 
L 1184 0 
L 269 3500 
z
" transform="scale(0.015625)"/>
       <path id="DejaVuSans-6b" d="M 581 4863 
L 1159 4863 
L 1159 1991 
L 2875 3500 
L 3609 3500 
L 1753 1863 
L 3688 0 
L 2938 0 
L 1159 1709 
L 1159 0 
L 581 0 
L 581 4863 
z
" transform="scale(0.015625)"/>
       <path id="DejaVuSans-32" d="M 1228 531 
L 3431 531 
L 3431 0 
L 469 0 
L 469 531 
Q 828 903 1448 1529 
Q 2069 2156 2228 2338 
Q 2531 2678 2651 2914 
Q 2772 3150 2772 3378 
Q 2772 3750 2511 3984 
Q 2250 4219 1831 4219 
Q 1534 4219 1204 4116 
Q 875 4013 500 3803 
L 500 4441 
Q 881 4594 1212 4672 
Q 1544 4750 1819 4750 
Q 2544 4750 2975 4387 
Q 3406 4025 3406 3419 
Q 3406 3131 3298 2873 
Q 3191 2616 2906 2266 
Q 2828 2175 2409 1742 
Q 1991 1309 1228 531 
z
" transform="scale(0.015625)"/>
      </defs>
      <use xlink:href="#DejaVuSans-6e"/>
      <use xlink:href="#DejaVuSans-65" x="63.378906"/>
      <use xlink:href="#DejaVuSans-75" x="124.902344"/>
      <use xlink:href="#DejaVuSans-72" x="188.28125"/>
      <use xlink:href="#DejaVuSans-61" x="229.394531"/>
      <use xlink:href="#DejaVuSans-6c" x="290.673828"/>
      <use xlink:href="#DejaVuSans-5f" x="318.457031"/>
      <use xlink:href="#DejaVuSans-6e" x="368.457031"/>
      <use xlink:href="#DejaVuSans-65" x="431.835938"/>
      <use xlink:href="#DejaVuSans-74" x="493.359375"/>
      <use xlink:href="#DejaVuSans-77" x="532.568359"/>
      <use xlink:href="#DejaVuSans-6f" x="614.355469"/>
      <use xlink:href="#DejaVuSans-72" x="675.537109"/>
      <use xlink:href="#DejaVuSans-6b" x="716.650391"/>
      <use xlink:href="#DejaVuSans-20" x="774.560547"/>
      <use xlink:href="#DejaVuSans-28" x="806.347656"/>
      <use xlink:href="#DejaVuSans-33" x="845.361328"/>
      <use xlink:href="#DejaVuSans-38" x="908.984375"/>
      <use xlink:href="#DejaVuSans-2e" x="972.607422"/>
      <use xlink:href="#DejaVuSans-32" x="1004.394531"/>
      <use xlink:href="#DejaVuSans-34" x="1068.017578"/>
      <use xlink:href="#DejaVuSans-25" x="1131.640625"/>
      <use xlink:href="#DejaVuSans-29" x="1226.660156"/>
     </g>
    </g>
    <g id="patch_27">
     <path d="M 598.246379 214.497213 
L 626.246379 214.497213 
L 626.246379 204.697213 
L 598.246379 204.697213 
z
" style="fill: #c8e0ef; stroke: #ffffff; stroke-linejoin: miter"/>
    </g>
    <g id="text_7">
     <!-- crf (37.84%) -->
     <g transform="translate(637.446379 214.497213) scale(0.14 -0.14)">
      <defs>
       <path id="DejaVuSans-37" d="M 525 4666 
L 3525 4666 
L 3525 4397 
L 1831 0 
L 1172 0 
L 2766 4134 
L 525 4134 
L 525 4666 
z
" transform="scale(0.015625)"/>
      </defs>
      <use xlink:href="#DejaVuSans-63"/>
      <use xlink:href="#DejaVuSans-72" x="54.980469"/>
      <use xlink:href="#DejaVuSans-66" x="96.09375"/>
      <use xlink:href="#DejaVuSans-20" x="131.298828"/>
      <use xlink:href="#DejaVuSans-28" x="163.085938"/>
      <use xlink:href="#DejaVuSans-33" x="202.099609"/>
      <use xlink:href="#DejaVuSans-37" x="265.722656"/>
      <use xlink:href="#DejaVuSans-2e" x="329.345703"/>
      <use xlink:href="#DejaVuSans-38" x="361.132812"/>
      <use xlink:href="#DejaVuSans-34" x="424.755859"/>
      <use xlink:href="#DejaVuSans-25" x="488.378906"/>
      <use xlink:href="#DejaVuSans-29" x="583.398438"/>
     </g>
    </g>
    <g id="patch_28">
     <path d="M 598.246379 235.046588 
L 626.246379 235.046588 
L 626.246379 225.246588 
L 598.246379 225.246588 
z
" style="fill: #c9e1ef; stroke: #ffffff; stroke-linejoin: miter"/>
    </g>
    <g id="text_8">
     <!-- svm (36.79%) -->
     <g transform="translate(637.446379 235.046588) scale(0.14 -0.14)">
      <defs>
       <path id="DejaVuSans-76" d="M 191 3500 
L 800 3500 
L 1894 563 
L 2988 3500 
L 3597 3500 
L 2284 0 
L 1503 0 
L 191 3500 
z
" transform="scale(0.015625)"/>
       <path id="DejaVuSans-36" d="M 2113 2584 
Q 1688 2584 1439 2293 
Q 1191 2003 1191 1497 
Q 1191 994 1439 701 
Q 1688 409 2113 409 
Q 2538 409 2786 701 
Q 3034 994 3034 1497 
Q 3034 2003 2786 2293 
Q 2538 2584 2113 2584 
z
M 3366 4563 
L 3366 3988 
Q 3128 4100 2886 4159 
Q 2644 4219 2406 4219 
Q 1781 4219 1451 3797 
Q 1122 3375 1075 2522 
Q 1259 2794 1537 2939 
Q 1816 3084 2150 3084 
Q 2853 3084 3261 2657 
Q 3669 2231 3669 1497 
Q 3669 778 3244 343 
Q 2819 -91 2113 -91 
Q 1303 -91 875 529 
Q 447 1150 447 2328 
Q 447 3434 972 4092 
Q 1497 4750 2381 4750 
Q 2619 4750 2861 4703 
Q 3103 4656 3366 4563 
z
" transform="scale(0.015625)"/>
       <path id="DejaVuSans-39" d="M 703 97 
L 703 672 
Q 941 559 1184 500 
Q 1428 441 1663 441 
Q 2288 441 2617 861 
Q 2947 1281 2994 2138 
Q 2813 1869 2534 1725 
Q 2256 1581 1919 1581 
Q 1219 1581 811 2004 
Q 403 2428 403 3163 
Q 403 3881 828 4315 
Q 1253 4750 1959 4750 
Q 2769 4750 3195 4129 
Q 3622 3509 3622 2328 
Q 3622 1225 3098 567 
Q 2575 -91 1691 -91 
Q 1453 -91 1209 -44 
Q 966 3 703 97 
z
M 1959 2075 
Q 2384 2075 2632 2365 
Q 2881 2656 2881 3163 
Q 2881 3666 2632 3958 
Q 2384 4250 1959 4250 
Q 1534 4250 1286 3958 
Q 1038 3666 1038 3163 
Q 1038 2656 1286 2365 
Q 1534 2075 1959 2075 
z
" transform="scale(0.015625)"/>
      </defs>
      <use xlink:href="#DejaVuSans-73"/>
      <use xlink:href="#DejaVuSans-76" x="52.099609"/>
      <use xlink:href="#DejaVuSans-6d" x="111.279297"/>
      <use xlink:href="#DejaVuSans-20" x="208.691406"/>
      <use xlink:href="#DejaVuSans-28" x="240.478516"/>
      <use xlink:href="#DejaVuSans-33" x="279.492188"/>
      <use xlink:href="#DejaVuSans-36" x="343.115234"/>
      <use xlink:href="#DejaVuSans-2e" x="406.738281"/>
      <use xlink:href="#DejaVuSans-37" x="438.525391"/>
      <use xlink:href="#DejaVuSans-39" x="502.148438"/>
      <use xlink:href="#DejaVuSans-25" x="565.771484"/>
      <use xlink:href="#DejaVuSans-29" x="660.791016"/>
     </g>
    </g>
    <g id="patch_29">
     <path d="M 598.246379 255.595963 
L 626.246379 255.595963 
L 626.246379 245.795963 
L 598.246379 245.795963 
z
" style="fill: #cfe4f1; stroke: #ffffff; stroke-linejoin: miter"/>
    </g>
    <g id="text_9">
     <!-- recurrent_neural_network (32.78%) -->
     <g transform="translate(637.446379 255.595963) scale(0.14 -0.14)">
      <use xlink:href="#DejaVuSans-72"/>
      <use xlink:href="#DejaVuSans-65" x="38.863281"/>
      <use xlink:href="#DejaVuSans-63" x="100.386719"/>
      <use xlink:href="#DejaVuSans-75" x="155.367188"/>
      <use xlink:href="#DejaVuSans-72" x="218.746094"/>
      <use xlink:href="#DejaVuSans-72" x="258.109375"/>
      <use xlink:href="#DejaVuSans-65" x="296.972656"/>
      <use xlink:href="#DejaVuSans-6e" x="358.496094"/>
      <use xlink:href="#DejaVuSans-74" x="421.875"/>
      <use xlink:href="#DejaVuSans-5f" x="461.083984"/>
      <use xlink:href="#DejaVuSans-6e" x="511.083984"/>
      <use xlink:href="#DejaVuSans-65" x="574.462891"/>
      <use xlink:href="#DejaVuSans-75" x="635.986328"/>
      <use xlink:href="#DejaVuSans-72" x="699.365234"/>
      <use xlink:href="#DejaVuSans-61" x="740.478516"/>
      <use xlink:href="#DejaVuSans-6c" x="801.757812"/>
      <use xlink:href="#DejaVuSans-5f" x="829.541016"/>
      <use xlink:href="#DejaVuSans-6e" x="879.541016"/>
      <use xlink:href="#DejaVuSans-65" x="942.919922"/>
      <use xlink:href="#DejaVuSans-74" x="1004.443359"/>
      <use xlink:href="#DejaVuSans-77" x="1043.652344"/>
      <use xlink:href="#DejaVuSans-6f" x="1125.439453"/>
      <use xlink:href="#DejaVuSans-72" x="1186.621094"/>
      <use xlink:href="#DejaVuSans-6b" x="1227.734375"/>
      <use xlink:href="#DejaVuSans-20" x="1285.644531"/>
      <use xlink:href="#DejaVuSans-28" x="1317.431641"/>
      <use xlink:href="#DejaVuSans-33" x="1356.445312"/>
      <use xlink:href="#DejaVuSans-32" x="1420.068359"/>
      <use xlink:href="#DejaVuSans-2e" x="1483.691406"/>
      <use xlink:href="#DejaVuSans-37" x="1515.478516"/>
      <use xlink:href="#DejaVuSans-38" x="1579.101562"/>
      <use xlink:href="#DejaVuSans-25" x="1642.724609"/>
      <use xlink:href="#DejaVuSans-29" x="1737.744141"/>
     </g>
    </g>
    <g id="patch_30">
     <path d="M 598.246379 276.534713 
L 626.246379 276.534713 
L 626.246379 266.734713 
L 598.246379 266.734713 
z
" style="fill: #cfe4f1; stroke: #ffffff; stroke-linejoin: miter"/>
    </g>
    <g id="text_10">
     <!-- naive_bayes (32.54%) -->
     <g transform="translate(637.446379 276.534713) scale(0.14 -0.14)">
      <defs>
       <path id="DejaVuSans-79" d="M 2059 -325 
Q 1816 -950 1584 -1140 
Q 1353 -1331 966 -1331 
L 506 -1331 
L 506 -850 
L 844 -850 
Q 1081 -850 1212 -737 
Q 1344 -625 1503 -206 
L 1606 56 
L 191 3500 
L 800 3500 
L 1894 763 
L 2988 3500 
L 3597 3500 
L 2059 -325 
z
" transform="scale(0.015625)"/>
      </defs>
      <use xlink:href="#DejaVuSans-6e"/>
      <use xlink:href="#DejaVuSans-61" x="63.378906"/>
      <use xlink:href="#DejaVuSans-69" x="124.658203"/>
      <use xlink:href="#DejaVuSans-76" x="152.441406"/>
      <use xlink:href="#DejaVuSans-65" x="211.621094"/>
      <use xlink:href="#DejaVuSans-5f" x="273.144531"/>
      <use xlink:href="#DejaVuSans-62" x="323.144531"/>
      <use xlink:href="#DejaVuSans-61" x="386.621094"/>
      <use xlink:href="#DejaVuSans-79" x="447.900391"/>
      <use xlink:href="#DejaVuSans-65" x="507.080078"/>
      <use xlink:href="#DejaVuSans-73" x="568.603516"/>
      <use xlink:href="#DejaVuSans-20" x="620.703125"/>
      <use xlink:href="#DejaVuSans-28" x="652.490234"/>
      <use xlink:href="#DejaVuSans-33" x="691.503906"/>
      <use xlink:href="#DejaVuSans-32" x="755.126953"/>
      <use xlink:href="#DejaVuSans-2e" x="818.75"/>
      <use xlink:href="#DejaVuSans-35" x="850.537109"/>
      <use xlink:href="#DejaVuSans-34" x="914.160156"/>
      <use xlink:href="#DejaVuSans-25" x="977.783203"/>
      <use xlink:href="#DejaVuSans-29" x="1072.802734"/>
     </g>
    </g>
    <g id="patch_31">
     <path d="M 598.246379 297.473463 
L 626.246379 297.473463 
L 626.246379 287.673463 
L 598.246379 287.673463 
z
" style="fill: #dbebf4; stroke: #ffffff; stroke-linejoin: miter"/>
    </g>
    <g id="text_11">
     <!-- hmm (24.8%) -->
     <g transform="translate(637.446379 297.473463) scale(0.14 -0.14)">
      <defs>
       <path id="DejaVuSans-68" d="M 3513 2113 
L 3513 0 
L 2938 0 
L 2938 2094 
Q 2938 2591 2744 2837 
Q 2550 3084 2163 3084 
Q 1697 3084 1428 2787 
Q 1159 2491 1159 1978 
L 1159 0 
L 581 0 
L 581 4863 
L 1159 4863 
L 1159 2956 
Q 1366 3272 1645 3428 
Q 1925 3584 2291 3584 
Q 2894 3584 3203 3211 
Q 3513 2838 3513 2113 
z
" transform="scale(0.015625)"/>
      </defs>
      <use xlink:href="#DejaVuSans-68"/>
      <use xlink:href="#DejaVuSans-6d" x="63.378906"/>
      <use xlink:href="#DejaVuSans-6d" x="160.791016"/>
      <use xlink:href="#DejaVuSans-20" x="258.203125"/>
      <use xlink:href="#DejaVuSans-28" x="289.990234"/>
      <use xlink:href="#DejaVuSans-32" x="329.003906"/>
      <use xlink:href="#DejaVuSans-34" x="392.626953"/>
      <use xlink:href="#DejaVuSans-2e" x="456.25"/>
      <use xlink:href="#DejaVuSans-38" x="488.037109"/>
      <use xlink:href="#DejaVuSans-25" x="551.660156"/>
      <use xlink:href="#DejaVuSans-29" x="646.679688"/>
     </g>
    </g>
    <g id="patch_32">
     <path d="M 598.246379 318.022838 
L 626.246379 318.022838 
L 626.246379 308.222838 
L 598.246379 308.222838 
z
" style="fill: #dcecf5; stroke: #ffffff; stroke-linejoin: miter"/>
    </g>
    <g id="text_12">
     <!-- knn (23.93%) -->
     <g transform="translate(637.446379 318.022838) scale(0.14 -0.14)">
      <use xlink:href="#DejaVuSans-6b"/>
      <use xlink:href="#DejaVuSans-6e" x="57.910156"/>
      <use xlink:href="#DejaVuSans-6e" x="121.289062"/>
      <use xlink:href="#DejaVuSans-20" x="184.667969"/>
      <use xlink:href="#DejaVuSans-28" x="216.455078"/>
      <use xlink:href="#DejaVuSans-32" x="255.46875"/>
      <use xlink:href="#DejaVuSans-33" x="319.091797"/>
      <use xlink:href="#DejaVuSans-2e" x="382.714844"/>
      <use xlink:href="#DejaVuSans-39" x="414.501953"/>
      <use xlink:href="#DejaVuSans-33" x="478.125"/>
      <use xlink:href="#DejaVuSans-25" x="541.748047"/>
      <use xlink:href="#DejaVuSans-29" x="636.767578"/>
     </g>
    </g>
   </g>
  </g>
 </g>
</svg>
