<?xml version="1.0" encoding="utf-8" standalone="no"?>
<!DOCTYPE svg PUBLIC "-//W3C//DTD SVG 1.1//EN"
  "http://www.w3.org/Graphics/SVG/1.1/DTD/svg11.dtd">
<svg xmlns:xlink="http://www.w3.org/1999/xlink" width="898.989104pt" height="653.068739pt" viewBox="0 0 898.989104 653.068739" xmlns="http://www.w3.org/2000/svg" version="1.1">
 <metadata>
  <rdf:RDF xmlns:dc="http://purl.org/dc/elements/1.1/" xmlns:cc="http://creativecommons.org/ns#" xmlns:rdf="http://www.w3.org/1999/02/22-rdf-syntax-ns#">
   <cc:Work>
    <dc:type rdf:resource="http://purl.org/dc/dcmitype/StillImage"/>
    <dc:date>2023-06-21T15:52:16.276505</dc:date>
    <dc:format>image/svg+xml</dc:format>
    <dc:creator>
     <cc:Agent>
      <dc:title>Matplotlib v3.7.0, https://matplotlib.org/</dc:title>
     </cc:Agent>
    </dc:creator>
   </cc:Work>
  </rdf:RDF>
 </metadata>
 <defs>
  <style type="text/css">*{stroke-linejoin: round; stroke-linecap: butt}</style>
 </defs>
 <g id="figure_1">
  <g id="patch_1">
   <path d="M -0 653.068739 
L 898.989104 653.068739 
L 898.989104 0 
L -0 0 
z
" style="fill: #ffffff"/>
  </g>
  <g id="axes_1">
   <g id="patch_2">
    <path d="M 326.534292 7.2 
C 315.228707 7.2 303.931095 7.800387 292.689188 8.998626 
C 281.447281 10.196864 270.276934 11.991263 259.225343 14.374242 
L 264.402955 38.386562 
C 274.604423 36.186889 284.915512 34.530521 295.292657 33.424455 
C 305.669802 32.318388 316.098368 31.764185 326.534292 31.764185 
z
" style="fill: #f4f5f5; stroke: #ffffff; stroke-linejoin: miter"/>
   </g>
   <g id="patch_3">
    <path d="M 259.225343 14.374242 
C 219.626764 22.912611 182.012113 38.908341 148.392389 61.506248 
C 114.772666 84.104155 85.757879 112.894213 62.899253 146.337216 
C 40.040626 179.780219 23.752916 217.269361 14.906915 256.800355 
C 6.060914 296.33135 4.817128 337.186928 11.242052 377.182823 
C 17.666977 417.178717 31.644037 455.589225 52.425974 490.360799 
C 73.20791 525.132372 100.417648 555.634102 132.600467 580.235268 
C 164.783286 604.836434 201.355249 623.090663 240.361101 634.022026 
C 279.366954 644.953389 320.098958 648.363542 360.379452 644.070168 
C 400.659946 639.776795 439.758063 627.857794 475.583494 608.950396 
C 511.408924 590.042997 543.311638 564.490263 569.586013 533.658324 
C 595.860388 502.826386 616.029692 467.27467 629.01561 428.903885 
C 642.001528 390.533099 647.568437 350.03946 645.418714 309.587885 
C 643.268991 269.13631 633.44164 229.460769 616.462064 192.682444 
C 599.482487 155.904119 575.658769 122.69033 546.264602 94.816792 
C 516.870434 66.943254 482.439156 44.915715 444.811574 29.911839 
C 407.183992 14.907963 367.042836 7.199986 326.53418 7.2 
L 326.534188 31.764185 
C 363.926794 31.764171 400.980169 38.879228 435.713322 52.728959 
C 470.446474 66.578691 502.229192 86.911803 529.36227 112.641223 
C 556.495348 138.370643 578.486472 169.029525 594.159928 202.978748 
C 609.833383 236.927972 618.904783 273.551547 620.889143 310.891463 
C 622.873503 348.231378 617.734817 385.610122 605.747816 421.029309 
C 593.760815 456.448495 575.142996 489.265464 550.889727 517.725715 
C 526.636457 546.185966 497.187799 569.773105 464.11817 587.226088 
C 431.048542 604.679072 394.957972 615.681226 357.775978 619.64434 
C 320.593984 623.607454 282.995211 620.459621 246.989808 610.369132 
C 210.984406 600.278643 177.225671 583.428586 147.518454 560.719817 
C 117.811236 538.011048 92.694555 509.855605 73.511229 477.758768 
C 54.327903 445.661931 41.426002 410.206077 35.495302 373.28679 
C 29.564602 336.367503 30.712712 298.654661 38.878252 262.164513 
C 47.043791 225.674364 62.078601 191.069002 83.178871 160.198538 
C 104.279142 129.328074 131.062022 102.752635 162.095613 81.893029 
C 193.129204 61.033422 227.85042 46.268133 264.402955 38.386562 
z
" style="fill: #50a86a; stroke: #ffffff; stroke-linejoin: miter"/>
   </g>
   <g id="patch_4">
    <path d="M 326.534292 31.764185 
C 315.542327 31.764185 304.558962 32.379019 293.635671 33.605807 
C 282.71238 34.832595 271.866255 36.669416 261.148128 39.107662 
L 266.596975 63.059891 
C 276.421925 60.824831 286.364206 59.141079 296.377223 58.016523 
C 306.390239 56.891968 316.458324 56.328369 326.534292 56.328369 
z
" style="fill: #f4f5f5; stroke: #ffffff; stroke-linejoin: miter"/>
   </g>
   <g id="patch_5">
    <path d="M 261.148128 39.107662 
C 224.755396 47.386576 190.263947 62.5025 159.511007 83.650267 
C 128.758067 104.798034 102.299535 131.595371 81.544755 162.614888 
C 60.789974 193.634405 46.114114 228.315384 38.298901 264.810504 
C 30.483688 301.305625 29.670392 338.955189 35.902334 375.753753 
C 42.134276 412.552316 55.298805 447.834696 74.694699 479.721538 
C 94.090593 511.60838 119.367245 539.523287 149.178266 561.979341 
C 178.989288 584.435395 212.795806 601.026673 248.797078 610.869423 
C 284.798351 620.712174 322.343608 623.628475 359.432961 619.462988 
C 396.522314 615.2975 432.485323 604.125521 465.40638 586.542137 
C 498.327437 568.958752 527.611449 545.281807 551.698573 516.772478 
C 575.785697 488.263149 594.240526 455.43678 606.080042 420.041905 
C 617.919559 384.647029 622.929748 347.323455 620.843738 310.059264 
C 618.757727 272.795073 609.613224 236.263864 593.89732 202.411512 
C 578.181416 168.55916 556.178197 137.997591 529.059688 112.3547 
C 501.941179 86.711809 470.197584 66.451125 435.519759 52.651856 
C 400.841934 38.852587 363.856727 31.764172 326.534195 31.764185 
L 326.534203 56.328369 
C 360.746524 56.328358 394.649631 62.826071 426.437637 75.475401 
C 458.225643 88.124732 487.323939 106.697025 512.182572 130.203009 
C 537.041205 153.708992 557.210822 181.723764 571.617068 212.755086 
C 586.023313 243.786409 594.405774 277.273351 596.31795 311.432192 
C 598.230127 345.591034 593.637453 379.80431 582.784563 412.249613 
C 571.931673 444.694915 555.014747 474.785753 532.934883 500.919305 
C 510.85502 527.052856 484.011341 548.756723 453.833706 564.874825 
C 423.656071 580.992927 390.689979 591.233909 356.691405 595.052272 
C 322.692832 598.870635 288.276346 596.197359 255.27518 587.174838 
C 222.274013 578.152317 191.284705 562.943645 163.957935 542.358929 
C 136.631165 521.774213 113.460901 496.185548 95.681332 466.955943 
C 77.901762 437.726338 65.834277 405.384157 60.121664 371.65214 
C 54.40905 337.920124 55.154572 303.408023 62.318517 269.954162 
C 69.482462 236.500302 82.935334 204.709405 101.960549 176.274847 
C 120.985765 147.84029 145.239419 123.276064 173.429614 103.890611 
C 201.619809 84.505158 233.23697 70.648895 266.596975 63.059891 
z
" style="fill: #50a86a; stroke: #ffffff; stroke-linejoin: miter"/>
   </g>
   <g id="patch_6">
    <path d="M 326.534292 56.328369 
C 316.175137 56.328369 305.824549 56.924093 295.533797 58.112589 
C 285.243046 59.301086 275.029151 61.08039 264.942706 63.441687 
L 270.541941 87.359206 
C 279.711437 85.212572 288.996795 83.595024 298.352024 82.514572 
C 307.707253 81.434121 317.116879 80.892554 326.534292 80.892554 
z
" style="fill: #f4f5f5; stroke: #ffffff; stroke-linejoin: miter"/>
   </g>
   <g id="patch_7">
    <path d="M 264.942706 63.441687 
C 231.665792 71.232013 200.167035 85.265551 172.120804 104.796325 
C 144.074574 124.327099 119.986784 149.002802 101.137863 177.511754 
C 82.288942 206.020707 69.018897 237.848648 62.03312 271.303709 
C 55.047344 304.75877 54.471848 339.23747 60.337226 372.907033 
C 66.202604 406.576597 78.403052 438.829675 96.290033 467.951798 
C 114.177015 497.073921 137.427876 522.539769 164.806676 542.99566 
C 192.185476 563.451552 223.198341 578.528492 256.196729 587.425041 
C 289.195117 596.321589 323.583785 598.877264 357.534743 594.956216 
C 391.485701 591.035167 424.386523 580.708124 454.48831 564.524039 
C 484.590097 548.339954 511.349856 526.590764 533.345124 500.432585 
C 555.340393 474.274406 572.17441 444.179093 582.952332 411.746416 
C 593.730255 379.313739 598.257666 345.128735 596.293903 311.008568 
C 594.33014 276.8884 585.910626 243.448548 571.482915 212.466564 
C 557.055204 181.48458 536.879551 153.519334 512.028429 130.057367 
C 487.177306 106.595401 458.098991 88.059933 426.339193 75.43625 
C 394.579394 62.812567 360.711013 56.32838 326.534381 56.328369 
L 326.534372 80.892554 
C 357.604038 80.892564 388.393476 86.787279 417.26602 98.263355 
C 446.138564 109.73943 472.573395 126.589855 495.165325 147.918916 
C 517.757255 169.247976 536.098758 194.670927 549.214858 222.836367 
C 562.330959 251.001807 569.985062 281.401673 571.770302 312.420007 
C 573.555541 343.438341 569.439713 374.515617 559.641601 403.999869 
C 549.84349 433.484121 534.539838 460.843496 514.54414 484.623659 
C 494.548441 508.403822 470.221387 528.175813 442.856127 542.888617 
C 415.490866 557.601422 385.581027 566.989643 354.71652 570.554232 
C 323.852013 574.118822 292.589587 571.795481 262.591053 563.70771 
C 232.592519 555.619938 204.399005 541.913629 179.509187 523.317364 
C 154.619368 504.721099 133.482222 481.570328 117.22133 455.095671 
C 100.960437 428.621013 89.869121 399.300034 84.536959 368.691339 
C 79.204798 338.082645 79.727975 306.738372 86.078681 276.324681 
C 92.429387 245.910989 104.493065 216.976497 121.628447 191.059268 
C 138.76383 165.142038 160.661821 142.709581 186.158394 124.954332 
C 211.654967 107.199083 240.290202 94.44132 270.541941 87.359206 
z
" style="fill: #50a86a; stroke: #ffffff; stroke-linejoin: miter"/>
   </g>
   <g id="patch_8">
    <path d="M 326.534292 80.892554 
C 316.473221 80.892554 306.421646 81.51068 296.436385 82.743439 
C 286.451123 83.976198 276.551023 85.821262 266.792046 88.268203 
L 272.766271 112.094823 
C 281.54935 109.892576 290.45944 108.232018 299.446175 107.122535 
C 308.432911 106.013052 317.479328 105.456738 326.534292 105.456738 
z
" style="fill: #f4f5f5; stroke: #ffffff; stroke-linejoin: miter"/>
   </g>
   <g id="patch_9">
    <path d="M 266.792046 88.268203 
C 236.733944 95.804893 208.371696 108.961863 183.205209 127.043321 
C 158.038721 145.124779 136.519588 167.806267 119.785825 193.888299 
C 103.052062 219.970331 91.403944 248.984884 85.457469 279.397557 
C 79.510994 309.81023 79.372866 341.075288 85.050391 371.539315 
C 90.727917 402.003342 102.119215 431.119682 118.621872 457.348551 
C 135.124528 483.57742 156.442413 506.448159 181.448156 524.751275 
C 206.453898 543.054392 234.698787 556.461449 264.689124 564.26343 
C 294.679461 572.065411 325.877091 574.122315 356.632162 570.325365 
C 387.387233 566.528415 417.147868 556.945744 444.340209 542.084122 
C 471.532549 527.222499 495.668649 507.348606 515.472098 483.51345 
C 535.275546 459.678294 550.390985 432.309581 560.019051 402.854673 
C 569.647116 373.399766 573.61504 342.387211 571.712984 311.457074 
C 569.810927 280.526936 562.07302 250.234235 548.908475 222.180965 
C 535.743929 194.127695 517.388972 168.817252 494.814286 147.58815 
C 472.239599 126.359049 445.85027 109.59223 417.041866 98.174387 
C 388.233463 86.756544 357.522933 80.892563 326.534367 80.892554 
L 326.534359 105.456738 
C 354.424069 105.456747 382.063546 110.73433 407.991109 121.010388 
C 433.918672 131.286447 457.669069 146.376584 477.986286 165.482775 
C 498.303504 184.588967 514.822965 207.368365 526.671056 232.616308 
C 538.519148 257.864251 545.483263 285.127683 547.195114 312.964806 
C 548.906965 340.80193 545.335834 368.713229 536.670575 395.222646 
C 528.005316 421.732063 514.401421 446.363905 496.578317 467.815545 
C 478.755214 489.267185 457.032724 507.153689 432.559617 520.52915 
C 408.08651 533.90461 381.301939 542.529014 353.622375 545.946269 
C 325.942811 549.363524 297.864944 547.51231 270.873641 540.490527 
C 243.882338 533.468744 218.461938 521.402393 195.956769 504.929588 
C 173.451601 488.456783 154.265504 467.873118 139.413114 444.267136 
C 124.560723 420.661154 114.308554 394.456448 109.198782 367.038823 
C 104.089009 339.621199 104.213323 311.482647 109.565151 284.111241 
C 114.916979 256.739836 125.400285 230.626738 140.460672 207.152909 
C 155.521059 183.67908 174.888278 163.265742 197.538117 146.992429 
C 220.187956 130.719117 245.713979 118.877844 272.766271 112.094823 
z
" style="fill: #50a86a; stroke: #ffffff; stroke-linejoin: miter"/>
   </g>
   <g id="patch_10">
    <path d="M 326.534292 105.456738 
C 317.479328 105.456738 308.432911 106.013052 299.446175 107.122535 
C 290.45944 108.232018 281.54935 109.892576 272.766271 112.094823 
L 278.740496 135.921442 
C 286.547677 133.96389 294.467757 132.487839 302.455966 131.501631 
C 310.444176 130.515424 318.485435 130.020923 326.534292 130.020923 
z
" style="fill: #f4f5f5; stroke: #ffffff; stroke-linejoin: miter"/>
   </g>
   <g id="patch_11">
    <path d="M 272.766271 112.094823 
C 245.713979 118.877844 220.187956 130.719117 197.538117 146.992429 
C 174.888278 163.265742 155.521059 183.67908 140.460672 207.152909 
C 125.400285 230.626738 114.916979 256.739836 109.565151 284.111241 
C 104.213323 311.482647 104.089009 339.621199 109.198782 367.038823 
C 114.308554 394.456448 124.560723 420.661154 139.413114 444.267136 
C 154.265504 467.873118 173.451601 488.456783 195.956769 504.929588 
C 218.461938 521.402393 243.882338 533.468744 270.873641 540.490527 
C 297.864944 547.51231 325.942811 549.363524 353.622375 545.946269 
C 381.301939 542.529014 408.08651 533.90461 432.559617 520.52915 
C 457.032724 507.153689 478.755214 489.267185 496.578317 467.815545 
C 514.401421 446.363905 528.005316 421.732063 536.670575 395.222646 
C 545.335834 368.713229 548.906965 340.80193 547.195114 312.964806 
C 545.483263 285.127683 538.519148 257.864251 526.671056 232.616308 
C 514.822965 207.368365 498.303504 184.588967 477.986286 165.482775 
C 457.669069 146.376584 433.918672 131.286447 407.991109 121.010388 
C 382.063546 110.73433 354.424069 105.456747 326.534359 105.456738 
L 326.534352 130.020923 
C 351.325205 130.020931 375.893629 134.712115 398.940352 143.84639 
C 421.987074 152.980664 443.098538 166.394119 461.158287 183.3774 
C 479.218036 200.360682 493.902002 220.609036 504.433638 243.051652 
C 514.965275 265.494268 521.1556 289.728429 522.677245 314.472539 
C 524.198891 339.216649 521.024551 364.026693 513.322099 387.590619 
C 505.619646 411.154545 493.527295 433.049515 477.684537 452.11764 
C 461.841778 471.185765 442.532898 487.084879 420.779025 498.974177 
C 399.025153 510.863476 375.216645 518.529612 350.612588 521.567172 
C 326.008531 524.604732 301.050428 522.959209 277.058158 516.717624 
C 253.065888 510.476039 230.469977 499.750393 210.465383 485.1079 
C 190.460789 470.465407 173.406481 452.168816 160.204356 431.185721 
C 147.002231 410.202626 137.889192 386.909553 133.347172 362.538332 
C 128.805151 338.16711 128.915653 313.155064 133.672834 288.824926 
C 138.430014 264.494788 147.748508 241.283145 161.135519 220.417519 
C 174.522529 199.551894 191.737835 181.406704 211.871025 166.941537 
C 232.004215 152.476371 254.694014 141.950795 278.740496 135.921442 
z
" style="fill: #50a86a; stroke: #ffffff; stroke-linejoin: miter"/>
   </g>
   <g id="patch_12">
    <path d="M 326.534292 130.020923 
C 318.03225 130.020923 309.539161 130.572677 301.108582 131.672706 
C 292.678003 132.772734 284.327691 134.418721 276.110301 136.600286 
L 282.4133 160.34205 
C 289.603516 158.433181 296.910039 156.992943 304.286796 156.030418 
C 311.663553 155.067892 319.095005 154.585108 326.534292 154.585108 
z
" style="fill: #f4f5f5; stroke: #ffffff; stroke-linejoin: miter"/>
   </g>
   <g id="patch_13">
    <path d="M 276.110301 136.600286 
C 252.204637 142.946797 229.710654 153.749885 209.812533 168.440828 
C 189.914412 183.131771 172.967565 201.448166 159.864146 222.425759 
C 146.760727 243.403353 137.734784 266.667452 133.261481 290.993335 
C 128.788179 315.319217 128.947416 340.272386 133.730812 364.539197 
C 138.514207 388.806009 147.836321 411.953021 161.206397 432.761674 
C 174.576473 453.570328 191.755702 471.668949 211.839694 486.104747 
C 231.923686 500.540546 254.55371 511.055676 278.538425 517.096577 
C 302.523139 523.137478 327.43414 524.596249 351.960004 521.396094 
C 376.485868 518.195939 400.188526 510.394019 421.820168 498.401059 
C 443.45181 486.408099 462.626061 470.438313 478.333505 451.332419 
C 494.04095 432.226524 506.001029 410.325783 513.584113 386.783144 
C 521.167196 363.240505 524.237839 338.476476 522.634388 313.794743 
C 521.030938 289.11301 514.782034 264.954426 504.216647 242.590804 
C 493.65126 220.227181 478.958103 200.057969 460.910688 183.144962 
C 442.863272 166.231955 421.783954 152.877245 398.782437 143.783881 
C 375.780921 134.690518 351.26805 130.020922 326.534287 130.020923 
L 326.534288 154.585108 
C 348.17633 154.585107 369.625092 158.671003 389.751419 166.627696 
C 409.877746 174.584389 428.32215 186.26976 444.113638 201.068642 
C 459.905126 215.867523 472.761639 233.515584 482.006352 253.083753 
C 491.251066 272.651923 496.718857 293.790683 498.121876 315.3872 
C 499.524895 336.983717 496.838083 358.652242 490.202885 379.252051 
C 483.567687 399.85186 473.102618 419.015009 459.358604 435.732666 
C 445.61459 452.450324 428.83712 466.423887 409.909434 476.917726 
C 390.981747 487.411566 370.241921 494.238247 348.78179 497.038382 
C 327.321659 499.838518 305.524533 498.562093 284.537908 493.276305 
C 263.551283 487.990517 243.750012 478.789778 226.176519 466.158454 
C 208.603026 453.52713 193.571201 437.690837 181.872384 419.483265 
C 170.173567 401.275693 162.016718 381.022058 157.831247 359.788598 
C 153.645776 338.555138 153.506443 316.721115 157.420583 295.435968 
C 161.334723 274.15082 169.232423 253.794733 180.697914 235.439339 
C 192.163406 217.083945 206.991897 201.057099 224.402753 188.202524 
C 241.813608 175.347949 261.495843 165.895247 282.4133 160.34205 
z
" style="fill: #52a96c; stroke: #ffffff; stroke-linejoin: miter"/>
   </g>
   <g id="patch_14">
    <path d="M 326.534292 154.585108 
C 318.175585 154.585108 309.827992 155.194601 301.557934 156.408739 
C 293.287877 157.622876 285.117347 159.438428 277.111357 161.84095 
L 284.171776 185.368585 
C 291.034053 183.309281 298.037364 181.753094 305.125985 180.712404 
C 312.214606 179.671715 319.369686 179.149292 326.534292 179.149292 
z
" style="fill: #f4f5f5; stroke: #ffffff; stroke-linejoin: miter"/>
   </g>
   <g id="patch_15">
    <path d="M 277.111357 161.84095 
C 256.493467 168.028182 237.219607 178.032463 220.29377 191.33266 
C 203.367933 204.632857 189.089207 220.993948 178.201385 239.56367 
C 167.313564 258.133391 160.00904 278.583605 156.668313 299.84904 
C 153.327587 321.114476 154.00969 342.819362 158.679091 363.833069 
C 163.348493 384.846776 171.922682 404.797982 183.95502 422.647409 
C 195.987359 440.496835 211.26523 455.929074 228.992794 468.140245 
C 246.720357 480.351415 266.584359 489.12574 287.550063 494.006156 
C 308.515767 498.886572 330.212699 499.786839 351.510644 496.660062 
C 372.808589 493.533286 393.331202 486.434716 412.00944 475.734126 
C 430.687678 465.033536 447.191486 450.920009 460.661166 434.128734 
C 474.130846 417.337459 484.328381 398.165145 490.722572 377.610498 
C 497.116763 357.055851 499.594621 335.48208 498.027071 314.012987 
C 496.459522 292.543893 490.874265 271.558845 481.562242 252.150975 
C 472.250218 232.743105 459.375977 215.255359 443.61015 200.598692 
C 427.844323 185.942025 409.465499 174.375427 389.431051 166.501413 
C 369.396603 158.6274 348.060548 154.585109 326.534304 154.585108 
L 326.534302 179.149292 
C 344.985369 179.149294 363.273416 182.614114 380.4458 189.363269 
C 397.618184 196.112423 413.371461 206.02665 426.885027 218.589507 
C 440.398594 231.152365 451.433658 246.141861 459.415392 262.777178 
C 467.397126 279.412496 472.184489 297.39968 473.528103 315.80176 
C 474.871717 334.20384 472.747838 352.695643 467.267104 370.313912 
C 461.786369 387.932182 453.045624 404.365593 441.500184 418.758115 
C 429.954744 433.150636 415.808622 445.247945 399.798704 454.419879 
C 383.788786 463.591814 366.197975 469.676302 347.942593 472.356396 
C 329.687212 475.036491 311.089842 474.264833 293.119238 470.081619 
C 275.148635 465.898406 258.122348 458.377556 242.927293 447.910838 
C 227.732239 437.444121 214.636921 424.216487 204.323488 408.916979 
C 194.010055 393.61747 186.66075 376.516437 182.658406 358.504688 
C 178.656062 340.492939 178.071402 321.888751 180.934882 303.661235 
C 183.798362 285.433719 190.059382 267.904963 199.391801 251.98806 
C 208.724219 236.071156 220.963127 222.047363 235.470987 210.647194 
C 249.978848 199.247025 266.499299 190.671927 284.171776 185.368585 
z
" style="fill: #52a96c; stroke: #ffffff; stroke-linejoin: miter"/>
   </g>
   <g id="patch_16">
    <path d="M 326.534292 179.149292 
C 317.143212 179.149292 307.773592 180.046863 298.553306 181.829755 
C 289.33302 183.612646 280.304206 186.272711 271.590089 189.773644 
L 280.747456 212.567103 
C 288.00922 209.649659 295.533232 207.432939 303.216804 205.947196 
C 310.900375 204.461453 318.708392 203.713477 326.534292 203.713477 
z
" style="fill: #f4f5f5; stroke: #ffffff; stroke-linejoin: miter"/>
   </g>
   <g id="patch_17">
    <path d="M 271.590089 189.773644 
C 254.729081 196.547624 239.265274 206.38171 225.98027 218.778849 
C 212.695267 231.175988 201.816728 245.923733 193.894499 262.276674 
C 185.97227 278.629615 181.142113 296.307515 179.648162 314.416863 
C 178.154211 332.526212 180.022068 350.756672 185.157324 368.186805 
C 190.29258 385.616938 198.607234 401.948047 209.681029 416.354692 
C 220.754824 430.761338 234.397992 442.996637 249.920953 452.442169 
C 265.443914 461.887701 282.580654 468.3816 300.465014 471.595638 
C 318.349374 474.809676 336.674875 474.688775 354.515271 471.239047 
C 372.355668 467.789318 389.405234 461.069878 404.802217 451.420355 
C 420.1992 441.770832 433.679746 429.356587 444.562492 414.805085 
C 455.445239 400.253584 463.543693 383.814191 468.448525 366.31782 
C 473.353357 348.821449 474.980515 330.56793 473.247755 312.47987 
C 471.514995 294.391809 466.452011 276.779178 458.314708 260.532188 
C 450.177404 244.285199 439.105228 229.682271 425.65781 217.461497 
C 412.210392 205.240722 396.618178 195.611525 379.66926 189.060602 
C 362.720343 182.50968 344.705172 179.149294 326.534306 179.149292 
L 326.534303 203.713477 
C 341.676692 203.713478 356.689335 206.5138 370.813432 211.972902 
C 384.93753 217.432004 397.931042 225.456335 409.137223 235.640314 
C 420.343405 245.824293 429.570219 257.993399 436.351305 271.532557 
C 443.132392 285.071715 447.351544 299.748908 448.795511 314.822291 
C 450.239477 329.895675 448.883513 345.10694 444.796153 359.68725 
C 440.708793 374.267559 433.960081 387.967053 424.891126 400.093304 
C 415.82217 412.219556 404.588382 422.56476 391.757563 430.606029 
C 378.926744 438.647299 364.718772 444.246832 349.851775 447.121606 
C 334.984778 449.996379 319.713527 450.09713 304.809894 447.418765 
C 289.90626 444.7404 275.625643 439.328817 262.689843 431.457541 
C 249.754042 423.586264 238.384735 413.390181 229.156573 401.384643 
C 219.92841 389.379105 212.999532 375.769848 208.720152 361.244737 
C 204.440772 346.719627 202.884224 331.527576 204.129183 316.436453 
C 205.374143 301.345329 209.399274 286.613746 216.001131 272.986295 
C 222.602989 259.358845 231.668438 247.069057 242.739274 236.738108 
C 253.81011 226.407159 266.696616 218.212086 280.747456 212.567103 
z
" style="fill: #56aa6f; stroke: #ffffff; stroke-linejoin: miter"/>
   </g>
   <g id="patch_18">
    <path d="M 326.534292 203.713477 
C 317.560689 203.713477 308.614051 204.696928 299.85472 206.646204 
C 291.095389 208.59548 282.576008 211.498867 274.449261 215.304329 
L 284.866267 237.550343 
C 291.367664 234.505973 298.183169 232.183264 305.190634 230.623843 
C 312.198099 229.064422 319.355409 228.277662 326.534292 228.277662 
z
" style="fill: #f4f5f5; stroke: #ffffff; stroke-linejoin: miter"/>
   </g>
   <g id="patch_19">
    <path d="M 274.449261 215.304329 
C 260.866559 221.664619 248.563043 230.459395 238.148958 241.252445 
C 227.734873 252.045494 219.385291 264.655374 213.514344 278.456645 
C 207.643397 292.257915 204.349783 307.018562 203.796861 322.006469 
C 203.243939 336.994376 205.441005 351.957581 210.279087 366.15392 
C 215.117168 380.350259 222.514932 393.541078 232.105454 405.072121 
C 241.695976 416.603165 253.31803 426.280584 266.395172 433.624387 
C 279.472314 440.968191 293.784702 445.85492 308.622455 448.042199 
C 323.460207 450.229478 338.573885 449.680534 353.213862 446.422597 
C 367.853838 443.164659 381.774001 437.252496 394.28392 428.979346 
C 406.793839 420.706197 417.68321 410.211141 426.411928 398.014725 
C 435.140647 385.81831 441.561974 372.125568 445.357417 357.615651 
C 449.152859 343.105734 450.258613 328.022568 448.619832 313.114266 
C 446.981052 298.205964 442.625287 283.723149 435.76858 270.384159 
C 428.911873 257.04517 419.669493 245.074246 408.499854 235.065138 
C 397.330215 225.05603 384.42109 217.177001 370.412763 211.818843 
C 356.404436 206.460686 341.5324 203.713478 326.534298 203.713477 
L 326.534297 228.277662 
C 338.532779 228.277662 350.430407 230.475429 361.637069 234.761955 
C 372.843731 239.04848 383.17103 245.351704 392.106741 253.358991 
C 401.042452 261.366277 408.436357 270.943016 413.921722 281.614207 
C 419.407088 292.285399 422.8917 303.871651 424.202724 315.798293 
C 425.513749 327.724934 424.629146 339.791468 421.592792 351.399401 
C 418.556437 363.007335 413.419376 373.961528 406.436401 383.71866 
C 399.453426 393.475793 390.74193 401.871837 380.733994 408.490357 
C 370.726059 415.108877 359.589929 419.838607 347.877948 422.444957 
C 336.165966 425.051308 324.075024 425.490462 312.204822 423.740639 
C 300.33462 421.990816 288.884709 418.081432 278.422996 412.20639 
C 267.961283 406.331347 258.663639 398.589412 250.991221 389.364577 
C 243.318804 380.139742 237.400593 369.587087 233.530128 358.230016 
C 229.659663 346.872945 227.90201 334.902381 228.344347 322.912055 
C 228.786685 310.92173 231.421576 299.113212 236.118334 288.072196 
C 240.815091 277.031179 247.494757 266.943275 255.826025 258.308836 
C 264.157293 249.674396 274.000105 242.638575 284.866267 237.550343 
z
" style="fill: #56aa6f; stroke: #ffffff; stroke-linejoin: miter"/>
   </g>
   <g id="patch_20">
    <path d="M 326.534292 228.277662 
C 318.219626 228.277662 309.938485 229.333065 301.889606 231.418544 
C 293.840727 233.504022 286.089017 236.602759 278.820508 240.640387 
L 290.748954 262.11389 
C 296.200336 259.085669 302.014118 256.761617 308.050778 255.197508 
C 314.087437 253.633399 320.298292 252.841846 326.534292 252.841846 
z
" style="fill: #f4f5f5; stroke: #ffffff; stroke-linejoin: miter"/>
   </g>
   <g id="patch_21">
    <path d="M 278.820508 240.640387 
C 268.456375 246.397622 259.219313 253.983443 251.556798 263.030368 
C 243.894282 272.077293 237.932077 282.436835 233.959013 293.607142 
C 229.985948 304.777449 228.067233 316.575183 228.295818 328.428822 
C 228.524402 340.28246 230.896534 351.99745 235.297299 363.006277 
C 239.698064 374.015103 246.055233 384.13708 254.060842 392.881862 
C 262.066451 401.626644 271.589106 408.850705 282.167494 414.204086 
C 292.745883 419.557467 304.206384 422.952304 315.993811 424.224138 
C 327.781238 425.495972 339.702125 424.62393 351.178982 421.650255 
C 362.65584 418.676581 373.500299 413.650081 383.187017 406.814257 
C 392.873735 399.978433 401.243725 391.44548 407.891514 381.628765 
C 414.539303 371.81205 419.355783 360.872694 422.107626 349.340636 
C 424.85947 337.808578 425.50151 325.873094 424.002646 314.11238 
C 422.503782 302.351665 418.888613 290.958748 413.332272 280.485541 
C 407.77593 270.012334 400.369611 260.630733 391.472103 252.795215 
C 382.574595 244.959697 372.331931 238.798866 361.240302 234.611174 
C 350.148673 230.423482 338.390125 228.27766 326.534283 228.277662 
L 326.534285 252.841846 
C 335.426167 252.841845 344.245078 254.451211 352.563799 257.59198 
C 360.882521 260.732749 368.564519 265.353373 375.23765 271.230011 
C 381.910781 277.10665 387.465521 284.142851 391.632777 291.997756 
C 395.800033 299.852661 398.511409 308.397349 399.635558 317.217885 
C 400.759706 326.03842 400.278175 334.990034 398.214293 343.639077 
C 396.15041 352.28812 392.538051 360.492638 387.552208 367.855174 
C 382.566366 375.21771 376.288874 381.617424 369.023836 386.744292 
C 361.758797 391.87116 353.625453 395.641035 345.01781 397.871291 
C 336.410167 400.101547 327.469502 400.755579 318.628931 399.801704 
C 309.788361 398.847828 301.192985 396.301701 293.259194 392.286665 
C 285.325402 388.271629 278.183411 382.853583 272.179205 376.294997 
C 266.174998 369.73641 261.407121 362.144927 258.106547 353.888308 
C 254.805974 345.631688 253.026875 336.845445 252.855436 327.955216 
C 252.683998 319.064987 254.123034 310.216687 257.102832 301.838957 
C 260.082631 293.461227 264.554285 285.69157 270.301171 278.906376 
C 276.048058 272.121183 282.975855 266.431816 290.748954 262.11389 
z
" style="fill: #59ac72; stroke: #ffffff; stroke-linejoin: miter"/>
   </g>
   <g id="matplotlib.axis_1"/>
   <g id="matplotlib.axis_2"/>
   <g id="text_1">
    <!-- AUPRC_1 on generalized models -->
    <g transform="translate(190.572417 94.3392) scale(0.168 -0.168)">
     <defs>
      <path id="DejaVuSans-41" d="M 2188 4044 
L 1331 1722 
L 3047 1722 
L 2188 4044 
z
M 1831 4666 
L 2547 4666 
L 4325 0 
L 3669 0 
L 3244 1197 
L 1141 1197 
L 716 0 
L 50 0 
L 1831 4666 
z
" transform="scale(0.015625)"/>
      <path id="DejaVuSans-55" d="M 556 4666 
L 1191 4666 
L 1191 1831 
Q 1191 1081 1462 751 
Q 1734 422 2344 422 
Q 2950 422 3222 751 
Q 3494 1081 3494 1831 
L 3494 4666 
L 4128 4666 
L 4128 1753 
Q 4128 841 3676 375 
Q 3225 -91 2344 -91 
Q 1459 -91 1007 375 
Q 556 841 556 1753 
L 556 4666 
z
" transform="scale(0.015625)"/>
      <path id="DejaVuSans-50" d="M 1259 4147 
L 1259 2394 
L 2053 2394 
Q 2494 2394 2734 2622 
Q 2975 2850 2975 3272 
Q 2975 3691 2734 3919 
Q 2494 4147 2053 4147 
L 1259 4147 
z
M 628 4666 
L 2053 4666 
Q 2838 4666 3239 4311 
Q 3641 3956 3641 3272 
Q 3641 2581 3239 2228 
Q 2838 1875 2053 1875 
L 1259 1875 
L 1259 0 
L 628 0 
L 628 4666 
z
" transform="scale(0.015625)"/>
      <path id="DejaVuSans-52" d="M 2841 2188 
Q 3044 2119 3236 1894 
Q 3428 1669 3622 1275 
L 4263 0 
L 3584 0 
L 2988 1197 
Q 2756 1666 2539 1819 
Q 2322 1972 1947 1972 
L 1259 1972 
L 1259 0 
L 628 0 
L 628 4666 
L 2053 4666 
Q 2853 4666 3247 4331 
Q 3641 3997 3641 3322 
Q 3641 2881 3436 2590 
Q 3231 2300 2841 2188 
z
M 1259 4147 
L 1259 2491 
L 2053 2491 
Q 2509 2491 2742 2702 
Q 2975 2913 2975 3322 
Q 2975 3731 2742 3939 
Q 2509 4147 2053 4147 
L 1259 4147 
z
" transform="scale(0.015625)"/>
      <path id="DejaVuSans-43" d="M 4122 4306 
L 4122 3641 
Q 3803 3938 3442 4084 
Q 3081 4231 2675 4231 
Q 1875 4231 1450 3742 
Q 1025 3253 1025 2328 
Q 1025 1406 1450 917 
Q 1875 428 2675 428 
Q 3081 428 3442 575 
Q 3803 722 4122 1019 
L 4122 359 
Q 3791 134 3420 21 
Q 3050 -91 2638 -91 
Q 1578 -91 968 557 
Q 359 1206 359 2328 
Q 359 3453 968 4101 
Q 1578 4750 2638 4750 
Q 3056 4750 3426 4639 
Q 3797 4528 4122 4306 
z
" transform="scale(0.015625)"/>
      <path id="DejaVuSans-5f" d="M 3263 -1063 
L 3263 -1509 
L -63 -1509 
L -63 -1063 
L 3263 -1063 
z
" transform="scale(0.015625)"/>
      <path id="DejaVuSans-31" d="M 794 531 
L 1825 531 
L 1825 4091 
L 703 3866 
L 703 4441 
L 1819 4666 
L 2450 4666 
L 2450 531 
L 3481 531 
L 3481 0 
L 794 0 
L 794 531 
z
" transform="scale(0.015625)"/>
      <path id="DejaVuSans-20" transform="scale(0.015625)"/>
      <path id="DejaVuSans-6f" d="M 1959 3097 
Q 1497 3097 1228 2736 
Q 959 2375 959 1747 
Q 959 1119 1226 758 
Q 1494 397 1959 397 
Q 2419 397 2687 759 
Q 2956 1122 2956 1747 
Q 2956 2369 2687 2733 
Q 2419 3097 1959 3097 
z
M 1959 3584 
Q 2709 3584 3137 3096 
Q 3566 2609 3566 1747 
Q 3566 888 3137 398 
Q 2709 -91 1959 -91 
Q 1206 -91 779 398 
Q 353 888 353 1747 
Q 353 2609 779 3096 
Q 1206 3584 1959 3584 
z
" transform="scale(0.015625)"/>
      <path id="DejaVuSans-6e" d="M 3513 2113 
L 3513 0 
L 2938 0 
L 2938 2094 
Q 2938 2591 2744 2837 
Q 2550 3084 2163 3084 
Q 1697 3084 1428 2787 
Q 1159 2491 1159 1978 
L 1159 0 
L 581 0 
L 581 3500 
L 1159 3500 
L 1159 2956 
Q 1366 3272 1645 3428 
Q 1925 3584 2291 3584 
Q 2894 3584 3203 3211 
Q 3513 2838 3513 2113 
z
" transform="scale(0.015625)"/>
      <path id="DejaVuSans-67" d="M 2906 1791 
Q 2906 2416 2648 2759 
Q 2391 3103 1925 3103 
Q 1463 3103 1205 2759 
Q 947 2416 947 1791 
Q 947 1169 1205 825 
Q 1463 481 1925 481 
Q 2391 481 2648 825 
Q 2906 1169 2906 1791 
z
M 3481 434 
Q 3481 -459 3084 -895 
Q 2688 -1331 1869 -1331 
Q 1566 -1331 1297 -1286 
Q 1028 -1241 775 -1147 
L 775 -588 
Q 1028 -725 1275 -790 
Q 1522 -856 1778 -856 
Q 2344 -856 2625 -561 
Q 2906 -266 2906 331 
L 2906 616 
Q 2728 306 2450 153 
Q 2172 0 1784 0 
Q 1141 0 747 490 
Q 353 981 353 1791 
Q 353 2603 747 3093 
Q 1141 3584 1784 3584 
Q 2172 3584 2450 3431 
Q 2728 3278 2906 2969 
L 2906 3500 
L 3481 3500 
L 3481 434 
z
" transform="scale(0.015625)"/>
      <path id="DejaVuSans-65" d="M 3597 1894 
L 3597 1613 
L 953 1613 
Q 991 1019 1311 708 
Q 1631 397 2203 397 
Q 2534 397 2845 478 
Q 3156 559 3463 722 
L 3463 178 
Q 3153 47 2828 -22 
Q 2503 -91 2169 -91 
Q 1331 -91 842 396 
Q 353 884 353 1716 
Q 353 2575 817 3079 
Q 1281 3584 2069 3584 
Q 2775 3584 3186 3129 
Q 3597 2675 3597 1894 
z
M 3022 2063 
Q 3016 2534 2758 2815 
Q 2500 3097 2075 3097 
Q 1594 3097 1305 2825 
Q 1016 2553 972 2059 
L 3022 2063 
z
" transform="scale(0.015625)"/>
      <path id="DejaVuSans-72" d="M 2631 2963 
Q 2534 3019 2420 3045 
Q 2306 3072 2169 3072 
Q 1681 3072 1420 2755 
Q 1159 2438 1159 1844 
L 1159 0 
L 581 0 
L 581 3500 
L 1159 3500 
L 1159 2956 
Q 1341 3275 1631 3429 
Q 1922 3584 2338 3584 
Q 2397 3584 2469 3576 
Q 2541 3569 2628 3553 
L 2631 2963 
z
" transform="scale(0.015625)"/>
      <path id="DejaVuSans-61" d="M 2194 1759 
Q 1497 1759 1228 1600 
Q 959 1441 959 1056 
Q 959 750 1161 570 
Q 1363 391 1709 391 
Q 2188 391 2477 730 
Q 2766 1069 2766 1631 
L 2766 1759 
L 2194 1759 
z
M 3341 1997 
L 3341 0 
L 2766 0 
L 2766 531 
Q 2569 213 2275 61 
Q 1981 -91 1556 -91 
Q 1019 -91 701 211 
Q 384 513 384 1019 
Q 384 1609 779 1909 
Q 1175 2209 1959 2209 
L 2766 2209 
L 2766 2266 
Q 2766 2663 2505 2880 
Q 2244 3097 1772 3097 
Q 1472 3097 1187 3025 
Q 903 2953 641 2809 
L 641 3341 
Q 956 3463 1253 3523 
Q 1550 3584 1831 3584 
Q 2591 3584 2966 3190 
Q 3341 2797 3341 1997 
z
" transform="scale(0.015625)"/>
      <path id="DejaVuSans-6c" d="M 603 4863 
L 1178 4863 
L 1178 0 
L 603 0 
L 603 4863 
z
" transform="scale(0.015625)"/>
      <path id="DejaVuSans-69" d="M 603 3500 
L 1178 3500 
L 1178 0 
L 603 0 
L 603 3500 
z
M 603 4863 
L 1178 4863 
L 1178 4134 
L 603 4134 
L 603 4863 
z
" transform="scale(0.015625)"/>
      <path id="DejaVuSans-7a" d="M 353 3500 
L 3084 3500 
L 3084 2975 
L 922 459 
L 3084 459 
L 3084 0 
L 275 0 
L 275 525 
L 2438 3041 
L 353 3041 
L 353 3500 
z
" transform="scale(0.015625)"/>
      <path id="DejaVuSans-64" d="M 2906 2969 
L 2906 4863 
L 3481 4863 
L 3481 0 
L 2906 0 
L 2906 525 
Q 2725 213 2448 61 
Q 2172 -91 1784 -91 
Q 1150 -91 751 415 
Q 353 922 353 1747 
Q 353 2572 751 3078 
Q 1150 3584 1784 3584 
Q 2172 3584 2448 3432 
Q 2725 3281 2906 2969 
z
M 947 1747 
Q 947 1113 1208 752 
Q 1469 391 1925 391 
Q 2381 391 2643 752 
Q 2906 1113 2906 1747 
Q 2906 2381 2643 2742 
Q 2381 3103 1925 3103 
Q 1469 3103 1208 2742 
Q 947 2381 947 1747 
z
" transform="scale(0.015625)"/>
      <path id="DejaVuSans-6d" d="M 3328 2828 
Q 3544 3216 3844 3400 
Q 4144 3584 4550 3584 
Q 5097 3584 5394 3201 
Q 5691 2819 5691 2113 
L 5691 0 
L 5113 0 
L 5113 2094 
Q 5113 2597 4934 2840 
Q 4756 3084 4391 3084 
Q 3944 3084 3684 2787 
Q 3425 2491 3425 1978 
L 3425 0 
L 2847 0 
L 2847 2094 
Q 2847 2600 2669 2842 
Q 2491 3084 2119 3084 
Q 1678 3084 1418 2786 
Q 1159 2488 1159 1978 
L 1159 0 
L 581 0 
L 581 3500 
L 1159 3500 
L 1159 2956 
Q 1356 3278 1631 3431 
Q 1906 3584 2284 3584 
Q 2666 3584 2933 3390 
Q 3200 3197 3328 2828 
z
" transform="scale(0.015625)"/>
      <path id="DejaVuSans-73" d="M 2834 3397 
L 2834 2853 
Q 2591 2978 2328 3040 
Q 2066 3103 1784 3103 
Q 1356 3103 1142 2972 
Q 928 2841 928 2578 
Q 928 2378 1081 2264 
Q 1234 2150 1697 2047 
L 1894 2003 
Q 2506 1872 2764 1633 
Q 3022 1394 3022 966 
Q 3022 478 2636 193 
Q 2250 -91 1575 -91 
Q 1294 -91 989 -36 
Q 684 19 347 128 
L 347 722 
Q 666 556 975 473 
Q 1284 391 1588 391 
Q 1994 391 2212 530 
Q 2431 669 2431 922 
Q 2431 1156 2273 1281 
Q 2116 1406 1581 1522 
L 1381 1569 
Q 847 1681 609 1914 
Q 372 2147 372 2553 
Q 372 3047 722 3315 
Q 1072 3584 1716 3584 
Q 2034 3584 2315 3537 
Q 2597 3491 2834 3397 
z
" transform="scale(0.015625)"/>
     </defs>
     <use xlink:href="#DejaVuSans-41"/>
     <use xlink:href="#DejaVuSans-55" x="68.408203"/>
     <use xlink:href="#DejaVuSans-50" x="141.601562"/>
     <use xlink:href="#DejaVuSans-52" x="201.904297"/>
     <use xlink:href="#DejaVuSans-43" x="266.386719"/>
     <use xlink:href="#DejaVuSans-5f" x="336.210938"/>
     <use xlink:href="#DejaVuSans-31" x="386.210938"/>
     <use xlink:href="#DejaVuSans-20" x="449.833984"/>
     <use xlink:href="#DejaVuSans-6f" x="481.621094"/>
     <use xlink:href="#DejaVuSans-6e" x="542.802734"/>
     <use xlink:href="#DejaVuSans-20" x="606.181641"/>
     <use xlink:href="#DejaVuSans-67" x="637.96875"/>
     <use xlink:href="#DejaVuSans-65" x="701.445312"/>
     <use xlink:href="#DejaVuSans-6e" x="762.96875"/>
     <use xlink:href="#DejaVuSans-65" x="826.347656"/>
     <use xlink:href="#DejaVuSans-72" x="887.871094"/>
     <use xlink:href="#DejaVuSans-61" x="928.984375"/>
     <use xlink:href="#DejaVuSans-6c" x="990.263672"/>
     <use xlink:href="#DejaVuSans-69" x="1018.046875"/>
     <use xlink:href="#DejaVuSans-7a" x="1045.830078"/>
     <use xlink:href="#DejaVuSans-65" x="1098.320312"/>
     <use xlink:href="#DejaVuSans-64" x="1159.84375"/>
     <use xlink:href="#DejaVuSans-20" x="1223.320312"/>
     <use xlink:href="#DejaVuSans-6d" x="1255.107422"/>
     <use xlink:href="#DejaVuSans-6f" x="1352.519531"/>
     <use xlink:href="#DejaVuSans-64" x="1413.701172"/>
     <use xlink:href="#DejaVuSans-65" x="1477.177734"/>
     <use xlink:href="#DejaVuSans-6c" x="1538.701172"/>
     <use xlink:href="#DejaVuSans-73" x="1566.484375"/>
    </g>
   </g>
   <g id="legend_1">
    <g id="patch_22">
     <path d="M 595.446292 326.5344 
L 888.989104 326.5344 
Q 891.789104 326.5344 891.789104 323.7344 
L 891.789104 97.1444 
Q 891.789104 94.3444 888.989104 94.3444 
L 595.446292 94.3444 
Q 592.646292 94.3444 592.646292 97.1444 
L 592.646292 323.7344 
Q 592.646292 326.5344 595.446292 326.5344 
z
" style="fill: #ffffff; opacity: 0.8; stroke: #cccccc; stroke-linejoin: miter"/>
    </g>
    <g id="text_2">
     <!-- Models -->
     <g transform="translate(717.552542 110.582212) scale(0.14 -0.14)">
      <defs>
       <path id="DejaVuSans-4d" d="M 628 4666 
L 1569 4666 
L 2759 1491 
L 3956 4666 
L 4897 4666 
L 4897 0 
L 4281 0 
L 4281 4097 
L 3078 897 
L 2444 897 
L 1241 4097 
L 1241 0 
L 628 0 
L 628 4666 
z
" transform="scale(0.015625)"/>
      </defs>
      <use xlink:href="#DejaVuSans-4d"/>
      <use xlink:href="#DejaVuSans-6f" x="86.279297"/>
      <use xlink:href="#DejaVuSans-64" x="147.460938"/>
      <use xlink:href="#DejaVuSans-65" x="210.9375"/>
      <use xlink:href="#DejaVuSans-6c" x="272.460938"/>
      <use xlink:href="#DejaVuSans-73" x="300.244141"/>
     </g>
    </g>
    <g id="patch_23">
     <path d="M 598.246292 131.131588 
L 626.246292 131.131588 
L 626.246292 121.331588 
L 598.246292 121.331588 
z
" style="fill: #50a86a; stroke: #ffffff; stroke-linejoin: miter"/>
    </g>
    <g id="text_3">
     <!-- random_forest (96.62%) -->
     <g transform="translate(637.446292 131.131588) scale(0.14 -0.14)">
      <defs>
       <path id="DejaVuSans-66" d="M 2375 4863 
L 2375 4384 
L 1825 4384 
Q 1516 4384 1395 4259 
Q 1275 4134 1275 3809 
L 1275 3500 
L 2222 3500 
L 2222 3053 
L 1275 3053 
L 1275 0 
L 697 0 
L 697 3053 
L 147 3053 
L 147 3500 
L 697 3500 
L 697 3744 
Q 697 4328 969 4595 
Q 1241 4863 1831 4863 
L 2375 4863 
z
" transform="scale(0.015625)"/>
       <path id="DejaVuSans-74" d="M 1172 4494 
L 1172 3500 
L 2356 3500 
L 2356 3053 
L 1172 3053 
L 1172 1153 
Q 1172 725 1289 603 
Q 1406 481 1766 481 
L 2356 481 
L 2356 0 
L 1766 0 
Q 1100 0 847 248 
Q 594 497 594 1153 
L 594 3053 
L 172 3053 
L 172 3500 
L 594 3500 
L 594 4494 
L 1172 4494 
z
" transform="scale(0.015625)"/>
       <path id="DejaVuSans-28" d="M 1984 4856 
Q 1566 4138 1362 3434 
Q 1159 2731 1159 2009 
Q 1159 1288 1364 580 
Q 1569 -128 1984 -844 
L 1484 -844 
Q 1016 -109 783 600 
Q 550 1309 550 2009 
Q 550 2706 781 3412 
Q 1013 4119 1484 4856 
L 1984 4856 
z
" transform="scale(0.015625)"/>
       <path id="DejaVuSans-39" d="M 703 97 
L 703 672 
Q 941 559 1184 500 
Q 1428 441 1663 441 
Q 2288 441 2617 861 
Q 2947 1281 2994 2138 
Q 2813 1869 2534 1725 
Q 2256 1581 1919 1581 
Q 1219 1581 811 2004 
Q 403 2428 403 3163 
Q 403 3881 828 4315 
Q 1253 4750 1959 4750 
Q 2769 4750 3195 4129 
Q 3622 3509 3622 2328 
Q 3622 1225 3098 567 
Q 2575 -91 1691 -91 
Q 1453 -91 1209 -44 
Q 966 3 703 97 
z
M 1959 2075 
Q 2384 2075 2632 2365 
Q 2881 2656 2881 3163 
Q 2881 3666 2632 3958 
Q 2384 4250 1959 4250 
Q 1534 4250 1286 3958 
Q 1038 3666 1038 3163 
Q 1038 2656 1286 2365 
Q 1534 2075 1959 2075 
z
" transform="scale(0.015625)"/>
       <path id="DejaVuSans-36" d="M 2113 2584 
Q 1688 2584 1439 2293 
Q 1191 2003 1191 1497 
Q 1191 994 1439 701 
Q 1688 409 2113 409 
Q 2538 409 2786 701 
Q 3034 994 3034 1497 
Q 3034 2003 2786 2293 
Q 2538 2584 2113 2584 
z
M 3366 4563 
L 3366 3988 
Q 3128 4100 2886 4159 
Q 2644 4219 2406 4219 
Q 1781 4219 1451 3797 
Q 1122 3375 1075 2522 
Q 1259 2794 1537 2939 
Q 1816 3084 2150 3084 
Q 2853 3084 3261 2657 
Q 3669 2231 3669 1497 
Q 3669 778 3244 343 
Q 2819 -91 2113 -91 
Q 1303 -91 875 529 
Q 447 1150 447 2328 
Q 447 3434 972 4092 
Q 1497 4750 2381 4750 
Q 2619 4750 2861 4703 
Q 3103 4656 3366 4563 
z
" transform="scale(0.015625)"/>
       <path id="DejaVuSans-2e" d="M 684 794 
L 1344 794 
L 1344 0 
L 684 0 
L 684 794 
z
" transform="scale(0.015625)"/>
       <path id="DejaVuSans-32" d="M 1228 531 
L 3431 531 
L 3431 0 
L 469 0 
L 469 531 
Q 828 903 1448 1529 
Q 2069 2156 2228 2338 
Q 2531 2678 2651 2914 
Q 2772 3150 2772 3378 
Q 2772 3750 2511 3984 
Q 2250 4219 1831 4219 
Q 1534 4219 1204 4116 
Q 875 4013 500 3803 
L 500 4441 
Q 881 4594 1212 4672 
Q 1544 4750 1819 4750 
Q 2544 4750 2975 4387 
Q 3406 4025 3406 3419 
Q 3406 3131 3298 2873 
Q 3191 2616 2906 2266 
Q 2828 2175 2409 1742 
Q 1991 1309 1228 531 
z
" transform="scale(0.015625)"/>
       <path id="DejaVuSans-25" d="M 4653 2053 
Q 4381 2053 4226 1822 
Q 4072 1591 4072 1178 
Q 4072 772 4226 539 
Q 4381 306 4653 306 
Q 4919 306 5073 539 
Q 5228 772 5228 1178 
Q 5228 1588 5073 1820 
Q 4919 2053 4653 2053 
z
M 4653 2450 
Q 5147 2450 5437 2106 
Q 5728 1763 5728 1178 
Q 5728 594 5436 251 
Q 5144 -91 4653 -91 
Q 4153 -91 3862 251 
Q 3572 594 3572 1178 
Q 3572 1766 3864 2108 
Q 4156 2450 4653 2450 
z
M 1428 4353 
Q 1159 4353 1004 4120 
Q 850 3888 850 3481 
Q 850 3069 1003 2837 
Q 1156 2606 1428 2606 
Q 1700 2606 1854 2837 
Q 2009 3069 2009 3481 
Q 2009 3884 1853 4118 
Q 1697 4353 1428 4353 
z
M 4250 4750 
L 4750 4750 
L 1831 -91 
L 1331 -91 
L 4250 4750 
z
M 1428 4750 
Q 1922 4750 2215 4408 
Q 2509 4066 2509 3481 
Q 2509 2891 2217 2550 
Q 1925 2209 1428 2209 
Q 931 2209 642 2551 
Q 353 2894 353 3481 
Q 353 4063 643 4406 
Q 934 4750 1428 4750 
z
" transform="scale(0.015625)"/>
       <path id="DejaVuSans-29" d="M 513 4856 
L 1013 4856 
Q 1481 4119 1714 3412 
Q 1947 2706 1947 2009 
Q 1947 1309 1714 600 
Q 1481 -109 1013 -844 
L 513 -844 
Q 928 -128 1133 580 
Q 1338 1288 1338 2009 
Q 1338 2731 1133 3434 
Q 928 4138 513 4856 
z
" transform="scale(0.015625)"/>
      </defs>
      <use xlink:href="#DejaVuSans-72"/>
      <use xlink:href="#DejaVuSans-61" x="41.113281"/>
      <use xlink:href="#DejaVuSans-6e" x="102.392578"/>
      <use xlink:href="#DejaVuSans-64" x="165.771484"/>
      <use xlink:href="#DejaVuSans-6f" x="229.248047"/>
      <use xlink:href="#DejaVuSans-6d" x="290.429688"/>
      <use xlink:href="#DejaVuSans-5f" x="387.841797"/>
      <use xlink:href="#DejaVuSans-66" x="437.841797"/>
      <use xlink:href="#DejaVuSans-6f" x="473.046875"/>
      <use xlink:href="#DejaVuSans-72" x="534.228516"/>
      <use xlink:href="#DejaVuSans-65" x="573.091797"/>
      <use xlink:href="#DejaVuSans-73" x="634.615234"/>
      <use xlink:href="#DejaVuSans-74" x="686.714844"/>
      <use xlink:href="#DejaVuSans-20" x="725.923828"/>
      <use xlink:href="#DejaVuSans-28" x="757.710938"/>
      <use xlink:href="#DejaVuSans-39" x="796.724609"/>
      <use xlink:href="#DejaVuSans-36" x="860.347656"/>
      <use xlink:href="#DejaVuSans-2e" x="923.970703"/>
      <use xlink:href="#DejaVuSans-36" x="955.757812"/>
      <use xlink:href="#DejaVuSans-32" x="1019.380859"/>
      <use xlink:href="#DejaVuSans-25" x="1083.003906"/>
      <use xlink:href="#DejaVuSans-29" x="1178.023438"/>
     </g>
    </g>
    <g id="patch_24">
     <path d="M 598.246292 152.070338 
L 626.246292 152.070338 
L 626.246292 142.270338 
L 598.246292 142.270338 
z
" style="fill: #50a86a; stroke: #ffffff; stroke-linejoin: miter"/>
    </g>
    <g id="text_4">
     <!-- xgboost (96.44%) -->
     <g transform="translate(637.446292 152.070338) scale(0.14 -0.14)">
      <defs>
       <path id="DejaVuSans-78" d="M 3513 3500 
L 2247 1797 
L 3578 0 
L 2900 0 
L 1881 1375 
L 863 0 
L 184 0 
L 1544 1831 
L 300 3500 
L 978 3500 
L 1906 2253 
L 2834 3500 
L 3513 3500 
z
" transform="scale(0.015625)"/>
       <path id="DejaVuSans-62" d="M 3116 1747 
Q 3116 2381 2855 2742 
Q 2594 3103 2138 3103 
Q 1681 3103 1420 2742 
Q 1159 2381 1159 1747 
Q 1159 1113 1420 752 
Q 1681 391 2138 391 
Q 2594 391 2855 752 
Q 3116 1113 3116 1747 
z
M 1159 2969 
Q 1341 3281 1617 3432 
Q 1894 3584 2278 3584 
Q 2916 3584 3314 3078 
Q 3713 2572 3713 1747 
Q 3713 922 3314 415 
Q 2916 -91 2278 -91 
Q 1894 -91 1617 61 
Q 1341 213 1159 525 
L 1159 0 
L 581 0 
L 581 4863 
L 1159 4863 
L 1159 2969 
z
" transform="scale(0.015625)"/>
       <path id="DejaVuSans-34" d="M 2419 4116 
L 825 1625 
L 2419 1625 
L 2419 4116 
z
M 2253 4666 
L 3047 4666 
L 3047 1625 
L 3713 1625 
L 3713 1100 
L 3047 1100 
L 3047 0 
L 2419 0 
L 2419 1100 
L 313 1100 
L 313 1709 
L 2253 4666 
z
" transform="scale(0.015625)"/>
      </defs>
      <use xlink:href="#DejaVuSans-78"/>
      <use xlink:href="#DejaVuSans-67" x="59.179688"/>
      <use xlink:href="#DejaVuSans-62" x="122.65625"/>
      <use xlink:href="#DejaVuSans-6f" x="186.132812"/>
      <use xlink:href="#DejaVuSans-6f" x="247.314453"/>
      <use xlink:href="#DejaVuSans-73" x="308.496094"/>
      <use xlink:href="#DejaVuSans-74" x="360.595703"/>
      <use xlink:href="#DejaVuSans-20" x="399.804688"/>
      <use xlink:href="#DejaVuSans-28" x="431.591797"/>
      <use xlink:href="#DejaVuSans-39" x="470.605469"/>
      <use xlink:href="#DejaVuSans-36" x="534.228516"/>
      <use xlink:href="#DejaVuSans-2e" x="597.851562"/>
      <use xlink:href="#DejaVuSans-34" x="629.638672"/>
      <use xlink:href="#DejaVuSans-34" x="693.261719"/>
      <use xlink:href="#DejaVuSans-25" x="756.884766"/>
      <use xlink:href="#DejaVuSans-29" x="851.904297"/>
     </g>
    </g>
    <g id="patch_25">
     <path d="M 598.246292 172.619712 
L 626.246292 172.619712 
L 626.246292 162.819712 
L 598.246292 162.819712 
z
" style="fill: #50a86a; stroke: #ffffff; stroke-linejoin: miter"/>
    </g>
    <g id="text_5">
     <!-- neural_network (96.34%) -->
     <g transform="translate(637.446292 172.619712) scale(0.14 -0.14)">
      <defs>
       <path id="DejaVuSans-75" d="M 544 1381 
L 544 3500 
L 1119 3500 
L 1119 1403 
Q 1119 906 1312 657 
Q 1506 409 1894 409 
Q 2359 409 2629 706 
Q 2900 1003 2900 1516 
L 2900 3500 
L 3475 3500 
L 3475 0 
L 2900 0 
L 2900 538 
Q 2691 219 2414 64 
Q 2138 -91 1772 -91 
Q 1169 -91 856 284 
Q 544 659 544 1381 
z
M 1991 3584 
L 1991 3584 
z
" transform="scale(0.015625)"/>
       <path id="DejaVuSans-77" d="M 269 3500 
L 844 3500 
L 1563 769 
L 2278 3500 
L 2956 3500 
L 3675 769 
L 4391 3500 
L 4966 3500 
L 4050 0 
L 3372 0 
L 2619 2869 
L 1863 0 
L 1184 0 
L 269 3500 
z
" transform="scale(0.015625)"/>
       <path id="DejaVuSans-6b" d="M 581 4863 
L 1159 4863 
L 1159 1991 
L 2875 3500 
L 3609 3500 
L 1753 1863 
L 3688 0 
L 2938 0 
L 1159 1709 
L 1159 0 
L 581 0 
L 581 4863 
z
" transform="scale(0.015625)"/>
       <path id="DejaVuSans-33" d="M 2597 2516 
Q 3050 2419 3304 2112 
Q 3559 1806 3559 1356 
Q 3559 666 3084 287 
Q 2609 -91 1734 -91 
Q 1441 -91 1130 -33 
Q 819 25 488 141 
L 488 750 
Q 750 597 1062 519 
Q 1375 441 1716 441 
Q 2309 441 2620 675 
Q 2931 909 2931 1356 
Q 2931 1769 2642 2001 
Q 2353 2234 1838 2234 
L 1294 2234 
L 1294 2753 
L 1863 2753 
Q 2328 2753 2575 2939 
Q 2822 3125 2822 3475 
Q 2822 3834 2567 4026 
Q 2313 4219 1838 4219 
Q 1578 4219 1281 4162 
Q 984 4106 628 3988 
L 628 4550 
Q 988 4650 1302 4700 
Q 1616 4750 1894 4750 
Q 2613 4750 3031 4423 
Q 3450 4097 3450 3541 
Q 3450 3153 3228 2886 
Q 3006 2619 2597 2516 
z
" transform="scale(0.015625)"/>
      </defs>
      <use xlink:href="#DejaVuSans-6e"/>
      <use xlink:href="#DejaVuSans-65" x="63.378906"/>
      <use xlink:href="#DejaVuSans-75" x="124.902344"/>
      <use xlink:href="#DejaVuSans-72" x="188.28125"/>
      <use xlink:href="#DejaVuSans-61" x="229.394531"/>
      <use xlink:href="#DejaVuSans-6c" x="290.673828"/>
      <use xlink:href="#DejaVuSans-5f" x="318.457031"/>
      <use xlink:href="#DejaVuSans-6e" x="368.457031"/>
      <use xlink:href="#DejaVuSans-65" x="431.835938"/>
      <use xlink:href="#DejaVuSans-74" x="493.359375"/>
      <use xlink:href="#DejaVuSans-77" x="532.568359"/>
      <use xlink:href="#DejaVuSans-6f" x="614.355469"/>
      <use xlink:href="#DejaVuSans-72" x="675.537109"/>
      <use xlink:href="#DejaVuSans-6b" x="716.650391"/>
      <use xlink:href="#DejaVuSans-20" x="774.560547"/>
      <use xlink:href="#DejaVuSans-28" x="806.347656"/>
      <use xlink:href="#DejaVuSans-39" x="845.361328"/>
      <use xlink:href="#DejaVuSans-36" x="908.984375"/>
      <use xlink:href="#DejaVuSans-2e" x="972.607422"/>
      <use xlink:href="#DejaVuSans-33" x="1004.394531"/>
      <use xlink:href="#DejaVuSans-34" x="1068.017578"/>
      <use xlink:href="#DejaVuSans-25" x="1131.640625"/>
      <use xlink:href="#DejaVuSans-29" x="1226.660156"/>
     </g>
    </g>
    <g id="patch_26">
     <path d="M 598.246292 193.558463 
L 626.246292 193.558463 
L 626.246292 183.758463 
L 598.246292 183.758463 
z
" style="fill: #50a86a; stroke: #ffffff; stroke-linejoin: miter"/>
    </g>
    <g id="text_6">
     <!-- logistic_regression (96.09%) -->
     <g transform="translate(637.446292 193.558463) scale(0.14 -0.14)">
      <defs>
       <path id="DejaVuSans-63" d="M 3122 3366 
L 3122 2828 
Q 2878 2963 2633 3030 
Q 2388 3097 2138 3097 
Q 1578 3097 1268 2742 
Q 959 2388 959 1747 
Q 959 1106 1268 751 
Q 1578 397 2138 397 
Q 2388 397 2633 464 
Q 2878 531 3122 666 
L 3122 134 
Q 2881 22 2623 -34 
Q 2366 -91 2075 -91 
Q 1284 -91 818 406 
Q 353 903 353 1747 
Q 353 2603 823 3093 
Q 1294 3584 2113 3584 
Q 2378 3584 2631 3529 
Q 2884 3475 3122 3366 
z
" transform="scale(0.015625)"/>
       <path id="DejaVuSans-30" d="M 2034 4250 
Q 1547 4250 1301 3770 
Q 1056 3291 1056 2328 
Q 1056 1369 1301 889 
Q 1547 409 2034 409 
Q 2525 409 2770 889 
Q 3016 1369 3016 2328 
Q 3016 3291 2770 3770 
Q 2525 4250 2034 4250 
z
M 2034 4750 
Q 2819 4750 3233 4129 
Q 3647 3509 3647 2328 
Q 3647 1150 3233 529 
Q 2819 -91 2034 -91 
Q 1250 -91 836 529 
Q 422 1150 422 2328 
Q 422 3509 836 4129 
Q 1250 4750 2034 4750 
z
" transform="scale(0.015625)"/>
      </defs>
      <use xlink:href="#DejaVuSans-6c"/>
      <use xlink:href="#DejaVuSans-6f" x="27.783203"/>
      <use xlink:href="#DejaVuSans-67" x="88.964844"/>
      <use xlink:href="#DejaVuSans-69" x="152.441406"/>
      <use xlink:href="#DejaVuSans-73" x="180.224609"/>
      <use xlink:href="#DejaVuSans-74" x="232.324219"/>
      <use xlink:href="#DejaVuSans-69" x="271.533203"/>
      <use xlink:href="#DejaVuSans-63" x="299.316406"/>
      <use xlink:href="#DejaVuSans-5f" x="354.296875"/>
      <use xlink:href="#DejaVuSans-72" x="404.296875"/>
      <use xlink:href="#DejaVuSans-65" x="443.160156"/>
      <use xlink:href="#DejaVuSans-67" x="504.683594"/>
      <use xlink:href="#DejaVuSans-72" x="568.160156"/>
      <use xlink:href="#DejaVuSans-65" x="607.023438"/>
      <use xlink:href="#DejaVuSans-73" x="668.546875"/>
      <use xlink:href="#DejaVuSans-73" x="720.646484"/>
      <use xlink:href="#DejaVuSans-69" x="772.746094"/>
      <use xlink:href="#DejaVuSans-6f" x="800.529297"/>
      <use xlink:href="#DejaVuSans-6e" x="861.710938"/>
      <use xlink:href="#DejaVuSans-20" x="925.089844"/>
      <use xlink:href="#DejaVuSans-28" x="956.876953"/>
      <use xlink:href="#DejaVuSans-39" x="995.890625"/>
      <use xlink:href="#DejaVuSans-36" x="1059.513672"/>
      <use xlink:href="#DejaVuSans-2e" x="1123.136719"/>
      <use xlink:href="#DejaVuSans-30" x="1154.923828"/>
      <use xlink:href="#DejaVuSans-39" x="1218.546875"/>
      <use xlink:href="#DejaVuSans-25" x="1282.169922"/>
      <use xlink:href="#DejaVuSans-29" x="1377.189453"/>
     </g>
    </g>
    <g id="patch_27">
     <path d="M 598.246292 214.497213 
L 626.246292 214.497213 
L 626.246292 204.697213 
L 598.246292 204.697213 
z
" style="fill: #50a86a; stroke: #ffffff; stroke-linejoin: miter"/>
    </g>
    <g id="text_7">
     <!-- crf (96.09%) -->
     <g transform="translate(637.446292 214.497213) scale(0.14 -0.14)">
      <use xlink:href="#DejaVuSans-63"/>
      <use xlink:href="#DejaVuSans-72" x="54.980469"/>
      <use xlink:href="#DejaVuSans-66" x="96.09375"/>
      <use xlink:href="#DejaVuSans-20" x="131.298828"/>
      <use xlink:href="#DejaVuSans-28" x="163.085938"/>
      <use xlink:href="#DejaVuSans-39" x="202.099609"/>
      <use xlink:href="#DejaVuSans-36" x="265.722656"/>
      <use xlink:href="#DejaVuSans-2e" x="329.345703"/>
      <use xlink:href="#DejaVuSans-30" x="361.132812"/>
      <use xlink:href="#DejaVuSans-39" x="424.755859"/>
      <use xlink:href="#DejaVuSans-25" x="488.378906"/>
      <use xlink:href="#DejaVuSans-29" x="583.398438"/>
     </g>
    </g>
    <g id="patch_28">
     <path d="M 598.246292 235.046587 
L 626.246292 235.046587 
L 626.246292 225.246587 
L 598.246292 225.246587 
z
" style="fill: #52a96c; stroke: #ffffff; stroke-linejoin: miter"/>
    </g>
    <g id="text_8">
     <!-- svm (95.87%) -->
     <g transform="translate(637.446292 235.046587) scale(0.14 -0.14)">
      <defs>
       <path id="DejaVuSans-76" d="M 191 3500 
L 800 3500 
L 1894 563 
L 2988 3500 
L 3597 3500 
L 2284 0 
L 1503 0 
L 191 3500 
z
" transform="scale(0.015625)"/>
       <path id="DejaVuSans-35" d="M 691 4666 
L 3169 4666 
L 3169 4134 
L 1269 4134 
L 1269 2991 
Q 1406 3038 1543 3061 
Q 1681 3084 1819 3084 
Q 2600 3084 3056 2656 
Q 3513 2228 3513 1497 
Q 3513 744 3044 326 
Q 2575 -91 1722 -91 
Q 1428 -91 1123 -41 
Q 819 9 494 109 
L 494 744 
Q 775 591 1075 516 
Q 1375 441 1709 441 
Q 2250 441 2565 725 
Q 2881 1009 2881 1497 
Q 2881 1984 2565 2268 
Q 2250 2553 1709 2553 
Q 1456 2553 1204 2497 
Q 953 2441 691 2322 
L 691 4666 
z
" transform="scale(0.015625)"/>
       <path id="DejaVuSans-38" d="M 2034 2216 
Q 1584 2216 1326 1975 
Q 1069 1734 1069 1313 
Q 1069 891 1326 650 
Q 1584 409 2034 409 
Q 2484 409 2743 651 
Q 3003 894 3003 1313 
Q 3003 1734 2745 1975 
Q 2488 2216 2034 2216 
z
M 1403 2484 
Q 997 2584 770 2862 
Q 544 3141 544 3541 
Q 544 4100 942 4425 
Q 1341 4750 2034 4750 
Q 2731 4750 3128 4425 
Q 3525 4100 3525 3541 
Q 3525 3141 3298 2862 
Q 3072 2584 2669 2484 
Q 3125 2378 3379 2068 
Q 3634 1759 3634 1313 
Q 3634 634 3220 271 
Q 2806 -91 2034 -91 
Q 1263 -91 848 271 
Q 434 634 434 1313 
Q 434 1759 690 2068 
Q 947 2378 1403 2484 
z
M 1172 3481 
Q 1172 3119 1398 2916 
Q 1625 2713 2034 2713 
Q 2441 2713 2670 2916 
Q 2900 3119 2900 3481 
Q 2900 3844 2670 4047 
Q 2441 4250 2034 4250 
Q 1625 4250 1398 4047 
Q 1172 3844 1172 3481 
z
" transform="scale(0.015625)"/>
       <path id="DejaVuSans-37" d="M 525 4666 
L 3525 4666 
L 3525 4397 
L 1831 0 
L 1172 0 
L 2766 4134 
L 525 4134 
L 525 4666 
z
" transform="scale(0.015625)"/>
      </defs>
      <use xlink:href="#DejaVuSans-73"/>
      <use xlink:href="#DejaVuSans-76" x="52.099609"/>
      <use xlink:href="#DejaVuSans-6d" x="111.279297"/>
      <use xlink:href="#DejaVuSans-20" x="208.691406"/>
      <use xlink:href="#DejaVuSans-28" x="240.478516"/>
      <use xlink:href="#DejaVuSans-39" x="279.492188"/>
      <use xlink:href="#DejaVuSans-35" x="343.115234"/>
      <use xlink:href="#DejaVuSans-2e" x="406.738281"/>
      <use xlink:href="#DejaVuSans-38" x="438.525391"/>
      <use xlink:href="#DejaVuSans-37" x="502.148438"/>
      <use xlink:href="#DejaVuSans-25" x="565.771484"/>
      <use xlink:href="#DejaVuSans-29" x="660.791016"/>
     </g>
    </g>
    <g id="patch_29">
     <path d="M 598.246292 255.595963 
L 626.246292 255.595963 
L 626.246292 245.795963 
L 598.246292 245.795963 
z
" style="fill: #52a96c; stroke: #ffffff; stroke-linejoin: miter"/>
    </g>
    <g id="text_9">
     <!-- recurrent_neural_network (95.36%) -->
     <g transform="translate(637.446292 255.595963) scale(0.14 -0.14)">
      <use xlink:href="#DejaVuSans-72"/>
      <use xlink:href="#DejaVuSans-65" x="38.863281"/>
      <use xlink:href="#DejaVuSans-63" x="100.386719"/>
      <use xlink:href="#DejaVuSans-75" x="155.367188"/>
      <use xlink:href="#DejaVuSans-72" x="218.746094"/>
      <use xlink:href="#DejaVuSans-72" x="258.109375"/>
      <use xlink:href="#DejaVuSans-65" x="296.972656"/>
      <use xlink:href="#DejaVuSans-6e" x="358.496094"/>
      <use xlink:href="#DejaVuSans-74" x="421.875"/>
      <use xlink:href="#DejaVuSans-5f" x="461.083984"/>
      <use xlink:href="#DejaVuSans-6e" x="511.083984"/>
      <use xlink:href="#DejaVuSans-65" x="574.462891"/>
      <use xlink:href="#DejaVuSans-75" x="635.986328"/>
      <use xlink:href="#DejaVuSans-72" x="699.365234"/>
      <use xlink:href="#DejaVuSans-61" x="740.478516"/>
      <use xlink:href="#DejaVuSans-6c" x="801.757812"/>
      <use xlink:href="#DejaVuSans-5f" x="829.541016"/>
      <use xlink:href="#DejaVuSans-6e" x="879.541016"/>
      <use xlink:href="#DejaVuSans-65" x="942.919922"/>
      <use xlink:href="#DejaVuSans-74" x="1004.443359"/>
      <use xlink:href="#DejaVuSans-77" x="1043.652344"/>
      <use xlink:href="#DejaVuSans-6f" x="1125.439453"/>
      <use xlink:href="#DejaVuSans-72" x="1186.621094"/>
      <use xlink:href="#DejaVuSans-6b" x="1227.734375"/>
      <use xlink:href="#DejaVuSans-20" x="1285.644531"/>
      <use xlink:href="#DejaVuSans-28" x="1317.431641"/>
      <use xlink:href="#DejaVuSans-39" x="1356.445312"/>
      <use xlink:href="#DejaVuSans-35" x="1420.068359"/>
      <use xlink:href="#DejaVuSans-2e" x="1483.691406"/>
      <use xlink:href="#DejaVuSans-33" x="1515.478516"/>
      <use xlink:href="#DejaVuSans-36" x="1579.101562"/>
      <use xlink:href="#DejaVuSans-25" x="1642.724609"/>
      <use xlink:href="#DejaVuSans-29" x="1737.744141"/>
     </g>
    </g>
    <g id="patch_30">
     <path d="M 598.246292 276.534713 
L 626.246292 276.534713 
L 626.246292 266.734713 
L 598.246292 266.734713 
z
" style="fill: #56aa6f; stroke: #ffffff; stroke-linejoin: miter"/>
    </g>
    <g id="text_10">
     <!-- naive_bayes (93.92%) -->
     <g transform="translate(637.446292 276.534713) scale(0.14 -0.14)">
      <defs>
       <path id="DejaVuSans-79" d="M 2059 -325 
Q 1816 -950 1584 -1140 
Q 1353 -1331 966 -1331 
L 506 -1331 
L 506 -850 
L 844 -850 
Q 1081 -850 1212 -737 
Q 1344 -625 1503 -206 
L 1606 56 
L 191 3500 
L 800 3500 
L 1894 763 
L 2988 3500 
L 3597 3500 
L 2059 -325 
z
" transform="scale(0.015625)"/>
      </defs>
      <use xlink:href="#DejaVuSans-6e"/>
      <use xlink:href="#DejaVuSans-61" x="63.378906"/>
      <use xlink:href="#DejaVuSans-69" x="124.658203"/>
      <use xlink:href="#DejaVuSans-76" x="152.441406"/>
      <use xlink:href="#DejaVuSans-65" x="211.621094"/>
      <use xlink:href="#DejaVuSans-5f" x="273.144531"/>
      <use xlink:href="#DejaVuSans-62" x="323.144531"/>
      <use xlink:href="#DejaVuSans-61" x="386.621094"/>
      <use xlink:href="#DejaVuSans-79" x="447.900391"/>
      <use xlink:href="#DejaVuSans-65" x="507.080078"/>
      <use xlink:href="#DejaVuSans-73" x="568.603516"/>
      <use xlink:href="#DejaVuSans-20" x="620.703125"/>
      <use xlink:href="#DejaVuSans-28" x="652.490234"/>
      <use xlink:href="#DejaVuSans-39" x="691.503906"/>
      <use xlink:href="#DejaVuSans-33" x="755.126953"/>
      <use xlink:href="#DejaVuSans-2e" x="818.75"/>
      <use xlink:href="#DejaVuSans-39" x="850.537109"/>
      <use xlink:href="#DejaVuSans-32" x="914.160156"/>
      <use xlink:href="#DejaVuSans-25" x="977.783203"/>
      <use xlink:href="#DejaVuSans-29" x="1072.802734"/>
     </g>
    </g>
    <g id="patch_31">
     <path d="M 598.246292 297.473462 
L 626.246292 297.473462 
L 626.246292 287.673462 
L 598.246292 287.673462 
z
" style="fill: #56aa6f; stroke: #ffffff; stroke-linejoin: miter"/>
    </g>
    <g id="text_11">
     <!-- hmm (93.03%) -->
     <g transform="translate(637.446292 297.473462) scale(0.14 -0.14)">
      <defs>
       <path id="DejaVuSans-68" d="M 3513 2113 
L 3513 0 
L 2938 0 
L 2938 2094 
Q 2938 2591 2744 2837 
Q 2550 3084 2163 3084 
Q 1697 3084 1428 2787 
Q 1159 2491 1159 1978 
L 1159 0 
L 581 0 
L 581 4863 
L 1159 4863 
L 1159 2956 
Q 1366 3272 1645 3428 
Q 1925 3584 2291 3584 
Q 2894 3584 3203 3211 
Q 3513 2838 3513 2113 
z
" transform="scale(0.015625)"/>
      </defs>
      <use xlink:href="#DejaVuSans-68"/>
      <use xlink:href="#DejaVuSans-6d" x="63.378906"/>
      <use xlink:href="#DejaVuSans-6d" x="160.791016"/>
      <use xlink:href="#DejaVuSans-20" x="258.203125"/>
      <use xlink:href="#DejaVuSans-28" x="289.990234"/>
      <use xlink:href="#DejaVuSans-39" x="329.003906"/>
      <use xlink:href="#DejaVuSans-33" x="392.626953"/>
      <use xlink:href="#DejaVuSans-2e" x="456.25"/>
      <use xlink:href="#DejaVuSans-30" x="488.037109"/>
      <use xlink:href="#DejaVuSans-33" x="551.660156"/>
      <use xlink:href="#DejaVuSans-25" x="615.283203"/>
      <use xlink:href="#DejaVuSans-29" x="710.302734"/>
     </g>
    </g>
    <g id="patch_32">
     <path d="M 598.246292 318.022838 
L 626.246292 318.022838 
L 626.246292 308.222838 
L 598.246292 308.222838 
z
" style="fill: #59ac72; stroke: #ffffff; stroke-linejoin: miter"/>
    </g>
    <g id="text_12">
     <!-- knn (91.93%) -->
     <g transform="translate(637.446292 318.022838) scale(0.14 -0.14)">
      <use xlink:href="#DejaVuSans-6b"/>
      <use xlink:href="#DejaVuSans-6e" x="57.910156"/>
      <use xlink:href="#DejaVuSans-6e" x="121.289062"/>
      <use xlink:href="#DejaVuSans-20" x="184.667969"/>
      <use xlink:href="#DejaVuSans-28" x="216.455078"/>
      <use xlink:href="#DejaVuSans-39" x="255.46875"/>
      <use xlink:href="#DejaVuSans-31" x="319.091797"/>
      <use xlink:href="#DejaVuSans-2e" x="382.714844"/>
      <use xlink:href="#DejaVuSans-39" x="414.501953"/>
      <use xlink:href="#DejaVuSans-33" x="478.125"/>
      <use xlink:href="#DejaVuSans-25" x="541.748047"/>
      <use xlink:href="#DejaVuSans-29" x="636.767578"/>
     </g>
    </g>
   </g>
  </g>
 </g>
</svg>
