<?xml version="1.0" encoding="utf-8" standalone="no"?>
<!DOCTYPE svg PUBLIC "-//W3C//DTD SVG 1.1//EN"
  "http://www.w3.org/Graphics/SVG/1.1/DTD/svg11.dtd">
<svg xmlns:xlink="http://www.w3.org/1999/xlink" width="898.989208pt" height="653.06877pt" viewBox="0 0 898.989208 653.06877" xmlns="http://www.w3.org/2000/svg" version="1.1">
 <metadata>
  <rdf:RDF xmlns:dc="http://purl.org/dc/elements/1.1/" xmlns:cc="http://creativecommons.org/ns#" xmlns:rdf="http://www.w3.org/1999/02/22-rdf-syntax-ns#">
   <cc:Work>
    <dc:type rdf:resource="http://purl.org/dc/dcmitype/StillImage"/>
    <dc:date>2023-06-21T15:52:15.893931</dc:date>
    <dc:format>image/svg+xml</dc:format>
    <dc:creator>
     <cc:Agent>
      <dc:title>Matplotlib v3.7.0, https://matplotlib.org/</dc:title>
     </cc:Agent>
    </dc:creator>
   </cc:Work>
  </rdf:RDF>
 </metadata>
 <defs>
  <style type="text/css">*{stroke-linejoin: round; stroke-linecap: butt}</style>
 </defs>
 <g id="figure_1">
  <g id="patch_1">
   <path d="M 0 653.06877 
L 898.989208 653.06877 
L 898.989208 0 
L 0 0 
z
" style="fill: #ffffff"/>
  </g>
  <g id="axes_1">
   <g id="patch_2">
    <path d="M 326.534395 7.2 
C 283.679604 7.2 241.260058 15.826692 201.80924 32.564853 
C 162.358422 49.303013 126.677677 73.812647 96.898018 104.629931 
C 67.118359 135.447215 43.844686 171.946172 28.467005 211.946922 
C 13.089325 251.947672 5.919996 294.637699 7.387204 337.467366 
C 8.854412 380.297034 18.928354 422.396361 37.007369 461.250992 
C 55.086384 500.105622 80.803241 534.926319 112.622017 563.633437 
C 144.440792 592.340555 181.715166 614.350979 222.218947 628.350149 
C 262.722729 642.349319 305.633183 648.052878 348.387509 645.120182 
L 346.7065 620.613583 
C 307.240969 623.320687 267.631318 618.055864 230.243212 605.133553 
C 192.855107 592.211242 158.447992 571.893927 129.076815 545.39505 
C 99.705637 518.896172 75.967 486.75399 59.278679 450.888177 
C 42.590357 415.022364 33.291334 376.161446 31.936988 336.626369 
C 30.582642 297.091292 37.200484 257.685113 51.395266 220.761343 
C 65.590048 183.837574 87.073439 150.146229 114.562355 121.699506 
C 142.051271 93.252782 174.987343 70.628504 211.403483 55.177895 
C 247.819623 39.727285 286.976127 31.764185 326.534395 31.764185 
z
" style="fill: #f4f5f5; stroke: #ffffff; stroke-linejoin: miter"/>
   </g>
   <g id="patch_3">
    <path d="M 348.387509 645.120182 
C 430.964159 639.455909 508.187883 601.902257 563.633442 540.446767 
C 619.079001 478.991278 648.51539 398.323569 645.681585 315.601404 
C 642.847779 232.879238 607.960023 154.415075 548.438832 96.897992 
C 488.91764 39.380908 409.305025 7.199985 326.534335 7.2 
L 326.53434 31.764185 
C 402.938054 31.76417 476.426621 61.469638 531.36926 114.562331 
C 586.311898 167.655023 618.51598 240.083481 621.131801 316.442403 
C 623.747621 392.801326 596.57557 467.263826 545.395054 523.99197 
C 494.214538 580.720114 422.931101 615.385023 346.7065 620.613583 
z
" style="fill: #a8d3b5; stroke: #ffffff; stroke-linejoin: miter"/>
   </g>
   <g id="patch_4">
    <path d="M 326.534395 31.764185 
C 286.212148 31.764185 246.315438 40.037834 209.318318 56.072071 
C 172.321199 72.106309 139.004561 95.562703 111.434419 124.986688 
C 83.864278 154.410672 62.622549 189.181202 49.026465 227.142104 
C 35.43038 265.103006 29.76691 305.453048 32.387254 345.690064 
C 35.007598 385.927079 45.85645 425.201793 64.261055 461.078723 
C 82.66566 496.955654 108.237557 528.677552 139.390994 554.277298 
C 170.544431 579.877043 206.62186 598.814306 245.386064 609.91476 
C 284.150268 621.015213 324.783061 624.044562 364.764741 618.814951 
L 361.578879 594.458238 
C 324.929005 599.252048 287.682279 596.475145 252.148425 586.29973 
C 216.614571 576.124314 183.543595 558.765156 154.986278 535.298723 
C 126.42896 511.83229 102.988055 482.753882 86.117167 449.866697 
C 69.246279 416.979511 59.301498 380.977689 56.899516 344.093758 
C 54.497534 307.209828 59.689048 270.222289 72.152126 235.424796 
C 84.615203 200.627302 104.086787 168.754316 129.359417 141.78233 
C 154.632047 114.810344 185.172299 93.30865 219.086325 78.610599 
C 253.000351 63.912548 289.572335 56.328369 326.534395 56.328369 
z
" style="fill: #f4f5f5; stroke: #ffffff; stroke-linejoin: miter"/>
   </g>
   <g id="patch_5">
    <path d="M 364.764741 618.814951 
C 438.970405 609.108837 506.764368 571.498328 554.277284 513.677811 
C 601.790199 455.857295 625.544867 382.058328 620.681538 307.378764 
C 615.818208 232.6992 582.6928 162.604413 528.082138 111.434453 
C 473.471475 60.264493 401.372203 31.764199 326.53445 31.764185 
L 326.534446 56.328369 
C 395.135719 56.328382 461.226719 82.453652 511.286492 129.359448 
C 561.346266 176.265245 591.711223 240.5188 596.169276 308.975067 
C 600.627328 377.431334 578.852216 445.080387 535.29871 498.082527 
C 491.745204 551.084667 429.600738 585.560968 361.578879 594.458238 
z
" style="fill: #a9d4b6; stroke: #ffffff; stroke-linejoin: miter"/>
   </g>
   <g id="patch_6">
    <path d="M 326.534395 56.328369 
C 286.131064 56.328369 246.237482 65.390505 209.799226 82.845665 
C 173.36097 100.300826 141.297487 125.708565 115.976211 157.192881 
C 90.654935 188.677196 72.714799 225.443645 63.480428 264.777542 
C 54.246057 304.11144 53.950462 345.020276 62.615468 384.483509 
C 71.280475 423.946743 88.687439 460.968598 113.551102 492.815535 
C 138.414765 524.662472 170.107742 550.530897 206.289955 568.510791 
C 242.472168 586.490685 282.230631 596.128363 322.629743 596.712217 
C 363.028855 597.296071 403.049226 588.81137 439.735915 571.884588 
L 429.444868 549.580026 
C 396.093332 564.968009 359.711177 572.681374 322.984712 572.150597 
C 286.258246 571.619821 250.114189 562.858296 217.221268 546.512937 
C 184.328347 530.167579 155.51655 506.650829 132.91322 477.699069 
C 110.30989 448.747308 94.485377 415.091075 86.608098 379.215408 
C 78.73082 343.339742 78.999542 306.149891 87.394425 270.391802 
C 95.789308 234.633713 112.098522 201.209669 135.117864 172.587564 
C 158.137206 143.965459 187.285827 120.867514 220.411514 104.999187 
C 253.537202 89.130859 289.804094 80.892554 326.534395 80.892554 
z
" style="fill: #f4f5f5; stroke: #ffffff; stroke-linejoin: miter"/>
   </g>
   <g id="patch_7">
    <path d="M 439.735915 571.884588 
C 495.653865 546.084743 541.105792 501.927855 568.510792 446.778828 
C 595.915792 391.629802 603.660548 328.73523 590.453316 268.585266 
C 577.246085 208.435302 543.864367 154.570941 495.875885 115.976192 
C 447.887402 77.381443 388.117208 56.328358 326.534344 56.328369 
L 326.534349 80.892554 
C 382.518771 80.892543 436.85531 100.031712 480.481204 135.117847 
C 524.107097 170.203983 554.454113 219.171584 566.460687 273.853369 
C 578.467261 328.535154 571.426574 385.712038 546.512937 435.847517 
C 521.599301 485.982995 480.279368 526.125621 429.444868 549.580026 
z
" style="fill: #b1d8bc; stroke: #ffffff; stroke-linejoin: miter"/>
   </g>
   <g id="patch_8">
    <path d="M 326.534395 80.892554 
C 288.664329 80.892554 251.302264 89.650072 217.376753 106.478667 
C 183.451242 123.307262 153.87246 147.755445 130.958883 177.906894 
C 108.045305 208.058343 92.411672 243.104135 85.283396 280.297274 
C 78.155119 317.490413 79.723441 355.833057 89.865431 392.319793 
C 100.007421 428.80653 118.450984 462.458469 143.750457 490.637869 
C 169.04993 518.817269 200.526562 540.768114 235.713119 554.769832 
C 270.899676 568.771549 308.852151 574.448491 346.595713 571.355682 
C 384.339274 568.262873 420.861314 556.483288 453.299123 536.940247 
L 440.62265 515.899662 
C 411.428622 533.488399 378.558786 544.090025 344.589581 546.873554 
C 310.620375 549.657082 276.463148 544.547834 244.795247 531.946289 
C 213.127345 519.344743 184.798376 499.588982 162.028851 474.227522 
C 139.259325 448.866062 122.660118 418.579317 113.532327 385.741254 
C 104.404536 352.903191 102.993047 318.394811 109.408496 284.920986 
C 115.823945 251.447161 129.894214 219.905949 150.516434 192.769645 
C 171.138654 165.63334 197.759557 143.629975 228.292517 128.48424 
C 258.825477 113.338505 292.451336 105.456738 326.534395 105.456738 
z
" style="fill: #f4f5f5; stroke: #ffffff; stroke-linejoin: miter"/>
   </g>
   <g id="patch_9">
    <path d="M 453.299123 536.940247 
C 499.272788 509.242161 534.925383 467.225105 554.769827 417.355676 
C 574.614271 367.486247 577.577464 312.461162 563.203359 260.749007 
C 548.829255 209.036852 517.895139 163.433989 475.161901 130.958888 
C 432.428663 98.483786 380.207124 80.892554 326.534395 80.892554 
L 326.534395 105.456738 
C 374.839851 105.456738 421.839236 121.288848 460.299151 150.516439 
C 498.759065 179.74403 526.599769 220.786607 539.536463 267.327546 
C 552.473157 313.868486 549.806283 363.391063 531.946284 408.273548 
C 514.086285 453.156034 481.998949 490.971385 440.62265 515.899662 
z
" style="fill: #b4dabf; stroke: #ffffff; stroke-linejoin: miter"/>
   </g>
   <g id="patch_10">
    <path d="M 326.534395 105.456738 
C 291.48931 105.456738 256.94134 113.789724 225.749749 129.76604 
C 194.558159 145.742355 167.607854 168.908752 147.1293 197.347929 
C 126.650746 225.787107 113.22492 258.692244 107.962972 293.340042 
C 102.701024 327.98784 105.752236 363.395339 116.864084 396.632138 
C 127.975931 429.868938 146.833169 459.992108 171.875134 484.508592 
C 196.917099 509.025076 227.433348 527.23934 260.898292 537.643932 
C 294.363236 548.048524 329.827472 550.348265 364.355905 544.352824 
C 398.884338 538.357383 431.497394 524.236851 459.495948 503.159873 
L 444.722442 483.534821 
C 419.834839 502.269912 390.845455 514.821496 360.153515 520.150777 
C 329.461575 525.480058 297.937809 523.435843 268.191192 514.187317 
C 238.444576 504.938791 211.319021 488.748335 189.059497 466.955904 
C 166.799972 445.163474 150.037982 418.387322 140.160785 388.843501 
C 130.283587 359.299679 127.571399 327.826346 132.248686 297.028304 
C 136.925972 266.230261 148.86004 236.98125 167.063199 211.701982 
C 185.266358 186.422713 209.222185 165.83036 236.948043 151.629191 
C 264.673902 137.428021 295.383208 130.020923 326.534395 130.020923 
z
" style="fill: #f4f5f5; stroke: #ffffff; stroke-linejoin: miter"/>
   </g>
   <g id="patch_11">
    <path d="M 459.495948 503.159873 
C 496.534066 475.278019 523.880127 436.43988 537.643927 392.170503 
C 551.407727 347.901125 550.904106 300.404237 536.204707 256.436662 
C 521.505308 212.469087 493.341867 174.219529 455.720866 147.129305 
C 418.099865 120.03908 372.894076 105.456738 326.534395 105.456738 
L 326.534395 130.020923 
C 367.743 130.020923 407.925924 142.983004 441.366813 167.063204 
C 474.807703 191.143404 499.841873 225.143011 512.908005 264.225299 
C 525.974138 303.307588 526.421801 345.527045 514.187312 384.877603 
C 501.952823 424.22816 477.645214 458.750951 444.722442 483.534821 
z
" style="fill: #b8dcc3; stroke: #ffffff; stroke-linejoin: miter"/>
   </g>
   <g id="patch_12">
    <path d="M 326.534395 130.020923 
C 295.044109 130.020923 264.010326 137.590161 236.056307 152.088815 
C 208.102289 166.587469 184.038513 187.595175 165.899072 213.336169 
C 147.75963 239.077164 136.070445 268.80513 131.819594 300.007188 
C 127.568743 331.209245 130.879472 362.980743 141.471928 392.636063 
C 152.064384 422.291384 169.631456 448.97072 192.688215 470.41889 
C 215.744973 491.867061 243.622927 507.462212 273.965574 515.886098 
C 304.308222 524.309985 336.23583 525.31837 367.049585 518.826017 
C 397.86334 512.333664 426.669848 498.528806 451.03412 478.578358 
L 435.471654 459.572863 
C 414.152917 477.029505 388.947222 489.108756 361.985186 494.789565 
C 335.023151 500.470374 307.086494 499.588037 280.536677 492.217136 
C 253.98686 484.846235 229.593651 471.200478 209.418987 452.433329 
C 189.244323 433.66618 173.873135 410.321761 164.604736 384.373356 
C 155.336338 358.42495 152.43945 330.62489 156.158944 303.323089 
C 159.878439 276.021289 170.106476 250.009318 185.978487 227.485948 
C 201.850498 204.962578 222.906302 186.580835 247.366068 173.894513 
C 271.825835 161.208191 298.980394 154.585108 326.534395 154.585108 
z
" style="fill: #f4f5f5; stroke: #ffffff; stroke-linejoin: miter"/>
   </g>
   <g id="patch_13">
    <path d="M 451.03412 478.578358 
C 482.387859 452.904652 505.04562 418.150365 515.886096 379.103212 
C 526.726571 340.056058 525.228011 298.595367 511.596856 260.432719 
C 497.9657 222.270071 472.858013 189.242225 439.732603 165.899061 
C 406.607193 142.555897 367.058377 130.020915 326.534358 130.020923 
L 326.534363 154.585108 
C 361.992879 154.585101 396.598093 165.553209 425.582827 185.978478 
C 454.567561 206.403747 476.536787 235.303112 488.464048 268.695429 
C 500.391309 302.087746 501.702549 338.365851 492.217133 372.53211 
C 482.731717 406.69837 462.906176 437.10837 435.471654 459.572863 
z
" style="fill: #b8dcc3; stroke: #ffffff; stroke-linejoin: miter"/>
   </g>
   <g id="patch_14">
    <path d="M 326.534395 154.585108 
C 298.277064 154.585108 270.45063 161.550621 245.525705 174.863205 
C 220.600781 188.175789 199.337528 207.429434 183.623836 230.914678 
C 167.910144 254.399921 158.225252 281.400507 155.429046 309.519149 
C 152.632841 337.63779 156.810601 366.016922 167.591398 392.13686 
C 178.372195 418.256798 195.427235 441.320935 217.242262 459.281486 
C 239.057288 477.242036 264.966984 489.551239 292.670918 495.116202 
C 320.374851 500.681165 349.028106 499.332169 376.08666 491.188985 
C 403.145213 483.0458 427.783831 468.356781 447.814937 448.426112 
L 430.489145 431.01301 
C 413.319626 448.096441 392.20081 460.687029 369.007765 467.666901 
C 345.814719 474.646773 321.254786 475.803056 297.508557 471.033088 
C 273.762328 466.263119 251.554018 455.712374 232.855424 440.317616 
C 214.15683 424.922858 199.538224 405.153599 190.29754 382.76508 
C 181.056857 360.376562 177.47592 336.051592 179.872668 311.949899 
C 182.269415 287.848206 190.570752 264.704847 204.03963 244.574638 
C 217.508509 224.44443 235.734154 207.941305 257.098375 196.530519 
C 278.462597 185.119733 302.313826 179.149292 326.534395 179.149292 
z
" style="fill: #f4f5f5; stroke: #ffffff; stroke-linejoin: miter"/>
   </g>
   <g id="patch_15">
    <path d="M 447.814937 448.426112 
C 471.94603 424.416012 488.412191 393.772282 495.116197 360.397877 
C 501.820203 327.023473 498.464814 292.398135 485.477392 260.93194 
C 472.48997 229.465745 450.446345 202.553828 422.154117 183.623841 
C 393.861889 164.693854 360.575467 154.585108 326.534395 154.585108 
L 326.534395 179.149292 
C 355.712456 179.149292 384.243676 187.813932 408.494157 204.039635 
C 432.744638 220.265338 451.639174 243.332696 462.77125 270.30372 
C 473.903326 297.274744 476.779373 326.953605 471.033083 355.560238 
C 465.286792 384.16687 451.17294 410.432925 430.489145 431.01301 
z
" style="fill: #bcddc6; stroke: #ffffff; stroke-linejoin: miter"/>
   </g>
   <g id="patch_16">
    <path d="M 326.534395 179.149292 
C 300.902851 179.149292 275.70923 185.835613 253.45085 198.545473 
C 231.192469 211.255334 212.629912 229.554429 199.603192 251.628862 
C 186.576471 273.703296 179.530719 298.798769 179.164345 324.427694 
C 178.79797 350.05662 185.123493 375.34324 197.513896 397.78102 
C 209.904299 420.2188 227.936194 439.041025 249.82217 452.381944 
C 271.708146 465.722864 296.700344 473.126608 322.321414 473.859282 
C 347.942484 474.591955 373.316937 468.628523 395.929532 456.560109 
C 418.542127 444.491694 437.620175 426.730685 451.272567 405.037638 
L 430.482872 391.953765 
C 419.105878 410.031304 403.207505 424.832145 384.363676 434.889157 
C 365.519847 444.946169 344.37447 449.915696 323.023578 449.305135 
C 301.672686 448.694573 280.845854 442.524786 262.607541 431.407354 
C 244.369227 420.289921 229.342649 404.604733 219.017313 385.906583 
C 208.691977 367.208433 203.420708 346.13625 203.72602 324.778812 
C 204.031332 303.421374 209.902792 282.50848 220.758392 264.113118 
C 231.613993 245.717757 247.08279 230.468511 265.631441 219.876961 
C 284.180091 209.285411 305.174775 203.713477 326.534395 203.713477 
z
" style="fill: #f4f5f5; stroke: #ffffff; stroke-linejoin: miter"/>
   </g>
   <g id="patch_17">
    <path d="M 451.272567 405.037638 
C 465.305407 382.740076 473.106183 357.082443 473.859276 330.747395 
C 474.61237 304.412347 468.290587 278.350856 455.554907 255.287804 
C 442.819227 232.224752 424.129542 212.992958 401.439969 199.603218 
C 378.750395 186.213478 352.880264 179.149302 326.53445 179.149292 
L 326.534441 203.713477 
C 348.489286 203.713485 370.047728 209.600298 388.955706 220.758415 
C 407.863684 231.916532 423.438422 247.943027 434.051489 267.162237 
C 444.664555 286.381447 449.932707 308.099356 449.305129 330.045229 
C 448.677551 351.991102 442.176905 373.372463 430.482872 391.953765 
z
" style="fill: #c3e1cc; stroke: #ffffff; stroke-linejoin: miter"/>
   </g>
   <g id="patch_18">
    <path d="M 326.534395 203.713477 
C 303.52512 203.713477 280.972351 210.179314 261.458314 222.370669 
C 241.944278 234.562024 226.243295 251.995141 216.153082 272.673979 
C 206.06287 293.352817 201.983809 316.456837 204.38294 339.340694 
C 206.782071 362.224551 215.564197 383.98021 229.72379 402.116712 
C 243.883382 420.253213 262.858586 434.050897 284.476795 441.929969 
C 306.095004 449.809041 329.498405 451.456858 352.007374 446.684749 
C 374.516344 441.912641 395.237724 430.909965 411.798975 414.936496 
C 428.360226 398.963027 440.104195 378.652596 445.686233 356.330687 
L 421.855865 350.37143 
C 417.390235 368.228956 407.99506 384.477302 394.746059 397.256077 
C 381.497058 410.034852 364.919954 418.836993 346.912778 422.65468 
C 328.905603 426.472366 310.182882 425.154113 292.888315 418.850855 
C 275.593748 412.547598 260.413585 401.50945 249.085911 387.000249 
C 237.758237 372.491048 230.732536 355.08652 228.813231 336.779435 
C 226.893926 318.472349 230.157175 299.989134 238.229345 283.446063 
C 246.301515 266.902993 258.862302 252.956499 274.473531 243.203415 
C 290.084759 233.450331 308.126975 228.277662 326.534395 228.277662 
z
" style="fill: #f4f5f5; stroke: #ffffff; stroke-linejoin: miter"/>
   </g>
   <g id="patch_19">
    <path d="M 445.686233 356.330687 
C 450.214276 338.223574 450.55579 319.32028 446.684746 301.061426 
C 442.813702 282.802573 434.831001 265.664088 423.345008 250.952097 
C 411.859014 236.240107 397.169115 224.338088 380.394831 216.153095 
C 363.620548 207.968101 345.19911 203.71348 326.534418 203.713477 
L 326.534413 228.277662 
C 341.466167 228.277664 356.203317 231.681361 369.622744 238.229356 
C 383.042171 244.77735 394.79409 254.298966 403.982885 266.068558 
C 413.17168 277.83815 419.55784 291.548938 422.654676 306.156021 
C 425.751511 320.763104 425.4783 335.88574 421.855865 350.37143 
z
" style="fill: #cce6d4; stroke: #ffffff; stroke-linejoin: miter"/>
   </g>
   <g id="patch_20">
    <path d="M 326.534395 228.277662 
C 316.317032 228.277662 306.161909 229.871362 296.435731 233.001213 
C 286.709553 236.131064 277.530816 240.758935 269.230967 246.717712 
C 260.931118 252.676488 253.611276 259.893573 247.535763 268.108355 
C 241.460249 276.323138 236.703084 285.435534 233.43605 295.116495 
C 230.169015 304.797456 228.431915 314.929034 228.287475 325.145376 
C 228.143036 335.361719 229.593017 345.538356 232.58506 355.307808 
C 235.577102 365.07726 240.074754 374.320502 245.915602 382.703759 
C 251.756451 391.087016 258.869336 398.508152 266.99741 404.699188 
C 275.125484 410.890224 284.16972 415.775733 293.803528 419.179297 
C 303.437337 422.582862 313.543345 424.463016 323.756625 424.751866 
C 333.969905 425.040716 344.166023 423.734744 353.976796 420.881108 
C 363.78757 418.027472 373.09347 413.660939 381.55846 407.939185 
C 390.023449 402.217431 397.544396 395.210167 403.849717 387.170426 
C 410.155039 379.130685 415.167914 370.156418 418.707329 360.571687 
C 422.246743 350.986957 424.269575 340.908537 424.702778 330.700361 
C 425.135981 320.492186 423.974279 310.278624 421.259619 300.42849 
L 397.578313 306.954968 
C 399.614308 314.342568 400.485585 322.002739 400.160682 329.658871 
C 399.83578 337.315003 398.318656 344.873817 395.664095 352.062365 
C 393.009535 359.250913 389.249878 365.981613 384.520887 372.011419 
C 379.791896 378.041225 374.151186 383.296673 367.802443 387.587989 
C 361.453701 391.879304 354.474276 395.154204 347.116196 397.294431 
C 339.758116 399.434658 332.111027 400.414137 324.451067 400.1975 
C 316.791108 399.980862 309.211601 398.570747 301.986245 396.018073 
C 294.760889 393.4654 287.977712 389.801268 281.881657 385.157991 
C 275.785601 380.514714 270.450937 374.948862 266.070301 368.661419 
C 261.689664 362.373977 258.316425 355.441545 256.072393 348.114456 
C 253.828361 340.787367 252.740875 333.154889 252.849205 325.492632 
C 252.957535 317.830375 254.26036 310.231692 256.710636 302.970971 
C 259.160912 295.710251 262.728786 288.875953 267.285421 282.714866 
C 271.842056 276.553779 277.331937 271.140966 283.556824 266.671884 
C 289.781711 262.202801 296.665763 258.731898 303.960397 256.38451 
C 311.255031 254.037121 318.871373 252.841846 326.534395 252.841846 
z
" style="fill: #f4f5f5; stroke: #ffffff; stroke-linejoin: miter"/>
   </g>
   <g id="patch_21">
    <path d="M 421.259619 300.42849 
C 415.545663 279.695413 403.179775 261.400828 386.07138 248.369612 
C 368.962984 235.338395 348.040436 228.277662 326.534395 228.277662 
L 326.534395 252.841846 
C 342.663926 252.841846 358.355837 258.137397 371.187134 267.910809 
C 384.01843 277.684221 393.292846 291.40516 397.578313 306.954968 
z
" style="fill: #dbede0; stroke: #ffffff; stroke-linejoin: miter"/>
   </g>
   <g id="matplotlib.axis_1"/>
   <g id="matplotlib.axis_2"/>
   <g id="text_1">
    <!-- AUPRC_0 on generalized models -->
    <g transform="translate(190.57252 94.3392) scale(0.168 -0.168)">
     <defs>
      <path id="DejaVuSans-41" d="M 2188 4044 
L 1331 1722 
L 3047 1722 
L 2188 4044 
z
M 1831 4666 
L 2547 4666 
L 4325 0 
L 3669 0 
L 3244 1197 
L 1141 1197 
L 716 0 
L 50 0 
L 1831 4666 
z
" transform="scale(0.015625)"/>
      <path id="DejaVuSans-55" d="M 556 4666 
L 1191 4666 
L 1191 1831 
Q 1191 1081 1462 751 
Q 1734 422 2344 422 
Q 2950 422 3222 751 
Q 3494 1081 3494 1831 
L 3494 4666 
L 4128 4666 
L 4128 1753 
Q 4128 841 3676 375 
Q 3225 -91 2344 -91 
Q 1459 -91 1007 375 
Q 556 841 556 1753 
L 556 4666 
z
" transform="scale(0.015625)"/>
      <path id="DejaVuSans-50" d="M 1259 4147 
L 1259 2394 
L 2053 2394 
Q 2494 2394 2734 2622 
Q 2975 2850 2975 3272 
Q 2975 3691 2734 3919 
Q 2494 4147 2053 4147 
L 1259 4147 
z
M 628 4666 
L 2053 4666 
Q 2838 4666 3239 4311 
Q 3641 3956 3641 3272 
Q 3641 2581 3239 2228 
Q 2838 1875 2053 1875 
L 1259 1875 
L 1259 0 
L 628 0 
L 628 4666 
z
" transform="scale(0.015625)"/>
      <path id="DejaVuSans-52" d="M 2841 2188 
Q 3044 2119 3236 1894 
Q 3428 1669 3622 1275 
L 4263 0 
L 3584 0 
L 2988 1197 
Q 2756 1666 2539 1819 
Q 2322 1972 1947 1972 
L 1259 1972 
L 1259 0 
L 628 0 
L 628 4666 
L 2053 4666 
Q 2853 4666 3247 4331 
Q 3641 3997 3641 3322 
Q 3641 2881 3436 2590 
Q 3231 2300 2841 2188 
z
M 1259 4147 
L 1259 2491 
L 2053 2491 
Q 2509 2491 2742 2702 
Q 2975 2913 2975 3322 
Q 2975 3731 2742 3939 
Q 2509 4147 2053 4147 
L 1259 4147 
z
" transform="scale(0.015625)"/>
      <path id="DejaVuSans-43" d="M 4122 4306 
L 4122 3641 
Q 3803 3938 3442 4084 
Q 3081 4231 2675 4231 
Q 1875 4231 1450 3742 
Q 1025 3253 1025 2328 
Q 1025 1406 1450 917 
Q 1875 428 2675 428 
Q 3081 428 3442 575 
Q 3803 722 4122 1019 
L 4122 359 
Q 3791 134 3420 21 
Q 3050 -91 2638 -91 
Q 1578 -91 968 557 
Q 359 1206 359 2328 
Q 359 3453 968 4101 
Q 1578 4750 2638 4750 
Q 3056 4750 3426 4639 
Q 3797 4528 4122 4306 
z
" transform="scale(0.015625)"/>
      <path id="DejaVuSans-5f" d="M 3263 -1063 
L 3263 -1509 
L -63 -1509 
L -63 -1063 
L 3263 -1063 
z
" transform="scale(0.015625)"/>
      <path id="DejaVuSans-30" d="M 2034 4250 
Q 1547 4250 1301 3770 
Q 1056 3291 1056 2328 
Q 1056 1369 1301 889 
Q 1547 409 2034 409 
Q 2525 409 2770 889 
Q 3016 1369 3016 2328 
Q 3016 3291 2770 3770 
Q 2525 4250 2034 4250 
z
M 2034 4750 
Q 2819 4750 3233 4129 
Q 3647 3509 3647 2328 
Q 3647 1150 3233 529 
Q 2819 -91 2034 -91 
Q 1250 -91 836 529 
Q 422 1150 422 2328 
Q 422 3509 836 4129 
Q 1250 4750 2034 4750 
z
" transform="scale(0.015625)"/>
      <path id="DejaVuSans-20" transform="scale(0.015625)"/>
      <path id="DejaVuSans-6f" d="M 1959 3097 
Q 1497 3097 1228 2736 
Q 959 2375 959 1747 
Q 959 1119 1226 758 
Q 1494 397 1959 397 
Q 2419 397 2687 759 
Q 2956 1122 2956 1747 
Q 2956 2369 2687 2733 
Q 2419 3097 1959 3097 
z
M 1959 3584 
Q 2709 3584 3137 3096 
Q 3566 2609 3566 1747 
Q 3566 888 3137 398 
Q 2709 -91 1959 -91 
Q 1206 -91 779 398 
Q 353 888 353 1747 
Q 353 2609 779 3096 
Q 1206 3584 1959 3584 
z
" transform="scale(0.015625)"/>
      <path id="DejaVuSans-6e" d="M 3513 2113 
L 3513 0 
L 2938 0 
L 2938 2094 
Q 2938 2591 2744 2837 
Q 2550 3084 2163 3084 
Q 1697 3084 1428 2787 
Q 1159 2491 1159 1978 
L 1159 0 
L 581 0 
L 581 3500 
L 1159 3500 
L 1159 2956 
Q 1366 3272 1645 3428 
Q 1925 3584 2291 3584 
Q 2894 3584 3203 3211 
Q 3513 2838 3513 2113 
z
" transform="scale(0.015625)"/>
      <path id="DejaVuSans-67" d="M 2906 1791 
Q 2906 2416 2648 2759 
Q 2391 3103 1925 3103 
Q 1463 3103 1205 2759 
Q 947 2416 947 1791 
Q 947 1169 1205 825 
Q 1463 481 1925 481 
Q 2391 481 2648 825 
Q 2906 1169 2906 1791 
z
M 3481 434 
Q 3481 -459 3084 -895 
Q 2688 -1331 1869 -1331 
Q 1566 -1331 1297 -1286 
Q 1028 -1241 775 -1147 
L 775 -588 
Q 1028 -725 1275 -790 
Q 1522 -856 1778 -856 
Q 2344 -856 2625 -561 
Q 2906 -266 2906 331 
L 2906 616 
Q 2728 306 2450 153 
Q 2172 0 1784 0 
Q 1141 0 747 490 
Q 353 981 353 1791 
Q 353 2603 747 3093 
Q 1141 3584 1784 3584 
Q 2172 3584 2450 3431 
Q 2728 3278 2906 2969 
L 2906 3500 
L 3481 3500 
L 3481 434 
z
" transform="scale(0.015625)"/>
      <path id="DejaVuSans-65" d="M 3597 1894 
L 3597 1613 
L 953 1613 
Q 991 1019 1311 708 
Q 1631 397 2203 397 
Q 2534 397 2845 478 
Q 3156 559 3463 722 
L 3463 178 
Q 3153 47 2828 -22 
Q 2503 -91 2169 -91 
Q 1331 -91 842 396 
Q 353 884 353 1716 
Q 353 2575 817 3079 
Q 1281 3584 2069 3584 
Q 2775 3584 3186 3129 
Q 3597 2675 3597 1894 
z
M 3022 2063 
Q 3016 2534 2758 2815 
Q 2500 3097 2075 3097 
Q 1594 3097 1305 2825 
Q 1016 2553 972 2059 
L 3022 2063 
z
" transform="scale(0.015625)"/>
      <path id="DejaVuSans-72" d="M 2631 2963 
Q 2534 3019 2420 3045 
Q 2306 3072 2169 3072 
Q 1681 3072 1420 2755 
Q 1159 2438 1159 1844 
L 1159 0 
L 581 0 
L 581 3500 
L 1159 3500 
L 1159 2956 
Q 1341 3275 1631 3429 
Q 1922 3584 2338 3584 
Q 2397 3584 2469 3576 
Q 2541 3569 2628 3553 
L 2631 2963 
z
" transform="scale(0.015625)"/>
      <path id="DejaVuSans-61" d="M 2194 1759 
Q 1497 1759 1228 1600 
Q 959 1441 959 1056 
Q 959 750 1161 570 
Q 1363 391 1709 391 
Q 2188 391 2477 730 
Q 2766 1069 2766 1631 
L 2766 1759 
L 2194 1759 
z
M 3341 1997 
L 3341 0 
L 2766 0 
L 2766 531 
Q 2569 213 2275 61 
Q 1981 -91 1556 -91 
Q 1019 -91 701 211 
Q 384 513 384 1019 
Q 384 1609 779 1909 
Q 1175 2209 1959 2209 
L 2766 2209 
L 2766 2266 
Q 2766 2663 2505 2880 
Q 2244 3097 1772 3097 
Q 1472 3097 1187 3025 
Q 903 2953 641 2809 
L 641 3341 
Q 956 3463 1253 3523 
Q 1550 3584 1831 3584 
Q 2591 3584 2966 3190 
Q 3341 2797 3341 1997 
z
" transform="scale(0.015625)"/>
      <path id="DejaVuSans-6c" d="M 603 4863 
L 1178 4863 
L 1178 0 
L 603 0 
L 603 4863 
z
" transform="scale(0.015625)"/>
      <path id="DejaVuSans-69" d="M 603 3500 
L 1178 3500 
L 1178 0 
L 603 0 
L 603 3500 
z
M 603 4863 
L 1178 4863 
L 1178 4134 
L 603 4134 
L 603 4863 
z
" transform="scale(0.015625)"/>
      <path id="DejaVuSans-7a" d="M 353 3500 
L 3084 3500 
L 3084 2975 
L 922 459 
L 3084 459 
L 3084 0 
L 275 0 
L 275 525 
L 2438 3041 
L 353 3041 
L 353 3500 
z
" transform="scale(0.015625)"/>
      <path id="DejaVuSans-64" d="M 2906 2969 
L 2906 4863 
L 3481 4863 
L 3481 0 
L 2906 0 
L 2906 525 
Q 2725 213 2448 61 
Q 2172 -91 1784 -91 
Q 1150 -91 751 415 
Q 353 922 353 1747 
Q 353 2572 751 3078 
Q 1150 3584 1784 3584 
Q 2172 3584 2448 3432 
Q 2725 3281 2906 2969 
z
M 947 1747 
Q 947 1113 1208 752 
Q 1469 391 1925 391 
Q 2381 391 2643 752 
Q 2906 1113 2906 1747 
Q 2906 2381 2643 2742 
Q 2381 3103 1925 3103 
Q 1469 3103 1208 2742 
Q 947 2381 947 1747 
z
" transform="scale(0.015625)"/>
      <path id="DejaVuSans-6d" d="M 3328 2828 
Q 3544 3216 3844 3400 
Q 4144 3584 4550 3584 
Q 5097 3584 5394 3201 
Q 5691 2819 5691 2113 
L 5691 0 
L 5113 0 
L 5113 2094 
Q 5113 2597 4934 2840 
Q 4756 3084 4391 3084 
Q 3944 3084 3684 2787 
Q 3425 2491 3425 1978 
L 3425 0 
L 2847 0 
L 2847 2094 
Q 2847 2600 2669 2842 
Q 2491 3084 2119 3084 
Q 1678 3084 1418 2786 
Q 1159 2488 1159 1978 
L 1159 0 
L 581 0 
L 581 3500 
L 1159 3500 
L 1159 2956 
Q 1356 3278 1631 3431 
Q 1906 3584 2284 3584 
Q 2666 3584 2933 3390 
Q 3200 3197 3328 2828 
z
" transform="scale(0.015625)"/>
      <path id="DejaVuSans-73" d="M 2834 3397 
L 2834 2853 
Q 2591 2978 2328 3040 
Q 2066 3103 1784 3103 
Q 1356 3103 1142 2972 
Q 928 2841 928 2578 
Q 928 2378 1081 2264 
Q 1234 2150 1697 2047 
L 1894 2003 
Q 2506 1872 2764 1633 
Q 3022 1394 3022 966 
Q 3022 478 2636 193 
Q 2250 -91 1575 -91 
Q 1294 -91 989 -36 
Q 684 19 347 128 
L 347 722 
Q 666 556 975 473 
Q 1284 391 1588 391 
Q 1994 391 2212 530 
Q 2431 669 2431 922 
Q 2431 1156 2273 1281 
Q 2116 1406 1581 1522 
L 1381 1569 
Q 847 1681 609 1914 
Q 372 2147 372 2553 
Q 372 3047 722 3315 
Q 1072 3584 1716 3584 
Q 2034 3584 2315 3537 
Q 2597 3491 2834 3397 
z
" transform="scale(0.015625)"/>
     </defs>
     <use xlink:href="#DejaVuSans-41"/>
     <use xlink:href="#DejaVuSans-55" x="68.408203"/>
     <use xlink:href="#DejaVuSans-50" x="141.601562"/>
     <use xlink:href="#DejaVuSans-52" x="201.904297"/>
     <use xlink:href="#DejaVuSans-43" x="266.386719"/>
     <use xlink:href="#DejaVuSans-5f" x="336.210938"/>
     <use xlink:href="#DejaVuSans-30" x="386.210938"/>
     <use xlink:href="#DejaVuSans-20" x="449.833984"/>
     <use xlink:href="#DejaVuSans-6f" x="481.621094"/>
     <use xlink:href="#DejaVuSans-6e" x="542.802734"/>
     <use xlink:href="#DejaVuSans-20" x="606.181641"/>
     <use xlink:href="#DejaVuSans-67" x="637.96875"/>
     <use xlink:href="#DejaVuSans-65" x="701.445312"/>
     <use xlink:href="#DejaVuSans-6e" x="762.96875"/>
     <use xlink:href="#DejaVuSans-65" x="826.347656"/>
     <use xlink:href="#DejaVuSans-72" x="887.871094"/>
     <use xlink:href="#DejaVuSans-61" x="928.984375"/>
     <use xlink:href="#DejaVuSans-6c" x="990.263672"/>
     <use xlink:href="#DejaVuSans-69" x="1018.046875"/>
     <use xlink:href="#DejaVuSans-7a" x="1045.830078"/>
     <use xlink:href="#DejaVuSans-65" x="1098.320312"/>
     <use xlink:href="#DejaVuSans-64" x="1159.84375"/>
     <use xlink:href="#DejaVuSans-20" x="1223.320312"/>
     <use xlink:href="#DejaVuSans-6d" x="1255.107422"/>
     <use xlink:href="#DejaVuSans-6f" x="1352.519531"/>
     <use xlink:href="#DejaVuSans-64" x="1413.701172"/>
     <use xlink:href="#DejaVuSans-65" x="1477.177734"/>
     <use xlink:href="#DejaVuSans-6c" x="1538.701172"/>
     <use xlink:href="#DejaVuSans-73" x="1566.484375"/>
    </g>
   </g>
   <g id="legend_1">
    <g id="patch_22">
     <path d="M 595.446395 326.5344 
L 888.989208 326.5344 
Q 891.789208 326.5344 891.789208 323.7344 
L 891.789208 97.1444 
Q 891.789208 94.3444 888.989208 94.3444 
L 595.446395 94.3444 
Q 592.646395 94.3444 592.646395 97.1444 
L 592.646395 323.7344 
Q 592.646395 326.5344 595.446395 326.5344 
z
" style="fill: #ffffff; opacity: 0.8; stroke: #cccccc; stroke-linejoin: miter"/>
    </g>
    <g id="text_2">
     <!-- Models -->
     <g transform="translate(717.552645 110.582212) scale(0.14 -0.14)">
      <defs>
       <path id="DejaVuSans-4d" d="M 628 4666 
L 1569 4666 
L 2759 1491 
L 3956 4666 
L 4897 4666 
L 4897 0 
L 4281 0 
L 4281 4097 
L 3078 897 
L 2444 897 
L 1241 4097 
L 1241 0 
L 628 0 
L 628 4666 
z
" transform="scale(0.015625)"/>
      </defs>
      <use xlink:href="#DejaVuSans-4d"/>
      <use xlink:href="#DejaVuSans-6f" x="86.279297"/>
      <use xlink:href="#DejaVuSans-64" x="147.460938"/>
      <use xlink:href="#DejaVuSans-65" x="210.9375"/>
      <use xlink:href="#DejaVuSans-6c" x="272.460938"/>
      <use xlink:href="#DejaVuSans-73" x="300.244141"/>
     </g>
    </g>
    <g id="patch_23">
     <path d="M 598.246395 131.131588 
L 626.246395 131.131588 
L 626.246395 121.331588 
L 598.246395 121.331588 
z
" style="fill: #a8d3b5; stroke: #ffffff; stroke-linejoin: miter"/>
    </g>
    <g id="text_3">
     <!-- xgboost (48.91%) -->
     <g transform="translate(637.446395 131.131588) scale(0.14 -0.14)">
      <defs>
       <path id="DejaVuSans-78" d="M 3513 3500 
L 2247 1797 
L 3578 0 
L 2900 0 
L 1881 1375 
L 863 0 
L 184 0 
L 1544 1831 
L 300 3500 
L 978 3500 
L 1906 2253 
L 2834 3500 
L 3513 3500 
z
" transform="scale(0.015625)"/>
       <path id="DejaVuSans-62" d="M 3116 1747 
Q 3116 2381 2855 2742 
Q 2594 3103 2138 3103 
Q 1681 3103 1420 2742 
Q 1159 2381 1159 1747 
Q 1159 1113 1420 752 
Q 1681 391 2138 391 
Q 2594 391 2855 752 
Q 3116 1113 3116 1747 
z
M 1159 2969 
Q 1341 3281 1617 3432 
Q 1894 3584 2278 3584 
Q 2916 3584 3314 3078 
Q 3713 2572 3713 1747 
Q 3713 922 3314 415 
Q 2916 -91 2278 -91 
Q 1894 -91 1617 61 
Q 1341 213 1159 525 
L 1159 0 
L 581 0 
L 581 4863 
L 1159 4863 
L 1159 2969 
z
" transform="scale(0.015625)"/>
       <path id="DejaVuSans-74" d="M 1172 4494 
L 1172 3500 
L 2356 3500 
L 2356 3053 
L 1172 3053 
L 1172 1153 
Q 1172 725 1289 603 
Q 1406 481 1766 481 
L 2356 481 
L 2356 0 
L 1766 0 
Q 1100 0 847 248 
Q 594 497 594 1153 
L 594 3053 
L 172 3053 
L 172 3500 
L 594 3500 
L 594 4494 
L 1172 4494 
z
" transform="scale(0.015625)"/>
       <path id="DejaVuSans-28" d="M 1984 4856 
Q 1566 4138 1362 3434 
Q 1159 2731 1159 2009 
Q 1159 1288 1364 580 
Q 1569 -128 1984 -844 
L 1484 -844 
Q 1016 -109 783 600 
Q 550 1309 550 2009 
Q 550 2706 781 3412 
Q 1013 4119 1484 4856 
L 1984 4856 
z
" transform="scale(0.015625)"/>
       <path id="DejaVuSans-34" d="M 2419 4116 
L 825 1625 
L 2419 1625 
L 2419 4116 
z
M 2253 4666 
L 3047 4666 
L 3047 1625 
L 3713 1625 
L 3713 1100 
L 3047 1100 
L 3047 0 
L 2419 0 
L 2419 1100 
L 313 1100 
L 313 1709 
L 2253 4666 
z
" transform="scale(0.015625)"/>
       <path id="DejaVuSans-38" d="M 2034 2216 
Q 1584 2216 1326 1975 
Q 1069 1734 1069 1313 
Q 1069 891 1326 650 
Q 1584 409 2034 409 
Q 2484 409 2743 651 
Q 3003 894 3003 1313 
Q 3003 1734 2745 1975 
Q 2488 2216 2034 2216 
z
M 1403 2484 
Q 997 2584 770 2862 
Q 544 3141 544 3541 
Q 544 4100 942 4425 
Q 1341 4750 2034 4750 
Q 2731 4750 3128 4425 
Q 3525 4100 3525 3541 
Q 3525 3141 3298 2862 
Q 3072 2584 2669 2484 
Q 3125 2378 3379 2068 
Q 3634 1759 3634 1313 
Q 3634 634 3220 271 
Q 2806 -91 2034 -91 
Q 1263 -91 848 271 
Q 434 634 434 1313 
Q 434 1759 690 2068 
Q 947 2378 1403 2484 
z
M 1172 3481 
Q 1172 3119 1398 2916 
Q 1625 2713 2034 2713 
Q 2441 2713 2670 2916 
Q 2900 3119 2900 3481 
Q 2900 3844 2670 4047 
Q 2441 4250 2034 4250 
Q 1625 4250 1398 4047 
Q 1172 3844 1172 3481 
z
" transform="scale(0.015625)"/>
       <path id="DejaVuSans-2e" d="M 684 794 
L 1344 794 
L 1344 0 
L 684 0 
L 684 794 
z
" transform="scale(0.015625)"/>
       <path id="DejaVuSans-39" d="M 703 97 
L 703 672 
Q 941 559 1184 500 
Q 1428 441 1663 441 
Q 2288 441 2617 861 
Q 2947 1281 2994 2138 
Q 2813 1869 2534 1725 
Q 2256 1581 1919 1581 
Q 1219 1581 811 2004 
Q 403 2428 403 3163 
Q 403 3881 828 4315 
Q 1253 4750 1959 4750 
Q 2769 4750 3195 4129 
Q 3622 3509 3622 2328 
Q 3622 1225 3098 567 
Q 2575 -91 1691 -91 
Q 1453 -91 1209 -44 
Q 966 3 703 97 
z
M 1959 2075 
Q 2384 2075 2632 2365 
Q 2881 2656 2881 3163 
Q 2881 3666 2632 3958 
Q 2384 4250 1959 4250 
Q 1534 4250 1286 3958 
Q 1038 3666 1038 3163 
Q 1038 2656 1286 2365 
Q 1534 2075 1959 2075 
z
" transform="scale(0.015625)"/>
       <path id="DejaVuSans-31" d="M 794 531 
L 1825 531 
L 1825 4091 
L 703 3866 
L 703 4441 
L 1819 4666 
L 2450 4666 
L 2450 531 
L 3481 531 
L 3481 0 
L 794 0 
L 794 531 
z
" transform="scale(0.015625)"/>
       <path id="DejaVuSans-25" d="M 4653 2053 
Q 4381 2053 4226 1822 
Q 4072 1591 4072 1178 
Q 4072 772 4226 539 
Q 4381 306 4653 306 
Q 4919 306 5073 539 
Q 5228 772 5228 1178 
Q 5228 1588 5073 1820 
Q 4919 2053 4653 2053 
z
M 4653 2450 
Q 5147 2450 5437 2106 
Q 5728 1763 5728 1178 
Q 5728 594 5436 251 
Q 5144 -91 4653 -91 
Q 4153 -91 3862 251 
Q 3572 594 3572 1178 
Q 3572 1766 3864 2108 
Q 4156 2450 4653 2450 
z
M 1428 4353 
Q 1159 4353 1004 4120 
Q 850 3888 850 3481 
Q 850 3069 1003 2837 
Q 1156 2606 1428 2606 
Q 1700 2606 1854 2837 
Q 2009 3069 2009 3481 
Q 2009 3884 1853 4118 
Q 1697 4353 1428 4353 
z
M 4250 4750 
L 4750 4750 
L 1831 -91 
L 1331 -91 
L 4250 4750 
z
M 1428 4750 
Q 1922 4750 2215 4408 
Q 2509 4066 2509 3481 
Q 2509 2891 2217 2550 
Q 1925 2209 1428 2209 
Q 931 2209 642 2551 
Q 353 2894 353 3481 
Q 353 4063 643 4406 
Q 934 4750 1428 4750 
z
" transform="scale(0.015625)"/>
       <path id="DejaVuSans-29" d="M 513 4856 
L 1013 4856 
Q 1481 4119 1714 3412 
Q 1947 2706 1947 2009 
Q 1947 1309 1714 600 
Q 1481 -109 1013 -844 
L 513 -844 
Q 928 -128 1133 580 
Q 1338 1288 1338 2009 
Q 1338 2731 1133 3434 
Q 928 4138 513 4856 
z
" transform="scale(0.015625)"/>
      </defs>
      <use xlink:href="#DejaVuSans-78"/>
      <use xlink:href="#DejaVuSans-67" x="59.179688"/>
      <use xlink:href="#DejaVuSans-62" x="122.65625"/>
      <use xlink:href="#DejaVuSans-6f" x="186.132812"/>
      <use xlink:href="#DejaVuSans-6f" x="247.314453"/>
      <use xlink:href="#DejaVuSans-73" x="308.496094"/>
      <use xlink:href="#DejaVuSans-74" x="360.595703"/>
      <use xlink:href="#DejaVuSans-20" x="399.804688"/>
      <use xlink:href="#DejaVuSans-28" x="431.591797"/>
      <use xlink:href="#DejaVuSans-34" x="470.605469"/>
      <use xlink:href="#DejaVuSans-38" x="534.228516"/>
      <use xlink:href="#DejaVuSans-2e" x="597.851562"/>
      <use xlink:href="#DejaVuSans-39" x="629.638672"/>
      <use xlink:href="#DejaVuSans-31" x="693.261719"/>
      <use xlink:href="#DejaVuSans-25" x="756.884766"/>
      <use xlink:href="#DejaVuSans-29" x="851.904297"/>
     </g>
    </g>
    <g id="patch_24">
     <path d="M 598.246395 151.680963 
L 626.246395 151.680963 
L 626.246395 141.880963 
L 598.246395 141.880963 
z
" style="fill: #a9d4b6; stroke: #ffffff; stroke-linejoin: miter"/>
    </g>
    <g id="text_4">
     <!-- random_forest (47.93%) -->
     <g transform="translate(637.446395 151.680963) scale(0.14 -0.14)">
      <defs>
       <path id="DejaVuSans-66" d="M 2375 4863 
L 2375 4384 
L 1825 4384 
Q 1516 4384 1395 4259 
Q 1275 4134 1275 3809 
L 1275 3500 
L 2222 3500 
L 2222 3053 
L 1275 3053 
L 1275 0 
L 697 0 
L 697 3053 
L 147 3053 
L 147 3500 
L 697 3500 
L 697 3744 
Q 697 4328 969 4595 
Q 1241 4863 1831 4863 
L 2375 4863 
z
" transform="scale(0.015625)"/>
       <path id="DejaVuSans-37" d="M 525 4666 
L 3525 4666 
L 3525 4397 
L 1831 0 
L 1172 0 
L 2766 4134 
L 525 4134 
L 525 4666 
z
" transform="scale(0.015625)"/>
       <path id="DejaVuSans-33" d="M 2597 2516 
Q 3050 2419 3304 2112 
Q 3559 1806 3559 1356 
Q 3559 666 3084 287 
Q 2609 -91 1734 -91 
Q 1441 -91 1130 -33 
Q 819 25 488 141 
L 488 750 
Q 750 597 1062 519 
Q 1375 441 1716 441 
Q 2309 441 2620 675 
Q 2931 909 2931 1356 
Q 2931 1769 2642 2001 
Q 2353 2234 1838 2234 
L 1294 2234 
L 1294 2753 
L 1863 2753 
Q 2328 2753 2575 2939 
Q 2822 3125 2822 3475 
Q 2822 3834 2567 4026 
Q 2313 4219 1838 4219 
Q 1578 4219 1281 4162 
Q 984 4106 628 3988 
L 628 4550 
Q 988 4650 1302 4700 
Q 1616 4750 1894 4750 
Q 2613 4750 3031 4423 
Q 3450 4097 3450 3541 
Q 3450 3153 3228 2886 
Q 3006 2619 2597 2516 
z
" transform="scale(0.015625)"/>
      </defs>
      <use xlink:href="#DejaVuSans-72"/>
      <use xlink:href="#DejaVuSans-61" x="41.113281"/>
      <use xlink:href="#DejaVuSans-6e" x="102.392578"/>
      <use xlink:href="#DejaVuSans-64" x="165.771484"/>
      <use xlink:href="#DejaVuSans-6f" x="229.248047"/>
      <use xlink:href="#DejaVuSans-6d" x="290.429688"/>
      <use xlink:href="#DejaVuSans-5f" x="387.841797"/>
      <use xlink:href="#DejaVuSans-66" x="437.841797"/>
      <use xlink:href="#DejaVuSans-6f" x="473.046875"/>
      <use xlink:href="#DejaVuSans-72" x="534.228516"/>
      <use xlink:href="#DejaVuSans-65" x="573.091797"/>
      <use xlink:href="#DejaVuSans-73" x="634.615234"/>
      <use xlink:href="#DejaVuSans-74" x="686.714844"/>
      <use xlink:href="#DejaVuSans-20" x="725.923828"/>
      <use xlink:href="#DejaVuSans-28" x="757.710938"/>
      <use xlink:href="#DejaVuSans-34" x="796.724609"/>
      <use xlink:href="#DejaVuSans-37" x="860.347656"/>
      <use xlink:href="#DejaVuSans-2e" x="923.970703"/>
      <use xlink:href="#DejaVuSans-39" x="955.757812"/>
      <use xlink:href="#DejaVuSans-33" x="1019.380859"/>
      <use xlink:href="#DejaVuSans-25" x="1083.003906"/>
      <use xlink:href="#DejaVuSans-29" x="1178.023438"/>
     </g>
    </g>
    <g id="patch_25">
     <path d="M 598.246395 172.619712 
L 626.246395 172.619712 
L 626.246395 162.819712 
L 598.246395 162.819712 
z
" style="fill: #b1d8bc; stroke: #ffffff; stroke-linejoin: miter"/>
    </g>
    <g id="text_5">
     <!-- neural_network (43.12%) -->
     <g transform="translate(637.446395 172.619712) scale(0.14 -0.14)">
      <defs>
       <path id="DejaVuSans-75" d="M 544 1381 
L 544 3500 
L 1119 3500 
L 1119 1403 
Q 1119 906 1312 657 
Q 1506 409 1894 409 
Q 2359 409 2629 706 
Q 2900 1003 2900 1516 
L 2900 3500 
L 3475 3500 
L 3475 0 
L 2900 0 
L 2900 538 
Q 2691 219 2414 64 
Q 2138 -91 1772 -91 
Q 1169 -91 856 284 
Q 544 659 544 1381 
z
M 1991 3584 
L 1991 3584 
z
" transform="scale(0.015625)"/>
       <path id="DejaVuSans-77" d="M 269 3500 
L 844 3500 
L 1563 769 
L 2278 3500 
L 2956 3500 
L 3675 769 
L 4391 3500 
L 4966 3500 
L 4050 0 
L 3372 0 
L 2619 2869 
L 1863 0 
L 1184 0 
L 269 3500 
z
" transform="scale(0.015625)"/>
       <path id="DejaVuSans-6b" d="M 581 4863 
L 1159 4863 
L 1159 1991 
L 2875 3500 
L 3609 3500 
L 1753 1863 
L 3688 0 
L 2938 0 
L 1159 1709 
L 1159 0 
L 581 0 
L 581 4863 
z
" transform="scale(0.015625)"/>
       <path id="DejaVuSans-32" d="M 1228 531 
L 3431 531 
L 3431 0 
L 469 0 
L 469 531 
Q 828 903 1448 1529 
Q 2069 2156 2228 2338 
Q 2531 2678 2651 2914 
Q 2772 3150 2772 3378 
Q 2772 3750 2511 3984 
Q 2250 4219 1831 4219 
Q 1534 4219 1204 4116 
Q 875 4013 500 3803 
L 500 4441 
Q 881 4594 1212 4672 
Q 1544 4750 1819 4750 
Q 2544 4750 2975 4387 
Q 3406 4025 3406 3419 
Q 3406 3131 3298 2873 
Q 3191 2616 2906 2266 
Q 2828 2175 2409 1742 
Q 1991 1309 1228 531 
z
" transform="scale(0.015625)"/>
      </defs>
      <use xlink:href="#DejaVuSans-6e"/>
      <use xlink:href="#DejaVuSans-65" x="63.378906"/>
      <use xlink:href="#DejaVuSans-75" x="124.902344"/>
      <use xlink:href="#DejaVuSans-72" x="188.28125"/>
      <use xlink:href="#DejaVuSans-61" x="229.394531"/>
      <use xlink:href="#DejaVuSans-6c" x="290.673828"/>
      <use xlink:href="#DejaVuSans-5f" x="318.457031"/>
      <use xlink:href="#DejaVuSans-6e" x="368.457031"/>
      <use xlink:href="#DejaVuSans-65" x="431.835938"/>
      <use xlink:href="#DejaVuSans-74" x="493.359375"/>
      <use xlink:href="#DejaVuSans-77" x="532.568359"/>
      <use xlink:href="#DejaVuSans-6f" x="614.355469"/>
      <use xlink:href="#DejaVuSans-72" x="675.537109"/>
      <use xlink:href="#DejaVuSans-6b" x="716.650391"/>
      <use xlink:href="#DejaVuSans-20" x="774.560547"/>
      <use xlink:href="#DejaVuSans-28" x="806.347656"/>
      <use xlink:href="#DejaVuSans-34" x="845.361328"/>
      <use xlink:href="#DejaVuSans-33" x="908.984375"/>
      <use xlink:href="#DejaVuSans-2e" x="972.607422"/>
      <use xlink:href="#DejaVuSans-31" x="1004.394531"/>
      <use xlink:href="#DejaVuSans-32" x="1068.017578"/>
      <use xlink:href="#DejaVuSans-25" x="1131.640625"/>
      <use xlink:href="#DejaVuSans-29" x="1226.660156"/>
     </g>
    </g>
    <g id="patch_26">
     <path d="M 598.246395 193.558463 
L 626.246395 193.558463 
L 626.246395 183.758463 
L 598.246395 183.758463 
z
" style="fill: #b4dabf; stroke: #ffffff; stroke-linejoin: miter"/>
    </g>
    <g id="text_6">
     <!-- crf (41.37%) -->
     <g transform="translate(637.446395 193.558463) scale(0.14 -0.14)">
      <defs>
       <path id="DejaVuSans-63" d="M 3122 3366 
L 3122 2828 
Q 2878 2963 2633 3030 
Q 2388 3097 2138 3097 
Q 1578 3097 1268 2742 
Q 959 2388 959 1747 
Q 959 1106 1268 751 
Q 1578 397 2138 397 
Q 2388 397 2633 464 
Q 2878 531 3122 666 
L 3122 134 
Q 2881 22 2623 -34 
Q 2366 -91 2075 -91 
Q 1284 -91 818 406 
Q 353 903 353 1747 
Q 353 2603 823 3093 
Q 1294 3584 2113 3584 
Q 2378 3584 2631 3529 
Q 2884 3475 3122 3366 
z
" transform="scale(0.015625)"/>
      </defs>
      <use xlink:href="#DejaVuSans-63"/>
      <use xlink:href="#DejaVuSans-72" x="54.980469"/>
      <use xlink:href="#DejaVuSans-66" x="96.09375"/>
      <use xlink:href="#DejaVuSans-20" x="131.298828"/>
      <use xlink:href="#DejaVuSans-28" x="163.085938"/>
      <use xlink:href="#DejaVuSans-34" x="202.099609"/>
      <use xlink:href="#DejaVuSans-31" x="265.722656"/>
      <use xlink:href="#DejaVuSans-2e" x="329.345703"/>
      <use xlink:href="#DejaVuSans-33" x="361.132812"/>
      <use xlink:href="#DejaVuSans-37" x="424.755859"/>
      <use xlink:href="#DejaVuSans-25" x="488.378906"/>
      <use xlink:href="#DejaVuSans-29" x="583.398438"/>
     </g>
    </g>
    <g id="patch_27">
     <path d="M 598.246395 214.107838 
L 626.246395 214.107838 
L 626.246395 204.307838 
L 598.246395 204.307838 
z
" style="fill: #b8dcc3; stroke: #ffffff; stroke-linejoin: miter"/>
    </g>
    <g id="text_7">
     <!-- logistic_regression (39.73%) -->
     <g transform="translate(637.446395 214.107838) scale(0.14 -0.14)">
      <use xlink:href="#DejaVuSans-6c"/>
      <use xlink:href="#DejaVuSans-6f" x="27.783203"/>
      <use xlink:href="#DejaVuSans-67" x="88.964844"/>
      <use xlink:href="#DejaVuSans-69" x="152.441406"/>
      <use xlink:href="#DejaVuSans-73" x="180.224609"/>
      <use xlink:href="#DejaVuSans-74" x="232.324219"/>
      <use xlink:href="#DejaVuSans-69" x="271.533203"/>
      <use xlink:href="#DejaVuSans-63" x="299.316406"/>
      <use xlink:href="#DejaVuSans-5f" x="354.296875"/>
      <use xlink:href="#DejaVuSans-72" x="404.296875"/>
      <use xlink:href="#DejaVuSans-65" x="443.160156"/>
      <use xlink:href="#DejaVuSans-67" x="504.683594"/>
      <use xlink:href="#DejaVuSans-72" x="568.160156"/>
      <use xlink:href="#DejaVuSans-65" x="607.023438"/>
      <use xlink:href="#DejaVuSans-73" x="668.546875"/>
      <use xlink:href="#DejaVuSans-73" x="720.646484"/>
      <use xlink:href="#DejaVuSans-69" x="772.746094"/>
      <use xlink:href="#DejaVuSans-6f" x="800.529297"/>
      <use xlink:href="#DejaVuSans-6e" x="861.710938"/>
      <use xlink:href="#DejaVuSans-20" x="925.089844"/>
      <use xlink:href="#DejaVuSans-28" x="956.876953"/>
      <use xlink:href="#DejaVuSans-33" x="995.890625"/>
      <use xlink:href="#DejaVuSans-39" x="1059.513672"/>
      <use xlink:href="#DejaVuSans-2e" x="1123.136719"/>
      <use xlink:href="#DejaVuSans-37" x="1154.923828"/>
      <use xlink:href="#DejaVuSans-33" x="1218.546875"/>
      <use xlink:href="#DejaVuSans-25" x="1282.169922"/>
      <use xlink:href="#DejaVuSans-29" x="1377.189453"/>
     </g>
    </g>
    <g id="patch_28">
     <path d="M 598.246395 235.046587 
L 626.246395 235.046587 
L 626.246395 225.246587 
L 598.246395 225.246587 
z
" style="fill: #b8dcc3; stroke: #ffffff; stroke-linejoin: miter"/>
    </g>
    <g id="text_8">
     <!-- naive_bayes (39.08%) -->
     <g transform="translate(637.446395 235.046587) scale(0.14 -0.14)">
      <defs>
       <path id="DejaVuSans-76" d="M 191 3500 
L 800 3500 
L 1894 563 
L 2988 3500 
L 3597 3500 
L 2284 0 
L 1503 0 
L 191 3500 
z
" transform="scale(0.015625)"/>
       <path id="DejaVuSans-79" d="M 2059 -325 
Q 1816 -950 1584 -1140 
Q 1353 -1331 966 -1331 
L 506 -1331 
L 506 -850 
L 844 -850 
Q 1081 -850 1212 -737 
Q 1344 -625 1503 -206 
L 1606 56 
L 191 3500 
L 800 3500 
L 1894 763 
L 2988 3500 
L 3597 3500 
L 2059 -325 
z
" transform="scale(0.015625)"/>
      </defs>
      <use xlink:href="#DejaVuSans-6e"/>
      <use xlink:href="#DejaVuSans-61" x="63.378906"/>
      <use xlink:href="#DejaVuSans-69" x="124.658203"/>
      <use xlink:href="#DejaVuSans-76" x="152.441406"/>
      <use xlink:href="#DejaVuSans-65" x="211.621094"/>
      <use xlink:href="#DejaVuSans-5f" x="273.144531"/>
      <use xlink:href="#DejaVuSans-62" x="323.144531"/>
      <use xlink:href="#DejaVuSans-61" x="386.621094"/>
      <use xlink:href="#DejaVuSans-79" x="447.900391"/>
      <use xlink:href="#DejaVuSans-65" x="507.080078"/>
      <use xlink:href="#DejaVuSans-73" x="568.603516"/>
      <use xlink:href="#DejaVuSans-20" x="620.703125"/>
      <use xlink:href="#DejaVuSans-28" x="652.490234"/>
      <use xlink:href="#DejaVuSans-33" x="691.503906"/>
      <use xlink:href="#DejaVuSans-39" x="755.126953"/>
      <use xlink:href="#DejaVuSans-2e" x="818.75"/>
      <use xlink:href="#DejaVuSans-30" x="850.537109"/>
      <use xlink:href="#DejaVuSans-38" x="914.160156"/>
      <use xlink:href="#DejaVuSans-25" x="977.783203"/>
      <use xlink:href="#DejaVuSans-29" x="1072.802734"/>
     </g>
    </g>
    <g id="patch_29">
     <path d="M 598.246395 255.985338 
L 626.246395 255.985338 
L 626.246395 246.185338 
L 598.246395 246.185338 
z
" style="fill: #bcddc6; stroke: #ffffff; stroke-linejoin: miter"/>
    </g>
    <g id="text_9">
     <!-- svm (37.54%) -->
     <g transform="translate(637.446395 255.985338) scale(0.14 -0.14)">
      <defs>
       <path id="DejaVuSans-35" d="M 691 4666 
L 3169 4666 
L 3169 4134 
L 1269 4134 
L 1269 2991 
Q 1406 3038 1543 3061 
Q 1681 3084 1819 3084 
Q 2600 3084 3056 2656 
Q 3513 2228 3513 1497 
Q 3513 744 3044 326 
Q 2575 -91 1722 -91 
Q 1428 -91 1123 -41 
Q 819 9 494 109 
L 494 744 
Q 775 591 1075 516 
Q 1375 441 1709 441 
Q 2250 441 2565 725 
Q 2881 1009 2881 1497 
Q 2881 1984 2565 2268 
Q 2250 2553 1709 2553 
Q 1456 2553 1204 2497 
Q 953 2441 691 2322 
L 691 4666 
z
" transform="scale(0.015625)"/>
      </defs>
      <use xlink:href="#DejaVuSans-73"/>
      <use xlink:href="#DejaVuSans-76" x="52.099609"/>
      <use xlink:href="#DejaVuSans-6d" x="111.279297"/>
      <use xlink:href="#DejaVuSans-20" x="208.691406"/>
      <use xlink:href="#DejaVuSans-28" x="240.478516"/>
      <use xlink:href="#DejaVuSans-33" x="279.492188"/>
      <use xlink:href="#DejaVuSans-37" x="343.115234"/>
      <use xlink:href="#DejaVuSans-2e" x="406.738281"/>
      <use xlink:href="#DejaVuSans-35" x="438.525391"/>
      <use xlink:href="#DejaVuSans-34" x="502.148438"/>
      <use xlink:href="#DejaVuSans-25" x="565.771484"/>
      <use xlink:href="#DejaVuSans-29" x="660.791016"/>
     </g>
    </g>
    <g id="patch_30">
     <path d="M 598.246395 276.534713 
L 626.246395 276.534713 
L 626.246395 266.734713 
L 598.246395 266.734713 
z
" style="fill: #c3e1cc; stroke: #ffffff; stroke-linejoin: miter"/>
    </g>
    <g id="text_10">
     <!-- recurrent_neural_network (33.94%) -->
     <g transform="translate(637.446395 276.534713) scale(0.14 -0.14)">
      <use xlink:href="#DejaVuSans-72"/>
      <use xlink:href="#DejaVuSans-65" x="38.863281"/>
      <use xlink:href="#DejaVuSans-63" x="100.386719"/>
      <use xlink:href="#DejaVuSans-75" x="155.367188"/>
      <use xlink:href="#DejaVuSans-72" x="218.746094"/>
      <use xlink:href="#DejaVuSans-72" x="258.109375"/>
      <use xlink:href="#DejaVuSans-65" x="296.972656"/>
      <use xlink:href="#DejaVuSans-6e" x="358.496094"/>
      <use xlink:href="#DejaVuSans-74" x="421.875"/>
      <use xlink:href="#DejaVuSans-5f" x="461.083984"/>
      <use xlink:href="#DejaVuSans-6e" x="511.083984"/>
      <use xlink:href="#DejaVuSans-65" x="574.462891"/>
      <use xlink:href="#DejaVuSans-75" x="635.986328"/>
      <use xlink:href="#DejaVuSans-72" x="699.365234"/>
      <use xlink:href="#DejaVuSans-61" x="740.478516"/>
      <use xlink:href="#DejaVuSans-6c" x="801.757812"/>
      <use xlink:href="#DejaVuSans-5f" x="829.541016"/>
      <use xlink:href="#DejaVuSans-6e" x="879.541016"/>
      <use xlink:href="#DejaVuSans-65" x="942.919922"/>
      <use xlink:href="#DejaVuSans-74" x="1004.443359"/>
      <use xlink:href="#DejaVuSans-77" x="1043.652344"/>
      <use xlink:href="#DejaVuSans-6f" x="1125.439453"/>
      <use xlink:href="#DejaVuSans-72" x="1186.621094"/>
      <use xlink:href="#DejaVuSans-6b" x="1227.734375"/>
      <use xlink:href="#DejaVuSans-20" x="1285.644531"/>
      <use xlink:href="#DejaVuSans-28" x="1317.431641"/>
      <use xlink:href="#DejaVuSans-33" x="1356.445312"/>
      <use xlink:href="#DejaVuSans-33" x="1420.068359"/>
      <use xlink:href="#DejaVuSans-2e" x="1483.691406"/>
      <use xlink:href="#DejaVuSans-39" x="1515.478516"/>
      <use xlink:href="#DejaVuSans-34" x="1579.101562"/>
      <use xlink:href="#DejaVuSans-25" x="1642.724609"/>
      <use xlink:href="#DejaVuSans-29" x="1737.744141"/>
     </g>
    </g>
    <g id="patch_31">
     <path d="M 598.246395 297.473462 
L 626.246395 297.473462 
L 626.246395 287.673462 
L 598.246395 287.673462 
z
" style="fill: #cce6d4; stroke: #ffffff; stroke-linejoin: miter"/>
    </g>
    <g id="text_11">
     <!-- hmm (28.9%) -->
     <g transform="translate(637.446395 297.473462) scale(0.14 -0.14)">
      <defs>
       <path id="DejaVuSans-68" d="M 3513 2113 
L 3513 0 
L 2938 0 
L 2938 2094 
Q 2938 2591 2744 2837 
Q 2550 3084 2163 3084 
Q 1697 3084 1428 2787 
Q 1159 2491 1159 1978 
L 1159 0 
L 581 0 
L 581 4863 
L 1159 4863 
L 1159 2956 
Q 1366 3272 1645 3428 
Q 1925 3584 2291 3584 
Q 2894 3584 3203 3211 
Q 3513 2838 3513 2113 
z
" transform="scale(0.015625)"/>
      </defs>
      <use xlink:href="#DejaVuSans-68"/>
      <use xlink:href="#DejaVuSans-6d" x="63.378906"/>
      <use xlink:href="#DejaVuSans-6d" x="160.791016"/>
      <use xlink:href="#DejaVuSans-20" x="258.203125"/>
      <use xlink:href="#DejaVuSans-28" x="289.990234"/>
      <use xlink:href="#DejaVuSans-32" x="329.003906"/>
      <use xlink:href="#DejaVuSans-38" x="392.626953"/>
      <use xlink:href="#DejaVuSans-2e" x="456.25"/>
      <use xlink:href="#DejaVuSans-39" x="488.037109"/>
      <use xlink:href="#DejaVuSans-25" x="551.660156"/>
      <use xlink:href="#DejaVuSans-29" x="646.679688"/>
     </g>
    </g>
    <g id="patch_32">
     <path d="M 598.246395 318.022838 
L 626.246395 318.022838 
L 626.246395 308.222838 
L 598.246395 308.222838 
z
" style="fill: #dbede0; stroke: #ffffff; stroke-linejoin: miter"/>
    </g>
    <g id="text_12">
     <!-- knn (20.72%) -->
     <g transform="translate(637.446395 318.022838) scale(0.14 -0.14)">
      <use xlink:href="#DejaVuSans-6b"/>
      <use xlink:href="#DejaVuSans-6e" x="57.910156"/>
      <use xlink:href="#DejaVuSans-6e" x="121.289062"/>
      <use xlink:href="#DejaVuSans-20" x="184.667969"/>
      <use xlink:href="#DejaVuSans-28" x="216.455078"/>
      <use xlink:href="#DejaVuSans-32" x="255.46875"/>
      <use xlink:href="#DejaVuSans-30" x="319.091797"/>
      <use xlink:href="#DejaVuSans-2e" x="382.714844"/>
      <use xlink:href="#DejaVuSans-37" x="414.501953"/>
      <use xlink:href="#DejaVuSans-32" x="478.125"/>
      <use xlink:href="#DejaVuSans-25" x="541.748047"/>
      <use xlink:href="#DejaVuSans-29" x="636.767578"/>
     </g>
    </g>
   </g>
  </g>
 </g>
</svg>
