<?xml version="1.0" encoding="utf-8" standalone="no"?>
<!DOCTYPE svg PUBLIC "-//W3C//DTD SVG 1.1//EN"
  "http://www.w3.org/Graphics/SVG/1.1/DTD/svg11.dtd">
<svg xmlns:xlink="http://www.w3.org/1999/xlink" width="898.987399pt" height="653.06871pt" viewBox="0 0 898.987399 653.06871" xmlns="http://www.w3.org/2000/svg" version="1.1">
 <metadata>
  <rdf:RDF xmlns:dc="http://purl.org/dc/elements/1.1/" xmlns:cc="http://creativecommons.org/ns#" xmlns:rdf="http://www.w3.org/1999/02/22-rdf-syntax-ns#">
   <cc:Work>
    <dc:type rdf:resource="http://purl.org/dc/dcmitype/StillImage"/>
    <dc:date>2023-07-18T15:48:07.191818</dc:date>
    <dc:format>image/svg+xml</dc:format>
    <dc:creator>
     <cc:Agent>
      <dc:title>Matplotlib v3.7.0, https://matplotlib.org/</dc:title>
     </cc:Agent>
    </dc:creator>
   </cc:Work>
  </rdf:RDF>
 </metadata>
 <defs>
  <style type="text/css">*{stroke-linejoin: round; stroke-linecap: butt}</style>
 </defs>
 <g id="figure_1">
  <g id="patch_1">
   <path d="M 0 653.06871 
L 898.987399 653.06871 
L 898.987399 -0 
L 0 -0 
z
" style="fill: #ffffff"/>
  </g>
  <g id="axes_1">
   <g id="patch_2">
    <path d="M 326.532586 7.2 
C 251.137301 7.2 178.124933 33.901394 120.517933 82.541733 
C 62.910934 131.182072 24.350715 198.686737 11.714861 273.015629 
C -0.920993 347.344521 13.166245 423.799214 51.463983 488.743285 
C 89.76172 553.687355 149.849108 603.015605 221.008987 627.929869 
L 229.126187 604.745603 
C 163.440145 581.74782 107.974864 536.214051 72.623106 476.265678 
C 37.271348 416.317305 24.267743 345.743743 35.931609 277.132458 
C 47.595475 208.521173 83.189522 146.209174 136.365214 101.310399 
C 189.540906 56.411625 256.936939 31.764185 326.532586 31.764185 
z
" style="fill: #f4f5f5; stroke: #ffffff; stroke-linejoin: miter"/>
   </g>
   <g id="patch_3">
    <path d="M 221.008987 627.929869 
C 264.862191 643.28361 311.542578 648.882968 357.782888 644.336033 
C 404.023198 639.789097 448.71884 625.204484 488.741471 601.603004 
C 528.764102 578.001523 563.157659 545.946967 589.514865 507.682903 
C 615.87207 469.418839 633.563302 425.85932 641.350312 380.053171 
C 649.137322 334.247021 646.834094 287.28846 634.601837 242.464217 
C 622.36958 197.639974 600.500497 156.020812 570.525254 120.519747 
C 540.55001 85.018682 503.184655 56.483763 461.044469 36.912211 
C 418.904284 17.340659 372.995915 7.2 326.532586 7.2 
L 326.532586 31.764185 
C 369.421812 31.764185 411.798769 41.124793 450.697401 59.190841 
C 489.596034 77.256889 524.087131 103.596814 551.756587 136.367028 
C 579.426043 169.137242 599.612888 207.554929 610.904202 248.931154 
C 622.195517 290.307378 624.321573 333.653742 617.133564 375.936342 
C 609.945554 418.218942 593.615187 458.427728 569.285459 493.748403 
C 544.955731 529.069077 513.207831 558.657898 476.263864 580.44388 
C 439.319897 602.229862 398.062382 615.692582 355.379019 619.889753 
C 312.695656 624.086925 269.606068 618.918286 229.126187 604.745603 
z
" style="fill: #f39ba0; stroke: #ffffff; stroke-linejoin: miter"/>
   </g>
   <g id="patch_4">
    <path d="M 326.532586 31.764185 
C 251.087869 31.764185 178.449226 60.728637 123.704533 112.641294 
C 68.95984 164.553951 36.181422 235.553158 32.17773 310.891566 
C 28.174038 386.229974 53.242897 460.303346 102.177219 517.725793 
C 151.11154 575.148241 220.271221 611.64825 295.291003 619.644351 
L 297.894468 595.218522 
C 229.126335 587.888763 165.729961 554.430421 120.873499 501.793177 
C 76.017038 449.155934 53.03725 381.255343 56.707301 312.195136 
C 60.377352 243.134928 90.424236 178.052322 140.606871 130.46572 
C 190.789506 82.879118 257.374929 56.328369 326.532586 56.328369 
z
" style="fill: #f4f5f5; stroke: #ffffff; stroke-linejoin: miter"/>
   </g>
   <g id="patch_5">
    <path d="M 295.291003 619.644351 
C 335.091537 623.886553 375.34226 619.978048 413.583059 608.157721 
C 451.823857 596.337395 487.259439 576.851074 517.72399 550.889759 
C 548.188541 524.928443 573.048492 493.032048 590.784408 457.150074 
C 608.520325 421.2681 618.763354 382.146783 620.887444 342.177206 
C 623.011535 302.20763 616.972512 262.22104 603.139479 224.661408 
C 589.306447 187.101775 567.96709 152.750226 540.425664 123.706317 
C 512.884238 94.662408 479.713521 71.530165 442.940898 55.723424 
C 406.168276 39.916683 366.558507 31.764177 326.532531 31.764185 
L 326.532536 56.328369 
C 363.223014 56.328362 399.531969 63.801493 433.240206 78.291005 
C 466.948443 92.780518 497.354933 113.985074 522.60124 140.608657 
C 547.847548 167.23224 567.408625 198.721161 580.088905 233.150824 
C 592.769185 267.580487 598.304956 304.234861 596.357873 340.873639 
C 594.41079 377.512417 585.021347 413.373625 568.763423 446.265435 
C 552.5055 479.157244 529.717212 508.395606 501.791373 532.193479 
C 473.865535 555.991351 441.382918 573.853812 406.328853 584.689111 
C 371.274788 595.52441 334.378291 599.107207 297.894468 595.218522 
z
" style="fill: #f4a3a7; stroke: #ffffff; stroke-linejoin: miter"/>
   </g>
   <g id="patch_6">
    <path d="M 326.532586 56.328369 
C 288.011703 56.328369 249.932459 64.565742 214.855592 80.486543 
C 179.778726 96.407344 148.508545 119.646512 123.147895 148.641268 
C 97.787245 177.636024 78.917642 211.721523 67.808021 248.605595 
C 56.698401 285.489668 53.603506 324.326567 58.73146 362.504605 
C 63.859413 400.682642 77.092633 437.3264 97.541217 469.971674 
C 117.9898 502.616948 145.184863 530.515186 177.297604 551.790297 
C 209.410344 573.065408 245.704421 587.229558 283.739144 593.33024 
C 321.773867 599.430923 360.677104 597.32825 397.832707 587.163623 
L 391.350878 563.470057 
C 357.573057 572.710628 322.206477 574.622148 287.629457 569.076073 
C 253.052436 563.529998 220.057821 550.653498 190.86442 531.312488 
C 161.67102 511.971478 136.948235 486.609444 118.358614 456.931922 
C 99.768993 427.2544 87.738793 393.941893 83.077017 359.234586 
C 78.41524 324.527279 81.228782 289.221007 91.328436 255.690032 
C 101.428091 222.159057 118.582276 191.17224 141.637412 164.813371 
C 164.692549 138.454502 193.119986 117.327985 225.008046 102.85453 
C 256.896107 88.381074 291.513601 80.892554 326.532586 80.892554 
z
" style="fill: #f4f5f5; stroke: #ffffff; stroke-linejoin: miter"/>
   </g>
   <g id="patch_7">
    <path d="M 397.832707 587.163623 
C 460.929146 569.902382 515.659789 530.302188 551.78849 475.769372 
C 587.917191 421.236556 603.041841 355.396874 594.33371 290.56417 
C 585.625579 225.731467 553.66365 166.21631 504.42569 123.149684 
C 455.18773 80.083058 391.94745 56.328357 326.532536 56.328369 
L 326.53254 80.892554 
C 386.000644 80.892543 443.491807 102.487725 488.253589 141.639203 
C 533.015372 180.790682 562.07167 234.89537 569.988153 293.834191 
C 577.904636 352.773013 564.154954 412.627269 531.310681 462.202556 
C 498.466407 511.777843 448.711277 547.77802 391.350878 563.470057 
z
" style="fill: #f6aeb1; stroke: #ffffff; stroke-linejoin: miter"/>
   </g>
   <g id="patch_8">
    <path d="M 326.532586 80.892554 
C 291.233932 80.892554 256.346484 88.501162 224.253213 103.198674 
C 192.159941 117.896187 163.608576 139.340173 140.549306 166.06591 
C 117.490036 192.791647 100.460111 224.176462 90.622751 258.076629 
C 80.785392 291.976796 78.369795 327.602487 83.540958 362.520305 
C 88.712121 397.438124 101.349563 430.834531 120.590087 460.428402 
C 139.830612 490.022272 165.225942 515.124108 195.041461 534.01934 
C 224.85698 552.914573 258.398026 565.162967 293.373594 569.927904 
C 328.349161 574.692841 363.944367 571.863302 397.727896 561.632559 
L 390.608365 538.122743 
C 360.203189 547.330412 328.167504 549.876996 296.689493 545.588554 
C 265.211482 541.300111 235.02454 530.276555 208.190573 513.270846 
C 181.356606 496.265137 158.500809 473.673485 141.184337 447.039002 
C 123.867865 420.404518 112.494168 390.347751 107.840121 358.921715 
C 103.186075 327.495678 105.360111 295.432556 114.213735 264.922406 
C 123.067358 234.412256 138.394291 206.165923 159.147634 182.112759 
C 179.900977 158.059596 205.597206 138.760009 234.48115 125.532247 
C 263.365094 112.304485 294.763798 105.456738 326.532586 105.456738 
z
" style="fill: #f4f5f5; stroke: #ffffff; stroke-linejoin: miter"/>
   </g>
   <g id="patch_9">
    <path d="M 397.727896 561.632559 
C 454.097549 544.562009 502.489806 507.774337 534.017527 458.025526 
C 565.545247 408.276714 578.15258 348.81077 569.524214 290.548495 
C 560.895848 232.286219 531.594419 179.026764 487.001076 140.55112 
C 442.407733 102.075476 385.430306 80.892554 326.532586 80.892554 
L 326.532586 105.456738 
C 379.540534 105.456738 430.820218 124.521369 470.954227 159.149448 
C 511.088236 193.777528 537.459522 241.711037 545.225051 294.147085 
C 552.990581 346.583133 541.643981 400.102482 513.269033 444.876413 
C 484.894084 489.650343 441.341053 522.759248 390.608365 538.122743 
z
" style="fill: #f6aeb1; stroke: #ffffff; stroke-linejoin: miter"/>
   </g>
   <g id="patch_10">
    <path d="M 326.532586 105.456738 
C 293.645229 105.456738 261.168528 112.795188 231.476364 126.935685 
C 201.7842 141.076181 175.61809 161.665587 154.890642 187.198922 
C 134.163195 212.732256 119.392047 242.571863 111.656894 274.536619 
C 103.921741 306.501376 103.415756 339.793011 110.175925 371.978075 
C 116.936094 404.163139 130.793592 434.43786 150.735505 460.58931 
C 170.677419 486.740759 196.20573 508.115845 225.454449 523.152158 
C 254.703168 538.18847 286.941853 546.5105 319.814019 547.509949 
C 352.686186 548.509398 385.370903 542.161307 415.479083 528.929689 
L 405.596139 506.441324 
C 378.833312 518.202762 349.78023 523.84551 320.560527 522.95711 
C 291.340823 522.068711 262.684214 514.671351 236.685353 501.30574 
C 210.686492 487.940129 187.99466 468.940053 170.268514 445.69432 
C 152.542369 422.448587 140.224593 395.537723 134.215554 366.928778 
C 128.206515 338.319832 128.656279 308.727267 135.531971 280.314151 
C 142.407662 251.901034 155.537572 225.376939 173.96197 202.680641 
C 192.386367 179.984344 215.645132 161.68265 242.038167 149.11332 
C 268.431201 136.54399 297.29938 130.020923 326.532586 130.020923 
z
" style="fill: #f4f5f5; stroke: #ffffff; stroke-linejoin: miter"/>
   </g>
   <g id="patch_11">
    <path d="M 415.479083 528.929689 
C 461.923183 508.518938 499.955724 472.730846 523.150349 427.612528 
C 546.344973 382.49421 553.31731 330.738551 542.889243 281.090705 
C 532.461177 231.442859 505.255106 186.866055 465.868041 154.892437 
C 426.480975 122.918818 377.263731 105.456729 326.532545 105.456738 
L 326.532549 130.020923 
C 371.626937 130.020915 415.375598 145.542772 450.386323 173.963766 
C 485.397048 202.38476 509.580222 242.008585 518.849615 286.140004 
C 528.119007 330.271423 521.921374 376.276453 501.303931 416.381625 
C 480.686487 456.486797 446.879784 488.298433 405.596139 506.441324 
z
" style="fill: #f6b1b5; stroke: #ffffff; stroke-linejoin: miter"/>
   </g>
   <g id="patch_12">
    <path d="M 326.532586 130.020923 
C 296.653449 130.020923 267.164129 136.835439 240.314312 149.944605 
C 213.464496 163.05377 189.954774 182.115528 171.57866 205.675691 
C 153.202547 229.235855 140.439528 256.67967 134.263273 285.913499 
C 128.087017 315.147327 128.65868 345.408372 135.934652 374.388073 
C 143.210624 403.367775 157.001052 430.309967 176.25389 453.15928 
C 195.506728 476.008592 219.719614 494.168819 247.045388 506.254549 
C 274.371163 518.34028 304.096819 524.036161 333.954637 522.907666 
C 363.812456 521.779171 393.023361 513.855745 419.358905 499.741851 
L 407.755615 478.09092 
C 384.712014 490.440577 359.152473 497.373575 333.026881 498.361008 
C 306.901289 499.348441 280.891341 494.364545 256.981288 483.78953 
C 233.071235 473.214516 211.884961 457.324318 195.038727 437.33117 
C 178.192494 417.338021 166.125869 393.763603 159.759394 368.406364 
C 153.392919 343.049126 152.892713 316.570711 158.296937 290.991111 
C 163.701161 265.411512 174.868802 241.398173 190.947901 220.78303 
C 207.027 200.167887 227.598007 183.488849 251.091596 172.018329 
C 274.585186 160.547809 300.388341 154.585108 326.532586 154.585108 
z
" style="fill: #f4f5f5; stroke: #ffffff; stroke-linejoin: miter"/>
   </g>
   <g id="patch_13">
    <path d="M 419.358905 499.741851 
C 457.949443 479.060192 488.54302 446.063169 506.252732 406.021606 
C 523.962443 365.980043 527.792297 321.145875 517.130525 278.680744 
C 506.468753 236.215614 481.914974 198.507759 447.391317 171.580491 
C 412.867659 144.653223 370.315732 130.020931 326.532623 130.020923 
L 326.532618 154.585108 
C 364.842839 154.585115 402.075775 167.38837 432.283975 190.94973 
C 462.492176 214.511089 483.976732 247.505462 493.305783 284.662451 
C 502.634833 321.81944 499.283711 361.049338 483.787713 396.085705 
C 468.291716 431.122073 441.522336 459.994468 407.755615 478.09092 
z
" style="fill: #f6b3b6; stroke: #ffffff; stroke-linejoin: miter"/>
   </g>
   <g id="patch_14">
    <path d="M 326.532586 154.585108 
C 297.48912 154.585108 268.913626 161.943582 243.482448 175.971345 
C 218.05127 189.999107 196.583945 210.244105 181.091074 234.810218 
C 165.598203 259.37633 156.579054 287.471898 154.87835 316.465528 
C 153.177645 345.459157 158.850191 374.416509 171.364704 400.625475 
C 183.879217 426.834441 202.832408 449.45042 226.449147 466.35523 
C 250.065886 483.260039 277.585108 493.908909 306.429397 497.304482 
C 335.273686 500.700055 364.513517 496.732905 391.410325 485.77459 
C 418.307133 474.816276 441.994151 457.219935 460.252883 434.63362 
L 441.149983 419.190874 
C 425.499642 438.550573 405.196484 453.63315 382.142077 463.025991 
C 359.08767 472.418832 334.024958 475.819247 309.301281 472.908756 
C 284.577605 469.998265 260.989701 460.870662 240.746781 446.380825 
C 220.503862 431.890989 204.258269 412.505864 193.531544 390.041036 
C 182.804819 367.576208 177.942637 342.75562 179.400383 317.903938 
C 180.85813 293.052256 188.588829 268.97034 201.868433 247.913672 
C 215.148037 226.857004 233.548601 209.504149 255.346754 197.480352 
C 277.144906 185.456556 301.638187 179.149292 326.532586 179.149292 
z
" style="fill: #f4f5f5; stroke: #ffffff; stroke-linejoin: miter"/>
   </g>
   <g id="patch_15">
    <path d="M 460.252883 434.63362 
C 480.65998 409.389746 493.507562 378.875773 497.302667 346.637597 
C 501.097772 314.399421 495.687473 281.736115 481.700476 252.44334 
C 467.713479 223.150564 445.713405 198.408703 418.256789 181.092901 
C 390.800173 163.777098 358.993407 154.585114 326.532618 154.585108 
L 326.532614 179.149292 
C 354.356147 179.149298 381.619089 187.028141 405.153331 201.870258 
C 428.687574 216.712374 447.54478 237.919683 459.533634 263.027777 
C 471.522489 288.13587 476.159889 316.13299 472.906941 343.765712 
C 469.653994 371.398434 458.641781 397.553268 441.149983 419.190874 
z
" style="fill: #f8c0c2; stroke: #ffffff; stroke-linejoin: miter"/>
   </g>
   <g id="patch_16">
    <path d="M 326.532586 179.149292 
C 301.136374 179.149292 276.1661 185.713398 254.052982 198.202499 
C 231.939864 210.691599 213.425653 228.686767 200.312976 250.435912 
C 187.200298 272.185057 179.928999 296.958637 179.207044 322.344585 
C 178.485089 347.730534 184.336695 372.877319 196.192124 395.336535 
C 208.047553 417.795752 225.509132 436.814041 246.876724 450.539697 
C 268.244316 464.265352 292.801178 472.237968 318.156343 473.681294 
C 343.511509 475.124621 368.814478 469.990244 391.60164 458.77807 
C 414.388802 447.565895 433.895797 430.652019 448.223336 409.683251 
L 427.941544 395.825109 
C 416.001929 413.299082 399.7461 427.39398 380.756798 436.737458 
C 361.767496 446.080937 340.681689 450.359584 319.552384 449.156812 
C 298.423079 447.95404 277.959028 441.310193 260.152701 429.872147 
C 242.346374 418.434101 227.795058 402.585527 217.915534 383.869513 
C 208.03601 365.153499 203.159672 344.197845 203.761301 323.042888 
C 204.36293 301.88793 210.422346 281.24328 221.349578 263.118993 
C 232.276809 244.994706 247.705318 229.998733 266.132916 219.591149 
C 284.560514 209.183565 305.369076 203.713477 326.532586 203.713477 
z
" style="fill: #f4f5f5; stroke: #ffffff; stroke-linejoin: miter"/>
   </g>
   <g id="patch_17">
    <path d="M 448.223336 409.683251 
C 463.352493 387.541291 472.155399 361.684423 473.67948 334.91065 
C 475.203561 308.136876 469.391787 281.448076 456.873055 257.732277 
C 444.354324 234.016478 425.597088 214.161128 402.631092 200.3148 
C 379.665096 186.468472 353.349731 179.149297 326.532614 179.149292 
L 326.532609 203.713477 
C 348.880207 203.713481 370.809678 209.812794 389.948008 221.3514 
C 409.086338 232.890007 424.717367 249.436131 435.149644 269.199297 
C 445.58192 288.962463 450.425066 311.20313 449.154998 333.514608 
C 447.88493 355.826086 440.549175 377.373476 427.941544 395.825109 
z
" style="fill: #f8c1c4; stroke: #ffffff; stroke-linejoin: miter"/>
   </g>
   <g id="patch_18">
    <path d="M 326.532586 203.713477 
C 302.877333 203.713477 279.718266 210.547463 259.852698 223.389979 
C 239.98713 236.232494 224.24845 254.544778 214.537686 276.114944 
C 204.826923 297.68511 201.551455 321.608259 205.106917 344.994787 
C 208.662379 368.381315 218.899614 390.250123 234.582098 407.959745 
C 250.264581 425.669366 270.734411 438.476858 293.519098 444.83524 
C 316.303785 451.193623 340.44748 450.836153 363.033938 443.80601 
C 385.620396 436.775866 405.702083 423.367973 420.853394 405.201829 
C 436.004704 387.035686 445.590019 364.873386 448.451557 341.391849 
L 424.067763 338.420359 
C 421.778532 357.205589 414.110281 374.935428 401.989232 389.468344 
C 389.868184 404.001259 373.802834 414.727573 355.733668 420.351688 
C 337.664501 425.975803 318.349546 426.261778 300.121796 421.175072 
C 281.894046 416.088366 265.518182 405.842373 252.972195 391.674676 
C 240.426208 377.506979 232.23642 360.011932 229.392051 341.30271 
C 226.547681 322.593487 229.168055 303.454968 236.936666 286.198835 
C 244.705278 268.942702 257.296221 254.292875 273.188676 244.018863 
C 289.08113 233.74485 307.608384 228.277662 326.532586 228.277662 
z
" style="fill: #f4f5f5; stroke: #ffffff; stroke-linejoin: miter"/>
   </g>
   <g id="patch_19">
    <path d="M 448.451557 341.391849 
C 450.554312 324.136814 448.970185 306.630343 443.804194 290.033043 
C 438.638204 273.435743 430.007093 258.12268 418.483067 245.109047 
C 406.959042 232.095413 392.802522 221.675292 376.952027 214.539493 
C 361.101532 207.403695 343.915251 203.713474 326.532563 203.713477 
L 326.532568 228.277662 
C 340.438718 228.277659 354.187743 231.229836 366.868139 236.938475 
C 379.548535 242.647113 390.873751 250.983211 400.092971 261.394117 
C 409.312192 271.805024 416.217081 284.055474 420.349873 297.333314 
C 424.482665 310.611154 425.749967 324.616331 424.067763 338.420359 
z
" style="fill: #fad0d2; stroke: #ffffff; stroke-linejoin: miter"/>
   </g>
   <g id="patch_20">
    <path d="M 326.532586 228.277662 
C 307.419374 228.277662 288.715166 233.854606 272.722917 244.321833 
C 256.730667 254.789061 244.134815 269.698595 236.486222 287.214699 
C 228.837629 304.730804 226.463641 324.103823 229.656555 342.948456 
C 232.849469 361.793089 241.472635 379.302821 254.464326 393.321768 
C 267.456017 407.340715 284.260213 417.268892 302.807899 421.883893 
C 321.355585 426.498895 340.852955 425.603207 358.899397 419.307113 
C 376.94584 413.011018 392.769001 401.583977 404.420655 386.432942 
C 416.07231 371.281908 423.053789 353.055316 424.505499 333.997314 
L 400.012271 332.131586 
C 398.923488 346.425087 393.687379 360.095031 384.948638 371.458307 
C 376.209897 382.821583 364.342526 391.391863 350.807694 396.113934 
C 337.272863 400.836006 322.649835 401.507771 308.739071 398.04652 
C 294.828306 394.585269 282.225159 387.139136 272.481391 376.624926 
C 262.737623 366.110716 256.270249 352.978417 253.875563 338.844942 
C 251.480877 324.711467 253.261368 310.181703 258.997813 297.044625 
C 264.734257 283.907546 274.181147 272.725396 286.175334 264.874975 
C 298.169521 257.024554 312.197677 252.841846 326.532586 252.841846 
z
" style="fill: #f4f5f5; stroke: #ffffff; stroke-linejoin: miter"/>
   </g>
   <g id="patch_21">
    <path d="M 424.505499 333.997314 
C 425.533276 320.50468 423.762792 306.944062 419.305299 294.167589 
C 414.847806 281.391116 407.79867 269.672129 398.600847 259.747032 
C 389.403023 249.821935 378.253293 241.903066 365.852287 236.488035 
C 353.451281 231.073004 340.064309 228.277662 326.532586 228.277662 
L 326.532586 252.841846 
C 336.681378 252.841846 346.721607 254.938353 356.022362 258.999626 
C 365.323116 263.0609 373.685414 269.000051 380.583781 276.443874 
C 387.482149 283.887697 392.769001 292.676937 396.112121 302.259292 
C 399.45524 311.841647 400.783104 322.01211 400.012271 332.131586 
z
" style="fill: #fad0d2; stroke: #ffffff; stroke-linejoin: miter"/>
   </g>
   <g id="matplotlib.axis_1"/>
   <g id="matplotlib.axis_2"/>
   <g id="text_1">
    <!-- AUPRC_0 on generalized models -->
    <g transform="translate(190.570711 94.3392) scale(0.168 -0.168)">
     <defs>
      <path id="DejaVuSans-41" d="M 2188 4044 
L 1331 1722 
L 3047 1722 
L 2188 4044 
z
M 1831 4666 
L 2547 4666 
L 4325 0 
L 3669 0 
L 3244 1197 
L 1141 1197 
L 716 0 
L 50 0 
L 1831 4666 
z
" transform="scale(0.015625)"/>
      <path id="DejaVuSans-55" d="M 556 4666 
L 1191 4666 
L 1191 1831 
Q 1191 1081 1462 751 
Q 1734 422 2344 422 
Q 2950 422 3222 751 
Q 3494 1081 3494 1831 
L 3494 4666 
L 4128 4666 
L 4128 1753 
Q 4128 841 3676 375 
Q 3225 -91 2344 -91 
Q 1459 -91 1007 375 
Q 556 841 556 1753 
L 556 4666 
z
" transform="scale(0.015625)"/>
      <path id="DejaVuSans-50" d="M 1259 4147 
L 1259 2394 
L 2053 2394 
Q 2494 2394 2734 2622 
Q 2975 2850 2975 3272 
Q 2975 3691 2734 3919 
Q 2494 4147 2053 4147 
L 1259 4147 
z
M 628 4666 
L 2053 4666 
Q 2838 4666 3239 4311 
Q 3641 3956 3641 3272 
Q 3641 2581 3239 2228 
Q 2838 1875 2053 1875 
L 1259 1875 
L 1259 0 
L 628 0 
L 628 4666 
z
" transform="scale(0.015625)"/>
      <path id="DejaVuSans-52" d="M 2841 2188 
Q 3044 2119 3236 1894 
Q 3428 1669 3622 1275 
L 4263 0 
L 3584 0 
L 2988 1197 
Q 2756 1666 2539 1819 
Q 2322 1972 1947 1972 
L 1259 1972 
L 1259 0 
L 628 0 
L 628 4666 
L 2053 4666 
Q 2853 4666 3247 4331 
Q 3641 3997 3641 3322 
Q 3641 2881 3436 2590 
Q 3231 2300 2841 2188 
z
M 1259 4147 
L 1259 2491 
L 2053 2491 
Q 2509 2491 2742 2702 
Q 2975 2913 2975 3322 
Q 2975 3731 2742 3939 
Q 2509 4147 2053 4147 
L 1259 4147 
z
" transform="scale(0.015625)"/>
      <path id="DejaVuSans-43" d="M 4122 4306 
L 4122 3641 
Q 3803 3938 3442 4084 
Q 3081 4231 2675 4231 
Q 1875 4231 1450 3742 
Q 1025 3253 1025 2328 
Q 1025 1406 1450 917 
Q 1875 428 2675 428 
Q 3081 428 3442 575 
Q 3803 722 4122 1019 
L 4122 359 
Q 3791 134 3420 21 
Q 3050 -91 2638 -91 
Q 1578 -91 968 557 
Q 359 1206 359 2328 
Q 359 3453 968 4101 
Q 1578 4750 2638 4750 
Q 3056 4750 3426 4639 
Q 3797 4528 4122 4306 
z
" transform="scale(0.015625)"/>
      <path id="DejaVuSans-5f" d="M 3263 -1063 
L 3263 -1509 
L -63 -1509 
L -63 -1063 
L 3263 -1063 
z
" transform="scale(0.015625)"/>
      <path id="DejaVuSans-30" d="M 2034 4250 
Q 1547 4250 1301 3770 
Q 1056 3291 1056 2328 
Q 1056 1369 1301 889 
Q 1547 409 2034 409 
Q 2525 409 2770 889 
Q 3016 1369 3016 2328 
Q 3016 3291 2770 3770 
Q 2525 4250 2034 4250 
z
M 2034 4750 
Q 2819 4750 3233 4129 
Q 3647 3509 3647 2328 
Q 3647 1150 3233 529 
Q 2819 -91 2034 -91 
Q 1250 -91 836 529 
Q 422 1150 422 2328 
Q 422 3509 836 4129 
Q 1250 4750 2034 4750 
z
" transform="scale(0.015625)"/>
      <path id="DejaVuSans-20" transform="scale(0.015625)"/>
      <path id="DejaVuSans-6f" d="M 1959 3097 
Q 1497 3097 1228 2736 
Q 959 2375 959 1747 
Q 959 1119 1226 758 
Q 1494 397 1959 397 
Q 2419 397 2687 759 
Q 2956 1122 2956 1747 
Q 2956 2369 2687 2733 
Q 2419 3097 1959 3097 
z
M 1959 3584 
Q 2709 3584 3137 3096 
Q 3566 2609 3566 1747 
Q 3566 888 3137 398 
Q 2709 -91 1959 -91 
Q 1206 -91 779 398 
Q 353 888 353 1747 
Q 353 2609 779 3096 
Q 1206 3584 1959 3584 
z
" transform="scale(0.015625)"/>
      <path id="DejaVuSans-6e" d="M 3513 2113 
L 3513 0 
L 2938 0 
L 2938 2094 
Q 2938 2591 2744 2837 
Q 2550 3084 2163 3084 
Q 1697 3084 1428 2787 
Q 1159 2491 1159 1978 
L 1159 0 
L 581 0 
L 581 3500 
L 1159 3500 
L 1159 2956 
Q 1366 3272 1645 3428 
Q 1925 3584 2291 3584 
Q 2894 3584 3203 3211 
Q 3513 2838 3513 2113 
z
" transform="scale(0.015625)"/>
      <path id="DejaVuSans-67" d="M 2906 1791 
Q 2906 2416 2648 2759 
Q 2391 3103 1925 3103 
Q 1463 3103 1205 2759 
Q 947 2416 947 1791 
Q 947 1169 1205 825 
Q 1463 481 1925 481 
Q 2391 481 2648 825 
Q 2906 1169 2906 1791 
z
M 3481 434 
Q 3481 -459 3084 -895 
Q 2688 -1331 1869 -1331 
Q 1566 -1331 1297 -1286 
Q 1028 -1241 775 -1147 
L 775 -588 
Q 1028 -725 1275 -790 
Q 1522 -856 1778 -856 
Q 2344 -856 2625 -561 
Q 2906 -266 2906 331 
L 2906 616 
Q 2728 306 2450 153 
Q 2172 0 1784 0 
Q 1141 0 747 490 
Q 353 981 353 1791 
Q 353 2603 747 3093 
Q 1141 3584 1784 3584 
Q 2172 3584 2450 3431 
Q 2728 3278 2906 2969 
L 2906 3500 
L 3481 3500 
L 3481 434 
z
" transform="scale(0.015625)"/>
      <path id="DejaVuSans-65" d="M 3597 1894 
L 3597 1613 
L 953 1613 
Q 991 1019 1311 708 
Q 1631 397 2203 397 
Q 2534 397 2845 478 
Q 3156 559 3463 722 
L 3463 178 
Q 3153 47 2828 -22 
Q 2503 -91 2169 -91 
Q 1331 -91 842 396 
Q 353 884 353 1716 
Q 353 2575 817 3079 
Q 1281 3584 2069 3584 
Q 2775 3584 3186 3129 
Q 3597 2675 3597 1894 
z
M 3022 2063 
Q 3016 2534 2758 2815 
Q 2500 3097 2075 3097 
Q 1594 3097 1305 2825 
Q 1016 2553 972 2059 
L 3022 2063 
z
" transform="scale(0.015625)"/>
      <path id="DejaVuSans-72" d="M 2631 2963 
Q 2534 3019 2420 3045 
Q 2306 3072 2169 3072 
Q 1681 3072 1420 2755 
Q 1159 2438 1159 1844 
L 1159 0 
L 581 0 
L 581 3500 
L 1159 3500 
L 1159 2956 
Q 1341 3275 1631 3429 
Q 1922 3584 2338 3584 
Q 2397 3584 2469 3576 
Q 2541 3569 2628 3553 
L 2631 2963 
z
" transform="scale(0.015625)"/>
      <path id="DejaVuSans-61" d="M 2194 1759 
Q 1497 1759 1228 1600 
Q 959 1441 959 1056 
Q 959 750 1161 570 
Q 1363 391 1709 391 
Q 2188 391 2477 730 
Q 2766 1069 2766 1631 
L 2766 1759 
L 2194 1759 
z
M 3341 1997 
L 3341 0 
L 2766 0 
L 2766 531 
Q 2569 213 2275 61 
Q 1981 -91 1556 -91 
Q 1019 -91 701 211 
Q 384 513 384 1019 
Q 384 1609 779 1909 
Q 1175 2209 1959 2209 
L 2766 2209 
L 2766 2266 
Q 2766 2663 2505 2880 
Q 2244 3097 1772 3097 
Q 1472 3097 1187 3025 
Q 903 2953 641 2809 
L 641 3341 
Q 956 3463 1253 3523 
Q 1550 3584 1831 3584 
Q 2591 3584 2966 3190 
Q 3341 2797 3341 1997 
z
" transform="scale(0.015625)"/>
      <path id="DejaVuSans-6c" d="M 603 4863 
L 1178 4863 
L 1178 0 
L 603 0 
L 603 4863 
z
" transform="scale(0.015625)"/>
      <path id="DejaVuSans-69" d="M 603 3500 
L 1178 3500 
L 1178 0 
L 603 0 
L 603 3500 
z
M 603 4863 
L 1178 4863 
L 1178 4134 
L 603 4134 
L 603 4863 
z
" transform="scale(0.015625)"/>
      <path id="DejaVuSans-7a" d="M 353 3500 
L 3084 3500 
L 3084 2975 
L 922 459 
L 3084 459 
L 3084 0 
L 275 0 
L 275 525 
L 2438 3041 
L 353 3041 
L 353 3500 
z
" transform="scale(0.015625)"/>
      <path id="DejaVuSans-64" d="M 2906 2969 
L 2906 4863 
L 3481 4863 
L 3481 0 
L 2906 0 
L 2906 525 
Q 2725 213 2448 61 
Q 2172 -91 1784 -91 
Q 1150 -91 751 415 
Q 353 922 353 1747 
Q 353 2572 751 3078 
Q 1150 3584 1784 3584 
Q 2172 3584 2448 3432 
Q 2725 3281 2906 2969 
z
M 947 1747 
Q 947 1113 1208 752 
Q 1469 391 1925 391 
Q 2381 391 2643 752 
Q 2906 1113 2906 1747 
Q 2906 2381 2643 2742 
Q 2381 3103 1925 3103 
Q 1469 3103 1208 2742 
Q 947 2381 947 1747 
z
" transform="scale(0.015625)"/>
      <path id="DejaVuSans-6d" d="M 3328 2828 
Q 3544 3216 3844 3400 
Q 4144 3584 4550 3584 
Q 5097 3584 5394 3201 
Q 5691 2819 5691 2113 
L 5691 0 
L 5113 0 
L 5113 2094 
Q 5113 2597 4934 2840 
Q 4756 3084 4391 3084 
Q 3944 3084 3684 2787 
Q 3425 2491 3425 1978 
L 3425 0 
L 2847 0 
L 2847 2094 
Q 2847 2600 2669 2842 
Q 2491 3084 2119 3084 
Q 1678 3084 1418 2786 
Q 1159 2488 1159 1978 
L 1159 0 
L 581 0 
L 581 3500 
L 1159 3500 
L 1159 2956 
Q 1356 3278 1631 3431 
Q 1906 3584 2284 3584 
Q 2666 3584 2933 3390 
Q 3200 3197 3328 2828 
z
" transform="scale(0.015625)"/>
      <path id="DejaVuSans-73" d="M 2834 3397 
L 2834 2853 
Q 2591 2978 2328 3040 
Q 2066 3103 1784 3103 
Q 1356 3103 1142 2972 
Q 928 2841 928 2578 
Q 928 2378 1081 2264 
Q 1234 2150 1697 2047 
L 1894 2003 
Q 2506 1872 2764 1633 
Q 3022 1394 3022 966 
Q 3022 478 2636 193 
Q 2250 -91 1575 -91 
Q 1294 -91 989 -36 
Q 684 19 347 128 
L 347 722 
Q 666 556 975 473 
Q 1284 391 1588 391 
Q 1994 391 2212 530 
Q 2431 669 2431 922 
Q 2431 1156 2273 1281 
Q 2116 1406 1581 1522 
L 1381 1569 
Q 847 1681 609 1914 
Q 372 2147 372 2553 
Q 372 3047 722 3315 
Q 1072 3584 1716 3584 
Q 2034 3584 2315 3537 
Q 2597 3491 2834 3397 
z
" transform="scale(0.015625)"/>
     </defs>
     <use xlink:href="#DejaVuSans-41"/>
     <use xlink:href="#DejaVuSans-55" x="68.408203"/>
     <use xlink:href="#DejaVuSans-50" x="141.601562"/>
     <use xlink:href="#DejaVuSans-52" x="201.904297"/>
     <use xlink:href="#DejaVuSans-43" x="266.386719"/>
     <use xlink:href="#DejaVuSans-5f" x="336.210938"/>
     <use xlink:href="#DejaVuSans-30" x="386.210938"/>
     <use xlink:href="#DejaVuSans-20" x="449.833984"/>
     <use xlink:href="#DejaVuSans-6f" x="481.621094"/>
     <use xlink:href="#DejaVuSans-6e" x="542.802734"/>
     <use xlink:href="#DejaVuSans-20" x="606.181641"/>
     <use xlink:href="#DejaVuSans-67" x="637.96875"/>
     <use xlink:href="#DejaVuSans-65" x="701.445312"/>
     <use xlink:href="#DejaVuSans-6e" x="762.96875"/>
     <use xlink:href="#DejaVuSans-65" x="826.347656"/>
     <use xlink:href="#DejaVuSans-72" x="887.871094"/>
     <use xlink:href="#DejaVuSans-61" x="928.984375"/>
     <use xlink:href="#DejaVuSans-6c" x="990.263672"/>
     <use xlink:href="#DejaVuSans-69" x="1018.046875"/>
     <use xlink:href="#DejaVuSans-7a" x="1045.830078"/>
     <use xlink:href="#DejaVuSans-65" x="1098.320312"/>
     <use xlink:href="#DejaVuSans-64" x="1159.84375"/>
     <use xlink:href="#DejaVuSans-20" x="1223.320312"/>
     <use xlink:href="#DejaVuSans-6d" x="1255.107422"/>
     <use xlink:href="#DejaVuSans-6f" x="1352.519531"/>
     <use xlink:href="#DejaVuSans-64" x="1413.701172"/>
     <use xlink:href="#DejaVuSans-65" x="1477.177734"/>
     <use xlink:href="#DejaVuSans-6c" x="1538.701172"/>
     <use xlink:href="#DejaVuSans-73" x="1566.484375"/>
    </g>
   </g>
   <g id="legend_1">
    <g id="patch_22">
     <path d="M 595.444586 326.5344 
L 888.987399 326.5344 
Q 891.787399 326.5344 891.787399 323.7344 
L 891.787399 97.1444 
Q 891.787399 94.3444 888.987399 94.3444 
L 595.444586 94.3444 
Q 592.644586 94.3444 592.644586 97.1444 
L 592.644586 323.7344 
Q 592.644586 326.5344 595.444586 326.5344 
z
" style="fill: #ffffff; opacity: 0.8; stroke: #cccccc; stroke-linejoin: miter"/>
    </g>
    <g id="text_2">
     <!-- Models -->
     <g transform="translate(717.550836 110.582212) scale(0.14 -0.14)">
      <defs>
       <path id="DejaVuSans-4d" d="M 628 4666 
L 1569 4666 
L 2759 1491 
L 3956 4666 
L 4897 4666 
L 4897 0 
L 4281 0 
L 4281 4097 
L 3078 897 
L 2444 897 
L 1241 4097 
L 1241 0 
L 628 0 
L 628 4666 
z
" transform="scale(0.015625)"/>
      </defs>
      <use xlink:href="#DejaVuSans-4d"/>
      <use xlink:href="#DejaVuSans-6f" x="86.279297"/>
      <use xlink:href="#DejaVuSans-64" x="147.460938"/>
      <use xlink:href="#DejaVuSans-65" x="210.9375"/>
      <use xlink:href="#DejaVuSans-6c" x="272.460938"/>
      <use xlink:href="#DejaVuSans-73" x="300.244141"/>
     </g>
    </g>
    <g id="patch_23">
     <path d="M 598.244586 131.131587 
L 626.244586 131.131587 
L 626.244586 121.331587 
L 598.244586 121.331587 
z
" style="fill: #f39ba0; stroke: #ffffff; stroke-linejoin: miter"/>
    </g>
    <g id="text_3">
     <!-- xgboost (55.36%) -->
     <g transform="translate(637.444586 131.131587) scale(0.14 -0.14)">
      <defs>
       <path id="DejaVuSans-78" d="M 3513 3500 
L 2247 1797 
L 3578 0 
L 2900 0 
L 1881 1375 
L 863 0 
L 184 0 
L 1544 1831 
L 300 3500 
L 978 3500 
L 1906 2253 
L 2834 3500 
L 3513 3500 
z
" transform="scale(0.015625)"/>
       <path id="DejaVuSans-62" d="M 3116 1747 
Q 3116 2381 2855 2742 
Q 2594 3103 2138 3103 
Q 1681 3103 1420 2742 
Q 1159 2381 1159 1747 
Q 1159 1113 1420 752 
Q 1681 391 2138 391 
Q 2594 391 2855 752 
Q 3116 1113 3116 1747 
z
M 1159 2969 
Q 1341 3281 1617 3432 
Q 1894 3584 2278 3584 
Q 2916 3584 3314 3078 
Q 3713 2572 3713 1747 
Q 3713 922 3314 415 
Q 2916 -91 2278 -91 
Q 1894 -91 1617 61 
Q 1341 213 1159 525 
L 1159 0 
L 581 0 
L 581 4863 
L 1159 4863 
L 1159 2969 
z
" transform="scale(0.015625)"/>
       <path id="DejaVuSans-74" d="M 1172 4494 
L 1172 3500 
L 2356 3500 
L 2356 3053 
L 1172 3053 
L 1172 1153 
Q 1172 725 1289 603 
Q 1406 481 1766 481 
L 2356 481 
L 2356 0 
L 1766 0 
Q 1100 0 847 248 
Q 594 497 594 1153 
L 594 3053 
L 172 3053 
L 172 3500 
L 594 3500 
L 594 4494 
L 1172 4494 
z
" transform="scale(0.015625)"/>
       <path id="DejaVuSans-28" d="M 1984 4856 
Q 1566 4138 1362 3434 
Q 1159 2731 1159 2009 
Q 1159 1288 1364 580 
Q 1569 -128 1984 -844 
L 1484 -844 
Q 1016 -109 783 600 
Q 550 1309 550 2009 
Q 550 2706 781 3412 
Q 1013 4119 1484 4856 
L 1984 4856 
z
" transform="scale(0.015625)"/>
       <path id="DejaVuSans-35" d="M 691 4666 
L 3169 4666 
L 3169 4134 
L 1269 4134 
L 1269 2991 
Q 1406 3038 1543 3061 
Q 1681 3084 1819 3084 
Q 2600 3084 3056 2656 
Q 3513 2228 3513 1497 
Q 3513 744 3044 326 
Q 2575 -91 1722 -91 
Q 1428 -91 1123 -41 
Q 819 9 494 109 
L 494 744 
Q 775 591 1075 516 
Q 1375 441 1709 441 
Q 2250 441 2565 725 
Q 2881 1009 2881 1497 
Q 2881 1984 2565 2268 
Q 2250 2553 1709 2553 
Q 1456 2553 1204 2497 
Q 953 2441 691 2322 
L 691 4666 
z
" transform="scale(0.015625)"/>
       <path id="DejaVuSans-2e" d="M 684 794 
L 1344 794 
L 1344 0 
L 684 0 
L 684 794 
z
" transform="scale(0.015625)"/>
       <path id="DejaVuSans-33" d="M 2597 2516 
Q 3050 2419 3304 2112 
Q 3559 1806 3559 1356 
Q 3559 666 3084 287 
Q 2609 -91 1734 -91 
Q 1441 -91 1130 -33 
Q 819 25 488 141 
L 488 750 
Q 750 597 1062 519 
Q 1375 441 1716 441 
Q 2309 441 2620 675 
Q 2931 909 2931 1356 
Q 2931 1769 2642 2001 
Q 2353 2234 1838 2234 
L 1294 2234 
L 1294 2753 
L 1863 2753 
Q 2328 2753 2575 2939 
Q 2822 3125 2822 3475 
Q 2822 3834 2567 4026 
Q 2313 4219 1838 4219 
Q 1578 4219 1281 4162 
Q 984 4106 628 3988 
L 628 4550 
Q 988 4650 1302 4700 
Q 1616 4750 1894 4750 
Q 2613 4750 3031 4423 
Q 3450 4097 3450 3541 
Q 3450 3153 3228 2886 
Q 3006 2619 2597 2516 
z
" transform="scale(0.015625)"/>
       <path id="DejaVuSans-36" d="M 2113 2584 
Q 1688 2584 1439 2293 
Q 1191 2003 1191 1497 
Q 1191 994 1439 701 
Q 1688 409 2113 409 
Q 2538 409 2786 701 
Q 3034 994 3034 1497 
Q 3034 2003 2786 2293 
Q 2538 2584 2113 2584 
z
M 3366 4563 
L 3366 3988 
Q 3128 4100 2886 4159 
Q 2644 4219 2406 4219 
Q 1781 4219 1451 3797 
Q 1122 3375 1075 2522 
Q 1259 2794 1537 2939 
Q 1816 3084 2150 3084 
Q 2853 3084 3261 2657 
Q 3669 2231 3669 1497 
Q 3669 778 3244 343 
Q 2819 -91 2113 -91 
Q 1303 -91 875 529 
Q 447 1150 447 2328 
Q 447 3434 972 4092 
Q 1497 4750 2381 4750 
Q 2619 4750 2861 4703 
Q 3103 4656 3366 4563 
z
" transform="scale(0.015625)"/>
       <path id="DejaVuSans-25" d="M 4653 2053 
Q 4381 2053 4226 1822 
Q 4072 1591 4072 1178 
Q 4072 772 4226 539 
Q 4381 306 4653 306 
Q 4919 306 5073 539 
Q 5228 772 5228 1178 
Q 5228 1588 5073 1820 
Q 4919 2053 4653 2053 
z
M 4653 2450 
Q 5147 2450 5437 2106 
Q 5728 1763 5728 1178 
Q 5728 594 5436 251 
Q 5144 -91 4653 -91 
Q 4153 -91 3862 251 
Q 3572 594 3572 1178 
Q 3572 1766 3864 2108 
Q 4156 2450 4653 2450 
z
M 1428 4353 
Q 1159 4353 1004 4120 
Q 850 3888 850 3481 
Q 850 3069 1003 2837 
Q 1156 2606 1428 2606 
Q 1700 2606 1854 2837 
Q 2009 3069 2009 3481 
Q 2009 3884 1853 4118 
Q 1697 4353 1428 4353 
z
M 4250 4750 
L 4750 4750 
L 1831 -91 
L 1331 -91 
L 4250 4750 
z
M 1428 4750 
Q 1922 4750 2215 4408 
Q 2509 4066 2509 3481 
Q 2509 2891 2217 2550 
Q 1925 2209 1428 2209 
Q 931 2209 642 2551 
Q 353 2894 353 3481 
Q 353 4063 643 4406 
Q 934 4750 1428 4750 
z
" transform="scale(0.015625)"/>
       <path id="DejaVuSans-29" d="M 513 4856 
L 1013 4856 
Q 1481 4119 1714 3412 
Q 1947 2706 1947 2009 
Q 1947 1309 1714 600 
Q 1481 -109 1013 -844 
L 513 -844 
Q 928 -128 1133 580 
Q 1338 1288 1338 2009 
Q 1338 2731 1133 3434 
Q 928 4138 513 4856 
z
" transform="scale(0.015625)"/>
      </defs>
      <use xlink:href="#DejaVuSans-78"/>
      <use xlink:href="#DejaVuSans-67" x="59.179688"/>
      <use xlink:href="#DejaVuSans-62" x="122.65625"/>
      <use xlink:href="#DejaVuSans-6f" x="186.132812"/>
      <use xlink:href="#DejaVuSans-6f" x="247.314453"/>
      <use xlink:href="#DejaVuSans-73" x="308.496094"/>
      <use xlink:href="#DejaVuSans-74" x="360.595703"/>
      <use xlink:href="#DejaVuSans-20" x="399.804688"/>
      <use xlink:href="#DejaVuSans-28" x="431.591797"/>
      <use xlink:href="#DejaVuSans-35" x="470.605469"/>
      <use xlink:href="#DejaVuSans-35" x="534.228516"/>
      <use xlink:href="#DejaVuSans-2e" x="597.851562"/>
      <use xlink:href="#DejaVuSans-33" x="629.638672"/>
      <use xlink:href="#DejaVuSans-36" x="693.261719"/>
      <use xlink:href="#DejaVuSans-25" x="756.884766"/>
      <use xlink:href="#DejaVuSans-29" x="851.904297"/>
     </g>
    </g>
    <g id="patch_24">
     <path d="M 598.244586 151.680962 
L 626.244586 151.680962 
L 626.244586 141.880962 
L 598.244586 141.880962 
z
" style="fill: #f4a3a7; stroke: #ffffff; stroke-linejoin: miter"/>
    </g>
    <g id="text_4">
     <!-- random_forest (51.69%) -->
     <g transform="translate(637.444586 151.680962) scale(0.14 -0.14)">
      <defs>
       <path id="DejaVuSans-66" d="M 2375 4863 
L 2375 4384 
L 1825 4384 
Q 1516 4384 1395 4259 
Q 1275 4134 1275 3809 
L 1275 3500 
L 2222 3500 
L 2222 3053 
L 1275 3053 
L 1275 0 
L 697 0 
L 697 3053 
L 147 3053 
L 147 3500 
L 697 3500 
L 697 3744 
Q 697 4328 969 4595 
Q 1241 4863 1831 4863 
L 2375 4863 
z
" transform="scale(0.015625)"/>
       <path id="DejaVuSans-31" d="M 794 531 
L 1825 531 
L 1825 4091 
L 703 3866 
L 703 4441 
L 1819 4666 
L 2450 4666 
L 2450 531 
L 3481 531 
L 3481 0 
L 794 0 
L 794 531 
z
" transform="scale(0.015625)"/>
       <path id="DejaVuSans-39" d="M 703 97 
L 703 672 
Q 941 559 1184 500 
Q 1428 441 1663 441 
Q 2288 441 2617 861 
Q 2947 1281 2994 2138 
Q 2813 1869 2534 1725 
Q 2256 1581 1919 1581 
Q 1219 1581 811 2004 
Q 403 2428 403 3163 
Q 403 3881 828 4315 
Q 1253 4750 1959 4750 
Q 2769 4750 3195 4129 
Q 3622 3509 3622 2328 
Q 3622 1225 3098 567 
Q 2575 -91 1691 -91 
Q 1453 -91 1209 -44 
Q 966 3 703 97 
z
M 1959 2075 
Q 2384 2075 2632 2365 
Q 2881 2656 2881 3163 
Q 2881 3666 2632 3958 
Q 2384 4250 1959 4250 
Q 1534 4250 1286 3958 
Q 1038 3666 1038 3163 
Q 1038 2656 1286 2365 
Q 1534 2075 1959 2075 
z
" transform="scale(0.015625)"/>
      </defs>
      <use xlink:href="#DejaVuSans-72"/>
      <use xlink:href="#DejaVuSans-61" x="41.113281"/>
      <use xlink:href="#DejaVuSans-6e" x="102.392578"/>
      <use xlink:href="#DejaVuSans-64" x="165.771484"/>
      <use xlink:href="#DejaVuSans-6f" x="229.248047"/>
      <use xlink:href="#DejaVuSans-6d" x="290.429688"/>
      <use xlink:href="#DejaVuSans-5f" x="387.841797"/>
      <use xlink:href="#DejaVuSans-66" x="437.841797"/>
      <use xlink:href="#DejaVuSans-6f" x="473.046875"/>
      <use xlink:href="#DejaVuSans-72" x="534.228516"/>
      <use xlink:href="#DejaVuSans-65" x="573.091797"/>
      <use xlink:href="#DejaVuSans-73" x="634.615234"/>
      <use xlink:href="#DejaVuSans-74" x="686.714844"/>
      <use xlink:href="#DejaVuSans-20" x="725.923828"/>
      <use xlink:href="#DejaVuSans-28" x="757.710938"/>
      <use xlink:href="#DejaVuSans-35" x="796.724609"/>
      <use xlink:href="#DejaVuSans-31" x="860.347656"/>
      <use xlink:href="#DejaVuSans-2e" x="923.970703"/>
      <use xlink:href="#DejaVuSans-36" x="955.757812"/>
      <use xlink:href="#DejaVuSans-39" x="1019.380859"/>
      <use xlink:href="#DejaVuSans-25" x="1083.003906"/>
      <use xlink:href="#DejaVuSans-29" x="1178.023438"/>
     </g>
    </g>
    <g id="patch_25">
     <path d="M 598.244586 172.619712 
L 626.244586 172.619712 
L 626.244586 162.819712 
L 598.244586 162.819712 
z
" style="fill: #f6aeb1; stroke: #ffffff; stroke-linejoin: miter"/>
    </g>
    <g id="text_5">
     <!-- neural_network (45.75%) -->
     <g transform="translate(637.444586 172.619712) scale(0.14 -0.14)">
      <defs>
       <path id="DejaVuSans-75" d="M 544 1381 
L 544 3500 
L 1119 3500 
L 1119 1403 
Q 1119 906 1312 657 
Q 1506 409 1894 409 
Q 2359 409 2629 706 
Q 2900 1003 2900 1516 
L 2900 3500 
L 3475 3500 
L 3475 0 
L 2900 0 
L 2900 538 
Q 2691 219 2414 64 
Q 2138 -91 1772 -91 
Q 1169 -91 856 284 
Q 544 659 544 1381 
z
M 1991 3584 
L 1991 3584 
z
" transform="scale(0.015625)"/>
       <path id="DejaVuSans-77" d="M 269 3500 
L 844 3500 
L 1563 769 
L 2278 3500 
L 2956 3500 
L 3675 769 
L 4391 3500 
L 4966 3500 
L 4050 0 
L 3372 0 
L 2619 2869 
L 1863 0 
L 1184 0 
L 269 3500 
z
" transform="scale(0.015625)"/>
       <path id="DejaVuSans-6b" d="M 581 4863 
L 1159 4863 
L 1159 1991 
L 2875 3500 
L 3609 3500 
L 1753 1863 
L 3688 0 
L 2938 0 
L 1159 1709 
L 1159 0 
L 581 0 
L 581 4863 
z
" transform="scale(0.015625)"/>
       <path id="DejaVuSans-34" d="M 2419 4116 
L 825 1625 
L 2419 1625 
L 2419 4116 
z
M 2253 4666 
L 3047 4666 
L 3047 1625 
L 3713 1625 
L 3713 1100 
L 3047 1100 
L 3047 0 
L 2419 0 
L 2419 1100 
L 313 1100 
L 313 1709 
L 2253 4666 
z
" transform="scale(0.015625)"/>
       <path id="DejaVuSans-37" d="M 525 4666 
L 3525 4666 
L 3525 4397 
L 1831 0 
L 1172 0 
L 2766 4134 
L 525 4134 
L 525 4666 
z
" transform="scale(0.015625)"/>
      </defs>
      <use xlink:href="#DejaVuSans-6e"/>
      <use xlink:href="#DejaVuSans-65" x="63.378906"/>
      <use xlink:href="#DejaVuSans-75" x="124.902344"/>
      <use xlink:href="#DejaVuSans-72" x="188.28125"/>
      <use xlink:href="#DejaVuSans-61" x="229.394531"/>
      <use xlink:href="#DejaVuSans-6c" x="290.673828"/>
      <use xlink:href="#DejaVuSans-5f" x="318.457031"/>
      <use xlink:href="#DejaVuSans-6e" x="368.457031"/>
      <use xlink:href="#DejaVuSans-65" x="431.835938"/>
      <use xlink:href="#DejaVuSans-74" x="493.359375"/>
      <use xlink:href="#DejaVuSans-77" x="532.568359"/>
      <use xlink:href="#DejaVuSans-6f" x="614.355469"/>
      <use xlink:href="#DejaVuSans-72" x="675.537109"/>
      <use xlink:href="#DejaVuSans-6b" x="716.650391"/>
      <use xlink:href="#DejaVuSans-20" x="774.560547"/>
      <use xlink:href="#DejaVuSans-28" x="806.347656"/>
      <use xlink:href="#DejaVuSans-34" x="845.361328"/>
      <use xlink:href="#DejaVuSans-35" x="908.984375"/>
      <use xlink:href="#DejaVuSans-2e" x="972.607422"/>
      <use xlink:href="#DejaVuSans-37" x="1004.394531"/>
      <use xlink:href="#DejaVuSans-35" x="1068.017578"/>
      <use xlink:href="#DejaVuSans-25" x="1131.640625"/>
      <use xlink:href="#DejaVuSans-29" x="1226.660156"/>
     </g>
    </g>
    <g id="patch_26">
     <path d="M 598.244586 193.558462 
L 626.244586 193.558462 
L 626.244586 183.758462 
L 598.244586 183.758462 
z
" style="fill: #f6aeb1; stroke: #ffffff; stroke-linejoin: miter"/>
    </g>
    <g id="text_6">
     <!-- crf (45.32%) -->
     <g transform="translate(637.444586 193.558462) scale(0.14 -0.14)">
      <defs>
       <path id="DejaVuSans-63" d="M 3122 3366 
L 3122 2828 
Q 2878 2963 2633 3030 
Q 2388 3097 2138 3097 
Q 1578 3097 1268 2742 
Q 959 2388 959 1747 
Q 959 1106 1268 751 
Q 1578 397 2138 397 
Q 2388 397 2633 464 
Q 2878 531 3122 666 
L 3122 134 
Q 2881 22 2623 -34 
Q 2366 -91 2075 -91 
Q 1284 -91 818 406 
Q 353 903 353 1747 
Q 353 2603 823 3093 
Q 1294 3584 2113 3584 
Q 2378 3584 2631 3529 
Q 2884 3475 3122 3366 
z
" transform="scale(0.015625)"/>
       <path id="DejaVuSans-32" d="M 1228 531 
L 3431 531 
L 3431 0 
L 469 0 
L 469 531 
Q 828 903 1448 1529 
Q 2069 2156 2228 2338 
Q 2531 2678 2651 2914 
Q 2772 3150 2772 3378 
Q 2772 3750 2511 3984 
Q 2250 4219 1831 4219 
Q 1534 4219 1204 4116 
Q 875 4013 500 3803 
L 500 4441 
Q 881 4594 1212 4672 
Q 1544 4750 1819 4750 
Q 2544 4750 2975 4387 
Q 3406 4025 3406 3419 
Q 3406 3131 3298 2873 
Q 3191 2616 2906 2266 
Q 2828 2175 2409 1742 
Q 1991 1309 1228 531 
z
" transform="scale(0.015625)"/>
      </defs>
      <use xlink:href="#DejaVuSans-63"/>
      <use xlink:href="#DejaVuSans-72" x="54.980469"/>
      <use xlink:href="#DejaVuSans-66" x="96.09375"/>
      <use xlink:href="#DejaVuSans-20" x="131.298828"/>
      <use xlink:href="#DejaVuSans-28" x="163.085938"/>
      <use xlink:href="#DejaVuSans-34" x="202.099609"/>
      <use xlink:href="#DejaVuSans-35" x="265.722656"/>
      <use xlink:href="#DejaVuSans-2e" x="329.345703"/>
      <use xlink:href="#DejaVuSans-33" x="361.132812"/>
      <use xlink:href="#DejaVuSans-32" x="424.755859"/>
      <use xlink:href="#DejaVuSans-25" x="488.378906"/>
      <use xlink:href="#DejaVuSans-29" x="583.398438"/>
     </g>
    </g>
    <g id="patch_27">
     <path d="M 598.244586 214.107837 
L 626.244586 214.107837 
L 626.244586 204.307837 
L 598.244586 204.307837 
z
" style="fill: #f6b1b5; stroke: #ffffff; stroke-linejoin: miter"/>
    </g>
    <g id="text_7">
     <!-- logistic_regression (43.41%) -->
     <g transform="translate(637.444586 214.107837) scale(0.14 -0.14)">
      <use xlink:href="#DejaVuSans-6c"/>
      <use xlink:href="#DejaVuSans-6f" x="27.783203"/>
      <use xlink:href="#DejaVuSans-67" x="88.964844"/>
      <use xlink:href="#DejaVuSans-69" x="152.441406"/>
      <use xlink:href="#DejaVuSans-73" x="180.224609"/>
      <use xlink:href="#DejaVuSans-74" x="232.324219"/>
      <use xlink:href="#DejaVuSans-69" x="271.533203"/>
      <use xlink:href="#DejaVuSans-63" x="299.316406"/>
      <use xlink:href="#DejaVuSans-5f" x="354.296875"/>
      <use xlink:href="#DejaVuSans-72" x="404.296875"/>
      <use xlink:href="#DejaVuSans-65" x="443.160156"/>
      <use xlink:href="#DejaVuSans-67" x="504.683594"/>
      <use xlink:href="#DejaVuSans-72" x="568.160156"/>
      <use xlink:href="#DejaVuSans-65" x="607.023438"/>
      <use xlink:href="#DejaVuSans-73" x="668.546875"/>
      <use xlink:href="#DejaVuSans-73" x="720.646484"/>
      <use xlink:href="#DejaVuSans-69" x="772.746094"/>
      <use xlink:href="#DejaVuSans-6f" x="800.529297"/>
      <use xlink:href="#DejaVuSans-6e" x="861.710938"/>
      <use xlink:href="#DejaVuSans-20" x="925.089844"/>
      <use xlink:href="#DejaVuSans-28" x="956.876953"/>
      <use xlink:href="#DejaVuSans-34" x="995.890625"/>
      <use xlink:href="#DejaVuSans-33" x="1059.513672"/>
      <use xlink:href="#DejaVuSans-2e" x="1123.136719"/>
      <use xlink:href="#DejaVuSans-34" x="1154.923828"/>
      <use xlink:href="#DejaVuSans-31" x="1218.546875"/>
      <use xlink:href="#DejaVuSans-25" x="1282.169922"/>
      <use xlink:href="#DejaVuSans-29" x="1377.189453"/>
     </g>
    </g>
    <g id="patch_28">
     <path d="M 598.244586 235.046587 
L 626.244586 235.046587 
L 626.244586 225.246587 
L 598.244586 225.246587 
z
" style="fill: #f6b3b6; stroke: #ffffff; stroke-linejoin: miter"/>
    </g>
    <g id="text_8">
     <!-- svm (42.17%) -->
     <g transform="translate(637.444586 235.046587) scale(0.14 -0.14)">
      <defs>
       <path id="DejaVuSans-76" d="M 191 3500 
L 800 3500 
L 1894 563 
L 2988 3500 
L 3597 3500 
L 2284 0 
L 1503 0 
L 191 3500 
z
" transform="scale(0.015625)"/>
      </defs>
      <use xlink:href="#DejaVuSans-73"/>
      <use xlink:href="#DejaVuSans-76" x="52.099609"/>
      <use xlink:href="#DejaVuSans-6d" x="111.279297"/>
      <use xlink:href="#DejaVuSans-20" x="208.691406"/>
      <use xlink:href="#DejaVuSans-28" x="240.478516"/>
      <use xlink:href="#DejaVuSans-34" x="279.492188"/>
      <use xlink:href="#DejaVuSans-32" x="343.115234"/>
      <use xlink:href="#DejaVuSans-2e" x="406.738281"/>
      <use xlink:href="#DejaVuSans-31" x="438.525391"/>
      <use xlink:href="#DejaVuSans-37" x="502.148438"/>
      <use xlink:href="#DejaVuSans-25" x="565.771484"/>
      <use xlink:href="#DejaVuSans-29" x="660.791016"/>
     </g>
    </g>
    <g id="patch_29">
     <path d="M 598.244586 255.595962 
L 626.244586 255.595962 
L 626.244586 245.795962 
L 598.244586 245.795962 
z
" style="fill: #f8c0c2; stroke: #ffffff; stroke-linejoin: miter"/>
    </g>
    <g id="text_9">
     <!-- recurrent_neural_network (35.82%) -->
     <g transform="translate(637.444586 255.595962) scale(0.14 -0.14)">
      <defs>
       <path id="DejaVuSans-38" d="M 2034 2216 
Q 1584 2216 1326 1975 
Q 1069 1734 1069 1313 
Q 1069 891 1326 650 
Q 1584 409 2034 409 
Q 2484 409 2743 651 
Q 3003 894 3003 1313 
Q 3003 1734 2745 1975 
Q 2488 2216 2034 2216 
z
M 1403 2484 
Q 997 2584 770 2862 
Q 544 3141 544 3541 
Q 544 4100 942 4425 
Q 1341 4750 2034 4750 
Q 2731 4750 3128 4425 
Q 3525 4100 3525 3541 
Q 3525 3141 3298 2862 
Q 3072 2584 2669 2484 
Q 3125 2378 3379 2068 
Q 3634 1759 3634 1313 
Q 3634 634 3220 271 
Q 2806 -91 2034 -91 
Q 1263 -91 848 271 
Q 434 634 434 1313 
Q 434 1759 690 2068 
Q 947 2378 1403 2484 
z
M 1172 3481 
Q 1172 3119 1398 2916 
Q 1625 2713 2034 2713 
Q 2441 2713 2670 2916 
Q 2900 3119 2900 3481 
Q 2900 3844 2670 4047 
Q 2441 4250 2034 4250 
Q 1625 4250 1398 4047 
Q 1172 3844 1172 3481 
z
" transform="scale(0.015625)"/>
      </defs>
      <use xlink:href="#DejaVuSans-72"/>
      <use xlink:href="#DejaVuSans-65" x="38.863281"/>
      <use xlink:href="#DejaVuSans-63" x="100.386719"/>
      <use xlink:href="#DejaVuSans-75" x="155.367188"/>
      <use xlink:href="#DejaVuSans-72" x="218.746094"/>
      <use xlink:href="#DejaVuSans-72" x="258.109375"/>
      <use xlink:href="#DejaVuSans-65" x="296.972656"/>
      <use xlink:href="#DejaVuSans-6e" x="358.496094"/>
      <use xlink:href="#DejaVuSans-74" x="421.875"/>
      <use xlink:href="#DejaVuSans-5f" x="461.083984"/>
      <use xlink:href="#DejaVuSans-6e" x="511.083984"/>
      <use xlink:href="#DejaVuSans-65" x="574.462891"/>
      <use xlink:href="#DejaVuSans-75" x="635.986328"/>
      <use xlink:href="#DejaVuSans-72" x="699.365234"/>
      <use xlink:href="#DejaVuSans-61" x="740.478516"/>
      <use xlink:href="#DejaVuSans-6c" x="801.757812"/>
      <use xlink:href="#DejaVuSans-5f" x="829.541016"/>
      <use xlink:href="#DejaVuSans-6e" x="879.541016"/>
      <use xlink:href="#DejaVuSans-65" x="942.919922"/>
      <use xlink:href="#DejaVuSans-74" x="1004.443359"/>
      <use xlink:href="#DejaVuSans-77" x="1043.652344"/>
      <use xlink:href="#DejaVuSans-6f" x="1125.439453"/>
      <use xlink:href="#DejaVuSans-72" x="1186.621094"/>
      <use xlink:href="#DejaVuSans-6b" x="1227.734375"/>
      <use xlink:href="#DejaVuSans-20" x="1285.644531"/>
      <use xlink:href="#DejaVuSans-28" x="1317.431641"/>
      <use xlink:href="#DejaVuSans-33" x="1356.445312"/>
      <use xlink:href="#DejaVuSans-35" x="1420.068359"/>
      <use xlink:href="#DejaVuSans-2e" x="1483.691406"/>
      <use xlink:href="#DejaVuSans-38" x="1515.478516"/>
      <use xlink:href="#DejaVuSans-32" x="1579.101562"/>
      <use xlink:href="#DejaVuSans-25" x="1642.724609"/>
      <use xlink:href="#DejaVuSans-29" x="1737.744141"/>
     </g>
    </g>
    <g id="patch_30">
     <path d="M 598.244586 276.534712 
L 626.244586 276.534712 
L 626.244586 266.734712 
L 598.244586 266.734712 
z
" style="fill: #f8c1c4; stroke: #ffffff; stroke-linejoin: miter"/>
    </g>
    <g id="text_10">
     <!-- naive_bayes (34.54%) -->
     <g transform="translate(637.444586 276.534712) scale(0.14 -0.14)">
      <defs>
       <path id="DejaVuSans-79" d="M 2059 -325 
Q 1816 -950 1584 -1140 
Q 1353 -1331 966 -1331 
L 506 -1331 
L 506 -850 
L 844 -850 
Q 1081 -850 1212 -737 
Q 1344 -625 1503 -206 
L 1606 56 
L 191 3500 
L 800 3500 
L 1894 763 
L 2988 3500 
L 3597 3500 
L 2059 -325 
z
" transform="scale(0.015625)"/>
      </defs>
      <use xlink:href="#DejaVuSans-6e"/>
      <use xlink:href="#DejaVuSans-61" x="63.378906"/>
      <use xlink:href="#DejaVuSans-69" x="124.658203"/>
      <use xlink:href="#DejaVuSans-76" x="152.441406"/>
      <use xlink:href="#DejaVuSans-65" x="211.621094"/>
      <use xlink:href="#DejaVuSans-5f" x="273.144531"/>
      <use xlink:href="#DejaVuSans-62" x="323.144531"/>
      <use xlink:href="#DejaVuSans-61" x="386.621094"/>
      <use xlink:href="#DejaVuSans-79" x="447.900391"/>
      <use xlink:href="#DejaVuSans-65" x="507.080078"/>
      <use xlink:href="#DejaVuSans-73" x="568.603516"/>
      <use xlink:href="#DejaVuSans-20" x="620.703125"/>
      <use xlink:href="#DejaVuSans-28" x="652.490234"/>
      <use xlink:href="#DejaVuSans-33" x="691.503906"/>
      <use xlink:href="#DejaVuSans-34" x="755.126953"/>
      <use xlink:href="#DejaVuSans-2e" x="818.75"/>
      <use xlink:href="#DejaVuSans-35" x="850.537109"/>
      <use xlink:href="#DejaVuSans-34" x="914.160156"/>
      <use xlink:href="#DejaVuSans-25" x="977.783203"/>
      <use xlink:href="#DejaVuSans-29" x="1072.802734"/>
     </g>
    </g>
    <g id="patch_31">
     <path d="M 598.244586 297.473462 
L 626.244586 297.473462 
L 626.244586 287.673462 
L 598.244586 287.673462 
z
" style="fill: #fad0d2; stroke: #ffffff; stroke-linejoin: miter"/>
    </g>
    <g id="text_11">
     <!-- hmm (26.93%) -->
     <g transform="translate(637.444586 297.473462) scale(0.14 -0.14)">
      <defs>
       <path id="DejaVuSans-68" d="M 3513 2113 
L 3513 0 
L 2938 0 
L 2938 2094 
Q 2938 2591 2744 2837 
Q 2550 3084 2163 3084 
Q 1697 3084 1428 2787 
Q 1159 2491 1159 1978 
L 1159 0 
L 581 0 
L 581 4863 
L 1159 4863 
L 1159 2956 
Q 1366 3272 1645 3428 
Q 1925 3584 2291 3584 
Q 2894 3584 3203 3211 
Q 3513 2838 3513 2113 
z
" transform="scale(0.015625)"/>
      </defs>
      <use xlink:href="#DejaVuSans-68"/>
      <use xlink:href="#DejaVuSans-6d" x="63.378906"/>
      <use xlink:href="#DejaVuSans-6d" x="160.791016"/>
      <use xlink:href="#DejaVuSans-20" x="258.203125"/>
      <use xlink:href="#DejaVuSans-28" x="289.990234"/>
      <use xlink:href="#DejaVuSans-32" x="329.003906"/>
      <use xlink:href="#DejaVuSans-36" x="392.626953"/>
      <use xlink:href="#DejaVuSans-2e" x="456.25"/>
      <use xlink:href="#DejaVuSans-39" x="488.037109"/>
      <use xlink:href="#DejaVuSans-33" x="551.660156"/>
      <use xlink:href="#DejaVuSans-25" x="615.283203"/>
      <use xlink:href="#DejaVuSans-29" x="710.302734"/>
     </g>
    </g>
    <g id="patch_32">
     <path d="M 598.244586 318.022837 
L 626.244586 318.022837 
L 626.244586 308.222837 
L 598.244586 308.222837 
z
" style="fill: #fad0d2; stroke: #ffffff; stroke-linejoin: miter"/>
    </g>
    <g id="text_12">
     <!-- knn (26.21%) -->
     <g transform="translate(637.444586 318.022837) scale(0.14 -0.14)">
      <use xlink:href="#DejaVuSans-6b"/>
      <use xlink:href="#DejaVuSans-6e" x="57.910156"/>
      <use xlink:href="#DejaVuSans-6e" x="121.289062"/>
      <use xlink:href="#DejaVuSans-20" x="184.667969"/>
      <use xlink:href="#DejaVuSans-28" x="216.455078"/>
      <use xlink:href="#DejaVuSans-32" x="255.46875"/>
      <use xlink:href="#DejaVuSans-36" x="319.091797"/>
      <use xlink:href="#DejaVuSans-2e" x="382.714844"/>
      <use xlink:href="#DejaVuSans-32" x="414.501953"/>
      <use xlink:href="#DejaVuSans-31" x="478.125"/>
      <use xlink:href="#DejaVuSans-25" x="541.748047"/>
      <use xlink:href="#DejaVuSans-29" x="636.767578"/>
     </g>
    </g>
   </g>
  </g>
 </g>
</svg>
