<?xml version="1.0" encoding="utf-8" standalone="no"?>
<!DOCTYPE svg PUBLIC "-//W3C//DTD SVG 1.1//EN"
  "http://www.w3.org/Graphics/SVG/1.1/DTD/svg11.dtd">
<svg xmlns:xlink="http://www.w3.org/1999/xlink" width="898.98913pt" height="653.068702pt" viewBox="0 0 898.98913 653.068702" xmlns="http://www.w3.org/2000/svg" version="1.1">
 <metadata>
  <rdf:RDF xmlns:dc="http://purl.org/dc/elements/1.1/" xmlns:cc="http://creativecommons.org/ns#" xmlns:rdf="http://www.w3.org/1999/02/22-rdf-syntax-ns#">
   <cc:Work>
    <dc:type rdf:resource="http://purl.org/dc/dcmitype/StillImage"/>
    <dc:date>2023-11-21T14:33:25.444514</dc:date>
    <dc:format>image/svg+xml</dc:format>
    <dc:creator>
     <cc:Agent>
      <dc:title>Matplotlib v3.7.0, https://matplotlib.org/</dc:title>
     </cc:Agent>
    </dc:creator>
   </cc:Work>
  </rdf:RDF>
 </metadata>
 <defs>
  <style type="text/css">*{stroke-linejoin: round; stroke-linecap: butt}</style>
 </defs>
 <g id="figure_1">
  <g id="patch_1">
   <path d="M 0 653.068702 
L 898.98913 653.068702 
L 898.98913 -0 
L 0 -0 
z
" style="fill: #ffffff"/>
  </g>
  <g id="axes_1">
   <g id="patch_2">
    <path d="M 326.534317 7.2 
C 309.637953 7.2 292.768207 8.54101 276.084038 11.210395 
C 259.399868 13.879779 242.953843 17.869127 226.900928 23.140849 
L 234.565035 46.478814 
C 249.38311 41.61261 264.564056 37.930135 279.964828 35.466087 
C 295.3656 33.00204 310.937673 31.764185 326.534317 31.764185 
z
" style="fill: #f4f5f5; stroke: #ffffff; stroke-linejoin: miter"/>
   </g>
   <g id="patch_3">
    <path d="M 226.900928 23.140849 
C 189.083486 35.559966 153.919311 54.941116 123.224569 80.283298 
C 92.529827 105.62548 66.842219 136.484758 47.488464 171.267304 
C 28.13471 206.049851 15.453841 244.146357 10.100802 283.589206 
C 4.747764 323.032055 6.816328 363.1303 16.199658 401.812939 
C 25.582988 440.495577 42.116709 477.084978 64.946884 509.691365 
C 87.777059 542.297752 116.503757 570.349937 149.643294 592.399074 
C 182.782831 614.448211 219.75468 630.108051 258.649311 638.569791 
C 297.543942 647.03153 337.680012 648.14694 376.984564 641.858411 
C 416.289115 635.569881 454.073624 621.987573 488.386588 601.812989 
C 522.699552 581.638404 552.939888 555.224955 577.545736 523.936848 
C 602.151584 492.648741 620.691907 457.034072 632.209131 418.932275 
C 643.726354 380.830479 648.018723 340.909008 644.864544 301.229737 
C 641.710364 261.550467 631.164891 222.808484 613.772779 187.004744 
C 596.380667 151.201004 572.446585 118.962704 543.206686 91.954897 
C 513.966788 64.947089 479.933287 43.642886 442.863954 29.142613 
C 405.794621 14.642341 366.338823 7.200008 326.534384 7.2 
L 326.534379 31.764185 
C 363.276938 31.764192 399.697674 38.634038 433.91552 52.018905 
C 468.133366 65.403772 499.548905 85.06919 526.539581 109.999474 
C 553.530257 134.929758 575.623256 164.688188 591.677513 197.737794 
C 607.73177 230.787401 617.466053 266.549231 620.377603 303.17625 
C 623.289153 339.803269 619.326967 376.653857 608.695684 411.824747 
C 598.0644 446.995636 580.950256 479.870715 558.237166 508.752044 
C 535.524075 537.633373 507.609919 562.015019 475.936414 580.637713 
C 444.262908 599.260406 409.3849 611.797921 373.103775 617.602717 
C 336.822651 623.407514 299.773971 622.377905 263.871235 614.567068 
C 227.968498 606.756232 193.840638 592.300995 163.250296 571.947945 
C 132.659954 551.594896 106.143002 525.700571 85.068994 495.602368 
C 63.994987 465.504164 48.73309 431.729332 40.071555 396.022282 
C 31.41002 360.315231 29.500576 323.301466 34.441842 286.892683 
C 39.383108 250.483899 51.088526 215.317893 68.95353 183.210927 
C 86.818534 151.103961 110.530173 122.618474 138.86378 99.22569 
C 167.197388 75.832907 199.656627 57.942614 234.565035 46.478814 
z
" style="fill: #72b1d6; stroke: #ffffff; stroke-linejoin: miter"/>
   </g>
   <g id="patch_4">
    <path d="M 326.534317 31.764185 
C 309.577145 31.764185 292.651553 33.227421 275.945969 36.137604 
C 259.240386 39.047788 242.817034 43.394078 226.858751 49.128089 
L 235.165048 72.245282 
C 249.793474 66.989105 264.848213 63.005005 280.161665 60.337337 
C 295.475117 57.669669 310.990243 56.328369 326.534317 56.328369 
z
" style="fill: #f4f5f5; stroke: #ffffff; stroke-linejoin: miter"/>
   </g>
   <g id="patch_5">
    <path d="M 226.858751 49.128089 
C 192.441718 61.494561 160.624739 80.158765 133.036053 104.165559 
C 105.447366 128.172353 82.565757 157.105113 65.562194 189.483202 
C 48.558632 221.86129 37.728202 257.122805 33.625154 293.463234 
C 29.522106 329.803663 32.217646 366.592339 41.573828 401.946598 
C 50.930011 437.300857 66.784466 470.607146 88.325839 500.161013 
C 109.867212 529.714879 136.721666 555.003433 167.514921 574.732529 
C 198.308175 594.461626 232.505832 608.288878 268.357822 615.506674 
C 304.209812 622.724471 341.093945 623.207552 377.122672 616.931195 
C 413.151398 610.654837 447.69946 597.727965 478.998858 578.812112 
C 510.298255 559.896258 537.805804 535.319697 560.113804 506.340137 
C 582.421804 477.360577 599.143113 444.48094 609.422014 409.383847 
C 619.700916 374.286753 623.359026 337.581292 620.209141 301.14587 
C 617.059257 264.710448 607.156041 229.177379 591.006293 196.365073 
C 574.856545 163.552767 552.740534 134.030662 525.790049 109.309555 
C 498.839564 84.588448 467.522315 65.097359 433.440965 51.833748 
C 399.359616 38.570136 363.105628 31.764183 326.534303 31.764185 
L 326.534305 56.328369 
C 360.058019 56.328368 393.290841 62.567158 424.532078 74.725469 
C 455.773315 86.883779 484.480793 104.750611 509.185405 127.411626 
C 533.890016 150.07264 554.163026 177.13457 568.966962 207.212517 
C 583.770898 237.290464 592.848845 269.862444 595.736239 303.261581 
C 598.623634 336.660718 595.270366 370.307391 585.848039 402.479726 
C 576.425713 434.652062 561.097847 464.791728 540.648847 491.356325 
C 520.199847 517.920922 494.984593 540.449437 466.293479 557.788969 
C 437.602365 575.128501 405.933308 586.978134 372.906976 592.731462 
C 339.880643 598.484789 306.070188 598.041965 273.205864 591.425651 
C 240.341539 584.809338 208.993687 572.134357 180.766537 554.049352 
C 152.539387 535.964347 127.922804 512.783173 108.176545 485.692129 
C 88.430287 458.601084 73.897036 428.070319 65.320536 395.662248 
C 56.744035 363.254178 54.273124 329.531224 58.034251 296.219165 
C 61.795378 262.907105 71.723272 230.584049 87.309871 200.904135 
C 102.89647 171.22422 123.871279 144.702523 149.160908 122.696296 
C 174.450537 100.690068 203.616101 83.581214 235.165048 72.245282 
z
" style="fill: #72b1d6; stroke: #ffffff; stroke-linejoin: miter"/>
   </g>
   <g id="patch_6">
    <path d="M 326.534317 56.328369 
C 310.026282 56.328369 293.552924 57.841188 277.321002 60.847839 
C 261.08908 63.85449 245.166789 68.34234 229.753972 74.255063 
L 238.552185 97.189548 
C 252.563837 91.814346 267.038647 87.734482 281.79494 85.001163 
C 296.551232 82.267844 311.527012 80.892554 326.534317 80.892554 
z
" style="fill: #f4f5f5; stroke: #ffffff; stroke-linejoin: miter"/>
   </g>
   <g id="patch_7">
    <path d="M 229.753972 74.255063 
C 198.567611 86.218892 169.868326 103.86247 145.114354 126.28931 
C 120.360382 148.71615 99.978205 175.539865 85.003461 205.397516 
C 70.028717 235.255167 60.719402 267.632343 57.548533 300.883927 
C 54.377663 334.135512 57.399868 367.68862 66.461588 399.838387 
C 75.523307 431.988154 90.468418 462.180678 110.537545 488.881847 
C 130.606672 515.583016 155.454048 538.332802 183.817154 555.975265 
C 212.18026 573.617728 243.570433 585.84891 276.39271 592.047334 
C 309.214986 598.245758 342.903877 598.304632 375.747617 592.220964 
C 408.591357 586.137296 440.024089 574.015901 468.448684 556.472678 
C 496.873279 538.929455 521.800017 516.266653 541.962345 489.635792 
C 562.124673 463.00493 577.17522 432.864826 586.349251 400.746927 
C 595.523283 368.629028 598.662742 335.086687 595.60811 301.824223 
C 592.553479 268.561759 583.357383 236.152244 568.487087 206.242437 
C 553.61679 176.33263 533.32849 149.437841 508.653054 126.924619 
C 483.977618 104.411397 455.340175 86.667619 424.19582 74.594864 
C 393.051465 62.522108 359.936778 56.328373 326.534349 56.328369 
L 326.534346 80.892554 
C 356.900191 80.892557 387.004451 86.523225 415.317501 97.498458 
C 443.630551 108.47369 469.664591 124.604398 492.096805 145.070963 
C 514.52902 165.537528 532.972929 189.987336 546.49138 217.17807 
C 560.009832 244.368804 568.369919 273.831999 571.146857 304.070603 
C 573.923795 334.309206 571.069741 364.802244 562.729712 394.000333 
C 554.389683 423.198423 540.707368 450.598518 522.377979 474.808392 
C 504.048589 499.018267 481.387919 519.620814 455.547378 535.569198 
C 429.706837 551.517582 401.131626 562.537033 371.273681 568.06764 
C 341.415735 573.598247 310.789471 573.544726 280.951038 567.909795 
C 251.112605 562.274864 222.576083 551.155607 196.791442 535.117004 
C 171.0068 519.078401 148.418276 498.396778 130.173615 474.122988 
C 111.928955 449.849198 98.34249 422.401449 90.104563 393.174388 
C 81.866637 363.947328 79.119177 333.444501 82.001786 303.215788 
C 84.884395 272.987075 93.347408 243.553279 106.960812 216.40996 
C 120.574215 189.266641 139.103467 164.881446 161.607078 144.493409 
C 184.110689 124.105373 210.200948 108.065756 238.552185 97.189548 
z
" style="fill: #72b1d6; stroke: #ffffff; stroke-linejoin: miter"/>
   </g>
   <g id="patch_8">
    <path d="M 326.534317 80.892554 
C 310.46998 80.892554 294.444311 82.468403 278.687662 85.597449 
C 262.931012 88.726496 247.519239 93.393677 232.673866 99.531906 
L 242.059911 122.232155 
C 255.420746 116.707749 269.291343 112.507287 283.472327 109.691144 
C 297.653312 106.875002 312.076413 105.456738 326.534317 105.456738 
z
" style="fill: #f4f5f5; stroke: #ffffff; stroke-linejoin: miter"/>
   </g>
   <g id="patch_9">
    <path d="M 232.673866 99.531906 
C 204.735048 111.083982 179.167493 127.69536 157.25913 148.529267 
C 135.350767 169.363173 117.475745 194.063807 104.534492 221.386911 
C 91.59324 248.710015 83.806767 278.188967 81.567305 308.338807 
C 79.327844 338.488647 82.673639 368.794478 91.436151 397.729688 
C 100.198664 426.664899 114.228248 453.735335 132.818185 477.577363 
C 151.408121 501.419391 174.240931 521.625838 200.166446 537.178835 
C 226.091961 552.731831 254.667427 563.365763 284.453395 568.544963 
C 314.239364 573.724163 344.727153 573.360179 374.380984 567.471348 
C 404.034815 561.582517 432.348262 550.269408 457.895077 534.101901 
C 483.441892 517.934394 505.785787 497.188597 523.801223 472.90955 
C 541.816658 448.630503 555.195966 421.232842 563.265185 392.096683 
C 571.334403 362.960524 573.955726 332.583454 570.997108 302.495672 
C 568.03849 272.40789 559.550458 243.123235 545.960585 216.116876 
C 532.370712 189.110518 513.911084 164.843671 491.511578 144.538741 
C 469.112073 124.233811 443.155227 108.237565 414.948578 97.355791 
C 386.74193 86.474016 356.767191 80.892551 326.534294 80.892554 
L 326.534296 105.456738 
C 353.743903 105.456736 380.721169 110.480054 406.107152 120.273652 
C 431.493136 130.067249 454.854297 144.46387 475.013852 162.738307 
C 495.173407 181.012744 511.787072 202.852907 524.017958 227.158629 
C 536.248844 251.464351 543.888073 277.820541 546.550829 304.899545 
C 549.213585 331.978548 546.854395 359.317912 539.592098 385.540455 
C 532.329801 411.762997 520.288424 436.420893 504.074532 458.272035 
C 487.86064 480.123177 467.751134 498.794394 444.759001 513.345151 
C 421.766868 527.895907 396.284765 538.077706 369.596317 543.377654 
C 342.907869 548.677601 315.468859 549.005186 288.661488 544.343907 
C 261.854116 539.682627 236.136197 530.112088 212.803233 516.114391 
C 189.47027 502.116694 168.920741 483.930892 152.189798 462.473066 
C 135.458855 441.015241 122.832229 416.651849 114.945968 390.610159 
C 107.059707 364.56847 104.048491 337.293222 106.064006 310.158366 
C 108.079522 283.02351 115.087348 256.492454 126.734475 231.90166 
C 138.381602 207.310867 154.469122 185.080296 174.186649 166.32978 
C 193.904175 147.579264 216.914975 132.629024 242.059911 122.232155 
z
" style="fill: #73b2d6; stroke: #ffffff; stroke-linejoin: miter"/>
   </g>
   <g id="patch_10">
    <path d="M 326.534317 105.456738 
C 311.472978 105.456738 296.450985 106.995862 281.702578 110.050111 
C 266.954171 113.104359 252.556407 117.657773 238.733793 123.639352 
L 248.489407 146.183246 
C 260.776175 140.866287 273.574187 136.818808 286.683882 134.103921 
C 299.793577 131.389033 313.14646 130.020923 326.534317 130.020923 
z
" style="fill: #f4f5f5; stroke: #ffffff; stroke-linejoin: miter"/>
   </g>
   <g id="patch_11">
    <path d="M 238.733793 123.639352 
C 213.831685 134.415456 191.124918 149.684558 171.751037 168.68172 
C 152.377155 187.678882 136.665178 210.081482 125.40223 234.767216 
C 114.139282 259.452949 107.516637 286.002588 105.866071 313.086071 
C 104.215505 340.169554 107.565048 367.326934 115.746898 393.197705 
C 123.928748 419.068475 136.803955 443.213283 153.727511 464.422543 
C 170.651066 485.631803 191.335562 503.545327 214.744766 517.2657 
C 238.15397 530.986072 263.890332 540.280284 290.664535 544.682724 
C 317.438738 549.085163 344.796087 548.521065 371.366057 543.018689 
C 397.936026 537.516313 423.26739 527.169104 446.091119 512.495427 
C 468.914849 497.821749 488.843338 479.070801 504.878226 457.181951 
C 520.913115 435.2931 532.782089 410.638077 539.890548 384.452026 
C 546.999006 358.265975 549.226228 330.993604 546.460638 304.00118 
C 543.695047 277.008757 535.98361 250.754682 523.712647 226.554208 
C 511.441684 202.353735 494.819589 180.617851 474.679079 162.43546 
C 454.53857 144.25307 431.221685 129.932958 405.896533 120.192521 
C 380.571381 110.452083 353.66805 105.456738 326.534317 105.456738 
L 326.534317 130.020923 
C 350.653191 130.020923 374.567263 134.46123 397.078509 143.119396 
C 419.589755 151.777563 440.315875 164.506551 458.21855 180.668676 
C 476.121225 196.830801 490.896421 216.151587 501.803944 237.663118 
C 512.711466 259.17465 519.566077 282.511606 522.02438 306.504872 
C 524.482683 330.498137 522.502929 354.740244 516.1843 378.016734 
C 509.86567 401.293224 499.315471 423.2088 485.062237 442.665556 
C 470.809002 462.122312 453.09479 478.789822 432.80703 491.83309 
C 412.519271 504.876359 390.002503 514.073879 366.384752 518.964879 
C 342.767001 523.85588 318.449358 524.357301 294.650066 520.444021 
C 270.850775 516.530741 247.974008 508.269219 227.165827 496.073333 
C 206.357646 483.877447 187.971427 467.954314 172.928267 449.101638 
C 157.885107 430.248963 146.440478 408.786911 139.167722 385.790671 
C 131.894966 362.79443 128.917595 338.654537 130.384765 314.58033 
C 131.851935 290.506122 137.738731 266.906444 147.75024 244.96357 
C 157.761749 223.020695 171.727951 203.107273 188.949179 186.220907 
C 206.170407 169.334541 226.354199 155.762006 248.489407 146.183246 
z
" style="fill: #73b2d6; stroke: #ffffff; stroke-linejoin: miter"/>
   </g>
   <g id="patch_12">
    <path d="M 326.534317 130.020923 
C 313.125827 130.020923 299.752474 131.393253 286.623429 134.11645 
C 273.494385 136.839646 260.678458 140.899436 248.376103 146.23232 
L 258.145879 168.77008 
C 268.91044 164.103806 280.124376 160.55149 291.61229 158.168693 
C 303.100204 155.785897 314.801888 154.585108 326.534317 154.585108 
z
" style="fill: #f4f5f5; stroke: #ffffff; stroke-linejoin: miter"/>
   </g>
   <g id="patch_13">
    <path d="M 248.376103 146.23232 
C 226.249298 155.823954 206.075977 169.407286 188.866551 186.301976 
C 171.657124 203.196666 157.70379 223.115859 147.705421 245.061873 
C 137.707053 267.007887 131.833412 290.608102 130.378688 314.680466 
C 128.923964 338.752829 131.912858 362.888618 139.195666 385.878956 
C 146.478473 408.869293 157.931541 430.323828 172.981224 449.167977 
C 188.030907 468.012126 206.421678 483.925935 227.232408 496.112339 
C 248.043137 508.298743 270.920482 516.550828 294.718595 520.455277 
C 318.516708 524.359726 342.831523 523.850245 366.445196 518.952352 
C 390.058869 514.05446 412.570465 504.851317 432.852457 491.803876 
C 453.134449 478.756435 470.842471 462.086229 485.089589 442.628209 
C 499.336707 423.170189 509.88102 401.254732 516.194402 377.979507 
C 522.507783 354.704281 524.483038 330.464476 522.021233 306.474177 
C 519.559427 282.483879 512.702361 259.150417 501.793479 237.642484 
C 490.884597 216.13455 476.109122 196.817326 458.207105 180.658345 
C 440.305088 164.499363 419.580486 151.772986 397.071322 143.116632 
C 374.562158 134.460279 350.650615 130.020925 326.534336 130.020923 
L 326.534333 154.585108 
C 347.636077 154.58511 368.558678 158.469544 388.254197 166.043853 
C 407.949715 173.618162 426.083741 184.753742 441.748007 198.892852 
C 457.412272 213.031961 470.340812 229.934531 479.886084 248.753973 
C 489.431355 267.573415 495.431288 287.990194 497.585368 308.981705 
C 499.739448 329.973217 498.0111 351.183046 492.486891 371.548869 
C 486.962682 391.914691 477.736408 411.090716 465.27018 428.116483 
C 452.803951 445.142251 437.309433 459.728681 419.56269 471.145192 
C 401.815947 482.561702 382.1183 490.614452 361.456336 494.900108 
C 340.794372 499.185764 319.518909 499.63156 298.69556 496.215167 
C 277.872211 492.798774 257.854535 485.5782 239.645146 474.915097 
C 221.435758 464.251993 205.343833 450.32741 192.17536 433.83878 
C 179.006888 417.350149 168.985454 398.577432 162.612997 378.460886 
C 156.24054 358.344341 153.625259 337.225526 154.898142 316.162207 
C 156.171025 295.098889 161.310461 274.448701 170.059033 255.245939 
C 178.807606 236.043177 191.016773 218.613883 206.075022 203.831029 
C 221.13327 189.048175 238.784926 177.162759 258.145879 168.77008 
z
" style="fill: #73b2d6; stroke: #ffffff; stroke-linejoin: miter"/>
   </g>
   <g id="patch_14">
    <path d="M 326.534317 154.585108 
C 313.628097 154.585108 300.762809 156.038186 288.181724 158.916866 
C 275.600638 161.795546 263.383557 166.081569 251.761493 171.693889 
L 262.443325 193.813962 
C 272.405094 189.003402 282.876878 185.329668 293.660666 182.862228 
C 304.444453 180.394788 315.471843 179.149292 326.534317 179.149292 
z
" style="fill: #f4f5f5; stroke: #ffffff; stroke-linejoin: miter"/>
   </g>
   <g id="patch_15">
    <path d="M 251.761493 171.693889 
C 232.892194 180.805915 215.846474 193.290864 201.466369 208.531995 
C 187.086265 223.773126 175.612527 241.515274 167.611941 260.882001 
C 159.611355 280.248728 155.217868 300.915798 154.648511 321.862285 
C 154.079154 342.808772 157.343459 363.683992 164.280175 383.456737 
C 171.216891 403.229482 181.709883 421.568719 195.240812 437.568515 
C 208.771741 453.56831 225.114073 466.960796 243.460519 477.084402 
C 261.806965 487.208008 281.85037 493.893246 302.600617 496.809874 
C 323.350864 499.726502 344.460555 498.82569 364.886899 494.151937 
C 385.313242 489.478183 404.714263 481.109737 422.131576 469.459986 
C 439.548889 457.810236 454.690896 443.074221 466.809601 425.979881 
C 478.928307 408.885541 487.820821 389.719068 493.047865 369.42726 
C 498.27491 349.135451 499.748973 328.058031 497.39724 307.236196 
C 495.045507 286.41436 488.907349 266.196707 479.285983 247.58196 
C 469.664617 228.967213 456.721123 212.267019 441.094892 198.306346 
C 425.468662 184.345673 407.421307 173.358248 387.844344 165.886836 
C 368.267381 158.415424 347.488565 154.585111 326.534341 154.585108 
L 326.534338 179.149292 
C 344.495101 179.149295 362.305515 182.432421 379.085769 188.836488 
C 395.866023 195.240556 411.335184 204.658348 424.729096 216.62464 
C 438.123008 228.590931 449.217431 242.905383 457.464316 258.86088 
C 465.711201 274.816377 470.97248 292.145794 472.988251 309.993082 
C 475.004023 327.840369 473.740539 345.90673 469.260216 363.299708 
C 464.779892 380.692687 457.157737 397.121093 446.770275 411.773384 
C 436.382813 426.425675 423.40395 439.056545 408.474825 449.042045 
C 393.545699 459.027546 376.916253 466.2005 359.407958 470.206574 
C 341.899664 474.212649 323.805643 474.984773 306.019717 472.484806 
C 288.233791 469.98484 271.053729 464.254636 255.328204 455.577259 
C 239.602679 446.899882 225.594966 435.420608 213.997027 421.706498 
C 202.399088 407.992388 193.405095 392.273042 187.459338 375.324975 
C 181.513582 358.376907 178.715606 340.483861 179.203626 322.52973 
C 179.691646 304.575598 183.457493 286.860967 190.315138 270.260915 
C 197.172782 253.660864 207.007415 238.453308 219.333219 225.389481 
C 231.659023 212.325655 246.26964 201.62427 262.443325 193.813962 
z
" style="fill: #75b3d7; stroke: #ffffff; stroke-linejoin: miter"/>
   </g>
   <g id="patch_16">
    <path d="M 326.534317 179.149292 
C 315.286038 179.149292 304.074642 180.436978 293.119267 182.98718 
C 282.163891 185.537382 271.536382 189.333376 261.444463 194.300967 
L 272.292772 216.339872 
C 280.702705 212.200214 289.558962 209.036885 298.688442 206.911717 
C 307.817921 204.786548 317.160751 203.713477 326.534317 203.713477 
z
" style="fill: #f4f5f5; stroke: #ffffff; stroke-linejoin: miter"/>
   </g>
   <g id="patch_17">
    <path d="M 261.444463 194.300967 
C 245.351068 202.222691 230.838202 213.016231 218.620947 226.149767 
C 206.403692 239.283303 196.686055 254.537526 189.946846 271.160827 
C 183.207636 287.784128 179.559388 305.498927 179.181857 323.432375 
C 178.804327 341.365823 181.703819 359.218462 187.737469 376.110654 
C 193.771119 393.002846 202.838175 408.65252 214.491884 422.288581 
C 226.145593 435.924642 240.191356 447.319391 255.937109 455.911385 
C 271.682862 464.503378 288.865677 470.149144 306.638918 472.570502 
C 324.41216 474.99186 342.479044 474.148379 359.949378 470.081618 
C 377.419711 466.014857 394.001767 458.792724 408.878512 448.77107 
C 423.755257 438.749416 436.678274 426.095586 447.010818 411.433062 
C 457.343362 396.770537 464.912896 380.344158 469.346453 362.963287 
C 473.78001 345.582417 475.003557 327.537287 472.956808 309.71702 
C 470.910058 291.896754 465.627189 274.598919 457.368498 258.675819 
C 449.109808 242.752719 438.013203 228.470242 424.625437 216.532117 
C 411.237671 204.593993 395.782298 195.199568 379.020838 188.811725 
C 362.259377 182.423883 344.471718 179.14929 326.534296 179.149292 
L 326.5343 203.713477 
C 341.482151 203.713475 356.305201 206.442302 370.273084 211.765504 
C 384.240968 217.088706 397.120446 224.917394 408.276917 234.865831 
C 419.433389 244.814268 428.680559 256.716332 435.562801 269.985582 
C 442.445043 283.254833 446.847434 297.669695 448.553059 312.519917 
C 450.258684 327.370139 449.239061 342.407748 445.54443 356.891806 
C 441.849799 371.375865 435.541854 385.064514 426.931401 397.283285 
C 418.320948 409.502055 407.551767 420.046914 395.154479 428.398292 
C 382.757192 436.74967 368.938812 442.768114 354.380201 446.157081 
C 339.82159 449.546049 324.765852 450.24895 309.954818 448.231152 
C 295.143783 446.213353 280.824771 441.508548 267.70331 434.348554 
C 254.58185 427.188559 242.877047 417.692935 233.165623 406.329551 
C 223.454199 394.966166 215.898319 381.924772 210.870277 367.847945 
C 205.842236 353.771118 203.425992 338.893919 203.740601 323.949379 
C 204.055209 309.004839 207.095416 294.242507 212.711424 280.389756 
C 218.327432 266.537005 226.425463 253.825153 236.606509 242.880539 
C 246.787555 231.935926 258.881609 222.941309 272.292772 216.339872 
z
" style="fill: #75b3d7; stroke: #ffffff; stroke-linejoin: miter"/>
   </g>
   <g id="patch_18">
    <path d="M 326.534317 203.713477 
C 313.206072 203.713477 299.966261 205.883003 287.335061 210.136816 
C 274.703862 214.39063 262.848893 220.672282 252.235923 228.734973 
L 267.095602 248.294859 
C 275.585978 241.844706 285.069953 236.819384 295.174913 233.416333 
C 305.279872 230.013282 315.871721 228.277662 326.534317 228.277662 
z
" style="fill: #f4f5f5; stroke: #ffffff; stroke-linejoin: miter"/>
   </g>
   <g id="patch_19">
    <path d="M 252.235923 228.734973 
C 240.728163 237.477439 230.853251 248.182809 223.066424 260.35756 
C 215.279597 272.532312 209.702382 285.986438 206.591891 300.099698 
C 203.4814 314.212957 202.886178 328.765089 204.833664 343.085234 
C 206.78115 357.405379 211.240951 371.270047 218.007468 384.04007 
C 224.773985 396.810094 233.741615 408.286175 244.496946 417.939263 
C 255.252278 427.59235 267.627456 435.27179 281.051979 440.623559 
C 294.476503 445.975327 308.74086 448.915899 323.187456 449.309714 
C 337.634053 449.703529 352.037427 447.54444 365.733576 442.931983 
C 379.429724 438.319526 392.204897 431.325685 403.470152 422.27288 
C 414.735407 413.220075 424.314931 402.249589 431.767105 389.867168 
C 439.219279 377.484747 444.427798 363.883638 447.152548 349.690858 
C 449.877298 335.498079 450.075754 320.935131 447.738767 306.673373 
C 445.401781 292.411615 440.565824 278.673625 433.453837 266.092731 
C 426.34185 253.511837 417.064828 242.284385 406.050444 232.927964 
C 395.03606 223.571544 382.456213 216.232179 368.890839 211.248216 
C 355.325465 206.264253 340.986275 203.713476 326.534311 203.713477 
L 326.534313 228.277662 
C 338.095883 228.277661 349.567236 230.318283 360.419535 234.305453 
C 371.271834 238.292623 381.335711 244.164115 390.147218 251.649252 
C 398.958725 259.134388 406.380344 268.11635 412.069933 278.181065 
C 417.759523 288.24578 421.628288 299.236172 423.497877 310.645578 
C 425.367467 322.054985 425.208702 333.705343 423.028902 345.059567 
C 420.849102 356.41379 416.682286 367.294677 410.720547 377.200614 
C 404.758808 387.106551 397.095189 395.88294 388.082985 403.125184 
C 379.070781 410.367428 368.850643 415.9625 357.893724 419.652466 
C 346.936805 423.342432 335.414106 425.069703 323.856828 424.754651 
C 312.299551 424.439599 300.888066 422.087141 290.148447 417.805727 
C 279.408828 413.524312 269.508686 407.38076 260.90442 399.65829 
C 252.300155 391.93582 245.126051 382.754955 239.712838 372.538936 
C 234.299624 362.322917 230.731783 351.231183 229.173794 339.775067 
C 227.615806 328.318951 228.091983 316.677246 230.580376 305.386638 
C 233.068769 294.09603 237.530541 283.332729 243.760002 273.592928 
C 249.989464 263.853127 257.889394 255.288831 267.095602 248.294859 
z
" style="fill: #7ab5d8; stroke: #ffffff; stroke-linejoin: miter"/>
   </g>
   <g id="patch_20">
    <path d="M 326.534317 228.277662 
C 314.949417 228.277662 303.455284 230.326527 292.583913 234.329429 
C 281.712543 238.33233 271.634288 244.226543 262.815613 251.739257 
L 278.745289 270.438043 
C 285.359296 264.803507 292.917987 260.382848 301.071514 257.380672 
C 309.225042 254.378495 317.845642 252.841846 326.534317 252.841846 
z
" style="fill: #f4f5f5; stroke: #ffffff; stroke-linejoin: miter"/>
   </g>
   <g id="patch_21">
    <path d="M 262.815613 251.739257 
C 254.102499 259.162043 246.753079 268.050584 241.099525 278.003142 
C 235.445971 287.955701 231.574762 298.820041 229.660866 310.105124 
C 227.74697 321.390207 227.819661 332.923414 229.875656 344.183475 
C 231.93165 355.443537 235.939499 366.258216 241.718057 376.13872 
C 247.496615 386.019224 254.957493 394.814419 263.76348 402.126785 
C 272.569466 409.43915 282.585864 415.156836 293.359958 419.021418 
C 304.134052 422.886 315.50104 424.838365 326.947165 424.790271 
C 338.39329 424.742177 349.74347 422.69436 360.484708 418.739376 
C 371.225946 414.784392 381.193942 408.982736 389.938169 401.596629 
C 398.682397 394.210521 406.069102 385.352941 411.764426 375.424226 
C 417.459751 365.495512 421.376578 354.647535 423.337877 343.370593 
C 425.299177 332.093652 425.274948 320.560242 423.266287 309.291641 
C 421.257625 298.023039 417.295256 287.191614 411.558266 277.286916 
C 405.821277 267.382217 398.397422 258.55575 389.62224 251.206446 
C 380.847058 243.857142 370.854775 238.097418 360.097015 234.187597 
C 349.339255 230.277776 337.980571 228.277665 326.534345 228.277662 
L 326.534338 252.841846 
C 335.119008 252.841849 343.63802 254.341932 351.70634 257.274298 
C 359.77466 260.206663 367.268873 264.526457 373.850259 270.038435 
C 380.431646 275.550413 385.999537 282.170263 390.302279 289.598787 
C 394.605021 297.027311 397.576798 305.15088 399.083294 313.60233 
C 400.58979 322.053781 400.607962 330.703839 399.136987 339.161545 
C 397.666013 347.619251 394.728393 355.755234 390.456899 363.20177 
C 386.185406 370.648306 380.645377 377.291491 374.087206 382.831072 
C 367.529036 388.370652 360.053039 392.721894 351.99711 395.688132 
C 343.941182 398.65437 335.428547 400.190233 326.843953 400.226303 
C 318.259359 400.262374 309.734118 398.7981 301.653547 395.899664 
C 293.572977 393.001227 286.060679 388.712963 279.456189 383.228688 
C 272.851699 377.744414 267.25604 371.148018 262.922122 363.73764 
C 258.588203 356.327262 255.582317 348.216252 254.040321 339.771206 
C 252.498325 331.32616 252.443807 322.676255 253.879229 314.212443 
C 255.314651 305.748631 258.218058 297.600376 262.458223 290.135957 
C 266.698388 282.671538 272.210454 276.005132 278.745289 270.438043 
z
" style="fill: #7bb6d8; stroke: #ffffff; stroke-linejoin: miter"/>
   </g>
   <g id="matplotlib.axis_1"/>
   <g id="matplotlib.axis_2"/>
   <g id="text_1">
    <!-- AUPRC_1 on generalized models -->
    <g transform="translate(190.572442 94.3392) scale(0.168 -0.168)">
     <defs>
      <path id="DejaVuSans-41" d="M 2188 4044 
L 1331 1722 
L 3047 1722 
L 2188 4044 
z
M 1831 4666 
L 2547 4666 
L 4325 0 
L 3669 0 
L 3244 1197 
L 1141 1197 
L 716 0 
L 50 0 
L 1831 4666 
z
" transform="scale(0.015625)"/>
      <path id="DejaVuSans-55" d="M 556 4666 
L 1191 4666 
L 1191 1831 
Q 1191 1081 1462 751 
Q 1734 422 2344 422 
Q 2950 422 3222 751 
Q 3494 1081 3494 1831 
L 3494 4666 
L 4128 4666 
L 4128 1753 
Q 4128 841 3676 375 
Q 3225 -91 2344 -91 
Q 1459 -91 1007 375 
Q 556 841 556 1753 
L 556 4666 
z
" transform="scale(0.015625)"/>
      <path id="DejaVuSans-50" d="M 1259 4147 
L 1259 2394 
L 2053 2394 
Q 2494 2394 2734 2622 
Q 2975 2850 2975 3272 
Q 2975 3691 2734 3919 
Q 2494 4147 2053 4147 
L 1259 4147 
z
M 628 4666 
L 2053 4666 
Q 2838 4666 3239 4311 
Q 3641 3956 3641 3272 
Q 3641 2581 3239 2228 
Q 2838 1875 2053 1875 
L 1259 1875 
L 1259 0 
L 628 0 
L 628 4666 
z
" transform="scale(0.015625)"/>
      <path id="DejaVuSans-52" d="M 2841 2188 
Q 3044 2119 3236 1894 
Q 3428 1669 3622 1275 
L 4263 0 
L 3584 0 
L 2988 1197 
Q 2756 1666 2539 1819 
Q 2322 1972 1947 1972 
L 1259 1972 
L 1259 0 
L 628 0 
L 628 4666 
L 2053 4666 
Q 2853 4666 3247 4331 
Q 3641 3997 3641 3322 
Q 3641 2881 3436 2590 
Q 3231 2300 2841 2188 
z
M 1259 4147 
L 1259 2491 
L 2053 2491 
Q 2509 2491 2742 2702 
Q 2975 2913 2975 3322 
Q 2975 3731 2742 3939 
Q 2509 4147 2053 4147 
L 1259 4147 
z
" transform="scale(0.015625)"/>
      <path id="DejaVuSans-43" d="M 4122 4306 
L 4122 3641 
Q 3803 3938 3442 4084 
Q 3081 4231 2675 4231 
Q 1875 4231 1450 3742 
Q 1025 3253 1025 2328 
Q 1025 1406 1450 917 
Q 1875 428 2675 428 
Q 3081 428 3442 575 
Q 3803 722 4122 1019 
L 4122 359 
Q 3791 134 3420 21 
Q 3050 -91 2638 -91 
Q 1578 -91 968 557 
Q 359 1206 359 2328 
Q 359 3453 968 4101 
Q 1578 4750 2638 4750 
Q 3056 4750 3426 4639 
Q 3797 4528 4122 4306 
z
" transform="scale(0.015625)"/>
      <path id="DejaVuSans-5f" d="M 3263 -1063 
L 3263 -1509 
L -63 -1509 
L -63 -1063 
L 3263 -1063 
z
" transform="scale(0.015625)"/>
      <path id="DejaVuSans-31" d="M 794 531 
L 1825 531 
L 1825 4091 
L 703 3866 
L 703 4441 
L 1819 4666 
L 2450 4666 
L 2450 531 
L 3481 531 
L 3481 0 
L 794 0 
L 794 531 
z
" transform="scale(0.015625)"/>
      <path id="DejaVuSans-20" transform="scale(0.015625)"/>
      <path id="DejaVuSans-6f" d="M 1959 3097 
Q 1497 3097 1228 2736 
Q 959 2375 959 1747 
Q 959 1119 1226 758 
Q 1494 397 1959 397 
Q 2419 397 2687 759 
Q 2956 1122 2956 1747 
Q 2956 2369 2687 2733 
Q 2419 3097 1959 3097 
z
M 1959 3584 
Q 2709 3584 3137 3096 
Q 3566 2609 3566 1747 
Q 3566 888 3137 398 
Q 2709 -91 1959 -91 
Q 1206 -91 779 398 
Q 353 888 353 1747 
Q 353 2609 779 3096 
Q 1206 3584 1959 3584 
z
" transform="scale(0.015625)"/>
      <path id="DejaVuSans-6e" d="M 3513 2113 
L 3513 0 
L 2938 0 
L 2938 2094 
Q 2938 2591 2744 2837 
Q 2550 3084 2163 3084 
Q 1697 3084 1428 2787 
Q 1159 2491 1159 1978 
L 1159 0 
L 581 0 
L 581 3500 
L 1159 3500 
L 1159 2956 
Q 1366 3272 1645 3428 
Q 1925 3584 2291 3584 
Q 2894 3584 3203 3211 
Q 3513 2838 3513 2113 
z
" transform="scale(0.015625)"/>
      <path id="DejaVuSans-67" d="M 2906 1791 
Q 2906 2416 2648 2759 
Q 2391 3103 1925 3103 
Q 1463 3103 1205 2759 
Q 947 2416 947 1791 
Q 947 1169 1205 825 
Q 1463 481 1925 481 
Q 2391 481 2648 825 
Q 2906 1169 2906 1791 
z
M 3481 434 
Q 3481 -459 3084 -895 
Q 2688 -1331 1869 -1331 
Q 1566 -1331 1297 -1286 
Q 1028 -1241 775 -1147 
L 775 -588 
Q 1028 -725 1275 -790 
Q 1522 -856 1778 -856 
Q 2344 -856 2625 -561 
Q 2906 -266 2906 331 
L 2906 616 
Q 2728 306 2450 153 
Q 2172 0 1784 0 
Q 1141 0 747 490 
Q 353 981 353 1791 
Q 353 2603 747 3093 
Q 1141 3584 1784 3584 
Q 2172 3584 2450 3431 
Q 2728 3278 2906 2969 
L 2906 3500 
L 3481 3500 
L 3481 434 
z
" transform="scale(0.015625)"/>
      <path id="DejaVuSans-65" d="M 3597 1894 
L 3597 1613 
L 953 1613 
Q 991 1019 1311 708 
Q 1631 397 2203 397 
Q 2534 397 2845 478 
Q 3156 559 3463 722 
L 3463 178 
Q 3153 47 2828 -22 
Q 2503 -91 2169 -91 
Q 1331 -91 842 396 
Q 353 884 353 1716 
Q 353 2575 817 3079 
Q 1281 3584 2069 3584 
Q 2775 3584 3186 3129 
Q 3597 2675 3597 1894 
z
M 3022 2063 
Q 3016 2534 2758 2815 
Q 2500 3097 2075 3097 
Q 1594 3097 1305 2825 
Q 1016 2553 972 2059 
L 3022 2063 
z
" transform="scale(0.015625)"/>
      <path id="DejaVuSans-72" d="M 2631 2963 
Q 2534 3019 2420 3045 
Q 2306 3072 2169 3072 
Q 1681 3072 1420 2755 
Q 1159 2438 1159 1844 
L 1159 0 
L 581 0 
L 581 3500 
L 1159 3500 
L 1159 2956 
Q 1341 3275 1631 3429 
Q 1922 3584 2338 3584 
Q 2397 3584 2469 3576 
Q 2541 3569 2628 3553 
L 2631 2963 
z
" transform="scale(0.015625)"/>
      <path id="DejaVuSans-61" d="M 2194 1759 
Q 1497 1759 1228 1600 
Q 959 1441 959 1056 
Q 959 750 1161 570 
Q 1363 391 1709 391 
Q 2188 391 2477 730 
Q 2766 1069 2766 1631 
L 2766 1759 
L 2194 1759 
z
M 3341 1997 
L 3341 0 
L 2766 0 
L 2766 531 
Q 2569 213 2275 61 
Q 1981 -91 1556 -91 
Q 1019 -91 701 211 
Q 384 513 384 1019 
Q 384 1609 779 1909 
Q 1175 2209 1959 2209 
L 2766 2209 
L 2766 2266 
Q 2766 2663 2505 2880 
Q 2244 3097 1772 3097 
Q 1472 3097 1187 3025 
Q 903 2953 641 2809 
L 641 3341 
Q 956 3463 1253 3523 
Q 1550 3584 1831 3584 
Q 2591 3584 2966 3190 
Q 3341 2797 3341 1997 
z
" transform="scale(0.015625)"/>
      <path id="DejaVuSans-6c" d="M 603 4863 
L 1178 4863 
L 1178 0 
L 603 0 
L 603 4863 
z
" transform="scale(0.015625)"/>
      <path id="DejaVuSans-69" d="M 603 3500 
L 1178 3500 
L 1178 0 
L 603 0 
L 603 3500 
z
M 603 4863 
L 1178 4863 
L 1178 4134 
L 603 4134 
L 603 4863 
z
" transform="scale(0.015625)"/>
      <path id="DejaVuSans-7a" d="M 353 3500 
L 3084 3500 
L 3084 2975 
L 922 459 
L 3084 459 
L 3084 0 
L 275 0 
L 275 525 
L 2438 3041 
L 353 3041 
L 353 3500 
z
" transform="scale(0.015625)"/>
      <path id="DejaVuSans-64" d="M 2906 2969 
L 2906 4863 
L 3481 4863 
L 3481 0 
L 2906 0 
L 2906 525 
Q 2725 213 2448 61 
Q 2172 -91 1784 -91 
Q 1150 -91 751 415 
Q 353 922 353 1747 
Q 353 2572 751 3078 
Q 1150 3584 1784 3584 
Q 2172 3584 2448 3432 
Q 2725 3281 2906 2969 
z
M 947 1747 
Q 947 1113 1208 752 
Q 1469 391 1925 391 
Q 2381 391 2643 752 
Q 2906 1113 2906 1747 
Q 2906 2381 2643 2742 
Q 2381 3103 1925 3103 
Q 1469 3103 1208 2742 
Q 947 2381 947 1747 
z
" transform="scale(0.015625)"/>
      <path id="DejaVuSans-6d" d="M 3328 2828 
Q 3544 3216 3844 3400 
Q 4144 3584 4550 3584 
Q 5097 3584 5394 3201 
Q 5691 2819 5691 2113 
L 5691 0 
L 5113 0 
L 5113 2094 
Q 5113 2597 4934 2840 
Q 4756 3084 4391 3084 
Q 3944 3084 3684 2787 
Q 3425 2491 3425 1978 
L 3425 0 
L 2847 0 
L 2847 2094 
Q 2847 2600 2669 2842 
Q 2491 3084 2119 3084 
Q 1678 3084 1418 2786 
Q 1159 2488 1159 1978 
L 1159 0 
L 581 0 
L 581 3500 
L 1159 3500 
L 1159 2956 
Q 1356 3278 1631 3431 
Q 1906 3584 2284 3584 
Q 2666 3584 2933 3390 
Q 3200 3197 3328 2828 
z
" transform="scale(0.015625)"/>
      <path id="DejaVuSans-73" d="M 2834 3397 
L 2834 2853 
Q 2591 2978 2328 3040 
Q 2066 3103 1784 3103 
Q 1356 3103 1142 2972 
Q 928 2841 928 2578 
Q 928 2378 1081 2264 
Q 1234 2150 1697 2047 
L 1894 2003 
Q 2506 1872 2764 1633 
Q 3022 1394 3022 966 
Q 3022 478 2636 193 
Q 2250 -91 1575 -91 
Q 1294 -91 989 -36 
Q 684 19 347 128 
L 347 722 
Q 666 556 975 473 
Q 1284 391 1588 391 
Q 1994 391 2212 530 
Q 2431 669 2431 922 
Q 2431 1156 2273 1281 
Q 2116 1406 1581 1522 
L 1381 1569 
Q 847 1681 609 1914 
Q 372 2147 372 2553 
Q 372 3047 722 3315 
Q 1072 3584 1716 3584 
Q 2034 3584 2315 3537 
Q 2597 3491 2834 3397 
z
" transform="scale(0.015625)"/>
     </defs>
     <use xlink:href="#DejaVuSans-41"/>
     <use xlink:href="#DejaVuSans-55" x="68.408203"/>
     <use xlink:href="#DejaVuSans-50" x="141.601562"/>
     <use xlink:href="#DejaVuSans-52" x="201.904297"/>
     <use xlink:href="#DejaVuSans-43" x="266.386719"/>
     <use xlink:href="#DejaVuSans-5f" x="336.210938"/>
     <use xlink:href="#DejaVuSans-31" x="386.210938"/>
     <use xlink:href="#DejaVuSans-20" x="449.833984"/>
     <use xlink:href="#DejaVuSans-6f" x="481.621094"/>
     <use xlink:href="#DejaVuSans-6e" x="542.802734"/>
     <use xlink:href="#DejaVuSans-20" x="606.181641"/>
     <use xlink:href="#DejaVuSans-67" x="637.96875"/>
     <use xlink:href="#DejaVuSans-65" x="701.445312"/>
     <use xlink:href="#DejaVuSans-6e" x="762.96875"/>
     <use xlink:href="#DejaVuSans-65" x="826.347656"/>
     <use xlink:href="#DejaVuSans-72" x="887.871094"/>
     <use xlink:href="#DejaVuSans-61" x="928.984375"/>
     <use xlink:href="#DejaVuSans-6c" x="990.263672"/>
     <use xlink:href="#DejaVuSans-69" x="1018.046875"/>
     <use xlink:href="#DejaVuSans-7a" x="1045.830078"/>
     <use xlink:href="#DejaVuSans-65" x="1098.320312"/>
     <use xlink:href="#DejaVuSans-64" x="1159.84375"/>
     <use xlink:href="#DejaVuSans-20" x="1223.320312"/>
     <use xlink:href="#DejaVuSans-6d" x="1255.107422"/>
     <use xlink:href="#DejaVuSans-6f" x="1352.519531"/>
     <use xlink:href="#DejaVuSans-64" x="1413.701172"/>
     <use xlink:href="#DejaVuSans-65" x="1477.177734"/>
     <use xlink:href="#DejaVuSans-6c" x="1538.701172"/>
     <use xlink:href="#DejaVuSans-73" x="1566.484375"/>
    </g>
   </g>
   <g id="legend_1">
    <g id="patch_22">
     <path d="M 595.446317 326.5344 
L 888.98913 326.5344 
Q 891.78913 326.5344 891.78913 323.7344 
L 891.78913 97.1444 
Q 891.78913 94.3444 888.98913 94.3444 
L 595.446317 94.3444 
Q 592.646317 94.3444 592.646317 97.1444 
L 592.646317 323.7344 
Q 592.646317 326.5344 595.446317 326.5344 
z
" style="fill: #ffffff; opacity: 0.8; stroke: #cccccc; stroke-linejoin: miter"/>
    </g>
    <g id="text_2">
     <!-- Models -->
     <g transform="translate(717.552567 110.582212) scale(0.14 -0.14)">
      <defs>
       <path id="DejaVuSans-4d" d="M 628 4666 
L 1569 4666 
L 2759 1491 
L 3956 4666 
L 4897 4666 
L 4897 0 
L 4281 0 
L 4281 4097 
L 3078 897 
L 2444 897 
L 1241 4097 
L 1241 0 
L 628 0 
L 628 4666 
z
" transform="scale(0.015625)"/>
      </defs>
      <use xlink:href="#DejaVuSans-4d"/>
      <use xlink:href="#DejaVuSans-6f" x="86.279297"/>
      <use xlink:href="#DejaVuSans-64" x="147.460938"/>
      <use xlink:href="#DejaVuSans-65" x="210.9375"/>
      <use xlink:href="#DejaVuSans-6c" x="272.460938"/>
      <use xlink:href="#DejaVuSans-73" x="300.244141"/>
     </g>
    </g>
    <g id="patch_23">
     <path d="M 598.246317 131.131588 
L 626.246317 131.131588 
L 626.246317 121.331588 
L 598.246317 121.331588 
z
" style="fill: #72b1d6; stroke: #ffffff; stroke-linejoin: miter"/>
    </g>
    <g id="text_3">
     <!-- xgboost (94.95%) -->
     <g transform="translate(637.446317 131.131588) scale(0.14 -0.14)">
      <defs>
       <path id="DejaVuSans-78" d="M 3513 3500 
L 2247 1797 
L 3578 0 
L 2900 0 
L 1881 1375 
L 863 0 
L 184 0 
L 1544 1831 
L 300 3500 
L 978 3500 
L 1906 2253 
L 2834 3500 
L 3513 3500 
z
" transform="scale(0.015625)"/>
       <path id="DejaVuSans-62" d="M 3116 1747 
Q 3116 2381 2855 2742 
Q 2594 3103 2138 3103 
Q 1681 3103 1420 2742 
Q 1159 2381 1159 1747 
Q 1159 1113 1420 752 
Q 1681 391 2138 391 
Q 2594 391 2855 752 
Q 3116 1113 3116 1747 
z
M 1159 2969 
Q 1341 3281 1617 3432 
Q 1894 3584 2278 3584 
Q 2916 3584 3314 3078 
Q 3713 2572 3713 1747 
Q 3713 922 3314 415 
Q 2916 -91 2278 -91 
Q 1894 -91 1617 61 
Q 1341 213 1159 525 
L 1159 0 
L 581 0 
L 581 4863 
L 1159 4863 
L 1159 2969 
z
" transform="scale(0.015625)"/>
       <path id="DejaVuSans-74" d="M 1172 4494 
L 1172 3500 
L 2356 3500 
L 2356 3053 
L 1172 3053 
L 1172 1153 
Q 1172 725 1289 603 
Q 1406 481 1766 481 
L 2356 481 
L 2356 0 
L 1766 0 
Q 1100 0 847 248 
Q 594 497 594 1153 
L 594 3053 
L 172 3053 
L 172 3500 
L 594 3500 
L 594 4494 
L 1172 4494 
z
" transform="scale(0.015625)"/>
       <path id="DejaVuSans-28" d="M 1984 4856 
Q 1566 4138 1362 3434 
Q 1159 2731 1159 2009 
Q 1159 1288 1364 580 
Q 1569 -128 1984 -844 
L 1484 -844 
Q 1016 -109 783 600 
Q 550 1309 550 2009 
Q 550 2706 781 3412 
Q 1013 4119 1484 4856 
L 1984 4856 
z
" transform="scale(0.015625)"/>
       <path id="DejaVuSans-39" d="M 703 97 
L 703 672 
Q 941 559 1184 500 
Q 1428 441 1663 441 
Q 2288 441 2617 861 
Q 2947 1281 2994 2138 
Q 2813 1869 2534 1725 
Q 2256 1581 1919 1581 
Q 1219 1581 811 2004 
Q 403 2428 403 3163 
Q 403 3881 828 4315 
Q 1253 4750 1959 4750 
Q 2769 4750 3195 4129 
Q 3622 3509 3622 2328 
Q 3622 1225 3098 567 
Q 2575 -91 1691 -91 
Q 1453 -91 1209 -44 
Q 966 3 703 97 
z
M 1959 2075 
Q 2384 2075 2632 2365 
Q 2881 2656 2881 3163 
Q 2881 3666 2632 3958 
Q 2384 4250 1959 4250 
Q 1534 4250 1286 3958 
Q 1038 3666 1038 3163 
Q 1038 2656 1286 2365 
Q 1534 2075 1959 2075 
z
" transform="scale(0.015625)"/>
       <path id="DejaVuSans-34" d="M 2419 4116 
L 825 1625 
L 2419 1625 
L 2419 4116 
z
M 2253 4666 
L 3047 4666 
L 3047 1625 
L 3713 1625 
L 3713 1100 
L 3047 1100 
L 3047 0 
L 2419 0 
L 2419 1100 
L 313 1100 
L 313 1709 
L 2253 4666 
z
" transform="scale(0.015625)"/>
       <path id="DejaVuSans-2e" d="M 684 794 
L 1344 794 
L 1344 0 
L 684 0 
L 684 794 
z
" transform="scale(0.015625)"/>
       <path id="DejaVuSans-35" d="M 691 4666 
L 3169 4666 
L 3169 4134 
L 1269 4134 
L 1269 2991 
Q 1406 3038 1543 3061 
Q 1681 3084 1819 3084 
Q 2600 3084 3056 2656 
Q 3513 2228 3513 1497 
Q 3513 744 3044 326 
Q 2575 -91 1722 -91 
Q 1428 -91 1123 -41 
Q 819 9 494 109 
L 494 744 
Q 775 591 1075 516 
Q 1375 441 1709 441 
Q 2250 441 2565 725 
Q 2881 1009 2881 1497 
Q 2881 1984 2565 2268 
Q 2250 2553 1709 2553 
Q 1456 2553 1204 2497 
Q 953 2441 691 2322 
L 691 4666 
z
" transform="scale(0.015625)"/>
       <path id="DejaVuSans-25" d="M 4653 2053 
Q 4381 2053 4226 1822 
Q 4072 1591 4072 1178 
Q 4072 772 4226 539 
Q 4381 306 4653 306 
Q 4919 306 5073 539 
Q 5228 772 5228 1178 
Q 5228 1588 5073 1820 
Q 4919 2053 4653 2053 
z
M 4653 2450 
Q 5147 2450 5437 2106 
Q 5728 1763 5728 1178 
Q 5728 594 5436 251 
Q 5144 -91 4653 -91 
Q 4153 -91 3862 251 
Q 3572 594 3572 1178 
Q 3572 1766 3864 2108 
Q 4156 2450 4653 2450 
z
M 1428 4353 
Q 1159 4353 1004 4120 
Q 850 3888 850 3481 
Q 850 3069 1003 2837 
Q 1156 2606 1428 2606 
Q 1700 2606 1854 2837 
Q 2009 3069 2009 3481 
Q 2009 3884 1853 4118 
Q 1697 4353 1428 4353 
z
M 4250 4750 
L 4750 4750 
L 1831 -91 
L 1331 -91 
L 4250 4750 
z
M 1428 4750 
Q 1922 4750 2215 4408 
Q 2509 4066 2509 3481 
Q 2509 2891 2217 2550 
Q 1925 2209 1428 2209 
Q 931 2209 642 2551 
Q 353 2894 353 3481 
Q 353 4063 643 4406 
Q 934 4750 1428 4750 
z
" transform="scale(0.015625)"/>
       <path id="DejaVuSans-29" d="M 513 4856 
L 1013 4856 
Q 1481 4119 1714 3412 
Q 1947 2706 1947 2009 
Q 1947 1309 1714 600 
Q 1481 -109 1013 -844 
L 513 -844 
Q 928 -128 1133 580 
Q 1338 1288 1338 2009 
Q 1338 2731 1133 3434 
Q 928 4138 513 4856 
z
" transform="scale(0.015625)"/>
      </defs>
      <use xlink:href="#DejaVuSans-78"/>
      <use xlink:href="#DejaVuSans-67" x="59.179688"/>
      <use xlink:href="#DejaVuSans-62" x="122.65625"/>
      <use xlink:href="#DejaVuSans-6f" x="186.132812"/>
      <use xlink:href="#DejaVuSans-6f" x="247.314453"/>
      <use xlink:href="#DejaVuSans-73" x="308.496094"/>
      <use xlink:href="#DejaVuSans-74" x="360.595703"/>
      <use xlink:href="#DejaVuSans-20" x="399.804688"/>
      <use xlink:href="#DejaVuSans-28" x="431.591797"/>
      <use xlink:href="#DejaVuSans-39" x="470.605469"/>
      <use xlink:href="#DejaVuSans-34" x="534.228516"/>
      <use xlink:href="#DejaVuSans-2e" x="597.851562"/>
      <use xlink:href="#DejaVuSans-39" x="629.638672"/>
      <use xlink:href="#DejaVuSans-35" x="693.261719"/>
      <use xlink:href="#DejaVuSans-25" x="756.884766"/>
      <use xlink:href="#DejaVuSans-29" x="851.904297"/>
     </g>
    </g>
    <g id="patch_24">
     <path d="M 598.246317 151.680963 
L 626.246317 151.680963 
L 626.246317 141.880963 
L 598.246317 141.880963 
z
" style="fill: #72b1d6; stroke: #ffffff; stroke-linejoin: miter"/>
    </g>
    <g id="text_4">
     <!-- random_forest (94.51%) -->
     <g transform="translate(637.446317 151.680963) scale(0.14 -0.14)">
      <defs>
       <path id="DejaVuSans-66" d="M 2375 4863 
L 2375 4384 
L 1825 4384 
Q 1516 4384 1395 4259 
Q 1275 4134 1275 3809 
L 1275 3500 
L 2222 3500 
L 2222 3053 
L 1275 3053 
L 1275 0 
L 697 0 
L 697 3053 
L 147 3053 
L 147 3500 
L 697 3500 
L 697 3744 
Q 697 4328 969 4595 
Q 1241 4863 1831 4863 
L 2375 4863 
z
" transform="scale(0.015625)"/>
      </defs>
      <use xlink:href="#DejaVuSans-72"/>
      <use xlink:href="#DejaVuSans-61" x="41.113281"/>
      <use xlink:href="#DejaVuSans-6e" x="102.392578"/>
      <use xlink:href="#DejaVuSans-64" x="165.771484"/>
      <use xlink:href="#DejaVuSans-6f" x="229.248047"/>
      <use xlink:href="#DejaVuSans-6d" x="290.429688"/>
      <use xlink:href="#DejaVuSans-5f" x="387.841797"/>
      <use xlink:href="#DejaVuSans-66" x="437.841797"/>
      <use xlink:href="#DejaVuSans-6f" x="473.046875"/>
      <use xlink:href="#DejaVuSans-72" x="534.228516"/>
      <use xlink:href="#DejaVuSans-65" x="573.091797"/>
      <use xlink:href="#DejaVuSans-73" x="634.615234"/>
      <use xlink:href="#DejaVuSans-74" x="686.714844"/>
      <use xlink:href="#DejaVuSans-20" x="725.923828"/>
      <use xlink:href="#DejaVuSans-28" x="757.710938"/>
      <use xlink:href="#DejaVuSans-39" x="796.724609"/>
      <use xlink:href="#DejaVuSans-34" x="860.347656"/>
      <use xlink:href="#DejaVuSans-2e" x="923.970703"/>
      <use xlink:href="#DejaVuSans-35" x="955.757812"/>
      <use xlink:href="#DejaVuSans-31" x="1019.380859"/>
      <use xlink:href="#DejaVuSans-25" x="1083.003906"/>
      <use xlink:href="#DejaVuSans-29" x="1178.023438"/>
     </g>
    </g>
    <g id="patch_25">
     <path d="M 598.246317 172.619712 
L 626.246317 172.619712 
L 626.246317 162.819712 
L 598.246317 162.819712 
z
" style="fill: #72b1d6; stroke: #ffffff; stroke-linejoin: miter"/>
    </g>
    <g id="text_5">
     <!-- neural_network (94.17%) -->
     <g transform="translate(637.446317 172.619712) scale(0.14 -0.14)">
      <defs>
       <path id="DejaVuSans-75" d="M 544 1381 
L 544 3500 
L 1119 3500 
L 1119 1403 
Q 1119 906 1312 657 
Q 1506 409 1894 409 
Q 2359 409 2629 706 
Q 2900 1003 2900 1516 
L 2900 3500 
L 3475 3500 
L 3475 0 
L 2900 0 
L 2900 538 
Q 2691 219 2414 64 
Q 2138 -91 1772 -91 
Q 1169 -91 856 284 
Q 544 659 544 1381 
z
M 1991 3584 
L 1991 3584 
z
" transform="scale(0.015625)"/>
       <path id="DejaVuSans-77" d="M 269 3500 
L 844 3500 
L 1563 769 
L 2278 3500 
L 2956 3500 
L 3675 769 
L 4391 3500 
L 4966 3500 
L 4050 0 
L 3372 0 
L 2619 2869 
L 1863 0 
L 1184 0 
L 269 3500 
z
" transform="scale(0.015625)"/>
       <path id="DejaVuSans-6b" d="M 581 4863 
L 1159 4863 
L 1159 1991 
L 2875 3500 
L 3609 3500 
L 1753 1863 
L 3688 0 
L 2938 0 
L 1159 1709 
L 1159 0 
L 581 0 
L 581 4863 
z
" transform="scale(0.015625)"/>
       <path id="DejaVuSans-37" d="M 525 4666 
L 3525 4666 
L 3525 4397 
L 1831 0 
L 1172 0 
L 2766 4134 
L 525 4134 
L 525 4666 
z
" transform="scale(0.015625)"/>
      </defs>
      <use xlink:href="#DejaVuSans-6e"/>
      <use xlink:href="#DejaVuSans-65" x="63.378906"/>
      <use xlink:href="#DejaVuSans-75" x="124.902344"/>
      <use xlink:href="#DejaVuSans-72" x="188.28125"/>
      <use xlink:href="#DejaVuSans-61" x="229.394531"/>
      <use xlink:href="#DejaVuSans-6c" x="290.673828"/>
      <use xlink:href="#DejaVuSans-5f" x="318.457031"/>
      <use xlink:href="#DejaVuSans-6e" x="368.457031"/>
      <use xlink:href="#DejaVuSans-65" x="431.835938"/>
      <use xlink:href="#DejaVuSans-74" x="493.359375"/>
      <use xlink:href="#DejaVuSans-77" x="532.568359"/>
      <use xlink:href="#DejaVuSans-6f" x="614.355469"/>
      <use xlink:href="#DejaVuSans-72" x="675.537109"/>
      <use xlink:href="#DejaVuSans-6b" x="716.650391"/>
      <use xlink:href="#DejaVuSans-20" x="774.560547"/>
      <use xlink:href="#DejaVuSans-28" x="806.347656"/>
      <use xlink:href="#DejaVuSans-39" x="845.361328"/>
      <use xlink:href="#DejaVuSans-34" x="908.984375"/>
      <use xlink:href="#DejaVuSans-2e" x="972.607422"/>
      <use xlink:href="#DejaVuSans-31" x="1004.394531"/>
      <use xlink:href="#DejaVuSans-37" x="1068.017578"/>
      <use xlink:href="#DejaVuSans-25" x="1131.640625"/>
      <use xlink:href="#DejaVuSans-29" x="1226.660156"/>
     </g>
    </g>
    <g id="patch_26">
     <path d="M 598.246317 193.558463 
L 626.246317 193.558463 
L 626.246317 183.758463 
L 598.246317 183.758463 
z
" style="fill: #73b2d6; stroke: #ffffff; stroke-linejoin: miter"/>
    </g>
    <g id="text_6">
     <!-- logistic_regression (93.76%) -->
     <g transform="translate(637.446317 193.558463) scale(0.14 -0.14)">
      <defs>
       <path id="DejaVuSans-63" d="M 3122 3366 
L 3122 2828 
Q 2878 2963 2633 3030 
Q 2388 3097 2138 3097 
Q 1578 3097 1268 2742 
Q 959 2388 959 1747 
Q 959 1106 1268 751 
Q 1578 397 2138 397 
Q 2388 397 2633 464 
Q 2878 531 3122 666 
L 3122 134 
Q 2881 22 2623 -34 
Q 2366 -91 2075 -91 
Q 1284 -91 818 406 
Q 353 903 353 1747 
Q 353 2603 823 3093 
Q 1294 3584 2113 3584 
Q 2378 3584 2631 3529 
Q 2884 3475 3122 3366 
z
" transform="scale(0.015625)"/>
       <path id="DejaVuSans-33" d="M 2597 2516 
Q 3050 2419 3304 2112 
Q 3559 1806 3559 1356 
Q 3559 666 3084 287 
Q 2609 -91 1734 -91 
Q 1441 -91 1130 -33 
Q 819 25 488 141 
L 488 750 
Q 750 597 1062 519 
Q 1375 441 1716 441 
Q 2309 441 2620 675 
Q 2931 909 2931 1356 
Q 2931 1769 2642 2001 
Q 2353 2234 1838 2234 
L 1294 2234 
L 1294 2753 
L 1863 2753 
Q 2328 2753 2575 2939 
Q 2822 3125 2822 3475 
Q 2822 3834 2567 4026 
Q 2313 4219 1838 4219 
Q 1578 4219 1281 4162 
Q 984 4106 628 3988 
L 628 4550 
Q 988 4650 1302 4700 
Q 1616 4750 1894 4750 
Q 2613 4750 3031 4423 
Q 3450 4097 3450 3541 
Q 3450 3153 3228 2886 
Q 3006 2619 2597 2516 
z
" transform="scale(0.015625)"/>
       <path id="DejaVuSans-36" d="M 2113 2584 
Q 1688 2584 1439 2293 
Q 1191 2003 1191 1497 
Q 1191 994 1439 701 
Q 1688 409 2113 409 
Q 2538 409 2786 701 
Q 3034 994 3034 1497 
Q 3034 2003 2786 2293 
Q 2538 2584 2113 2584 
z
M 3366 4563 
L 3366 3988 
Q 3128 4100 2886 4159 
Q 2644 4219 2406 4219 
Q 1781 4219 1451 3797 
Q 1122 3375 1075 2522 
Q 1259 2794 1537 2939 
Q 1816 3084 2150 3084 
Q 2853 3084 3261 2657 
Q 3669 2231 3669 1497 
Q 3669 778 3244 343 
Q 2819 -91 2113 -91 
Q 1303 -91 875 529 
Q 447 1150 447 2328 
Q 447 3434 972 4092 
Q 1497 4750 2381 4750 
Q 2619 4750 2861 4703 
Q 3103 4656 3366 4563 
z
" transform="scale(0.015625)"/>
      </defs>
      <use xlink:href="#DejaVuSans-6c"/>
      <use xlink:href="#DejaVuSans-6f" x="27.783203"/>
      <use xlink:href="#DejaVuSans-67" x="88.964844"/>
      <use xlink:href="#DejaVuSans-69" x="152.441406"/>
      <use xlink:href="#DejaVuSans-73" x="180.224609"/>
      <use xlink:href="#DejaVuSans-74" x="232.324219"/>
      <use xlink:href="#DejaVuSans-69" x="271.533203"/>
      <use xlink:href="#DejaVuSans-63" x="299.316406"/>
      <use xlink:href="#DejaVuSans-5f" x="354.296875"/>
      <use xlink:href="#DejaVuSans-72" x="404.296875"/>
      <use xlink:href="#DejaVuSans-65" x="443.160156"/>
      <use xlink:href="#DejaVuSans-67" x="504.683594"/>
      <use xlink:href="#DejaVuSans-72" x="568.160156"/>
      <use xlink:href="#DejaVuSans-65" x="607.023438"/>
      <use xlink:href="#DejaVuSans-73" x="668.546875"/>
      <use xlink:href="#DejaVuSans-73" x="720.646484"/>
      <use xlink:href="#DejaVuSans-69" x="772.746094"/>
      <use xlink:href="#DejaVuSans-6f" x="800.529297"/>
      <use xlink:href="#DejaVuSans-6e" x="861.710938"/>
      <use xlink:href="#DejaVuSans-20" x="925.089844"/>
      <use xlink:href="#DejaVuSans-28" x="956.876953"/>
      <use xlink:href="#DejaVuSans-39" x="995.890625"/>
      <use xlink:href="#DejaVuSans-33" x="1059.513672"/>
      <use xlink:href="#DejaVuSans-2e" x="1123.136719"/>
      <use xlink:href="#DejaVuSans-37" x="1154.923828"/>
      <use xlink:href="#DejaVuSans-36" x="1218.546875"/>
      <use xlink:href="#DejaVuSans-25" x="1282.169922"/>
      <use xlink:href="#DejaVuSans-29" x="1377.189453"/>
     </g>
    </g>
    <g id="patch_27">
     <path d="M 598.246317 214.497213 
L 626.246317 214.497213 
L 626.246317 204.697213 
L 598.246317 204.697213 
z
" style="fill: #73b2d6; stroke: #ffffff; stroke-linejoin: miter"/>
    </g>
    <g id="text_7">
     <!-- svm (93.5%) -->
     <g transform="translate(637.446317 214.497213) scale(0.14 -0.14)">
      <defs>
       <path id="DejaVuSans-76" d="M 191 3500 
L 800 3500 
L 1894 563 
L 2988 3500 
L 3597 3500 
L 2284 0 
L 1503 0 
L 191 3500 
z
" transform="scale(0.015625)"/>
      </defs>
      <use xlink:href="#DejaVuSans-73"/>
      <use xlink:href="#DejaVuSans-76" x="52.099609"/>
      <use xlink:href="#DejaVuSans-6d" x="111.279297"/>
      <use xlink:href="#DejaVuSans-20" x="208.691406"/>
      <use xlink:href="#DejaVuSans-28" x="240.478516"/>
      <use xlink:href="#DejaVuSans-39" x="279.492188"/>
      <use xlink:href="#DejaVuSans-33" x="343.115234"/>
      <use xlink:href="#DejaVuSans-2e" x="406.738281"/>
      <use xlink:href="#DejaVuSans-35" x="438.525391"/>
      <use xlink:href="#DejaVuSans-25" x="502.148438"/>
      <use xlink:href="#DejaVuSans-29" x="597.167969"/>
     </g>
    </g>
    <g id="patch_28">
     <path d="M 598.246317 235.046587 
L 626.246317 235.046587 
L 626.246317 225.246587 
L 598.246317 225.246587 
z
" style="fill: #73b2d6; stroke: #ffffff; stroke-linejoin: miter"/>
    </g>
    <g id="text_8">
     <!-- crf (93.49%) -->
     <g transform="translate(637.446317 235.046587) scale(0.14 -0.14)">
      <use xlink:href="#DejaVuSans-63"/>
      <use xlink:href="#DejaVuSans-72" x="54.980469"/>
      <use xlink:href="#DejaVuSans-66" x="96.09375"/>
      <use xlink:href="#DejaVuSans-20" x="131.298828"/>
      <use xlink:href="#DejaVuSans-28" x="163.085938"/>
      <use xlink:href="#DejaVuSans-39" x="202.099609"/>
      <use xlink:href="#DejaVuSans-33" x="265.722656"/>
      <use xlink:href="#DejaVuSans-2e" x="329.345703"/>
      <use xlink:href="#DejaVuSans-34" x="361.132812"/>
      <use xlink:href="#DejaVuSans-39" x="424.755859"/>
      <use xlink:href="#DejaVuSans-25" x="488.378906"/>
      <use xlink:href="#DejaVuSans-29" x="583.398438"/>
     </g>
    </g>
    <g id="patch_29">
     <path d="M 598.246317 255.595963 
L 626.246317 255.595963 
L 626.246317 245.795963 
L 598.246317 245.795963 
z
" style="fill: #75b3d7; stroke: #ffffff; stroke-linejoin: miter"/>
    </g>
    <g id="text_9">
     <!-- recurrent_neural_network (92.84%) -->
     <g transform="translate(637.446317 255.595963) scale(0.14 -0.14)">
      <defs>
       <path id="DejaVuSans-32" d="M 1228 531 
L 3431 531 
L 3431 0 
L 469 0 
L 469 531 
Q 828 903 1448 1529 
Q 2069 2156 2228 2338 
Q 2531 2678 2651 2914 
Q 2772 3150 2772 3378 
Q 2772 3750 2511 3984 
Q 2250 4219 1831 4219 
Q 1534 4219 1204 4116 
Q 875 4013 500 3803 
L 500 4441 
Q 881 4594 1212 4672 
Q 1544 4750 1819 4750 
Q 2544 4750 2975 4387 
Q 3406 4025 3406 3419 
Q 3406 3131 3298 2873 
Q 3191 2616 2906 2266 
Q 2828 2175 2409 1742 
Q 1991 1309 1228 531 
z
" transform="scale(0.015625)"/>
       <path id="DejaVuSans-38" d="M 2034 2216 
Q 1584 2216 1326 1975 
Q 1069 1734 1069 1313 
Q 1069 891 1326 650 
Q 1584 409 2034 409 
Q 2484 409 2743 651 
Q 3003 894 3003 1313 
Q 3003 1734 2745 1975 
Q 2488 2216 2034 2216 
z
M 1403 2484 
Q 997 2584 770 2862 
Q 544 3141 544 3541 
Q 544 4100 942 4425 
Q 1341 4750 2034 4750 
Q 2731 4750 3128 4425 
Q 3525 4100 3525 3541 
Q 3525 3141 3298 2862 
Q 3072 2584 2669 2484 
Q 3125 2378 3379 2068 
Q 3634 1759 3634 1313 
Q 3634 634 3220 271 
Q 2806 -91 2034 -91 
Q 1263 -91 848 271 
Q 434 634 434 1313 
Q 434 1759 690 2068 
Q 947 2378 1403 2484 
z
M 1172 3481 
Q 1172 3119 1398 2916 
Q 1625 2713 2034 2713 
Q 2441 2713 2670 2916 
Q 2900 3119 2900 3481 
Q 2900 3844 2670 4047 
Q 2441 4250 2034 4250 
Q 1625 4250 1398 4047 
Q 1172 3844 1172 3481 
z
" transform="scale(0.015625)"/>
      </defs>
      <use xlink:href="#DejaVuSans-72"/>
      <use xlink:href="#DejaVuSans-65" x="38.863281"/>
      <use xlink:href="#DejaVuSans-63" x="100.386719"/>
      <use xlink:href="#DejaVuSans-75" x="155.367188"/>
      <use xlink:href="#DejaVuSans-72" x="218.746094"/>
      <use xlink:href="#DejaVuSans-72" x="258.109375"/>
      <use xlink:href="#DejaVuSans-65" x="296.972656"/>
      <use xlink:href="#DejaVuSans-6e" x="358.496094"/>
      <use xlink:href="#DejaVuSans-74" x="421.875"/>
      <use xlink:href="#DejaVuSans-5f" x="461.083984"/>
      <use xlink:href="#DejaVuSans-6e" x="511.083984"/>
      <use xlink:href="#DejaVuSans-65" x="574.462891"/>
      <use xlink:href="#DejaVuSans-75" x="635.986328"/>
      <use xlink:href="#DejaVuSans-72" x="699.365234"/>
      <use xlink:href="#DejaVuSans-61" x="740.478516"/>
      <use xlink:href="#DejaVuSans-6c" x="801.757812"/>
      <use xlink:href="#DejaVuSans-5f" x="829.541016"/>
      <use xlink:href="#DejaVuSans-6e" x="879.541016"/>
      <use xlink:href="#DejaVuSans-65" x="942.919922"/>
      <use xlink:href="#DejaVuSans-74" x="1004.443359"/>
      <use xlink:href="#DejaVuSans-77" x="1043.652344"/>
      <use xlink:href="#DejaVuSans-6f" x="1125.439453"/>
      <use xlink:href="#DejaVuSans-72" x="1186.621094"/>
      <use xlink:href="#DejaVuSans-6b" x="1227.734375"/>
      <use xlink:href="#DejaVuSans-20" x="1285.644531"/>
      <use xlink:href="#DejaVuSans-28" x="1317.431641"/>
      <use xlink:href="#DejaVuSans-39" x="1356.445312"/>
      <use xlink:href="#DejaVuSans-32" x="1420.068359"/>
      <use xlink:href="#DejaVuSans-2e" x="1483.691406"/>
      <use xlink:href="#DejaVuSans-38" x="1515.478516"/>
      <use xlink:href="#DejaVuSans-34" x="1579.101562"/>
      <use xlink:href="#DejaVuSans-25" x="1642.724609"/>
      <use xlink:href="#DejaVuSans-29" x="1737.744141"/>
     </g>
    </g>
    <g id="patch_30">
     <path d="M 598.246317 276.534713 
L 626.246317 276.534713 
L 626.246317 266.734713 
L 598.246317 266.734713 
z
" style="fill: #75b3d7; stroke: #ffffff; stroke-linejoin: miter"/>
    </g>
    <g id="text_10">
     <!-- naive_bayes (92.72%) -->
     <g transform="translate(637.446317 276.534713) scale(0.14 -0.14)">
      <defs>
       <path id="DejaVuSans-79" d="M 2059 -325 
Q 1816 -950 1584 -1140 
Q 1353 -1331 966 -1331 
L 506 -1331 
L 506 -850 
L 844 -850 
Q 1081 -850 1212 -737 
Q 1344 -625 1503 -206 
L 1606 56 
L 191 3500 
L 800 3500 
L 1894 763 
L 2988 3500 
L 3597 3500 
L 2059 -325 
z
" transform="scale(0.015625)"/>
      </defs>
      <use xlink:href="#DejaVuSans-6e"/>
      <use xlink:href="#DejaVuSans-61" x="63.378906"/>
      <use xlink:href="#DejaVuSans-69" x="124.658203"/>
      <use xlink:href="#DejaVuSans-76" x="152.441406"/>
      <use xlink:href="#DejaVuSans-65" x="211.621094"/>
      <use xlink:href="#DejaVuSans-5f" x="273.144531"/>
      <use xlink:href="#DejaVuSans-62" x="323.144531"/>
      <use xlink:href="#DejaVuSans-61" x="386.621094"/>
      <use xlink:href="#DejaVuSans-79" x="447.900391"/>
      <use xlink:href="#DejaVuSans-65" x="507.080078"/>
      <use xlink:href="#DejaVuSans-73" x="568.603516"/>
      <use xlink:href="#DejaVuSans-20" x="620.703125"/>
      <use xlink:href="#DejaVuSans-28" x="652.490234"/>
      <use xlink:href="#DejaVuSans-39" x="691.503906"/>
      <use xlink:href="#DejaVuSans-32" x="755.126953"/>
      <use xlink:href="#DejaVuSans-2e" x="818.75"/>
      <use xlink:href="#DejaVuSans-37" x="850.537109"/>
      <use xlink:href="#DejaVuSans-32" x="914.160156"/>
      <use xlink:href="#DejaVuSans-25" x="977.783203"/>
      <use xlink:href="#DejaVuSans-29" x="1072.802734"/>
     </g>
    </g>
    <g id="patch_31">
     <path d="M 598.246317 297.473462 
L 626.246317 297.473462 
L 626.246317 287.673462 
L 598.246317 287.673462 
z
" style="fill: #7ab5d8; stroke: #ffffff; stroke-linejoin: miter"/>
    </g>
    <g id="text_11">
     <!-- knn (89.66%) -->
     <g transform="translate(637.446317 297.473462) scale(0.14 -0.14)">
      <use xlink:href="#DejaVuSans-6b"/>
      <use xlink:href="#DejaVuSans-6e" x="57.910156"/>
      <use xlink:href="#DejaVuSans-6e" x="121.289062"/>
      <use xlink:href="#DejaVuSans-20" x="184.667969"/>
      <use xlink:href="#DejaVuSans-28" x="216.455078"/>
      <use xlink:href="#DejaVuSans-38" x="255.46875"/>
      <use xlink:href="#DejaVuSans-39" x="319.091797"/>
      <use xlink:href="#DejaVuSans-2e" x="382.714844"/>
      <use xlink:href="#DejaVuSans-36" x="414.501953"/>
      <use xlink:href="#DejaVuSans-36" x="478.125"/>
      <use xlink:href="#DejaVuSans-25" x="541.748047"/>
      <use xlink:href="#DejaVuSans-29" x="636.767578"/>
     </g>
    </g>
    <g id="patch_32">
     <path d="M 598.246317 318.022838 
L 626.246317 318.022838 
L 626.246317 308.222838 
L 598.246317 308.222838 
z
" style="fill: #7bb6d8; stroke: #ffffff; stroke-linejoin: miter"/>
    </g>
    <g id="text_12">
     <!-- hmm (88.77%) -->
     <g transform="translate(637.446317 318.022838) scale(0.14 -0.14)">
      <defs>
       <path id="DejaVuSans-68" d="M 3513 2113 
L 3513 0 
L 2938 0 
L 2938 2094 
Q 2938 2591 2744 2837 
Q 2550 3084 2163 3084 
Q 1697 3084 1428 2787 
Q 1159 2491 1159 1978 
L 1159 0 
L 581 0 
L 581 4863 
L 1159 4863 
L 1159 2956 
Q 1366 3272 1645 3428 
Q 1925 3584 2291 3584 
Q 2894 3584 3203 3211 
Q 3513 2838 3513 2113 
z
" transform="scale(0.015625)"/>
      </defs>
      <use xlink:href="#DejaVuSans-68"/>
      <use xlink:href="#DejaVuSans-6d" x="63.378906"/>
      <use xlink:href="#DejaVuSans-6d" x="160.791016"/>
      <use xlink:href="#DejaVuSans-20" x="258.203125"/>
      <use xlink:href="#DejaVuSans-28" x="289.990234"/>
      <use xlink:href="#DejaVuSans-38" x="329.003906"/>
      <use xlink:href="#DejaVuSans-38" x="392.626953"/>
      <use xlink:href="#DejaVuSans-2e" x="456.25"/>
      <use xlink:href="#DejaVuSans-37" x="488.037109"/>
      <use xlink:href="#DejaVuSans-37" x="551.660156"/>
      <use xlink:href="#DejaVuSans-25" x="615.283203"/>
      <use xlink:href="#DejaVuSans-29" x="710.302734"/>
     </g>
    </g>
   </g>
  </g>
 </g>
</svg>
