<?xml version="1.0" encoding="utf-8" standalone="no"?>
<!DOCTYPE svg PUBLIC "-//W3C//DTD SVG 1.1//EN"
  "http://www.w3.org/Graphics/SVG/1.1/DTD/svg11.dtd">
<svg xmlns:xlink="http://www.w3.org/1999/xlink" width="898.987486pt" height="653.068694pt" viewBox="0 0 898.987486 653.068694" xmlns="http://www.w3.org/2000/svg" version="1.1">
 <metadata>
  <rdf:RDF xmlns:dc="http://purl.org/dc/elements/1.1/" xmlns:cc="http://creativecommons.org/ns#" xmlns:rdf="http://www.w3.org/1999/02/22-rdf-syntax-ns#">
   <cc:Work>
    <dc:type rdf:resource="http://purl.org/dc/dcmitype/StillImage"/>
    <dc:date>2023-06-21T15:50:27.747660</dc:date>
    <dc:format>image/svg+xml</dc:format>
    <dc:creator>
     <cc:Agent>
      <dc:title>Matplotlib v3.7.0, https://matplotlib.org/</dc:title>
     </cc:Agent>
    </dc:creator>
   </cc:Work>
  </rdf:RDF>
 </metadata>
 <defs>
  <style type="text/css">*{stroke-linejoin: round; stroke-linecap: butt}</style>
 </defs>
 <g id="figure_1">
  <g id="patch_1">
   <path d="M 0 653.068694 
L 898.987486 653.068694 
L 898.987486 0 
L 0 0 
z
" style="fill: #ffffff"/>
  </g>
  <g id="axes_1">
   <g id="patch_2">
    <path d="M 326.532673 7.2 
C 250.861775 7.2 177.600163 34.096969 119.905452 83.060273 
C 62.210741 132.023578 23.756816 199.935331 11.449912 274.598743 
C -0.856992 349.262154 13.766804 425.922804 52.694901 490.812619 
C 91.622998 555.702435 152.376531 604.68936 224.044308 628.975459 
L 231.928028 605.710762 
C 165.773157 583.292825 109.692973 538.074124 73.759345 478.175833 
C 37.825717 418.277542 24.326828 347.513865 35.687048 278.593793 
C 47.047267 209.673721 82.543198 146.985948 135.799854 101.789052 
C 189.05651 56.592156 256.682613 31.764185 326.532673 31.764185 
z
" style="fill: #f4f5f5; stroke: #ffffff; stroke-linejoin: miter"/>
   </g>
   <g id="patch_3">
    <path d="M 224.044308 628.975459 
C 267.921476 643.844138 314.513281 648.987926 360.577247 644.04885 
C 406.641213 639.109774 451.083383 624.20513 490.81088 600.37218 
C 530.538377 576.539231 564.607725 544.343978 590.647929 506.026993 
C 616.688132 467.710009 634.080769 424.181271 641.61543 378.470087 
C 649.150091 332.758903 646.647837 285.950852 634.282809 241.303461 
C 621.917781 196.65607 599.983631 155.229654 570.006829 119.907213 
C 540.030027 84.584772 502.722482 56.205168 460.680549 36.743429 
C 418.638615 17.281691 372.860732 7.200009 326.532733 7.2 
L 326.532729 31.764185 
C 369.297035 31.764193 411.553542 41.070361 450.361481 59.035043 
C 489.16942 76.999724 523.607154 103.196282 551.278048 135.801612 
C 578.948942 168.406942 599.19585 206.64671 610.609722 247.859687 
C 622.023594 289.072664 624.333366 332.280095 617.378295 374.475034 
C 610.423223 416.669973 594.368481 456.850347 570.33137 492.219871 
C 546.29426 527.589395 514.84563 557.30809 478.174095 579.307736 
C 441.502559 601.307381 400.479018 615.065514 357.958434 619.624662 
C 315.437849 624.183809 272.430029 619.435697 231.928028 605.710762 
z
" style="fill: #f39ba0; stroke: #ffffff; stroke-linejoin: miter"/>
   </g>
   <g id="patch_4">
    <path d="M 326.532673 31.764185 
C 252.700504 31.764185 181.497244 59.503703 127.123439 109.45046 
C 72.749634 159.397217 39.077412 227.994349 32.82225 301.561068 
C 26.567089 375.127787 48.174438 448.425179 93.334999 506.83505 
C 138.495559 565.24492 203.993307 604.607722 276.765584 617.073066 
L 280.912842 592.861511 
C 214.204921 581.434946 154.165318 545.352377 112.768138 491.809996 
C 71.370958 438.267614 51.564221 371.078338 57.298119 303.642179 
C 63.032017 236.20602 93.898221 173.325315 143.740875 127.540788 
C 193.58353 81.756261 258.853185 56.328369 326.532673 56.328369 
z
" style="fill: #f4f5f5; stroke: #ffffff; stroke-linejoin: miter"/>
   </g>
   <g id="patch_5">
    <path d="M 276.765584 617.073066 
C 316.993225 623.963759 358.217006 622.425136 397.819067 612.554906 
C 437.421128 602.684676 474.545049 584.69629 506.833323 559.732075 
C 539.121598 534.76786 565.875971 503.367685 585.397442 467.525575 
C 604.918914 431.683465 616.785318 392.17453 620.243096 351.507732 
C 623.700874 310.840934 618.675249 269.895719 605.485365 231.272259 
C 592.295482 192.648799 571.226581 157.182351 543.616614 127.125166 
C 516.006647 97.06798 482.452698 73.070062 445.085566 56.655369 
C 407.718435 40.240675 367.346209 31.764185 326.532673 31.764185 
L 326.532673 56.328369 
C 363.945081 56.328369 400.952955 64.098486 435.206159 79.145288 
C 469.459363 94.19209 500.217149 116.190182 525.526285 143.742602 
C 550.835422 171.295022 570.148581 203.805932 582.239308 239.210771 
C 594.330034 274.615609 598.936858 312.148722 595.767228 349.426621 
C 592.597598 386.704519 581.72006 422.921043 563.825378 455.77631 
C 545.930696 488.631577 521.405854 517.415072 491.808269 540.298935 
C 462.210684 563.182799 428.180424 579.672153 391.878534 588.719864 
C 355.576645 597.767575 317.788179 599.177979 280.912842 592.861511 
z
" style="fill: #f4a1a5; stroke: #ffffff; stroke-linejoin: miter"/>
   </g>
   <g id="patch_6">
    <path d="M 326.532673 56.328369 
C 290.156611 56.328369 254.152332 63.673975 220.683513 77.923752 
C 187.214695 92.173529 156.965478 113.036196 131.753688 139.258011 
C 106.541898 165.479826 86.882893 196.524786 73.95808 230.527245 
C 61.033268 264.529703 55.106845 300.794611 56.534961 337.142629 
C 57.963077 373.490647 66.71654 409.178781 82.269309 442.062353 
C 97.822079 474.945925 119.856239 504.352758 147.047647 528.515648 
C 174.239056 552.678538 206.03189 571.103568 240.515558 582.683487 
C 274.999227 594.263407 311.468846 598.761508 347.732774 595.907477 
L 345.805492 571.419016 
C 312.838285 574.013589 279.684086 569.924406 248.335296 559.397207 
C 216.986506 548.870008 188.08393 532.11998 163.364468 510.153716 
C 138.645006 488.187453 118.613951 461.453969 104.47507 431.559812 
C 90.336188 401.665656 82.378495 369.221897 81.080208 336.178244 
C 79.78192 303.134591 85.169577 270.166493 96.919407 239.255168 
C 108.669236 208.343842 126.541059 180.121151 149.460868 156.283137 
C 172.380677 132.445124 199.879966 113.479063 230.306164 100.52472 
C 260.732363 87.570377 293.463525 80.892554 326.532673 80.892554 
z
" style="fill: #f4f5f5; stroke: #ffffff; stroke-linejoin: miter"/>
   </g>
   <g id="patch_7">
    <path d="M 347.732774 595.907477 
C 417.319842 590.430862 482.147607 558.197183 528.513921 506.019426 
C 574.880236 453.841669 599.270806 385.674601 596.530386 315.926171 
C 593.789965 246.177741 564.126261 180.134469 513.809062 131.755414 
C 463.491864 83.37636 396.334918 56.328369 326.532673 56.328369 
L 326.532673 80.892554 
C 389.98926 80.892554 451.041028 105.481636 496.783936 149.462595 
C 542.526844 193.443554 569.493847 253.482892 571.985139 316.890556 
C 574.47643 380.298219 552.303185 442.268281 510.15199 489.702605 
C 468.000795 537.13693 409.066463 566.440274 345.805492 571.419016 
z
" style="fill: #f5a8ac; stroke: #ffffff; stroke-linejoin: miter"/>
   </g>
   <g id="patch_8">
    <path d="M 326.532673 80.892554 
C 292.618881 80.892554 259.069688 87.91586 228.003619 101.518974 
C 196.937551 115.122087 169.022575 135.01252 146.021434 159.934253 
C 123.020292 184.855987 105.427546 214.273167 94.35412 246.328191 
C 83.280695 278.383215 78.964685 312.386851 81.678635 346.191877 
C 84.392584 379.996903 94.078139 412.876459 110.123686 442.754306 
C 126.169233 472.632153 148.229768 498.865871 174.91224 519.798884 
C 201.594711 540.731897 232.325405 555.914112 265.163774 564.386822 
C 298.002143 572.859532 332.242113 574.44056 365.721538 569.030069 
L 361.802652 544.780502 
C 331.671169 549.649944 300.855196 548.227019 271.300664 540.60158 
C 241.746132 532.976141 214.088508 519.312147 190.074283 500.472435 
C 166.060059 481.632724 146.205577 458.022378 131.764584 431.132316 
C 117.323592 404.242253 108.606593 374.650652 106.164039 344.226129 
C 103.721484 313.801606 107.605892 283.198333 117.571976 254.348812 
C 127.538059 225.49929 143.37153 199.023828 164.072558 176.594268 
C 184.773585 154.164708 209.897063 136.263318 237.856525 124.020516 
C 265.815986 111.777714 296.01026 105.456738 326.532673 105.456738 
z
" style="fill: #f4f5f5; stroke: #ffffff; stroke-linejoin: miter"/>
   </g>
   <g id="patch_9">
    <path d="M 365.721538 569.030069 
C 426.657214 559.182471 481.697122 526.71942 519.797157 478.154834 
C 557.897192 429.590247 576.326353 368.405223 571.386712 306.876923 
C 566.447071 245.348623 538.4927 187.887382 493.13282 146.02316 
C 447.77294 104.158938 388.258938 80.892554 326.532673 80.892554 
L 326.532673 105.456738 
C 382.086312 105.456738 435.648914 126.396484 476.472805 164.074284 
C 517.296697 201.752084 542.455631 253.467201 546.901308 308.842671 
C 551.346985 364.218141 534.760741 419.284662 500.470709 462.99279 
C 466.180677 506.700918 416.64476 535.917664 361.802652 544.780502 
z
" style="fill: #f5aaae; stroke: #ffffff; stroke-linejoin: miter"/>
   </g>
   <g id="patch_10">
    <path d="M 326.532673 105.456738 
C 294.804863 105.456738 263.445704 112.286831 234.591757 125.48167 
C 205.737811 138.676508 180.059597 157.929465 159.306622 181.928798 
C 138.553647 205.928132 123.208177 234.116136 114.315729 264.572307 
C 105.423281 295.028478 103.190502 327.045063 107.769514 358.440709 
C 112.348526 389.836356 123.632922 419.881479 140.853872 446.529046 
C 158.074823 473.176614 180.832141 495.807378 207.575326 512.879461 
C 234.318511 529.951544 264.426094 541.068218 295.846788 545.472083 
C 327.267481 549.875947 359.271117 547.464662 389.677226 538.402515 
L 382.661164 514.861613 
C 355.633512 522.916855 327.185835 525.060219 299.25633 521.145673 
C 271.326825 517.231127 244.564529 507.34964 220.792809 492.174454 
C 197.021089 476.999269 176.792362 456.883035 161.48485 433.196308 
C 146.177339 409.509581 136.146765 382.802805 132.076532 354.895564 
C 128.006299 326.988322 129.990992 298.529136 137.89539 271.456984 
C 145.799788 244.384832 159.440205 219.328828 177.887294 197.996087 
C 196.334383 176.663346 219.159462 159.549607 244.807415 147.820862 
C 270.455367 136.092117 298.330175 130.020923 326.532673 130.020923 
z
" style="fill: #f4f5f5; stroke: #ffffff; stroke-linejoin: miter"/>
   </g>
   <g id="patch_11">
    <path d="M 389.677226 538.402515 
C 440.557061 523.238437 484.310292 490.242257 512.877735 445.491748 
C 541.445178 400.741238 552.958089 347.163762 545.295833 294.628091 
C 537.633577 242.09242 511.297381 194.035184 471.138275 159.308348 
C 430.97917 124.581513 379.624169 105.456738 326.532673 105.456738 
L 326.532673 130.020923 
C 373.725114 130.020923 419.374003 147.020722 455.070986 177.889021 
C 490.767969 208.757319 514.177921 251.474862 520.988815 298.173236 
C 527.799709 344.871611 517.566011 392.496034 492.172728 432.274265 
C 466.779445 472.052495 427.887685 501.382433 382.661164 514.861613 
z
" style="fill: #f6aeb1; stroke: #ffffff; stroke-linejoin: miter"/>
   </g>
   <g id="patch_12">
    <path d="M 326.532673 130.020923 
C 297.039052 130.020923 267.920321 136.660725 241.342177 149.446496 
C 214.764032 162.232266 191.402138 180.838968 172.994028 203.882735 
C 154.585918 226.926501 141.599558 253.821518 135.000806 282.567477 
C 128.402053 311.313436 128.35866 341.179563 134.873854 369.944576 
C 141.389047 398.709589 154.297199 425.642228 172.63827 448.739388 
C 190.979341 471.836548 214.287068 490.511058 240.827947 503.374007 
C 267.368826 516.236955 296.468139 522.961343 325.961636 523.047047 
C 355.455133 523.132751 384.593035 516.577592 411.208221 503.869107 
L 400.623777 481.702269 
C 377.33549 492.822193 351.839825 498.557957 326.033016 498.482966 
C 300.226206 498.407975 274.764307 492.524136 251.541038 481.269056 
C 228.317769 470.013976 207.923507 453.67378 191.87507 433.463765 
C 175.826633 413.25375 164.532 389.68769 158.831206 364.518304 
C 153.130412 339.348918 153.168381 313.216056 158.942289 288.063342 
C 164.716198 262.910628 176.079262 239.377488 192.186359 219.214193 
C 208.293455 199.050897 228.735112 182.770033 251.990989 171.582484 
C 275.246865 160.394934 300.725755 154.585108 326.532673 154.585108 
z
" style="fill: #f4f5f5; stroke: #ffffff; stroke-linejoin: miter"/>
   </g>
   <g id="patch_13">
    <path d="M 411.208221 503.869107 
C 451.424258 484.666352 483.936133 452.342877 503.372284 412.239118 
C 522.808435 372.13536 528.036071 326.58867 518.191489 283.124206 
C 508.346908 239.659742 484.003877 200.810727 449.184317 172.995737 
C 414.364757 145.180748 371.098043 130.020915 326.532637 130.020923 
L 326.532641 154.585108 
C 365.527371 154.5851 403.385747 167.849954 433.852862 192.18807 
C 464.319977 216.526186 485.620129 250.519074 494.234137 288.55048 
C 502.848146 326.581886 498.273965 366.43524 481.267333 401.526028 
C 464.260701 436.616817 435.81281 464.899858 400.623777 481.702269 
z
" style="fill: #f6b3b6; stroke: #ffffff; stroke-linejoin: miter"/>
   </g>
   <g id="patch_14">
    <path d="M 326.532673 154.585108 
C 298.170258 154.585108 270.243578 161.602525 245.250139 175.009786 
C 220.256701 188.417046 198.964458 207.802196 183.277595 231.431605 
C 167.590732 255.061013 157.991247 282.208637 155.337629 310.446642 
C 152.684012 338.684647 157.057797 367.145385 168.067835 393.283588 
C 179.077873 419.421792 196.385866 442.434332 218.443945 460.263178 
C 240.502025 478.092023 266.632429 490.189362 294.498294 495.473317 
C 322.364159 500.757272 351.109271 499.065489 378.162931 490.549264 
C 405.216591 482.033039 429.747542 466.954045 449.56196 446.660808 
L 431.986347 429.499892 
C 415.002561 446.894095 393.976032 459.818948 370.78718 467.118569 
C 347.598329 474.41819 322.959661 475.868291 299.074634 471.339186 
C 275.189607 466.810081 252.792117 456.440934 233.885192 441.159067 
C 214.978267 425.877199 200.142845 406.152164 190.705669 383.74799 
C 181.268494 361.343816 177.519535 336.948897 179.794064 312.744893 
C 182.068594 288.540889 190.296724 265.271497 203.742606 245.017718 
C 217.188489 224.76394 235.438982 208.148097 256.86193 196.656159 
C 278.284877 185.164221 302.222032 179.149292 326.532673 179.149292 
z
" style="fill: #f4f5f5; stroke: #ffffff; stroke-linejoin: miter"/>
   </g>
   <g id="patch_15">
    <path d="M 449.56196 446.660808 
C 473.195825 422.455825 489.169091 391.806106 495.471589 358.568787 
C 501.774087 325.331469 498.129859 290.961859 484.997518 259.785226 
C 471.865176 228.608594 449.819724 201.990018 421.635489 183.279335 
C 393.451253 164.568652 360.36229 154.585114 326.532706 154.585108 
L 326.532701 179.149292 
C 355.529488 179.149298 383.891456 187.706616 408.049372 203.744344 
C 432.207289 219.782073 451.10339 242.597995 462.359683 269.320823 
C 473.615976 296.04365 476.739599 325.503316 471.337458 353.992446 
C 465.935317 382.481576 452.243947 408.752764 431.986347 429.499892 
z
" style="fill: #f7bcbf; stroke: #ffffff; stroke-linejoin: miter"/>
   </g>
   <g id="patch_16">
    <path d="M 326.532673 179.149292 
C 301.849884 179.149292 277.558045 185.349784 255.894817 197.179604 
C 234.231589 209.009424 215.883219 226.093829 202.539882 246.859074 
C 189.196544 267.62432 181.280928 291.412606 179.522186 316.032657 
C 177.763445 340.652708 182.217291 365.324611 192.473456 387.775695 
C 202.729621 410.226779 218.46321 429.745839 238.224912 444.534863 
C 257.986614 459.323887 281.150419 468.914388 305.582574 472.42293 
C 330.014729 475.931473 354.941275 473.246913 378.066084 464.616541 
C 401.190892 455.986169 421.781417 441.683377 437.940946 423.025679 
L 419.3729 406.943799 
C 405.906626 422.491881 388.747856 434.410874 369.477182 441.602851 
C 350.206508 448.794827 329.434387 451.031961 309.074257 448.108175 
C 288.714128 445.18439 269.410957 437.192306 252.942872 424.868119 
C 236.474788 412.543933 223.363463 396.278049 214.816659 377.568813 
C 206.269855 358.859576 202.558316 338.299657 204.023934 317.782948 
C 205.489552 297.266238 212.085899 277.442666 223.205347 260.138295 
C 234.324795 242.833924 249.615103 228.59692 267.667793 218.738737 
C 285.720483 208.880553 305.963682 203.713477 326.532673 203.713477 
z
" style="fill: #f4f5f5; stroke: #ffffff; stroke-linejoin: miter"/>
   </g>
   <g id="patch_17">
    <path d="M 437.940946 423.025679 
C 456.434918 401.672645 468.405809 375.446182 472.421204 347.484499 
C 476.436599 319.522817 472.329686 290.987526 460.591891 265.293105 
C 448.854096 239.598684 429.973042 217.812556 406.207999 202.541608 
C 382.442957 187.27066 354.781197 179.149292 326.532673 179.149292 
L 326.532673 203.713477 
C 350.07311 203.713477 373.124576 210.481283 392.928778 223.207073 
C 412.73298 235.932864 428.467192 254.08797 438.248688 275.499987 
C 448.030184 296.912005 451.452611 320.691414 448.106449 343.992816 
C 444.760286 367.294219 434.784544 389.149604 419.3729 406.943799 
z
" style="fill: #f7bec1; stroke: #ffffff; stroke-linejoin: miter"/>
   </g>
   <g id="patch_18">
    <path d="M 326.532673 203.713477 
C 303.546339 203.713477 281.015142 210.166427 261.513869 222.334907 
C 242.012596 234.503387 226.313511 251.905517 216.21065 272.552642 
C 206.107789 293.199766 202.001232 316.274246 204.360263 339.139208 
C 206.719293 362.004171 215.450493 383.75415 229.556089 401.903632 
C 243.661685 420.053115 262.583087 433.883369 284.158024 441.813922 
C 305.73296 449.744475 329.107049 451.461272 351.60918 446.768122 
C 374.111311 442.074973 394.850385 431.157729 411.456413 415.263976 
C 428.062441 399.370222 439.877813 379.129363 445.552309 356.854452 
L 421.748382 350.790442 
C 417.208785 368.61037 407.756487 384.803058 394.471665 397.518061 
C 381.186843 410.233063 364.595583 418.966858 346.593879 422.721378 
C 328.592174 426.475897 309.892903 425.10246 292.632954 418.758018 
C 275.373005 412.413575 260.235883 401.349372 248.951406 386.829786 
C 237.666929 372.3102 230.681969 354.910217 228.794745 336.618247 
C 226.90752 318.326277 230.192766 299.866693 238.275054 283.348993 
C 246.357343 266.831294 258.916612 252.90959 274.51763 243.174806 
C 290.118649 233.440022 308.143606 228.277662 326.532673 228.277662 
z
" style="fill: #f4f5f5; stroke: #ffffff; stroke-linejoin: miter"/>
   </g>
   <g id="patch_19">
    <path d="M 445.552309 356.854452 
C 450.171202 338.723248 450.586499 319.774055 446.766397 301.457899 
C 442.946295 283.141744 434.990856 265.938389 423.509265 251.165177 
C 412.027674 236.391964 397.320674 224.435855 380.514447 216.212384 
C 363.708221 207.988913 345.242981 203.71348 326.532696 203.713477 
L 326.532692 228.277662 
C 341.500919 228.277664 356.273111 231.69801 369.718092 238.276787 
C 383.163074 244.855564 394.928674 254.420451 404.113947 266.239021 
C 413.299219 278.057591 419.663571 291.820275 422.719652 306.473199 
C 425.775734 321.126124 425.443497 336.285479 421.748382 350.790442 
z
" style="fill: #f9cccf; stroke: #ffffff; stroke-linejoin: miter"/>
   </g>
   <g id="patch_20">
    <path d="M 326.532673 228.277662 
C 307.597972 228.277662 289.060883 233.750918 273.162842 244.035626 
C 257.264801 254.320333 244.673498 268.984552 236.911427 286.255139 
C 229.149356 303.525725 226.54251 322.677346 229.4061 341.394257 
C 232.269689 360.111168 240.483448 377.607293 253.0542 391.767065 
C 265.624951 405.926836 282.024745 416.155569 300.270579 421.216442 
C 318.516414 426.277315 337.841996 425.957782 355.910547 420.296478 
C 373.979098 414.635174 390.031772 403.869864 402.127538 389.302251 
C 414.223304 374.734638 421.854161 356.976534 424.097415 338.175185 
L 399.70623 335.264989 
C 398.023789 349.366001 392.300646 362.684578 383.228822 373.610288 
C 374.156998 384.535998 362.117492 392.60998 348.566079 396.855958 
C 335.014665 401.101936 320.520479 401.341586 306.836103 397.545931 
C 293.151727 393.750277 280.851881 386.078727 271.423818 375.458898 
C 261.995755 364.83907 255.835435 351.716976 253.687743 337.679293 
C 251.540051 323.64161 253.495186 309.277894 259.316739 296.324954 
C 265.138292 283.372014 274.581769 272.37385 286.5053 264.660319 
C 298.42883 256.946789 312.331648 252.841846 326.532673 252.841846 
z
" style="fill: #f4f5f5; stroke: #ffffff; stroke-linejoin: miter"/>
   </g>
   <g id="patch_21">
    <path d="M 424.097415 338.175185 
C 425.742455 324.387634 424.446342 310.406692 420.29475 297.156522 
C 416.143158 283.906351 409.229623 271.685481 400.011141 261.301728 
C 390.792659 250.917976 379.476924 242.605289 366.811922 236.913148 
C 354.14692 231.221008 340.417997 228.277659 326.532655 228.277662 
L 326.53266 252.841846 
C 336.946666 252.841844 347.243359 255.049356 356.74211 259.318461 
C 366.240861 263.587567 374.727663 269.822082 381.641524 277.609896 
C 388.555386 285.397711 393.740537 294.563364 396.854231 304.500991 
C 399.967925 314.438619 400.94001 324.924325 399.70623 335.264989 
z
" style="fill: #fad0d2; stroke: #ffffff; stroke-linejoin: miter"/>
   </g>
   <g id="matplotlib.axis_1"/>
   <g id="matplotlib.axis_2"/>
   <g id="text_1">
    <!-- AUPRC_0 on generalized models -->
    <g transform="translate(190.570798 94.3392) scale(0.168 -0.168)">
     <defs>
      <path id="DejaVuSans-41" d="M 2188 4044 
L 1331 1722 
L 3047 1722 
L 2188 4044 
z
M 1831 4666 
L 2547 4666 
L 4325 0 
L 3669 0 
L 3244 1197 
L 1141 1197 
L 716 0 
L 50 0 
L 1831 4666 
z
" transform="scale(0.015625)"/>
      <path id="DejaVuSans-55" d="M 556 4666 
L 1191 4666 
L 1191 1831 
Q 1191 1081 1462 751 
Q 1734 422 2344 422 
Q 2950 422 3222 751 
Q 3494 1081 3494 1831 
L 3494 4666 
L 4128 4666 
L 4128 1753 
Q 4128 841 3676 375 
Q 3225 -91 2344 -91 
Q 1459 -91 1007 375 
Q 556 841 556 1753 
L 556 4666 
z
" transform="scale(0.015625)"/>
      <path id="DejaVuSans-50" d="M 1259 4147 
L 1259 2394 
L 2053 2394 
Q 2494 2394 2734 2622 
Q 2975 2850 2975 3272 
Q 2975 3691 2734 3919 
Q 2494 4147 2053 4147 
L 1259 4147 
z
M 628 4666 
L 2053 4666 
Q 2838 4666 3239 4311 
Q 3641 3956 3641 3272 
Q 3641 2581 3239 2228 
Q 2838 1875 2053 1875 
L 1259 1875 
L 1259 0 
L 628 0 
L 628 4666 
z
" transform="scale(0.015625)"/>
      <path id="DejaVuSans-52" d="M 2841 2188 
Q 3044 2119 3236 1894 
Q 3428 1669 3622 1275 
L 4263 0 
L 3584 0 
L 2988 1197 
Q 2756 1666 2539 1819 
Q 2322 1972 1947 1972 
L 1259 1972 
L 1259 0 
L 628 0 
L 628 4666 
L 2053 4666 
Q 2853 4666 3247 4331 
Q 3641 3997 3641 3322 
Q 3641 2881 3436 2590 
Q 3231 2300 2841 2188 
z
M 1259 4147 
L 1259 2491 
L 2053 2491 
Q 2509 2491 2742 2702 
Q 2975 2913 2975 3322 
Q 2975 3731 2742 3939 
Q 2509 4147 2053 4147 
L 1259 4147 
z
" transform="scale(0.015625)"/>
      <path id="DejaVuSans-43" d="M 4122 4306 
L 4122 3641 
Q 3803 3938 3442 4084 
Q 3081 4231 2675 4231 
Q 1875 4231 1450 3742 
Q 1025 3253 1025 2328 
Q 1025 1406 1450 917 
Q 1875 428 2675 428 
Q 3081 428 3442 575 
Q 3803 722 4122 1019 
L 4122 359 
Q 3791 134 3420 21 
Q 3050 -91 2638 -91 
Q 1578 -91 968 557 
Q 359 1206 359 2328 
Q 359 3453 968 4101 
Q 1578 4750 2638 4750 
Q 3056 4750 3426 4639 
Q 3797 4528 4122 4306 
z
" transform="scale(0.015625)"/>
      <path id="DejaVuSans-5f" d="M 3263 -1063 
L 3263 -1509 
L -63 -1509 
L -63 -1063 
L 3263 -1063 
z
" transform="scale(0.015625)"/>
      <path id="DejaVuSans-30" d="M 2034 4250 
Q 1547 4250 1301 3770 
Q 1056 3291 1056 2328 
Q 1056 1369 1301 889 
Q 1547 409 2034 409 
Q 2525 409 2770 889 
Q 3016 1369 3016 2328 
Q 3016 3291 2770 3770 
Q 2525 4250 2034 4250 
z
M 2034 4750 
Q 2819 4750 3233 4129 
Q 3647 3509 3647 2328 
Q 3647 1150 3233 529 
Q 2819 -91 2034 -91 
Q 1250 -91 836 529 
Q 422 1150 422 2328 
Q 422 3509 836 4129 
Q 1250 4750 2034 4750 
z
" transform="scale(0.015625)"/>
      <path id="DejaVuSans-20" transform="scale(0.015625)"/>
      <path id="DejaVuSans-6f" d="M 1959 3097 
Q 1497 3097 1228 2736 
Q 959 2375 959 1747 
Q 959 1119 1226 758 
Q 1494 397 1959 397 
Q 2419 397 2687 759 
Q 2956 1122 2956 1747 
Q 2956 2369 2687 2733 
Q 2419 3097 1959 3097 
z
M 1959 3584 
Q 2709 3584 3137 3096 
Q 3566 2609 3566 1747 
Q 3566 888 3137 398 
Q 2709 -91 1959 -91 
Q 1206 -91 779 398 
Q 353 888 353 1747 
Q 353 2609 779 3096 
Q 1206 3584 1959 3584 
z
" transform="scale(0.015625)"/>
      <path id="DejaVuSans-6e" d="M 3513 2113 
L 3513 0 
L 2938 0 
L 2938 2094 
Q 2938 2591 2744 2837 
Q 2550 3084 2163 3084 
Q 1697 3084 1428 2787 
Q 1159 2491 1159 1978 
L 1159 0 
L 581 0 
L 581 3500 
L 1159 3500 
L 1159 2956 
Q 1366 3272 1645 3428 
Q 1925 3584 2291 3584 
Q 2894 3584 3203 3211 
Q 3513 2838 3513 2113 
z
" transform="scale(0.015625)"/>
      <path id="DejaVuSans-67" d="M 2906 1791 
Q 2906 2416 2648 2759 
Q 2391 3103 1925 3103 
Q 1463 3103 1205 2759 
Q 947 2416 947 1791 
Q 947 1169 1205 825 
Q 1463 481 1925 481 
Q 2391 481 2648 825 
Q 2906 1169 2906 1791 
z
M 3481 434 
Q 3481 -459 3084 -895 
Q 2688 -1331 1869 -1331 
Q 1566 -1331 1297 -1286 
Q 1028 -1241 775 -1147 
L 775 -588 
Q 1028 -725 1275 -790 
Q 1522 -856 1778 -856 
Q 2344 -856 2625 -561 
Q 2906 -266 2906 331 
L 2906 616 
Q 2728 306 2450 153 
Q 2172 0 1784 0 
Q 1141 0 747 490 
Q 353 981 353 1791 
Q 353 2603 747 3093 
Q 1141 3584 1784 3584 
Q 2172 3584 2450 3431 
Q 2728 3278 2906 2969 
L 2906 3500 
L 3481 3500 
L 3481 434 
z
" transform="scale(0.015625)"/>
      <path id="DejaVuSans-65" d="M 3597 1894 
L 3597 1613 
L 953 1613 
Q 991 1019 1311 708 
Q 1631 397 2203 397 
Q 2534 397 2845 478 
Q 3156 559 3463 722 
L 3463 178 
Q 3153 47 2828 -22 
Q 2503 -91 2169 -91 
Q 1331 -91 842 396 
Q 353 884 353 1716 
Q 353 2575 817 3079 
Q 1281 3584 2069 3584 
Q 2775 3584 3186 3129 
Q 3597 2675 3597 1894 
z
M 3022 2063 
Q 3016 2534 2758 2815 
Q 2500 3097 2075 3097 
Q 1594 3097 1305 2825 
Q 1016 2553 972 2059 
L 3022 2063 
z
" transform="scale(0.015625)"/>
      <path id="DejaVuSans-72" d="M 2631 2963 
Q 2534 3019 2420 3045 
Q 2306 3072 2169 3072 
Q 1681 3072 1420 2755 
Q 1159 2438 1159 1844 
L 1159 0 
L 581 0 
L 581 3500 
L 1159 3500 
L 1159 2956 
Q 1341 3275 1631 3429 
Q 1922 3584 2338 3584 
Q 2397 3584 2469 3576 
Q 2541 3569 2628 3553 
L 2631 2963 
z
" transform="scale(0.015625)"/>
      <path id="DejaVuSans-61" d="M 2194 1759 
Q 1497 1759 1228 1600 
Q 959 1441 959 1056 
Q 959 750 1161 570 
Q 1363 391 1709 391 
Q 2188 391 2477 730 
Q 2766 1069 2766 1631 
L 2766 1759 
L 2194 1759 
z
M 3341 1997 
L 3341 0 
L 2766 0 
L 2766 531 
Q 2569 213 2275 61 
Q 1981 -91 1556 -91 
Q 1019 -91 701 211 
Q 384 513 384 1019 
Q 384 1609 779 1909 
Q 1175 2209 1959 2209 
L 2766 2209 
L 2766 2266 
Q 2766 2663 2505 2880 
Q 2244 3097 1772 3097 
Q 1472 3097 1187 3025 
Q 903 2953 641 2809 
L 641 3341 
Q 956 3463 1253 3523 
Q 1550 3584 1831 3584 
Q 2591 3584 2966 3190 
Q 3341 2797 3341 1997 
z
" transform="scale(0.015625)"/>
      <path id="DejaVuSans-6c" d="M 603 4863 
L 1178 4863 
L 1178 0 
L 603 0 
L 603 4863 
z
" transform="scale(0.015625)"/>
      <path id="DejaVuSans-69" d="M 603 3500 
L 1178 3500 
L 1178 0 
L 603 0 
L 603 3500 
z
M 603 4863 
L 1178 4863 
L 1178 4134 
L 603 4134 
L 603 4863 
z
" transform="scale(0.015625)"/>
      <path id="DejaVuSans-7a" d="M 353 3500 
L 3084 3500 
L 3084 2975 
L 922 459 
L 3084 459 
L 3084 0 
L 275 0 
L 275 525 
L 2438 3041 
L 353 3041 
L 353 3500 
z
" transform="scale(0.015625)"/>
      <path id="DejaVuSans-64" d="M 2906 2969 
L 2906 4863 
L 3481 4863 
L 3481 0 
L 2906 0 
L 2906 525 
Q 2725 213 2448 61 
Q 2172 -91 1784 -91 
Q 1150 -91 751 415 
Q 353 922 353 1747 
Q 353 2572 751 3078 
Q 1150 3584 1784 3584 
Q 2172 3584 2448 3432 
Q 2725 3281 2906 2969 
z
M 947 1747 
Q 947 1113 1208 752 
Q 1469 391 1925 391 
Q 2381 391 2643 752 
Q 2906 1113 2906 1747 
Q 2906 2381 2643 2742 
Q 2381 3103 1925 3103 
Q 1469 3103 1208 2742 
Q 947 2381 947 1747 
z
" transform="scale(0.015625)"/>
      <path id="DejaVuSans-6d" d="M 3328 2828 
Q 3544 3216 3844 3400 
Q 4144 3584 4550 3584 
Q 5097 3584 5394 3201 
Q 5691 2819 5691 2113 
L 5691 0 
L 5113 0 
L 5113 2094 
Q 5113 2597 4934 2840 
Q 4756 3084 4391 3084 
Q 3944 3084 3684 2787 
Q 3425 2491 3425 1978 
L 3425 0 
L 2847 0 
L 2847 2094 
Q 2847 2600 2669 2842 
Q 2491 3084 2119 3084 
Q 1678 3084 1418 2786 
Q 1159 2488 1159 1978 
L 1159 0 
L 581 0 
L 581 3500 
L 1159 3500 
L 1159 2956 
Q 1356 3278 1631 3431 
Q 1906 3584 2284 3584 
Q 2666 3584 2933 3390 
Q 3200 3197 3328 2828 
z
" transform="scale(0.015625)"/>
      <path id="DejaVuSans-73" d="M 2834 3397 
L 2834 2853 
Q 2591 2978 2328 3040 
Q 2066 3103 1784 3103 
Q 1356 3103 1142 2972 
Q 928 2841 928 2578 
Q 928 2378 1081 2264 
Q 1234 2150 1697 2047 
L 1894 2003 
Q 2506 1872 2764 1633 
Q 3022 1394 3022 966 
Q 3022 478 2636 193 
Q 2250 -91 1575 -91 
Q 1294 -91 989 -36 
Q 684 19 347 128 
L 347 722 
Q 666 556 975 473 
Q 1284 391 1588 391 
Q 1994 391 2212 530 
Q 2431 669 2431 922 
Q 2431 1156 2273 1281 
Q 2116 1406 1581 1522 
L 1381 1569 
Q 847 1681 609 1914 
Q 372 2147 372 2553 
Q 372 3047 722 3315 
Q 1072 3584 1716 3584 
Q 2034 3584 2315 3537 
Q 2597 3491 2834 3397 
z
" transform="scale(0.015625)"/>
     </defs>
     <use xlink:href="#DejaVuSans-41"/>
     <use xlink:href="#DejaVuSans-55" x="68.408203"/>
     <use xlink:href="#DejaVuSans-50" x="141.601562"/>
     <use xlink:href="#DejaVuSans-52" x="201.904297"/>
     <use xlink:href="#DejaVuSans-43" x="266.386719"/>
     <use xlink:href="#DejaVuSans-5f" x="336.210938"/>
     <use xlink:href="#DejaVuSans-30" x="386.210938"/>
     <use xlink:href="#DejaVuSans-20" x="449.833984"/>
     <use xlink:href="#DejaVuSans-6f" x="481.621094"/>
     <use xlink:href="#DejaVuSans-6e" x="542.802734"/>
     <use xlink:href="#DejaVuSans-20" x="606.181641"/>
     <use xlink:href="#DejaVuSans-67" x="637.96875"/>
     <use xlink:href="#DejaVuSans-65" x="701.445312"/>
     <use xlink:href="#DejaVuSans-6e" x="762.96875"/>
     <use xlink:href="#DejaVuSans-65" x="826.347656"/>
     <use xlink:href="#DejaVuSans-72" x="887.871094"/>
     <use xlink:href="#DejaVuSans-61" x="928.984375"/>
     <use xlink:href="#DejaVuSans-6c" x="990.263672"/>
     <use xlink:href="#DejaVuSans-69" x="1018.046875"/>
     <use xlink:href="#DejaVuSans-7a" x="1045.830078"/>
     <use xlink:href="#DejaVuSans-65" x="1098.320312"/>
     <use xlink:href="#DejaVuSans-64" x="1159.84375"/>
     <use xlink:href="#DejaVuSans-20" x="1223.320312"/>
     <use xlink:href="#DejaVuSans-6d" x="1255.107422"/>
     <use xlink:href="#DejaVuSans-6f" x="1352.519531"/>
     <use xlink:href="#DejaVuSans-64" x="1413.701172"/>
     <use xlink:href="#DejaVuSans-65" x="1477.177734"/>
     <use xlink:href="#DejaVuSans-6c" x="1538.701172"/>
     <use xlink:href="#DejaVuSans-73" x="1566.484375"/>
    </g>
   </g>
   <g id="legend_1">
    <g id="patch_22">
     <path d="M 595.444673 326.5344 
L 888.987486 326.5344 
Q 891.787486 326.5344 891.787486 323.7344 
L 891.787486 97.1444 
Q 891.787486 94.3444 888.987486 94.3444 
L 595.444673 94.3444 
Q 592.644673 94.3444 592.644673 97.1444 
L 592.644673 323.7344 
Q 592.644673 326.5344 595.444673 326.5344 
z
" style="fill: #ffffff; opacity: 0.8; stroke: #cccccc; stroke-linejoin: miter"/>
    </g>
    <g id="text_2">
     <!-- Models -->
     <g transform="translate(717.550923 110.582213) scale(0.14 -0.14)">
      <defs>
       <path id="DejaVuSans-4d" d="M 628 4666 
L 1569 4666 
L 2759 1491 
L 3956 4666 
L 4897 4666 
L 4897 0 
L 4281 0 
L 4281 4097 
L 3078 897 
L 2444 897 
L 1241 4097 
L 1241 0 
L 628 0 
L 628 4666 
z
" transform="scale(0.015625)"/>
      </defs>
      <use xlink:href="#DejaVuSans-4d"/>
      <use xlink:href="#DejaVuSans-6f" x="86.279297"/>
      <use xlink:href="#DejaVuSans-64" x="147.460938"/>
      <use xlink:href="#DejaVuSans-65" x="210.9375"/>
      <use xlink:href="#DejaVuSans-6c" x="272.460938"/>
      <use xlink:href="#DejaVuSans-73" x="300.244141"/>
     </g>
    </g>
    <g id="patch_23">
     <path d="M 598.244673 131.131588 
L 626.244673 131.131588 
L 626.244673 121.331588 
L 598.244673 121.331588 
z
" style="fill: #f39ba0; stroke: #ffffff; stroke-linejoin: miter"/>
    </g>
    <g id="text_3">
     <!-- xgboost (55.2%) -->
     <g transform="translate(637.444673 131.131588) scale(0.14 -0.14)">
      <defs>
       <path id="DejaVuSans-78" d="M 3513 3500 
L 2247 1797 
L 3578 0 
L 2900 0 
L 1881 1375 
L 863 0 
L 184 0 
L 1544 1831 
L 300 3500 
L 978 3500 
L 1906 2253 
L 2834 3500 
L 3513 3500 
z
" transform="scale(0.015625)"/>
       <path id="DejaVuSans-62" d="M 3116 1747 
Q 3116 2381 2855 2742 
Q 2594 3103 2138 3103 
Q 1681 3103 1420 2742 
Q 1159 2381 1159 1747 
Q 1159 1113 1420 752 
Q 1681 391 2138 391 
Q 2594 391 2855 752 
Q 3116 1113 3116 1747 
z
M 1159 2969 
Q 1341 3281 1617 3432 
Q 1894 3584 2278 3584 
Q 2916 3584 3314 3078 
Q 3713 2572 3713 1747 
Q 3713 922 3314 415 
Q 2916 -91 2278 -91 
Q 1894 -91 1617 61 
Q 1341 213 1159 525 
L 1159 0 
L 581 0 
L 581 4863 
L 1159 4863 
L 1159 2969 
z
" transform="scale(0.015625)"/>
       <path id="DejaVuSans-74" d="M 1172 4494 
L 1172 3500 
L 2356 3500 
L 2356 3053 
L 1172 3053 
L 1172 1153 
Q 1172 725 1289 603 
Q 1406 481 1766 481 
L 2356 481 
L 2356 0 
L 1766 0 
Q 1100 0 847 248 
Q 594 497 594 1153 
L 594 3053 
L 172 3053 
L 172 3500 
L 594 3500 
L 594 4494 
L 1172 4494 
z
" transform="scale(0.015625)"/>
       <path id="DejaVuSans-28" d="M 1984 4856 
Q 1566 4138 1362 3434 
Q 1159 2731 1159 2009 
Q 1159 1288 1364 580 
Q 1569 -128 1984 -844 
L 1484 -844 
Q 1016 -109 783 600 
Q 550 1309 550 2009 
Q 550 2706 781 3412 
Q 1013 4119 1484 4856 
L 1984 4856 
z
" transform="scale(0.015625)"/>
       <path id="DejaVuSans-35" d="M 691 4666 
L 3169 4666 
L 3169 4134 
L 1269 4134 
L 1269 2991 
Q 1406 3038 1543 3061 
Q 1681 3084 1819 3084 
Q 2600 3084 3056 2656 
Q 3513 2228 3513 1497 
Q 3513 744 3044 326 
Q 2575 -91 1722 -91 
Q 1428 -91 1123 -41 
Q 819 9 494 109 
L 494 744 
Q 775 591 1075 516 
Q 1375 441 1709 441 
Q 2250 441 2565 725 
Q 2881 1009 2881 1497 
Q 2881 1984 2565 2268 
Q 2250 2553 1709 2553 
Q 1456 2553 1204 2497 
Q 953 2441 691 2322 
L 691 4666 
z
" transform="scale(0.015625)"/>
       <path id="DejaVuSans-2e" d="M 684 794 
L 1344 794 
L 1344 0 
L 684 0 
L 684 794 
z
" transform="scale(0.015625)"/>
       <path id="DejaVuSans-32" d="M 1228 531 
L 3431 531 
L 3431 0 
L 469 0 
L 469 531 
Q 828 903 1448 1529 
Q 2069 2156 2228 2338 
Q 2531 2678 2651 2914 
Q 2772 3150 2772 3378 
Q 2772 3750 2511 3984 
Q 2250 4219 1831 4219 
Q 1534 4219 1204 4116 
Q 875 4013 500 3803 
L 500 4441 
Q 881 4594 1212 4672 
Q 1544 4750 1819 4750 
Q 2544 4750 2975 4387 
Q 3406 4025 3406 3419 
Q 3406 3131 3298 2873 
Q 3191 2616 2906 2266 
Q 2828 2175 2409 1742 
Q 1991 1309 1228 531 
z
" transform="scale(0.015625)"/>
       <path id="DejaVuSans-25" d="M 4653 2053 
Q 4381 2053 4226 1822 
Q 4072 1591 4072 1178 
Q 4072 772 4226 539 
Q 4381 306 4653 306 
Q 4919 306 5073 539 
Q 5228 772 5228 1178 
Q 5228 1588 5073 1820 
Q 4919 2053 4653 2053 
z
M 4653 2450 
Q 5147 2450 5437 2106 
Q 5728 1763 5728 1178 
Q 5728 594 5436 251 
Q 5144 -91 4653 -91 
Q 4153 -91 3862 251 
Q 3572 594 3572 1178 
Q 3572 1766 3864 2108 
Q 4156 2450 4653 2450 
z
M 1428 4353 
Q 1159 4353 1004 4120 
Q 850 3888 850 3481 
Q 850 3069 1003 2837 
Q 1156 2606 1428 2606 
Q 1700 2606 1854 2837 
Q 2009 3069 2009 3481 
Q 2009 3884 1853 4118 
Q 1697 4353 1428 4353 
z
M 4250 4750 
L 4750 4750 
L 1831 -91 
L 1331 -91 
L 4250 4750 
z
M 1428 4750 
Q 1922 4750 2215 4408 
Q 2509 4066 2509 3481 
Q 2509 2891 2217 2550 
Q 1925 2209 1428 2209 
Q 931 2209 642 2551 
Q 353 2894 353 3481 
Q 353 4063 643 4406 
Q 934 4750 1428 4750 
z
" transform="scale(0.015625)"/>
       <path id="DejaVuSans-29" d="M 513 4856 
L 1013 4856 
Q 1481 4119 1714 3412 
Q 1947 2706 1947 2009 
Q 1947 1309 1714 600 
Q 1481 -109 1013 -844 
L 513 -844 
Q 928 -128 1133 580 
Q 1338 1288 1338 2009 
Q 1338 2731 1133 3434 
Q 928 4138 513 4856 
z
" transform="scale(0.015625)"/>
      </defs>
      <use xlink:href="#DejaVuSans-78"/>
      <use xlink:href="#DejaVuSans-67" x="59.179688"/>
      <use xlink:href="#DejaVuSans-62" x="122.65625"/>
      <use xlink:href="#DejaVuSans-6f" x="186.132812"/>
      <use xlink:href="#DejaVuSans-6f" x="247.314453"/>
      <use xlink:href="#DejaVuSans-73" x="308.496094"/>
      <use xlink:href="#DejaVuSans-74" x="360.595703"/>
      <use xlink:href="#DejaVuSans-20" x="399.804688"/>
      <use xlink:href="#DejaVuSans-28" x="431.591797"/>
      <use xlink:href="#DejaVuSans-35" x="470.605469"/>
      <use xlink:href="#DejaVuSans-35" x="534.228516"/>
      <use xlink:href="#DejaVuSans-2e" x="597.851562"/>
      <use xlink:href="#DejaVuSans-32" x="629.638672"/>
      <use xlink:href="#DejaVuSans-25" x="693.261719"/>
      <use xlink:href="#DejaVuSans-29" x="788.28125"/>
     </g>
    </g>
    <g id="patch_24">
     <path d="M 598.244673 151.680963 
L 626.244673 151.680963 
L 626.244673 141.880963 
L 598.244673 141.880963 
z
" style="fill: #f4a1a5; stroke: #ffffff; stroke-linejoin: miter"/>
    </g>
    <g id="text_4">
     <!-- random_forest (52.7%) -->
     <g transform="translate(637.444673 151.680963) scale(0.14 -0.14)">
      <defs>
       <path id="DejaVuSans-66" d="M 2375 4863 
L 2375 4384 
L 1825 4384 
Q 1516 4384 1395 4259 
Q 1275 4134 1275 3809 
L 1275 3500 
L 2222 3500 
L 2222 3053 
L 1275 3053 
L 1275 0 
L 697 0 
L 697 3053 
L 147 3053 
L 147 3500 
L 697 3500 
L 697 3744 
Q 697 4328 969 4595 
Q 1241 4863 1831 4863 
L 2375 4863 
z
" transform="scale(0.015625)"/>
       <path id="DejaVuSans-37" d="M 525 4666 
L 3525 4666 
L 3525 4397 
L 1831 0 
L 1172 0 
L 2766 4134 
L 525 4134 
L 525 4666 
z
" transform="scale(0.015625)"/>
      </defs>
      <use xlink:href="#DejaVuSans-72"/>
      <use xlink:href="#DejaVuSans-61" x="41.113281"/>
      <use xlink:href="#DejaVuSans-6e" x="102.392578"/>
      <use xlink:href="#DejaVuSans-64" x="165.771484"/>
      <use xlink:href="#DejaVuSans-6f" x="229.248047"/>
      <use xlink:href="#DejaVuSans-6d" x="290.429688"/>
      <use xlink:href="#DejaVuSans-5f" x="387.841797"/>
      <use xlink:href="#DejaVuSans-66" x="437.841797"/>
      <use xlink:href="#DejaVuSans-6f" x="473.046875"/>
      <use xlink:href="#DejaVuSans-72" x="534.228516"/>
      <use xlink:href="#DejaVuSans-65" x="573.091797"/>
      <use xlink:href="#DejaVuSans-73" x="634.615234"/>
      <use xlink:href="#DejaVuSans-74" x="686.714844"/>
      <use xlink:href="#DejaVuSans-20" x="725.923828"/>
      <use xlink:href="#DejaVuSans-28" x="757.710938"/>
      <use xlink:href="#DejaVuSans-35" x="796.724609"/>
      <use xlink:href="#DejaVuSans-32" x="860.347656"/>
      <use xlink:href="#DejaVuSans-2e" x="923.970703"/>
      <use xlink:href="#DejaVuSans-37" x="955.757812"/>
      <use xlink:href="#DejaVuSans-25" x="1019.380859"/>
      <use xlink:href="#DejaVuSans-29" x="1114.400391"/>
     </g>
    </g>
    <g id="patch_25">
     <path d="M 598.244673 172.619712 
L 626.244673 172.619712 
L 626.244673 162.819712 
L 598.244673 162.819712 
z
" style="fill: #f5a8ac; stroke: #ffffff; stroke-linejoin: miter"/>
    </g>
    <g id="text_5">
     <!-- neural_network (48.75%) -->
     <g transform="translate(637.444673 172.619712) scale(0.14 -0.14)">
      <defs>
       <path id="DejaVuSans-75" d="M 544 1381 
L 544 3500 
L 1119 3500 
L 1119 1403 
Q 1119 906 1312 657 
Q 1506 409 1894 409 
Q 2359 409 2629 706 
Q 2900 1003 2900 1516 
L 2900 3500 
L 3475 3500 
L 3475 0 
L 2900 0 
L 2900 538 
Q 2691 219 2414 64 
Q 2138 -91 1772 -91 
Q 1169 -91 856 284 
Q 544 659 544 1381 
z
M 1991 3584 
L 1991 3584 
z
" transform="scale(0.015625)"/>
       <path id="DejaVuSans-77" d="M 269 3500 
L 844 3500 
L 1563 769 
L 2278 3500 
L 2956 3500 
L 3675 769 
L 4391 3500 
L 4966 3500 
L 4050 0 
L 3372 0 
L 2619 2869 
L 1863 0 
L 1184 0 
L 269 3500 
z
" transform="scale(0.015625)"/>
       <path id="DejaVuSans-6b" d="M 581 4863 
L 1159 4863 
L 1159 1991 
L 2875 3500 
L 3609 3500 
L 1753 1863 
L 3688 0 
L 2938 0 
L 1159 1709 
L 1159 0 
L 581 0 
L 581 4863 
z
" transform="scale(0.015625)"/>
       <path id="DejaVuSans-34" d="M 2419 4116 
L 825 1625 
L 2419 1625 
L 2419 4116 
z
M 2253 4666 
L 3047 4666 
L 3047 1625 
L 3713 1625 
L 3713 1100 
L 3047 1100 
L 3047 0 
L 2419 0 
L 2419 1100 
L 313 1100 
L 313 1709 
L 2253 4666 
z
" transform="scale(0.015625)"/>
       <path id="DejaVuSans-38" d="M 2034 2216 
Q 1584 2216 1326 1975 
Q 1069 1734 1069 1313 
Q 1069 891 1326 650 
Q 1584 409 2034 409 
Q 2484 409 2743 651 
Q 3003 894 3003 1313 
Q 3003 1734 2745 1975 
Q 2488 2216 2034 2216 
z
M 1403 2484 
Q 997 2584 770 2862 
Q 544 3141 544 3541 
Q 544 4100 942 4425 
Q 1341 4750 2034 4750 
Q 2731 4750 3128 4425 
Q 3525 4100 3525 3541 
Q 3525 3141 3298 2862 
Q 3072 2584 2669 2484 
Q 3125 2378 3379 2068 
Q 3634 1759 3634 1313 
Q 3634 634 3220 271 
Q 2806 -91 2034 -91 
Q 1263 -91 848 271 
Q 434 634 434 1313 
Q 434 1759 690 2068 
Q 947 2378 1403 2484 
z
M 1172 3481 
Q 1172 3119 1398 2916 
Q 1625 2713 2034 2713 
Q 2441 2713 2670 2916 
Q 2900 3119 2900 3481 
Q 2900 3844 2670 4047 
Q 2441 4250 2034 4250 
Q 1625 4250 1398 4047 
Q 1172 3844 1172 3481 
z
" transform="scale(0.015625)"/>
      </defs>
      <use xlink:href="#DejaVuSans-6e"/>
      <use xlink:href="#DejaVuSans-65" x="63.378906"/>
      <use xlink:href="#DejaVuSans-75" x="124.902344"/>
      <use xlink:href="#DejaVuSans-72" x="188.28125"/>
      <use xlink:href="#DejaVuSans-61" x="229.394531"/>
      <use xlink:href="#DejaVuSans-6c" x="290.673828"/>
      <use xlink:href="#DejaVuSans-5f" x="318.457031"/>
      <use xlink:href="#DejaVuSans-6e" x="368.457031"/>
      <use xlink:href="#DejaVuSans-65" x="431.835938"/>
      <use xlink:href="#DejaVuSans-74" x="493.359375"/>
      <use xlink:href="#DejaVuSans-77" x="532.568359"/>
      <use xlink:href="#DejaVuSans-6f" x="614.355469"/>
      <use xlink:href="#DejaVuSans-72" x="675.537109"/>
      <use xlink:href="#DejaVuSans-6b" x="716.650391"/>
      <use xlink:href="#DejaVuSans-20" x="774.560547"/>
      <use xlink:href="#DejaVuSans-28" x="806.347656"/>
      <use xlink:href="#DejaVuSans-34" x="845.361328"/>
      <use xlink:href="#DejaVuSans-38" x="908.984375"/>
      <use xlink:href="#DejaVuSans-2e" x="972.607422"/>
      <use xlink:href="#DejaVuSans-37" x="1004.394531"/>
      <use xlink:href="#DejaVuSans-35" x="1068.017578"/>
      <use xlink:href="#DejaVuSans-25" x="1131.640625"/>
      <use xlink:href="#DejaVuSans-29" x="1226.660156"/>
     </g>
    </g>
    <g id="patch_26">
     <path d="M 598.244673 193.558463 
L 626.244673 193.558463 
L 626.244673 183.758463 
L 598.244673 183.758463 
z
" style="fill: #f5aaae; stroke: #ffffff; stroke-linejoin: miter"/>
    </g>
    <g id="text_6">
     <!-- crf (47.45%) -->
     <g transform="translate(637.444673 193.558463) scale(0.14 -0.14)">
      <defs>
       <path id="DejaVuSans-63" d="M 3122 3366 
L 3122 2828 
Q 2878 2963 2633 3030 
Q 2388 3097 2138 3097 
Q 1578 3097 1268 2742 
Q 959 2388 959 1747 
Q 959 1106 1268 751 
Q 1578 397 2138 397 
Q 2388 397 2633 464 
Q 2878 531 3122 666 
L 3122 134 
Q 2881 22 2623 -34 
Q 2366 -91 2075 -91 
Q 1284 -91 818 406 
Q 353 903 353 1747 
Q 353 2603 823 3093 
Q 1294 3584 2113 3584 
Q 2378 3584 2631 3529 
Q 2884 3475 3122 3366 
z
" transform="scale(0.015625)"/>
      </defs>
      <use xlink:href="#DejaVuSans-63"/>
      <use xlink:href="#DejaVuSans-72" x="54.980469"/>
      <use xlink:href="#DejaVuSans-66" x="96.09375"/>
      <use xlink:href="#DejaVuSans-20" x="131.298828"/>
      <use xlink:href="#DejaVuSans-28" x="163.085938"/>
      <use xlink:href="#DejaVuSans-34" x="202.099609"/>
      <use xlink:href="#DejaVuSans-37" x="265.722656"/>
      <use xlink:href="#DejaVuSans-2e" x="329.345703"/>
      <use xlink:href="#DejaVuSans-34" x="361.132812"/>
      <use xlink:href="#DejaVuSans-35" x="424.755859"/>
      <use xlink:href="#DejaVuSans-25" x="488.378906"/>
      <use xlink:href="#DejaVuSans-29" x="583.398438"/>
     </g>
    </g>
    <g id="patch_27">
     <path d="M 598.244673 214.107838 
L 626.244673 214.107838 
L 626.244673 204.307838 
L 598.244673 204.307838 
z
" style="fill: #f6aeb1; stroke: #ffffff; stroke-linejoin: miter"/>
    </g>
    <g id="text_7">
     <!-- logistic_regression (45.39%) -->
     <g transform="translate(637.444673 214.107838) scale(0.14 -0.14)">
      <defs>
       <path id="DejaVuSans-33" d="M 2597 2516 
Q 3050 2419 3304 2112 
Q 3559 1806 3559 1356 
Q 3559 666 3084 287 
Q 2609 -91 1734 -91 
Q 1441 -91 1130 -33 
Q 819 25 488 141 
L 488 750 
Q 750 597 1062 519 
Q 1375 441 1716 441 
Q 2309 441 2620 675 
Q 2931 909 2931 1356 
Q 2931 1769 2642 2001 
Q 2353 2234 1838 2234 
L 1294 2234 
L 1294 2753 
L 1863 2753 
Q 2328 2753 2575 2939 
Q 2822 3125 2822 3475 
Q 2822 3834 2567 4026 
Q 2313 4219 1838 4219 
Q 1578 4219 1281 4162 
Q 984 4106 628 3988 
L 628 4550 
Q 988 4650 1302 4700 
Q 1616 4750 1894 4750 
Q 2613 4750 3031 4423 
Q 3450 4097 3450 3541 
Q 3450 3153 3228 2886 
Q 3006 2619 2597 2516 
z
" transform="scale(0.015625)"/>
       <path id="DejaVuSans-39" d="M 703 97 
L 703 672 
Q 941 559 1184 500 
Q 1428 441 1663 441 
Q 2288 441 2617 861 
Q 2947 1281 2994 2138 
Q 2813 1869 2534 1725 
Q 2256 1581 1919 1581 
Q 1219 1581 811 2004 
Q 403 2428 403 3163 
Q 403 3881 828 4315 
Q 1253 4750 1959 4750 
Q 2769 4750 3195 4129 
Q 3622 3509 3622 2328 
Q 3622 1225 3098 567 
Q 2575 -91 1691 -91 
Q 1453 -91 1209 -44 
Q 966 3 703 97 
z
M 1959 2075 
Q 2384 2075 2632 2365 
Q 2881 2656 2881 3163 
Q 2881 3666 2632 3958 
Q 2384 4250 1959 4250 
Q 1534 4250 1286 3958 
Q 1038 3666 1038 3163 
Q 1038 2656 1286 2365 
Q 1534 2075 1959 2075 
z
" transform="scale(0.015625)"/>
      </defs>
      <use xlink:href="#DejaVuSans-6c"/>
      <use xlink:href="#DejaVuSans-6f" x="27.783203"/>
      <use xlink:href="#DejaVuSans-67" x="88.964844"/>
      <use xlink:href="#DejaVuSans-69" x="152.441406"/>
      <use xlink:href="#DejaVuSans-73" x="180.224609"/>
      <use xlink:href="#DejaVuSans-74" x="232.324219"/>
      <use xlink:href="#DejaVuSans-69" x="271.533203"/>
      <use xlink:href="#DejaVuSans-63" x="299.316406"/>
      <use xlink:href="#DejaVuSans-5f" x="354.296875"/>
      <use xlink:href="#DejaVuSans-72" x="404.296875"/>
      <use xlink:href="#DejaVuSans-65" x="443.160156"/>
      <use xlink:href="#DejaVuSans-67" x="504.683594"/>
      <use xlink:href="#DejaVuSans-72" x="568.160156"/>
      <use xlink:href="#DejaVuSans-65" x="607.023438"/>
      <use xlink:href="#DejaVuSans-73" x="668.546875"/>
      <use xlink:href="#DejaVuSans-73" x="720.646484"/>
      <use xlink:href="#DejaVuSans-69" x="772.746094"/>
      <use xlink:href="#DejaVuSans-6f" x="800.529297"/>
      <use xlink:href="#DejaVuSans-6e" x="861.710938"/>
      <use xlink:href="#DejaVuSans-20" x="925.089844"/>
      <use xlink:href="#DejaVuSans-28" x="956.876953"/>
      <use xlink:href="#DejaVuSans-34" x="995.890625"/>
      <use xlink:href="#DejaVuSans-35" x="1059.513672"/>
      <use xlink:href="#DejaVuSans-2e" x="1123.136719"/>
      <use xlink:href="#DejaVuSans-33" x="1154.923828"/>
      <use xlink:href="#DejaVuSans-39" x="1218.546875"/>
      <use xlink:href="#DejaVuSans-25" x="1282.169922"/>
      <use xlink:href="#DejaVuSans-29" x="1377.189453"/>
     </g>
    </g>
    <g id="patch_28">
     <path d="M 598.244673 235.046587 
L 626.244673 235.046587 
L 626.244673 225.246587 
L 598.244673 225.246587 
z
" style="fill: #f6b3b6; stroke: #ffffff; stroke-linejoin: miter"/>
    </g>
    <g id="text_8">
     <!-- svm (42.91%) -->
     <g transform="translate(637.444673 235.046587) scale(0.14 -0.14)">
      <defs>
       <path id="DejaVuSans-76" d="M 191 3500 
L 800 3500 
L 1894 563 
L 2988 3500 
L 3597 3500 
L 2284 0 
L 1503 0 
L 191 3500 
z
" transform="scale(0.015625)"/>
       <path id="DejaVuSans-31" d="M 794 531 
L 1825 531 
L 1825 4091 
L 703 3866 
L 703 4441 
L 1819 4666 
L 2450 4666 
L 2450 531 
L 3481 531 
L 3481 0 
L 794 0 
L 794 531 
z
" transform="scale(0.015625)"/>
      </defs>
      <use xlink:href="#DejaVuSans-73"/>
      <use xlink:href="#DejaVuSans-76" x="52.099609"/>
      <use xlink:href="#DejaVuSans-6d" x="111.279297"/>
      <use xlink:href="#DejaVuSans-20" x="208.691406"/>
      <use xlink:href="#DejaVuSans-28" x="240.478516"/>
      <use xlink:href="#DejaVuSans-34" x="279.492188"/>
      <use xlink:href="#DejaVuSans-32" x="343.115234"/>
      <use xlink:href="#DejaVuSans-2e" x="406.738281"/>
      <use xlink:href="#DejaVuSans-39" x="438.525391"/>
      <use xlink:href="#DejaVuSans-31" x="502.148438"/>
      <use xlink:href="#DejaVuSans-25" x="565.771484"/>
      <use xlink:href="#DejaVuSans-29" x="660.791016"/>
     </g>
    </g>
    <g id="patch_29">
     <path d="M 598.244673 255.595963 
L 626.244673 255.595963 
L 626.244673 245.795963 
L 598.244673 245.795963 
z
" style="fill: #f7bcbf; stroke: #ffffff; stroke-linejoin: miter"/>
    </g>
    <g id="text_9">
     <!-- naive_bayes (37.31%) -->
     <g transform="translate(637.444673 255.595963) scale(0.14 -0.14)">
      <defs>
       <path id="DejaVuSans-79" d="M 2059 -325 
Q 1816 -950 1584 -1140 
Q 1353 -1331 966 -1331 
L 506 -1331 
L 506 -850 
L 844 -850 
Q 1081 -850 1212 -737 
Q 1344 -625 1503 -206 
L 1606 56 
L 191 3500 
L 800 3500 
L 1894 763 
L 2988 3500 
L 3597 3500 
L 2059 -325 
z
" transform="scale(0.015625)"/>
      </defs>
      <use xlink:href="#DejaVuSans-6e"/>
      <use xlink:href="#DejaVuSans-61" x="63.378906"/>
      <use xlink:href="#DejaVuSans-69" x="124.658203"/>
      <use xlink:href="#DejaVuSans-76" x="152.441406"/>
      <use xlink:href="#DejaVuSans-65" x="211.621094"/>
      <use xlink:href="#DejaVuSans-5f" x="273.144531"/>
      <use xlink:href="#DejaVuSans-62" x="323.144531"/>
      <use xlink:href="#DejaVuSans-61" x="386.621094"/>
      <use xlink:href="#DejaVuSans-79" x="447.900391"/>
      <use xlink:href="#DejaVuSans-65" x="507.080078"/>
      <use xlink:href="#DejaVuSans-73" x="568.603516"/>
      <use xlink:href="#DejaVuSans-20" x="620.703125"/>
      <use xlink:href="#DejaVuSans-28" x="652.490234"/>
      <use xlink:href="#DejaVuSans-33" x="691.503906"/>
      <use xlink:href="#DejaVuSans-37" x="755.126953"/>
      <use xlink:href="#DejaVuSans-2e" x="818.75"/>
      <use xlink:href="#DejaVuSans-33" x="850.537109"/>
      <use xlink:href="#DejaVuSans-31" x="914.160156"/>
      <use xlink:href="#DejaVuSans-25" x="977.783203"/>
      <use xlink:href="#DejaVuSans-29" x="1072.802734"/>
     </g>
    </g>
    <g id="patch_30">
     <path d="M 598.244673 276.534713 
L 626.244673 276.534713 
L 626.244673 266.734713 
L 598.244673 266.734713 
z
" style="fill: #f7bec1; stroke: #ffffff; stroke-linejoin: miter"/>
    </g>
    <g id="text_10">
     <!-- recurrent_neural_network (36.36%) -->
     <g transform="translate(637.444673 276.534713) scale(0.14 -0.14)">
      <defs>
       <path id="DejaVuSans-36" d="M 2113 2584 
Q 1688 2584 1439 2293 
Q 1191 2003 1191 1497 
Q 1191 994 1439 701 
Q 1688 409 2113 409 
Q 2538 409 2786 701 
Q 3034 994 3034 1497 
Q 3034 2003 2786 2293 
Q 2538 2584 2113 2584 
z
M 3366 4563 
L 3366 3988 
Q 3128 4100 2886 4159 
Q 2644 4219 2406 4219 
Q 1781 4219 1451 3797 
Q 1122 3375 1075 2522 
Q 1259 2794 1537 2939 
Q 1816 3084 2150 3084 
Q 2853 3084 3261 2657 
Q 3669 2231 3669 1497 
Q 3669 778 3244 343 
Q 2819 -91 2113 -91 
Q 1303 -91 875 529 
Q 447 1150 447 2328 
Q 447 3434 972 4092 
Q 1497 4750 2381 4750 
Q 2619 4750 2861 4703 
Q 3103 4656 3366 4563 
z
" transform="scale(0.015625)"/>
      </defs>
      <use xlink:href="#DejaVuSans-72"/>
      <use xlink:href="#DejaVuSans-65" x="38.863281"/>
      <use xlink:href="#DejaVuSans-63" x="100.386719"/>
      <use xlink:href="#DejaVuSans-75" x="155.367188"/>
      <use xlink:href="#DejaVuSans-72" x="218.746094"/>
      <use xlink:href="#DejaVuSans-72" x="258.109375"/>
      <use xlink:href="#DejaVuSans-65" x="296.972656"/>
      <use xlink:href="#DejaVuSans-6e" x="358.496094"/>
      <use xlink:href="#DejaVuSans-74" x="421.875"/>
      <use xlink:href="#DejaVuSans-5f" x="461.083984"/>
      <use xlink:href="#DejaVuSans-6e" x="511.083984"/>
      <use xlink:href="#DejaVuSans-65" x="574.462891"/>
      <use xlink:href="#DejaVuSans-75" x="635.986328"/>
      <use xlink:href="#DejaVuSans-72" x="699.365234"/>
      <use xlink:href="#DejaVuSans-61" x="740.478516"/>
      <use xlink:href="#DejaVuSans-6c" x="801.757812"/>
      <use xlink:href="#DejaVuSans-5f" x="829.541016"/>
      <use xlink:href="#DejaVuSans-6e" x="879.541016"/>
      <use xlink:href="#DejaVuSans-65" x="942.919922"/>
      <use xlink:href="#DejaVuSans-74" x="1004.443359"/>
      <use xlink:href="#DejaVuSans-77" x="1043.652344"/>
      <use xlink:href="#DejaVuSans-6f" x="1125.439453"/>
      <use xlink:href="#DejaVuSans-72" x="1186.621094"/>
      <use xlink:href="#DejaVuSans-6b" x="1227.734375"/>
      <use xlink:href="#DejaVuSans-20" x="1285.644531"/>
      <use xlink:href="#DejaVuSans-28" x="1317.431641"/>
      <use xlink:href="#DejaVuSans-33" x="1356.445312"/>
      <use xlink:href="#DejaVuSans-36" x="1420.068359"/>
      <use xlink:href="#DejaVuSans-2e" x="1483.691406"/>
      <use xlink:href="#DejaVuSans-33" x="1515.478516"/>
      <use xlink:href="#DejaVuSans-36" x="1579.101562"/>
      <use xlink:href="#DejaVuSans-25" x="1642.724609"/>
      <use xlink:href="#DejaVuSans-29" x="1737.744141"/>
     </g>
    </g>
    <g id="patch_31">
     <path d="M 598.244673 297.473462 
L 626.244673 297.473462 
L 626.244673 287.673462 
L 598.244673 287.673462 
z
" style="fill: #f9cccf; stroke: #ffffff; stroke-linejoin: miter"/>
    </g>
    <g id="text_11">
     <!-- hmm (28.97%) -->
     <g transform="translate(637.444673 297.473462) scale(0.14 -0.14)">
      <defs>
       <path id="DejaVuSans-68" d="M 3513 2113 
L 3513 0 
L 2938 0 
L 2938 2094 
Q 2938 2591 2744 2837 
Q 2550 3084 2163 3084 
Q 1697 3084 1428 2787 
Q 1159 2491 1159 1978 
L 1159 0 
L 581 0 
L 581 4863 
L 1159 4863 
L 1159 2956 
Q 1366 3272 1645 3428 
Q 1925 3584 2291 3584 
Q 2894 3584 3203 3211 
Q 3513 2838 3513 2113 
z
" transform="scale(0.015625)"/>
      </defs>
      <use xlink:href="#DejaVuSans-68"/>
      <use xlink:href="#DejaVuSans-6d" x="63.378906"/>
      <use xlink:href="#DejaVuSans-6d" x="160.791016"/>
      <use xlink:href="#DejaVuSans-20" x="258.203125"/>
      <use xlink:href="#DejaVuSans-28" x="289.990234"/>
      <use xlink:href="#DejaVuSans-32" x="329.003906"/>
      <use xlink:href="#DejaVuSans-38" x="392.626953"/>
      <use xlink:href="#DejaVuSans-2e" x="456.25"/>
      <use xlink:href="#DejaVuSans-39" x="488.037109"/>
      <use xlink:href="#DejaVuSans-37" x="551.660156"/>
      <use xlink:href="#DejaVuSans-25" x="615.283203"/>
      <use xlink:href="#DejaVuSans-29" x="710.302734"/>
     </g>
    </g>
    <g id="patch_32">
     <path d="M 598.244673 318.022838 
L 626.244673 318.022838 
L 626.244673 308.222838 
L 598.244673 308.222838 
z
" style="fill: #fad0d2; stroke: #ffffff; stroke-linejoin: miter"/>
    </g>
    <g id="text_12">
     <!-- knn (26.89%) -->
     <g transform="translate(637.444673 318.022838) scale(0.14 -0.14)">
      <use xlink:href="#DejaVuSans-6b"/>
      <use xlink:href="#DejaVuSans-6e" x="57.910156"/>
      <use xlink:href="#DejaVuSans-6e" x="121.289062"/>
      <use xlink:href="#DejaVuSans-20" x="184.667969"/>
      <use xlink:href="#DejaVuSans-28" x="216.455078"/>
      <use xlink:href="#DejaVuSans-32" x="255.46875"/>
      <use xlink:href="#DejaVuSans-36" x="319.091797"/>
      <use xlink:href="#DejaVuSans-2e" x="382.714844"/>
      <use xlink:href="#DejaVuSans-38" x="414.501953"/>
      <use xlink:href="#DejaVuSans-39" x="478.125"/>
      <use xlink:href="#DejaVuSans-25" x="541.748047"/>
      <use xlink:href="#DejaVuSans-29" x="636.767578"/>
     </g>
    </g>
   </g>
  </g>
 </g>
</svg>
