<?xml version="1.0" encoding="utf-8" standalone="no"?>
<!DOCTYPE svg PUBLIC "-//W3C//DTD SVG 1.1//EN"
  "http://www.w3.org/Graphics/SVG/1.1/DTD/svg11.dtd">
<svg xmlns:xlink="http://www.w3.org/1999/xlink" width="890.080441pt" height="653.068618pt" viewBox="0 0 890.080441 653.068618" xmlns="http://www.w3.org/2000/svg" version="1.1">
 <metadata>
  <rdf:RDF xmlns:dc="http://purl.org/dc/elements/1.1/" xmlns:cc="http://creativecommons.org/ns#" xmlns:rdf="http://www.w3.org/1999/02/22-rdf-syntax-ns#">
   <cc:Work>
    <dc:type rdf:resource="http://purl.org/dc/dcmitype/StillImage"/>
    <dc:date>2023-06-21T15:51:55.922946</dc:date>
    <dc:format>image/svg+xml</dc:format>
    <dc:creator>
     <cc:Agent>
      <dc:title>Matplotlib v3.7.0, https://matplotlib.org/</dc:title>
     </cc:Agent>
    </dc:creator>
   </cc:Work>
  </rdf:RDF>
 </metadata>
 <defs>
  <style type="text/css">*{stroke-linejoin: round; stroke-linecap: butt}</style>
 </defs>
 <g id="figure_1">
  <g id="patch_1">
   <path d="M 0 653.068618 
L 890.080441 653.068618 
L 890.080441 -0 
L 0 -0 
z
" style="fill: #ffffff"/>
  </g>
  <g id="axes_1">
   <g id="patch_2">
    <path d="M 326.533128 7.2 
C 249.466055 7.2 174.944869 35.098657 116.824872 85.708931 
C 58.704876 136.319206 20.826023 206.297307 10.230913 282.632604 
C -0.364196 358.967901 17.02445 436.616965 59.163881 501.142946 
C 101.303311 565.668928 165.409398 612.808633 239.56326 633.797644 
L 246.25325 610.16201 
C 177.803531 590.787538 118.628682 547.273964 79.730746 487.71152 
C 40.83281 428.149075 24.781752 356.473016 34.561853 286.009665 
C 44.341954 215.546314 79.307049 150.951144 132.956277 104.233967 
C 186.605504 57.516791 255.394291 31.764185 326.533128 31.764185 
z
" style="fill: #f4f5f5; stroke: #ffffff; stroke-linejoin: miter"/>
   </g>
   <g id="patch_3">
    <path d="M 239.56326 633.797644 
C 283.480953 646.228405 329.557629 649.100051 374.678927 642.218484 
C 419.800225 635.336918 462.926117 618.860757 501.141687 593.903639 
C 539.357257 568.946522 571.781651 536.083699 596.223276 497.536397 
C 620.664902 458.989096 636.560389 415.645816 642.835348 370.436166 
C 649.110307 325.226517 645.620103 279.192563 632.600641 235.445779 
C 619.581179 191.698995 597.332554 151.247726 567.358568 116.82611 
C 537.384582 82.404494 500.376124 54.805934 458.834628 35.895841 
C 417.293132 16.985748 372.176113 7.199991 326.533069 7.2 
L 326.533073 31.764185 
C 368.665114 31.764177 410.311594 40.797182 448.65759 58.252653 
C 487.003586 75.708123 521.165239 101.183717 548.833534 132.957517 
C 576.501829 164.731317 597.039021 202.070949 609.056986 242.452596 
C 621.074951 282.834243 624.296678 325.327123 618.504408 367.059107 
C 612.712138 408.791091 598.039381 448.800273 575.47788 484.382398 
C 552.91638 519.964522 522.98617 550.299436 487.71026 573.336775 
C 452.434349 596.374114 412.625833 611.582878 370.975404 617.935093 
C 329.324975 624.287308 286.792658 621.636558 246.25325 610.16201 
z
" style="fill: #aed2e7; stroke: #ffffff; stroke-linejoin: miter"/>
   </g>
   <g id="patch_4">
    <path d="M 326.533128 31.764185 
C 251.631499 31.764185 179.475406 60.313138 124.850312 111.561096 
C 70.225218 162.809054 37.135714 232.999004 32.36215 307.748366 
C 27.588585 382.497729 51.480914 456.326592 99.143372 514.106729 
C 146.80583 571.886865 214.744261 609.382386 289.037441 618.910106 
L 292.162082 594.545464 
C 224.06 585.81172 161.783105 551.440826 118.092518 498.475701 
C 74.401932 445.510576 52.500631 377.834118 56.876398 309.313869 
C 61.252165 240.79362 91.584211 176.452832 141.657214 129.475538 
C 191.730217 82.498243 257.873302 56.328369 326.533128 56.328369 
z
" style="fill: #f4f5f5; stroke: #ffffff; stroke-linejoin: miter"/>
   </g>
   <g id="patch_5">
    <path d="M 289.037441 618.910106 
C 329.001202 624.035253 369.59467 620.912648 408.304406 609.735632 
C 447.014142 598.558617 483.024375 579.562736 514.105446 553.924165 
C 545.186518 528.285594 570.683424 496.544641 589.017465 460.666622 
C 607.351506 424.788602 618.136308 385.529611 620.704106 345.320461 
C 623.271903 305.111311 617.568583 264.799372 603.947278 226.880651 
C 590.325973 188.96193 569.07374 154.235529 541.506461 124.851614 
C 513.939182 95.467699 480.637811 72.045508 443.66428 56.035281 
C 406.69075 40.025055 366.824241 31.764192 326.533184 31.764185 
L 326.533179 56.328369 
C 363.466649 56.328376 400.010948 63.900833 433.903351 78.576875 
C 467.795754 93.252916 498.322011 114.723257 523.592017 141.658513 
C 548.862022 168.593768 568.343236 200.426303 580.829432 235.18513 
C 593.315628 269.943957 598.543672 306.896569 596.189858 343.754956 
C 593.836043 380.613344 583.949974 416.600752 567.14377 449.488937 
C 550.337566 482.377121 526.965402 511.472995 498.47442 534.975018 
C 469.983438 558.477042 436.974058 575.889932 401.490133 586.13553 
C 366.006208 596.381127 328.795529 599.243516 292.162082 594.545464 
z
" style="fill: #b1d4e8; stroke: #ffffff; stroke-linejoin: miter"/>
   </g>
   <g id="patch_6">
    <path d="M 326.533128 56.328369 
C 288.005094 56.328369 249.918946 64.5688 214.836819 80.495311 
C 179.754691 96.421821 148.481313 119.669083 123.120508 148.673204 
C 97.759704 177.677325 78.893211 211.772996 67.790217 248.666532 
C 56.687223 285.560067 53.602414 324.405187 58.743311 362.588699 
C 63.884207 400.772211 77.132886 437.418246 97.59808 470.061549 
C 118.063274 502.704852 145.275545 530.596638 177.404266 551.860567 
C 209.532988 573.124496 245.841177 587.272808 283.886308 593.353717 
C 321.931439 599.434625 360.840815 597.308644 397.996923 587.118792 
L 391.500214 563.429301 
C 357.721935 572.692803 322.349774 574.625514 287.763292 569.097415 
C 253.176809 563.569317 220.169364 550.707215 190.961436 531.37637 
C 161.753507 512.045525 137.015079 486.689357 118.410357 457.013627 
C 99.805635 427.337897 87.761382 394.023319 83.087839 359.311035 
C 78.414297 324.598752 81.218669 289.285006 91.3123 255.745429 
C 101.405931 222.205851 118.557288 191.209786 141.612565 164.842404 
C 164.667841 138.475021 193.098185 117.341147 224.991029 102.862501 
C 256.883872 88.383855 291.507643 80.892554 326.533128 80.892554 
z
" style="fill: #f4f5f5; stroke: #ffffff; stroke-linejoin: miter"/>
   </g>
   <g id="patch_7">
    <path d="M 397.996923 587.118792 
C 461.068435 569.821786 515.764337 530.200919 551.859295 475.663262 
C 587.954254 421.125606 603.049483 355.295605 594.322946 290.480101 
C 585.59641 225.664597 553.628054 166.171076 504.394325 123.12178 
C 455.160595 80.072484 391.93345 56.328369 326.533128 56.328369 
L 326.533128 80.892554 
C 385.987966 80.892554 443.467189 102.478113 488.225125 141.613836 
C 532.983061 180.74956 562.045203 234.834579 569.978418 293.757765 
C 577.911632 352.68095 564.188697 412.526405 531.375098 462.106093 
C 498.5615 511.685781 448.837952 547.704751 391.500214 563.429301 
z
" style="fill: #bcdaeb; stroke: #ffffff; stroke-linejoin: miter"/>
   </g>
   <g id="patch_8">
    <path d="M 326.533128 80.892554 
C 289.802828 80.892554 253.535935 89.130859 220.410248 104.999187 
C 187.28456 120.867514 158.135939 143.965459 135.116597 172.587564 
C 112.097256 201.209669 95.788041 234.633713 87.393158 270.391802 
C 78.998276 306.149891 78.729553 343.339742 86.606832 379.215408 
C 94.48411 415.091075 110.308623 448.747308 132.911953 477.699069 
C 155.515283 506.650829 184.327081 530.167579 217.220002 546.512937 
C 250.112922 562.858296 286.25698 571.619821 322.983445 572.150597 
C 359.70991 572.681374 396.092065 564.968009 429.443601 549.580026 
L 419.152554 527.275463 
C 389.136172 541.124648 356.392232 548.066676 323.338413 547.588977 
C 290.284595 547.111279 257.754943 539.225906 228.151314 524.515084 
C 198.547685 509.804261 172.617068 488.639186 152.274071 462.582602 
C 131.931074 436.526017 117.689012 406.235408 110.599461 373.947308 
C 103.50991 341.659208 103.751761 308.188342 111.307155 276.006062 
C 118.86255 243.823782 133.540843 213.742142 154.258251 187.982248 
C 174.975658 162.222353 201.209417 141.434203 231.022536 127.152708 
C 260.835654 112.871213 293.475858 105.456738 326.533128 105.456738 
z
" style="fill: #f4f5f5; stroke: #ffffff; stroke-linejoin: miter"/>
   </g>
   <g id="patch_9">
    <path d="M 429.443601 549.580026 
C 480.278101 526.125621 521.598035 485.982995 546.511671 435.847517 
C 571.425307 385.712038 578.465995 328.535154 566.45942 273.853369 
C 554.452846 219.171584 524.105831 170.203983 480.479937 135.117847 
C 436.854044 100.031712 382.517504 80.892543 326.533082 80.892554 
L 326.533087 105.456738 
C 376.919067 105.456729 425.821952 122.681981 465.085256 154.259503 
C 504.34856 185.837024 531.660874 229.907865 542.466791 279.121472 
C 553.272708 328.335079 546.936089 379.794274 524.513817 424.916205 
C 502.091544 470.038136 464.903604 506.166499 419.152554 527.275463 
z
" style="fill: #bedbec; stroke: #ffffff; stroke-linejoin: miter"/>
   </g>
   <g id="patch_10">
    <path d="M 326.533128 105.456738 
C 292.555615 105.456738 259.031059 113.289765 228.571336 128.345552 
C 198.111613 143.401339 171.528846 165.278466 150.894082 192.272501 
C 130.259317 219.266536 116.122722 250.657758 109.58567 284.000499 
C 103.048618 317.343241 104.285401 351.74851 113.199661 384.535815 
C 122.113922 417.32312 138.467986 447.618281 160.987721 473.06102 
C 183.507455 498.50376 211.592434 518.415719 243.054576 531.245571 
C 274.516717 544.075423 308.517171 549.481096 342.406985 547.041436 
C 376.296799 544.601777 409.172397 534.381833 438.472461 517.177832 
L 426.034758 495.995228 
C 399.990256 511.287673 370.767502 520.372069 340.643223 522.540655 
C 310.518944 524.709241 280.296318 519.904198 252.32997 508.499886 
C 224.363623 497.095573 199.399197 479.396053 179.381655 456.780285 
C 159.364113 434.164516 144.827167 407.235485 136.90338 378.091213 
C 128.979593 348.946942 127.88023 318.36448 133.690943 288.726488 
C 139.501656 259.088496 152.067518 231.185187 170.409531 207.190489 
C 188.751544 183.195792 212.38067 163.749457 239.455979 150.366535 
C 266.531289 136.983613 296.330894 130.020923 326.533128 130.020923 
z
" style="fill: #f4f5f5; stroke: #ffffff; stroke-linejoin: miter"/>
   </g>
   <g id="patch_11">
    <path d="M 438.472461 517.177832 
C 480.312401 492.610844 512.923513 454.940297 531.2443 410.012953 
C 549.565086 365.085609 552.595992 315.352638 539.866596 268.532985 
C 527.1372 221.713332 499.342 180.361408 460.795028 150.895353 
C 422.248055 121.429298 375.052377 105.456738 326.533128 105.456738 
L 326.533128 130.020923 
C 369.661349 130.020923 411.613063 144.218754 445.877039 170.410803 
C 480.141015 196.602851 504.847859 233.360117 516.162877 274.977587 
C 527.477896 316.595056 524.783758 360.802141 508.498614 400.737558 
C 492.21347 440.672975 463.225815 474.157906 426.034758 495.995228 
z
" style="fill: #c2dded; stroke: #ffffff; stroke-linejoin: miter"/>
   </g>
   <g id="patch_12">
    <path d="M 326.533128 130.020923 
C 294.708862 130.020923 263.355816 137.751568 235.17933 152.545808 
C 207.002844 167.340049 182.837333 188.75977 164.767951 214.956742 
C 146.698568 241.153714 135.26042 271.352143 131.440461 302.946317 
C 127.620502 334.540491 131.531856 366.594784 142.837028 396.343348 
C 154.142199 426.091911 172.506397 452.653774 196.345043 473.737012 
C 220.183688 494.820249 248.790826 509.800504 279.698051 517.385185 
C 310.605276 524.969866 342.897304 524.93436 373.787776 517.281733 
C 404.678247 509.629105 433.252374 494.585979 457.044599 473.450371 
L 440.730666 455.085875 
C 419.912468 473.579532 394.910107 486.742267 367.880945 493.438316 
C 340.851782 500.134365 312.596257 500.165432 285.552436 493.528837 
C 258.508614 486.892241 233.477368 473.784518 212.618554 455.336685 
C 191.759739 436.888853 175.691065 413.647222 165.79904 387.617229 
C 155.907015 361.587236 152.48458 333.53973 155.827044 305.894828 
C 159.169508 278.249925 169.177888 251.8263 184.988598 228.903949 
C 200.799307 205.981598 221.944129 187.239342 246.598555 174.294382 
C 271.25298 161.349422 298.686896 154.585108 326.533128 154.585108 
z
" style="fill: #f4f5f5; stroke: #ffffff; stroke-linejoin: miter"/>
   </g>
   <g id="patch_13">
    <path d="M 457.044599 473.450371 
C 486.837305 446.984291 507.886347 412.071617 517.383911 373.369486 
C 526.881476 334.667356 524.385606 293.976723 510.229236 256.72547 
C 496.072866 219.474217 470.914743 187.395784 438.110809 164.769238 
C 405.306875 142.142692 366.383619 130.020931 326.533165 130.020923 
L 326.533161 154.585108 
C 361.402308 154.585114 395.460157 165.191655 424.163599 184.989883 
C 452.867042 204.788111 474.880398 232.85674 487.267222 265.451586 
C 499.654046 298.046432 501.837932 333.650736 493.527563 367.515101 
C 485.217194 401.379465 466.799283 431.928055 440.730666 455.085875 
z
" style="fill: #c6dfee; stroke: #ffffff; stroke-linejoin: miter"/>
   </g>
   <g id="patch_14">
    <path d="M 326.533128 154.585108 
C 297.942224 154.585108 269.797698 161.716046 244.65618 175.330152 
C 219.514662 188.944259 198.161202 208.616431 182.535533 232.559661 
C 166.909863 256.502892 157.4999 283.969548 155.160437 312.464578 
C 152.820975 340.959608 157.625063 369.593248 169.136302 395.764438 
C 180.647541 421.935629 198.50649 444.827167 221.090854 462.359604 
C 243.675219 479.89204 270.279796 491.517919 298.487846 496.181154 
C 326.695895 500.84439 355.626614 498.39937 382.651956 489.068201 
C 409.677298 479.737031 433.95339 463.811078 453.275009 442.737046 
L 435.169026 426.136668 
C 418.607638 444.200124 397.799559 457.850941 374.634981 465.849086 
C 351.470402 473.847232 326.672643 475.942962 302.494315 471.945904 
C 278.315986 467.948845 255.512063 457.983806 236.154036 442.956003 
C 216.79601 427.928201 201.48834 408.306882 191.621563 385.874433 
C 181.754787 363.441984 177.636997 338.898864 179.64225 314.474553 
C 181.647504 290.050241 189.713187 266.507393 203.106618 245.984624 
C 216.500049 225.461855 234.803015 208.599994 256.352887 196.930759 
C 277.90276 185.261525 302.026639 179.149292 326.533128 179.149292 
z
" style="fill: #f4f5f5; stroke: #ffffff; stroke-linejoin: miter"/>
   </g>
   <g id="patch_15">
    <path d="M 453.275009 442.737046 
C 475.826331 418.140386 490.737168 387.502837 496.179884 354.579675 
C 501.6226 321.656512 497.36535 287.850177 483.929948 257.304347 
C 470.494547 226.758516 448.453307 200.774363 420.507847 182.536791 
C 392.562387 164.299219 359.90311 154.585101 326.533096 154.585108 
L 326.533101 179.149292 
C 355.135969 179.149287 383.129635 187.475673 407.082887 203.107878 
C 431.036139 218.740083 449.92863 241.012214 461.444688 267.194354 
C 472.960747 293.376495 476.609819 322.353353 471.944633 350.573207 
C 467.279448 378.79306 454.49873 405.053817 435.169026 426.136668 
z
" style="fill: #c9e1ef; stroke: #ffffff; stroke-linejoin: miter"/>
   </g>
   <g id="patch_16">
    <path d="M 326.533128 179.149292 
C 299.747441 179.149292 273.461736 186.451316 250.513969 200.266996 
C 227.566201 214.082676 208.813058 233.896243 196.279236 257.568513 
C 183.745414 281.240783 177.898827 307.88802 179.370705 334.633237 
C 180.842583 361.378454 189.577979 387.223196 204.633768 409.377118 
C 219.689558 431.53104 240.503678 449.16709 264.828917 460.381179 
C 289.154156 471.595268 316.082403 475.968751 342.70633 473.029443 
C 369.330258 470.090134 394.655939 459.947764 415.949071 443.69736 
C 437.242202 427.446957 453.707866 405.695181 463.568335 380.790479 
L 440.729134 371.747799 
C 432.512076 392.501718 418.79069 410.628197 401.046414 424.1702 
C 383.302138 437.712203 362.197403 446.164178 340.010797 448.613602 
C 317.82419 451.063026 295.383985 447.418457 275.112952 438.073382 
C 254.841919 428.728308 237.49682 414.0316 224.950328 395.569999 
C 212.403837 377.108397 205.124341 355.571112 203.897776 333.283431 
C 202.671211 310.99575 207.543367 288.789719 217.988218 269.062828 
C 228.43307 249.335936 244.060689 232.82463 263.183829 221.311563 
C 282.306968 209.798497 304.211722 203.713477 326.533128 203.713477 
z
" style="fill: #f4f5f5; stroke: #ffffff; stroke-linejoin: miter"/>
   </g>
   <g id="patch_17">
    <path d="M 463.568335 380.790479 
C 472.418216 358.438232 475.666233 334.256469 473.028171 310.361198 
C 470.390109 286.465928 461.945227 263.575072 448.432489 243.691682 
C 434.919751 223.808291 416.74514 207.529752 395.499015 196.280508 
C 374.25289 185.031264 350.57358 179.149292 326.533128 179.149292 
L 326.533128 203.713477 
C 346.566838 203.713477 366.299597 208.61512 384.004701 217.98949 
C 401.709805 227.36386 416.855314 240.929309 428.115929 257.498801 
C 439.376544 274.068294 446.413946 293.144007 448.612331 313.056732 
C 450.810716 332.969457 448.104035 353.120927 440.729134 371.747799 
z
" style="fill: #d0e5f1; stroke: #ffffff; stroke-linejoin: miter"/>
   </g>
   <g id="patch_18">
    <path d="M 326.533128 203.713477 
C 302.310033 203.713477 278.619857 210.8795 258.457974 224.305478 
C 238.296092 237.731456 222.549646 256.826632 213.209609 279.176623 
C 203.869572 301.526613 201.346914 326.147997 205.9606 349.927658 
C 210.574286 373.707319 222.121308 395.598929 239.141667 412.834525 
C 256.162026 430.070121 277.906809 441.891318 301.626618 446.803452 
C 325.346426 451.715586 349.997565 449.502517 372.463157 440.444064 
C 394.928749 431.385612 414.220286 415.880357 427.898555 395.888776 
C 441.576825 375.897194 449.03997 352.298936 449.344354 328.077753 
L 424.782109 327.769082 
C 424.538602 347.146029 418.568086 366.024635 407.62547 382.0179 
C 396.682854 398.011165 381.249625 410.415369 363.277151 417.662131 
C 345.304678 424.908893 325.583767 426.679349 306.60792 422.749642 
C 287.632073 418.819935 270.236246 409.362976 256.619959 395.5745 
C 243.003672 381.786023 233.766054 364.272735 230.075106 345.249006 
C 226.384157 326.225277 228.402283 306.528171 235.874313 288.648178 
C 243.346343 270.768186 255.943499 255.492045 272.073005 244.751262 
C 288.202511 234.01048 307.154652 228.277662 326.533128 228.277662 
z
" style="fill: #f4f5f5; stroke: #ffffff; stroke-linejoin: miter"/>
   </g>
   <g id="patch_19">
    <path d="M 449.344354 328.077753 
C 449.548657 311.82048 446.52283 295.683284 440.442791 280.604366 
C 434.362751 265.525448 425.348658 251.802808 413.924582 240.234267 
C 402.500506 228.665726 388.892218 219.47991 373.89089 213.210874 
C 358.889562 206.941838 342.791662 203.713474 326.533105 203.713477 
L 326.53311 228.277662 
C 339.539955 228.277659 352.418275 230.86035 364.419338 235.875579 
C 376.4204 240.890808 387.307031 248.239461 396.446291 257.494293 
C 405.585552 266.749126 412.796827 277.727238 417.660858 289.790373 
C 422.52489 301.853507 424.945552 314.763264 424.782109 327.769082 
z
" style="fill: #daeaf4; stroke: #ffffff; stroke-linejoin: miter"/>
   </g>
   <g id="patch_20">
    <path d="M 326.533128 228.277662 
C 316.617202 228.277662 306.758163 229.778713 297.291532 232.729732 
C 287.824902 235.680751 278.859301 240.047878 270.699844 245.682492 
C 262.540388 251.317106 255.280697 258.154554 249.167834 265.962147 
C 243.05497 273.76974 238.159073 282.457892 234.646758 291.73093 
C 231.134442 301.003969 229.046009 310.755495 228.452532 320.653645 
C 227.859055 330.551796 228.767343 340.483 231.146486 350.109281 
C 233.525628 359.735562 237.348327 368.946467 242.484489 377.428534 
C 247.620651 385.9106 254.011343 393.566503 261.439079 400.1357 
C 268.866815 406.704897 277.246368 412.112011 286.292568 416.17303 
C 295.338768 420.234048 304.947817 422.902375 314.792704 424.087202 
C 324.63759 425.272028 334.605353 424.95976 344.356771 423.161024 
C 354.108189 421.362288 363.531374 418.097723 372.305639 413.478428 
C 381.079903 408.859133 389.104571 402.93811 396.106548 395.916862 
C 403.108525 388.895614 409.00747 380.854703 413.602632 372.067775 
C 418.197794 363.280848 421.436447 353.848726 423.208375 344.092401 
C 424.980303 334.336076 425.265174 324.367493 424.053294 314.5259 
L 399.673252 317.528025 
C 400.582162 324.90922 400.368509 332.385657 399.039563 339.702901 
C 397.710617 347.020145 395.281627 354.094236 391.835256 360.684432 
C 388.388884 367.274627 383.964676 373.30531 378.713193 378.571246 
C 373.46171 383.837182 367.44321 388.27795 360.862511 391.742421 
C 354.281813 395.206892 347.214424 397.655316 339.90086 399.004368 
C 332.587297 400.35342 325.111475 400.587621 317.72781 399.699001 
C 310.344145 398.810381 303.137358 396.809136 296.352708 393.763372 
C 289.568058 390.717608 283.283393 386.662272 277.712591 381.735375 
C 272.141789 376.808477 267.34877 371.06655 263.496649 364.705 
C 259.644527 358.343451 256.777503 351.435272 254.993146 344.215561 
C 253.208789 336.99585 252.527573 329.547447 252.972681 322.123834 
C 253.417789 314.700221 254.984114 307.386577 257.61835 300.431798 
C 260.252587 293.477019 263.92451 286.960905 268.509158 281.10521 
C 273.093805 275.249516 278.538573 270.121429 284.658165 265.895469 
C 290.777758 261.669509 297.501959 258.394164 304.601931 256.180899 
C 311.701904 253.967635 319.096183 252.841846 326.533128 252.841846 
z
" style="fill: #f4f5f5; stroke: #ffffff; stroke-linejoin: miter"/>
   </g>
   <g id="patch_21">
    <path d="M 424.053294 314.5259 
C 421.123415 290.732571 409.584702 268.814998 391.627189 252.933109 
C 373.669675 237.051221 350.506197 228.277668 326.533156 228.277662 
L 326.533149 252.841846 
C 344.51293 252.841851 361.885538 259.422016 375.353674 271.333432 
C 388.821809 283.244848 397.475844 299.683028 399.673252 317.528025 
z
" style="fill: #dcecf5; stroke: #ffffff; stroke-linejoin: miter"/>
   </g>
   <g id="matplotlib.axis_1"/>
   <g id="matplotlib.axis_2"/>
   <g id="text_1">
    <!-- AUPRC_0 on generalized models -->
    <g transform="translate(190.571253 94.3392) scale(0.168 -0.168)">
     <defs>
      <path id="DejaVuSans-41" d="M 2188 4044 
L 1331 1722 
L 3047 1722 
L 2188 4044 
z
M 1831 4666 
L 2547 4666 
L 4325 0 
L 3669 0 
L 3244 1197 
L 1141 1197 
L 716 0 
L 50 0 
L 1831 4666 
z
" transform="scale(0.015625)"/>
      <path id="DejaVuSans-55" d="M 556 4666 
L 1191 4666 
L 1191 1831 
Q 1191 1081 1462 751 
Q 1734 422 2344 422 
Q 2950 422 3222 751 
Q 3494 1081 3494 1831 
L 3494 4666 
L 4128 4666 
L 4128 1753 
Q 4128 841 3676 375 
Q 3225 -91 2344 -91 
Q 1459 -91 1007 375 
Q 556 841 556 1753 
L 556 4666 
z
" transform="scale(0.015625)"/>
      <path id="DejaVuSans-50" d="M 1259 4147 
L 1259 2394 
L 2053 2394 
Q 2494 2394 2734 2622 
Q 2975 2850 2975 3272 
Q 2975 3691 2734 3919 
Q 2494 4147 2053 4147 
L 1259 4147 
z
M 628 4666 
L 2053 4666 
Q 2838 4666 3239 4311 
Q 3641 3956 3641 3272 
Q 3641 2581 3239 2228 
Q 2838 1875 2053 1875 
L 1259 1875 
L 1259 0 
L 628 0 
L 628 4666 
z
" transform="scale(0.015625)"/>
      <path id="DejaVuSans-52" d="M 2841 2188 
Q 3044 2119 3236 1894 
Q 3428 1669 3622 1275 
L 4263 0 
L 3584 0 
L 2988 1197 
Q 2756 1666 2539 1819 
Q 2322 1972 1947 1972 
L 1259 1972 
L 1259 0 
L 628 0 
L 628 4666 
L 2053 4666 
Q 2853 4666 3247 4331 
Q 3641 3997 3641 3322 
Q 3641 2881 3436 2590 
Q 3231 2300 2841 2188 
z
M 1259 4147 
L 1259 2491 
L 2053 2491 
Q 2509 2491 2742 2702 
Q 2975 2913 2975 3322 
Q 2975 3731 2742 3939 
Q 2509 4147 2053 4147 
L 1259 4147 
z
" transform="scale(0.015625)"/>
      <path id="DejaVuSans-43" d="M 4122 4306 
L 4122 3641 
Q 3803 3938 3442 4084 
Q 3081 4231 2675 4231 
Q 1875 4231 1450 3742 
Q 1025 3253 1025 2328 
Q 1025 1406 1450 917 
Q 1875 428 2675 428 
Q 3081 428 3442 575 
Q 3803 722 4122 1019 
L 4122 359 
Q 3791 134 3420 21 
Q 3050 -91 2638 -91 
Q 1578 -91 968 557 
Q 359 1206 359 2328 
Q 359 3453 968 4101 
Q 1578 4750 2638 4750 
Q 3056 4750 3426 4639 
Q 3797 4528 4122 4306 
z
" transform="scale(0.015625)"/>
      <path id="DejaVuSans-5f" d="M 3263 -1063 
L 3263 -1509 
L -63 -1509 
L -63 -1063 
L 3263 -1063 
z
" transform="scale(0.015625)"/>
      <path id="DejaVuSans-30" d="M 2034 4250 
Q 1547 4250 1301 3770 
Q 1056 3291 1056 2328 
Q 1056 1369 1301 889 
Q 1547 409 2034 409 
Q 2525 409 2770 889 
Q 3016 1369 3016 2328 
Q 3016 3291 2770 3770 
Q 2525 4250 2034 4250 
z
M 2034 4750 
Q 2819 4750 3233 4129 
Q 3647 3509 3647 2328 
Q 3647 1150 3233 529 
Q 2819 -91 2034 -91 
Q 1250 -91 836 529 
Q 422 1150 422 2328 
Q 422 3509 836 4129 
Q 1250 4750 2034 4750 
z
" transform="scale(0.015625)"/>
      <path id="DejaVuSans-20" transform="scale(0.015625)"/>
      <path id="DejaVuSans-6f" d="M 1959 3097 
Q 1497 3097 1228 2736 
Q 959 2375 959 1747 
Q 959 1119 1226 758 
Q 1494 397 1959 397 
Q 2419 397 2687 759 
Q 2956 1122 2956 1747 
Q 2956 2369 2687 2733 
Q 2419 3097 1959 3097 
z
M 1959 3584 
Q 2709 3584 3137 3096 
Q 3566 2609 3566 1747 
Q 3566 888 3137 398 
Q 2709 -91 1959 -91 
Q 1206 -91 779 398 
Q 353 888 353 1747 
Q 353 2609 779 3096 
Q 1206 3584 1959 3584 
z
" transform="scale(0.015625)"/>
      <path id="DejaVuSans-6e" d="M 3513 2113 
L 3513 0 
L 2938 0 
L 2938 2094 
Q 2938 2591 2744 2837 
Q 2550 3084 2163 3084 
Q 1697 3084 1428 2787 
Q 1159 2491 1159 1978 
L 1159 0 
L 581 0 
L 581 3500 
L 1159 3500 
L 1159 2956 
Q 1366 3272 1645 3428 
Q 1925 3584 2291 3584 
Q 2894 3584 3203 3211 
Q 3513 2838 3513 2113 
z
" transform="scale(0.015625)"/>
      <path id="DejaVuSans-67" d="M 2906 1791 
Q 2906 2416 2648 2759 
Q 2391 3103 1925 3103 
Q 1463 3103 1205 2759 
Q 947 2416 947 1791 
Q 947 1169 1205 825 
Q 1463 481 1925 481 
Q 2391 481 2648 825 
Q 2906 1169 2906 1791 
z
M 3481 434 
Q 3481 -459 3084 -895 
Q 2688 -1331 1869 -1331 
Q 1566 -1331 1297 -1286 
Q 1028 -1241 775 -1147 
L 775 -588 
Q 1028 -725 1275 -790 
Q 1522 -856 1778 -856 
Q 2344 -856 2625 -561 
Q 2906 -266 2906 331 
L 2906 616 
Q 2728 306 2450 153 
Q 2172 0 1784 0 
Q 1141 0 747 490 
Q 353 981 353 1791 
Q 353 2603 747 3093 
Q 1141 3584 1784 3584 
Q 2172 3584 2450 3431 
Q 2728 3278 2906 2969 
L 2906 3500 
L 3481 3500 
L 3481 434 
z
" transform="scale(0.015625)"/>
      <path id="DejaVuSans-65" d="M 3597 1894 
L 3597 1613 
L 953 1613 
Q 991 1019 1311 708 
Q 1631 397 2203 397 
Q 2534 397 2845 478 
Q 3156 559 3463 722 
L 3463 178 
Q 3153 47 2828 -22 
Q 2503 -91 2169 -91 
Q 1331 -91 842 396 
Q 353 884 353 1716 
Q 353 2575 817 3079 
Q 1281 3584 2069 3584 
Q 2775 3584 3186 3129 
Q 3597 2675 3597 1894 
z
M 3022 2063 
Q 3016 2534 2758 2815 
Q 2500 3097 2075 3097 
Q 1594 3097 1305 2825 
Q 1016 2553 972 2059 
L 3022 2063 
z
" transform="scale(0.015625)"/>
      <path id="DejaVuSans-72" d="M 2631 2963 
Q 2534 3019 2420 3045 
Q 2306 3072 2169 3072 
Q 1681 3072 1420 2755 
Q 1159 2438 1159 1844 
L 1159 0 
L 581 0 
L 581 3500 
L 1159 3500 
L 1159 2956 
Q 1341 3275 1631 3429 
Q 1922 3584 2338 3584 
Q 2397 3584 2469 3576 
Q 2541 3569 2628 3553 
L 2631 2963 
z
" transform="scale(0.015625)"/>
      <path id="DejaVuSans-61" d="M 2194 1759 
Q 1497 1759 1228 1600 
Q 959 1441 959 1056 
Q 959 750 1161 570 
Q 1363 391 1709 391 
Q 2188 391 2477 730 
Q 2766 1069 2766 1631 
L 2766 1759 
L 2194 1759 
z
M 3341 1997 
L 3341 0 
L 2766 0 
L 2766 531 
Q 2569 213 2275 61 
Q 1981 -91 1556 -91 
Q 1019 -91 701 211 
Q 384 513 384 1019 
Q 384 1609 779 1909 
Q 1175 2209 1959 2209 
L 2766 2209 
L 2766 2266 
Q 2766 2663 2505 2880 
Q 2244 3097 1772 3097 
Q 1472 3097 1187 3025 
Q 903 2953 641 2809 
L 641 3341 
Q 956 3463 1253 3523 
Q 1550 3584 1831 3584 
Q 2591 3584 2966 3190 
Q 3341 2797 3341 1997 
z
" transform="scale(0.015625)"/>
      <path id="DejaVuSans-6c" d="M 603 4863 
L 1178 4863 
L 1178 0 
L 603 0 
L 603 4863 
z
" transform="scale(0.015625)"/>
      <path id="DejaVuSans-69" d="M 603 3500 
L 1178 3500 
L 1178 0 
L 603 0 
L 603 3500 
z
M 603 4863 
L 1178 4863 
L 1178 4134 
L 603 4134 
L 603 4863 
z
" transform="scale(0.015625)"/>
      <path id="DejaVuSans-7a" d="M 353 3500 
L 3084 3500 
L 3084 2975 
L 922 459 
L 3084 459 
L 3084 0 
L 275 0 
L 275 525 
L 2438 3041 
L 353 3041 
L 353 3500 
z
" transform="scale(0.015625)"/>
      <path id="DejaVuSans-64" d="M 2906 2969 
L 2906 4863 
L 3481 4863 
L 3481 0 
L 2906 0 
L 2906 525 
Q 2725 213 2448 61 
Q 2172 -91 1784 -91 
Q 1150 -91 751 415 
Q 353 922 353 1747 
Q 353 2572 751 3078 
Q 1150 3584 1784 3584 
Q 2172 3584 2448 3432 
Q 2725 3281 2906 2969 
z
M 947 1747 
Q 947 1113 1208 752 
Q 1469 391 1925 391 
Q 2381 391 2643 752 
Q 2906 1113 2906 1747 
Q 2906 2381 2643 2742 
Q 2381 3103 1925 3103 
Q 1469 3103 1208 2742 
Q 947 2381 947 1747 
z
" transform="scale(0.015625)"/>
      <path id="DejaVuSans-6d" d="M 3328 2828 
Q 3544 3216 3844 3400 
Q 4144 3584 4550 3584 
Q 5097 3584 5394 3201 
Q 5691 2819 5691 2113 
L 5691 0 
L 5113 0 
L 5113 2094 
Q 5113 2597 4934 2840 
Q 4756 3084 4391 3084 
Q 3944 3084 3684 2787 
Q 3425 2491 3425 1978 
L 3425 0 
L 2847 0 
L 2847 2094 
Q 2847 2600 2669 2842 
Q 2491 3084 2119 3084 
Q 1678 3084 1418 2786 
Q 1159 2488 1159 1978 
L 1159 0 
L 581 0 
L 581 3500 
L 1159 3500 
L 1159 2956 
Q 1356 3278 1631 3431 
Q 1906 3584 2284 3584 
Q 2666 3584 2933 3390 
Q 3200 3197 3328 2828 
z
" transform="scale(0.015625)"/>
      <path id="DejaVuSans-73" d="M 2834 3397 
L 2834 2853 
Q 2591 2978 2328 3040 
Q 2066 3103 1784 3103 
Q 1356 3103 1142 2972 
Q 928 2841 928 2578 
Q 928 2378 1081 2264 
Q 1234 2150 1697 2047 
L 1894 2003 
Q 2506 1872 2764 1633 
Q 3022 1394 3022 966 
Q 3022 478 2636 193 
Q 2250 -91 1575 -91 
Q 1294 -91 989 -36 
Q 684 19 347 128 
L 347 722 
Q 666 556 975 473 
Q 1284 391 1588 391 
Q 1994 391 2212 530 
Q 2431 669 2431 922 
Q 2431 1156 2273 1281 
Q 2116 1406 1581 1522 
L 1381 1569 
Q 847 1681 609 1914 
Q 372 2147 372 2553 
Q 372 3047 722 3315 
Q 1072 3584 1716 3584 
Q 2034 3584 2315 3537 
Q 2597 3491 2834 3397 
z
" transform="scale(0.015625)"/>
     </defs>
     <use xlink:href="#DejaVuSans-41"/>
     <use xlink:href="#DejaVuSans-55" x="68.408203"/>
     <use xlink:href="#DejaVuSans-50" x="141.601562"/>
     <use xlink:href="#DejaVuSans-52" x="201.904297"/>
     <use xlink:href="#DejaVuSans-43" x="266.386719"/>
     <use xlink:href="#DejaVuSans-5f" x="336.210938"/>
     <use xlink:href="#DejaVuSans-30" x="386.210938"/>
     <use xlink:href="#DejaVuSans-20" x="449.833984"/>
     <use xlink:href="#DejaVuSans-6f" x="481.621094"/>
     <use xlink:href="#DejaVuSans-6e" x="542.802734"/>
     <use xlink:href="#DejaVuSans-20" x="606.181641"/>
     <use xlink:href="#DejaVuSans-67" x="637.96875"/>
     <use xlink:href="#DejaVuSans-65" x="701.445312"/>
     <use xlink:href="#DejaVuSans-6e" x="762.96875"/>
     <use xlink:href="#DejaVuSans-65" x="826.347656"/>
     <use xlink:href="#DejaVuSans-72" x="887.871094"/>
     <use xlink:href="#DejaVuSans-61" x="928.984375"/>
     <use xlink:href="#DejaVuSans-6c" x="990.263672"/>
     <use xlink:href="#DejaVuSans-69" x="1018.046875"/>
     <use xlink:href="#DejaVuSans-7a" x="1045.830078"/>
     <use xlink:href="#DejaVuSans-65" x="1098.320312"/>
     <use xlink:href="#DejaVuSans-64" x="1159.84375"/>
     <use xlink:href="#DejaVuSans-20" x="1223.320312"/>
     <use xlink:href="#DejaVuSans-6d" x="1255.107422"/>
     <use xlink:href="#DejaVuSans-6f" x="1352.519531"/>
     <use xlink:href="#DejaVuSans-64" x="1413.701172"/>
     <use xlink:href="#DejaVuSans-65" x="1477.177734"/>
     <use xlink:href="#DejaVuSans-6c" x="1538.701172"/>
     <use xlink:href="#DejaVuSans-73" x="1566.484375"/>
    </g>
   </g>
   <g id="legend_1">
    <g id="patch_22">
     <path d="M 595.445128 326.5344 
L 880.080441 326.5344 
Q 882.880441 326.5344 882.880441 323.7344 
L 882.880441 97.1444 
Q 882.880441 94.3444 880.080441 94.3444 
L 595.445128 94.3444 
Q 592.645128 94.3444 592.645128 97.1444 
L 592.645128 323.7344 
Q 592.645128 326.5344 595.445128 326.5344 
z
" style="fill: #ffffff; opacity: 0.8; stroke: #cccccc; stroke-linejoin: miter"/>
    </g>
    <g id="text_2">
     <!-- Models -->
     <g transform="translate(713.097628 110.582212) scale(0.14 -0.14)">
      <defs>
       <path id="DejaVuSans-4d" d="M 628 4666 
L 1569 4666 
L 2759 1491 
L 3956 4666 
L 4897 4666 
L 4897 0 
L 4281 0 
L 4281 4097 
L 3078 897 
L 2444 897 
L 1241 4097 
L 1241 0 
L 628 0 
L 628 4666 
z
" transform="scale(0.015625)"/>
      </defs>
      <use xlink:href="#DejaVuSans-4d"/>
      <use xlink:href="#DejaVuSans-6f" x="86.279297"/>
      <use xlink:href="#DejaVuSans-64" x="147.460938"/>
      <use xlink:href="#DejaVuSans-65" x="210.9375"/>
      <use xlink:href="#DejaVuSans-6c" x="272.460938"/>
      <use xlink:href="#DejaVuSans-73" x="300.244141"/>
     </g>
    </g>
    <g id="patch_23">
     <path d="M 598.245128 131.131588 
L 626.245128 131.131588 
L 626.245128 121.331588 
L 598.245128 121.331588 
z
" style="fill: #aed2e7; stroke: #ffffff; stroke-linejoin: miter"/>
    </g>
    <g id="text_3">
     <!-- xgboost (54.39%) -->
     <g transform="translate(637.445128 131.131588) scale(0.14 -0.14)">
      <defs>
       <path id="DejaVuSans-78" d="M 3513 3500 
L 2247 1797 
L 3578 0 
L 2900 0 
L 1881 1375 
L 863 0 
L 184 0 
L 1544 1831 
L 300 3500 
L 978 3500 
L 1906 2253 
L 2834 3500 
L 3513 3500 
z
" transform="scale(0.015625)"/>
       <path id="DejaVuSans-62" d="M 3116 1747 
Q 3116 2381 2855 2742 
Q 2594 3103 2138 3103 
Q 1681 3103 1420 2742 
Q 1159 2381 1159 1747 
Q 1159 1113 1420 752 
Q 1681 391 2138 391 
Q 2594 391 2855 752 
Q 3116 1113 3116 1747 
z
M 1159 2969 
Q 1341 3281 1617 3432 
Q 1894 3584 2278 3584 
Q 2916 3584 3314 3078 
Q 3713 2572 3713 1747 
Q 3713 922 3314 415 
Q 2916 -91 2278 -91 
Q 1894 -91 1617 61 
Q 1341 213 1159 525 
L 1159 0 
L 581 0 
L 581 4863 
L 1159 4863 
L 1159 2969 
z
" transform="scale(0.015625)"/>
       <path id="DejaVuSans-74" d="M 1172 4494 
L 1172 3500 
L 2356 3500 
L 2356 3053 
L 1172 3053 
L 1172 1153 
Q 1172 725 1289 603 
Q 1406 481 1766 481 
L 2356 481 
L 2356 0 
L 1766 0 
Q 1100 0 847 248 
Q 594 497 594 1153 
L 594 3053 
L 172 3053 
L 172 3500 
L 594 3500 
L 594 4494 
L 1172 4494 
z
" transform="scale(0.015625)"/>
       <path id="DejaVuSans-28" d="M 1984 4856 
Q 1566 4138 1362 3434 
Q 1159 2731 1159 2009 
Q 1159 1288 1364 580 
Q 1569 -128 1984 -844 
L 1484 -844 
Q 1016 -109 783 600 
Q 550 1309 550 2009 
Q 550 2706 781 3412 
Q 1013 4119 1484 4856 
L 1984 4856 
z
" transform="scale(0.015625)"/>
       <path id="DejaVuSans-35" d="M 691 4666 
L 3169 4666 
L 3169 4134 
L 1269 4134 
L 1269 2991 
Q 1406 3038 1543 3061 
Q 1681 3084 1819 3084 
Q 2600 3084 3056 2656 
Q 3513 2228 3513 1497 
Q 3513 744 3044 326 
Q 2575 -91 1722 -91 
Q 1428 -91 1123 -41 
Q 819 9 494 109 
L 494 744 
Q 775 591 1075 516 
Q 1375 441 1709 441 
Q 2250 441 2565 725 
Q 2881 1009 2881 1497 
Q 2881 1984 2565 2268 
Q 2250 2553 1709 2553 
Q 1456 2553 1204 2497 
Q 953 2441 691 2322 
L 691 4666 
z
" transform="scale(0.015625)"/>
       <path id="DejaVuSans-34" d="M 2419 4116 
L 825 1625 
L 2419 1625 
L 2419 4116 
z
M 2253 4666 
L 3047 4666 
L 3047 1625 
L 3713 1625 
L 3713 1100 
L 3047 1100 
L 3047 0 
L 2419 0 
L 2419 1100 
L 313 1100 
L 313 1709 
L 2253 4666 
z
" transform="scale(0.015625)"/>
       <path id="DejaVuSans-2e" d="M 684 794 
L 1344 794 
L 1344 0 
L 684 0 
L 684 794 
z
" transform="scale(0.015625)"/>
       <path id="DejaVuSans-33" d="M 2597 2516 
Q 3050 2419 3304 2112 
Q 3559 1806 3559 1356 
Q 3559 666 3084 287 
Q 2609 -91 1734 -91 
Q 1441 -91 1130 -33 
Q 819 25 488 141 
L 488 750 
Q 750 597 1062 519 
Q 1375 441 1716 441 
Q 2309 441 2620 675 
Q 2931 909 2931 1356 
Q 2931 1769 2642 2001 
Q 2353 2234 1838 2234 
L 1294 2234 
L 1294 2753 
L 1863 2753 
Q 2328 2753 2575 2939 
Q 2822 3125 2822 3475 
Q 2822 3834 2567 4026 
Q 2313 4219 1838 4219 
Q 1578 4219 1281 4162 
Q 984 4106 628 3988 
L 628 4550 
Q 988 4650 1302 4700 
Q 1616 4750 1894 4750 
Q 2613 4750 3031 4423 
Q 3450 4097 3450 3541 
Q 3450 3153 3228 2886 
Q 3006 2619 2597 2516 
z
" transform="scale(0.015625)"/>
       <path id="DejaVuSans-39" d="M 703 97 
L 703 672 
Q 941 559 1184 500 
Q 1428 441 1663 441 
Q 2288 441 2617 861 
Q 2947 1281 2994 2138 
Q 2813 1869 2534 1725 
Q 2256 1581 1919 1581 
Q 1219 1581 811 2004 
Q 403 2428 403 3163 
Q 403 3881 828 4315 
Q 1253 4750 1959 4750 
Q 2769 4750 3195 4129 
Q 3622 3509 3622 2328 
Q 3622 1225 3098 567 
Q 2575 -91 1691 -91 
Q 1453 -91 1209 -44 
Q 966 3 703 97 
z
M 1959 2075 
Q 2384 2075 2632 2365 
Q 2881 2656 2881 3163 
Q 2881 3666 2632 3958 
Q 2384 4250 1959 4250 
Q 1534 4250 1286 3958 
Q 1038 3666 1038 3163 
Q 1038 2656 1286 2365 
Q 1534 2075 1959 2075 
z
" transform="scale(0.015625)"/>
       <path id="DejaVuSans-25" d="M 4653 2053 
Q 4381 2053 4226 1822 
Q 4072 1591 4072 1178 
Q 4072 772 4226 539 
Q 4381 306 4653 306 
Q 4919 306 5073 539 
Q 5228 772 5228 1178 
Q 5228 1588 5073 1820 
Q 4919 2053 4653 2053 
z
M 4653 2450 
Q 5147 2450 5437 2106 
Q 5728 1763 5728 1178 
Q 5728 594 5436 251 
Q 5144 -91 4653 -91 
Q 4153 -91 3862 251 
Q 3572 594 3572 1178 
Q 3572 1766 3864 2108 
Q 4156 2450 4653 2450 
z
M 1428 4353 
Q 1159 4353 1004 4120 
Q 850 3888 850 3481 
Q 850 3069 1003 2837 
Q 1156 2606 1428 2606 
Q 1700 2606 1854 2837 
Q 2009 3069 2009 3481 
Q 2009 3884 1853 4118 
Q 1697 4353 1428 4353 
z
M 4250 4750 
L 4750 4750 
L 1831 -91 
L 1331 -91 
L 4250 4750 
z
M 1428 4750 
Q 1922 4750 2215 4408 
Q 2509 4066 2509 3481 
Q 2509 2891 2217 2550 
Q 1925 2209 1428 2209 
Q 931 2209 642 2551 
Q 353 2894 353 3481 
Q 353 4063 643 4406 
Q 934 4750 1428 4750 
z
" transform="scale(0.015625)"/>
       <path id="DejaVuSans-29" d="M 513 4856 
L 1013 4856 
Q 1481 4119 1714 3412 
Q 1947 2706 1947 2009 
Q 1947 1309 1714 600 
Q 1481 -109 1013 -844 
L 513 -844 
Q 928 -128 1133 580 
Q 1338 1288 1338 2009 
Q 1338 2731 1133 3434 
Q 928 4138 513 4856 
z
" transform="scale(0.015625)"/>
      </defs>
      <use xlink:href="#DejaVuSans-78"/>
      <use xlink:href="#DejaVuSans-67" x="59.179688"/>
      <use xlink:href="#DejaVuSans-62" x="122.65625"/>
      <use xlink:href="#DejaVuSans-6f" x="186.132812"/>
      <use xlink:href="#DejaVuSans-6f" x="247.314453"/>
      <use xlink:href="#DejaVuSans-73" x="308.496094"/>
      <use xlink:href="#DejaVuSans-74" x="360.595703"/>
      <use xlink:href="#DejaVuSans-20" x="399.804688"/>
      <use xlink:href="#DejaVuSans-28" x="431.591797"/>
      <use xlink:href="#DejaVuSans-35" x="470.605469"/>
      <use xlink:href="#DejaVuSans-34" x="534.228516"/>
      <use xlink:href="#DejaVuSans-2e" x="597.851562"/>
      <use xlink:href="#DejaVuSans-33" x="629.638672"/>
      <use xlink:href="#DejaVuSans-39" x="693.261719"/>
      <use xlink:href="#DejaVuSans-25" x="756.884766"/>
      <use xlink:href="#DejaVuSans-29" x="851.904297"/>
     </g>
    </g>
    <g id="patch_24">
     <path d="M 598.245128 151.680963 
L 626.245128 151.680963 
L 626.245128 141.880963 
L 598.245128 141.880963 
z
" style="fill: #b1d4e8; stroke: #ffffff; stroke-linejoin: miter"/>
    </g>
    <g id="text_4">
     <!-- random_forest (52.03%) -->
     <g transform="translate(637.445128 151.680963) scale(0.14 -0.14)">
      <defs>
       <path id="DejaVuSans-66" d="M 2375 4863 
L 2375 4384 
L 1825 4384 
Q 1516 4384 1395 4259 
Q 1275 4134 1275 3809 
L 1275 3500 
L 2222 3500 
L 2222 3053 
L 1275 3053 
L 1275 0 
L 697 0 
L 697 3053 
L 147 3053 
L 147 3500 
L 697 3500 
L 697 3744 
Q 697 4328 969 4595 
Q 1241 4863 1831 4863 
L 2375 4863 
z
" transform="scale(0.015625)"/>
       <path id="DejaVuSans-32" d="M 1228 531 
L 3431 531 
L 3431 0 
L 469 0 
L 469 531 
Q 828 903 1448 1529 
Q 2069 2156 2228 2338 
Q 2531 2678 2651 2914 
Q 2772 3150 2772 3378 
Q 2772 3750 2511 3984 
Q 2250 4219 1831 4219 
Q 1534 4219 1204 4116 
Q 875 4013 500 3803 
L 500 4441 
Q 881 4594 1212 4672 
Q 1544 4750 1819 4750 
Q 2544 4750 2975 4387 
Q 3406 4025 3406 3419 
Q 3406 3131 3298 2873 
Q 3191 2616 2906 2266 
Q 2828 2175 2409 1742 
Q 1991 1309 1228 531 
z
" transform="scale(0.015625)"/>
      </defs>
      <use xlink:href="#DejaVuSans-72"/>
      <use xlink:href="#DejaVuSans-61" x="41.113281"/>
      <use xlink:href="#DejaVuSans-6e" x="102.392578"/>
      <use xlink:href="#DejaVuSans-64" x="165.771484"/>
      <use xlink:href="#DejaVuSans-6f" x="229.248047"/>
      <use xlink:href="#DejaVuSans-6d" x="290.429688"/>
      <use xlink:href="#DejaVuSans-5f" x="387.841797"/>
      <use xlink:href="#DejaVuSans-66" x="437.841797"/>
      <use xlink:href="#DejaVuSans-6f" x="473.046875"/>
      <use xlink:href="#DejaVuSans-72" x="534.228516"/>
      <use xlink:href="#DejaVuSans-65" x="573.091797"/>
      <use xlink:href="#DejaVuSans-73" x="634.615234"/>
      <use xlink:href="#DejaVuSans-74" x="686.714844"/>
      <use xlink:href="#DejaVuSans-20" x="725.923828"/>
      <use xlink:href="#DejaVuSans-28" x="757.710938"/>
      <use xlink:href="#DejaVuSans-35" x="796.724609"/>
      <use xlink:href="#DejaVuSans-32" x="860.347656"/>
      <use xlink:href="#DejaVuSans-2e" x="923.970703"/>
      <use xlink:href="#DejaVuSans-30" x="955.757812"/>
      <use xlink:href="#DejaVuSans-33" x="1019.380859"/>
      <use xlink:href="#DejaVuSans-25" x="1083.003906"/>
      <use xlink:href="#DejaVuSans-29" x="1178.023438"/>
     </g>
    </g>
    <g id="patch_25">
     <path d="M 598.245128 172.619712 
L 626.245128 172.619712 
L 626.245128 162.819712 
L 598.245128 162.819712 
z
" style="fill: #bcdaeb; stroke: #ffffff; stroke-linejoin: miter"/>
    </g>
    <g id="text_5">
     <!-- neural_network (45.74%) -->
     <g transform="translate(637.445128 172.619712) scale(0.14 -0.14)">
      <defs>
       <path id="DejaVuSans-75" d="M 544 1381 
L 544 3500 
L 1119 3500 
L 1119 1403 
Q 1119 906 1312 657 
Q 1506 409 1894 409 
Q 2359 409 2629 706 
Q 2900 1003 2900 1516 
L 2900 3500 
L 3475 3500 
L 3475 0 
L 2900 0 
L 2900 538 
Q 2691 219 2414 64 
Q 2138 -91 1772 -91 
Q 1169 -91 856 284 
Q 544 659 544 1381 
z
M 1991 3584 
L 1991 3584 
z
" transform="scale(0.015625)"/>
       <path id="DejaVuSans-77" d="M 269 3500 
L 844 3500 
L 1563 769 
L 2278 3500 
L 2956 3500 
L 3675 769 
L 4391 3500 
L 4966 3500 
L 4050 0 
L 3372 0 
L 2619 2869 
L 1863 0 
L 1184 0 
L 269 3500 
z
" transform="scale(0.015625)"/>
       <path id="DejaVuSans-6b" d="M 581 4863 
L 1159 4863 
L 1159 1991 
L 2875 3500 
L 3609 3500 
L 1753 1863 
L 3688 0 
L 2938 0 
L 1159 1709 
L 1159 0 
L 581 0 
L 581 4863 
z
" transform="scale(0.015625)"/>
       <path id="DejaVuSans-37" d="M 525 4666 
L 3525 4666 
L 3525 4397 
L 1831 0 
L 1172 0 
L 2766 4134 
L 525 4134 
L 525 4666 
z
" transform="scale(0.015625)"/>
      </defs>
      <use xlink:href="#DejaVuSans-6e"/>
      <use xlink:href="#DejaVuSans-65" x="63.378906"/>
      <use xlink:href="#DejaVuSans-75" x="124.902344"/>
      <use xlink:href="#DejaVuSans-72" x="188.28125"/>
      <use xlink:href="#DejaVuSans-61" x="229.394531"/>
      <use xlink:href="#DejaVuSans-6c" x="290.673828"/>
      <use xlink:href="#DejaVuSans-5f" x="318.457031"/>
      <use xlink:href="#DejaVuSans-6e" x="368.457031"/>
      <use xlink:href="#DejaVuSans-65" x="431.835938"/>
      <use xlink:href="#DejaVuSans-74" x="493.359375"/>
      <use xlink:href="#DejaVuSans-77" x="532.568359"/>
      <use xlink:href="#DejaVuSans-6f" x="614.355469"/>
      <use xlink:href="#DejaVuSans-72" x="675.537109"/>
      <use xlink:href="#DejaVuSans-6b" x="716.650391"/>
      <use xlink:href="#DejaVuSans-20" x="774.560547"/>
      <use xlink:href="#DejaVuSans-28" x="806.347656"/>
      <use xlink:href="#DejaVuSans-34" x="845.361328"/>
      <use xlink:href="#DejaVuSans-35" x="908.984375"/>
      <use xlink:href="#DejaVuSans-2e" x="972.607422"/>
      <use xlink:href="#DejaVuSans-37" x="1004.394531"/>
      <use xlink:href="#DejaVuSans-34" x="1068.017578"/>
      <use xlink:href="#DejaVuSans-25" x="1131.640625"/>
      <use xlink:href="#DejaVuSans-29" x="1226.660156"/>
     </g>
    </g>
    <g id="patch_26">
     <path d="M 598.245128 193.558463 
L 626.245128 193.558463 
L 626.245128 183.758463 
L 598.245128 183.758463 
z
" style="fill: #bedbec; stroke: #ffffff; stroke-linejoin: miter"/>
    </g>
    <g id="text_6">
     <!-- crf (43.12%) -->
     <g transform="translate(637.445128 193.558463) scale(0.14 -0.14)">
      <defs>
       <path id="DejaVuSans-63" d="M 3122 3366 
L 3122 2828 
Q 2878 2963 2633 3030 
Q 2388 3097 2138 3097 
Q 1578 3097 1268 2742 
Q 959 2388 959 1747 
Q 959 1106 1268 751 
Q 1578 397 2138 397 
Q 2388 397 2633 464 
Q 2878 531 3122 666 
L 3122 134 
Q 2881 22 2623 -34 
Q 2366 -91 2075 -91 
Q 1284 -91 818 406 
Q 353 903 353 1747 
Q 353 2603 823 3093 
Q 1294 3584 2113 3584 
Q 2378 3584 2631 3529 
Q 2884 3475 3122 3366 
z
" transform="scale(0.015625)"/>
       <path id="DejaVuSans-31" d="M 794 531 
L 1825 531 
L 1825 4091 
L 703 3866 
L 703 4441 
L 1819 4666 
L 2450 4666 
L 2450 531 
L 3481 531 
L 3481 0 
L 794 0 
L 794 531 
z
" transform="scale(0.015625)"/>
      </defs>
      <use xlink:href="#DejaVuSans-63"/>
      <use xlink:href="#DejaVuSans-72" x="54.980469"/>
      <use xlink:href="#DejaVuSans-66" x="96.09375"/>
      <use xlink:href="#DejaVuSans-20" x="131.298828"/>
      <use xlink:href="#DejaVuSans-28" x="163.085938"/>
      <use xlink:href="#DejaVuSans-34" x="202.099609"/>
      <use xlink:href="#DejaVuSans-33" x="265.722656"/>
      <use xlink:href="#DejaVuSans-2e" x="329.345703"/>
      <use xlink:href="#DejaVuSans-31" x="361.132812"/>
      <use xlink:href="#DejaVuSans-32" x="424.755859"/>
      <use xlink:href="#DejaVuSans-25" x="488.378906"/>
      <use xlink:href="#DejaVuSans-29" x="583.398438"/>
     </g>
    </g>
    <g id="patch_27">
     <path d="M 598.245128 214.107838 
L 626.245128 214.107838 
L 626.245128 204.307838 
L 598.245128 204.307838 
z
" style="fill: #c2dded; stroke: #ffffff; stroke-linejoin: miter"/>
    </g>
    <g id="text_7">
     <!-- logistic_regression (41.55%) -->
     <g transform="translate(637.445128 214.107838) scale(0.14 -0.14)">
      <use xlink:href="#DejaVuSans-6c"/>
      <use xlink:href="#DejaVuSans-6f" x="27.783203"/>
      <use xlink:href="#DejaVuSans-67" x="88.964844"/>
      <use xlink:href="#DejaVuSans-69" x="152.441406"/>
      <use xlink:href="#DejaVuSans-73" x="180.224609"/>
      <use xlink:href="#DejaVuSans-74" x="232.324219"/>
      <use xlink:href="#DejaVuSans-69" x="271.533203"/>
      <use xlink:href="#DejaVuSans-63" x="299.316406"/>
      <use xlink:href="#DejaVuSans-5f" x="354.296875"/>
      <use xlink:href="#DejaVuSans-72" x="404.296875"/>
      <use xlink:href="#DejaVuSans-65" x="443.160156"/>
      <use xlink:href="#DejaVuSans-67" x="504.683594"/>
      <use xlink:href="#DejaVuSans-72" x="568.160156"/>
      <use xlink:href="#DejaVuSans-65" x="607.023438"/>
      <use xlink:href="#DejaVuSans-73" x="668.546875"/>
      <use xlink:href="#DejaVuSans-73" x="720.646484"/>
      <use xlink:href="#DejaVuSans-69" x="772.746094"/>
      <use xlink:href="#DejaVuSans-6f" x="800.529297"/>
      <use xlink:href="#DejaVuSans-6e" x="861.710938"/>
      <use xlink:href="#DejaVuSans-20" x="925.089844"/>
      <use xlink:href="#DejaVuSans-28" x="956.876953"/>
      <use xlink:href="#DejaVuSans-34" x="995.890625"/>
      <use xlink:href="#DejaVuSans-31" x="1059.513672"/>
      <use xlink:href="#DejaVuSans-2e" x="1123.136719"/>
      <use xlink:href="#DejaVuSans-35" x="1154.923828"/>
      <use xlink:href="#DejaVuSans-35" x="1218.546875"/>
      <use xlink:href="#DejaVuSans-25" x="1282.169922"/>
      <use xlink:href="#DejaVuSans-29" x="1377.189453"/>
     </g>
    </g>
    <g id="patch_28">
     <path d="M 598.245128 235.046587 
L 626.245128 235.046587 
L 626.245128 225.246587 
L 598.245128 225.246587 
z
" style="fill: #c6dfee; stroke: #ffffff; stroke-linejoin: miter"/>
    </g>
    <g id="text_8">
     <!-- svm (38.44%) -->
     <g transform="translate(637.445128 235.046587) scale(0.14 -0.14)">
      <defs>
       <path id="DejaVuSans-76" d="M 191 3500 
L 800 3500 
L 1894 563 
L 2988 3500 
L 3597 3500 
L 2284 0 
L 1503 0 
L 191 3500 
z
" transform="scale(0.015625)"/>
       <path id="DejaVuSans-38" d="M 2034 2216 
Q 1584 2216 1326 1975 
Q 1069 1734 1069 1313 
Q 1069 891 1326 650 
Q 1584 409 2034 409 
Q 2484 409 2743 651 
Q 3003 894 3003 1313 
Q 3003 1734 2745 1975 
Q 2488 2216 2034 2216 
z
M 1403 2484 
Q 997 2584 770 2862 
Q 544 3141 544 3541 
Q 544 4100 942 4425 
Q 1341 4750 2034 4750 
Q 2731 4750 3128 4425 
Q 3525 4100 3525 3541 
Q 3525 3141 3298 2862 
Q 3072 2584 2669 2484 
Q 3125 2378 3379 2068 
Q 3634 1759 3634 1313 
Q 3634 634 3220 271 
Q 2806 -91 2034 -91 
Q 1263 -91 848 271 
Q 434 634 434 1313 
Q 434 1759 690 2068 
Q 947 2378 1403 2484 
z
M 1172 3481 
Q 1172 3119 1398 2916 
Q 1625 2713 2034 2713 
Q 2441 2713 2670 2916 
Q 2900 3119 2900 3481 
Q 2900 3844 2670 4047 
Q 2441 4250 2034 4250 
Q 1625 4250 1398 4047 
Q 1172 3844 1172 3481 
z
" transform="scale(0.015625)"/>
      </defs>
      <use xlink:href="#DejaVuSans-73"/>
      <use xlink:href="#DejaVuSans-76" x="52.099609"/>
      <use xlink:href="#DejaVuSans-6d" x="111.279297"/>
      <use xlink:href="#DejaVuSans-20" x="208.691406"/>
      <use xlink:href="#DejaVuSans-28" x="240.478516"/>
      <use xlink:href="#DejaVuSans-33" x="279.492188"/>
      <use xlink:href="#DejaVuSans-38" x="343.115234"/>
      <use xlink:href="#DejaVuSans-2e" x="406.738281"/>
      <use xlink:href="#DejaVuSans-34" x="438.525391"/>
      <use xlink:href="#DejaVuSans-34" x="502.148438"/>
      <use xlink:href="#DejaVuSans-25" x="565.771484"/>
      <use xlink:href="#DejaVuSans-29" x="660.791016"/>
     </g>
    </g>
    <g id="patch_29">
     <path d="M 598.245128 255.595963 
L 626.245128 255.595963 
L 626.245128 245.795963 
L 598.245128 245.795963 
z
" style="fill: #c9e1ef; stroke: #ffffff; stroke-linejoin: miter"/>
    </g>
    <g id="text_9">
     <!-- naive_bayes (36.81%) -->
     <g transform="translate(637.445128 255.595963) scale(0.14 -0.14)">
      <defs>
       <path id="DejaVuSans-79" d="M 2059 -325 
Q 1816 -950 1584 -1140 
Q 1353 -1331 966 -1331 
L 506 -1331 
L 506 -850 
L 844 -850 
Q 1081 -850 1212 -737 
Q 1344 -625 1503 -206 
L 1606 56 
L 191 3500 
L 800 3500 
L 1894 763 
L 2988 3500 
L 3597 3500 
L 2059 -325 
z
" transform="scale(0.015625)"/>
       <path id="DejaVuSans-36" d="M 2113 2584 
Q 1688 2584 1439 2293 
Q 1191 2003 1191 1497 
Q 1191 994 1439 701 
Q 1688 409 2113 409 
Q 2538 409 2786 701 
Q 3034 994 3034 1497 
Q 3034 2003 2786 2293 
Q 2538 2584 2113 2584 
z
M 3366 4563 
L 3366 3988 
Q 3128 4100 2886 4159 
Q 2644 4219 2406 4219 
Q 1781 4219 1451 3797 
Q 1122 3375 1075 2522 
Q 1259 2794 1537 2939 
Q 1816 3084 2150 3084 
Q 2853 3084 3261 2657 
Q 3669 2231 3669 1497 
Q 3669 778 3244 343 
Q 2819 -91 2113 -91 
Q 1303 -91 875 529 
Q 447 1150 447 2328 
Q 447 3434 972 4092 
Q 1497 4750 2381 4750 
Q 2619 4750 2861 4703 
Q 3103 4656 3366 4563 
z
" transform="scale(0.015625)"/>
      </defs>
      <use xlink:href="#DejaVuSans-6e"/>
      <use xlink:href="#DejaVuSans-61" x="63.378906"/>
      <use xlink:href="#DejaVuSans-69" x="124.658203"/>
      <use xlink:href="#DejaVuSans-76" x="152.441406"/>
      <use xlink:href="#DejaVuSans-65" x="211.621094"/>
      <use xlink:href="#DejaVuSans-5f" x="273.144531"/>
      <use xlink:href="#DejaVuSans-62" x="323.144531"/>
      <use xlink:href="#DejaVuSans-61" x="386.621094"/>
      <use xlink:href="#DejaVuSans-79" x="447.900391"/>
      <use xlink:href="#DejaVuSans-65" x="507.080078"/>
      <use xlink:href="#DejaVuSans-73" x="568.603516"/>
      <use xlink:href="#DejaVuSans-20" x="620.703125"/>
      <use xlink:href="#DejaVuSans-28" x="652.490234"/>
      <use xlink:href="#DejaVuSans-33" x="691.503906"/>
      <use xlink:href="#DejaVuSans-36" x="755.126953"/>
      <use xlink:href="#DejaVuSans-2e" x="818.75"/>
      <use xlink:href="#DejaVuSans-38" x="850.537109"/>
      <use xlink:href="#DejaVuSans-31" x="914.160156"/>
      <use xlink:href="#DejaVuSans-25" x="977.783203"/>
      <use xlink:href="#DejaVuSans-29" x="1072.802734"/>
     </g>
    </g>
    <g id="patch_30">
     <path d="M 598.245128 276.534713 
L 626.245128 276.534713 
L 626.245128 266.734713 
L 598.245128 266.734713 
z
" style="fill: #d0e5f1; stroke: #ffffff; stroke-linejoin: miter"/>
    </g>
    <g id="text_10">
     <!-- recurrent_neural_network (31.0%) -->
     <g transform="translate(637.445128 276.534713) scale(0.14 -0.14)">
      <use xlink:href="#DejaVuSans-72"/>
      <use xlink:href="#DejaVuSans-65" x="38.863281"/>
      <use xlink:href="#DejaVuSans-63" x="100.386719"/>
      <use xlink:href="#DejaVuSans-75" x="155.367188"/>
      <use xlink:href="#DejaVuSans-72" x="218.746094"/>
      <use xlink:href="#DejaVuSans-72" x="258.109375"/>
      <use xlink:href="#DejaVuSans-65" x="296.972656"/>
      <use xlink:href="#DejaVuSans-6e" x="358.496094"/>
      <use xlink:href="#DejaVuSans-74" x="421.875"/>
      <use xlink:href="#DejaVuSans-5f" x="461.083984"/>
      <use xlink:href="#DejaVuSans-6e" x="511.083984"/>
      <use xlink:href="#DejaVuSans-65" x="574.462891"/>
      <use xlink:href="#DejaVuSans-75" x="635.986328"/>
      <use xlink:href="#DejaVuSans-72" x="699.365234"/>
      <use xlink:href="#DejaVuSans-61" x="740.478516"/>
      <use xlink:href="#DejaVuSans-6c" x="801.757812"/>
      <use xlink:href="#DejaVuSans-5f" x="829.541016"/>
      <use xlink:href="#DejaVuSans-6e" x="879.541016"/>
      <use xlink:href="#DejaVuSans-65" x="942.919922"/>
      <use xlink:href="#DejaVuSans-74" x="1004.443359"/>
      <use xlink:href="#DejaVuSans-77" x="1043.652344"/>
      <use xlink:href="#DejaVuSans-6f" x="1125.439453"/>
      <use xlink:href="#DejaVuSans-72" x="1186.621094"/>
      <use xlink:href="#DejaVuSans-6b" x="1227.734375"/>
      <use xlink:href="#DejaVuSans-20" x="1285.644531"/>
      <use xlink:href="#DejaVuSans-28" x="1317.431641"/>
      <use xlink:href="#DejaVuSans-33" x="1356.445312"/>
      <use xlink:href="#DejaVuSans-31" x="1420.068359"/>
      <use xlink:href="#DejaVuSans-2e" x="1483.691406"/>
      <use xlink:href="#DejaVuSans-30" x="1515.478516"/>
      <use xlink:href="#DejaVuSans-25" x="1579.101562"/>
      <use xlink:href="#DejaVuSans-29" x="1674.121094"/>
     </g>
    </g>
    <g id="patch_31">
     <path d="M 598.245128 297.473462 
L 626.245128 297.473462 
L 626.245128 287.673462 
L 598.245128 287.673462 
z
" style="fill: #daeaf4; stroke: #ffffff; stroke-linejoin: miter"/>
    </g>
    <g id="text_11">
     <!-- hmm (25.2%) -->
     <g transform="translate(637.445128 297.473462) scale(0.14 -0.14)">
      <defs>
       <path id="DejaVuSans-68" d="M 3513 2113 
L 3513 0 
L 2938 0 
L 2938 2094 
Q 2938 2591 2744 2837 
Q 2550 3084 2163 3084 
Q 1697 3084 1428 2787 
Q 1159 2491 1159 1978 
L 1159 0 
L 581 0 
L 581 4863 
L 1159 4863 
L 1159 2956 
Q 1366 3272 1645 3428 
Q 1925 3584 2291 3584 
Q 2894 3584 3203 3211 
Q 3513 2838 3513 2113 
z
" transform="scale(0.015625)"/>
      </defs>
      <use xlink:href="#DejaVuSans-68"/>
      <use xlink:href="#DejaVuSans-6d" x="63.378906"/>
      <use xlink:href="#DejaVuSans-6d" x="160.791016"/>
      <use xlink:href="#DejaVuSans-20" x="258.203125"/>
      <use xlink:href="#DejaVuSans-28" x="289.990234"/>
      <use xlink:href="#DejaVuSans-32" x="329.003906"/>
      <use xlink:href="#DejaVuSans-35" x="392.626953"/>
      <use xlink:href="#DejaVuSans-2e" x="456.25"/>
      <use xlink:href="#DejaVuSans-32" x="488.037109"/>
      <use xlink:href="#DejaVuSans-25" x="551.660156"/>
      <use xlink:href="#DejaVuSans-29" x="646.679688"/>
     </g>
    </g>
    <g id="patch_32">
     <path d="M 598.245128 318.022838 
L 626.245128 318.022838 
L 626.245128 308.222838 
L 598.245128 308.222838 
z
" style="fill: #dcecf5; stroke: #ffffff; stroke-linejoin: miter"/>
    </g>
    <g id="text_12">
     <!-- knn (23.05%) -->
     <g transform="translate(637.445128 318.022838) scale(0.14 -0.14)">
      <use xlink:href="#DejaVuSans-6b"/>
      <use xlink:href="#DejaVuSans-6e" x="57.910156"/>
      <use xlink:href="#DejaVuSans-6e" x="121.289062"/>
      <use xlink:href="#DejaVuSans-20" x="184.667969"/>
      <use xlink:href="#DejaVuSans-28" x="216.455078"/>
      <use xlink:href="#DejaVuSans-32" x="255.46875"/>
      <use xlink:href="#DejaVuSans-33" x="319.091797"/>
      <use xlink:href="#DejaVuSans-2e" x="382.714844"/>
      <use xlink:href="#DejaVuSans-30" x="414.501953"/>
      <use xlink:href="#DejaVuSans-35" x="478.125"/>
      <use xlink:href="#DejaVuSans-25" x="541.748047"/>
      <use xlink:href="#DejaVuSans-29" x="636.767578"/>
     </g>
    </g>
   </g>
  </g>
 </g>
</svg>
