<?xml version="1.0" encoding="utf-8" standalone="no"?>
<!DOCTYPE svg PUBLIC "-//W3C//DTD SVG 1.1//EN"
  "http://www.w3.org/Graphics/SVG/1.1/DTD/svg11.dtd">
<svg xmlns:xlink="http://www.w3.org/1999/xlink" width="898.98914pt" height="653.068768pt" viewBox="0 0 898.98914 653.068768" xmlns="http://www.w3.org/2000/svg" version="1.1">
 <metadata>
  <rdf:RDF xmlns:dc="http://purl.org/dc/elements/1.1/" xmlns:cc="http://creativecommons.org/ns#" xmlns:rdf="http://www.w3.org/1999/02/22-rdf-syntax-ns#">
   <cc:Work>
    <dc:type rdf:resource="http://purl.org/dc/dcmitype/StillImage"/>
    <dc:date>2023-07-18T15:48:07.575462</dc:date>
    <dc:format>image/svg+xml</dc:format>
    <dc:creator>
     <cc:Agent>
      <dc:title>Matplotlib v3.7.0, https://matplotlib.org/</dc:title>
     </cc:Agent>
    </dc:creator>
   </cc:Work>
  </rdf:RDF>
 </metadata>
 <defs>
  <style type="text/css">*{stroke-linejoin: round; stroke-linecap: butt}</style>
 </defs>
 <g id="figure_1">
  <g id="patch_1">
   <path d="M 0 653.068768 
L 898.98914 653.068768 
L 898.98914 0 
L 0 0 
z
" style="fill: #ffffff"/>
  </g>
  <g id="axes_1">
   <g id="patch_2">
    <path d="M 326.534328 7.2 
C 318.440723 7.2 310.350044 7.507701 302.279819 8.122438 
C 294.209594 8.737174 286.165656 9.6585 278.165434 10.884421 
L 281.886118 35.165189 
C 289.270938 34.03357 296.696112 33.183114 304.14555 32.615665 
C 311.594989 32.048217 319.063308 31.764185 326.534328 31.764185 
z
" style="fill: #f4f5f5; stroke: #ffffff; stroke-linejoin: miter"/>
   </g>
   <g id="patch_3">
    <path d="M 278.165434 10.884421 
C 237.723917 17.081511 198.847653 30.993384 163.656184 51.861559 
C 128.464716 72.729735 97.609431 100.167947 72.772567 132.680259 
C 47.935704 165.19257 29.576987 202.177184 18.697339 241.617689 
C 7.817692 281.058195 4.618493 322.224555 9.274165 362.872371 
C 13.929837 403.520187 26.354203 442.897074 45.869884 478.856195 
C 65.385565 514.815316 91.63133 546.691074 123.176253 572.745595 
C 154.721175 598.800116 190.981365 618.551135 229.979907 630.921822 
C 268.978449 643.29251 309.993488 648.053886 350.788874 644.94636 
C 391.584259 641.838833 431.404877 630.919924 468.079695 612.784934 
C 504.754514 594.649943 537.60469 569.634547 564.839224 539.10259 
C 592.073757 508.570634 613.188543 473.087258 627.032396 434.587025 
C 640.87625 396.086793 647.192924 355.282335 645.638033 314.398322 
C 644.083142 273.514309 634.685465 233.307496 617.957368 195.969969 
C 601.22927 158.632442 577.480386 124.85531 548.005509 96.480113 
C 518.530632 68.104916 483.875337 45.656872 445.92904 30.359854 
C 407.982743 15.062837 367.447823 7.19999 326.534253 7.2 
L 326.534259 31.764185 
C 364.300631 31.764176 401.71748 39.022188 436.744831 53.142511 
C 471.772182 67.262835 503.761685 87.984107 530.969264 114.176597 
C 558.176843 140.369086 580.09889 171.547977 595.540211 206.013387 
C 610.981532 240.478797 619.65631 277.592778 621.091594 315.331867 
C 622.526878 353.070955 616.696102 390.736609 603.91716 426.275285 
C 591.138219 461.813961 571.647647 494.567847 546.508078 522.751191 
C 521.368508 550.934536 491.045269 574.025671 457.19159 590.765662 
C 423.337911 607.505653 386.580418 617.584646 348.92314 620.453132 
C 311.265861 623.321618 273.405825 618.926501 237.40717 607.507405 
C 201.408516 596.088309 167.937572 577.856599 138.819182 553.806272 
C 109.700792 529.755945 85.473932 500.332168 67.459457 467.139134 
C 49.444982 433.946099 37.976336 397.598203 33.678793 360.077143 
C 29.38125 322.556082 32.334356 284.556364 42.377108 248.149744 
C 52.41986 211.743124 69.366367 177.60348 92.292703 147.592116 
C 115.219038 117.580751 143.70084 92.25317 176.185272 72.990239 
C 208.669705 53.727308 244.555487 40.88558 281.886118 35.165189 
z
" style="fill: #eb4f57; stroke: #ffffff; stroke-linejoin: miter"/>
   </g>
   <g id="patch_4">
    <path d="M 326.534328 31.764185 
C 317.550099 31.764185 308.570565 32.174927 299.623853 32.995125 
C 290.677142 33.815322 281.772604 35.044118 272.938131 36.677664 
L 277.404481 60.832392 
C 285.502747 59.334975 293.66524 58.208579 301.866393 57.456731 
C 310.067545 56.704883 318.298784 56.328369 326.534328 56.328369 
z
" style="fill: #f4f5f5; stroke: #ffffff; stroke-linejoin: miter"/>
   </g>
   <g id="patch_5">
    <path d="M 272.938131 36.677664 
C 235.98889 43.509793 200.684535 57.344441 168.930778 77.43482 
C 137.17702 97.525199 109.555678 123.503196 87.557735 153.966535 
C 65.559793 184.429873 49.588315 218.820378 40.505434 255.281668 
C 31.422552 291.742959 29.394691 329.606961 34.531313 366.829798 
C 39.667934 404.052634 51.874921 439.952278 70.493348 472.590884 
C 89.111774 505.229491 113.800498 534.00903 143.226834 557.375997 
C 172.653171 580.742964 206.277947 598.269211 242.286117 609.00868 
C 278.294286 619.748149 316.026076 623.504063 353.444747 620.073681 
C 390.863418 616.643298 427.283353 606.089472 460.738625 588.981893 
C 494.193896 571.874314 524.071509 548.526441 548.758686 520.19858 
C 573.445863 491.870718 592.490265 459.081915 604.863887 423.60209 
C 617.237508 388.122266 622.713629 350.601511 620.996651 313.065176 
C 619.279673 275.528841 610.401057 238.664698 594.840064 204.462652 
C 579.279071 170.260606 557.320824 139.347335 530.150617 113.391521 
C 502.980409 87.435708 471.096076 66.912935 436.218716 52.93101 
C 401.341356 38.949086 364.110021 31.764199 326.534438 31.764185 
L 326.534429 56.328369 
C 360.978713 56.328382 395.107437 62.914529 427.07835 75.731293 
C 459.049264 88.548057 488.276569 107.360599 513.182593 131.153428 
C 538.088616 154.946257 558.21701 183.283422 572.481253 214.635298 
C 586.745496 245.987173 594.884228 279.779305 596.458124 314.187612 
C 598.03202 348.595919 593.012243 382.989943 581.669757 415.513116 
C 570.32727 448.036288 552.869902 478.092692 530.239989 504.059898 
C 507.610077 530.027105 480.222265 551.429321 449.554933 567.111269 
C 418.887601 582.793216 385.50266 592.467556 351.202212 595.612074 
C 316.901764 598.756591 282.314289 595.31367 249.306801 585.469157 
C 216.299312 575.624643 185.476601 559.558917 158.502459 538.139197 
C 131.528317 516.719477 108.896987 490.338233 91.830096 460.419511 
C 74.763205 430.500788 63.573467 397.592782 58.864897 363.471848 
C 54.156327 329.350914 56.0152 294.642245 64.341175 261.219396 
C 72.66715 227.796546 87.307671 196.271917 107.472451 168.34719 
C 127.637232 140.422463 152.956796 116.609299 182.064407 98.193118 
C 211.172018 79.776937 243.534343 67.095177 277.404481 60.832392 
z
" style="fill: #eb4f57; stroke: #ffffff; stroke-linejoin: miter"/>
   </g>
   <g id="patch_6">
    <path d="M 326.534328 56.328369 
C 318.270474 56.328369 310.010968 56.707476 301.781861 57.464494 
C 293.552753 58.221512 285.362705 59.355644 277.237545 60.863313 
L 281.719071 85.01523 
C 289.10558 83.644622 296.551078 82.613592 304.032085 81.925394 
C 311.513092 81.237196 319.021733 80.892554 326.534328 80.892554 
z
" style="fill: #f4f5f5; stroke: #ffffff; stroke-linejoin: miter"/>
   </g>
   <g id="patch_7">
    <path d="M 277.237545 60.863313 
C 243.374854 67.146728 211.023664 79.846847 181.929919 98.278263 
C 152.836173 116.70968 127.532841 140.534748 107.385504 168.467667 
C 87.238167 196.400586 72.615904 227.929651 64.307857 261.353288 
C 55.999811 294.776924 54.158174 329.482844 58.882339 363.598023 
C 63.606504 397.713202 74.809928 430.612682 91.887979 460.52093 
C 108.966031 490.429178 131.605856 516.798304 158.58562 538.205207 
C 185.565383 559.61211 216.390842 575.664637 249.398394 585.496457 
C 282.405945 595.328277 316.990923 598.759281 351.286831 595.604303 
C 385.582738 592.449325 418.961307 582.766162 449.621147 567.077398 
C 480.280988 551.388634 507.660442 529.981673 530.281883 504.011814 
C 552.903325 478.041956 570.35235 447.984943 581.687262 415.462906 
C 593.022175 382.940868 598.03533 348.549579 596.456175 314.145082 
C 594.877021 279.740585 586.734486 245.953137 572.46801 214.606195 
C 558.201533 183.259252 538.072464 154.927061 513.167137 131.138664 
C 488.261809 107.350268 459.036465 88.541447 427.06835 75.727284 
C 395.100235 62.913121 360.974974 56.32836 326.534255 56.328369 
L 326.534262 80.892554 
C 357.844006 80.892545 388.866971 86.878692 417.928893 98.527931 
C 446.990816 110.17717 473.559311 127.276098 496.200518 148.901913 
C 518.841725 170.527728 537.140878 196.284266 550.110402 224.781486 
C 563.079926 253.278707 570.482231 283.994568 571.917826 315.271384 
C 573.35342 346.548199 568.796007 377.813008 558.491541 407.378496 
C 548.187075 436.943984 532.324325 464.268542 511.759378 487.877504 
C 491.194432 511.486466 466.304019 530.94734 438.431437 545.209853 
C 410.558854 559.472365 380.214701 568.275241 349.036603 571.143403 
C 317.858506 574.011564 286.417616 570.89247 256.410751 561.954451 
C 226.403886 553.016433 198.380742 538.423227 173.853684 518.962406 
C 149.326626 499.501586 128.744967 475.529653 113.219465 448.340336 
C 97.693964 421.15102 87.509033 391.242401 83.214338 360.228603 
C 78.919643 329.214804 80.593858 297.663968 88.146627 267.278843 
C 95.699397 236.893719 108.992363 208.230932 127.308124 182.83737 
C 145.623885 157.443807 168.626914 135.784654 195.075774 119.028821 
C 221.524634 102.272988 250.934807 90.727426 281.719071 85.01523 
z
" style="fill: #eb4f57; stroke: #ffffff; stroke-linejoin: miter"/>
   </g>
   <g id="patch_8">
    <path d="M 326.534328 80.892554 
C 318.815834 80.892554 311.101627 81.256347 303.417388 81.982721 
C 295.733149 82.709095 288.087415 83.797245 280.505637 85.243546 
L 285.108506 109.372631 
C 291.932106 108.07096 298.813267 107.091626 305.729082 106.437889 
C 312.644897 105.784152 319.587683 105.456738 326.534328 105.456738 
z
" style="fill: #f4f5f5; stroke: #ffffff; stroke-linejoin: miter"/>
   </g>
   <g id="patch_9">
    <path d="M 280.505637 85.243546 
C 249.77597 91.105543 220.447139 102.784315 194.099393 119.650605 
C 167.751647 136.516894 144.86685 158.262241 126.678043 183.714996 
C 108.489237 209.167751 95.329068 237.862419 87.906614 268.252921 
C 80.484159 298.643423 78.935164 330.173958 83.34309 361.145649 
C 87.751016 392.117339 98.035247 421.963757 113.641665 449.076763 
C 129.248083 476.18977 149.891269 500.073508 174.458959 519.44111 
C 199.026649 538.808713 227.069535 553.305975 257.076654 562.151777 
C 287.083774 570.997579 318.506339 574.030144 349.651288 571.086077 
C 380.796238 568.14201 411.093975 559.275153 438.912046 544.963256 
C 466.730116 530.651359 491.559766 511.156167 512.063164 487.528088 
C 532.566562 463.900009 548.368729 436.571168 558.618239 407.014054 
C 568.867749 377.456941 573.377151 346.212112 571.903479 314.963052 
C 570.429807 283.713993 563.000011 253.032204 550.014411 224.570833 
C 537.028811 196.109462 518.724897 170.389028 496.088889 148.795358 
C 473.452882 127.201687 446.898763 110.129699 417.857279 98.499238 
C 388.815794 86.868777 357.818073 80.892548 326.534285 80.892554 
L 326.534289 105.456738 
C 354.689699 105.456734 382.587648 110.835339 408.724984 121.302754 
C 434.862319 131.770169 458.761027 147.134959 479.133433 166.569262 
C 499.50584 186.003565 515.979363 209.151956 527.666403 234.76719 
C 539.353442 260.382424 546.040259 287.996034 547.366564 316.120187 
C 548.692869 344.244341 544.634406 372.364687 535.409848 398.966089 
C 526.185289 425.567491 511.963338 450.163448 493.51028 471.428719 
C 475.057222 492.69399 452.710537 510.239663 427.674274 523.12037 
C 402.638011 536.001077 375.370047 543.981249 347.339592 546.630909 
C 319.309138 549.28057 291.028829 546.551261 264.022422 538.590039 
C 237.016014 530.628817 211.777417 517.581282 189.666496 500.150439 
C 167.555575 482.719597 148.976708 461.224233 134.930931 436.822527 
C 120.885155 412.420821 111.629347 385.559045 107.662214 357.684524 
C 103.695081 329.810002 105.089176 301.432521 111.769385 274.081069 
C 118.449594 246.729617 130.293746 220.904416 146.663672 197.996936 
C 163.033598 175.089457 183.629915 155.518645 207.342887 140.338984 
C 231.055858 125.159324 257.451806 114.648429 285.108506 109.372631 
z
" style="fill: #eb4f57; stroke: #ffffff; stroke-linejoin: miter"/>
   </g>
   <g id="patch_10">
    <path d="M 326.534328 105.456738 
C 319.518191 105.456738 312.506029 105.790735 305.521656 106.457595 
C 298.537282 107.124455 291.588611 108.123422 284.69924 109.451103 
L 289.347583 133.571469 
C 295.471469 132.391308 301.648065 131.503338 307.856397 130.910573 
C 314.064729 130.317809 320.297762 130.020923 326.534328 130.020923 
z
" style="fill: #f4f5f5; stroke: #ffffff; stroke-linejoin: miter"/>
   </g>
   <g id="patch_11">
    <path d="M 284.69924 109.451103 
C 257.061135 114.777365 230.692779 125.333098 207.014038 140.549904 
C 183.335298 155.766709 162.778955 175.366466 146.451915 198.293779 
C 130.124874 221.221091 118.325549 247.056913 111.689303 274.41005 
C 105.053057 301.763188 103.701181 330.133704 107.70647 357.993918 
C 111.71176 385.854133 121.00101 412.69484 135.074017 437.070738 
C 149.147025 461.446635 167.746575 482.912199 189.871131 500.311565 
C 211.995687 517.710931 237.240873 530.726088 264.247302 538.656202 
C 291.253731 546.586316 319.5278 549.286448 347.547025 546.611202 
C 375.56625 543.935957 402.818518 535.93423 427.836364 523.036893 
C 452.85421 510.139557 475.180379 492.582338 493.612663 471.310649 
C 512.044948 450.038959 526.246458 425.441584 535.45248 398.84303 
C 544.658502 372.244476 548.700774 344.13089 547.361631 316.016114 
C 546.022489 287.901339 539.326407 260.299233 527.633953 234.6961 
C 515.941498 209.092967 499.466376 185.95676 479.09573 166.533303 
C 458.725084 147.109846 434.831231 131.754147 408.700794 121.293068 
C 382.570356 110.83199 354.680926 105.456732 326.534276 105.456738 
L 326.534282 130.020923 
C 351.553526 130.020917 376.344131 134.798924 399.571186 144.097661 
C 422.798241 153.396397 444.037222 167.045908 462.144463 184.311203 
C 480.251704 201.576498 494.896257 222.142015 505.28955 244.900356 
C 515.682843 267.658696 521.634915 292.193901 522.825264 317.184813 
C 524.015613 342.175724 520.422482 367.165579 512.239352 390.808738 
C 504.056222 414.451897 491.432657 436.31623 475.048404 455.224399 
C 458.664151 474.132568 438.818668 489.738984 416.580582 501.203283 
C 394.342497 512.667582 370.118259 519.780228 345.212281 522.158224 
C 320.306303 524.53622 295.173797 522.136103 271.168082 515.087113 
C 247.162368 508.038122 224.722202 496.469094 205.055931 481.002991 
C 185.389659 465.536888 168.856725 446.456387 156.347385 424.788922 
C 143.838045 403.121458 135.580934 379.263052 132.020677 354.498416 
C 128.460419 329.733781 129.662087 304.515545 135.560972 280.201645 
C 141.459858 255.887745 151.948147 232.92257 166.461072 212.542737 
C 180.973996 192.162903 199.246301 174.740897 220.29407 161.214848 
C 241.34184 147.688798 264.780379 138.305924 289.347583 133.571469 
z
" style="fill: #eb5159; stroke: #ffffff; stroke-linejoin: miter"/>
   </g>
   <g id="patch_12">
    <path d="M 326.534328 130.020923 
C 319.803567 130.020923 313.077249 130.366725 306.381973 131.056961 
C 299.686698 131.747197 293.031303 132.780956 286.442109 134.15415 
L 291.453637 158.201681 
C 297.219181 157.000136 303.042652 156.095597 308.901018 155.491641 
C 314.759384 154.887684 320.644912 154.585108 326.534328 154.585108 
z
" style="fill: #f4f5f5; stroke: #ffffff; stroke-linejoin: miter"/>
   </g>
   <g id="patch_13">
    <path d="M 286.442109 134.15415 
C 262.01007 139.245809 238.770144 148.945425 217.967614 162.733255 
C 197.165084 176.521085 179.178266 194.146382 164.970963 214.664717 
C 150.763661 235.183052 140.594248 258.221276 135.007641 282.544914 
C 129.421034 306.868551 128.518831 332.03525 132.349376 356.696484 
C 136.179921 381.357718 144.673551 405.064994 157.375146 426.547988 
C 170.07674 448.030982 186.755306 466.899001 206.517143 482.141026 
C 226.27898 497.383051 248.764697 508.721888 272.769425 515.54996 
C 296.774153 522.378032 321.861339 524.571163 346.686716 522.011836 
C 371.512094 519.452509 395.624186 512.187268 417.730976 500.605414 
C 439.837766 489.023559 459.537218 473.335719 475.773759 454.382508 
C 492.010301 435.429296 504.488654 413.555397 512.54018 389.932899 
C 520.591706 366.3104 524.069979 341.368902 522.788622 316.444864 
C 521.507264 291.520827 515.489577 267.067521 505.058013 244.395247 
C 494.626449 221.722974 479.970715 201.244053 461.876123 184.055823 
C 443.781531 166.867593 422.57715 153.28264 399.399191 144.028898 
C 376.221232 134.775156 351.491212 130.020914 326.534259 130.020923 
L 326.534267 154.585108 
C 348.371601 154.5851 370.010369 158.745062 390.291083 166.842086 
C 410.571797 174.93911 429.125631 186.825944 444.958399 201.865645 
C 460.791167 216.905346 473.614933 234.824402 482.742552 254.662642 
C 491.870171 274.500881 497.135647 295.897523 498.256835 317.706056 
C 499.378023 339.514589 496.334533 361.3384 489.289448 382.008086 
C 482.244363 402.677773 471.325804 421.817434 457.11883 438.401494 
C 442.911856 454.985554 425.674836 468.712415 406.331395 478.846537 
C 386.987954 488.98066 365.889873 495.337745 344.167668 497.577156 
C 322.445462 499.816567 300.494175 497.897578 279.490038 491.923015 
C 258.485901 485.948452 238.810899 476.026969 221.519291 462.690198 
C 204.227684 449.353426 189.633938 432.843909 178.520043 414.04629 
C 167.406149 395.24867 159.974222 374.504803 156.622495 352.926223 
C 153.270768 331.347644 154.060196 309.326782 158.948477 288.043599 
C 163.836758 266.760417 172.734994 246.601971 185.166384 228.648427 
C 197.597774 210.694884 213.336239 195.272749 231.538453 183.208398 
C 249.740667 171.144046 270.075602 162.656883 291.453637 158.201681 
z
" style="fill: #eb5159; stroke: #ffffff; stroke-linejoin: miter"/>
   </g>
   <g id="patch_14">
    <path d="M 326.534328 154.585108 
C 317.039493 154.585108 307.560951 155.371548 298.195949 156.936359 
C 288.830948 158.501171 279.611627 160.838983 270.632575 163.925811 
L 278.618539 187.15561 
C 286.31487 184.509757 294.217145 182.505918 302.244289 181.164651 
C 310.271433 179.823384 318.395898 179.149292 326.534328 179.149292 
z
" style="fill: #f4f5f5; stroke: #ffffff; stroke-linejoin: miter"/>
   </g>
   <g id="patch_15">
    <path d="M 270.632575 163.925811 
C 250.410947 170.877624 231.662378 181.540903 215.350758 195.367434 
C 199.039138 209.193965 185.448875 225.94267 175.278664 244.752474 
C 165.108453 263.562278 158.535622 284.105214 155.898087 305.325142 
C 153.260553 326.54507 154.604304 348.071999 159.860257 368.7992 
C 165.11621 389.526402 174.192721 409.092477 186.623156 426.491506 
C 199.05359 443.890536 214.621211 458.819151 232.525664 470.50985 
C 250.430118 482.20055 270.359223 490.449496 291.288397 494.832598 
C 312.217571 499.2157 333.781894 499.656536 354.872714 496.132439 
C 375.963533 492.608343 396.213111 485.180762 414.580387 474.231558 
C 432.947664 463.282354 449.112388 449.002437 462.24351 432.125957 
C 475.374631 415.249478 485.243196 396.070693 491.341848 375.575611 
C 497.440499 355.08053 499.662902 333.626503 497.894798 312.316511 
C 496.126694 291.00652 490.398913 270.212125 481.005928 251.002394 
C 471.612942 231.792664 458.718529 214.502538 442.985606 200.020927 
C 427.252684 185.539316 408.955571 174.118719 389.034948 166.346287 
C 369.114325 158.573854 347.917527 154.585106 326.534312 154.585108 
L 326.534314 179.149292 
C 344.862784 179.149291 363.031468 182.568218 380.106288 189.230303 
C 397.181107 195.892388 412.864347 205.68147 426.349709 218.09428 
C 439.835071 230.50709 450.887426 245.327198 458.938556 261.792681 
C 466.989687 278.258164 471.899213 296.081932 473.414731 314.347638 
C 474.930248 332.613345 473.025332 351.002511 467.797916 368.569724 
C 462.570501 386.136937 454.111731 402.575895 442.856484 417.041449 
C 431.601237 431.507003 417.745759 443.746932 402.002379 453.131964 
C 386.258999 462.516996 368.902218 468.883494 350.824373 471.904148 
C 332.746528 474.924802 314.262822 474.546943 296.32353 470.789998 
C 278.384238 467.033054 261.302148 459.962529 245.955473 449.941929 
C 230.608799 439.921329 217.265124 427.125373 206.610466 412.21192 
C 195.955808 397.298466 188.175941 380.527544 183.670839 362.761372 
C 179.165736 344.995199 178.013949 326.543545 180.274693 308.355036 
C 182.535437 290.166527 188.169293 272.558295 196.886616 256.435606 
C 205.60394 240.312917 217.252737 225.956884 231.234125 214.105572 
C 245.215514 202.254259 261.285716 193.114306 278.618539 187.15561 
z
" style="fill: #eb555c; stroke: #ffffff; stroke-linejoin: miter"/>
   </g>
   <g id="patch_16">
    <path d="M 326.534328 179.149292 
C 315.518301 179.149292 304.536919 180.384351 293.796098 182.831309 
C 283.055276 185.278268 272.622574 188.921735 262.693619 193.69339 
L 273.333737 215.833558 
C 281.607866 211.857179 290.301785 208.820956 299.252469 206.781824 
C 308.203154 204.742693 317.354305 203.713477 326.534328 203.713477 
z
" style="fill: #f4f5f5; stroke: #ffffff; stroke-linejoin: miter"/>
   </g>
   <g id="patch_17">
    <path d="M 262.693619 193.69339 
C 246.49998 201.475726 231.865014 212.15394 219.512131 225.200203 
C 207.159249 238.246467 197.295395 253.442219 190.408144 270.036328 
C 183.520893 286.630438 179.725625 304.344907 179.209942 322.304105 
C 178.694259 340.263302 181.466799 358.166361 187.390516 375.128326 
C 193.314233 392.090292 202.289887 407.827005 213.873808 421.560593 
C 225.45773 435.294182 239.455857 446.79457 255.176256 455.493291 
C 270.896656 464.192012 288.075967 469.943337 305.865012 472.462976 
C 323.654057 474.982616 341.754819 474.228358 359.272571 470.237488 
C 376.790324 466.246617 393.431595 459.085991 408.373803 449.109562 
C 423.31601 439.133133 436.308829 426.508034 446.710022 411.858327 
C 457.111214 397.208621 464.74653 380.77973 469.238553 363.383742 
C 473.730577 345.987753 475.004054 327.916097 472.996036 310.062062 
C 470.988018 292.208027 465.732146 274.870718 457.488218 258.907123 
C 449.24429 242.943529 438.150416 228.621084 424.754969 216.647751 
C 411.359521 204.674418 395.886913 195.250785 379.101959 188.842664 
C 362.317004 182.434543 344.5009 179.149289 326.5343 179.149292 
L 326.534305 203.713477 
C 341.506471 203.713474 356.353225 206.451186 370.340687 211.791287 
C 384.328149 217.131387 397.221989 224.984415 408.384862 234.962192 
C 419.547734 244.93997 428.79263 256.875341 435.66257 270.178336 
C 442.53251 283.481332 446.912403 297.929089 448.585751 312.807452 
C 450.259099 327.685814 449.197869 342.745527 445.454516 357.242185 
C 441.711163 371.738842 435.348399 385.429584 426.680739 397.637673 
C 418.013079 409.845761 407.18573 420.366677 394.73389 428.680368 
C 382.282051 436.994059 368.414324 442.961247 353.816197 446.286973 
C 339.21807 449.612699 324.134102 450.241246 309.309898 448.141547 
C 294.485694 446.041847 280.169601 441.249077 267.069268 434.000143 
C 253.968935 426.751209 242.30383 417.167551 232.650562 405.722894 
C 222.997293 394.278237 215.517582 381.16431 210.581151 367.029339 
C 205.644721 352.894367 203.33427 337.975152 203.764006 323.009154 
C 204.193742 308.043156 207.356465 293.281098 213.095841 279.452674 
C 218.835217 265.624249 227.055095 252.961122 237.349164 242.089236 
C 247.643233 231.21735 259.839038 222.318838 273.333737 215.833558 
z
" style="fill: #ec5860; stroke: #ffffff; stroke-linejoin: miter"/>
   </g>
   <g id="patch_18">
    <path d="M 326.534328 203.713477 
C 316.980098 203.713477 307.458417 204.828311 298.162595 207.035346 
C 288.866773 209.242381 279.860147 212.526579 271.325571 216.821263 
L 282.367322 238.763891 
C 289.194983 235.328143 296.400284 232.700785 303.836941 230.935157 
C 311.273599 229.169529 318.890944 228.277662 326.534328 228.277662 
z
" style="fill: #f4f5f5; stroke: #ffffff; stroke-linejoin: miter"/>
   </g>
   <g id="patch_19">
    <path d="M 271.325571 216.821263 
C 257.993267 223.530213 245.994842 232.613525 235.919717 243.624982 
C 225.844592 254.63644 217.860493 267.392729 212.359638 281.267199 
C 206.858783 295.14167 203.932747 309.903345 203.725272 324.827061 
C 203.517797 339.750777 206.032336 354.588089 211.145363 368.610118 
C 216.258391 382.632147 223.884787 395.605459 233.649906 406.892743 
C 243.415025 418.180027 255.156302 427.593378 268.296949 434.670365 
C 281.437595 441.747352 295.758852 446.370161 310.557189 448.311697 
C 325.355525 450.253234 340.384586 449.481176 354.906072 446.033451 
C 369.427557 442.585727 383.199719 436.519731 395.546002 428.133455 
C 407.892286 419.747179 418.607155 409.180234 427.164244 396.95172 
C 435.721334 384.723206 441.978189 371.036697 445.627441 356.564542 
C 449.276694 342.092386 450.257594 327.075509 448.521955 312.251613 
C 446.786315 297.427717 442.36303 283.043584 435.469393 269.80583 
C 428.575756 256.568077 419.32653 244.697081 408.176079 234.776003 
C 397.025629 224.854924 384.159584 217.048925 370.209986 211.741473 
C 356.260387 206.434022 341.459462 203.713474 326.534305 203.713477 
L 326.534309 228.277662 
C 338.474436 228.277659 350.315175 230.454097 361.474854 234.700059 
C 372.634533 238.94602 382.927369 245.190819 391.847729 253.127682 
C 400.768089 261.064545 408.167471 270.561342 413.68238 281.151544 
C 419.19729 291.741747 422.735918 303.249054 424.124429 315.108171 
C 425.512941 326.967287 424.728221 338.980789 421.808819 350.558513 
C 418.889416 362.136238 413.883933 373.085445 407.038261 382.868256 
C 400.19259 392.651067 391.620694 401.104623 381.743667 407.813644 
C 371.86664 414.522664 360.848911 419.375461 349.231723 422.133641 
C 337.614535 424.891821 325.591286 425.509467 313.752616 423.956238 
C 301.913947 422.403009 290.456942 418.704761 279.944425 413.043172 
C 269.431907 407.381582 260.038886 399.850902 252.22679 390.821075 
C 244.414695 381.791247 238.313578 371.412597 234.223156 360.194974 
C 230.132734 348.977352 228.121103 337.107501 228.287083 325.168529 
C 228.453063 313.229556 230.793892 301.420216 235.194576 290.32064 
C 239.59526 279.221063 245.982539 269.016032 254.042639 260.206866 
C 262.102739 251.3977 271.701479 244.131051 282.367322 238.763891 
z
" style="fill: #ec5860; stroke: #ffffff; stroke-linejoin: miter"/>
   </g>
   <g id="patch_20">
    <path d="M 326.534328 228.277662 
C 318.818672 228.277662 311.129801 229.186475 303.626764 230.985302 
C 296.123726 232.784129 288.858617 235.46048 281.981718 238.958995 
L 293.11987 260.852846 
C 298.277545 258.22896 303.726377 256.221697 309.353655 254.872576 
C 314.980933 253.523456 320.747586 252.841846 326.534328 252.841846 
z
" style="fill: #f4f5f5; stroke: #ffffff; stroke-linejoin: miter"/>
   </g>
   <g id="patch_21">
    <path d="M 281.981718 238.958995 
C 271.347674 244.368897 261.787375 251.670732 253.769767 260.506335 
C 245.752158 269.341939 239.410509 279.564443 235.055887 290.672422 
C 230.701264 301.780401 228.40605 313.589215 228.282829 325.519628 
C 228.159608 337.450041 230.210428 349.303742 234.334693 360.499294 
C 238.458958 371.694845 244.588114 382.046152 252.421518 391.045469 
C 260.254922 400.044787 269.662366 407.542526 280.182403 413.170915 
C 290.70244 418.799303 302.160203 422.464784 313.993676 423.987562 
C 325.827149 425.510339 337.839633 424.8651 349.441901 422.083496 
C 361.044168 419.301892 372.043364 414.430158 381.899964 407.707259 
C 391.756564 400.98436 400.306729 392.522045 407.131065 382.735402 
C 413.9554 372.948759 418.940469 362.000463 421.841748 350.427542 
C 424.743028 338.85462 425.512292 326.849441 424.111807 315.000872 
C 422.711322 303.152304 419.164367 291.657295 413.644925 281.079692 
C 408.125483 270.502088 400.725299 261.017713 391.807362 253.091785 
C 382.889425 245.165858 372.601969 238.930125 361.449608 234.690457 
C 350.297248 230.450789 338.465358 228.277659 326.534309 228.277662 
L 326.534314 252.841846 
C 335.482601 252.841844 344.356518 254.471692 352.720788 257.651443 
C 361.085059 260.831194 368.80065 265.507993 375.489103 271.452439 
C 382.177556 277.396885 387.727694 284.510166 391.867276 292.443369 
C 396.006857 300.376572 398.667073 308.997828 399.717437 317.884254 
C 400.767801 326.77068 400.190853 335.774565 398.014893 344.454256 
C 395.838934 353.133947 392.100132 361.345169 386.98188 368.685152 
C 381.863629 376.025134 375.451005 382.37187 368.058555 387.414044 
C 360.666105 392.456218 352.416708 396.110019 343.715007 398.196222 
C 335.013307 400.282425 326.003944 400.766354 317.128839 399.624271 
C 308.253734 398.482188 299.660412 395.733077 291.770384 391.511786 
C 283.880356 387.290495 276.824773 381.66719 270.94972 374.917702 
C 265.074667 368.168214 260.4778 360.404734 257.384602 352.00807 
C 254.291403 343.611407 252.753288 334.721131 252.845704 325.773321 
C 252.93812 316.825511 254.65953 307.968901 257.925497 299.637916 
C 261.191464 291.306932 265.9477 283.640054 271.960907 277.013352 
C 277.974113 270.386649 285.144337 264.910273 293.11987 260.852846 
z
" style="fill: #ec5860; stroke: #ffffff; stroke-linejoin: miter"/>
   </g>
   <g id="matplotlib.axis_1"/>
   <g id="matplotlib.axis_2"/>
   <g id="text_1">
    <!-- AUPRC_1 on generalized models -->
    <g transform="translate(190.572453 94.3392) scale(0.168 -0.168)">
     <defs>
      <path id="DejaVuSans-41" d="M 2188 4044 
L 1331 1722 
L 3047 1722 
L 2188 4044 
z
M 1831 4666 
L 2547 4666 
L 4325 0 
L 3669 0 
L 3244 1197 
L 1141 1197 
L 716 0 
L 50 0 
L 1831 4666 
z
" transform="scale(0.015625)"/>
      <path id="DejaVuSans-55" d="M 556 4666 
L 1191 4666 
L 1191 1831 
Q 1191 1081 1462 751 
Q 1734 422 2344 422 
Q 2950 422 3222 751 
Q 3494 1081 3494 1831 
L 3494 4666 
L 4128 4666 
L 4128 1753 
Q 4128 841 3676 375 
Q 3225 -91 2344 -91 
Q 1459 -91 1007 375 
Q 556 841 556 1753 
L 556 4666 
z
" transform="scale(0.015625)"/>
      <path id="DejaVuSans-50" d="M 1259 4147 
L 1259 2394 
L 2053 2394 
Q 2494 2394 2734 2622 
Q 2975 2850 2975 3272 
Q 2975 3691 2734 3919 
Q 2494 4147 2053 4147 
L 1259 4147 
z
M 628 4666 
L 2053 4666 
Q 2838 4666 3239 4311 
Q 3641 3956 3641 3272 
Q 3641 2581 3239 2228 
Q 2838 1875 2053 1875 
L 1259 1875 
L 1259 0 
L 628 0 
L 628 4666 
z
" transform="scale(0.015625)"/>
      <path id="DejaVuSans-52" d="M 2841 2188 
Q 3044 2119 3236 1894 
Q 3428 1669 3622 1275 
L 4263 0 
L 3584 0 
L 2988 1197 
Q 2756 1666 2539 1819 
Q 2322 1972 1947 1972 
L 1259 1972 
L 1259 0 
L 628 0 
L 628 4666 
L 2053 4666 
Q 2853 4666 3247 4331 
Q 3641 3997 3641 3322 
Q 3641 2881 3436 2590 
Q 3231 2300 2841 2188 
z
M 1259 4147 
L 1259 2491 
L 2053 2491 
Q 2509 2491 2742 2702 
Q 2975 2913 2975 3322 
Q 2975 3731 2742 3939 
Q 2509 4147 2053 4147 
L 1259 4147 
z
" transform="scale(0.015625)"/>
      <path id="DejaVuSans-43" d="M 4122 4306 
L 4122 3641 
Q 3803 3938 3442 4084 
Q 3081 4231 2675 4231 
Q 1875 4231 1450 3742 
Q 1025 3253 1025 2328 
Q 1025 1406 1450 917 
Q 1875 428 2675 428 
Q 3081 428 3442 575 
Q 3803 722 4122 1019 
L 4122 359 
Q 3791 134 3420 21 
Q 3050 -91 2638 -91 
Q 1578 -91 968 557 
Q 359 1206 359 2328 
Q 359 3453 968 4101 
Q 1578 4750 2638 4750 
Q 3056 4750 3426 4639 
Q 3797 4528 4122 4306 
z
" transform="scale(0.015625)"/>
      <path id="DejaVuSans-5f" d="M 3263 -1063 
L 3263 -1509 
L -63 -1509 
L -63 -1063 
L 3263 -1063 
z
" transform="scale(0.015625)"/>
      <path id="DejaVuSans-31" d="M 794 531 
L 1825 531 
L 1825 4091 
L 703 3866 
L 703 4441 
L 1819 4666 
L 2450 4666 
L 2450 531 
L 3481 531 
L 3481 0 
L 794 0 
L 794 531 
z
" transform="scale(0.015625)"/>
      <path id="DejaVuSans-20" transform="scale(0.015625)"/>
      <path id="DejaVuSans-6f" d="M 1959 3097 
Q 1497 3097 1228 2736 
Q 959 2375 959 1747 
Q 959 1119 1226 758 
Q 1494 397 1959 397 
Q 2419 397 2687 759 
Q 2956 1122 2956 1747 
Q 2956 2369 2687 2733 
Q 2419 3097 1959 3097 
z
M 1959 3584 
Q 2709 3584 3137 3096 
Q 3566 2609 3566 1747 
Q 3566 888 3137 398 
Q 2709 -91 1959 -91 
Q 1206 -91 779 398 
Q 353 888 353 1747 
Q 353 2609 779 3096 
Q 1206 3584 1959 3584 
z
" transform="scale(0.015625)"/>
      <path id="DejaVuSans-6e" d="M 3513 2113 
L 3513 0 
L 2938 0 
L 2938 2094 
Q 2938 2591 2744 2837 
Q 2550 3084 2163 3084 
Q 1697 3084 1428 2787 
Q 1159 2491 1159 1978 
L 1159 0 
L 581 0 
L 581 3500 
L 1159 3500 
L 1159 2956 
Q 1366 3272 1645 3428 
Q 1925 3584 2291 3584 
Q 2894 3584 3203 3211 
Q 3513 2838 3513 2113 
z
" transform="scale(0.015625)"/>
      <path id="DejaVuSans-67" d="M 2906 1791 
Q 2906 2416 2648 2759 
Q 2391 3103 1925 3103 
Q 1463 3103 1205 2759 
Q 947 2416 947 1791 
Q 947 1169 1205 825 
Q 1463 481 1925 481 
Q 2391 481 2648 825 
Q 2906 1169 2906 1791 
z
M 3481 434 
Q 3481 -459 3084 -895 
Q 2688 -1331 1869 -1331 
Q 1566 -1331 1297 -1286 
Q 1028 -1241 775 -1147 
L 775 -588 
Q 1028 -725 1275 -790 
Q 1522 -856 1778 -856 
Q 2344 -856 2625 -561 
Q 2906 -266 2906 331 
L 2906 616 
Q 2728 306 2450 153 
Q 2172 0 1784 0 
Q 1141 0 747 490 
Q 353 981 353 1791 
Q 353 2603 747 3093 
Q 1141 3584 1784 3584 
Q 2172 3584 2450 3431 
Q 2728 3278 2906 2969 
L 2906 3500 
L 3481 3500 
L 3481 434 
z
" transform="scale(0.015625)"/>
      <path id="DejaVuSans-65" d="M 3597 1894 
L 3597 1613 
L 953 1613 
Q 991 1019 1311 708 
Q 1631 397 2203 397 
Q 2534 397 2845 478 
Q 3156 559 3463 722 
L 3463 178 
Q 3153 47 2828 -22 
Q 2503 -91 2169 -91 
Q 1331 -91 842 396 
Q 353 884 353 1716 
Q 353 2575 817 3079 
Q 1281 3584 2069 3584 
Q 2775 3584 3186 3129 
Q 3597 2675 3597 1894 
z
M 3022 2063 
Q 3016 2534 2758 2815 
Q 2500 3097 2075 3097 
Q 1594 3097 1305 2825 
Q 1016 2553 972 2059 
L 3022 2063 
z
" transform="scale(0.015625)"/>
      <path id="DejaVuSans-72" d="M 2631 2963 
Q 2534 3019 2420 3045 
Q 2306 3072 2169 3072 
Q 1681 3072 1420 2755 
Q 1159 2438 1159 1844 
L 1159 0 
L 581 0 
L 581 3500 
L 1159 3500 
L 1159 2956 
Q 1341 3275 1631 3429 
Q 1922 3584 2338 3584 
Q 2397 3584 2469 3576 
Q 2541 3569 2628 3553 
L 2631 2963 
z
" transform="scale(0.015625)"/>
      <path id="DejaVuSans-61" d="M 2194 1759 
Q 1497 1759 1228 1600 
Q 959 1441 959 1056 
Q 959 750 1161 570 
Q 1363 391 1709 391 
Q 2188 391 2477 730 
Q 2766 1069 2766 1631 
L 2766 1759 
L 2194 1759 
z
M 3341 1997 
L 3341 0 
L 2766 0 
L 2766 531 
Q 2569 213 2275 61 
Q 1981 -91 1556 -91 
Q 1019 -91 701 211 
Q 384 513 384 1019 
Q 384 1609 779 1909 
Q 1175 2209 1959 2209 
L 2766 2209 
L 2766 2266 
Q 2766 2663 2505 2880 
Q 2244 3097 1772 3097 
Q 1472 3097 1187 3025 
Q 903 2953 641 2809 
L 641 3341 
Q 956 3463 1253 3523 
Q 1550 3584 1831 3584 
Q 2591 3584 2966 3190 
Q 3341 2797 3341 1997 
z
" transform="scale(0.015625)"/>
      <path id="DejaVuSans-6c" d="M 603 4863 
L 1178 4863 
L 1178 0 
L 603 0 
L 603 4863 
z
" transform="scale(0.015625)"/>
      <path id="DejaVuSans-69" d="M 603 3500 
L 1178 3500 
L 1178 0 
L 603 0 
L 603 3500 
z
M 603 4863 
L 1178 4863 
L 1178 4134 
L 603 4134 
L 603 4863 
z
" transform="scale(0.015625)"/>
      <path id="DejaVuSans-7a" d="M 353 3500 
L 3084 3500 
L 3084 2975 
L 922 459 
L 3084 459 
L 3084 0 
L 275 0 
L 275 525 
L 2438 3041 
L 353 3041 
L 353 3500 
z
" transform="scale(0.015625)"/>
      <path id="DejaVuSans-64" d="M 2906 2969 
L 2906 4863 
L 3481 4863 
L 3481 0 
L 2906 0 
L 2906 525 
Q 2725 213 2448 61 
Q 2172 -91 1784 -91 
Q 1150 -91 751 415 
Q 353 922 353 1747 
Q 353 2572 751 3078 
Q 1150 3584 1784 3584 
Q 2172 3584 2448 3432 
Q 2725 3281 2906 2969 
z
M 947 1747 
Q 947 1113 1208 752 
Q 1469 391 1925 391 
Q 2381 391 2643 752 
Q 2906 1113 2906 1747 
Q 2906 2381 2643 2742 
Q 2381 3103 1925 3103 
Q 1469 3103 1208 2742 
Q 947 2381 947 1747 
z
" transform="scale(0.015625)"/>
      <path id="DejaVuSans-6d" d="M 3328 2828 
Q 3544 3216 3844 3400 
Q 4144 3584 4550 3584 
Q 5097 3584 5394 3201 
Q 5691 2819 5691 2113 
L 5691 0 
L 5113 0 
L 5113 2094 
Q 5113 2597 4934 2840 
Q 4756 3084 4391 3084 
Q 3944 3084 3684 2787 
Q 3425 2491 3425 1978 
L 3425 0 
L 2847 0 
L 2847 2094 
Q 2847 2600 2669 2842 
Q 2491 3084 2119 3084 
Q 1678 3084 1418 2786 
Q 1159 2488 1159 1978 
L 1159 0 
L 581 0 
L 581 3500 
L 1159 3500 
L 1159 2956 
Q 1356 3278 1631 3431 
Q 1906 3584 2284 3584 
Q 2666 3584 2933 3390 
Q 3200 3197 3328 2828 
z
" transform="scale(0.015625)"/>
      <path id="DejaVuSans-73" d="M 2834 3397 
L 2834 2853 
Q 2591 2978 2328 3040 
Q 2066 3103 1784 3103 
Q 1356 3103 1142 2972 
Q 928 2841 928 2578 
Q 928 2378 1081 2264 
Q 1234 2150 1697 2047 
L 1894 2003 
Q 2506 1872 2764 1633 
Q 3022 1394 3022 966 
Q 3022 478 2636 193 
Q 2250 -91 1575 -91 
Q 1294 -91 989 -36 
Q 684 19 347 128 
L 347 722 
Q 666 556 975 473 
Q 1284 391 1588 391 
Q 1994 391 2212 530 
Q 2431 669 2431 922 
Q 2431 1156 2273 1281 
Q 2116 1406 1581 1522 
L 1381 1569 
Q 847 1681 609 1914 
Q 372 2147 372 2553 
Q 372 3047 722 3315 
Q 1072 3584 1716 3584 
Q 2034 3584 2315 3537 
Q 2597 3491 2834 3397 
z
" transform="scale(0.015625)"/>
     </defs>
     <use xlink:href="#DejaVuSans-41"/>
     <use xlink:href="#DejaVuSans-55" x="68.408203"/>
     <use xlink:href="#DejaVuSans-50" x="141.601562"/>
     <use xlink:href="#DejaVuSans-52" x="201.904297"/>
     <use xlink:href="#DejaVuSans-43" x="266.386719"/>
     <use xlink:href="#DejaVuSans-5f" x="336.210938"/>
     <use xlink:href="#DejaVuSans-31" x="386.210938"/>
     <use xlink:href="#DejaVuSans-20" x="449.833984"/>
     <use xlink:href="#DejaVuSans-6f" x="481.621094"/>
     <use xlink:href="#DejaVuSans-6e" x="542.802734"/>
     <use xlink:href="#DejaVuSans-20" x="606.181641"/>
     <use xlink:href="#DejaVuSans-67" x="637.96875"/>
     <use xlink:href="#DejaVuSans-65" x="701.445312"/>
     <use xlink:href="#DejaVuSans-6e" x="762.96875"/>
     <use xlink:href="#DejaVuSans-65" x="826.347656"/>
     <use xlink:href="#DejaVuSans-72" x="887.871094"/>
     <use xlink:href="#DejaVuSans-61" x="928.984375"/>
     <use xlink:href="#DejaVuSans-6c" x="990.263672"/>
     <use xlink:href="#DejaVuSans-69" x="1018.046875"/>
     <use xlink:href="#DejaVuSans-7a" x="1045.830078"/>
     <use xlink:href="#DejaVuSans-65" x="1098.320312"/>
     <use xlink:href="#DejaVuSans-64" x="1159.84375"/>
     <use xlink:href="#DejaVuSans-20" x="1223.320312"/>
     <use xlink:href="#DejaVuSans-6d" x="1255.107422"/>
     <use xlink:href="#DejaVuSans-6f" x="1352.519531"/>
     <use xlink:href="#DejaVuSans-64" x="1413.701172"/>
     <use xlink:href="#DejaVuSans-65" x="1477.177734"/>
     <use xlink:href="#DejaVuSans-6c" x="1538.701172"/>
     <use xlink:href="#DejaVuSans-73" x="1566.484375"/>
    </g>
   </g>
   <g id="legend_1">
    <g id="patch_22">
     <path d="M 595.446328 326.5344 
L 888.98914 326.5344 
Q 891.78914 326.5344 891.78914 323.7344 
L 891.78914 97.1444 
Q 891.78914 94.3444 888.98914 94.3444 
L 595.446328 94.3444 
Q 592.646328 94.3444 592.646328 97.1444 
L 592.646328 323.7344 
Q 592.646328 326.5344 595.446328 326.5344 
z
" style="fill: #ffffff; opacity: 0.8; stroke: #cccccc; stroke-linejoin: miter"/>
    </g>
    <g id="text_2">
     <!-- Models -->
     <g transform="translate(717.552578 110.582213) scale(0.14 -0.14)">
      <defs>
       <path id="DejaVuSans-4d" d="M 628 4666 
L 1569 4666 
L 2759 1491 
L 3956 4666 
L 4897 4666 
L 4897 0 
L 4281 0 
L 4281 4097 
L 3078 897 
L 2444 897 
L 1241 4097 
L 1241 0 
L 628 0 
L 628 4666 
z
" transform="scale(0.015625)"/>
      </defs>
      <use xlink:href="#DejaVuSans-4d"/>
      <use xlink:href="#DejaVuSans-6f" x="86.279297"/>
      <use xlink:href="#DejaVuSans-64" x="147.460938"/>
      <use xlink:href="#DejaVuSans-65" x="210.9375"/>
      <use xlink:href="#DejaVuSans-6c" x="272.460938"/>
      <use xlink:href="#DejaVuSans-73" x="300.244141"/>
     </g>
    </g>
    <g id="patch_23">
     <path d="M 598.246328 131.131588 
L 626.246328 131.131588 
L 626.246328 121.331588 
L 598.246328 121.331588 
z
" style="fill: #eb4f57; stroke: #ffffff; stroke-linejoin: miter"/>
    </g>
    <g id="text_3">
     <!-- xgboost (97.58%) -->
     <g transform="translate(637.446328 131.131588) scale(0.14 -0.14)">
      <defs>
       <path id="DejaVuSans-78" d="M 3513 3500 
L 2247 1797 
L 3578 0 
L 2900 0 
L 1881 1375 
L 863 0 
L 184 0 
L 1544 1831 
L 300 3500 
L 978 3500 
L 1906 2253 
L 2834 3500 
L 3513 3500 
z
" transform="scale(0.015625)"/>
       <path id="DejaVuSans-62" d="M 3116 1747 
Q 3116 2381 2855 2742 
Q 2594 3103 2138 3103 
Q 1681 3103 1420 2742 
Q 1159 2381 1159 1747 
Q 1159 1113 1420 752 
Q 1681 391 2138 391 
Q 2594 391 2855 752 
Q 3116 1113 3116 1747 
z
M 1159 2969 
Q 1341 3281 1617 3432 
Q 1894 3584 2278 3584 
Q 2916 3584 3314 3078 
Q 3713 2572 3713 1747 
Q 3713 922 3314 415 
Q 2916 -91 2278 -91 
Q 1894 -91 1617 61 
Q 1341 213 1159 525 
L 1159 0 
L 581 0 
L 581 4863 
L 1159 4863 
L 1159 2969 
z
" transform="scale(0.015625)"/>
       <path id="DejaVuSans-74" d="M 1172 4494 
L 1172 3500 
L 2356 3500 
L 2356 3053 
L 1172 3053 
L 1172 1153 
Q 1172 725 1289 603 
Q 1406 481 1766 481 
L 2356 481 
L 2356 0 
L 1766 0 
Q 1100 0 847 248 
Q 594 497 594 1153 
L 594 3053 
L 172 3053 
L 172 3500 
L 594 3500 
L 594 4494 
L 1172 4494 
z
" transform="scale(0.015625)"/>
       <path id="DejaVuSans-28" d="M 1984 4856 
Q 1566 4138 1362 3434 
Q 1159 2731 1159 2009 
Q 1159 1288 1364 580 
Q 1569 -128 1984 -844 
L 1484 -844 
Q 1016 -109 783 600 
Q 550 1309 550 2009 
Q 550 2706 781 3412 
Q 1013 4119 1484 4856 
L 1984 4856 
z
" transform="scale(0.015625)"/>
       <path id="DejaVuSans-39" d="M 703 97 
L 703 672 
Q 941 559 1184 500 
Q 1428 441 1663 441 
Q 2288 441 2617 861 
Q 2947 1281 2994 2138 
Q 2813 1869 2534 1725 
Q 2256 1581 1919 1581 
Q 1219 1581 811 2004 
Q 403 2428 403 3163 
Q 403 3881 828 4315 
Q 1253 4750 1959 4750 
Q 2769 4750 3195 4129 
Q 3622 3509 3622 2328 
Q 3622 1225 3098 567 
Q 2575 -91 1691 -91 
Q 1453 -91 1209 -44 
Q 966 3 703 97 
z
M 1959 2075 
Q 2384 2075 2632 2365 
Q 2881 2656 2881 3163 
Q 2881 3666 2632 3958 
Q 2384 4250 1959 4250 
Q 1534 4250 1286 3958 
Q 1038 3666 1038 3163 
Q 1038 2656 1286 2365 
Q 1534 2075 1959 2075 
z
" transform="scale(0.015625)"/>
       <path id="DejaVuSans-37" d="M 525 4666 
L 3525 4666 
L 3525 4397 
L 1831 0 
L 1172 0 
L 2766 4134 
L 525 4134 
L 525 4666 
z
" transform="scale(0.015625)"/>
       <path id="DejaVuSans-2e" d="M 684 794 
L 1344 794 
L 1344 0 
L 684 0 
L 684 794 
z
" transform="scale(0.015625)"/>
       <path id="DejaVuSans-35" d="M 691 4666 
L 3169 4666 
L 3169 4134 
L 1269 4134 
L 1269 2991 
Q 1406 3038 1543 3061 
Q 1681 3084 1819 3084 
Q 2600 3084 3056 2656 
Q 3513 2228 3513 1497 
Q 3513 744 3044 326 
Q 2575 -91 1722 -91 
Q 1428 -91 1123 -41 
Q 819 9 494 109 
L 494 744 
Q 775 591 1075 516 
Q 1375 441 1709 441 
Q 2250 441 2565 725 
Q 2881 1009 2881 1497 
Q 2881 1984 2565 2268 
Q 2250 2553 1709 2553 
Q 1456 2553 1204 2497 
Q 953 2441 691 2322 
L 691 4666 
z
" transform="scale(0.015625)"/>
       <path id="DejaVuSans-38" d="M 2034 2216 
Q 1584 2216 1326 1975 
Q 1069 1734 1069 1313 
Q 1069 891 1326 650 
Q 1584 409 2034 409 
Q 2484 409 2743 651 
Q 3003 894 3003 1313 
Q 3003 1734 2745 1975 
Q 2488 2216 2034 2216 
z
M 1403 2484 
Q 997 2584 770 2862 
Q 544 3141 544 3541 
Q 544 4100 942 4425 
Q 1341 4750 2034 4750 
Q 2731 4750 3128 4425 
Q 3525 4100 3525 3541 
Q 3525 3141 3298 2862 
Q 3072 2584 2669 2484 
Q 3125 2378 3379 2068 
Q 3634 1759 3634 1313 
Q 3634 634 3220 271 
Q 2806 -91 2034 -91 
Q 1263 -91 848 271 
Q 434 634 434 1313 
Q 434 1759 690 2068 
Q 947 2378 1403 2484 
z
M 1172 3481 
Q 1172 3119 1398 2916 
Q 1625 2713 2034 2713 
Q 2441 2713 2670 2916 
Q 2900 3119 2900 3481 
Q 2900 3844 2670 4047 
Q 2441 4250 2034 4250 
Q 1625 4250 1398 4047 
Q 1172 3844 1172 3481 
z
" transform="scale(0.015625)"/>
       <path id="DejaVuSans-25" d="M 4653 2053 
Q 4381 2053 4226 1822 
Q 4072 1591 4072 1178 
Q 4072 772 4226 539 
Q 4381 306 4653 306 
Q 4919 306 5073 539 
Q 5228 772 5228 1178 
Q 5228 1588 5073 1820 
Q 4919 2053 4653 2053 
z
M 4653 2450 
Q 5147 2450 5437 2106 
Q 5728 1763 5728 1178 
Q 5728 594 5436 251 
Q 5144 -91 4653 -91 
Q 4153 -91 3862 251 
Q 3572 594 3572 1178 
Q 3572 1766 3864 2108 
Q 4156 2450 4653 2450 
z
M 1428 4353 
Q 1159 4353 1004 4120 
Q 850 3888 850 3481 
Q 850 3069 1003 2837 
Q 1156 2606 1428 2606 
Q 1700 2606 1854 2837 
Q 2009 3069 2009 3481 
Q 2009 3884 1853 4118 
Q 1697 4353 1428 4353 
z
M 4250 4750 
L 4750 4750 
L 1831 -91 
L 1331 -91 
L 4250 4750 
z
M 1428 4750 
Q 1922 4750 2215 4408 
Q 2509 4066 2509 3481 
Q 2509 2891 2217 2550 
Q 1925 2209 1428 2209 
Q 931 2209 642 2551 
Q 353 2894 353 3481 
Q 353 4063 643 4406 
Q 934 4750 1428 4750 
z
" transform="scale(0.015625)"/>
       <path id="DejaVuSans-29" d="M 513 4856 
L 1013 4856 
Q 1481 4119 1714 3412 
Q 1947 2706 1947 2009 
Q 1947 1309 1714 600 
Q 1481 -109 1013 -844 
L 513 -844 
Q 928 -128 1133 580 
Q 1338 1288 1338 2009 
Q 1338 2731 1133 3434 
Q 928 4138 513 4856 
z
" transform="scale(0.015625)"/>
      </defs>
      <use xlink:href="#DejaVuSans-78"/>
      <use xlink:href="#DejaVuSans-67" x="59.179688"/>
      <use xlink:href="#DejaVuSans-62" x="122.65625"/>
      <use xlink:href="#DejaVuSans-6f" x="186.132812"/>
      <use xlink:href="#DejaVuSans-6f" x="247.314453"/>
      <use xlink:href="#DejaVuSans-73" x="308.496094"/>
      <use xlink:href="#DejaVuSans-74" x="360.595703"/>
      <use xlink:href="#DejaVuSans-20" x="399.804688"/>
      <use xlink:href="#DejaVuSans-28" x="431.591797"/>
      <use xlink:href="#DejaVuSans-39" x="470.605469"/>
      <use xlink:href="#DejaVuSans-37" x="534.228516"/>
      <use xlink:href="#DejaVuSans-2e" x="597.851562"/>
      <use xlink:href="#DejaVuSans-35" x="629.638672"/>
      <use xlink:href="#DejaVuSans-38" x="693.261719"/>
      <use xlink:href="#DejaVuSans-25" x="756.884766"/>
      <use xlink:href="#DejaVuSans-29" x="851.904297"/>
     </g>
    </g>
    <g id="patch_24">
     <path d="M 598.246328 151.680963 
L 626.246328 151.680963 
L 626.246328 141.880963 
L 598.246328 141.880963 
z
" style="fill: #eb4f57; stroke: #ffffff; stroke-linejoin: miter"/>
    </g>
    <g id="text_4">
     <!-- random_forest (97.09%) -->
     <g transform="translate(637.446328 151.680963) scale(0.14 -0.14)">
      <defs>
       <path id="DejaVuSans-66" d="M 2375 4863 
L 2375 4384 
L 1825 4384 
Q 1516 4384 1395 4259 
Q 1275 4134 1275 3809 
L 1275 3500 
L 2222 3500 
L 2222 3053 
L 1275 3053 
L 1275 0 
L 697 0 
L 697 3053 
L 147 3053 
L 147 3500 
L 697 3500 
L 697 3744 
Q 697 4328 969 4595 
Q 1241 4863 1831 4863 
L 2375 4863 
z
" transform="scale(0.015625)"/>
       <path id="DejaVuSans-30" d="M 2034 4250 
Q 1547 4250 1301 3770 
Q 1056 3291 1056 2328 
Q 1056 1369 1301 889 
Q 1547 409 2034 409 
Q 2525 409 2770 889 
Q 3016 1369 3016 2328 
Q 3016 3291 2770 3770 
Q 2525 4250 2034 4250 
z
M 2034 4750 
Q 2819 4750 3233 4129 
Q 3647 3509 3647 2328 
Q 3647 1150 3233 529 
Q 2819 -91 2034 -91 
Q 1250 -91 836 529 
Q 422 1150 422 2328 
Q 422 3509 836 4129 
Q 1250 4750 2034 4750 
z
" transform="scale(0.015625)"/>
      </defs>
      <use xlink:href="#DejaVuSans-72"/>
      <use xlink:href="#DejaVuSans-61" x="41.113281"/>
      <use xlink:href="#DejaVuSans-6e" x="102.392578"/>
      <use xlink:href="#DejaVuSans-64" x="165.771484"/>
      <use xlink:href="#DejaVuSans-6f" x="229.248047"/>
      <use xlink:href="#DejaVuSans-6d" x="290.429688"/>
      <use xlink:href="#DejaVuSans-5f" x="387.841797"/>
      <use xlink:href="#DejaVuSans-66" x="437.841797"/>
      <use xlink:href="#DejaVuSans-6f" x="473.046875"/>
      <use xlink:href="#DejaVuSans-72" x="534.228516"/>
      <use xlink:href="#DejaVuSans-65" x="573.091797"/>
      <use xlink:href="#DejaVuSans-73" x="634.615234"/>
      <use xlink:href="#DejaVuSans-74" x="686.714844"/>
      <use xlink:href="#DejaVuSans-20" x="725.923828"/>
      <use xlink:href="#DejaVuSans-28" x="757.710938"/>
      <use xlink:href="#DejaVuSans-39" x="796.724609"/>
      <use xlink:href="#DejaVuSans-37" x="860.347656"/>
      <use xlink:href="#DejaVuSans-2e" x="923.970703"/>
      <use xlink:href="#DejaVuSans-30" x="955.757812"/>
      <use xlink:href="#DejaVuSans-39" x="1019.380859"/>
      <use xlink:href="#DejaVuSans-25" x="1083.003906"/>
      <use xlink:href="#DejaVuSans-29" x="1178.023438"/>
     </g>
    </g>
    <g id="patch_25">
     <path d="M 598.246328 172.619713 
L 626.246328 172.619713 
L 626.246328 162.819713 
L 598.246328 162.819713 
z
" style="fill: #eb4f57; stroke: #ffffff; stroke-linejoin: miter"/>
    </g>
    <g id="text_5">
     <!-- neural_network (97.08%) -->
     <g transform="translate(637.446328 172.619713) scale(0.14 -0.14)">
      <defs>
       <path id="DejaVuSans-75" d="M 544 1381 
L 544 3500 
L 1119 3500 
L 1119 1403 
Q 1119 906 1312 657 
Q 1506 409 1894 409 
Q 2359 409 2629 706 
Q 2900 1003 2900 1516 
L 2900 3500 
L 3475 3500 
L 3475 0 
L 2900 0 
L 2900 538 
Q 2691 219 2414 64 
Q 2138 -91 1772 -91 
Q 1169 -91 856 284 
Q 544 659 544 1381 
z
M 1991 3584 
L 1991 3584 
z
" transform="scale(0.015625)"/>
       <path id="DejaVuSans-77" d="M 269 3500 
L 844 3500 
L 1563 769 
L 2278 3500 
L 2956 3500 
L 3675 769 
L 4391 3500 
L 4966 3500 
L 4050 0 
L 3372 0 
L 2619 2869 
L 1863 0 
L 1184 0 
L 269 3500 
z
" transform="scale(0.015625)"/>
       <path id="DejaVuSans-6b" d="M 581 4863 
L 1159 4863 
L 1159 1991 
L 2875 3500 
L 3609 3500 
L 1753 1863 
L 3688 0 
L 2938 0 
L 1159 1709 
L 1159 0 
L 581 0 
L 581 4863 
z
" transform="scale(0.015625)"/>
      </defs>
      <use xlink:href="#DejaVuSans-6e"/>
      <use xlink:href="#DejaVuSans-65" x="63.378906"/>
      <use xlink:href="#DejaVuSans-75" x="124.902344"/>
      <use xlink:href="#DejaVuSans-72" x="188.28125"/>
      <use xlink:href="#DejaVuSans-61" x="229.394531"/>
      <use xlink:href="#DejaVuSans-6c" x="290.673828"/>
      <use xlink:href="#DejaVuSans-5f" x="318.457031"/>
      <use xlink:href="#DejaVuSans-6e" x="368.457031"/>
      <use xlink:href="#DejaVuSans-65" x="431.835938"/>
      <use xlink:href="#DejaVuSans-74" x="493.359375"/>
      <use xlink:href="#DejaVuSans-77" x="532.568359"/>
      <use xlink:href="#DejaVuSans-6f" x="614.355469"/>
      <use xlink:href="#DejaVuSans-72" x="675.537109"/>
      <use xlink:href="#DejaVuSans-6b" x="716.650391"/>
      <use xlink:href="#DejaVuSans-20" x="774.560547"/>
      <use xlink:href="#DejaVuSans-28" x="806.347656"/>
      <use xlink:href="#DejaVuSans-39" x="845.361328"/>
      <use xlink:href="#DejaVuSans-37" x="908.984375"/>
      <use xlink:href="#DejaVuSans-2e" x="972.607422"/>
      <use xlink:href="#DejaVuSans-30" x="1004.394531"/>
      <use xlink:href="#DejaVuSans-38" x="1068.017578"/>
      <use xlink:href="#DejaVuSans-25" x="1131.640625"/>
      <use xlink:href="#DejaVuSans-29" x="1226.660156"/>
     </g>
    </g>
    <g id="patch_26">
     <path d="M 598.246328 193.558463 
L 626.246328 193.558463 
L 626.246328 183.758463 
L 598.246328 183.758463 
z
" style="fill: #eb4f57; stroke: #ffffff; stroke-linejoin: miter"/>
    </g>
    <g id="text_6">
     <!-- logistic_regression (97.0%) -->
     <g transform="translate(637.446328 193.558463) scale(0.14 -0.14)">
      <defs>
       <path id="DejaVuSans-63" d="M 3122 3366 
L 3122 2828 
Q 2878 2963 2633 3030 
Q 2388 3097 2138 3097 
Q 1578 3097 1268 2742 
Q 959 2388 959 1747 
Q 959 1106 1268 751 
Q 1578 397 2138 397 
Q 2388 397 2633 464 
Q 2878 531 3122 666 
L 3122 134 
Q 2881 22 2623 -34 
Q 2366 -91 2075 -91 
Q 1284 -91 818 406 
Q 353 903 353 1747 
Q 353 2603 823 3093 
Q 1294 3584 2113 3584 
Q 2378 3584 2631 3529 
Q 2884 3475 3122 3366 
z
" transform="scale(0.015625)"/>
      </defs>
      <use xlink:href="#DejaVuSans-6c"/>
      <use xlink:href="#DejaVuSans-6f" x="27.783203"/>
      <use xlink:href="#DejaVuSans-67" x="88.964844"/>
      <use xlink:href="#DejaVuSans-69" x="152.441406"/>
      <use xlink:href="#DejaVuSans-73" x="180.224609"/>
      <use xlink:href="#DejaVuSans-74" x="232.324219"/>
      <use xlink:href="#DejaVuSans-69" x="271.533203"/>
      <use xlink:href="#DejaVuSans-63" x="299.316406"/>
      <use xlink:href="#DejaVuSans-5f" x="354.296875"/>
      <use xlink:href="#DejaVuSans-72" x="404.296875"/>
      <use xlink:href="#DejaVuSans-65" x="443.160156"/>
      <use xlink:href="#DejaVuSans-67" x="504.683594"/>
      <use xlink:href="#DejaVuSans-72" x="568.160156"/>
      <use xlink:href="#DejaVuSans-65" x="607.023438"/>
      <use xlink:href="#DejaVuSans-73" x="668.546875"/>
      <use xlink:href="#DejaVuSans-73" x="720.646484"/>
      <use xlink:href="#DejaVuSans-69" x="772.746094"/>
      <use xlink:href="#DejaVuSans-6f" x="800.529297"/>
      <use xlink:href="#DejaVuSans-6e" x="861.710938"/>
      <use xlink:href="#DejaVuSans-20" x="925.089844"/>
      <use xlink:href="#DejaVuSans-28" x="956.876953"/>
      <use xlink:href="#DejaVuSans-39" x="995.890625"/>
      <use xlink:href="#DejaVuSans-37" x="1059.513672"/>
      <use xlink:href="#DejaVuSans-2e" x="1123.136719"/>
      <use xlink:href="#DejaVuSans-30" x="1154.923828"/>
      <use xlink:href="#DejaVuSans-25" x="1218.546875"/>
      <use xlink:href="#DejaVuSans-29" x="1313.566406"/>
     </g>
    </g>
    <g id="patch_27">
     <path d="M 598.246328 214.497213 
L 626.246328 214.497213 
L 626.246328 204.697213 
L 598.246328 204.697213 
z
" style="fill: #eb5159; stroke: #ffffff; stroke-linejoin: miter"/>
    </g>
    <g id="text_7">
     <!-- svm (96.97%) -->
     <g transform="translate(637.446328 214.497213) scale(0.14 -0.14)">
      <defs>
       <path id="DejaVuSans-76" d="M 191 3500 
L 800 3500 
L 1894 563 
L 2988 3500 
L 3597 3500 
L 2284 0 
L 1503 0 
L 191 3500 
z
" transform="scale(0.015625)"/>
       <path id="DejaVuSans-36" d="M 2113 2584 
Q 1688 2584 1439 2293 
Q 1191 2003 1191 1497 
Q 1191 994 1439 701 
Q 1688 409 2113 409 
Q 2538 409 2786 701 
Q 3034 994 3034 1497 
Q 3034 2003 2786 2293 
Q 2538 2584 2113 2584 
z
M 3366 4563 
L 3366 3988 
Q 3128 4100 2886 4159 
Q 2644 4219 2406 4219 
Q 1781 4219 1451 3797 
Q 1122 3375 1075 2522 
Q 1259 2794 1537 2939 
Q 1816 3084 2150 3084 
Q 2853 3084 3261 2657 
Q 3669 2231 3669 1497 
Q 3669 778 3244 343 
Q 2819 -91 2113 -91 
Q 1303 -91 875 529 
Q 447 1150 447 2328 
Q 447 3434 972 4092 
Q 1497 4750 2381 4750 
Q 2619 4750 2861 4703 
Q 3103 4656 3366 4563 
z
" transform="scale(0.015625)"/>
      </defs>
      <use xlink:href="#DejaVuSans-73"/>
      <use xlink:href="#DejaVuSans-76" x="52.099609"/>
      <use xlink:href="#DejaVuSans-6d" x="111.279297"/>
      <use xlink:href="#DejaVuSans-20" x="208.691406"/>
      <use xlink:href="#DejaVuSans-28" x="240.478516"/>
      <use xlink:href="#DejaVuSans-39" x="279.492188"/>
      <use xlink:href="#DejaVuSans-36" x="343.115234"/>
      <use xlink:href="#DejaVuSans-2e" x="406.738281"/>
      <use xlink:href="#DejaVuSans-39" x="438.525391"/>
      <use xlink:href="#DejaVuSans-37" x="502.148438"/>
      <use xlink:href="#DejaVuSans-25" x="565.771484"/>
      <use xlink:href="#DejaVuSans-29" x="660.791016"/>
     </g>
    </g>
    <g id="patch_28">
     <path d="M 598.246328 235.046588 
L 626.246328 235.046588 
L 626.246328 225.246588 
L 598.246328 225.246588 
z
" style="fill: #eb5159; stroke: #ffffff; stroke-linejoin: miter"/>
    </g>
    <g id="text_8">
     <!-- crf (96.73%) -->
     <g transform="translate(637.446328 235.046588) scale(0.14 -0.14)">
      <defs>
       <path id="DejaVuSans-33" d="M 2597 2516 
Q 3050 2419 3304 2112 
Q 3559 1806 3559 1356 
Q 3559 666 3084 287 
Q 2609 -91 1734 -91 
Q 1441 -91 1130 -33 
Q 819 25 488 141 
L 488 750 
Q 750 597 1062 519 
Q 1375 441 1716 441 
Q 2309 441 2620 675 
Q 2931 909 2931 1356 
Q 2931 1769 2642 2001 
Q 2353 2234 1838 2234 
L 1294 2234 
L 1294 2753 
L 1863 2753 
Q 2328 2753 2575 2939 
Q 2822 3125 2822 3475 
Q 2822 3834 2567 4026 
Q 2313 4219 1838 4219 
Q 1578 4219 1281 4162 
Q 984 4106 628 3988 
L 628 4550 
Q 988 4650 1302 4700 
Q 1616 4750 1894 4750 
Q 2613 4750 3031 4423 
Q 3450 4097 3450 3541 
Q 3450 3153 3228 2886 
Q 3006 2619 2597 2516 
z
" transform="scale(0.015625)"/>
      </defs>
      <use xlink:href="#DejaVuSans-63"/>
      <use xlink:href="#DejaVuSans-72" x="54.980469"/>
      <use xlink:href="#DejaVuSans-66" x="96.09375"/>
      <use xlink:href="#DejaVuSans-20" x="131.298828"/>
      <use xlink:href="#DejaVuSans-28" x="163.085938"/>
      <use xlink:href="#DejaVuSans-39" x="202.099609"/>
      <use xlink:href="#DejaVuSans-36" x="265.722656"/>
      <use xlink:href="#DejaVuSans-2e" x="329.345703"/>
      <use xlink:href="#DejaVuSans-37" x="361.132812"/>
      <use xlink:href="#DejaVuSans-33" x="424.755859"/>
      <use xlink:href="#DejaVuSans-25" x="488.378906"/>
      <use xlink:href="#DejaVuSans-29" x="583.398438"/>
     </g>
    </g>
    <g id="patch_29">
     <path d="M 598.246328 255.595963 
L 626.246328 255.595963 
L 626.246328 245.795963 
L 598.246328 245.795963 
z
" style="fill: #eb555c; stroke: #ffffff; stroke-linejoin: miter"/>
    </g>
    <g id="text_9">
     <!-- recurrent_neural_network (94.73%) -->
     <g transform="translate(637.446328 255.595963) scale(0.14 -0.14)">
      <defs>
       <path id="DejaVuSans-34" d="M 2419 4116 
L 825 1625 
L 2419 1625 
L 2419 4116 
z
M 2253 4666 
L 3047 4666 
L 3047 1625 
L 3713 1625 
L 3713 1100 
L 3047 1100 
L 3047 0 
L 2419 0 
L 2419 1100 
L 313 1100 
L 313 1709 
L 2253 4666 
z
" transform="scale(0.015625)"/>
      </defs>
      <use xlink:href="#DejaVuSans-72"/>
      <use xlink:href="#DejaVuSans-65" x="38.863281"/>
      <use xlink:href="#DejaVuSans-63" x="100.386719"/>
      <use xlink:href="#DejaVuSans-75" x="155.367188"/>
      <use xlink:href="#DejaVuSans-72" x="218.746094"/>
      <use xlink:href="#DejaVuSans-72" x="258.109375"/>
      <use xlink:href="#DejaVuSans-65" x="296.972656"/>
      <use xlink:href="#DejaVuSans-6e" x="358.496094"/>
      <use xlink:href="#DejaVuSans-74" x="421.875"/>
      <use xlink:href="#DejaVuSans-5f" x="461.083984"/>
      <use xlink:href="#DejaVuSans-6e" x="511.083984"/>
      <use xlink:href="#DejaVuSans-65" x="574.462891"/>
      <use xlink:href="#DejaVuSans-75" x="635.986328"/>
      <use xlink:href="#DejaVuSans-72" x="699.365234"/>
      <use xlink:href="#DejaVuSans-61" x="740.478516"/>
      <use xlink:href="#DejaVuSans-6c" x="801.757812"/>
      <use xlink:href="#DejaVuSans-5f" x="829.541016"/>
      <use xlink:href="#DejaVuSans-6e" x="879.541016"/>
      <use xlink:href="#DejaVuSans-65" x="942.919922"/>
      <use xlink:href="#DejaVuSans-74" x="1004.443359"/>
      <use xlink:href="#DejaVuSans-77" x="1043.652344"/>
      <use xlink:href="#DejaVuSans-6f" x="1125.439453"/>
      <use xlink:href="#DejaVuSans-72" x="1186.621094"/>
      <use xlink:href="#DejaVuSans-6b" x="1227.734375"/>
      <use xlink:href="#DejaVuSans-20" x="1285.644531"/>
      <use xlink:href="#DejaVuSans-28" x="1317.431641"/>
      <use xlink:href="#DejaVuSans-39" x="1356.445312"/>
      <use xlink:href="#DejaVuSans-34" x="1420.068359"/>
      <use xlink:href="#DejaVuSans-2e" x="1483.691406"/>
      <use xlink:href="#DejaVuSans-37" x="1515.478516"/>
      <use xlink:href="#DejaVuSans-33" x="1579.101562"/>
      <use xlink:href="#DejaVuSans-25" x="1642.724609"/>
      <use xlink:href="#DejaVuSans-29" x="1737.744141"/>
     </g>
    </g>
    <g id="patch_30">
     <path d="M 598.246328 276.534713 
L 626.246328 276.534713 
L 626.246328 266.734713 
L 598.246328 266.734713 
z
" style="fill: #ec5860; stroke: #ffffff; stroke-linejoin: miter"/>
    </g>
    <g id="text_10">
     <!-- naive_bayes (92.87%) -->
     <g transform="translate(637.446328 276.534713) scale(0.14 -0.14)">
      <defs>
       <path id="DejaVuSans-79" d="M 2059 -325 
Q 1816 -950 1584 -1140 
Q 1353 -1331 966 -1331 
L 506 -1331 
L 506 -850 
L 844 -850 
Q 1081 -850 1212 -737 
Q 1344 -625 1503 -206 
L 1606 56 
L 191 3500 
L 800 3500 
L 1894 763 
L 2988 3500 
L 3597 3500 
L 2059 -325 
z
" transform="scale(0.015625)"/>
       <path id="DejaVuSans-32" d="M 1228 531 
L 3431 531 
L 3431 0 
L 469 0 
L 469 531 
Q 828 903 1448 1529 
Q 2069 2156 2228 2338 
Q 2531 2678 2651 2914 
Q 2772 3150 2772 3378 
Q 2772 3750 2511 3984 
Q 2250 4219 1831 4219 
Q 1534 4219 1204 4116 
Q 875 4013 500 3803 
L 500 4441 
Q 881 4594 1212 4672 
Q 1544 4750 1819 4750 
Q 2544 4750 2975 4387 
Q 3406 4025 3406 3419 
Q 3406 3131 3298 2873 
Q 3191 2616 2906 2266 
Q 2828 2175 2409 1742 
Q 1991 1309 1228 531 
z
" transform="scale(0.015625)"/>
      </defs>
      <use xlink:href="#DejaVuSans-6e"/>
      <use xlink:href="#DejaVuSans-61" x="63.378906"/>
      <use xlink:href="#DejaVuSans-69" x="124.658203"/>
      <use xlink:href="#DejaVuSans-76" x="152.441406"/>
      <use xlink:href="#DejaVuSans-65" x="211.621094"/>
      <use xlink:href="#DejaVuSans-5f" x="273.144531"/>
      <use xlink:href="#DejaVuSans-62" x="323.144531"/>
      <use xlink:href="#DejaVuSans-61" x="386.621094"/>
      <use xlink:href="#DejaVuSans-79" x="447.900391"/>
      <use xlink:href="#DejaVuSans-65" x="507.080078"/>
      <use xlink:href="#DejaVuSans-73" x="568.603516"/>
      <use xlink:href="#DejaVuSans-20" x="620.703125"/>
      <use xlink:href="#DejaVuSans-28" x="652.490234"/>
      <use xlink:href="#DejaVuSans-39" x="691.503906"/>
      <use xlink:href="#DejaVuSans-32" x="755.126953"/>
      <use xlink:href="#DejaVuSans-2e" x="818.75"/>
      <use xlink:href="#DejaVuSans-38" x="850.537109"/>
      <use xlink:href="#DejaVuSans-37" x="914.160156"/>
      <use xlink:href="#DejaVuSans-25" x="977.783203"/>
      <use xlink:href="#DejaVuSans-29" x="1072.802734"/>
     </g>
    </g>
    <g id="patch_31">
     <path d="M 598.246328 297.473463 
L 626.246328 297.473463 
L 626.246328 287.673463 
L 598.246328 287.673463 
z
" style="fill: #ec5860; stroke: #ffffff; stroke-linejoin: miter"/>
    </g>
    <g id="text_11">
     <!-- knn (92.58%) -->
     <g transform="translate(637.446328 297.473463) scale(0.14 -0.14)">
      <use xlink:href="#DejaVuSans-6b"/>
      <use xlink:href="#DejaVuSans-6e" x="57.910156"/>
      <use xlink:href="#DejaVuSans-6e" x="121.289062"/>
      <use xlink:href="#DejaVuSans-20" x="184.667969"/>
      <use xlink:href="#DejaVuSans-28" x="216.455078"/>
      <use xlink:href="#DejaVuSans-39" x="255.46875"/>
      <use xlink:href="#DejaVuSans-32" x="319.091797"/>
      <use xlink:href="#DejaVuSans-2e" x="382.714844"/>
      <use xlink:href="#DejaVuSans-35" x="414.501953"/>
      <use xlink:href="#DejaVuSans-38" x="478.125"/>
      <use xlink:href="#DejaVuSans-25" x="541.748047"/>
      <use xlink:href="#DejaVuSans-29" x="636.767578"/>
     </g>
    </g>
    <g id="patch_32">
     <path d="M 598.246328 318.022838 
L 626.246328 318.022838 
L 626.246328 308.222838 
L 598.246328 308.222838 
z
" style="fill: #ec5860; stroke: #ffffff; stroke-linejoin: miter"/>
    </g>
    <g id="text_12">
     <!-- hmm (92.51%) -->
     <g transform="translate(637.446328 318.022838) scale(0.14 -0.14)">
      <defs>
       <path id="DejaVuSans-68" d="M 3513 2113 
L 3513 0 
L 2938 0 
L 2938 2094 
Q 2938 2591 2744 2837 
Q 2550 3084 2163 3084 
Q 1697 3084 1428 2787 
Q 1159 2491 1159 1978 
L 1159 0 
L 581 0 
L 581 4863 
L 1159 4863 
L 1159 2956 
Q 1366 3272 1645 3428 
Q 1925 3584 2291 3584 
Q 2894 3584 3203 3211 
Q 3513 2838 3513 2113 
z
" transform="scale(0.015625)"/>
      </defs>
      <use xlink:href="#DejaVuSans-68"/>
      <use xlink:href="#DejaVuSans-6d" x="63.378906"/>
      <use xlink:href="#DejaVuSans-6d" x="160.791016"/>
      <use xlink:href="#DejaVuSans-20" x="258.203125"/>
      <use xlink:href="#DejaVuSans-28" x="289.990234"/>
      <use xlink:href="#DejaVuSans-39" x="329.003906"/>
      <use xlink:href="#DejaVuSans-32" x="392.626953"/>
      <use xlink:href="#DejaVuSans-2e" x="456.25"/>
      <use xlink:href="#DejaVuSans-35" x="488.037109"/>
      <use xlink:href="#DejaVuSans-31" x="551.660156"/>
      <use xlink:href="#DejaVuSans-25" x="615.283203"/>
      <use xlink:href="#DejaVuSans-29" x="710.302734"/>
     </g>
    </g>
   </g>
  </g>
 </g>
</svg>
