<?xml version="1.0" encoding="utf-8" standalone="no"?>
<!DOCTYPE svg PUBLIC "-//W3C//DTD SVG 1.1//EN"
  "http://www.w3.org/Graphics/SVG/1.1/DTD/svg11.dtd">
<svg xmlns:xlink="http://www.w3.org/1999/xlink" width="898.989166pt" height="653.0687pt" viewBox="0 0 898.989166 653.0687" xmlns="http://www.w3.org/2000/svg" version="1.1">
 <metadata>
  <rdf:RDF xmlns:dc="http://purl.org/dc/elements/1.1/" xmlns:cc="http://creativecommons.org/ns#" xmlns:rdf="http://www.w3.org/1999/02/22-rdf-syntax-ns#">
   <cc:Work>
    <dc:type rdf:resource="http://purl.org/dc/dcmitype/StillImage"/>
    <dc:date>2023-11-09T15:01:39.398428</dc:date>
    <dc:format>image/svg+xml</dc:format>
    <dc:creator>
     <cc:Agent>
      <dc:title>Matplotlib v3.7.0, https://matplotlib.org/</dc:title>
     </cc:Agent>
    </dc:creator>
   </cc:Work>
  </rdf:RDF>
 </metadata>
 <defs>
  <style type="text/css">*{stroke-linejoin: round; stroke-linecap: butt}</style>
 </defs>
 <g id="figure_1">
  <g id="patch_1">
   <path d="M 0 653.0687 
L 898.989166 653.0687 
L 898.989166 0 
L 0 0 
z
" style="fill: #ffffff"/>
  </g>
  <g id="axes_1">
   <g id="patch_2">
    <path d="M 326.534353 7.2 
C 307.158897 7.2 287.823585 8.963394 268.767783 12.468352 
C 249.711982 15.97331 231.014654 21.205308 212.907269 28.099575 
L 221.647814 51.0561 
C 238.362323 44.692161 255.621395 39.862625 273.211366 36.627279 
C 290.801336 33.391933 308.649317 31.764185 326.534353 31.764185 
z
" style="fill: #f4f5f5; stroke: #ffffff; stroke-linejoin: miter"/>
   </g>
   <g id="patch_3">
    <path d="M 212.907269 28.099575 
C 175.999483 42.15197 142.016722 62.929853 112.687137 89.37659 
C 83.357551 115.823327 59.186887 147.482883 41.404314 182.74525 
C 23.621741 218.007618 12.533892 256.264749 8.704628 295.571125 
C 4.875363 334.877501 8.370712 374.555341 19.012923 412.586879 
C 29.655135 450.618416 47.260699 486.347851 70.934307 517.95821 
C 94.607914 549.568569 123.941349 576.514775 157.442896 597.426515 
C 190.944443 618.338255 228.036416 632.854934 266.832549 640.238327 
C 305.628683 647.621719 345.459995 647.744508 384.300913 640.60045 
C 423.141831 633.456391 460.3226 619.168675 493.952439 598.463883 
C 527.582278 577.759091 557.08129 550.994249 580.949338 519.530448 
C 604.817386 488.066648 622.642902 452.446436 633.519391 414.481236 
C 644.395879 376.516035 648.135792 336.860499 644.54894 297.531261 
C 640.962087 258.202023 630.11032 219.877258 612.545491 184.505924 
C 594.980663 149.13459 571.005652 117.326614 541.839679 90.699551 
C 512.673705 64.072488 478.819694 43.085483 441.999248 28.805804 
C 405.178802 14.526124 366.026837 7.200003 326.534376 7.2 
L 326.534374 31.764185 
C 362.988954 31.764187 399.129229 38.526761 433.117333 51.708003 
C 467.105437 64.889246 498.355294 84.261866 525.277731 108.840693 
C 552.200168 133.419521 574.330947 162.780729 590.544635 195.431191 
C 606.758323 228.081653 616.775338 263.45836 620.086279 299.762272 
C 623.39722 336.066184 619.944993 372.671294 609.905157 407.716094 
C 599.865321 442.760895 583.410999 475.64109 561.378955 504.684598 
C 539.34691 533.728107 512.117053 558.434115 481.074125 577.54623 
C 450.031196 596.658346 415.710486 609.847008 379.857331 616.441523 
C 344.004176 623.036038 307.236812 622.922695 271.424996 616.107255 
C 235.61318 609.291816 201.374436 595.891804 170.449931 576.58866 
C 139.525426 557.285516 112.44841 532.412094 90.595849 503.233302 
C 68.743288 474.054509 52.491998 441.073491 42.668418 405.967457 
C 32.844838 370.861423 29.618362 334.235724 33.153068 297.952916 
C 36.687774 261.670107 46.922711 226.355832 63.337394 193.805954 
C 79.752077 161.256076 102.063459 132.031871 129.136922 107.619498 
C 156.210386 83.207126 187.579088 64.027542 221.647814 51.0561 
z
" style="fill: #eb555c; stroke: #ffffff; stroke-linejoin: miter"/>
   </g>
   <g id="patch_4">
    <path d="M 326.534353 31.764185 
C 307.319032 31.764185 288.149669 33.643082 269.30004 37.374041 
C 250.450411 41.105 232.010683 46.670175 214.244212 53.990084 
L 223.601724 76.702111 
C 239.887656 69.992194 256.79074 64.890784 274.069566 61.470738 
C 291.348393 58.050691 308.920309 56.328369 326.534353 56.328369 
z
" style="fill: #f4f5f5; stroke: #ffffff; stroke-linejoin: miter"/>
   </g>
   <g id="patch_5">
    <path d="M 214.244212 53.990084 
C 180.693042 67.813398 149.981036 87.714026 123.65592 112.689079 
C 97.330804 137.664133 75.84235 167.286905 60.273466 200.064563 
C 44.704581 232.842221 35.321265 268.214748 32.596387 304.399552 
C 29.871508 340.584356 33.851624 376.96321 44.336157 411.702807 
C 54.820689 446.442404 71.630507 478.949208 93.918482 507.585046 
C 116.206457 536.220883 143.591794 560.496501 174.694412 579.188535 
C 205.797031 597.88057 240.085534 610.669661 275.831959 616.911305 
C 311.578384 623.152949 348.171993 622.740506 383.768657 615.694761 
C 419.365321 608.649016 453.356861 595.090347 484.030279 575.702041 
C 514.703698 556.313735 541.534931 531.427047 563.171823 502.296137 
C 584.808715 473.165226 600.881593 440.287804 610.580468 405.320722 
C 620.279343 370.35364 623.438507 333.89432 619.898754 297.780124 
C 616.359001 261.665928 606.180808 226.513877 589.877105 194.095452 
C 573.573402 161.677027 551.422741 132.546106 524.541401 108.170738 
C 497.660061 83.795369 466.507318 64.592013 432.653108 51.528419 
C 398.798899 38.464824 362.821631 31.764187 326.534374 31.764185 
L 326.534372 56.328369 
C 359.797691 56.328372 392.776853 62.470622 423.809879 74.445584 
C 454.842904 86.420545 483.399586 104.023622 508.040814 126.36771 
C 532.682042 148.711797 552.986814 175.415141 567.931876 205.132031 
C 582.876937 234.84892 592.206947 267.071634 595.451721 300.176314 
C 598.696494 333.280993 595.800594 366.702037 586.909959 398.755195 
C 578.019323 430.808354 563.285851 460.945991 543.452034 487.649325 
C 523.618216 514.352659 499.022919 537.165457 470.905619 554.938071 
C 442.788319 572.710685 411.629407 585.139464 378.999131 591.598064 
C 346.368856 598.056664 312.824715 598.434737 280.057158 592.71323 
C 247.289602 586.991723 215.858474 575.268389 187.347741 558.134024 
C 158.837007 540.999659 133.733782 518.747009 113.303138 492.497492 
C 92.872494 466.247974 77.463494 436.45007 67.852673 404.60544 
C 58.241852 372.760809 54.593412 339.413527 57.091217 306.244123 
C 59.589022 273.074719 68.190396 240.649903 82.461873 210.603716 
C 96.733351 180.55753 116.4311 153.403322 140.562456 130.509523 
C 164.693812 107.615724 192.846485 89.373482 223.601724 76.702111 
z
" style="fill: #eb575e; stroke: #ffffff; stroke-linejoin: miter"/>
   </g>
   <g id="patch_6">
    <path d="M 326.534353 56.328369 
C 308.72176 56.328369 290.952736 58.089739 273.486788 61.586755 
C 256.020839 65.08377 238.943409 70.299324 222.503902 77.157247 
L 231.961216 99.827898 
C 246.906222 93.593422 262.431159 88.852009 278.309294 85.672904 
C 294.187429 82.493799 310.341087 80.892554 326.534353 80.892554 
z
" style="fill: #f4f5f5; stroke: #ffffff; stroke-linejoin: miter"/>
   </g>
   <g id="patch_7">
    <path d="M 222.503902 77.157247 
C 191.827735 89.954152 163.774471 108.302166 139.755761 131.278013 
C 115.737051 154.253861 96.162643 181.465582 82.017527 211.543875 
C 67.872412 241.622168 59.397899 274.05391 57.020429 307.207124 
C 54.642959 340.360339 58.40309 373.669446 68.111611 405.458322 
C 77.820133 437.247198 93.311421 466.973536 113.80595 493.141499 
C 134.300479 519.309462 159.44862 541.472635 187.984911 558.515759 
C 216.521202 575.558884 247.958826 587.191212 280.715831 592.8274 
C 313.472836 598.463589 346.990402 598.007487 379.581913 591.482047 
C 412.173425 584.956606 443.282885 572.473148 471.344855 554.659843 
C 499.406825 536.846538 523.942581 514.007275 543.717474 487.291332 
C 563.492367 460.57539 578.169047 430.43853 587.008978 398.39725 
C 595.848909 366.35597 598.701285 332.956881 595.422575 299.880635 
C 592.143865 266.804388 582.790002 234.615253 567.831675 204.932994 
C 552.873347 175.250736 532.565739 148.581723 507.930735 126.267948 
C 483.295731 103.954172 454.753594 86.376299 423.740573 74.418851 
C 392.727552 62.461403 359.772717 56.328371 326.534366 56.328369 
L 326.534365 80.892554 
C 356.751048 80.892555 386.709989 86.46804 414.903644 97.338447 
C 443.097299 108.208853 469.044696 124.188739 491.440155 144.473989 
C 513.835613 164.759239 532.297075 189.003797 545.895555 215.987668 
C 559.494034 242.971539 567.997546 272.234389 570.978192 302.303704 
C 573.958837 332.373019 571.365767 362.735827 563.329466 391.864264 
C 555.293165 420.9927 541.950729 448.389845 523.973554 472.677066 
C 505.996378 496.964287 483.691146 517.727253 458.180264 533.921166 
C 432.669382 550.11508 404.388055 561.463678 374.759408 567.395897 
C 345.130761 573.328116 314.660247 573.742754 284.881151 568.618946 
C 255.102056 563.495138 226.522398 552.920295 200.580315 537.426545 
C 174.638232 521.932795 151.776286 501.784457 133.144896 477.995399 
C 114.513506 454.206342 100.430517 427.182398 91.604588 398.28342 
C 82.778659 369.384442 79.360358 339.103435 81.521695 308.964149 
C 83.683031 278.824863 91.387134 249.341462 104.24633 221.997559 
C 117.105526 194.653656 134.900442 169.915728 156.735633 149.028594 
C 178.570824 128.14146 204.073791 111.461447 231.961216 99.827898 
z
" style="fill: #eb575e; stroke: #ffffff; stroke-linejoin: miter"/>
   </g>
   <g id="patch_8">
    <path d="M 326.534353 80.892554 
C 309.103112 80.892554 291.721281 82.747988 274.682809 86.427478 
C 257.644337 90.106968 241.045818 95.589655 225.167954 102.78282 
L 235.304594 125.157978 
C 249.594671 118.68413 264.533339 113.749712 279.867963 110.43817 
C 295.202588 107.126629 310.846236 105.456738 326.534353 105.456738 
z
" style="fill: #f4f5f5; stroke: #ffffff; stroke-linejoin: miter"/>
   </g>
   <g id="patch_9">
    <path d="M 225.167954 102.78282 
C 197.785782 115.187792 172.911904 132.514488 151.785309 153.89985 
C 130.658714 175.285211 113.636101 200.36817 101.565381 227.899324 
C 89.494661 255.430478 82.579635 284.944993 81.164746 314.972727 
C 79.749857 345.000461 83.858993 375.034428 93.287476 403.578612 
C 102.715958 432.122796 117.304597 458.695258 136.326721 481.972404 
C 155.348845 505.24955 178.483285 524.83837 204.577697 539.763128 
C 230.672108 554.687886 259.285915 564.696594 288.99384 569.290711 
C 318.701765 573.884827 349.002222 572.986785 378.38592 566.641317 
C 407.769619 560.295849 435.740447 548.610091 460.905155 532.16612 
C 486.069864 515.722149 508.003573 494.797604 525.613747 470.434753 
C 543.223921 446.071903 556.213231 418.682088 563.93467 389.629616 
C 571.656109 360.577145 573.979307 330.352537 570.788545 300.461305 
C 567.597784 270.570073 558.946934 241.516898 545.266902 214.748942 
C 531.586871 187.980986 513.10863 163.950198 490.752596 143.85357 
C 468.396561 123.756942 442.540192 107.933785 414.471413 97.172262 
C 386.402634 86.41074 356.595357 80.892548 326.534307 80.892554 
L 326.534312 105.456738 
C 353.589257 105.456733 380.415806 110.423106 405.677707 120.108476 
C 430.939608 129.793847 454.210341 144.034688 474.330771 162.121653 
C 494.451202 180.208618 511.081619 201.836328 523.393648 225.927488 
C 535.705676 250.018648 543.491441 276.166505 546.363126 303.068614 
C 549.234812 329.970723 547.143933 357.17287 540.194638 383.320095 
C 533.245344 409.467319 521.554964 434.118153 505.705807 456.044718 
C 489.856651 477.971284 470.116313 496.803374 447.468075 511.602948 
C 424.819838 526.402522 399.646093 536.919704 373.200764 542.630625 
C 346.755435 548.341547 319.485024 549.149785 292.747891 545.01508 
C 266.010759 540.880375 240.258333 531.872537 216.773362 518.440255 
C 193.288392 505.007973 172.467396 487.378035 155.347484 466.428604 
C 138.227573 445.479172 125.097798 421.563956 116.612163 395.874191 
C 108.126529 370.184425 104.428306 343.153855 105.701707 316.128894 
C 106.975107 289.103934 113.198631 262.54087 124.062279 237.762832 
C 134.925926 212.984793 150.246278 190.41013 169.260213 171.163305 
C 188.274149 151.916479 210.660639 136.322453 235.304594 125.157978 
z
" style="fill: #eb575e; stroke: #ffffff; stroke-linejoin: miter"/>
   </g>
   <g id="patch_10">
    <path d="M 326.534353 105.456738 
C 310.567624 105.456738 294.647777 107.186468 279.053635 110.615633 
C 263.459493 114.044798 248.282631 119.153261 233.788862 125.85155 
L 244.093916 148.149645 
C 256.977267 142.19561 270.467811 137.654754 284.32927 134.606607 
C 298.19073 131.558461 312.341705 130.020923 326.534353 130.020923 
z
" style="fill: #f4f5f5; stroke: #ffffff; stroke-linejoin: miter"/>
   </g>
   <g id="patch_11">
    <path d="M 233.788862 125.85155 
C 209.26157 137.186827 187.018883 152.923218 168.165901 172.278879 
C 149.312919 191.63454 134.16713 214.283518 123.481035 239.100526 
C 112.794939 263.917534 106.748493 290.48465 105.642106 317.481917 
C 104.535719 344.479184 108.388023 371.451965 117.007622 397.060148 
C 125.62722 422.668332 138.868957 446.480672 156.074933 467.31408 
C 173.280909 488.147489 194.161372 505.651129 217.678901 518.955352 
C 241.19643 532.259575 266.954986 541.140336 293.674787 545.156406 
C 320.394587 549.172475 347.625665 548.25622 374.015077 542.453166 
C 400.40449 536.650111 425.507834 526.05798 448.077881 511.203031 
C 470.647928 496.348082 490.304594 477.480474 506.071261 455.537622 
C 521.837927 433.594771 533.449082 408.946196 540.327838 382.816534 
C 547.206593 356.686871 549.237111 329.516149 546.318506 302.654312 
C 543.399902 275.792476 535.581325 249.691882 523.251233 225.649308 
C 510.921141 201.606734 494.287174 180.027061 474.175771 161.98245 
C 454.064368 143.937838 430.814209 129.732162 405.580449 120.071214 
C 380.34669 110.410266 353.554272 105.456737 326.534343 105.456738 
L 326.534344 130.020923 
C 350.552058 130.020922 374.367542 134.424058 396.79755 143.011568 
C 419.227558 151.599078 439.894366 164.226345 457.771169 180.266 
C 475.647971 196.305655 490.43372 215.487586 501.393802 236.858763 
C 512.353884 258.229939 519.30373 281.430467 521.898045 305.307656 
C 524.49236 329.184844 522.687456 353.336597 516.573006 376.562963 
C 510.458557 399.78933 500.13753 421.699174 486.122715 441.203931 
C 472.1079 460.708688 454.635309 477.479895 434.573045 490.684294 
C 414.510781 503.888694 392.196697 513.303921 368.739441 518.462192 
C 345.282186 523.620462 321.076783 524.434911 297.32585 520.865072 
C 273.574916 517.295232 250.678422 509.401223 229.773951 497.575246 
C 208.869481 485.74927 190.309069 470.190479 175.014869 451.671894 
C 159.720668 433.153308 147.950235 411.986784 140.28837 389.223954 
C 132.626505 366.461124 129.202234 342.485319 130.185689 318.487749 
C 131.169144 294.490178 136.543763 270.874964 146.042515 248.815401 
C 155.541266 226.755838 169.00419 206.623413 185.762396 189.418381 
C 202.520602 172.213349 222.29188 158.225446 244.093916 148.149645 
z
" style="fill: #eb575e; stroke: #ffffff; stroke-linejoin: miter"/>
   </g>
   <g id="patch_12">
    <path d="M 326.534353 130.020923 
C 311.350828 130.020923 296.218332 131.780645 281.439976 135.264842 
C 266.66162 138.749039 252.336738 143.934291 238.752266 150.716734 
L 249.725027 172.693942 
C 261.61144 166.759304 274.145711 162.222209 287.076773 159.173537 
C 300.007835 156.124865 313.248769 154.585108 326.534353 154.585108 
z
" style="fill: #f4f5f5; stroke: #ffffff; stroke-linejoin: miter"/>
   </g>
   <g id="patch_13">
    <path d="M 238.752266 150.716734 
C 217.37536 161.389776 198.123118 175.87257 181.942316 193.452887 
C 165.761513 211.033204 152.921814 231.418057 144.054642 253.604972 
C 135.18747 275.791887 130.440602 299.411103 130.047478 323.301088 
C 129.654353 347.191072 133.621524 370.953683 141.753894 393.420336 
C 149.886264 415.886989 162.048302 436.683261 177.641911 454.786446 
C 193.23552 472.88963 212.00082 487.998025 233.014984 499.368639 
C 254.029148 510.739252 276.941959 518.182585 300.626624 521.332593 
C 324.311289 524.482602 348.373088 523.286788 371.628722 517.80396 
C 394.884356 512.321132 416.946255 502.642664 436.729471 489.244519 
C 456.512687 475.846374 473.687519 458.95184 487.409353 439.391748 
C 501.131187 419.831657 511.17134 397.931989 517.036062 374.769714 
C 522.900784 351.60744 524.492336 327.568574 521.73245 303.835286 
C 518.972563 280.101998 511.907234 257.06982 500.883915 235.871415 
C 489.860597 214.67301 475.063002 195.661664 457.218837 179.772305 
C 439.374672 163.882947 418.781323 151.380384 396.451517 142.87946 
C 374.121712 134.378536 350.427591 130.020925 326.534372 130.020923 
L 326.53437 154.585108 
C 347.440936 154.58511 368.173292 158.398019 387.711872 165.836328 
C 407.250451 173.274636 425.269632 184.214379 440.883276 198.117567 
C 456.496921 212.020756 469.444817 228.655684 479.09022 247.204288 
C 488.735624 265.752893 494.917787 285.906049 497.332688 306.672675 
C 499.747589 327.439302 498.354981 348.47331 493.223349 368.7403 
C 488.091717 389.00729 479.306583 408.1695 467.299978 425.28458 
C 455.293373 442.39966 440.265395 457.182377 422.955081 468.905754 
C 405.644767 480.629131 386.340606 489.09779 365.991926 493.895265 
C 345.643246 498.69274 324.589172 499.739076 303.86509 496.982819 
C 283.141008 494.226562 263.092298 487.713646 244.704905 477.764359 
C 226.317512 467.815072 209.897874 454.595226 196.253466 438.75494 
C 182.609059 422.914653 171.967275 404.717915 164.851451 385.059594 
C 157.735628 365.401273 154.264353 344.608988 154.608337 323.705252 
C 154.952321 302.801515 159.10583 282.134701 166.864606 262.72115 
C 174.623381 243.3076 185.858118 225.470853 200.01632 210.088076 
C 214.174522 194.705298 231.020234 182.032854 249.725027 172.693942 
z
" style="fill: #ec5860; stroke: #ffffff; stroke-linejoin: miter"/>
   </g>
   <g id="patch_14">
    <path d="M 326.534353 154.585108 
C 310.355858 154.585108 294.258026 156.86843 278.717672 161.367442 
C 263.177318 165.866454 248.349406 172.536294 234.673134 181.179402 
L 247.796166 201.944401 
C 259.518684 194.536023 272.228323 188.819018 285.548627 184.962721 
C 298.86893 181.106425 312.667072 179.149292 326.534353 179.149292 
z
" style="fill: #f4f5f5; stroke: #ffffff; stroke-linejoin: miter"/>
   </g>
   <g id="patch_15">
    <path d="M 234.673134 181.179402 
C 217.306945 192.154458 202.047329 206.153437 189.619237 222.511278 
C 177.191145 238.869118 167.794555 257.32261 161.875877 276.99507 
C 155.957199 296.667529 153.61167 317.242411 154.95072 337.742249 
C 156.28977 358.242087 161.291854 378.337023 169.719332 397.072391 
C 178.146811 415.807759 189.86408 432.882093 204.314479 447.48423 
C 218.764877 462.086366 235.715888 473.981346 254.362204 482.604064 
C 273.008521 491.226782 293.050112 496.438494 313.534844 497.991601 
C 334.019577 499.544709 354.617837 497.414222 374.351046 491.701355 
C 394.084256 485.988488 412.634893 476.785166 429.121659 464.528617 
C 445.608424 452.272069 459.766033 437.159511 470.921889 419.908908 
C 482.077744 402.658306 490.052341 383.547233 494.466824 363.483616 
C 498.881306 343.419998 499.664642 322.726674 496.779616 302.386737 
C 493.894591 282.0468 487.387626 262.387535 477.567854 244.34291 
C 467.748081 226.298286 454.773509 210.158653 439.260529 196.690769 
C 423.74755 183.222886 405.945779 172.643461 386.700939 165.455099 
C 367.456099 158.266737 347.077854 154.585105 326.534329 154.585108 
L 326.534333 179.149292 
C 344.143068 179.14929 361.610135 182.304975 378.105712 188.466428 
C 394.601289 194.627881 409.85995 203.69596 423.15679 215.239859 
C 436.453629 226.783759 447.574692 240.617731 455.991639 256.084552 
C 464.408587 271.551373 469.985985 288.402171 472.458864 305.836403 
C 474.931744 323.270635 474.260313 341.00777 470.476471 358.205156 
C 466.692629 375.402543 459.85726 391.783462 450.295098 406.569693 
C 440.732936 421.355924 428.597842 434.309545 414.466329 444.815158 
C 400.334816 455.320771 384.43427 463.209333 367.52009 468.106076 
C 350.605911 473.002819 332.950259 474.82895 315.391917 473.497715 
C 297.833575 472.16648 280.655069 467.699299 264.672511 460.308398 
C 248.689954 452.917496 234.160517 442.7218 221.774461 430.205683 
C 209.388405 417.689566 199.345031 403.054422 192.121478 386.995535 
C 184.897925 370.936648 180.610425 353.712418 179.462668 336.141128 
C 178.31491 318.569838 180.325364 300.934225 185.398516 284.072117 
C 190.471669 267.210009 198.525889 251.39273 209.178539 237.371724 
C 219.831189 223.350718 232.91086 211.351593 247.796166 201.944401 
z
" style="fill: #ec5a62; stroke: #ffffff; stroke-linejoin: miter"/>
   </g>
   <g id="patch_16">
    <path d="M 326.534353 179.149292 
C 311.968925 179.149292 297.483624 181.308449 283.551369 185.55627 
C 269.619114 189.804092 256.393194 196.093841 244.305411 204.220169 
L 258.010235 224.605874 
C 268.083387 217.833934 279.104987 212.592476 290.7152 209.052625 
C 302.325412 205.512774 314.396496 203.713477 326.534353 203.713477 
z
" style="fill: #f4f5f5; stroke: #ffffff; stroke-linejoin: miter"/>
   </g>
   <g id="patch_17">
    <path d="M 244.305411 204.220169 
C 229.76462 213.995597 217.082816 226.286086 206.856593 240.513451 
C 196.63037 254.740817 189.02264 270.678405 184.391296 287.57646 
C 179.759952 304.474514 178.178775 322.063833 179.72215 339.516958 
C 181.265524 356.970083 185.908863 374.00897 193.433727 389.832055 
C 200.958591 405.655139 211.245103 420.010345 223.809353 432.222356 
C 236.373602 444.434368 251.015428 454.308637 267.046033 461.380645 
C 283.076638 468.452653 300.240638 472.609737 317.730584 473.656335 
C 335.220531 474.702932 352.757792 472.62237 369.517358 467.512524 
C 386.276924 462.402677 401.9918 454.344952 415.922707 443.71841 
C 429.853615 433.091867 441.778621 420.065798 451.136735 405.25299 
C 460.49485 390.440182 467.136989 374.076617 470.750685 356.932091 
C 474.364381 339.787565 474.892065 322.135204 472.308912 304.805435 
C 469.72576 287.475666 464.072923 270.744566 455.616329 255.399221 
C 447.159735 240.053877 436.034106 226.338752 422.762827 214.899052 
C 409.491548 203.459352 394.286043 194.477321 377.861628 188.375503 
C 361.437213 182.273685 344.055544 179.149287 326.534312 179.149292 
L 326.534319 203.713477 
C 341.135346 203.713473 355.62007 206.317137 369.307082 211.401986 
C 382.994094 216.486834 395.665349 223.97186 406.724748 233.504943 
C 417.784147 243.038027 427.055505 254.467297 434.102666 267.255084 
C 441.149828 280.042872 445.860525 293.985455 448.013153 308.426929 
C 450.16578 322.868404 449.726043 337.578704 446.71463 351.865809 
C 443.703216 366.152914 438.1681 379.789218 430.369672 392.133225 
C 422.571243 404.477231 412.633738 415.332289 401.024648 424.187742 
C 389.415559 433.043194 376.319829 439.757965 362.353524 444.01617 
C 348.387219 448.274375 333.772834 450.008177 319.197879 449.136012 
C 304.622924 448.263848 290.31959 444.799611 276.960753 438.906271 
C 263.601916 433.01293 251.400394 424.784373 240.930186 414.607697 
C 230.459978 404.431021 221.887885 392.468349 215.617164 379.282446 
C 209.346444 366.096542 205.476996 351.897469 204.19085 337.353198 
C 202.904705 322.808927 204.222352 308.151161 208.081805 294.06945 
C 211.941259 279.987738 218.281034 266.706414 226.802886 254.850276 
C 235.324739 242.994138 245.892909 232.752064 258.010235 224.605874 
z
" style="fill: #ec5c63; stroke: #ffffff; stroke-linejoin: miter"/>
   </g>
   <g id="patch_18">
    <path d="M 326.534353 203.713477 
C 309.44422 203.713477 292.540725 207.280532 276.907796 214.185907 
C 261.274867 221.091282 247.253953 231.184151 235.744139 243.817315 
L 253.902182 260.360732 
C 263.110033 250.254201 274.326764 242.179905 286.833107 236.655605 
C 299.339451 231.131306 312.862247 228.277662 326.534353 228.277662 
z
" style="fill: #f4f5f5; stroke: #ffffff; stroke-linejoin: miter"/>
   </g>
   <g id="patch_19">
    <path d="M 235.744139 243.817315 
C 226.327418 254.153102 218.744449 266.021437 213.322737 278.909732 
C 207.901025 291.798028 204.719764 305.518027 203.916351 319.477169 
C 203.112938 333.436311 204.699108 347.430698 208.606356 360.855918 
C 212.513604 374.281138 218.684857 386.941092 226.853582 398.289002 
C 235.022306 409.636912 245.069183 419.507021 256.560293 427.473045 
C 268.051402 435.439068 280.818896 441.384647 294.311351 445.052994 
C 307.803806 448.721342 321.824141 450.058876 335.766824 449.007828 
C 349.709508 447.95678 363.370881 444.532504 376.160916 438.882891 
C 388.950951 433.233278 400.682826 425.440852 410.849847 415.842164 
C 421.016868 406.243476 429.470526 394.978732 435.845713 382.534452 
C 442.2209 370.090171 446.424494 356.648125 448.274944 342.78887 
C 450.125394 328.929615 449.59567 314.855589 446.708652 301.174645 
C 443.821633 287.4937 438.61949 274.405671 431.326901 262.475824 
C 424.034311 250.545976 414.757796 239.948568 403.898005 231.141295 
C 393.038214 222.334022 380.753773 215.445531 367.575242 210.773333 
C 354.39671 206.101135 340.516585 203.713476 326.534342 203.713477 
L 326.534344 228.277662 
C 337.720139 228.27766 348.824239 230.187788 359.367064 233.925546 
C 369.909889 237.663305 379.737442 243.174097 388.425275 250.219916 
C 397.113108 257.265734 404.53432 265.743661 410.368391 275.287539 
C 416.202463 284.831417 420.364177 295.30184 422.673792 306.246596 
C 424.983407 317.191352 425.407186 328.450572 423.926826 339.537976 
C 422.446466 350.62538 419.083591 361.379017 413.983441 371.334441 
C 408.883292 381.289866 402.120365 390.301661 393.986748 397.980611 
C 385.853132 405.659561 376.467632 411.893502 366.235604 416.413193 
C 356.003576 420.932883 345.074477 423.672304 333.92033 424.513143 
C 322.766184 425.353981 311.549915 424.283954 300.755951 421.349276 
C 289.961987 418.414597 279.747992 413.658134 270.555105 407.285316 
C 261.362217 400.912497 253.324716 393.01641 246.789736 383.938082 
C 240.254757 374.859754 235.317754 364.73179 232.191956 353.991614 
C 229.066157 343.251438 227.797221 332.055929 228.439951 320.888615 
C 229.082682 309.721302 231.62769 298.745302 235.96506 288.434666 
C 240.30243 278.12403 246.368805 268.629361 253.902182 260.360732 
z
" style="fill: #ed636a; stroke: #ffffff; stroke-linejoin: miter"/>
   </g>
   <g id="patch_20">
    <path d="M 326.534353 228.277662 
C 312.029709 228.277662 297.703407 231.489422 284.586982 237.681686 
C 271.470558 243.873951 259.88656 252.894445 250.669068 264.093667 
L 269.635389 279.70385 
C 276.548508 271.304434 285.236507 264.539063 295.073825 259.894865 
C 304.911143 255.250666 315.65587 252.841846 326.534353 252.841846 
z
" style="fill: #f4f5f5; stroke: #ffffff; stroke-linejoin: miter"/>
   </g>
   <g id="patch_21">
    <path d="M 250.669068 264.093667 
C 243.626514 272.650347 238.082078 282.337161 234.27086 292.743359 
C 230.459642 303.149558 228.436283 314.125949 228.28658 325.207101 
C 228.136877 336.288253 229.862976 347.315298 233.391684 357.820657 
C 236.920393 368.326016 242.201121 378.159074 249.009951 386.902883 
C 255.818781 395.646691 264.058094 403.17589 273.378521 409.171221 
C 282.698948 415.166551 292.966863 419.542059 303.746876 422.112209 
C 314.526889 424.682359 325.664448 425.410303 336.687289 424.265176 
C 347.710131 423.120048 358.46022 420.118266 368.481725 415.387114 
C 378.503229 410.655961 387.652469 404.263268 395.541493 396.480103 
C 403.430516 388.696938 409.946218 379.634888 414.812315 369.678209 
C 419.678411 359.72153 422.825136 349.01297 424.119061 338.006603 
C 425.412986 327.000237 424.835559 315.85386 422.411265 305.040112 
C 419.986972 294.226364 415.750567 283.90028 409.881689 274.499716 
C 404.01281 265.099151 396.595598 256.758882 387.944565 249.832558 
C 379.293531 242.906234 369.532704 237.493158 359.075971 233.822859 
C 348.619239 230.152561 337.616517 228.277662 326.534353 228.277662 
L 326.534353 252.841846 
C 334.845976 252.841846 343.098017 254.248021 350.940567 257.000745 
C 358.783116 259.753468 366.103736 263.813275 372.592012 269.008018 
C 379.080287 274.202761 384.643196 280.457963 389.044855 287.508387 
C 393.446514 294.55881 396.623817 302.303373 398.442037 310.413684 
C 400.260258 318.523995 400.693328 326.883778 399.722884 335.138553 
C 398.752441 343.393328 396.392397 351.424747 392.742824 358.892257 
C 389.093252 366.359766 384.206476 373.156304 378.289708 378.993677 
C 372.37294 384.831051 365.51101 389.625571 357.994882 393.173935 
C 350.478754 396.7223 342.416186 398.973636 334.149055 399.832482 
C 325.881924 400.691328 317.528755 400.145369 309.443745 398.217756 
C 301.358735 396.290144 293.6578 393.008514 286.667479 388.512016 
C 279.677159 384.015518 273.497674 378.368618 268.391052 371.810762 
C 263.284429 365.252906 259.323883 357.878112 256.677352 349.999093 
C 254.03082 342.120073 252.736246 333.84979 252.848524 325.538926 
C 252.960801 317.228061 254.47832 308.995769 257.336733 301.19112 
C 260.195147 293.386471 264.353474 286.121361 269.635389 279.70385 
z
" style="fill: #ed656c; stroke: #ffffff; stroke-linejoin: miter"/>
   </g>
   <g id="matplotlib.axis_1"/>
   <g id="matplotlib.axis_2"/>
   <g id="text_1">
    <!-- AUPRC_1 on generalized models -->
    <g transform="translate(190.572478 94.3392) scale(0.168 -0.168)">
     <defs>
      <path id="DejaVuSans-41" d="M 2188 4044 
L 1331 1722 
L 3047 1722 
L 2188 4044 
z
M 1831 4666 
L 2547 4666 
L 4325 0 
L 3669 0 
L 3244 1197 
L 1141 1197 
L 716 0 
L 50 0 
L 1831 4666 
z
" transform="scale(0.015625)"/>
      <path id="DejaVuSans-55" d="M 556 4666 
L 1191 4666 
L 1191 1831 
Q 1191 1081 1462 751 
Q 1734 422 2344 422 
Q 2950 422 3222 751 
Q 3494 1081 3494 1831 
L 3494 4666 
L 4128 4666 
L 4128 1753 
Q 4128 841 3676 375 
Q 3225 -91 2344 -91 
Q 1459 -91 1007 375 
Q 556 841 556 1753 
L 556 4666 
z
" transform="scale(0.015625)"/>
      <path id="DejaVuSans-50" d="M 1259 4147 
L 1259 2394 
L 2053 2394 
Q 2494 2394 2734 2622 
Q 2975 2850 2975 3272 
Q 2975 3691 2734 3919 
Q 2494 4147 2053 4147 
L 1259 4147 
z
M 628 4666 
L 2053 4666 
Q 2838 4666 3239 4311 
Q 3641 3956 3641 3272 
Q 3641 2581 3239 2228 
Q 2838 1875 2053 1875 
L 1259 1875 
L 1259 0 
L 628 0 
L 628 4666 
z
" transform="scale(0.015625)"/>
      <path id="DejaVuSans-52" d="M 2841 2188 
Q 3044 2119 3236 1894 
Q 3428 1669 3622 1275 
L 4263 0 
L 3584 0 
L 2988 1197 
Q 2756 1666 2539 1819 
Q 2322 1972 1947 1972 
L 1259 1972 
L 1259 0 
L 628 0 
L 628 4666 
L 2053 4666 
Q 2853 4666 3247 4331 
Q 3641 3997 3641 3322 
Q 3641 2881 3436 2590 
Q 3231 2300 2841 2188 
z
M 1259 4147 
L 1259 2491 
L 2053 2491 
Q 2509 2491 2742 2702 
Q 2975 2913 2975 3322 
Q 2975 3731 2742 3939 
Q 2509 4147 2053 4147 
L 1259 4147 
z
" transform="scale(0.015625)"/>
      <path id="DejaVuSans-43" d="M 4122 4306 
L 4122 3641 
Q 3803 3938 3442 4084 
Q 3081 4231 2675 4231 
Q 1875 4231 1450 3742 
Q 1025 3253 1025 2328 
Q 1025 1406 1450 917 
Q 1875 428 2675 428 
Q 3081 428 3442 575 
Q 3803 722 4122 1019 
L 4122 359 
Q 3791 134 3420 21 
Q 3050 -91 2638 -91 
Q 1578 -91 968 557 
Q 359 1206 359 2328 
Q 359 3453 968 4101 
Q 1578 4750 2638 4750 
Q 3056 4750 3426 4639 
Q 3797 4528 4122 4306 
z
" transform="scale(0.015625)"/>
      <path id="DejaVuSans-5f" d="M 3263 -1063 
L 3263 -1509 
L -63 -1509 
L -63 -1063 
L 3263 -1063 
z
" transform="scale(0.015625)"/>
      <path id="DejaVuSans-31" d="M 794 531 
L 1825 531 
L 1825 4091 
L 703 3866 
L 703 4441 
L 1819 4666 
L 2450 4666 
L 2450 531 
L 3481 531 
L 3481 0 
L 794 0 
L 794 531 
z
" transform="scale(0.015625)"/>
      <path id="DejaVuSans-20" transform="scale(0.015625)"/>
      <path id="DejaVuSans-6f" d="M 1959 3097 
Q 1497 3097 1228 2736 
Q 959 2375 959 1747 
Q 959 1119 1226 758 
Q 1494 397 1959 397 
Q 2419 397 2687 759 
Q 2956 1122 2956 1747 
Q 2956 2369 2687 2733 
Q 2419 3097 1959 3097 
z
M 1959 3584 
Q 2709 3584 3137 3096 
Q 3566 2609 3566 1747 
Q 3566 888 3137 398 
Q 2709 -91 1959 -91 
Q 1206 -91 779 398 
Q 353 888 353 1747 
Q 353 2609 779 3096 
Q 1206 3584 1959 3584 
z
" transform="scale(0.015625)"/>
      <path id="DejaVuSans-6e" d="M 3513 2113 
L 3513 0 
L 2938 0 
L 2938 2094 
Q 2938 2591 2744 2837 
Q 2550 3084 2163 3084 
Q 1697 3084 1428 2787 
Q 1159 2491 1159 1978 
L 1159 0 
L 581 0 
L 581 3500 
L 1159 3500 
L 1159 2956 
Q 1366 3272 1645 3428 
Q 1925 3584 2291 3584 
Q 2894 3584 3203 3211 
Q 3513 2838 3513 2113 
z
" transform="scale(0.015625)"/>
      <path id="DejaVuSans-67" d="M 2906 1791 
Q 2906 2416 2648 2759 
Q 2391 3103 1925 3103 
Q 1463 3103 1205 2759 
Q 947 2416 947 1791 
Q 947 1169 1205 825 
Q 1463 481 1925 481 
Q 2391 481 2648 825 
Q 2906 1169 2906 1791 
z
M 3481 434 
Q 3481 -459 3084 -895 
Q 2688 -1331 1869 -1331 
Q 1566 -1331 1297 -1286 
Q 1028 -1241 775 -1147 
L 775 -588 
Q 1028 -725 1275 -790 
Q 1522 -856 1778 -856 
Q 2344 -856 2625 -561 
Q 2906 -266 2906 331 
L 2906 616 
Q 2728 306 2450 153 
Q 2172 0 1784 0 
Q 1141 0 747 490 
Q 353 981 353 1791 
Q 353 2603 747 3093 
Q 1141 3584 1784 3584 
Q 2172 3584 2450 3431 
Q 2728 3278 2906 2969 
L 2906 3500 
L 3481 3500 
L 3481 434 
z
" transform="scale(0.015625)"/>
      <path id="DejaVuSans-65" d="M 3597 1894 
L 3597 1613 
L 953 1613 
Q 991 1019 1311 708 
Q 1631 397 2203 397 
Q 2534 397 2845 478 
Q 3156 559 3463 722 
L 3463 178 
Q 3153 47 2828 -22 
Q 2503 -91 2169 -91 
Q 1331 -91 842 396 
Q 353 884 353 1716 
Q 353 2575 817 3079 
Q 1281 3584 2069 3584 
Q 2775 3584 3186 3129 
Q 3597 2675 3597 1894 
z
M 3022 2063 
Q 3016 2534 2758 2815 
Q 2500 3097 2075 3097 
Q 1594 3097 1305 2825 
Q 1016 2553 972 2059 
L 3022 2063 
z
" transform="scale(0.015625)"/>
      <path id="DejaVuSans-72" d="M 2631 2963 
Q 2534 3019 2420 3045 
Q 2306 3072 2169 3072 
Q 1681 3072 1420 2755 
Q 1159 2438 1159 1844 
L 1159 0 
L 581 0 
L 581 3500 
L 1159 3500 
L 1159 2956 
Q 1341 3275 1631 3429 
Q 1922 3584 2338 3584 
Q 2397 3584 2469 3576 
Q 2541 3569 2628 3553 
L 2631 2963 
z
" transform="scale(0.015625)"/>
      <path id="DejaVuSans-61" d="M 2194 1759 
Q 1497 1759 1228 1600 
Q 959 1441 959 1056 
Q 959 750 1161 570 
Q 1363 391 1709 391 
Q 2188 391 2477 730 
Q 2766 1069 2766 1631 
L 2766 1759 
L 2194 1759 
z
M 3341 1997 
L 3341 0 
L 2766 0 
L 2766 531 
Q 2569 213 2275 61 
Q 1981 -91 1556 -91 
Q 1019 -91 701 211 
Q 384 513 384 1019 
Q 384 1609 779 1909 
Q 1175 2209 1959 2209 
L 2766 2209 
L 2766 2266 
Q 2766 2663 2505 2880 
Q 2244 3097 1772 3097 
Q 1472 3097 1187 3025 
Q 903 2953 641 2809 
L 641 3341 
Q 956 3463 1253 3523 
Q 1550 3584 1831 3584 
Q 2591 3584 2966 3190 
Q 3341 2797 3341 1997 
z
" transform="scale(0.015625)"/>
      <path id="DejaVuSans-6c" d="M 603 4863 
L 1178 4863 
L 1178 0 
L 603 0 
L 603 4863 
z
" transform="scale(0.015625)"/>
      <path id="DejaVuSans-69" d="M 603 3500 
L 1178 3500 
L 1178 0 
L 603 0 
L 603 3500 
z
M 603 4863 
L 1178 4863 
L 1178 4134 
L 603 4134 
L 603 4863 
z
" transform="scale(0.015625)"/>
      <path id="DejaVuSans-7a" d="M 353 3500 
L 3084 3500 
L 3084 2975 
L 922 459 
L 3084 459 
L 3084 0 
L 275 0 
L 275 525 
L 2438 3041 
L 353 3041 
L 353 3500 
z
" transform="scale(0.015625)"/>
      <path id="DejaVuSans-64" d="M 2906 2969 
L 2906 4863 
L 3481 4863 
L 3481 0 
L 2906 0 
L 2906 525 
Q 2725 213 2448 61 
Q 2172 -91 1784 -91 
Q 1150 -91 751 415 
Q 353 922 353 1747 
Q 353 2572 751 3078 
Q 1150 3584 1784 3584 
Q 2172 3584 2448 3432 
Q 2725 3281 2906 2969 
z
M 947 1747 
Q 947 1113 1208 752 
Q 1469 391 1925 391 
Q 2381 391 2643 752 
Q 2906 1113 2906 1747 
Q 2906 2381 2643 2742 
Q 2381 3103 1925 3103 
Q 1469 3103 1208 2742 
Q 947 2381 947 1747 
z
" transform="scale(0.015625)"/>
      <path id="DejaVuSans-6d" d="M 3328 2828 
Q 3544 3216 3844 3400 
Q 4144 3584 4550 3584 
Q 5097 3584 5394 3201 
Q 5691 2819 5691 2113 
L 5691 0 
L 5113 0 
L 5113 2094 
Q 5113 2597 4934 2840 
Q 4756 3084 4391 3084 
Q 3944 3084 3684 2787 
Q 3425 2491 3425 1978 
L 3425 0 
L 2847 0 
L 2847 2094 
Q 2847 2600 2669 2842 
Q 2491 3084 2119 3084 
Q 1678 3084 1418 2786 
Q 1159 2488 1159 1978 
L 1159 0 
L 581 0 
L 581 3500 
L 1159 3500 
L 1159 2956 
Q 1356 3278 1631 3431 
Q 1906 3584 2284 3584 
Q 2666 3584 2933 3390 
Q 3200 3197 3328 2828 
z
" transform="scale(0.015625)"/>
      <path id="DejaVuSans-73" d="M 2834 3397 
L 2834 2853 
Q 2591 2978 2328 3040 
Q 2066 3103 1784 3103 
Q 1356 3103 1142 2972 
Q 928 2841 928 2578 
Q 928 2378 1081 2264 
Q 1234 2150 1697 2047 
L 1894 2003 
Q 2506 1872 2764 1633 
Q 3022 1394 3022 966 
Q 3022 478 2636 193 
Q 2250 -91 1575 -91 
Q 1294 -91 989 -36 
Q 684 19 347 128 
L 347 722 
Q 666 556 975 473 
Q 1284 391 1588 391 
Q 1994 391 2212 530 
Q 2431 669 2431 922 
Q 2431 1156 2273 1281 
Q 2116 1406 1581 1522 
L 1381 1569 
Q 847 1681 609 1914 
Q 372 2147 372 2553 
Q 372 3047 722 3315 
Q 1072 3584 1716 3584 
Q 2034 3584 2315 3537 
Q 2597 3491 2834 3397 
z
" transform="scale(0.015625)"/>
     </defs>
     <use xlink:href="#DejaVuSans-41"/>
     <use xlink:href="#DejaVuSans-55" x="68.408203"/>
     <use xlink:href="#DejaVuSans-50" x="141.601562"/>
     <use xlink:href="#DejaVuSans-52" x="201.904297"/>
     <use xlink:href="#DejaVuSans-43" x="266.386719"/>
     <use xlink:href="#DejaVuSans-5f" x="336.210938"/>
     <use xlink:href="#DejaVuSans-31" x="386.210938"/>
     <use xlink:href="#DejaVuSans-20" x="449.833984"/>
     <use xlink:href="#DejaVuSans-6f" x="481.621094"/>
     <use xlink:href="#DejaVuSans-6e" x="542.802734"/>
     <use xlink:href="#DejaVuSans-20" x="606.181641"/>
     <use xlink:href="#DejaVuSans-67" x="637.96875"/>
     <use xlink:href="#DejaVuSans-65" x="701.445312"/>
     <use xlink:href="#DejaVuSans-6e" x="762.96875"/>
     <use xlink:href="#DejaVuSans-65" x="826.347656"/>
     <use xlink:href="#DejaVuSans-72" x="887.871094"/>
     <use xlink:href="#DejaVuSans-61" x="928.984375"/>
     <use xlink:href="#DejaVuSans-6c" x="990.263672"/>
     <use xlink:href="#DejaVuSans-69" x="1018.046875"/>
     <use xlink:href="#DejaVuSans-7a" x="1045.830078"/>
     <use xlink:href="#DejaVuSans-65" x="1098.320312"/>
     <use xlink:href="#DejaVuSans-64" x="1159.84375"/>
     <use xlink:href="#DejaVuSans-20" x="1223.320312"/>
     <use xlink:href="#DejaVuSans-6d" x="1255.107422"/>
     <use xlink:href="#DejaVuSans-6f" x="1352.519531"/>
     <use xlink:href="#DejaVuSans-64" x="1413.701172"/>
     <use xlink:href="#DejaVuSans-65" x="1477.177734"/>
     <use xlink:href="#DejaVuSans-6c" x="1538.701172"/>
     <use xlink:href="#DejaVuSans-73" x="1566.484375"/>
    </g>
   </g>
   <g id="legend_1">
    <g id="patch_22">
     <path d="M 595.446353 326.5344 
L 888.989166 326.5344 
Q 891.789166 326.5344 891.789166 323.7344 
L 891.789166 97.1444 
Q 891.789166 94.3444 888.989166 94.3444 
L 595.446353 94.3444 
Q 592.646353 94.3444 592.646353 97.1444 
L 592.646353 323.7344 
Q 592.646353 326.5344 595.446353 326.5344 
z
" style="fill: #ffffff; opacity: 0.8; stroke: #cccccc; stroke-linejoin: miter"/>
    </g>
    <g id="text_2">
     <!-- Models -->
     <g transform="translate(717.552603 110.582213) scale(0.14 -0.14)">
      <defs>
       <path id="DejaVuSans-4d" d="M 628 4666 
L 1569 4666 
L 2759 1491 
L 3956 4666 
L 4897 4666 
L 4897 0 
L 4281 0 
L 4281 4097 
L 3078 897 
L 2444 897 
L 1241 4097 
L 1241 0 
L 628 0 
L 628 4666 
z
" transform="scale(0.015625)"/>
      </defs>
      <use xlink:href="#DejaVuSans-4d"/>
      <use xlink:href="#DejaVuSans-6f" x="86.279297"/>
      <use xlink:href="#DejaVuSans-64" x="147.460938"/>
      <use xlink:href="#DejaVuSans-65" x="210.9375"/>
      <use xlink:href="#DejaVuSans-6c" x="272.460938"/>
      <use xlink:href="#DejaVuSans-73" x="300.244141"/>
     </g>
    </g>
    <g id="patch_23">
     <path d="M 598.246353 131.131588 
L 626.246353 131.131588 
L 626.246353 121.331588 
L 598.246353 121.331588 
z
" style="fill: #eb555c; stroke: #ffffff; stroke-linejoin: miter"/>
    </g>
    <g id="text_3">
     <!-- xgboost (94.21%) -->
     <g transform="translate(637.446353 131.131588) scale(0.14 -0.14)">
      <defs>
       <path id="DejaVuSans-78" d="M 3513 3500 
L 2247 1797 
L 3578 0 
L 2900 0 
L 1881 1375 
L 863 0 
L 184 0 
L 1544 1831 
L 300 3500 
L 978 3500 
L 1906 2253 
L 2834 3500 
L 3513 3500 
z
" transform="scale(0.015625)"/>
       <path id="DejaVuSans-62" d="M 3116 1747 
Q 3116 2381 2855 2742 
Q 2594 3103 2138 3103 
Q 1681 3103 1420 2742 
Q 1159 2381 1159 1747 
Q 1159 1113 1420 752 
Q 1681 391 2138 391 
Q 2594 391 2855 752 
Q 3116 1113 3116 1747 
z
M 1159 2969 
Q 1341 3281 1617 3432 
Q 1894 3584 2278 3584 
Q 2916 3584 3314 3078 
Q 3713 2572 3713 1747 
Q 3713 922 3314 415 
Q 2916 -91 2278 -91 
Q 1894 -91 1617 61 
Q 1341 213 1159 525 
L 1159 0 
L 581 0 
L 581 4863 
L 1159 4863 
L 1159 2969 
z
" transform="scale(0.015625)"/>
       <path id="DejaVuSans-74" d="M 1172 4494 
L 1172 3500 
L 2356 3500 
L 2356 3053 
L 1172 3053 
L 1172 1153 
Q 1172 725 1289 603 
Q 1406 481 1766 481 
L 2356 481 
L 2356 0 
L 1766 0 
Q 1100 0 847 248 
Q 594 497 594 1153 
L 594 3053 
L 172 3053 
L 172 3500 
L 594 3500 
L 594 4494 
L 1172 4494 
z
" transform="scale(0.015625)"/>
       <path id="DejaVuSans-28" d="M 1984 4856 
Q 1566 4138 1362 3434 
Q 1159 2731 1159 2009 
Q 1159 1288 1364 580 
Q 1569 -128 1984 -844 
L 1484 -844 
Q 1016 -109 783 600 
Q 550 1309 550 2009 
Q 550 2706 781 3412 
Q 1013 4119 1484 4856 
L 1984 4856 
z
" transform="scale(0.015625)"/>
       <path id="DejaVuSans-39" d="M 703 97 
L 703 672 
Q 941 559 1184 500 
Q 1428 441 1663 441 
Q 2288 441 2617 861 
Q 2947 1281 2994 2138 
Q 2813 1869 2534 1725 
Q 2256 1581 1919 1581 
Q 1219 1581 811 2004 
Q 403 2428 403 3163 
Q 403 3881 828 4315 
Q 1253 4750 1959 4750 
Q 2769 4750 3195 4129 
Q 3622 3509 3622 2328 
Q 3622 1225 3098 567 
Q 2575 -91 1691 -91 
Q 1453 -91 1209 -44 
Q 966 3 703 97 
z
M 1959 2075 
Q 2384 2075 2632 2365 
Q 2881 2656 2881 3163 
Q 2881 3666 2632 3958 
Q 2384 4250 1959 4250 
Q 1534 4250 1286 3958 
Q 1038 3666 1038 3163 
Q 1038 2656 1286 2365 
Q 1534 2075 1959 2075 
z
" transform="scale(0.015625)"/>
       <path id="DejaVuSans-34" d="M 2419 4116 
L 825 1625 
L 2419 1625 
L 2419 4116 
z
M 2253 4666 
L 3047 4666 
L 3047 1625 
L 3713 1625 
L 3713 1100 
L 3047 1100 
L 3047 0 
L 2419 0 
L 2419 1100 
L 313 1100 
L 313 1709 
L 2253 4666 
z
" transform="scale(0.015625)"/>
       <path id="DejaVuSans-2e" d="M 684 794 
L 1344 794 
L 1344 0 
L 684 0 
L 684 794 
z
" transform="scale(0.015625)"/>
       <path id="DejaVuSans-32" d="M 1228 531 
L 3431 531 
L 3431 0 
L 469 0 
L 469 531 
Q 828 903 1448 1529 
Q 2069 2156 2228 2338 
Q 2531 2678 2651 2914 
Q 2772 3150 2772 3378 
Q 2772 3750 2511 3984 
Q 2250 4219 1831 4219 
Q 1534 4219 1204 4116 
Q 875 4013 500 3803 
L 500 4441 
Q 881 4594 1212 4672 
Q 1544 4750 1819 4750 
Q 2544 4750 2975 4387 
Q 3406 4025 3406 3419 
Q 3406 3131 3298 2873 
Q 3191 2616 2906 2266 
Q 2828 2175 2409 1742 
Q 1991 1309 1228 531 
z
" transform="scale(0.015625)"/>
       <path id="DejaVuSans-25" d="M 4653 2053 
Q 4381 2053 4226 1822 
Q 4072 1591 4072 1178 
Q 4072 772 4226 539 
Q 4381 306 4653 306 
Q 4919 306 5073 539 
Q 5228 772 5228 1178 
Q 5228 1588 5073 1820 
Q 4919 2053 4653 2053 
z
M 4653 2450 
Q 5147 2450 5437 2106 
Q 5728 1763 5728 1178 
Q 5728 594 5436 251 
Q 5144 -91 4653 -91 
Q 4153 -91 3862 251 
Q 3572 594 3572 1178 
Q 3572 1766 3864 2108 
Q 4156 2450 4653 2450 
z
M 1428 4353 
Q 1159 4353 1004 4120 
Q 850 3888 850 3481 
Q 850 3069 1003 2837 
Q 1156 2606 1428 2606 
Q 1700 2606 1854 2837 
Q 2009 3069 2009 3481 
Q 2009 3884 1853 4118 
Q 1697 4353 1428 4353 
z
M 4250 4750 
L 4750 4750 
L 1831 -91 
L 1331 -91 
L 4250 4750 
z
M 1428 4750 
Q 1922 4750 2215 4408 
Q 2509 4066 2509 3481 
Q 2509 2891 2217 2550 
Q 1925 2209 1428 2209 
Q 931 2209 642 2551 
Q 353 2894 353 3481 
Q 353 4063 643 4406 
Q 934 4750 1428 4750 
z
" transform="scale(0.015625)"/>
       <path id="DejaVuSans-29" d="M 513 4856 
L 1013 4856 
Q 1481 4119 1714 3412 
Q 1947 2706 1947 2009 
Q 1947 1309 1714 600 
Q 1481 -109 1013 -844 
L 513 -844 
Q 928 -128 1133 580 
Q 1338 1288 1338 2009 
Q 1338 2731 1133 3434 
Q 928 4138 513 4856 
z
" transform="scale(0.015625)"/>
      </defs>
      <use xlink:href="#DejaVuSans-78"/>
      <use xlink:href="#DejaVuSans-67" x="59.179688"/>
      <use xlink:href="#DejaVuSans-62" x="122.65625"/>
      <use xlink:href="#DejaVuSans-6f" x="186.132812"/>
      <use xlink:href="#DejaVuSans-6f" x="247.314453"/>
      <use xlink:href="#DejaVuSans-73" x="308.496094"/>
      <use xlink:href="#DejaVuSans-74" x="360.595703"/>
      <use xlink:href="#DejaVuSans-20" x="399.804688"/>
      <use xlink:href="#DejaVuSans-28" x="431.591797"/>
      <use xlink:href="#DejaVuSans-39" x="470.605469"/>
      <use xlink:href="#DejaVuSans-34" x="534.228516"/>
      <use xlink:href="#DejaVuSans-2e" x="597.851562"/>
      <use xlink:href="#DejaVuSans-32" x="629.638672"/>
      <use xlink:href="#DejaVuSans-31" x="693.261719"/>
      <use xlink:href="#DejaVuSans-25" x="756.884766"/>
      <use xlink:href="#DejaVuSans-29" x="851.904297"/>
     </g>
    </g>
    <g id="patch_24">
     <path d="M 598.246353 151.680963 
L 626.246353 151.680963 
L 626.246353 141.880963 
L 598.246353 141.880963 
z
" style="fill: #eb575e; stroke: #ffffff; stroke-linejoin: miter"/>
    </g>
    <g id="text_4">
     <!-- neural_network (93.78%) -->
     <g transform="translate(637.446353 151.680963) scale(0.14 -0.14)">
      <defs>
       <path id="DejaVuSans-75" d="M 544 1381 
L 544 3500 
L 1119 3500 
L 1119 1403 
Q 1119 906 1312 657 
Q 1506 409 1894 409 
Q 2359 409 2629 706 
Q 2900 1003 2900 1516 
L 2900 3500 
L 3475 3500 
L 3475 0 
L 2900 0 
L 2900 538 
Q 2691 219 2414 64 
Q 2138 -91 1772 -91 
Q 1169 -91 856 284 
Q 544 659 544 1381 
z
M 1991 3584 
L 1991 3584 
z
" transform="scale(0.015625)"/>
       <path id="DejaVuSans-77" d="M 269 3500 
L 844 3500 
L 1563 769 
L 2278 3500 
L 2956 3500 
L 3675 769 
L 4391 3500 
L 4966 3500 
L 4050 0 
L 3372 0 
L 2619 2869 
L 1863 0 
L 1184 0 
L 269 3500 
z
" transform="scale(0.015625)"/>
       <path id="DejaVuSans-6b" d="M 581 4863 
L 1159 4863 
L 1159 1991 
L 2875 3500 
L 3609 3500 
L 1753 1863 
L 3688 0 
L 2938 0 
L 1159 1709 
L 1159 0 
L 581 0 
L 581 4863 
z
" transform="scale(0.015625)"/>
       <path id="DejaVuSans-33" d="M 2597 2516 
Q 3050 2419 3304 2112 
Q 3559 1806 3559 1356 
Q 3559 666 3084 287 
Q 2609 -91 1734 -91 
Q 1441 -91 1130 -33 
Q 819 25 488 141 
L 488 750 
Q 750 597 1062 519 
Q 1375 441 1716 441 
Q 2309 441 2620 675 
Q 2931 909 2931 1356 
Q 2931 1769 2642 2001 
Q 2353 2234 1838 2234 
L 1294 2234 
L 1294 2753 
L 1863 2753 
Q 2328 2753 2575 2939 
Q 2822 3125 2822 3475 
Q 2822 3834 2567 4026 
Q 2313 4219 1838 4219 
Q 1578 4219 1281 4162 
Q 984 4106 628 3988 
L 628 4550 
Q 988 4650 1302 4700 
Q 1616 4750 1894 4750 
Q 2613 4750 3031 4423 
Q 3450 4097 3450 3541 
Q 3450 3153 3228 2886 
Q 3006 2619 2597 2516 
z
" transform="scale(0.015625)"/>
       <path id="DejaVuSans-37" d="M 525 4666 
L 3525 4666 
L 3525 4397 
L 1831 0 
L 1172 0 
L 2766 4134 
L 525 4134 
L 525 4666 
z
" transform="scale(0.015625)"/>
       <path id="DejaVuSans-38" d="M 2034 2216 
Q 1584 2216 1326 1975 
Q 1069 1734 1069 1313 
Q 1069 891 1326 650 
Q 1584 409 2034 409 
Q 2484 409 2743 651 
Q 3003 894 3003 1313 
Q 3003 1734 2745 1975 
Q 2488 2216 2034 2216 
z
M 1403 2484 
Q 997 2584 770 2862 
Q 544 3141 544 3541 
Q 544 4100 942 4425 
Q 1341 4750 2034 4750 
Q 2731 4750 3128 4425 
Q 3525 4100 3525 3541 
Q 3525 3141 3298 2862 
Q 3072 2584 2669 2484 
Q 3125 2378 3379 2068 
Q 3634 1759 3634 1313 
Q 3634 634 3220 271 
Q 2806 -91 2034 -91 
Q 1263 -91 848 271 
Q 434 634 434 1313 
Q 434 1759 690 2068 
Q 947 2378 1403 2484 
z
M 1172 3481 
Q 1172 3119 1398 2916 
Q 1625 2713 2034 2713 
Q 2441 2713 2670 2916 
Q 2900 3119 2900 3481 
Q 2900 3844 2670 4047 
Q 2441 4250 2034 4250 
Q 1625 4250 1398 4047 
Q 1172 3844 1172 3481 
z
" transform="scale(0.015625)"/>
      </defs>
      <use xlink:href="#DejaVuSans-6e"/>
      <use xlink:href="#DejaVuSans-65" x="63.378906"/>
      <use xlink:href="#DejaVuSans-75" x="124.902344"/>
      <use xlink:href="#DejaVuSans-72" x="188.28125"/>
      <use xlink:href="#DejaVuSans-61" x="229.394531"/>
      <use xlink:href="#DejaVuSans-6c" x="290.673828"/>
      <use xlink:href="#DejaVuSans-5f" x="318.457031"/>
      <use xlink:href="#DejaVuSans-6e" x="368.457031"/>
      <use xlink:href="#DejaVuSans-65" x="431.835938"/>
      <use xlink:href="#DejaVuSans-74" x="493.359375"/>
      <use xlink:href="#DejaVuSans-77" x="532.568359"/>
      <use xlink:href="#DejaVuSans-6f" x="614.355469"/>
      <use xlink:href="#DejaVuSans-72" x="675.537109"/>
      <use xlink:href="#DejaVuSans-6b" x="716.650391"/>
      <use xlink:href="#DejaVuSans-20" x="774.560547"/>
      <use xlink:href="#DejaVuSans-28" x="806.347656"/>
      <use xlink:href="#DejaVuSans-39" x="845.361328"/>
      <use xlink:href="#DejaVuSans-33" x="908.984375"/>
      <use xlink:href="#DejaVuSans-2e" x="972.607422"/>
      <use xlink:href="#DejaVuSans-37" x="1004.394531"/>
      <use xlink:href="#DejaVuSans-38" x="1068.017578"/>
      <use xlink:href="#DejaVuSans-25" x="1131.640625"/>
      <use xlink:href="#DejaVuSans-29" x="1226.660156"/>
     </g>
    </g>
    <g id="patch_25">
     <path d="M 598.246353 172.619713 
L 626.246353 172.619713 
L 626.246353 162.819713 
L 598.246353 162.819713 
z
" style="fill: #eb575e; stroke: #ffffff; stroke-linejoin: miter"/>
    </g>
    <g id="text_5">
     <!-- random_forest (93.71%) -->
     <g transform="translate(637.446353 172.619713) scale(0.14 -0.14)">
      <defs>
       <path id="DejaVuSans-66" d="M 2375 4863 
L 2375 4384 
L 1825 4384 
Q 1516 4384 1395 4259 
Q 1275 4134 1275 3809 
L 1275 3500 
L 2222 3500 
L 2222 3053 
L 1275 3053 
L 1275 0 
L 697 0 
L 697 3053 
L 147 3053 
L 147 3500 
L 697 3500 
L 697 3744 
Q 697 4328 969 4595 
Q 1241 4863 1831 4863 
L 2375 4863 
z
" transform="scale(0.015625)"/>
      </defs>
      <use xlink:href="#DejaVuSans-72"/>
      <use xlink:href="#DejaVuSans-61" x="41.113281"/>
      <use xlink:href="#DejaVuSans-6e" x="102.392578"/>
      <use xlink:href="#DejaVuSans-64" x="165.771484"/>
      <use xlink:href="#DejaVuSans-6f" x="229.248047"/>
      <use xlink:href="#DejaVuSans-6d" x="290.429688"/>
      <use xlink:href="#DejaVuSans-5f" x="387.841797"/>
      <use xlink:href="#DejaVuSans-66" x="437.841797"/>
      <use xlink:href="#DejaVuSans-6f" x="473.046875"/>
      <use xlink:href="#DejaVuSans-72" x="534.228516"/>
      <use xlink:href="#DejaVuSans-65" x="573.091797"/>
      <use xlink:href="#DejaVuSans-73" x="634.615234"/>
      <use xlink:href="#DejaVuSans-74" x="686.714844"/>
      <use xlink:href="#DejaVuSans-20" x="725.923828"/>
      <use xlink:href="#DejaVuSans-28" x="757.710938"/>
      <use xlink:href="#DejaVuSans-39" x="796.724609"/>
      <use xlink:href="#DejaVuSans-33" x="860.347656"/>
      <use xlink:href="#DejaVuSans-2e" x="923.970703"/>
      <use xlink:href="#DejaVuSans-37" x="955.757812"/>
      <use xlink:href="#DejaVuSans-31" x="1019.380859"/>
      <use xlink:href="#DejaVuSans-25" x="1083.003906"/>
      <use xlink:href="#DejaVuSans-29" x="1178.023438"/>
     </g>
    </g>
    <g id="patch_26">
     <path d="M 598.246353 193.558463 
L 626.246353 193.558463 
L 626.246353 183.758463 
L 598.246353 183.758463 
z
" style="fill: #eb575e; stroke: #ffffff; stroke-linejoin: miter"/>
    </g>
    <g id="text_6">
     <!-- crf (93.23%) -->
     <g transform="translate(637.446353 193.558463) scale(0.14 -0.14)">
      <defs>
       <path id="DejaVuSans-63" d="M 3122 3366 
L 3122 2828 
Q 2878 2963 2633 3030 
Q 2388 3097 2138 3097 
Q 1578 3097 1268 2742 
Q 959 2388 959 1747 
Q 959 1106 1268 751 
Q 1578 397 2138 397 
Q 2388 397 2633 464 
Q 2878 531 3122 666 
L 3122 134 
Q 2881 22 2623 -34 
Q 2366 -91 2075 -91 
Q 1284 -91 818 406 
Q 353 903 353 1747 
Q 353 2603 823 3093 
Q 1294 3584 2113 3584 
Q 2378 3584 2631 3529 
Q 2884 3475 3122 3366 
z
" transform="scale(0.015625)"/>
      </defs>
      <use xlink:href="#DejaVuSans-63"/>
      <use xlink:href="#DejaVuSans-72" x="54.980469"/>
      <use xlink:href="#DejaVuSans-66" x="96.09375"/>
      <use xlink:href="#DejaVuSans-20" x="131.298828"/>
      <use xlink:href="#DejaVuSans-28" x="163.085938"/>
      <use xlink:href="#DejaVuSans-39" x="202.099609"/>
      <use xlink:href="#DejaVuSans-33" x="265.722656"/>
      <use xlink:href="#DejaVuSans-2e" x="329.345703"/>
      <use xlink:href="#DejaVuSans-32" x="361.132812"/>
      <use xlink:href="#DejaVuSans-33" x="424.755859"/>
      <use xlink:href="#DejaVuSans-25" x="488.378906"/>
      <use xlink:href="#DejaVuSans-29" x="583.398438"/>
     </g>
    </g>
    <g id="patch_27">
     <path d="M 598.246353 214.107838 
L 626.246353 214.107838 
L 626.246353 204.307838 
L 598.246353 204.307838 
z
" style="fill: #eb575e; stroke: #ffffff; stroke-linejoin: miter"/>
    </g>
    <g id="text_7">
     <!-- logistic_regression (93.11%) -->
     <g transform="translate(637.446353 214.107838) scale(0.14 -0.14)">
      <use xlink:href="#DejaVuSans-6c"/>
      <use xlink:href="#DejaVuSans-6f" x="27.783203"/>
      <use xlink:href="#DejaVuSans-67" x="88.964844"/>
      <use xlink:href="#DejaVuSans-69" x="152.441406"/>
      <use xlink:href="#DejaVuSans-73" x="180.224609"/>
      <use xlink:href="#DejaVuSans-74" x="232.324219"/>
      <use xlink:href="#DejaVuSans-69" x="271.533203"/>
      <use xlink:href="#DejaVuSans-63" x="299.316406"/>
      <use xlink:href="#DejaVuSans-5f" x="354.296875"/>
      <use xlink:href="#DejaVuSans-72" x="404.296875"/>
      <use xlink:href="#DejaVuSans-65" x="443.160156"/>
      <use xlink:href="#DejaVuSans-67" x="504.683594"/>
      <use xlink:href="#DejaVuSans-72" x="568.160156"/>
      <use xlink:href="#DejaVuSans-65" x="607.023438"/>
      <use xlink:href="#DejaVuSans-73" x="668.546875"/>
      <use xlink:href="#DejaVuSans-73" x="720.646484"/>
      <use xlink:href="#DejaVuSans-69" x="772.746094"/>
      <use xlink:href="#DejaVuSans-6f" x="800.529297"/>
      <use xlink:href="#DejaVuSans-6e" x="861.710938"/>
      <use xlink:href="#DejaVuSans-20" x="925.089844"/>
      <use xlink:href="#DejaVuSans-28" x="956.876953"/>
      <use xlink:href="#DejaVuSans-39" x="995.890625"/>
      <use xlink:href="#DejaVuSans-33" x="1059.513672"/>
      <use xlink:href="#DejaVuSans-2e" x="1123.136719"/>
      <use xlink:href="#DejaVuSans-31" x="1154.923828"/>
      <use xlink:href="#DejaVuSans-31" x="1218.546875"/>
      <use xlink:href="#DejaVuSans-25" x="1282.169922"/>
      <use xlink:href="#DejaVuSans-29" x="1377.189453"/>
     </g>
    </g>
    <g id="patch_28">
     <path d="M 598.246353 235.046588 
L 626.246353 235.046588 
L 626.246353 225.246588 
L 598.246353 225.246588 
z
" style="fill: #ec5860; stroke: #ffffff; stroke-linejoin: miter"/>
    </g>
    <g id="text_8">
     <!-- svm (92.63%) -->
     <g transform="translate(637.446353 235.046588) scale(0.14 -0.14)">
      <defs>
       <path id="DejaVuSans-76" d="M 191 3500 
L 800 3500 
L 1894 563 
L 2988 3500 
L 3597 3500 
L 2284 0 
L 1503 0 
L 191 3500 
z
" transform="scale(0.015625)"/>
       <path id="DejaVuSans-36" d="M 2113 2584 
Q 1688 2584 1439 2293 
Q 1191 2003 1191 1497 
Q 1191 994 1439 701 
Q 1688 409 2113 409 
Q 2538 409 2786 701 
Q 3034 994 3034 1497 
Q 3034 2003 2786 2293 
Q 2538 2584 2113 2584 
z
M 3366 4563 
L 3366 3988 
Q 3128 4100 2886 4159 
Q 2644 4219 2406 4219 
Q 1781 4219 1451 3797 
Q 1122 3375 1075 2522 
Q 1259 2794 1537 2939 
Q 1816 3084 2150 3084 
Q 2853 3084 3261 2657 
Q 3669 2231 3669 1497 
Q 3669 778 3244 343 
Q 2819 -91 2113 -91 
Q 1303 -91 875 529 
Q 447 1150 447 2328 
Q 447 3434 972 4092 
Q 1497 4750 2381 4750 
Q 2619 4750 2861 4703 
Q 3103 4656 3366 4563 
z
" transform="scale(0.015625)"/>
      </defs>
      <use xlink:href="#DejaVuSans-73"/>
      <use xlink:href="#DejaVuSans-76" x="52.099609"/>
      <use xlink:href="#DejaVuSans-6d" x="111.279297"/>
      <use xlink:href="#DejaVuSans-20" x="208.691406"/>
      <use xlink:href="#DejaVuSans-28" x="240.478516"/>
      <use xlink:href="#DejaVuSans-39" x="279.492188"/>
      <use xlink:href="#DejaVuSans-32" x="343.115234"/>
      <use xlink:href="#DejaVuSans-2e" x="406.738281"/>
      <use xlink:href="#DejaVuSans-36" x="438.525391"/>
      <use xlink:href="#DejaVuSans-33" x="502.148438"/>
      <use xlink:href="#DejaVuSans-25" x="565.771484"/>
      <use xlink:href="#DejaVuSans-29" x="660.791016"/>
     </g>
    </g>
    <g id="patch_29">
     <path d="M 598.246353 255.595963 
L 626.246353 255.595963 
L 626.246353 245.795963 
L 598.246353 245.795963 
z
" style="fill: #ec5a62; stroke: #ffffff; stroke-linejoin: miter"/>
    </g>
    <g id="text_9">
     <!-- naive_bayes (91.03%) -->
     <g transform="translate(637.446353 255.595963) scale(0.14 -0.14)">
      <defs>
       <path id="DejaVuSans-79" d="M 2059 -325 
Q 1816 -950 1584 -1140 
Q 1353 -1331 966 -1331 
L 506 -1331 
L 506 -850 
L 844 -850 
Q 1081 -850 1212 -737 
Q 1344 -625 1503 -206 
L 1606 56 
L 191 3500 
L 800 3500 
L 1894 763 
L 2988 3500 
L 3597 3500 
L 2059 -325 
z
" transform="scale(0.015625)"/>
       <path id="DejaVuSans-30" d="M 2034 4250 
Q 1547 4250 1301 3770 
Q 1056 3291 1056 2328 
Q 1056 1369 1301 889 
Q 1547 409 2034 409 
Q 2525 409 2770 889 
Q 3016 1369 3016 2328 
Q 3016 3291 2770 3770 
Q 2525 4250 2034 4250 
z
M 2034 4750 
Q 2819 4750 3233 4129 
Q 3647 3509 3647 2328 
Q 3647 1150 3233 529 
Q 2819 -91 2034 -91 
Q 1250 -91 836 529 
Q 422 1150 422 2328 
Q 422 3509 836 4129 
Q 1250 4750 2034 4750 
z
" transform="scale(0.015625)"/>
      </defs>
      <use xlink:href="#DejaVuSans-6e"/>
      <use xlink:href="#DejaVuSans-61" x="63.378906"/>
      <use xlink:href="#DejaVuSans-69" x="124.658203"/>
      <use xlink:href="#DejaVuSans-76" x="152.441406"/>
      <use xlink:href="#DejaVuSans-65" x="211.621094"/>
      <use xlink:href="#DejaVuSans-5f" x="273.144531"/>
      <use xlink:href="#DejaVuSans-62" x="323.144531"/>
      <use xlink:href="#DejaVuSans-61" x="386.621094"/>
      <use xlink:href="#DejaVuSans-79" x="447.900391"/>
      <use xlink:href="#DejaVuSans-65" x="507.080078"/>
      <use xlink:href="#DejaVuSans-73" x="568.603516"/>
      <use xlink:href="#DejaVuSans-20" x="620.703125"/>
      <use xlink:href="#DejaVuSans-28" x="652.490234"/>
      <use xlink:href="#DejaVuSans-39" x="691.503906"/>
      <use xlink:href="#DejaVuSans-31" x="755.126953"/>
      <use xlink:href="#DejaVuSans-2e" x="818.75"/>
      <use xlink:href="#DejaVuSans-30" x="850.537109"/>
      <use xlink:href="#DejaVuSans-33" x="914.160156"/>
      <use xlink:href="#DejaVuSans-25" x="977.783203"/>
      <use xlink:href="#DejaVuSans-29" x="1072.802734"/>
     </g>
    </g>
    <g id="patch_30">
     <path d="M 598.246353 276.534713 
L 626.246353 276.534713 
L 626.246353 266.734713 
L 598.246353 266.734713 
z
" style="fill: #ec5c63; stroke: #ffffff; stroke-linejoin: miter"/>
    </g>
    <g id="text_10">
     <!-- recurrent_neural_network (90.58%) -->
     <g transform="translate(637.446353 276.534713) scale(0.14 -0.14)">
      <defs>
       <path id="DejaVuSans-35" d="M 691 4666 
L 3169 4666 
L 3169 4134 
L 1269 4134 
L 1269 2991 
Q 1406 3038 1543 3061 
Q 1681 3084 1819 3084 
Q 2600 3084 3056 2656 
Q 3513 2228 3513 1497 
Q 3513 744 3044 326 
Q 2575 -91 1722 -91 
Q 1428 -91 1123 -41 
Q 819 9 494 109 
L 494 744 
Q 775 591 1075 516 
Q 1375 441 1709 441 
Q 2250 441 2565 725 
Q 2881 1009 2881 1497 
Q 2881 1984 2565 2268 
Q 2250 2553 1709 2553 
Q 1456 2553 1204 2497 
Q 953 2441 691 2322 
L 691 4666 
z
" transform="scale(0.015625)"/>
      </defs>
      <use xlink:href="#DejaVuSans-72"/>
      <use xlink:href="#DejaVuSans-65" x="38.863281"/>
      <use xlink:href="#DejaVuSans-63" x="100.386719"/>
      <use xlink:href="#DejaVuSans-75" x="155.367188"/>
      <use xlink:href="#DejaVuSans-72" x="218.746094"/>
      <use xlink:href="#DejaVuSans-72" x="258.109375"/>
      <use xlink:href="#DejaVuSans-65" x="296.972656"/>
      <use xlink:href="#DejaVuSans-6e" x="358.496094"/>
      <use xlink:href="#DejaVuSans-74" x="421.875"/>
      <use xlink:href="#DejaVuSans-5f" x="461.083984"/>
      <use xlink:href="#DejaVuSans-6e" x="511.083984"/>
      <use xlink:href="#DejaVuSans-65" x="574.462891"/>
      <use xlink:href="#DejaVuSans-75" x="635.986328"/>
      <use xlink:href="#DejaVuSans-72" x="699.365234"/>
      <use xlink:href="#DejaVuSans-61" x="740.478516"/>
      <use xlink:href="#DejaVuSans-6c" x="801.757812"/>
      <use xlink:href="#DejaVuSans-5f" x="829.541016"/>
      <use xlink:href="#DejaVuSans-6e" x="879.541016"/>
      <use xlink:href="#DejaVuSans-65" x="942.919922"/>
      <use xlink:href="#DejaVuSans-74" x="1004.443359"/>
      <use xlink:href="#DejaVuSans-77" x="1043.652344"/>
      <use xlink:href="#DejaVuSans-6f" x="1125.439453"/>
      <use xlink:href="#DejaVuSans-72" x="1186.621094"/>
      <use xlink:href="#DejaVuSans-6b" x="1227.734375"/>
      <use xlink:href="#DejaVuSans-20" x="1285.644531"/>
      <use xlink:href="#DejaVuSans-28" x="1317.431641"/>
      <use xlink:href="#DejaVuSans-39" x="1356.445312"/>
      <use xlink:href="#DejaVuSans-30" x="1420.068359"/>
      <use xlink:href="#DejaVuSans-2e" x="1483.691406"/>
      <use xlink:href="#DejaVuSans-35" x="1515.478516"/>
      <use xlink:href="#DejaVuSans-38" x="1579.101562"/>
      <use xlink:href="#DejaVuSans-25" x="1642.724609"/>
      <use xlink:href="#DejaVuSans-29" x="1737.744141"/>
     </g>
    </g>
    <g id="patch_31">
     <path d="M 598.246353 297.473463 
L 626.246353 297.473463 
L 626.246353 287.673463 
L 598.246353 287.673463 
z
" style="fill: #ed636a; stroke: #ffffff; stroke-linejoin: miter"/>
    </g>
    <g id="text_11">
     <!-- hmm (86.76%) -->
     <g transform="translate(637.446353 297.473463) scale(0.14 -0.14)">
      <defs>
       <path id="DejaVuSans-68" d="M 3513 2113 
L 3513 0 
L 2938 0 
L 2938 2094 
Q 2938 2591 2744 2837 
Q 2550 3084 2163 3084 
Q 1697 3084 1428 2787 
Q 1159 2491 1159 1978 
L 1159 0 
L 581 0 
L 581 4863 
L 1159 4863 
L 1159 2956 
Q 1366 3272 1645 3428 
Q 1925 3584 2291 3584 
Q 2894 3584 3203 3211 
Q 3513 2838 3513 2113 
z
" transform="scale(0.015625)"/>
      </defs>
      <use xlink:href="#DejaVuSans-68"/>
      <use xlink:href="#DejaVuSans-6d" x="63.378906"/>
      <use xlink:href="#DejaVuSans-6d" x="160.791016"/>
      <use xlink:href="#DejaVuSans-20" x="258.203125"/>
      <use xlink:href="#DejaVuSans-28" x="289.990234"/>
      <use xlink:href="#DejaVuSans-38" x="329.003906"/>
      <use xlink:href="#DejaVuSans-36" x="392.626953"/>
      <use xlink:href="#DejaVuSans-2e" x="456.25"/>
      <use xlink:href="#DejaVuSans-37" x="488.037109"/>
      <use xlink:href="#DejaVuSans-36" x="551.660156"/>
      <use xlink:href="#DejaVuSans-25" x="615.283203"/>
      <use xlink:href="#DejaVuSans-29" x="710.302734"/>
     </g>
    </g>
    <g id="patch_32">
     <path d="M 598.246353 318.022838 
L 626.246353 318.022838 
L 626.246353 308.222838 
L 598.246353 308.222838 
z
" style="fill: #ed656c; stroke: #ffffff; stroke-linejoin: miter"/>
    </g>
    <g id="text_12">
     <!-- knn (85.96%) -->
     <g transform="translate(637.446353 318.022838) scale(0.14 -0.14)">
      <use xlink:href="#DejaVuSans-6b"/>
      <use xlink:href="#DejaVuSans-6e" x="57.910156"/>
      <use xlink:href="#DejaVuSans-6e" x="121.289062"/>
      <use xlink:href="#DejaVuSans-20" x="184.667969"/>
      <use xlink:href="#DejaVuSans-28" x="216.455078"/>
      <use xlink:href="#DejaVuSans-38" x="255.46875"/>
      <use xlink:href="#DejaVuSans-35" x="319.091797"/>
      <use xlink:href="#DejaVuSans-2e" x="382.714844"/>
      <use xlink:href="#DejaVuSans-39" x="414.501953"/>
      <use xlink:href="#DejaVuSans-36" x="478.125"/>
      <use xlink:href="#DejaVuSans-25" x="541.748047"/>
      <use xlink:href="#DejaVuSans-29" x="636.767578"/>
     </g>
    </g>
   </g>
  </g>
 </g>
</svg>
