<?xml version="1.0" encoding="utf-8" standalone="no"?>
<!DOCTYPE svg PUBLIC "-//W3C//DTD SVG 1.1//EN"
  "http://www.w3.org/Graphics/SVG/1.1/DTD/svg11.dtd">
<svg xmlns:xlink="http://www.w3.org/1999/xlink" width="898.989108pt" height="653.068743pt" viewBox="0 0 898.989108 653.068743" xmlns="http://www.w3.org/2000/svg" version="1.1">
 <metadata>
  <rdf:RDF xmlns:dc="http://purl.org/dc/elements/1.1/" xmlns:cc="http://creativecommons.org/ns#" xmlns:rdf="http://www.w3.org/1999/02/22-rdf-syntax-ns#">
   <cc:Work>
    <dc:type rdf:resource="http://purl.org/dc/dcmitype/StillImage"/>
    <dc:date>2023-07-18T15:49:48.648548</dc:date>
    <dc:format>image/svg+xml</dc:format>
    <dc:creator>
     <cc:Agent>
      <dc:title>Matplotlib v3.7.0, https://matplotlib.org/</dc:title>
     </cc:Agent>
    </dc:creator>
   </cc:Work>
  </rdf:RDF>
 </metadata>
 <defs>
  <style type="text/css">*{stroke-linejoin: round; stroke-linecap: butt}</style>
 </defs>
 <g id="figure_1">
  <g id="patch_1">
   <path d="M 0 653.068743 
L 898.989108 653.068743 
L 898.989108 0 
L 0 0 
z
" style="fill: #ffffff"/>
  </g>
  <g id="axes_1">
   <g id="patch_2">
    <path d="M 326.534295 7.2 
C 315.663734 7.2 304.80026 7.755072 293.986311 8.863048 
C 283.172363 9.971024 272.422039 11.630459 261.777338 13.834871 
L 266.758642 37.888681 
C 276.584521 35.853839 286.507896 34.322053 296.490002 33.299306 
C 306.472109 32.276559 316.499931 31.764185 326.534295 31.764185 
z
" style="fill: #f4f5f5; stroke: #ffffff; stroke-linejoin: miter"/>
   </g>
   <g id="patch_3">
    <path d="M 261.777338 13.834871 
C 222.056652 22.060629 184.264616 37.779844 150.427098 60.149877 
C 116.58958 82.519909 87.32221 111.133766 64.193885 144.45758 
C 41.065561 177.781394 24.497072 215.208883 15.376584 254.733719 
C 6.256096 294.258555 4.749544 335.161636 10.937689 375.250323 
C 17.125833 415.33901 30.896089 453.883943 51.510291 488.818892 
C 72.124493 523.75384 99.207594 554.44321 131.307783 579.241875 
C 163.407973 604.04054 199.941231 622.497322 238.949167 633.622831 
C 277.957102 644.74834 318.730017 648.340162 359.082249 644.205755 
C 399.434481 640.071348 438.631876 628.285933 474.573228 609.481274 
C 510.51458 590.676615 542.545984 565.194839 568.950374 534.401915 
C 595.354763 503.608991 615.651746 468.065155 628.753286 429.675761 
C 641.854827 391.286367 647.522561 350.749858 645.452664 310.239223 
C 643.382768 269.728589 633.612901 229.980866 616.666784 193.126761 
C 599.720666 156.272656 575.906611 122.982679 546.501188 95.041365 
C 517.095764 67.100051 482.633965 45.015754 444.96314 29.972319 
C 407.292315 14.928885 367.097836 7.200008 326.534355 7.2 
L 326.53435 31.764185 
C 363.977563 31.764192 401.08016 38.89854 435.853229 52.784787 
C 470.626298 66.671035 502.43719 87.056539 529.580657 112.848522 
C 556.724125 138.640504 578.70633 169.369713 594.3489 203.388887 
C 609.99147 237.408061 619.009809 274.098267 620.920482 311.492698 
C 622.831156 348.88713 617.599401 386.305446 605.505672 421.74181 
C 593.411942 457.178174 574.676266 489.987869 550.302983 518.412106 
C 525.9297 546.836344 496.36225 570.357983 463.185618 587.71613 
C 430.008985 605.074276 393.826775 615.953121 356.57856 619.769497 
C 319.330346 623.585872 281.693809 620.270344 245.686484 610.000644 
C 209.679159 599.730943 175.956151 582.693914 146.325207 559.802839 
C 116.694263 536.911763 91.694478 508.583114 72.665984 476.335469 
C 53.637489 444.087824 40.926484 408.507887 35.214351 371.502945 
C 29.502217 334.498003 30.89288 296.741312 39.311792 260.256848 
C 47.730704 223.772384 63.024694 189.223933 84.373917 158.463489 
C 105.723139 127.703045 132.739174 101.290255 163.973805 80.640994 
C 195.208437 59.991733 230.093394 45.481688 266.758642 37.888681 
z
" style="fill: #50a86a; stroke: #ffffff; stroke-linejoin: miter"/>
   </g>
   <g id="patch_4">
    <path d="M 326.534295 31.764185 
C 316.283709 31.764185 306.040097 32.298878 295.845217 33.366086 
C 285.650337 34.433294 275.518061 36.031563 265.489693 38.154379 
L 270.576743 62.186047 
C 279.769414 60.240133 289.057334 58.775052 298.40264 57.796779 
C 307.747947 56.818505 317.137925 56.328369 326.534295 56.328369 
z
" style="fill: #f4f5f5; stroke: #ffffff; stroke-linejoin: miter"/>
   </g>
   <g id="patch_5">
    <path d="M 265.489693 38.154379 
C 228.884856 45.902931 194.087838 60.550622 162.961287 81.313376 
C 131.834735 102.076129 104.94413 128.576746 83.728898 159.396675 
C 62.513666 190.216605 47.359226 224.795938 39.076779 261.283679 
C 30.794333 297.77142 29.534349 335.504691 35.364272 372.46367 
C 41.194196 409.422649 54.008114 444.935897 73.120111 477.102428 
C 92.232108 509.268959 117.294974 537.504399 146.96712 560.297334 
C 176.639266 583.09027 210.381634 600.026618 246.388031 610.199795 
C 282.394428 620.372972 320.010721 623.598159 357.223349 619.702717 
C 394.435977 615.807274 430.568893 604.86197 463.687941 587.452696 
C 496.806988 570.043422 526.310489 546.486454 550.619152 518.042772 
C 574.927815 489.59909 593.600021 456.785434 605.636267 421.358284 
C 617.672513 385.931134 622.854134 348.534101 620.903765 311.169008 
C 618.953395 273.803914 609.906466 237.149577 594.247252 203.168066 
C 578.588038 169.186554 556.601021 138.495213 529.463142 112.736919 
C 502.325264 86.978625 470.529542 66.621332 435.777968 52.754744 
C 401.026394 38.888157 363.950304 31.764191 326.534343 31.764185 
L 326.534339 56.328369 
C 360.832304 56.328375 394.818719 62.858677 426.674329 75.569716 
C 458.529938 88.280754 487.676017 106.941606 512.552405 130.553376 
C 537.428793 154.165145 557.583559 182.298874 571.937839 213.448593 
C 586.292119 244.598313 594.585136 278.198121 596.372975 312.449457 
C 598.160814 346.700793 593.410995 380.981407 582.37777 413.456294 
C 571.344544 445.931181 554.228355 476.010366 531.945414 502.083741 
C 509.662473 528.157116 482.617597 549.751004 452.25847 565.709505 
C 421.899343 581.668006 388.777503 591.701201 354.665928 595.272024 
C 320.554352 598.842846 286.07275 595.886424 253.066887 586.561012 
C 220.061023 577.2356 189.130518 561.710614 161.931051 540.81709 
C 134.731584 519.923566 111.75729 494.041079 94.23796 464.555093 
C 76.718629 435.069106 64.972537 402.515295 59.628441 368.636231 
C 54.284345 334.757166 55.43933 300.168335 63.031572 266.721239 
C 70.623815 233.274143 84.515385 201.576421 103.962681 173.324819 
C 123.409977 145.073217 148.059698 120.780985 176.592371 101.748461 
C 205.125043 82.715937 237.02231 69.288887 270.576743 62.186047 
z
" style="fill: #50a86a; stroke: #ffffff; stroke-linejoin: miter"/>
   </g>
   <g id="patch_6">
    <path d="M 326.534295 56.328369 
C 317.024663 56.328369 307.521658 56.830392 298.064958 57.832342 
C 288.608257 58.834292 279.21104 60.334773 269.912542 62.327519 
L 275.059974 86.346326 
C 283.513154 84.534739 292.056078 83.170666 300.653079 82.259802 
C 309.25008 81.348938 317.889175 80.892554 326.534295 80.892554 
z
" style="fill: #f4f5f5; stroke: #ffffff; stroke-linejoin: miter"/>
   </g>
   <g id="patch_7">
    <path d="M 269.912542 62.327519 
C 236.390024 69.511676 204.539042 83.010626 176.06315 102.102376 
C 147.587257 121.194126 123.003348 145.532123 103.626295 173.814648 
C 84.249242 202.097172 70.430777 233.810839 62.909982 267.259442 
C 55.389187 300.708044 54.302578 335.284423 59.708275 369.139257 
C 65.113971 402.994092 76.913847 435.512849 94.476786 464.956262 
C 112.039726 494.399674 135.046926 520.233285 162.267844 541.07538 
C 189.488763 561.917476 220.429286 577.389732 253.434558 586.664613 
C 286.439829 595.939493 320.910738 598.848641 355.003604 595.236461 
C 389.09647 591.62428 422.192441 581.556339 452.521374 565.571123 
C 482.850308 549.585907 509.861675 527.973578 532.110769 501.890074 
C 554.359863 475.80657 571.44282 445.725359 582.445956 413.255337 
C 593.449092 380.785314 598.172678 346.515875 596.364073 312.279925 
C 594.555468 278.043974 586.247501 244.462962 571.884526 213.332972 
C 557.52155 182.202981 537.364282 154.089084 512.490835 130.494954 
C 487.617387 106.900824 458.479263 88.254741 426.634917 75.553993 
C 394.790571 62.853246 360.818041 56.328376 326.534352 56.328369 
L 326.534347 80.892554 
C 357.701337 80.89256 388.585455 86.82426 417.53486 98.370394 
C 446.484266 109.916528 472.97347 126.867512 495.585695 148.316722 
C 518.19792 169.765931 536.522709 195.32402 549.579959 223.624011 
C 562.63721 251.924002 570.189907 282.452195 571.834093 313.575786 
C 573.478279 344.699378 569.18411 375.853413 559.18126 405.371615 
C 549.178409 434.889817 533.648448 462.236373 513.421999 485.948649 
C 493.195549 509.660925 468.639761 529.308497 441.068003 543.840512 
C 413.496246 558.372527 383.409 567.5252 352.415485 570.809001 
C 321.421971 574.092801 290.084781 571.448121 260.079989 563.016411 
C 230.075196 554.584702 201.947448 540.519015 177.201158 521.571655 
C 152.454868 502.624295 131.539232 479.139195 115.572924 452.372456 
C 99.606615 425.605718 88.879455 396.043211 83.965186 365.266088 
C 79.050916 334.488966 80.038742 303.055895 86.875829 272.648074 
C 93.712915 242.240254 106.275156 213.409647 123.890659 187.698261 
C 141.506162 161.986876 163.85517 139.861424 189.742345 122.505287 
C 215.629519 105.149151 244.584957 92.877378 275.059974 86.346326 
z
" style="fill: #50a86a; stroke: #ffffff; stroke-linejoin: miter"/>
   </g>
   <g id="patch_8">
    <path d="M 326.534295 80.892554 
C 316.164242 80.892554 305.804588 81.549229 295.517535 82.858638 
C 285.230483 84.168046 275.036663 86.127561 264.997283 88.725416 
L 271.150984 112.506315 
C 280.186426 110.168245 289.360864 108.404681 298.619211 107.226214 
C 307.877558 106.047746 317.201247 105.456738 326.534295 105.456738 
z
" style="fill: #f4f5f5; stroke: #ffffff; stroke-linejoin: miter"/>
   </g>
   <g id="patch_9">
    <path d="M 264.997283 88.725416 
C 235.034543 96.478771 206.805283 109.825469 181.798684 128.061431 
C 156.792085 146.297392 135.455744 169.096208 118.91522 195.25517 
C 102.374695 221.414133 90.926048 250.465019 85.173231 280.875302 
C 79.420413 311.285586 79.466396 342.510951 85.308753 372.904159 
C 91.15111 403.297368 102.685269 432.314409 119.302765 458.424542 
C 135.920262 484.534676 157.323658 507.270553 182.383857 525.432786 
C 207.444056 543.595018 235.712503 556.858517 265.697948 564.523592 
C 295.683393 572.188667 326.849122 574.118119 357.551046 570.210163 
C 388.252971 566.302208 417.941552 556.626795 445.050625 541.694332 
C 472.159697 526.761869 496.204032 506.839634 515.915215 482.978587 
C 535.626398 459.117541 550.651616 431.744775 560.198243 402.30429 
C 569.744869 372.863804 573.642026 341.882557 571.684128 310.994908 
C 569.72623 280.107258 561.948321 249.866067 548.76071 221.866653 
C 535.573099 193.86724 517.211832 168.610768 494.645525 147.429596 
C 472.079218 126.248424 445.711787 109.521676 416.934197 98.131742 
C 388.156608 86.741807 357.483953 80.892556 326.534312 80.892554 
L 326.534311 105.456738 
C 354.388987 105.45674 381.994376 110.721067 407.894207 120.972008 
C 433.794038 131.222949 457.524725 146.277021 477.834402 165.340076 
C 498.144078 184.403131 514.669218 207.133956 526.538068 232.333428 
C 538.406918 257.532901 545.407037 284.749972 547.169145 312.548857 
C 548.931253 340.347742 545.423811 368.230864 536.831848 394.727301 
C 528.239884 421.223738 514.717188 445.859227 496.977123 467.334169 
C 479.237058 488.80911 457.597157 506.739122 433.198992 520.178339 
C 408.800826 533.617555 382.081103 542.325428 354.449371 545.842587 
C 326.817639 549.359747 298.768483 547.62324 271.781583 540.724673 
C 244.794682 533.826105 219.35308 521.888956 196.798901 505.542947 
C 174.244722 489.196938 154.981665 468.734648 140.025918 445.235528 
C 125.070171 421.736408 114.689429 395.621071 109.431307 368.267183 
C 104.173186 340.913295 104.131802 312.810468 109.309337 285.441212 
C 114.486873 258.071957 124.790655 231.92616 139.677127 208.383093 
C 154.563599 184.840027 173.766306 164.321093 196.272245 147.908728 
C 218.778184 131.496362 244.184519 119.484334 271.150984 112.506315 
z
" style="fill: #52a96c; stroke: #ffffff; stroke-linejoin: miter"/>
   </g>
   <g id="patch_10">
    <path d="M 326.534295 105.456738 
C 316.969497 105.456738 307.414773 106.077462 297.930372 107.314994 
C 288.44597 108.552526 279.051869 110.404261 269.807305 112.858521 
L 276.110304 136.600286 
C 284.327694 134.418721 292.678006 132.772734 301.108585 131.672706 
C 309.539164 130.572677 318.032253 130.020923 326.534295 130.020923 
z
" style="fill: #f4f5f5; stroke: #ffffff; stroke-linejoin: miter"/>
   </g>
   <g id="patch_11">
    <path d="M 269.807305 112.858521 
C 242.913433 119.998347 217.607702 132.15182 195.222316 148.679131 
C 172.83693 165.206442 153.771727 185.812387 139.030381 209.412179 
C 124.289035 233.011972 114.134849 259.184083 109.102383 286.550702 
C 104.069918 313.91732 104.24906 341.989634 109.63038 369.289797 
C 115.011699 396.58996 125.499078 422.630348 140.540413 446.040084 
C 155.581749 469.449819 174.908381 489.810768 197.502872 506.051041 
C 220.097363 522.291314 245.55614 534.120836 272.538944 540.916849 
C 299.521748 547.712862 327.546624 549.35398 355.138221 545.753806 
C 382.729818 542.153632 409.395309 533.376471 433.730906 519.884391 
C 458.066503 506.392311 479.637535 488.426302 497.30841 466.932171 
C 514.979285 445.43804 528.434374 420.799706 536.965343 394.314237 
C 545.496313 367.828768 548.950785 339.969236 547.146903 312.202286 
C 545.343021 284.435336 538.313005 257.256929 526.426944 232.097854 
C 514.540884 206.938779 498.011082 184.248415 477.70774 165.221282 
C 457.404398 146.194149 433.690164 131.1701 407.813458 120.940066 
C 381.936753 110.710032 354.359773 105.456738 326.53429 105.456738 
L 326.53429 130.020923 
C 351.268053 130.020922 375.780924 134.690518 398.78244 143.783881 
C 421.783957 152.877245 442.863275 166.231955 460.910691 183.144962 
C 478.958106 200.057969 493.651263 220.227181 504.21665 242.590804 
C 514.782037 264.954426 521.030941 289.11301 522.634391 313.794743 
C 524.237842 338.476476 521.167199 363.240505 513.584116 386.783144 
C 506.001032 410.325783 494.040953 432.226524 478.333508 451.332419 
C 462.626064 470.438313 443.451813 486.408099 421.820171 498.401059 
C 400.188529 510.394019 376.485871 518.195939 351.960007 521.396094 
C 327.434143 524.596249 302.523142 523.137478 278.538428 517.096577 
C 254.553713 511.055676 231.923689 500.540546 211.839697 486.104747 
C 191.755705 471.668949 174.576477 453.570328 161.2064 432.761674 
C 147.836324 411.953021 138.51421 388.806009 133.730815 364.539197 
C 128.94742 340.272386 128.788182 315.319217 133.261485 290.993335 
C 137.734787 266.667452 146.76073 243.403353 159.864149 222.425759 
C 172.967568 201.448166 189.914415 183.131771 209.812536 168.440828 
C 229.710657 153.749885 252.20464 142.946797 276.110304 136.600286 
z
" style="fill: #52a96c; stroke: #ffffff; stroke-linejoin: miter"/>
   </g>
   <g id="patch_12">
    <path d="M 326.534295 130.020923 
C 317.702632 130.020923 308.881005 130.616289 300.129431 131.80297 
C 291.377856 132.989652 282.716224 134.764951 274.203462 137.116791 
L 280.744816 160.793992 
C 288.193483 158.736132 295.772411 157.182745 303.430039 156.144399 
C 311.087667 155.106053 318.80659 154.585108 326.534295 154.585108 
z
" style="fill: #f4f5f5; stroke: #ffffff; stroke-linejoin: miter"/>
   </g>
   <g id="patch_13">
    <path d="M 274.203462 137.116791 
C 250.402827 143.692247 228.053361 154.695059 208.32775 169.547906 
C 188.602138 184.400753 171.851526 202.839232 158.954826 223.895869 
C 146.058125 244.952505 137.244917 268.252459 132.977632 292.573173 
C 128.710348 316.893886 129.064953 341.802414 134.022839 365.991796 
C 138.980726 390.181177 148.453638 413.220805 161.944526 433.901781 
C 175.435414 454.582757 192.704121 472.536928 212.844551 486.822231 
C 232.984981 501.107535 255.638604 511.469671 279.616776 517.364935 
C 303.594947 523.260198 328.470818 524.583645 352.939144 521.265832 
C 377.407469 517.948019 401.032675 510.048009 422.575137 497.98032 
C 444.117599 485.91263 463.19383 469.892082 478.802891 450.759282 
C 494.411952 431.626482 506.275979 409.722022 513.772461 386.195238 
C 521.268944 362.668454 524.264434 337.938158 522.601756 313.301959 
C 520.939078 288.665759 514.64783 264.562218 504.058117 242.256057 
C 493.468405 219.949896 478.76874 199.838199 460.73042 182.976235 
C 442.6921 166.114271 421.636234 152.802208 398.667633 143.738535 
C 375.699031 134.674862 351.226569 130.020927 326.534327 130.020923 
L 326.534323 154.585108 
C 348.140035 154.585111 369.553439 158.657305 389.650966 166.588018 
C 409.748492 174.518732 428.172374 186.166787 443.955904 200.921006 
C 459.739434 215.675224 472.601641 233.272959 481.86764 252.79085 
C 491.133638 272.308741 496.63848 293.399339 498.093323 314.956014 
C 499.548166 336.512688 496.927113 358.151698 490.367691 378.737634 
C 483.808268 399.32357 473.427245 418.489972 459.769316 435.231172 
C 446.111388 451.972372 429.419686 465.990351 410.570032 476.54958 
C 391.720377 487.108808 371.048322 494.021317 349.638537 496.924403 
C 328.228753 499.827489 306.462365 498.669474 285.481465 493.511118 
C 264.500566 488.352762 244.678646 479.285893 227.055769 466.786252 
C 209.432893 454.286612 194.322774 438.576712 182.518247 420.480858 
C 170.71372 402.385005 162.424922 382.22533 158.086771 361.059621 
C 153.74862 339.893912 153.438342 318.098951 157.172215 296.818326 
C 160.906089 275.537702 168.617646 255.150242 179.902259 236.725685 
C 191.186872 218.301128 205.843658 202.167459 223.103568 189.171218 
C 240.363478 176.174977 259.919261 166.547516 280.744816 160.793992 
z
" style="fill: #52a96c; stroke: #ffffff; stroke-linejoin: miter"/>
   </g>
   <g id="patch_14">
    <path d="M 326.534295 154.585108 
C 317.562494 154.585108 308.604437 155.28729 299.742213 156.685221 
C 290.879989 158.083152 282.140752 160.172548 273.604585 162.934263 
L 281.165972 186.305711 
C 288.482687 183.938527 295.973462 182.147616 303.569653 180.94939 
C 311.165845 179.751163 318.84418 179.149292 326.534295 179.149292 
z
" style="fill: #f4f5f5; stroke: #ffffff; stroke-linejoin: miter"/>
   </g>
   <g id="patch_15">
    <path d="M 273.604585 162.934263 
C 253.197012 169.536745 234.203847 179.899789 217.607487 193.48738 
C 201.011127 207.074971 187.102733 223.648733 176.601699 242.351409 
C 166.100666 261.054086 159.191219 281.557562 156.230742 302.801323 
C 153.270265 324.045084 154.310694 345.656435 159.298216 366.517558 
C 164.285737 387.37868 173.132851 407.123593 185.381952 424.731015 
C 197.631053 442.338438 213.067247 457.499471 230.892115 469.42993 
C 248.716984 481.36039 268.617814 489.85097 289.565261 494.462508 
C 310.512707 499.074047 332.139275 499.725639 353.326357 496.383582 
C 374.51344 493.041525 394.889337 485.764451 413.400133 474.928758 
C 431.910928 464.093064 448.231874 449.888849 461.518791 433.050808 
C 474.805707 416.212766 484.825493 397.036299 491.059887 376.513284 
C 497.294281 355.990269 499.633909 334.480756 497.957757 313.097297 
C 496.281606 291.713838 490.61908 270.831578 481.263067 251.530624 
C 471.907053 232.22967 459.021692 214.848633 443.273461 200.286524 
C 427.52523 185.724415 409.190412 174.236707 389.21735 166.417587 
C 369.244289 158.598468 347.983387 154.585113 326.534335 154.585108 
L 326.53433 179.149292 
C 344.919231 179.149297 363.142861 182.589315 380.262628 189.291418 
C 397.382395 195.99352 413.097954 205.840127 426.596437 218.321935 
C 440.094921 230.803743 451.139516 245.701774 459.158956 262.245449 
C 467.178396 278.789124 472.03199 296.688204 473.468691 315.016884 
C 474.905393 333.345563 472.899997 351.782288 467.556231 369.373443 
C 462.212464 386.964599 453.624077 403.401571 442.235291 417.834178 
C 430.846506 432.266785 416.857123 444.441827 400.990727 453.729564 
C 385.124331 463.017301 367.659276 469.254793 349.49892 472.119413 
C 331.338563 474.984033 312.801506 474.425526 294.846551 470.472779 
C 276.891597 466.520032 259.833743 459.242391 244.555284 449.016283 
C 229.276825 438.790175 216.045802 425.795004 205.546573 410.702927 
C 195.047343 395.610851 187.464103 378.68664 183.189084 360.805678 
C 178.914066 342.924716 178.022269 324.400701 180.559821 306.191763 
C 183.097373 287.982825 189.019756 270.408416 198.020642 254.377551 
C 207.021528 238.346686 218.943008 224.140604 233.168459 212.494097 
C 247.393911 200.84759 263.673766 191.964981 281.165972 186.305711 
z
" style="fill: #52a96c; stroke: #ffffff; stroke-linejoin: miter"/>
   </g>
   <g id="patch_16">
    <path d="M 326.534295 179.149292 
C 317.297903 179.149292 308.081926 180.017538 299.00805 181.742564 
C 289.934174 183.46759 281.042512 186.041772 272.450465 189.43112 
L 281.464437 212.281667 
C 288.624476 209.45721 296.034194 207.312058 303.595758 205.874537 
C 311.157321 204.437015 318.837302 203.713477 326.534295 203.713477 
z
" style="fill: #f4f5f5; stroke: #ffffff; stroke-linejoin: miter"/>
   </g>
   <g id="patch_17">
    <path d="M 272.450465 189.43112 
C 255.52913 196.106166 239.988849 205.85655 226.616749 218.188408 
C 213.244648 230.520267 202.270374 245.221819 194.249782 261.548421 
C 186.229189 277.875022 181.30002 295.546287 179.71194 313.667154 
C 178.12386 331.788021 179.904142 350.04729 184.962614 367.520117 
C 190.021085 384.992944 198.270875 401.379258 209.294124 415.849081 
C 220.317374 430.318905 233.924775 442.623739 249.427104 452.140336 
C 264.929433 461.656932 282.06046 468.221858 299.952485 471.502594 
C 317.844511 474.783331 336.190266 474.723536 354.060526 471.326239 
C 371.930786 467.928942 389.018655 461.252486 404.45862 451.635038 
C 419.898585 442.01759 433.425487 429.624316 444.35418 415.082945 
C 455.282872 400.541573 463.425671 384.10183 468.370137 366.5964 
C 473.314603 349.090971 474.975823 330.820484 473.269655 312.710355 
C 471.563486 294.600225 466.51923 276.961466 458.392382 260.687495 
C 450.265533 244.413523 439.195659 229.78382 425.743457 217.53939 
C 412.291254 205.29496 396.687745 195.646084 379.723257 189.081484 
C 362.75877 182.516883 344.724645 179.149296 326.534323 179.149292 
L 326.534318 203.713477 
C 341.69292 203.71348 356.721358 206.519803 370.85843 211.990303 
C 384.995503 217.460803 397.998428 225.501534 409.208597 235.705225 
C 420.418765 245.908917 429.64366 258.100336 436.416034 271.661979 
C 443.188407 285.223622 447.391954 299.922587 448.813761 315.014362 
C 450.235568 330.106137 448.851219 345.331542 444.73083 359.9194 
C 440.610442 374.507258 433.824776 388.207044 424.717532 400.324854 
C 415.610288 412.442664 404.33787 422.770392 391.471232 430.784932 
C 378.604595 438.799471 364.364704 444.363185 349.472821 447.194266 
C 334.580938 450.025347 319.292808 450.075176 304.382787 447.341229 
C 289.472765 444.607282 275.19691 439.13651 262.278303 431.206013 
C 249.359695 423.275516 238.020194 413.021487 228.834153 400.963301 
C 219.648111 388.905115 212.773287 375.249853 208.557894 360.689164 
C 204.342501 346.128475 202.858932 330.912417 204.182332 315.811695 
C 205.505733 300.710973 209.613374 285.984918 216.297201 272.379417 
C 222.981028 258.773916 232.126256 246.522623 243.269673 236.246074 
C 254.41309 225.969525 267.363324 217.844205 281.464437 212.281667 
z
" style="fill: #54a96d; stroke: #ffffff; stroke-linejoin: miter"/>
   </g>
   <g id="patch_18">
    <path d="M 326.534295 203.713477 
C 317.638091 203.713477 308.768159 204.680036 300.080752 206.596128 
C 291.393345 208.512219 282.939774 211.366525 274.868957 215.108766 
L 285.202025 237.393892 
C 291.658678 234.4001 298.421535 232.116655 305.371461 230.583782 
C 312.321387 229.050909 319.417332 228.277662 326.534295 228.277662 
z
" style="fill: #f4f5f5; stroke: #ffffff; stroke-linejoin: miter"/>
   </g>
   <g id="patch_19">
    <path d="M 274.868957 215.108766 
C 261.25355 221.421896 248.909865 230.177449 238.450922 240.9406 
C 227.991979 251.703752 219.593831 264.293326 213.673554 278.084093 
C 207.753277 291.874859 204.410525 306.634679 203.811309 321.63054 
C 203.212093 336.626402 205.366499 351.605881 210.167533 365.825058 
C 214.968567 380.044235 222.335415 393.263759 231.902218 404.827115 
C 241.469022 416.39047 253.074745 426.103012 266.143016 433.48239 
C 279.211287 440.861767 293.522129 445.783765 308.364829 448.003942 
C 323.207528 450.224119 338.33224 449.705105 352.98783 446.472674 
C 367.643419 443.240244 381.583192 437.348808 394.114861 429.090952 
C 406.64653 420.833095 417.559151 410.347822 426.310775 398.155857 
C 435.062399 385.963893 441.505711 372.270464 445.320719 357.755622 
C 449.135726 343.24078 450.258212 328.148851 448.63243 313.229342 
C 447.006648 298.309833 442.659966 283.813881 435.80825 270.461394 
C 428.956534 257.108907 419.715119 245.124646 408.542959 235.10378 
C 397.370798 225.082914 384.455951 217.194125 370.439804 211.829189 
C 356.423657 206.464253 341.542141 203.713479 326.534312 203.713477 
L 326.534309 228.277662 
C 338.540572 228.277663 350.445784 230.478283 361.658702 234.770231 
C 372.87162 239.06218 383.203497 245.373212 392.141226 253.389904 
C 401.078954 261.406597 408.472086 270.994006 413.953459 281.675995 
C 419.434831 292.357985 422.912178 303.954747 424.212803 315.890354 
C 425.513429 327.825961 424.61544 339.899504 421.563434 351.511377 
C 418.511428 363.123251 413.356779 374.077994 406.355479 383.831566 
C 399.35418 393.585137 390.624083 401.973356 380.598748 408.579641 
C 370.573412 415.185926 359.421595 419.899075 347.697123 422.485019 
C 335.972651 425.070964 323.872882 425.486176 311.998722 423.710034 
C 300.124562 421.933892 288.675888 417.996294 278.221272 412.092792 
C 267.766655 406.18929 258.482077 398.419256 250.828634 389.168572 
C 243.175191 379.917888 237.281713 369.342268 233.440885 357.966927 
C 229.600058 346.591585 227.876533 334.608001 228.355906 322.611312 
C 228.835279 310.614623 231.50948 298.806767 236.245702 287.774154 
C 240.981924 276.741541 247.700442 266.669881 256.067597 258.05936 
C 264.434751 249.448839 274.309699 242.444397 285.202025 237.393892 
z
" style="fill: #56aa6f; stroke: #ffffff; stroke-linejoin: miter"/>
   </g>
   <g id="patch_20">
    <path d="M 326.534295 228.277662 
C 318.33326 228.277662 310.164393 229.304415 302.218451 231.333946 
C 294.27251 233.363477 286.61183 236.379864 279.415301 240.312668 
L 291.195049 261.868101 
C 296.592446 258.918498 302.337956 256.656208 308.297412 255.13406 
C 314.256868 253.611911 320.383519 252.841846 326.534295 252.841846 
z
" style="fill: #f4f5f5; stroke: #ffffff; stroke-linejoin: miter"/>
   </g>
   <g id="patch_21">
    <path d="M 279.415301 240.312668 
C 268.999109 246.004974 259.700109 253.537978 251.969847 262.545887 
C 244.239585 271.553797 238.205242 281.888411 234.159836 293.047895 
C 230.114431 304.207379 228.12452 316.008133 228.286732 327.87713 
C 228.448943 339.746126 230.760607 351.488091 235.109473 362.532853 
C 239.45834 373.577614 245.772858 383.743459 253.746406 392.536748 
C 261.719954 401.330036 271.221346 408.606099 281.789209 414.01162 
C 292.357073 419.417141 303.81754 422.863186 315.614108 424.182422 
C 327.410675 425.501657 339.349261 424.672378 350.850145 421.734852 
C 362.35103 418.797326 373.224994 413.799884 382.944016 406.985193 
C 392.663037 400.170502 401.067214 391.650681 407.748452 381.83944 
C 414.429689 372.028198 419.278065 361.086956 422.05815 349.547002 
C 424.838234 338.007049 425.504287 326.058245 424.023967 314.280807 
C 422.543647 302.503369 418.941308 291.091065 413.391875 280.598058 
C 407.842442 270.105052 400.437216 260.703979 391.535784 252.851342 
C 382.634353 244.998705 372.383166 238.823699 361.280006 234.626173 
C 350.176845 230.428646 338.404386 228.27766 326.534281 228.277662 
L 326.534285 252.841846 
C 335.436863 252.841845 344.266208 254.455085 352.593578 257.60323 
C 360.920948 260.751374 368.609338 265.382629 375.285412 271.272107 
C 381.961486 277.161584 387.515405 284.212389 391.67748 292.082144 
C 395.839555 299.951899 398.541309 308.511127 399.651549 317.344205 
C 400.761789 326.177284 400.262249 335.138887 398.177186 343.793852 
C 396.092123 352.448817 392.455841 360.654749 387.444913 368.01318 
C 382.433984 375.371611 376.130852 381.761476 368.841586 386.872495 
C 361.552319 391.983513 353.396846 395.731595 344.771183 397.934739 
C 336.14552 400.137883 327.19158 400.759843 318.344154 399.770416 
C 309.496729 398.78099 300.901378 396.196456 292.975481 392.142315 
C 285.049583 388.088174 277.923539 382.631127 271.943378 376.036161 
C 265.963218 369.441194 261.227328 361.816811 257.965679 353.53324 
C 254.704029 345.249669 252.970281 336.443195 252.848622 327.541447 
C 252.726964 318.6397 254.219397 309.789134 257.253451 301.419521 
C 260.287505 293.049908 264.813262 285.298948 270.610959 278.543016 
C 276.408656 271.787083 283.382906 266.137331 291.195049 261.868101 
z
" style="fill: #58ab70; stroke: #ffffff; stroke-linejoin: miter"/>
   </g>
   <g id="matplotlib.axis_1"/>
   <g id="matplotlib.axis_2"/>
   <g id="text_1">
    <!-- AUPRC_1 on generalized models -->
    <g transform="translate(190.57242 94.3392) scale(0.168 -0.168)">
     <defs>
      <path id="DejaVuSans-41" d="M 2188 4044 
L 1331 1722 
L 3047 1722 
L 2188 4044 
z
M 1831 4666 
L 2547 4666 
L 4325 0 
L 3669 0 
L 3244 1197 
L 1141 1197 
L 716 0 
L 50 0 
L 1831 4666 
z
" transform="scale(0.015625)"/>
      <path id="DejaVuSans-55" d="M 556 4666 
L 1191 4666 
L 1191 1831 
Q 1191 1081 1462 751 
Q 1734 422 2344 422 
Q 2950 422 3222 751 
Q 3494 1081 3494 1831 
L 3494 4666 
L 4128 4666 
L 4128 1753 
Q 4128 841 3676 375 
Q 3225 -91 2344 -91 
Q 1459 -91 1007 375 
Q 556 841 556 1753 
L 556 4666 
z
" transform="scale(0.015625)"/>
      <path id="DejaVuSans-50" d="M 1259 4147 
L 1259 2394 
L 2053 2394 
Q 2494 2394 2734 2622 
Q 2975 2850 2975 3272 
Q 2975 3691 2734 3919 
Q 2494 4147 2053 4147 
L 1259 4147 
z
M 628 4666 
L 2053 4666 
Q 2838 4666 3239 4311 
Q 3641 3956 3641 3272 
Q 3641 2581 3239 2228 
Q 2838 1875 2053 1875 
L 1259 1875 
L 1259 0 
L 628 0 
L 628 4666 
z
" transform="scale(0.015625)"/>
      <path id="DejaVuSans-52" d="M 2841 2188 
Q 3044 2119 3236 1894 
Q 3428 1669 3622 1275 
L 4263 0 
L 3584 0 
L 2988 1197 
Q 2756 1666 2539 1819 
Q 2322 1972 1947 1972 
L 1259 1972 
L 1259 0 
L 628 0 
L 628 4666 
L 2053 4666 
Q 2853 4666 3247 4331 
Q 3641 3997 3641 3322 
Q 3641 2881 3436 2590 
Q 3231 2300 2841 2188 
z
M 1259 4147 
L 1259 2491 
L 2053 2491 
Q 2509 2491 2742 2702 
Q 2975 2913 2975 3322 
Q 2975 3731 2742 3939 
Q 2509 4147 2053 4147 
L 1259 4147 
z
" transform="scale(0.015625)"/>
      <path id="DejaVuSans-43" d="M 4122 4306 
L 4122 3641 
Q 3803 3938 3442 4084 
Q 3081 4231 2675 4231 
Q 1875 4231 1450 3742 
Q 1025 3253 1025 2328 
Q 1025 1406 1450 917 
Q 1875 428 2675 428 
Q 3081 428 3442 575 
Q 3803 722 4122 1019 
L 4122 359 
Q 3791 134 3420 21 
Q 3050 -91 2638 -91 
Q 1578 -91 968 557 
Q 359 1206 359 2328 
Q 359 3453 968 4101 
Q 1578 4750 2638 4750 
Q 3056 4750 3426 4639 
Q 3797 4528 4122 4306 
z
" transform="scale(0.015625)"/>
      <path id="DejaVuSans-5f" d="M 3263 -1063 
L 3263 -1509 
L -63 -1509 
L -63 -1063 
L 3263 -1063 
z
" transform="scale(0.015625)"/>
      <path id="DejaVuSans-31" d="M 794 531 
L 1825 531 
L 1825 4091 
L 703 3866 
L 703 4441 
L 1819 4666 
L 2450 4666 
L 2450 531 
L 3481 531 
L 3481 0 
L 794 0 
L 794 531 
z
" transform="scale(0.015625)"/>
      <path id="DejaVuSans-20" transform="scale(0.015625)"/>
      <path id="DejaVuSans-6f" d="M 1959 3097 
Q 1497 3097 1228 2736 
Q 959 2375 959 1747 
Q 959 1119 1226 758 
Q 1494 397 1959 397 
Q 2419 397 2687 759 
Q 2956 1122 2956 1747 
Q 2956 2369 2687 2733 
Q 2419 3097 1959 3097 
z
M 1959 3584 
Q 2709 3584 3137 3096 
Q 3566 2609 3566 1747 
Q 3566 888 3137 398 
Q 2709 -91 1959 -91 
Q 1206 -91 779 398 
Q 353 888 353 1747 
Q 353 2609 779 3096 
Q 1206 3584 1959 3584 
z
" transform="scale(0.015625)"/>
      <path id="DejaVuSans-6e" d="M 3513 2113 
L 3513 0 
L 2938 0 
L 2938 2094 
Q 2938 2591 2744 2837 
Q 2550 3084 2163 3084 
Q 1697 3084 1428 2787 
Q 1159 2491 1159 1978 
L 1159 0 
L 581 0 
L 581 3500 
L 1159 3500 
L 1159 2956 
Q 1366 3272 1645 3428 
Q 1925 3584 2291 3584 
Q 2894 3584 3203 3211 
Q 3513 2838 3513 2113 
z
" transform="scale(0.015625)"/>
      <path id="DejaVuSans-67" d="M 2906 1791 
Q 2906 2416 2648 2759 
Q 2391 3103 1925 3103 
Q 1463 3103 1205 2759 
Q 947 2416 947 1791 
Q 947 1169 1205 825 
Q 1463 481 1925 481 
Q 2391 481 2648 825 
Q 2906 1169 2906 1791 
z
M 3481 434 
Q 3481 -459 3084 -895 
Q 2688 -1331 1869 -1331 
Q 1566 -1331 1297 -1286 
Q 1028 -1241 775 -1147 
L 775 -588 
Q 1028 -725 1275 -790 
Q 1522 -856 1778 -856 
Q 2344 -856 2625 -561 
Q 2906 -266 2906 331 
L 2906 616 
Q 2728 306 2450 153 
Q 2172 0 1784 0 
Q 1141 0 747 490 
Q 353 981 353 1791 
Q 353 2603 747 3093 
Q 1141 3584 1784 3584 
Q 2172 3584 2450 3431 
Q 2728 3278 2906 2969 
L 2906 3500 
L 3481 3500 
L 3481 434 
z
" transform="scale(0.015625)"/>
      <path id="DejaVuSans-65" d="M 3597 1894 
L 3597 1613 
L 953 1613 
Q 991 1019 1311 708 
Q 1631 397 2203 397 
Q 2534 397 2845 478 
Q 3156 559 3463 722 
L 3463 178 
Q 3153 47 2828 -22 
Q 2503 -91 2169 -91 
Q 1331 -91 842 396 
Q 353 884 353 1716 
Q 353 2575 817 3079 
Q 1281 3584 2069 3584 
Q 2775 3584 3186 3129 
Q 3597 2675 3597 1894 
z
M 3022 2063 
Q 3016 2534 2758 2815 
Q 2500 3097 2075 3097 
Q 1594 3097 1305 2825 
Q 1016 2553 972 2059 
L 3022 2063 
z
" transform="scale(0.015625)"/>
      <path id="DejaVuSans-72" d="M 2631 2963 
Q 2534 3019 2420 3045 
Q 2306 3072 2169 3072 
Q 1681 3072 1420 2755 
Q 1159 2438 1159 1844 
L 1159 0 
L 581 0 
L 581 3500 
L 1159 3500 
L 1159 2956 
Q 1341 3275 1631 3429 
Q 1922 3584 2338 3584 
Q 2397 3584 2469 3576 
Q 2541 3569 2628 3553 
L 2631 2963 
z
" transform="scale(0.015625)"/>
      <path id="DejaVuSans-61" d="M 2194 1759 
Q 1497 1759 1228 1600 
Q 959 1441 959 1056 
Q 959 750 1161 570 
Q 1363 391 1709 391 
Q 2188 391 2477 730 
Q 2766 1069 2766 1631 
L 2766 1759 
L 2194 1759 
z
M 3341 1997 
L 3341 0 
L 2766 0 
L 2766 531 
Q 2569 213 2275 61 
Q 1981 -91 1556 -91 
Q 1019 -91 701 211 
Q 384 513 384 1019 
Q 384 1609 779 1909 
Q 1175 2209 1959 2209 
L 2766 2209 
L 2766 2266 
Q 2766 2663 2505 2880 
Q 2244 3097 1772 3097 
Q 1472 3097 1187 3025 
Q 903 2953 641 2809 
L 641 3341 
Q 956 3463 1253 3523 
Q 1550 3584 1831 3584 
Q 2591 3584 2966 3190 
Q 3341 2797 3341 1997 
z
" transform="scale(0.015625)"/>
      <path id="DejaVuSans-6c" d="M 603 4863 
L 1178 4863 
L 1178 0 
L 603 0 
L 603 4863 
z
" transform="scale(0.015625)"/>
      <path id="DejaVuSans-69" d="M 603 3500 
L 1178 3500 
L 1178 0 
L 603 0 
L 603 3500 
z
M 603 4863 
L 1178 4863 
L 1178 4134 
L 603 4134 
L 603 4863 
z
" transform="scale(0.015625)"/>
      <path id="DejaVuSans-7a" d="M 353 3500 
L 3084 3500 
L 3084 2975 
L 922 459 
L 3084 459 
L 3084 0 
L 275 0 
L 275 525 
L 2438 3041 
L 353 3041 
L 353 3500 
z
" transform="scale(0.015625)"/>
      <path id="DejaVuSans-64" d="M 2906 2969 
L 2906 4863 
L 3481 4863 
L 3481 0 
L 2906 0 
L 2906 525 
Q 2725 213 2448 61 
Q 2172 -91 1784 -91 
Q 1150 -91 751 415 
Q 353 922 353 1747 
Q 353 2572 751 3078 
Q 1150 3584 1784 3584 
Q 2172 3584 2448 3432 
Q 2725 3281 2906 2969 
z
M 947 1747 
Q 947 1113 1208 752 
Q 1469 391 1925 391 
Q 2381 391 2643 752 
Q 2906 1113 2906 1747 
Q 2906 2381 2643 2742 
Q 2381 3103 1925 3103 
Q 1469 3103 1208 2742 
Q 947 2381 947 1747 
z
" transform="scale(0.015625)"/>
      <path id="DejaVuSans-6d" d="M 3328 2828 
Q 3544 3216 3844 3400 
Q 4144 3584 4550 3584 
Q 5097 3584 5394 3201 
Q 5691 2819 5691 2113 
L 5691 0 
L 5113 0 
L 5113 2094 
Q 5113 2597 4934 2840 
Q 4756 3084 4391 3084 
Q 3944 3084 3684 2787 
Q 3425 2491 3425 1978 
L 3425 0 
L 2847 0 
L 2847 2094 
Q 2847 2600 2669 2842 
Q 2491 3084 2119 3084 
Q 1678 3084 1418 2786 
Q 1159 2488 1159 1978 
L 1159 0 
L 581 0 
L 581 3500 
L 1159 3500 
L 1159 2956 
Q 1356 3278 1631 3431 
Q 1906 3584 2284 3584 
Q 2666 3584 2933 3390 
Q 3200 3197 3328 2828 
z
" transform="scale(0.015625)"/>
      <path id="DejaVuSans-73" d="M 2834 3397 
L 2834 2853 
Q 2591 2978 2328 3040 
Q 2066 3103 1784 3103 
Q 1356 3103 1142 2972 
Q 928 2841 928 2578 
Q 928 2378 1081 2264 
Q 1234 2150 1697 2047 
L 1894 2003 
Q 2506 1872 2764 1633 
Q 3022 1394 3022 966 
Q 3022 478 2636 193 
Q 2250 -91 1575 -91 
Q 1294 -91 989 -36 
Q 684 19 347 128 
L 347 722 
Q 666 556 975 473 
Q 1284 391 1588 391 
Q 1994 391 2212 530 
Q 2431 669 2431 922 
Q 2431 1156 2273 1281 
Q 2116 1406 1581 1522 
L 1381 1569 
Q 847 1681 609 1914 
Q 372 2147 372 2553 
Q 372 3047 722 3315 
Q 1072 3584 1716 3584 
Q 2034 3584 2315 3537 
Q 2597 3491 2834 3397 
z
" transform="scale(0.015625)"/>
     </defs>
     <use xlink:href="#DejaVuSans-41"/>
     <use xlink:href="#DejaVuSans-55" x="68.408203"/>
     <use xlink:href="#DejaVuSans-50" x="141.601562"/>
     <use xlink:href="#DejaVuSans-52" x="201.904297"/>
     <use xlink:href="#DejaVuSans-43" x="266.386719"/>
     <use xlink:href="#DejaVuSans-5f" x="336.210938"/>
     <use xlink:href="#DejaVuSans-31" x="386.210938"/>
     <use xlink:href="#DejaVuSans-20" x="449.833984"/>
     <use xlink:href="#DejaVuSans-6f" x="481.621094"/>
     <use xlink:href="#DejaVuSans-6e" x="542.802734"/>
     <use xlink:href="#DejaVuSans-20" x="606.181641"/>
     <use xlink:href="#DejaVuSans-67" x="637.96875"/>
     <use xlink:href="#DejaVuSans-65" x="701.445312"/>
     <use xlink:href="#DejaVuSans-6e" x="762.96875"/>
     <use xlink:href="#DejaVuSans-65" x="826.347656"/>
     <use xlink:href="#DejaVuSans-72" x="887.871094"/>
     <use xlink:href="#DejaVuSans-61" x="928.984375"/>
     <use xlink:href="#DejaVuSans-6c" x="990.263672"/>
     <use xlink:href="#DejaVuSans-69" x="1018.046875"/>
     <use xlink:href="#DejaVuSans-7a" x="1045.830078"/>
     <use xlink:href="#DejaVuSans-65" x="1098.320312"/>
     <use xlink:href="#DejaVuSans-64" x="1159.84375"/>
     <use xlink:href="#DejaVuSans-20" x="1223.320312"/>
     <use xlink:href="#DejaVuSans-6d" x="1255.107422"/>
     <use xlink:href="#DejaVuSans-6f" x="1352.519531"/>
     <use xlink:href="#DejaVuSans-64" x="1413.701172"/>
     <use xlink:href="#DejaVuSans-65" x="1477.177734"/>
     <use xlink:href="#DejaVuSans-6c" x="1538.701172"/>
     <use xlink:href="#DejaVuSans-73" x="1566.484375"/>
    </g>
   </g>
   <g id="legend_1">
    <g id="patch_22">
     <path d="M 595.446295 326.5344 
L 888.989108 326.5344 
Q 891.789108 326.5344 891.789108 323.7344 
L 891.789108 97.1444 
Q 891.789108 94.3444 888.989108 94.3444 
L 595.446295 94.3444 
Q 592.646295 94.3444 592.646295 97.1444 
L 592.646295 323.7344 
Q 592.646295 326.5344 595.446295 326.5344 
z
" style="fill: #ffffff; opacity: 0.8; stroke: #cccccc; stroke-linejoin: miter"/>
    </g>
    <g id="text_2">
     <!-- Models -->
     <g transform="translate(717.552545 110.582213) scale(0.14 -0.14)">
      <defs>
       <path id="DejaVuSans-4d" d="M 628 4666 
L 1569 4666 
L 2759 1491 
L 3956 4666 
L 4897 4666 
L 4897 0 
L 4281 0 
L 4281 4097 
L 3078 897 
L 2444 897 
L 1241 4097 
L 1241 0 
L 628 0 
L 628 4666 
z
" transform="scale(0.015625)"/>
      </defs>
      <use xlink:href="#DejaVuSans-4d"/>
      <use xlink:href="#DejaVuSans-6f" x="86.279297"/>
      <use xlink:href="#DejaVuSans-64" x="147.460938"/>
      <use xlink:href="#DejaVuSans-65" x="210.9375"/>
      <use xlink:href="#DejaVuSans-6c" x="272.460938"/>
      <use xlink:href="#DejaVuSans-73" x="300.244141"/>
     </g>
    </g>
    <g id="patch_23">
     <path d="M 598.246295 131.131588 
L 626.246295 131.131588 
L 626.246295 121.331588 
L 598.246295 121.331588 
z
" style="fill: #50a86a; stroke: #ffffff; stroke-linejoin: miter"/>
    </g>
    <g id="text_3">
     <!-- xgboost (96.75%) -->
     <g transform="translate(637.446295 131.131588) scale(0.14 -0.14)">
      <defs>
       <path id="DejaVuSans-78" d="M 3513 3500 
L 2247 1797 
L 3578 0 
L 2900 0 
L 1881 1375 
L 863 0 
L 184 0 
L 1544 1831 
L 300 3500 
L 978 3500 
L 1906 2253 
L 2834 3500 
L 3513 3500 
z
" transform="scale(0.015625)"/>
       <path id="DejaVuSans-62" d="M 3116 1747 
Q 3116 2381 2855 2742 
Q 2594 3103 2138 3103 
Q 1681 3103 1420 2742 
Q 1159 2381 1159 1747 
Q 1159 1113 1420 752 
Q 1681 391 2138 391 
Q 2594 391 2855 752 
Q 3116 1113 3116 1747 
z
M 1159 2969 
Q 1341 3281 1617 3432 
Q 1894 3584 2278 3584 
Q 2916 3584 3314 3078 
Q 3713 2572 3713 1747 
Q 3713 922 3314 415 
Q 2916 -91 2278 -91 
Q 1894 -91 1617 61 
Q 1341 213 1159 525 
L 1159 0 
L 581 0 
L 581 4863 
L 1159 4863 
L 1159 2969 
z
" transform="scale(0.015625)"/>
       <path id="DejaVuSans-74" d="M 1172 4494 
L 1172 3500 
L 2356 3500 
L 2356 3053 
L 1172 3053 
L 1172 1153 
Q 1172 725 1289 603 
Q 1406 481 1766 481 
L 2356 481 
L 2356 0 
L 1766 0 
Q 1100 0 847 248 
Q 594 497 594 1153 
L 594 3053 
L 172 3053 
L 172 3500 
L 594 3500 
L 594 4494 
L 1172 4494 
z
" transform="scale(0.015625)"/>
       <path id="DejaVuSans-28" d="M 1984 4856 
Q 1566 4138 1362 3434 
Q 1159 2731 1159 2009 
Q 1159 1288 1364 580 
Q 1569 -128 1984 -844 
L 1484 -844 
Q 1016 -109 783 600 
Q 550 1309 550 2009 
Q 550 2706 781 3412 
Q 1013 4119 1484 4856 
L 1984 4856 
z
" transform="scale(0.015625)"/>
       <path id="DejaVuSans-39" d="M 703 97 
L 703 672 
Q 941 559 1184 500 
Q 1428 441 1663 441 
Q 2288 441 2617 861 
Q 2947 1281 2994 2138 
Q 2813 1869 2534 1725 
Q 2256 1581 1919 1581 
Q 1219 1581 811 2004 
Q 403 2428 403 3163 
Q 403 3881 828 4315 
Q 1253 4750 1959 4750 
Q 2769 4750 3195 4129 
Q 3622 3509 3622 2328 
Q 3622 1225 3098 567 
Q 2575 -91 1691 -91 
Q 1453 -91 1209 -44 
Q 966 3 703 97 
z
M 1959 2075 
Q 2384 2075 2632 2365 
Q 2881 2656 2881 3163 
Q 2881 3666 2632 3958 
Q 2384 4250 1959 4250 
Q 1534 4250 1286 3958 
Q 1038 3666 1038 3163 
Q 1038 2656 1286 2365 
Q 1534 2075 1959 2075 
z
" transform="scale(0.015625)"/>
       <path id="DejaVuSans-36" d="M 2113 2584 
Q 1688 2584 1439 2293 
Q 1191 2003 1191 1497 
Q 1191 994 1439 701 
Q 1688 409 2113 409 
Q 2538 409 2786 701 
Q 3034 994 3034 1497 
Q 3034 2003 2786 2293 
Q 2538 2584 2113 2584 
z
M 3366 4563 
L 3366 3988 
Q 3128 4100 2886 4159 
Q 2644 4219 2406 4219 
Q 1781 4219 1451 3797 
Q 1122 3375 1075 2522 
Q 1259 2794 1537 2939 
Q 1816 3084 2150 3084 
Q 2853 3084 3261 2657 
Q 3669 2231 3669 1497 
Q 3669 778 3244 343 
Q 2819 -91 2113 -91 
Q 1303 -91 875 529 
Q 447 1150 447 2328 
Q 447 3434 972 4092 
Q 1497 4750 2381 4750 
Q 2619 4750 2861 4703 
Q 3103 4656 3366 4563 
z
" transform="scale(0.015625)"/>
       <path id="DejaVuSans-2e" d="M 684 794 
L 1344 794 
L 1344 0 
L 684 0 
L 684 794 
z
" transform="scale(0.015625)"/>
       <path id="DejaVuSans-37" d="M 525 4666 
L 3525 4666 
L 3525 4397 
L 1831 0 
L 1172 0 
L 2766 4134 
L 525 4134 
L 525 4666 
z
" transform="scale(0.015625)"/>
       <path id="DejaVuSans-35" d="M 691 4666 
L 3169 4666 
L 3169 4134 
L 1269 4134 
L 1269 2991 
Q 1406 3038 1543 3061 
Q 1681 3084 1819 3084 
Q 2600 3084 3056 2656 
Q 3513 2228 3513 1497 
Q 3513 744 3044 326 
Q 2575 -91 1722 -91 
Q 1428 -91 1123 -41 
Q 819 9 494 109 
L 494 744 
Q 775 591 1075 516 
Q 1375 441 1709 441 
Q 2250 441 2565 725 
Q 2881 1009 2881 1497 
Q 2881 1984 2565 2268 
Q 2250 2553 1709 2553 
Q 1456 2553 1204 2497 
Q 953 2441 691 2322 
L 691 4666 
z
" transform="scale(0.015625)"/>
       <path id="DejaVuSans-25" d="M 4653 2053 
Q 4381 2053 4226 1822 
Q 4072 1591 4072 1178 
Q 4072 772 4226 539 
Q 4381 306 4653 306 
Q 4919 306 5073 539 
Q 5228 772 5228 1178 
Q 5228 1588 5073 1820 
Q 4919 2053 4653 2053 
z
M 4653 2450 
Q 5147 2450 5437 2106 
Q 5728 1763 5728 1178 
Q 5728 594 5436 251 
Q 5144 -91 4653 -91 
Q 4153 -91 3862 251 
Q 3572 594 3572 1178 
Q 3572 1766 3864 2108 
Q 4156 2450 4653 2450 
z
M 1428 4353 
Q 1159 4353 1004 4120 
Q 850 3888 850 3481 
Q 850 3069 1003 2837 
Q 1156 2606 1428 2606 
Q 1700 2606 1854 2837 
Q 2009 3069 2009 3481 
Q 2009 3884 1853 4118 
Q 1697 4353 1428 4353 
z
M 4250 4750 
L 4750 4750 
L 1831 -91 
L 1331 -91 
L 4250 4750 
z
M 1428 4750 
Q 1922 4750 2215 4408 
Q 2509 4066 2509 3481 
Q 2509 2891 2217 2550 
Q 1925 2209 1428 2209 
Q 931 2209 642 2551 
Q 353 2894 353 3481 
Q 353 4063 643 4406 
Q 934 4750 1428 4750 
z
" transform="scale(0.015625)"/>
       <path id="DejaVuSans-29" d="M 513 4856 
L 1013 4856 
Q 1481 4119 1714 3412 
Q 1947 2706 1947 2009 
Q 1947 1309 1714 600 
Q 1481 -109 1013 -844 
L 513 -844 
Q 928 -128 1133 580 
Q 1338 1288 1338 2009 
Q 1338 2731 1133 3434 
Q 928 4138 513 4856 
z
" transform="scale(0.015625)"/>
      </defs>
      <use xlink:href="#DejaVuSans-78"/>
      <use xlink:href="#DejaVuSans-67" x="59.179688"/>
      <use xlink:href="#DejaVuSans-62" x="122.65625"/>
      <use xlink:href="#DejaVuSans-6f" x="186.132812"/>
      <use xlink:href="#DejaVuSans-6f" x="247.314453"/>
      <use xlink:href="#DejaVuSans-73" x="308.496094"/>
      <use xlink:href="#DejaVuSans-74" x="360.595703"/>
      <use xlink:href="#DejaVuSans-20" x="399.804688"/>
      <use xlink:href="#DejaVuSans-28" x="431.591797"/>
      <use xlink:href="#DejaVuSans-39" x="470.605469"/>
      <use xlink:href="#DejaVuSans-36" x="534.228516"/>
      <use xlink:href="#DejaVuSans-2e" x="597.851562"/>
      <use xlink:href="#DejaVuSans-37" x="629.638672"/>
      <use xlink:href="#DejaVuSans-35" x="693.261719"/>
      <use xlink:href="#DejaVuSans-25" x="756.884766"/>
      <use xlink:href="#DejaVuSans-29" x="851.904297"/>
     </g>
    </g>
    <g id="patch_24">
     <path d="M 598.246295 151.680963 
L 626.246295 151.680963 
L 626.246295 141.880963 
L 598.246295 141.880963 
z
" style="fill: #50a86a; stroke: #ffffff; stroke-linejoin: miter"/>
    </g>
    <g id="text_4">
     <!-- random_forest (96.68%) -->
     <g transform="translate(637.446295 151.680963) scale(0.14 -0.14)">
      <defs>
       <path id="DejaVuSans-66" d="M 2375 4863 
L 2375 4384 
L 1825 4384 
Q 1516 4384 1395 4259 
Q 1275 4134 1275 3809 
L 1275 3500 
L 2222 3500 
L 2222 3053 
L 1275 3053 
L 1275 0 
L 697 0 
L 697 3053 
L 147 3053 
L 147 3500 
L 697 3500 
L 697 3744 
Q 697 4328 969 4595 
Q 1241 4863 1831 4863 
L 2375 4863 
z
" transform="scale(0.015625)"/>
       <path id="DejaVuSans-38" d="M 2034 2216 
Q 1584 2216 1326 1975 
Q 1069 1734 1069 1313 
Q 1069 891 1326 650 
Q 1584 409 2034 409 
Q 2484 409 2743 651 
Q 3003 894 3003 1313 
Q 3003 1734 2745 1975 
Q 2488 2216 2034 2216 
z
M 1403 2484 
Q 997 2584 770 2862 
Q 544 3141 544 3541 
Q 544 4100 942 4425 
Q 1341 4750 2034 4750 
Q 2731 4750 3128 4425 
Q 3525 4100 3525 3541 
Q 3525 3141 3298 2862 
Q 3072 2584 2669 2484 
Q 3125 2378 3379 2068 
Q 3634 1759 3634 1313 
Q 3634 634 3220 271 
Q 2806 -91 2034 -91 
Q 1263 -91 848 271 
Q 434 634 434 1313 
Q 434 1759 690 2068 
Q 947 2378 1403 2484 
z
M 1172 3481 
Q 1172 3119 1398 2916 
Q 1625 2713 2034 2713 
Q 2441 2713 2670 2916 
Q 2900 3119 2900 3481 
Q 2900 3844 2670 4047 
Q 2441 4250 2034 4250 
Q 1625 4250 1398 4047 
Q 1172 3844 1172 3481 
z
" transform="scale(0.015625)"/>
      </defs>
      <use xlink:href="#DejaVuSans-72"/>
      <use xlink:href="#DejaVuSans-61" x="41.113281"/>
      <use xlink:href="#DejaVuSans-6e" x="102.392578"/>
      <use xlink:href="#DejaVuSans-64" x="165.771484"/>
      <use xlink:href="#DejaVuSans-6f" x="229.248047"/>
      <use xlink:href="#DejaVuSans-6d" x="290.429688"/>
      <use xlink:href="#DejaVuSans-5f" x="387.841797"/>
      <use xlink:href="#DejaVuSans-66" x="437.841797"/>
      <use xlink:href="#DejaVuSans-6f" x="473.046875"/>
      <use xlink:href="#DejaVuSans-72" x="534.228516"/>
      <use xlink:href="#DejaVuSans-65" x="573.091797"/>
      <use xlink:href="#DejaVuSans-73" x="634.615234"/>
      <use xlink:href="#DejaVuSans-74" x="686.714844"/>
      <use xlink:href="#DejaVuSans-20" x="725.923828"/>
      <use xlink:href="#DejaVuSans-28" x="757.710938"/>
      <use xlink:href="#DejaVuSans-39" x="796.724609"/>
      <use xlink:href="#DejaVuSans-36" x="860.347656"/>
      <use xlink:href="#DejaVuSans-2e" x="923.970703"/>
      <use xlink:href="#DejaVuSans-36" x="955.757812"/>
      <use xlink:href="#DejaVuSans-38" x="1019.380859"/>
      <use xlink:href="#DejaVuSans-25" x="1083.003906"/>
      <use xlink:href="#DejaVuSans-29" x="1178.023438"/>
     </g>
    </g>
    <g id="patch_25">
     <path d="M 598.246295 172.619713 
L 626.246295 172.619713 
L 626.246295 162.819713 
L 598.246295 162.819713 
z
" style="fill: #50a86a; stroke: #ffffff; stroke-linejoin: miter"/>
    </g>
    <g id="text_5">
     <!-- neural_network (96.64%) -->
     <g transform="translate(637.446295 172.619713) scale(0.14 -0.14)">
      <defs>
       <path id="DejaVuSans-75" d="M 544 1381 
L 544 3500 
L 1119 3500 
L 1119 1403 
Q 1119 906 1312 657 
Q 1506 409 1894 409 
Q 2359 409 2629 706 
Q 2900 1003 2900 1516 
L 2900 3500 
L 3475 3500 
L 3475 0 
L 2900 0 
L 2900 538 
Q 2691 219 2414 64 
Q 2138 -91 1772 -91 
Q 1169 -91 856 284 
Q 544 659 544 1381 
z
M 1991 3584 
L 1991 3584 
z
" transform="scale(0.015625)"/>
       <path id="DejaVuSans-77" d="M 269 3500 
L 844 3500 
L 1563 769 
L 2278 3500 
L 2956 3500 
L 3675 769 
L 4391 3500 
L 4966 3500 
L 4050 0 
L 3372 0 
L 2619 2869 
L 1863 0 
L 1184 0 
L 269 3500 
z
" transform="scale(0.015625)"/>
       <path id="DejaVuSans-6b" d="M 581 4863 
L 1159 4863 
L 1159 1991 
L 2875 3500 
L 3609 3500 
L 1753 1863 
L 3688 0 
L 2938 0 
L 1159 1709 
L 1159 0 
L 581 0 
L 581 4863 
z
" transform="scale(0.015625)"/>
       <path id="DejaVuSans-34" d="M 2419 4116 
L 825 1625 
L 2419 1625 
L 2419 4116 
z
M 2253 4666 
L 3047 4666 
L 3047 1625 
L 3713 1625 
L 3713 1100 
L 3047 1100 
L 3047 0 
L 2419 0 
L 2419 1100 
L 313 1100 
L 313 1709 
L 2253 4666 
z
" transform="scale(0.015625)"/>
      </defs>
      <use xlink:href="#DejaVuSans-6e"/>
      <use xlink:href="#DejaVuSans-65" x="63.378906"/>
      <use xlink:href="#DejaVuSans-75" x="124.902344"/>
      <use xlink:href="#DejaVuSans-72" x="188.28125"/>
      <use xlink:href="#DejaVuSans-61" x="229.394531"/>
      <use xlink:href="#DejaVuSans-6c" x="290.673828"/>
      <use xlink:href="#DejaVuSans-5f" x="318.457031"/>
      <use xlink:href="#DejaVuSans-6e" x="368.457031"/>
      <use xlink:href="#DejaVuSans-65" x="431.835938"/>
      <use xlink:href="#DejaVuSans-74" x="493.359375"/>
      <use xlink:href="#DejaVuSans-77" x="532.568359"/>
      <use xlink:href="#DejaVuSans-6f" x="614.355469"/>
      <use xlink:href="#DejaVuSans-72" x="675.537109"/>
      <use xlink:href="#DejaVuSans-6b" x="716.650391"/>
      <use xlink:href="#DejaVuSans-20" x="774.560547"/>
      <use xlink:href="#DejaVuSans-28" x="806.347656"/>
      <use xlink:href="#DejaVuSans-39" x="845.361328"/>
      <use xlink:href="#DejaVuSans-36" x="908.984375"/>
      <use xlink:href="#DejaVuSans-2e" x="972.607422"/>
      <use xlink:href="#DejaVuSans-36" x="1004.394531"/>
      <use xlink:href="#DejaVuSans-34" x="1068.017578"/>
      <use xlink:href="#DejaVuSans-25" x="1131.640625"/>
      <use xlink:href="#DejaVuSans-29" x="1226.660156"/>
     </g>
    </g>
    <g id="patch_26">
     <path d="M 598.246295 193.558463 
L 626.246295 193.558463 
L 626.246295 183.758463 
L 598.246295 183.758463 
z
" style="fill: #52a96c; stroke: #ffffff; stroke-linejoin: miter"/>
    </g>
    <g id="text_6">
     <!-- logistic_regression (95.97%) -->
     <g transform="translate(637.446295 193.558463) scale(0.14 -0.14)">
      <defs>
       <path id="DejaVuSans-63" d="M 3122 3366 
L 3122 2828 
Q 2878 2963 2633 3030 
Q 2388 3097 2138 3097 
Q 1578 3097 1268 2742 
Q 959 2388 959 1747 
Q 959 1106 1268 751 
Q 1578 397 2138 397 
Q 2388 397 2633 464 
Q 2878 531 3122 666 
L 3122 134 
Q 2881 22 2623 -34 
Q 2366 -91 2075 -91 
Q 1284 -91 818 406 
Q 353 903 353 1747 
Q 353 2603 823 3093 
Q 1294 3584 2113 3584 
Q 2378 3584 2631 3529 
Q 2884 3475 3122 3366 
z
" transform="scale(0.015625)"/>
      </defs>
      <use xlink:href="#DejaVuSans-6c"/>
      <use xlink:href="#DejaVuSans-6f" x="27.783203"/>
      <use xlink:href="#DejaVuSans-67" x="88.964844"/>
      <use xlink:href="#DejaVuSans-69" x="152.441406"/>
      <use xlink:href="#DejaVuSans-73" x="180.224609"/>
      <use xlink:href="#DejaVuSans-74" x="232.324219"/>
      <use xlink:href="#DejaVuSans-69" x="271.533203"/>
      <use xlink:href="#DejaVuSans-63" x="299.316406"/>
      <use xlink:href="#DejaVuSans-5f" x="354.296875"/>
      <use xlink:href="#DejaVuSans-72" x="404.296875"/>
      <use xlink:href="#DejaVuSans-65" x="443.160156"/>
      <use xlink:href="#DejaVuSans-67" x="504.683594"/>
      <use xlink:href="#DejaVuSans-72" x="568.160156"/>
      <use xlink:href="#DejaVuSans-65" x="607.023438"/>
      <use xlink:href="#DejaVuSans-73" x="668.546875"/>
      <use xlink:href="#DejaVuSans-73" x="720.646484"/>
      <use xlink:href="#DejaVuSans-69" x="772.746094"/>
      <use xlink:href="#DejaVuSans-6f" x="800.529297"/>
      <use xlink:href="#DejaVuSans-6e" x="861.710938"/>
      <use xlink:href="#DejaVuSans-20" x="925.089844"/>
      <use xlink:href="#DejaVuSans-28" x="956.876953"/>
      <use xlink:href="#DejaVuSans-39" x="995.890625"/>
      <use xlink:href="#DejaVuSans-35" x="1059.513672"/>
      <use xlink:href="#DejaVuSans-2e" x="1123.136719"/>
      <use xlink:href="#DejaVuSans-39" x="1154.923828"/>
      <use xlink:href="#DejaVuSans-37" x="1218.546875"/>
      <use xlink:href="#DejaVuSans-25" x="1282.169922"/>
      <use xlink:href="#DejaVuSans-29" x="1377.189453"/>
     </g>
    </g>
    <g id="patch_27">
     <path d="M 598.246295 214.497213 
L 626.246295 214.497213 
L 626.246295 204.697213 
L 598.246295 204.697213 
z
" style="fill: #52a96c; stroke: #ffffff; stroke-linejoin: miter"/>
    </g>
    <g id="text_7">
     <!-- svm (95.87%) -->
     <g transform="translate(637.446295 214.497213) scale(0.14 -0.14)">
      <defs>
       <path id="DejaVuSans-76" d="M 191 3500 
L 800 3500 
L 1894 563 
L 2988 3500 
L 3597 3500 
L 2284 0 
L 1503 0 
L 191 3500 
z
" transform="scale(0.015625)"/>
      </defs>
      <use xlink:href="#DejaVuSans-73"/>
      <use xlink:href="#DejaVuSans-76" x="52.099609"/>
      <use xlink:href="#DejaVuSans-6d" x="111.279297"/>
      <use xlink:href="#DejaVuSans-20" x="208.691406"/>
      <use xlink:href="#DejaVuSans-28" x="240.478516"/>
      <use xlink:href="#DejaVuSans-39" x="279.492188"/>
      <use xlink:href="#DejaVuSans-35" x="343.115234"/>
      <use xlink:href="#DejaVuSans-2e" x="406.738281"/>
      <use xlink:href="#DejaVuSans-38" x="438.525391"/>
      <use xlink:href="#DejaVuSans-37" x="502.148438"/>
      <use xlink:href="#DejaVuSans-25" x="565.771484"/>
      <use xlink:href="#DejaVuSans-29" x="660.791016"/>
     </g>
    </g>
    <g id="patch_28">
     <path d="M 598.246295 235.046588 
L 626.246295 235.046588 
L 626.246295 225.246588 
L 598.246295 225.246588 
z
" style="fill: #52a96c; stroke: #ffffff; stroke-linejoin: miter"/>
    </g>
    <g id="text_8">
     <!-- crf (95.71%) -->
     <g transform="translate(637.446295 235.046588) scale(0.14 -0.14)">
      <use xlink:href="#DejaVuSans-63"/>
      <use xlink:href="#DejaVuSans-72" x="54.980469"/>
      <use xlink:href="#DejaVuSans-66" x="96.09375"/>
      <use xlink:href="#DejaVuSans-20" x="131.298828"/>
      <use xlink:href="#DejaVuSans-28" x="163.085938"/>
      <use xlink:href="#DejaVuSans-39" x="202.099609"/>
      <use xlink:href="#DejaVuSans-35" x="265.722656"/>
      <use xlink:href="#DejaVuSans-2e" x="329.345703"/>
      <use xlink:href="#DejaVuSans-37" x="361.132812"/>
      <use xlink:href="#DejaVuSans-31" x="424.755859"/>
      <use xlink:href="#DejaVuSans-25" x="488.378906"/>
      <use xlink:href="#DejaVuSans-29" x="583.398438"/>
     </g>
    </g>
    <g id="patch_29">
     <path d="M 598.246295 255.595963 
L 626.246295 255.595963 
L 626.246295 245.795963 
L 598.246295 245.795963 
z
" style="fill: #52a96c; stroke: #ffffff; stroke-linejoin: miter"/>
    </g>
    <g id="text_9">
     <!-- recurrent_neural_network (95.02%) -->
     <g transform="translate(637.446295 255.595963) scale(0.14 -0.14)">
      <defs>
       <path id="DejaVuSans-30" d="M 2034 4250 
Q 1547 4250 1301 3770 
Q 1056 3291 1056 2328 
Q 1056 1369 1301 889 
Q 1547 409 2034 409 
Q 2525 409 2770 889 
Q 3016 1369 3016 2328 
Q 3016 3291 2770 3770 
Q 2525 4250 2034 4250 
z
M 2034 4750 
Q 2819 4750 3233 4129 
Q 3647 3509 3647 2328 
Q 3647 1150 3233 529 
Q 2819 -91 2034 -91 
Q 1250 -91 836 529 
Q 422 1150 422 2328 
Q 422 3509 836 4129 
Q 1250 4750 2034 4750 
z
" transform="scale(0.015625)"/>
       <path id="DejaVuSans-32" d="M 1228 531 
L 3431 531 
L 3431 0 
L 469 0 
L 469 531 
Q 828 903 1448 1529 
Q 2069 2156 2228 2338 
Q 2531 2678 2651 2914 
Q 2772 3150 2772 3378 
Q 2772 3750 2511 3984 
Q 2250 4219 1831 4219 
Q 1534 4219 1204 4116 
Q 875 4013 500 3803 
L 500 4441 
Q 881 4594 1212 4672 
Q 1544 4750 1819 4750 
Q 2544 4750 2975 4387 
Q 3406 4025 3406 3419 
Q 3406 3131 3298 2873 
Q 3191 2616 2906 2266 
Q 2828 2175 2409 1742 
Q 1991 1309 1228 531 
z
" transform="scale(0.015625)"/>
      </defs>
      <use xlink:href="#DejaVuSans-72"/>
      <use xlink:href="#DejaVuSans-65" x="38.863281"/>
      <use xlink:href="#DejaVuSans-63" x="100.386719"/>
      <use xlink:href="#DejaVuSans-75" x="155.367188"/>
      <use xlink:href="#DejaVuSans-72" x="218.746094"/>
      <use xlink:href="#DejaVuSans-72" x="258.109375"/>
      <use xlink:href="#DejaVuSans-65" x="296.972656"/>
      <use xlink:href="#DejaVuSans-6e" x="358.496094"/>
      <use xlink:href="#DejaVuSans-74" x="421.875"/>
      <use xlink:href="#DejaVuSans-5f" x="461.083984"/>
      <use xlink:href="#DejaVuSans-6e" x="511.083984"/>
      <use xlink:href="#DejaVuSans-65" x="574.462891"/>
      <use xlink:href="#DejaVuSans-75" x="635.986328"/>
      <use xlink:href="#DejaVuSans-72" x="699.365234"/>
      <use xlink:href="#DejaVuSans-61" x="740.478516"/>
      <use xlink:href="#DejaVuSans-6c" x="801.757812"/>
      <use xlink:href="#DejaVuSans-5f" x="829.541016"/>
      <use xlink:href="#DejaVuSans-6e" x="879.541016"/>
      <use xlink:href="#DejaVuSans-65" x="942.919922"/>
      <use xlink:href="#DejaVuSans-74" x="1004.443359"/>
      <use xlink:href="#DejaVuSans-77" x="1043.652344"/>
      <use xlink:href="#DejaVuSans-6f" x="1125.439453"/>
      <use xlink:href="#DejaVuSans-72" x="1186.621094"/>
      <use xlink:href="#DejaVuSans-6b" x="1227.734375"/>
      <use xlink:href="#DejaVuSans-20" x="1285.644531"/>
      <use xlink:href="#DejaVuSans-28" x="1317.431641"/>
      <use xlink:href="#DejaVuSans-39" x="1356.445312"/>
      <use xlink:href="#DejaVuSans-35" x="1420.068359"/>
      <use xlink:href="#DejaVuSans-2e" x="1483.691406"/>
      <use xlink:href="#DejaVuSans-30" x="1515.478516"/>
      <use xlink:href="#DejaVuSans-32" x="1579.101562"/>
      <use xlink:href="#DejaVuSans-25" x="1642.724609"/>
      <use xlink:href="#DejaVuSans-29" x="1737.744141"/>
     </g>
    </g>
    <g id="patch_30">
     <path d="M 598.246295 276.534713 
L 626.246295 276.534713 
L 626.246295 266.734713 
L 598.246295 266.734713 
z
" style="fill: #54a96d; stroke: #ffffff; stroke-linejoin: miter"/>
    </g>
    <g id="text_10">
     <!-- naive_bayes (94.02%) -->
     <g transform="translate(637.446295 276.534713) scale(0.14 -0.14)">
      <defs>
       <path id="DejaVuSans-79" d="M 2059 -325 
Q 1816 -950 1584 -1140 
Q 1353 -1331 966 -1331 
L 506 -1331 
L 506 -850 
L 844 -850 
Q 1081 -850 1212 -737 
Q 1344 -625 1503 -206 
L 1606 56 
L 191 3500 
L 800 3500 
L 1894 763 
L 2988 3500 
L 3597 3500 
L 2059 -325 
z
" transform="scale(0.015625)"/>
      </defs>
      <use xlink:href="#DejaVuSans-6e"/>
      <use xlink:href="#DejaVuSans-61" x="63.378906"/>
      <use xlink:href="#DejaVuSans-69" x="124.658203"/>
      <use xlink:href="#DejaVuSans-76" x="152.441406"/>
      <use xlink:href="#DejaVuSans-65" x="211.621094"/>
      <use xlink:href="#DejaVuSans-5f" x="273.144531"/>
      <use xlink:href="#DejaVuSans-62" x="323.144531"/>
      <use xlink:href="#DejaVuSans-61" x="386.621094"/>
      <use xlink:href="#DejaVuSans-79" x="447.900391"/>
      <use xlink:href="#DejaVuSans-65" x="507.080078"/>
      <use xlink:href="#DejaVuSans-73" x="568.603516"/>
      <use xlink:href="#DejaVuSans-20" x="620.703125"/>
      <use xlink:href="#DejaVuSans-28" x="652.490234"/>
      <use xlink:href="#DejaVuSans-39" x="691.503906"/>
      <use xlink:href="#DejaVuSans-34" x="755.126953"/>
      <use xlink:href="#DejaVuSans-2e" x="818.75"/>
      <use xlink:href="#DejaVuSans-30" x="850.537109"/>
      <use xlink:href="#DejaVuSans-32" x="914.160156"/>
      <use xlink:href="#DejaVuSans-25" x="977.783203"/>
      <use xlink:href="#DejaVuSans-29" x="1072.802734"/>
     </g>
    </g>
    <g id="patch_31">
     <path d="M 598.246295 297.473463 
L 626.246295 297.473463 
L 626.246295 287.673463 
L 598.246295 287.673463 
z
" style="fill: #56aa6f; stroke: #ffffff; stroke-linejoin: miter"/>
    </g>
    <g id="text_11">
     <!-- hmm (93.09%) -->
     <g transform="translate(637.446295 297.473463) scale(0.14 -0.14)">
      <defs>
       <path id="DejaVuSans-68" d="M 3513 2113 
L 3513 0 
L 2938 0 
L 2938 2094 
Q 2938 2591 2744 2837 
Q 2550 3084 2163 3084 
Q 1697 3084 1428 2787 
Q 1159 2491 1159 1978 
L 1159 0 
L 581 0 
L 581 4863 
L 1159 4863 
L 1159 2956 
Q 1366 3272 1645 3428 
Q 1925 3584 2291 3584 
Q 2894 3584 3203 3211 
Q 3513 2838 3513 2113 
z
" transform="scale(0.015625)"/>
       <path id="DejaVuSans-33" d="M 2597 2516 
Q 3050 2419 3304 2112 
Q 3559 1806 3559 1356 
Q 3559 666 3084 287 
Q 2609 -91 1734 -91 
Q 1441 -91 1130 -33 
Q 819 25 488 141 
L 488 750 
Q 750 597 1062 519 
Q 1375 441 1716 441 
Q 2309 441 2620 675 
Q 2931 909 2931 1356 
Q 2931 1769 2642 2001 
Q 2353 2234 1838 2234 
L 1294 2234 
L 1294 2753 
L 1863 2753 
Q 2328 2753 2575 2939 
Q 2822 3125 2822 3475 
Q 2822 3834 2567 4026 
Q 2313 4219 1838 4219 
Q 1578 4219 1281 4162 
Q 984 4106 628 3988 
L 628 4550 
Q 988 4650 1302 4700 
Q 1616 4750 1894 4750 
Q 2613 4750 3031 4423 
Q 3450 4097 3450 3541 
Q 3450 3153 3228 2886 
Q 3006 2619 2597 2516 
z
" transform="scale(0.015625)"/>
      </defs>
      <use xlink:href="#DejaVuSans-68"/>
      <use xlink:href="#DejaVuSans-6d" x="63.378906"/>
      <use xlink:href="#DejaVuSans-6d" x="160.791016"/>
      <use xlink:href="#DejaVuSans-20" x="258.203125"/>
      <use xlink:href="#DejaVuSans-28" x="289.990234"/>
      <use xlink:href="#DejaVuSans-39" x="329.003906"/>
      <use xlink:href="#DejaVuSans-33" x="392.626953"/>
      <use xlink:href="#DejaVuSans-2e" x="456.25"/>
      <use xlink:href="#DejaVuSans-30" x="488.037109"/>
      <use xlink:href="#DejaVuSans-39" x="551.660156"/>
      <use xlink:href="#DejaVuSans-25" x="615.283203"/>
      <use xlink:href="#DejaVuSans-29" x="710.302734"/>
     </g>
    </g>
    <g id="patch_32">
     <path d="M 598.246295 318.022838 
L 626.246295 318.022838 
L 626.246295 308.222838 
L 598.246295 308.222838 
z
" style="fill: #58ab70; stroke: #ffffff; stroke-linejoin: miter"/>
    </g>
    <g id="text_12">
     <!-- knn (92.04%) -->
     <g transform="translate(637.446295 318.022838) scale(0.14 -0.14)">
      <use xlink:href="#DejaVuSans-6b"/>
      <use xlink:href="#DejaVuSans-6e" x="57.910156"/>
      <use xlink:href="#DejaVuSans-6e" x="121.289062"/>
      <use xlink:href="#DejaVuSans-20" x="184.667969"/>
      <use xlink:href="#DejaVuSans-28" x="216.455078"/>
      <use xlink:href="#DejaVuSans-39" x="255.46875"/>
      <use xlink:href="#DejaVuSans-32" x="319.091797"/>
      <use xlink:href="#DejaVuSans-2e" x="382.714844"/>
      <use xlink:href="#DejaVuSans-30" x="414.501953"/>
      <use xlink:href="#DejaVuSans-34" x="478.125"/>
      <use xlink:href="#DejaVuSans-25" x="541.748047"/>
      <use xlink:href="#DejaVuSans-29" x="636.767578"/>
     </g>
    </g>
   </g>
  </g>
 </g>
</svg>
