<?xml version="1.0" encoding="utf-8" standalone="no"?>
<!DOCTYPE svg PUBLIC "-//W3C//DTD SVG 1.1//EN"
  "http://www.w3.org/Graphics/SVG/1.1/DTD/svg11.dtd">
<svg xmlns:xlink="http://www.w3.org/1999/xlink" width="898.989117pt" height="653.068706pt" viewBox="0 0 898.989117 653.068706" xmlns="http://www.w3.org/2000/svg" version="1.1">
 <metadata>
  <rdf:RDF xmlns:dc="http://purl.org/dc/elements/1.1/" xmlns:cc="http://creativecommons.org/ns#" xmlns:rdf="http://www.w3.org/1999/02/22-rdf-syntax-ns#">
   <cc:Work>
    <dc:type rdf:resource="http://purl.org/dc/dcmitype/StillImage"/>
    <dc:date>2023-11-21T14:35:48.646328</dc:date>
    <dc:format>image/svg+xml</dc:format>
    <dc:creator>
     <cc:Agent>
      <dc:title>Matplotlib v3.7.0, https://matplotlib.org/</dc:title>
     </cc:Agent>
    </dc:creator>
   </cc:Work>
  </rdf:RDF>
 </metadata>
 <defs>
  <style type="text/css">*{stroke-linejoin: round; stroke-linecap: butt}</style>
 </defs>
 <g id="figure_1">
  <g id="patch_1">
   <path d="M -0 653.068706 
L 898.989117 653.068706 
L 898.989117 0 
L -0 0 
z
" style="fill: #ffffff"/>
  </g>
  <g id="axes_1">
   <g id="patch_2">
    <path d="M 326.534304 7.2 
C 310.709618 7.2 294.906799 8.376294 279.256505 10.719155 
C 263.606211 13.062017 248.151695 16.564972 233.020735 21.199057 
L 240.214087 44.686391 
C 254.181127 40.408774 268.446834 37.175277 282.893259 35.012636 
C 297.339684 32.849994 311.926901 31.764185 326.534304 31.764185 
z
" style="fill: #f4f5f5; stroke: #ffffff; stroke-linejoin: miter"/>
   </g>
   <g id="patch_3">
    <path d="M 233.020735 21.199057 
C 194.832245 32.89486 159.174721 51.651913 127.902126 76.494969 
C 96.629532 101.338025 70.293419 131.82893 50.263097 166.382349 
C 30.232776 200.935769 16.861519 238.94229 10.844547 278.425813 
C 4.827574 317.909337 6.271007 358.173497 15.099797 397.124814 
C 23.928586 436.076131 39.987018 473.027624 62.440158 506.058051 
C 84.893298 539.088478 113.345142 567.615284 146.316374 590.155258 
C 179.287607 612.695232 216.196718 628.850838 255.124669 637.782088 
C 294.05262 646.713337 334.312843 648.262711 373.812062 642.349651 
C 413.311282 636.436591 451.352854 623.165385 485.958859 603.226052 
C 520.564864 583.286719 551.12496 557.030927 576.050216 525.823809 
C 600.975473 494.616691 619.826285 459.008645 631.622531 420.851062 
C 643.418778 382.693478 647.952409 342.659339 644.987705 302.830165 
C 642.023 263.000991 631.612249 224.079244 614.296744 188.088608 
C 596.981238 152.097972 573.06637 119.67321 543.795561 92.500203 
C 514.524751 65.327196 480.414246 43.885192 443.237575 29.289038 
C 406.060904 14.692883 366.473748 7.20001 326.534386 7.2 
L 326.53438 31.764185 
C 363.401483 31.764194 399.943473 38.680692 434.260401 52.154065 
C 468.577328 65.627439 500.063948 85.420058 527.083157 110.502834 
C 554.102365 135.585609 576.177628 165.516159 592.161171 198.738284 
C 608.144715 231.96041 617.754639 267.888176 620.491289 304.653567 
C 623.227939 341.418959 619.043049 378.373549 608.154206 413.595934 
C 597.265363 448.818318 579.864613 481.687284 556.856685 510.493855 
C 533.848756 539.300425 505.639436 563.536541 473.695432 581.942079 
C 441.751427 600.347617 406.636129 612.597961 370.175312 618.05617 
C 333.714494 623.514379 296.551211 622.084188 260.617718 613.839958 
C 224.684225 605.595728 190.614276 590.68286 160.179292 569.876731 
C 129.744308 549.070601 103.481068 522.738164 82.755093 492.248539 
C 62.029117 461.758914 47.205949 427.649844 39.056297 391.694782 
C 30.906646 355.739721 29.574246 318.572803 35.128374 282.126474 
C 40.682502 245.680144 53.025201 210.597202 71.514729 178.701738 
C 90.004256 146.806274 114.314514 118.660823 143.181524 95.728772 
C 172.048535 72.79672 204.963173 55.482517 240.214087 44.686391 
z
" style="fill: #52a96c; stroke: #ffffff; stroke-linejoin: miter"/>
   </g>
   <g id="patch_4">
    <path d="M 326.534304 31.764185 
C 311.86508 31.764185 297.216297 32.859204 282.710099 35.040114 
C 268.203901 37.221023 253.880717 40.481743 239.859975 44.795087 
L 247.082836 68.273363 
C 259.935183 64.319465 273.064768 61.330471 286.362116 59.331304 
C 299.659465 57.332137 313.087515 56.328369 326.534304 56.328369 
z
" style="fill: #f4f5f5; stroke: #ffffff; stroke-linejoin: miter"/>
   </g>
   <g id="patch_5">
    <path d="M 239.859975 44.795087 
C 204.630095 55.633213 171.743624 72.983745 142.909738 95.944941 
C 114.075853 118.906136 89.802878 147.073203 71.352329 178.982241 
C 52.901781 210.891279 40.598931 245.97975 35.083184 282.424036 
C 29.567436 318.868322 30.936031 356.025931 39.11784 391.965706 
C 47.299648 427.905482 62.150429 461.993826 82.898359 492.4591 
C 103.646288 522.924373 129.925591 549.22949 160.370479 570.00732 
C 190.815367 590.785151 224.889114 605.669394 260.820839 613.886484 
C 296.752564 622.103575 333.908811 623.508651 370.358495 618.028688 
C 406.808179 612.548725 441.908713 600.280332 473.83585 581.861121 
C 505.762988 563.44191 533.953872 539.196602 556.943367 510.385274 
C 579.932861 481.573946 597.315673 448.704526 608.188383 413.485304 
C 619.061093 378.266081 623.232022 341.317951 620.484398 304.561183 
C 617.736773 267.804415 608.119035 231.887009 592.131036 198.675666 
C 576.143037 165.464322 554.066636 135.544538 527.049189 110.471306 
C 500.031742 85.398073 468.549551 65.613418 434.238808 52.145589 
C 399.928066 38.67776 363.393651 31.764188 326.534332 31.764185 
L 326.534329 56.328369 
C 360.322039 56.328372 393.811919 62.665814 425.263433 75.011323 
C 456.714947 87.356833 485.573622 105.492767 510.339615 128.476563 
C 535.105608 151.46036 555.342309 178.886829 569.997975 209.33056 
C 584.653641 239.774292 593.469901 272.698581 595.988557 306.392285 
C 598.507212 340.085989 594.683861 373.955108 584.71721 406.239395 
C 574.750559 438.523682 558.816314 468.653984 537.742611 495.064368 
C 516.668908 521.474751 490.827264 543.699617 461.560721 560.583894 
C 432.294179 577.468171 400.118689 588.714198 366.706479 593.737498 
C 333.294269 598.760797 299.234376 597.472811 266.296961 589.940477 
C 233.359547 582.408144 202.125278 568.764255 174.217464 549.71791 
C 146.30965 530.671566 122.220289 506.558542 103.201354 478.632041 
C 84.182419 450.705541 70.569203 419.457891 63.069212 386.513097 
C 55.569221 353.568303 54.314675 319.507162 59.370777 286.0999 
C 64.426879 252.692638 75.704491 220.528205 92.617494 191.278254 
C 109.530497 162.028303 131.780724 136.208492 158.211785 115.160729 
C 184.642847 94.112966 214.788779 78.208312 247.082836 68.273363 
z
" style="fill: #52a96c; stroke: #ffffff; stroke-linejoin: miter"/>
   </g>
   <g id="patch_6">
    <path d="M 326.534304 56.328369 
C 310.848485 56.328369 295.192413 57.694243 279.743567 60.410508 
C 264.294721 63.126772 249.111698 67.183125 234.366613 72.533582 
L 242.745494 95.624565 
C 256.150117 90.760513 269.952865 87.07292 283.99727 84.603589 
C 298.041676 82.134258 312.274468 80.892554 326.534304 80.892554 
z
" style="fill: #f4f5f5; stroke: #ffffff; stroke-linejoin: miter"/>
   </g>
   <g id="patch_7">
    <path d="M 234.366613 72.533582 
C 202.870202 83.962488 173.772598 101.150718 148.561313 123.219586 
C 123.350028 145.288454 102.462124 171.855375 86.96542 201.562208 
C 71.468716 231.269042 61.631862 263.600793 57.957732 296.904615 
C 54.283603 330.208437 56.835892 363.906978 65.484124 396.277519 
C 74.132356 428.648059 88.726605 459.129426 108.520791 486.163367 
C 128.314977 513.197308 152.965951 536.315166 181.213518 554.33512 
C 209.461085 572.355075 240.815548 584.964734 273.67402 591.519474 
C 306.532492 598.074214 340.325341 598.460401 373.325029 592.658294 
C 406.324716 586.856188 437.959161 574.966371 466.611164 557.59667 
C 495.263166 540.226969 520.436019 517.678502 540.842848 491.103982 
C 561.249676 464.529461 576.53671 434.38958 585.922453 402.225134 
C 595.308196 370.060687 598.629939 336.429275 595.717867 303.050185 
C 592.805796 269.671095 583.710395 237.122985 568.896634 207.06976 
C 554.082873 177.016536 533.807563 149.979199 509.107207 127.339936 
C 484.40685 104.700674 455.709652 86.851959 424.482653 74.706244 
C 393.255655 62.56053 360.040206 56.328372 326.534329 56.328369 
L 326.534327 80.892554 
C 356.994215 80.892557 387.190078 86.558154 415.578258 97.599713 
C 443.966438 108.641272 470.054801 124.867376 492.50967 145.448524 
C 514.964539 166.029672 533.39664 190.609069 546.863695 217.930182 
C 560.33075 245.251295 568.599297 274.840487 571.246634 305.185114 
C 573.893972 335.529741 570.874206 366.103752 562.341712 395.344158 
C 553.809219 424.584564 539.911915 451.984456 521.360253 476.143111 
C 502.80859 500.301766 479.924179 520.800371 453.876904 536.591009 
C 427.829628 552.381646 399.071042 563.190571 369.071326 568.465213 
C 339.071611 573.739856 308.350838 573.388776 278.4795 567.429922 
C 248.608162 561.471067 220.104105 550.007741 194.424499 533.625964 
C 168.744892 517.244187 146.334916 496.227953 128.340201 471.651643 
C 110.345486 447.075333 97.077987 419.364999 89.215959 389.937235 
C 81.35393 360.509471 79.033667 329.874434 82.373784 299.598232 
C 85.713902 269.32203 94.656496 239.929529 108.744409 212.923317 
C 122.832322 185.917104 141.821326 161.765358 164.740676 141.702751 
C 187.660025 121.640144 214.112393 106.01448 242.745494 95.624565 
z
" style="fill: #54a96d; stroke: #ffffff; stroke-linejoin: miter"/>
   </g>
   <g id="patch_8">
    <path d="M 326.534304 80.892554 
C 312.119832 80.892554 297.733293 82.161334 283.541318 84.684199 
C 269.349343 87.207064 255.406936 90.974235 241.875583 95.942081 
L 250.341455 119.001313 
C 262.519673 114.530252 275.067839 111.139797 287.840617 108.869219 
C 300.613394 106.598641 313.561279 105.456738 326.534304 105.456738 
z
" style="fill: #f4f5f5; stroke: #ffffff; stroke-linejoin: miter"/>
   </g>
   <g id="patch_9">
    <path d="M 241.875583 95.942081 
C 213.30012 106.43316 186.922143 122.145112 164.088438 142.27573 
C 141.254734 162.406348 122.360637 186.607096 108.370828 213.642353 
C 94.381019 240.677609 85.537712 270.079293 82.292422 300.346238 
C 79.047133 330.613183 81.456048 361.221355 89.396176 390.607988 
C 97.336304 419.994622 110.670171 447.650924 128.716988 472.164844 
C 146.763805 496.678763 169.211115 517.625872 194.912821 533.936671 
C 220.614527 550.247469 249.125638 561.639557 278.990456 567.531286 
C 308.855275 573.423015 339.55673 573.712378 369.527293 568.384601 
C 399.497856 563.056823 428.218624 552.204149 454.223197 536.380684 
C 480.227771 520.55722 503.065913 500.036929 521.571573 475.867519 
C 540.077233 451.698108 553.930009 424.298041 562.422619 395.066287 
C 570.915228 365.834534 573.900631 335.277203 571.226403 304.954466 
C 568.552174 274.63173 560.264614 245.068587 546.786862 217.774447 
C 533.30911 190.480307 514.874516 165.927735 492.424298 145.370313 
C 469.974081 124.812892 443.896936 108.606547 415.524289 97.578729 
C 387.151642 86.550912 356.97473 80.892553 326.534298 80.892554 
L 326.534299 105.456738 
C 353.930687 105.456738 381.089908 110.54926 406.625291 120.474296 
C 432.160673 130.399332 455.630103 144.985043 475.835299 163.486722 
C 496.040495 181.988401 512.631629 204.085717 524.761606 228.650442 
C 536.891583 253.215168 544.350387 279.821997 546.757193 307.11246 
C 549.163999 334.402923 546.477136 361.90452 538.833787 388.213099 
C 531.190439 414.521677 518.72294 439.181738 502.067846 460.934207 
C 485.412752 482.686676 464.858424 501.154938 441.454308 515.396056 
C 418.050192 529.637174 392.2015 539.404581 365.227994 544.199581 
C 338.254487 548.99458 310.623178 548.734154 283.744841 543.431597 
C 256.866504 538.129041 231.206505 527.876162 208.074969 513.196443 
C 184.943434 498.516725 164.740855 479.664327 148.49872 457.601799 
C 132.256584 435.539272 120.256104 410.6486 113.109989 384.200629 
C 105.963874 357.752659 103.79585 330.205304 106.716611 302.965054 
C 109.637371 275.724804 117.596347 249.263288 130.187176 224.931558 
C 142.778004 200.599827 159.782691 178.819154 180.333025 160.701597 
C 200.883359 142.584041 224.623538 128.443284 250.341455 119.001313 
z
" style="fill: #54a96d; stroke: #ffffff; stroke-linejoin: miter"/>
   </g>
   <g id="patch_10">
    <path d="M 326.534304 105.456738 
C 313.514887 105.456738 300.520881 106.606822 287.703862 108.893574 
C 274.886842 111.180326 262.296841 114.594819 250.080722 119.097223 
L 258.575564 142.145799 
C 269.434337 138.143661 280.625449 135.108556 292.018355 133.075888 
C 303.411261 131.04322 314.961489 130.020923 326.534304 130.020923 
z
" style="fill: #f4f5f5; stroke: #ffffff; stroke-linejoin: miter"/>
   </g>
   <g id="patch_11">
    <path d="M 250.080722 119.097223 
C 224.380168 128.569486 200.662363 142.736062 180.137762 160.873949 
C 159.613161 179.011837 142.636969 200.807136 130.075579 225.147508 
C 117.514189 249.48788 109.584992 275.952082 106.692661 303.189495 
C 103.80033 330.426908 105.994921 357.966151 113.164429 384.40174 
C 120.333938 410.837329 132.354288 435.711761 148.612011 457.75555 
C 164.869735 479.799339 185.08347 498.63099 208.221595 513.289414 
C 231.35972 527.947838 257.021798 538.179353 283.898147 543.461785 
C 310.774496 548.744218 338.399985 548.986148 365.364726 544.17523 
C 392.329468 539.364311 418.166801 529.583803 441.5581 515.332861 
C 464.949399 501.081918 485.489846 482.607173 502.131143 460.851497 
C 518.772441 439.095821 531.22659 414.435725 538.857983 388.129755 
C 546.489377 361.823785 549.165944 334.327201 546.751083 307.043311 
C 544.336223 279.75942 536.871728 253.160408 524.738554 228.603773 
C 512.60538 204.047138 496.013508 181.957866 475.809716 163.463299 
C 455.605924 144.968732 432.139865 130.388943 406.609147 120.468023 
C 381.078429 110.547102 353.924895 105.456744 326.534345 105.456738 
L 326.534341 130.020923 
C 350.881496 130.020928 375.017971 134.54569 397.711942 143.364287 
C 420.405914 152.182883 441.264633 165.142695 459.223559 181.58231 
C 477.182485 198.021925 491.930816 217.656834 502.71586 239.484954 
C 513.500903 261.313073 520.13601 284.95664 522.282552 309.208987 
C 524.429095 333.461334 522.049924 357.902742 515.266463 381.285827 
C 508.483002 404.668911 497.412648 426.588996 482.620383 445.927375 
C 467.828119 465.265754 449.569944 481.68775 428.777678 494.355254 
C 407.985413 507.022758 385.018894 515.716543 361.050235 519.992915 
C 337.081576 524.269287 312.525586 524.054238 288.635498 519.358743 
C 264.74541 514.663247 241.934674 505.568567 221.367452 492.538857 
C 200.800229 479.509147 182.832465 462.769902 168.381155 443.175422 
C 153.929845 423.580943 143.24509 401.470337 136.872193 377.972036 
C 130.499296 354.473734 128.54855 329.994407 131.119511 305.783373 
C 133.690472 281.57234 140.738646 258.048605 151.904326 236.412719 
C 163.070006 214.776832 178.159954 195.403233 196.404044 179.280666 
C 214.648134 163.158099 235.730628 150.565588 258.575564 142.145799 
z
" style="fill: #54a96d; stroke: #ffffff; stroke-linejoin: miter"/>
   </g>
   <g id="patch_12">
    <path d="M 326.534304 130.020923 
C 314.899631 130.020923 303.287909 131.054178 291.836037 133.108505 
C 280.384165 135.162832 269.137326 138.230127 258.228115 142.274227 
L 266.766389 165.306749 
C 276.311948 161.768161 286.152933 159.084278 296.173321 157.286742 
C 306.193708 155.489205 316.353965 154.585108 326.534304 154.585108 
z
" style="fill: #f4f5f5; stroke: #ffffff; stroke-linejoin: miter"/>
   </g>
   <g id="patch_13">
    <path d="M 258.228115 142.274227 
C 235.406388 150.734359 214.353771 163.361242 196.144024 179.51086 
C 177.934276 195.660478 162.882341 215.05352 151.755919 236.700871 
C 140.629498 258.348223 133.621025 281.875487 131.087958 306.082689 
C 128.554891 330.289891 130.54104 354.758362 136.945103 378.240121 
C 143.349167 401.721881 154.060386 423.810807 168.53245 443.380284 
C 183.004513 462.949761 200.987124 479.661331 221.563103 492.662644 
C 242.139082 505.663957 264.952564 514.730152 288.83998 519.39882 
C 312.727395 524.067488 337.275605 524.257884 361.232562 519.960297 
C 385.189519 515.662709 408.140883 506.951467 428.916051 494.270873 
C 449.69122 481.59028 467.930881 465.159649 482.704747 445.817004 
C 497.478612 426.474358 508.531165 404.554232 515.298686 381.174631 
C 522.066206 357.79503 524.431648 333.36031 522.274365 309.11673 
C 520.117082 284.873149 513.474385 261.240006 502.685076 239.422677 
C 491.895766 217.605347 477.146448 197.981167 459.189389 181.551039 
C 441.23233 165.120911 420.378103 152.168999 397.690346 143.355896 
C 375.00259 134.542794 350.873695 130.020925 326.534322 130.020923 
L 326.53432 154.585108 
C 347.831271 154.58511 368.944054 158.541744 388.795841 166.253209 
C 408.647628 173.964674 426.895077 185.297597 442.607504 199.673959 
C 458.31993 214.050321 471.225583 231.221479 480.666229 250.311642 
C 490.106875 269.401806 495.919235 290.080805 497.806857 311.293938 
C 499.69448 332.507071 497.624718 353.887451 491.703138 374.344602 
C 485.781558 394.801753 476.110574 413.981863 463.183441 430.906678 
C 450.256309 447.831493 434.296605 462.208295 416.118333 473.303814 
C 397.940061 484.399333 377.857617 492.021671 356.89528 495.78206 
C 335.932942 499.542449 314.453258 499.375852 293.55177 495.290768 
C 272.650282 491.205683 252.688485 483.272763 234.684503 471.896614 
C 216.680521 460.520465 200.945737 445.897841 188.282681 428.774549 
C 175.619626 411.651256 166.247309 392.323446 160.643754 371.776906 
C 155.040198 351.230367 153.302318 329.820455 155.518751 308.639153 
C 157.735185 287.457851 163.867599 266.871495 173.603217 247.930062 
C 183.338836 228.98863 196.50928 212.019718 212.442809 197.888802 
C 228.376337 183.757886 246.797377 172.709364 266.766389 165.306749 
z
" style="fill: #54a96d; stroke: #ffffff; stroke-linejoin: miter"/>
   </g>
   <g id="patch_14">
    <path d="M 326.534304 154.585108 
C 316.065279 154.585108 305.618094 155.541208 295.322978 157.44149 
C 285.027861 159.341772 274.927769 162.178307 265.148602 165.915738 
L 273.917988 188.861261 
C 282.300131 185.657749 290.957353 183.226433 299.781739 181.59762 
C 308.606124 179.968807 317.560854 179.149292 326.534304 179.149292 
z
" style="fill: #f4f5f5; stroke: #ffffff; stroke-linejoin: miter"/>
   </g>
   <g id="patch_15">
    <path d="M 265.148602 165.915738 
C 245.288943 173.505759 227.008136 184.713684 211.235438 198.969786 
C 195.46274 213.225889 182.470011 230.284449 172.917703 249.27834 
C 163.365394 268.27223 157.418151 288.874069 155.378287 310.036617 
C 153.338422 331.199165 155.241095 352.55766 160.989588 373.026399 
C 166.738081 393.495139 176.233312 412.721321 188.992616 429.727632 
C 201.75192 446.733944 217.555376 461.227261 235.599657 472.470855 
C 253.643937 483.71445 273.618028 491.514524 294.506599 495.474582 
C 315.395171 499.434641 336.838183 499.486427 357.745638 495.627309 
C 378.653094 491.76819 398.664627 484.064683 416.763004 472.908376 
C 434.861382 461.752068 450.734658 447.335252 463.575955 430.390767 
C 476.417252 413.446283 486.005237 394.266188 491.852529 373.825453 
C 497.69982 353.384718 499.705635 332.035662 497.768011 310.863509 
C 495.830387 289.691355 489.982722 269.061031 480.522268 250.021223 
C 471.061813 230.981416 458.15163 213.860299 442.447974 199.528179 
C 426.744318 185.196059 408.51786 173.899967 388.695093 166.21411 
C 368.872326 158.528253 347.79492 154.585106 326.534288 154.585108 
L 326.53429 179.149292 
C 344.757689 179.149291 362.824038 182.529131 379.81498 189.117008 
C 396.805923 195.704886 412.428602 205.38725 425.888878 217.671925 
C 439.349155 229.956599 450.415026 244.631842 458.523987 260.951677 
C 466.632948 277.271512 471.645232 294.954647 473.306053 313.102208 
C 474.966873 331.249768 473.247604 349.548958 468.235639 367.069589 
C 463.223675 384.590219 455.005403 401.0303 443.998576 415.554143 
C 432.99175 430.077987 419.386085 442.435258 403.87319 451.997808 
C 388.360295 461.560357 371.207552 468.163363 353.286876 471.471179 
C 335.366201 474.778995 316.986476 474.734606 299.081986 471.340271 
C 281.177496 467.945935 264.056847 461.260157 248.590321 451.62279 
C 233.123794 441.985424 219.577975 429.56258 208.641429 414.985742 
C 197.704882 400.408903 189.566113 383.929319 184.638833 366.384685 
C 179.711553 348.840051 178.080691 330.53277 179.829146 312.393443 
C 181.577602 294.254117 186.675238 276.595397 194.862931 260.31492 
C 203.050624 244.034442 214.187249 229.412819 227.706705 217.193303 
C 241.22616 204.973786 256.895423 195.366994 273.917988 188.861261 
z
" style="fill: #54a96d; stroke: #ffffff; stroke-linejoin: miter"/>
   </g>
   <g id="patch_16">
    <path d="M 326.534304 179.149292 
C 316.740984 179.149292 306.972001 180.1254 297.372297 182.063132 
C 287.772593 184.000864 278.38988 186.89059 269.36337 190.689436 
L 278.891859 213.330263 
C 286.413951 210.164559 294.232878 207.756453 302.232631 206.141677 
C 310.232385 204.5269 318.373204 203.713477 326.534304 203.713477 
z
" style="fill: #f4f5f5; stroke: #ffffff; stroke-linejoin: miter"/>
   </g>
   <g id="patch_17">
    <path d="M 269.36337 190.689436 
C 252.661891 197.718325 237.398971 207.767371 224.341833 220.331439 
C 211.284695 232.895507 200.655849 247.760489 192.989575 264.179164 
C 185.323302 280.59784 180.750245 298.290415 179.500278 316.367534 
C 178.250311 334.444653 180.344736 352.59826 185.678271 369.915825 
C 191.011807 387.23339 199.493563 403.4198 210.697186 417.661411 
C 221.90081 431.903022 235.635377 443.957139 251.21049 453.217836 
C 266.785603 462.478533 283.935843 468.787996 301.799116 471.829068 
C 319.66239 474.870139 337.934285 474.590994 355.696325 471.005665 
C 373.458365 467.420337 390.407863 460.589922 405.692818 450.857767 
C 420.977772 441.125613 434.337707 428.657566 445.101057 414.08036 
C 455.864408 399.503153 463.847753 383.065201 468.649792 365.592792 
C 473.451832 348.120384 474.990733 329.911269 473.189141 311.88077 
C 471.387548 293.85027 466.276162 276.305647 458.111919 260.128818 
C 449.947675 243.95199 438.869702 229.418629 425.434858 217.259286 
C 412.000013 205.099944 396.437244 195.52183 379.528846 189.006408 
C 362.620447 182.490987 344.654559 179.149289 326.534276 179.149292 
L 326.534281 203.713477 
C 341.634517 203.713474 356.60609 206.498222 370.696422 211.92774 
C 384.786754 217.357258 397.755728 225.33902 408.951432 235.471805 
C 420.147136 245.604591 429.37878 257.715725 436.182316 271.196415 
C 442.985853 284.677106 447.245341 299.297625 448.746668 314.323041 
C 450.247995 329.348458 448.965577 344.52272 444.963877 359.08306 
C 440.962178 373.643401 434.30939 387.341694 425.339932 399.489366 
C 416.370473 411.637038 405.237194 422.027077 392.499732 430.137206 
C 379.76227 438.247335 365.637688 443.939347 350.835988 446.927121 
C 336.034288 449.914895 320.807709 450.147516 305.921648 447.61329 
C 291.035586 445.079064 276.74372 439.821178 263.764459 432.10393 
C 250.785198 424.386682 239.339726 414.341585 230.003373 402.473576 
C 220.66702 390.605567 213.59889 377.116892 209.154277 362.685588 
C 204.709664 348.254284 202.96431 333.126278 204.005949 318.062012 
C 205.047588 302.997746 208.858469 288.253933 215.24703 274.571704 
C 221.635591 260.889474 230.492963 248.501989 241.373912 238.031933 
C 252.25486 227.561876 264.97396 219.187671 278.891859 213.330263 
z
" style="fill: #56aa6f; stroke: #ffffff; stroke-linejoin: miter"/>
   </g>
   <g id="patch_18">
    <path d="M 326.534304 203.713477 
C 315.378858 203.713477 304.275237 205.233299 293.530101 208.230969 
C 282.784965 211.228639 272.498151 215.676305 262.953761 221.451129 
L 275.66987 242.467784 
C 283.305382 237.847924 291.534832 234.289792 300.130941 231.891655 
C 308.727051 229.493519 317.609947 228.277662 326.534304 228.277662 
z
" style="fill: #f4f5f5; stroke: #ffffff; stroke-linejoin: miter"/>
   </g>
   <g id="patch_19">
    <path d="M 262.953761 221.451129 
C 250.356029 229.073377 239.231016 238.899266 230.110824 250.458835 
C 220.990631 262.018403 214.023018 275.12437 209.541238 289.149889 
C 205.059458 303.175408 203.136123 317.893247 203.863223 332.599465 
C 204.590323 347.305683 207.956079 361.76202 213.79951 375.277043 
C 219.64294 388.792066 227.869374 401.146814 238.085349 411.75037 
C 248.301324 422.353925 260.341326 431.034497 273.629495 437.376902 
C 286.917664 443.719307 301.238713 447.62079 315.907679 448.894745 
C 330.576645 450.1687 345.355872 448.794489 359.538482 444.837838 
C 373.721093 440.881187 387.07731 434.406199 398.968319 425.722568 
C 410.859327 417.038937 421.092476 406.287348 429.178324 393.982041 
C 437.264172 381.676733 443.071718 368.01707 446.323191 353.656378 
C 449.574664 339.295687 450.217387 324.466631 448.220619 309.87847 
C 446.22385 295.290309 441.619941 281.17939 434.629091 268.220627 
C 427.638242 255.261863 418.373713 243.665204 407.278619 233.985306 
C 396.183525 224.305408 383.437621 216.6991 369.650532 211.530182 
C 355.863443 206.361265 341.258538 203.713483 326.534356 203.713477 
L 326.534345 228.277662 
C 338.313691 228.277667 349.997615 230.395892 361.027286 234.531026 
C 372.056957 238.66616 382.253681 244.751207 391.129756 252.495125 
C 400.005831 260.239043 407.417454 269.516371 413.010134 279.883381 
C 418.602813 290.250392 422.285941 301.539127 423.883356 313.209656 
C 425.48077 324.880185 424.966592 336.74343 422.365414 348.231983 
C 419.764235 359.720536 415.118199 370.648267 408.64952 380.492513 
C 402.180842 390.336759 393.994322 398.93803 384.481516 405.884934 
C 374.968709 412.831839 364.283735 418.011829 352.937647 421.17715 
C 341.591558 424.342471 329.768177 425.44184 318.033004 424.422676 
C 306.297831 423.403512 294.840992 420.282326 284.210457 415.208402 
C 273.579922 410.134478 263.94792 403.19002 255.77514 394.707176 
C 247.60236 386.224331 241.021213 376.340533 236.346469 365.528515 
C 231.671724 354.716496 228.979119 343.151426 228.397439 331.386452 
C 227.815759 319.621477 229.354427 307.847206 232.939851 296.626791 
C 236.525275 285.406376 242.099366 274.921603 249.39552 265.673948 
C 256.691674 256.426293 265.591684 248.565582 275.66987 242.467784 
z
" style="fill: #59ac72; stroke: #ffffff; stroke-linejoin: miter"/>
   </g>
   <g id="patch_20">
    <path d="M 326.534304 228.277662 
C 315.923491 228.277662 305.382399 229.996465 295.321208 233.367189 
C 285.260017 236.737912 275.810945 241.71626 267.341679 248.108513 
L 282.139835 267.714984 
C 288.491785 262.920795 295.578589 259.187034 303.124482 256.658991 
C 310.670375 254.130949 318.576195 252.841846 326.534304 252.841846 
z
" style="fill: #f4f5f5; stroke: #ffffff; stroke-linejoin: miter"/>
   </g>
   <g id="patch_21">
    <path d="M 267.341679 248.108513 
C 258.108372 255.077432 250.177903 263.622506 243.916275 273.349366 
C 237.654646 283.076226 233.159691 293.832899 230.638859 305.122948 
C 228.118027 316.412997 227.610703 328.060024 229.140301 339.526503 
C 230.669898 350.992981 234.21252 362.099757 239.604667 372.334235 
C 244.996815 382.568713 252.15424 391.770989 260.746619 399.516364 
C 269.338997 407.261739 279.232079 413.429198 289.969285 417.734104 
C 300.706491 422.03901 312.12006 424.414102 323.68324 424.749766 
C 335.24642 425.08543 346.778545 423.376422 357.747391 419.701614 
C 368.716238 416.026807 378.950426 410.443616 387.977633 403.209715 
C 397.004841 395.975814 404.684024 387.204225 410.660779 377.299771 
C 416.637533 367.395317 420.818476 356.512747 423.010652 345.154307 
C 425.202828 333.795866 425.371985 322.139022 423.510316 310.721755 
C 421.648648 299.304488 417.785241 288.305183 412.098397 278.231474 
C 406.411553 268.157765 398.990126 259.167046 390.176623 251.674251 
C 381.363121 244.181456 371.295247 238.303655 360.43765 234.312115 
C 349.580053 230.320576 338.102373 228.277664 326.534322 228.277662 
L 326.534318 252.841846 
C 335.210356 252.841848 343.818616 254.374032 351.961814 257.367687 
C 360.105011 260.361341 367.655916 264.769692 374.266043 270.389288 
C 380.87617 276.008885 386.442241 282.751924 390.707374 290.307206 
C 394.972506 297.862487 397.870062 306.111966 399.266313 314.674916 
C 400.662565 323.237867 400.535697 331.9805 398.891565 340.49933 
C 397.247433 349.01816 394.111726 357.180088 389.62916 364.608428 
C 385.146594 372.036769 379.387206 378.61546 372.616801 384.040886 
C 365.846396 389.466312 358.170754 393.653705 349.94412 396.409811 
C 341.717485 399.165916 333.068391 400.447672 324.396006 400.195924 
C 315.723621 399.944176 307.163444 398.162857 299.11054 394.934178 
C 291.057635 391.705499 283.637824 387.079904 277.19354 381.270873 
C 270.749256 375.461842 265.381187 368.560135 261.337076 360.884276 
C 257.292966 353.208417 254.636 344.878336 253.488801 336.278477 
C 252.341603 327.678618 252.722096 318.943347 254.61272 310.475811 
C 256.503345 302.008274 259.874561 293.94077 264.570782 286.645624 
C 269.267003 279.350479 275.214855 272.941674 282.139835 267.714984 
z
" style="fill: #5dae75; stroke: #ffffff; stroke-linejoin: miter"/>
   </g>
   <g id="matplotlib.axis_1"/>
   <g id="matplotlib.axis_2"/>
   <g id="text_1">
    <!-- AUPRC_1 on generalized models -->
    <g transform="translate(190.572429 94.3392) scale(0.168 -0.168)">
     <defs>
      <path id="DejaVuSans-41" d="M 2188 4044 
L 1331 1722 
L 3047 1722 
L 2188 4044 
z
M 1831 4666 
L 2547 4666 
L 4325 0 
L 3669 0 
L 3244 1197 
L 1141 1197 
L 716 0 
L 50 0 
L 1831 4666 
z
" transform="scale(0.015625)"/>
      <path id="DejaVuSans-55" d="M 556 4666 
L 1191 4666 
L 1191 1831 
Q 1191 1081 1462 751 
Q 1734 422 2344 422 
Q 2950 422 3222 751 
Q 3494 1081 3494 1831 
L 3494 4666 
L 4128 4666 
L 4128 1753 
Q 4128 841 3676 375 
Q 3225 -91 2344 -91 
Q 1459 -91 1007 375 
Q 556 841 556 1753 
L 556 4666 
z
" transform="scale(0.015625)"/>
      <path id="DejaVuSans-50" d="M 1259 4147 
L 1259 2394 
L 2053 2394 
Q 2494 2394 2734 2622 
Q 2975 2850 2975 3272 
Q 2975 3691 2734 3919 
Q 2494 4147 2053 4147 
L 1259 4147 
z
M 628 4666 
L 2053 4666 
Q 2838 4666 3239 4311 
Q 3641 3956 3641 3272 
Q 3641 2581 3239 2228 
Q 2838 1875 2053 1875 
L 1259 1875 
L 1259 0 
L 628 0 
L 628 4666 
z
" transform="scale(0.015625)"/>
      <path id="DejaVuSans-52" d="M 2841 2188 
Q 3044 2119 3236 1894 
Q 3428 1669 3622 1275 
L 4263 0 
L 3584 0 
L 2988 1197 
Q 2756 1666 2539 1819 
Q 2322 1972 1947 1972 
L 1259 1972 
L 1259 0 
L 628 0 
L 628 4666 
L 2053 4666 
Q 2853 4666 3247 4331 
Q 3641 3997 3641 3322 
Q 3641 2881 3436 2590 
Q 3231 2300 2841 2188 
z
M 1259 4147 
L 1259 2491 
L 2053 2491 
Q 2509 2491 2742 2702 
Q 2975 2913 2975 3322 
Q 2975 3731 2742 3939 
Q 2509 4147 2053 4147 
L 1259 4147 
z
" transform="scale(0.015625)"/>
      <path id="DejaVuSans-43" d="M 4122 4306 
L 4122 3641 
Q 3803 3938 3442 4084 
Q 3081 4231 2675 4231 
Q 1875 4231 1450 3742 
Q 1025 3253 1025 2328 
Q 1025 1406 1450 917 
Q 1875 428 2675 428 
Q 3081 428 3442 575 
Q 3803 722 4122 1019 
L 4122 359 
Q 3791 134 3420 21 
Q 3050 -91 2638 -91 
Q 1578 -91 968 557 
Q 359 1206 359 2328 
Q 359 3453 968 4101 
Q 1578 4750 2638 4750 
Q 3056 4750 3426 4639 
Q 3797 4528 4122 4306 
z
" transform="scale(0.015625)"/>
      <path id="DejaVuSans-5f" d="M 3263 -1063 
L 3263 -1509 
L -63 -1509 
L -63 -1063 
L 3263 -1063 
z
" transform="scale(0.015625)"/>
      <path id="DejaVuSans-31" d="M 794 531 
L 1825 531 
L 1825 4091 
L 703 3866 
L 703 4441 
L 1819 4666 
L 2450 4666 
L 2450 531 
L 3481 531 
L 3481 0 
L 794 0 
L 794 531 
z
" transform="scale(0.015625)"/>
      <path id="DejaVuSans-20" transform="scale(0.015625)"/>
      <path id="DejaVuSans-6f" d="M 1959 3097 
Q 1497 3097 1228 2736 
Q 959 2375 959 1747 
Q 959 1119 1226 758 
Q 1494 397 1959 397 
Q 2419 397 2687 759 
Q 2956 1122 2956 1747 
Q 2956 2369 2687 2733 
Q 2419 3097 1959 3097 
z
M 1959 3584 
Q 2709 3584 3137 3096 
Q 3566 2609 3566 1747 
Q 3566 888 3137 398 
Q 2709 -91 1959 -91 
Q 1206 -91 779 398 
Q 353 888 353 1747 
Q 353 2609 779 3096 
Q 1206 3584 1959 3584 
z
" transform="scale(0.015625)"/>
      <path id="DejaVuSans-6e" d="M 3513 2113 
L 3513 0 
L 2938 0 
L 2938 2094 
Q 2938 2591 2744 2837 
Q 2550 3084 2163 3084 
Q 1697 3084 1428 2787 
Q 1159 2491 1159 1978 
L 1159 0 
L 581 0 
L 581 3500 
L 1159 3500 
L 1159 2956 
Q 1366 3272 1645 3428 
Q 1925 3584 2291 3584 
Q 2894 3584 3203 3211 
Q 3513 2838 3513 2113 
z
" transform="scale(0.015625)"/>
      <path id="DejaVuSans-67" d="M 2906 1791 
Q 2906 2416 2648 2759 
Q 2391 3103 1925 3103 
Q 1463 3103 1205 2759 
Q 947 2416 947 1791 
Q 947 1169 1205 825 
Q 1463 481 1925 481 
Q 2391 481 2648 825 
Q 2906 1169 2906 1791 
z
M 3481 434 
Q 3481 -459 3084 -895 
Q 2688 -1331 1869 -1331 
Q 1566 -1331 1297 -1286 
Q 1028 -1241 775 -1147 
L 775 -588 
Q 1028 -725 1275 -790 
Q 1522 -856 1778 -856 
Q 2344 -856 2625 -561 
Q 2906 -266 2906 331 
L 2906 616 
Q 2728 306 2450 153 
Q 2172 0 1784 0 
Q 1141 0 747 490 
Q 353 981 353 1791 
Q 353 2603 747 3093 
Q 1141 3584 1784 3584 
Q 2172 3584 2450 3431 
Q 2728 3278 2906 2969 
L 2906 3500 
L 3481 3500 
L 3481 434 
z
" transform="scale(0.015625)"/>
      <path id="DejaVuSans-65" d="M 3597 1894 
L 3597 1613 
L 953 1613 
Q 991 1019 1311 708 
Q 1631 397 2203 397 
Q 2534 397 2845 478 
Q 3156 559 3463 722 
L 3463 178 
Q 3153 47 2828 -22 
Q 2503 -91 2169 -91 
Q 1331 -91 842 396 
Q 353 884 353 1716 
Q 353 2575 817 3079 
Q 1281 3584 2069 3584 
Q 2775 3584 3186 3129 
Q 3597 2675 3597 1894 
z
M 3022 2063 
Q 3016 2534 2758 2815 
Q 2500 3097 2075 3097 
Q 1594 3097 1305 2825 
Q 1016 2553 972 2059 
L 3022 2063 
z
" transform="scale(0.015625)"/>
      <path id="DejaVuSans-72" d="M 2631 2963 
Q 2534 3019 2420 3045 
Q 2306 3072 2169 3072 
Q 1681 3072 1420 2755 
Q 1159 2438 1159 1844 
L 1159 0 
L 581 0 
L 581 3500 
L 1159 3500 
L 1159 2956 
Q 1341 3275 1631 3429 
Q 1922 3584 2338 3584 
Q 2397 3584 2469 3576 
Q 2541 3569 2628 3553 
L 2631 2963 
z
" transform="scale(0.015625)"/>
      <path id="DejaVuSans-61" d="M 2194 1759 
Q 1497 1759 1228 1600 
Q 959 1441 959 1056 
Q 959 750 1161 570 
Q 1363 391 1709 391 
Q 2188 391 2477 730 
Q 2766 1069 2766 1631 
L 2766 1759 
L 2194 1759 
z
M 3341 1997 
L 3341 0 
L 2766 0 
L 2766 531 
Q 2569 213 2275 61 
Q 1981 -91 1556 -91 
Q 1019 -91 701 211 
Q 384 513 384 1019 
Q 384 1609 779 1909 
Q 1175 2209 1959 2209 
L 2766 2209 
L 2766 2266 
Q 2766 2663 2505 2880 
Q 2244 3097 1772 3097 
Q 1472 3097 1187 3025 
Q 903 2953 641 2809 
L 641 3341 
Q 956 3463 1253 3523 
Q 1550 3584 1831 3584 
Q 2591 3584 2966 3190 
Q 3341 2797 3341 1997 
z
" transform="scale(0.015625)"/>
      <path id="DejaVuSans-6c" d="M 603 4863 
L 1178 4863 
L 1178 0 
L 603 0 
L 603 4863 
z
" transform="scale(0.015625)"/>
      <path id="DejaVuSans-69" d="M 603 3500 
L 1178 3500 
L 1178 0 
L 603 0 
L 603 3500 
z
M 603 4863 
L 1178 4863 
L 1178 4134 
L 603 4134 
L 603 4863 
z
" transform="scale(0.015625)"/>
      <path id="DejaVuSans-7a" d="M 353 3500 
L 3084 3500 
L 3084 2975 
L 922 459 
L 3084 459 
L 3084 0 
L 275 0 
L 275 525 
L 2438 3041 
L 353 3041 
L 353 3500 
z
" transform="scale(0.015625)"/>
      <path id="DejaVuSans-64" d="M 2906 2969 
L 2906 4863 
L 3481 4863 
L 3481 0 
L 2906 0 
L 2906 525 
Q 2725 213 2448 61 
Q 2172 -91 1784 -91 
Q 1150 -91 751 415 
Q 353 922 353 1747 
Q 353 2572 751 3078 
Q 1150 3584 1784 3584 
Q 2172 3584 2448 3432 
Q 2725 3281 2906 2969 
z
M 947 1747 
Q 947 1113 1208 752 
Q 1469 391 1925 391 
Q 2381 391 2643 752 
Q 2906 1113 2906 1747 
Q 2906 2381 2643 2742 
Q 2381 3103 1925 3103 
Q 1469 3103 1208 2742 
Q 947 2381 947 1747 
z
" transform="scale(0.015625)"/>
      <path id="DejaVuSans-6d" d="M 3328 2828 
Q 3544 3216 3844 3400 
Q 4144 3584 4550 3584 
Q 5097 3584 5394 3201 
Q 5691 2819 5691 2113 
L 5691 0 
L 5113 0 
L 5113 2094 
Q 5113 2597 4934 2840 
Q 4756 3084 4391 3084 
Q 3944 3084 3684 2787 
Q 3425 2491 3425 1978 
L 3425 0 
L 2847 0 
L 2847 2094 
Q 2847 2600 2669 2842 
Q 2491 3084 2119 3084 
Q 1678 3084 1418 2786 
Q 1159 2488 1159 1978 
L 1159 0 
L 581 0 
L 581 3500 
L 1159 3500 
L 1159 2956 
Q 1356 3278 1631 3431 
Q 1906 3584 2284 3584 
Q 2666 3584 2933 3390 
Q 3200 3197 3328 2828 
z
" transform="scale(0.015625)"/>
      <path id="DejaVuSans-73" d="M 2834 3397 
L 2834 2853 
Q 2591 2978 2328 3040 
Q 2066 3103 1784 3103 
Q 1356 3103 1142 2972 
Q 928 2841 928 2578 
Q 928 2378 1081 2264 
Q 1234 2150 1697 2047 
L 1894 2003 
Q 2506 1872 2764 1633 
Q 3022 1394 3022 966 
Q 3022 478 2636 193 
Q 2250 -91 1575 -91 
Q 1294 -91 989 -36 
Q 684 19 347 128 
L 347 722 
Q 666 556 975 473 
Q 1284 391 1588 391 
Q 1994 391 2212 530 
Q 2431 669 2431 922 
Q 2431 1156 2273 1281 
Q 2116 1406 1581 1522 
L 1381 1569 
Q 847 1681 609 1914 
Q 372 2147 372 2553 
Q 372 3047 722 3315 
Q 1072 3584 1716 3584 
Q 2034 3584 2315 3537 
Q 2597 3491 2834 3397 
z
" transform="scale(0.015625)"/>
     </defs>
     <use xlink:href="#DejaVuSans-41"/>
     <use xlink:href="#DejaVuSans-55" x="68.408203"/>
     <use xlink:href="#DejaVuSans-50" x="141.601562"/>
     <use xlink:href="#DejaVuSans-52" x="201.904297"/>
     <use xlink:href="#DejaVuSans-43" x="266.386719"/>
     <use xlink:href="#DejaVuSans-5f" x="336.210938"/>
     <use xlink:href="#DejaVuSans-31" x="386.210938"/>
     <use xlink:href="#DejaVuSans-20" x="449.833984"/>
     <use xlink:href="#DejaVuSans-6f" x="481.621094"/>
     <use xlink:href="#DejaVuSans-6e" x="542.802734"/>
     <use xlink:href="#DejaVuSans-20" x="606.181641"/>
     <use xlink:href="#DejaVuSans-67" x="637.96875"/>
     <use xlink:href="#DejaVuSans-65" x="701.445312"/>
     <use xlink:href="#DejaVuSans-6e" x="762.96875"/>
     <use xlink:href="#DejaVuSans-65" x="826.347656"/>
     <use xlink:href="#DejaVuSans-72" x="887.871094"/>
     <use xlink:href="#DejaVuSans-61" x="928.984375"/>
     <use xlink:href="#DejaVuSans-6c" x="990.263672"/>
     <use xlink:href="#DejaVuSans-69" x="1018.046875"/>
     <use xlink:href="#DejaVuSans-7a" x="1045.830078"/>
     <use xlink:href="#DejaVuSans-65" x="1098.320312"/>
     <use xlink:href="#DejaVuSans-64" x="1159.84375"/>
     <use xlink:href="#DejaVuSans-20" x="1223.320312"/>
     <use xlink:href="#DejaVuSans-6d" x="1255.107422"/>
     <use xlink:href="#DejaVuSans-6f" x="1352.519531"/>
     <use xlink:href="#DejaVuSans-64" x="1413.701172"/>
     <use xlink:href="#DejaVuSans-65" x="1477.177734"/>
     <use xlink:href="#DejaVuSans-6c" x="1538.701172"/>
     <use xlink:href="#DejaVuSans-73" x="1566.484375"/>
    </g>
   </g>
   <g id="legend_1">
    <g id="patch_22">
     <path d="M 595.446304 326.5344 
L 888.989117 326.5344 
Q 891.789117 326.5344 891.789117 323.7344 
L 891.789117 97.1444 
Q 891.789117 94.3444 888.989117 94.3444 
L 595.446304 94.3444 
Q 592.646304 94.3444 592.646304 97.1444 
L 592.646304 323.7344 
Q 592.646304 326.5344 595.446304 326.5344 
z
" style="fill: #ffffff; opacity: 0.8; stroke: #cccccc; stroke-linejoin: miter"/>
    </g>
    <g id="text_2">
     <!-- Models -->
     <g transform="translate(717.552554 110.582213) scale(0.14 -0.14)">
      <defs>
       <path id="DejaVuSans-4d" d="M 628 4666 
L 1569 4666 
L 2759 1491 
L 3956 4666 
L 4897 4666 
L 4897 0 
L 4281 0 
L 4281 4097 
L 3078 897 
L 2444 897 
L 1241 4097 
L 1241 0 
L 628 0 
L 628 4666 
z
" transform="scale(0.015625)"/>
      </defs>
      <use xlink:href="#DejaVuSans-4d"/>
      <use xlink:href="#DejaVuSans-6f" x="86.279297"/>
      <use xlink:href="#DejaVuSans-64" x="147.460938"/>
      <use xlink:href="#DejaVuSans-65" x="210.9375"/>
      <use xlink:href="#DejaVuSans-6c" x="272.460938"/>
      <use xlink:href="#DejaVuSans-73" x="300.244141"/>
     </g>
    </g>
    <g id="patch_23">
     <path d="M 598.246304 131.131588 
L 626.246304 131.131588 
L 626.246304 121.331588 
L 598.246304 121.331588 
z
" style="fill: #52a96c; stroke: #ffffff; stroke-linejoin: miter"/>
    </g>
    <g id="text_3">
     <!-- random_forest (95.27%) -->
     <g transform="translate(637.446304 131.131588) scale(0.14 -0.14)">
      <defs>
       <path id="DejaVuSans-66" d="M 2375 4863 
L 2375 4384 
L 1825 4384 
Q 1516 4384 1395 4259 
Q 1275 4134 1275 3809 
L 1275 3500 
L 2222 3500 
L 2222 3053 
L 1275 3053 
L 1275 0 
L 697 0 
L 697 3053 
L 147 3053 
L 147 3500 
L 697 3500 
L 697 3744 
Q 697 4328 969 4595 
Q 1241 4863 1831 4863 
L 2375 4863 
z
" transform="scale(0.015625)"/>
       <path id="DejaVuSans-74" d="M 1172 4494 
L 1172 3500 
L 2356 3500 
L 2356 3053 
L 1172 3053 
L 1172 1153 
Q 1172 725 1289 603 
Q 1406 481 1766 481 
L 2356 481 
L 2356 0 
L 1766 0 
Q 1100 0 847 248 
Q 594 497 594 1153 
L 594 3053 
L 172 3053 
L 172 3500 
L 594 3500 
L 594 4494 
L 1172 4494 
z
" transform="scale(0.015625)"/>
       <path id="DejaVuSans-28" d="M 1984 4856 
Q 1566 4138 1362 3434 
Q 1159 2731 1159 2009 
Q 1159 1288 1364 580 
Q 1569 -128 1984 -844 
L 1484 -844 
Q 1016 -109 783 600 
Q 550 1309 550 2009 
Q 550 2706 781 3412 
Q 1013 4119 1484 4856 
L 1984 4856 
z
" transform="scale(0.015625)"/>
       <path id="DejaVuSans-39" d="M 703 97 
L 703 672 
Q 941 559 1184 500 
Q 1428 441 1663 441 
Q 2288 441 2617 861 
Q 2947 1281 2994 2138 
Q 2813 1869 2534 1725 
Q 2256 1581 1919 1581 
Q 1219 1581 811 2004 
Q 403 2428 403 3163 
Q 403 3881 828 4315 
Q 1253 4750 1959 4750 
Q 2769 4750 3195 4129 
Q 3622 3509 3622 2328 
Q 3622 1225 3098 567 
Q 2575 -91 1691 -91 
Q 1453 -91 1209 -44 
Q 966 3 703 97 
z
M 1959 2075 
Q 2384 2075 2632 2365 
Q 2881 2656 2881 3163 
Q 2881 3666 2632 3958 
Q 2384 4250 1959 4250 
Q 1534 4250 1286 3958 
Q 1038 3666 1038 3163 
Q 1038 2656 1286 2365 
Q 1534 2075 1959 2075 
z
" transform="scale(0.015625)"/>
       <path id="DejaVuSans-35" d="M 691 4666 
L 3169 4666 
L 3169 4134 
L 1269 4134 
L 1269 2991 
Q 1406 3038 1543 3061 
Q 1681 3084 1819 3084 
Q 2600 3084 3056 2656 
Q 3513 2228 3513 1497 
Q 3513 744 3044 326 
Q 2575 -91 1722 -91 
Q 1428 -91 1123 -41 
Q 819 9 494 109 
L 494 744 
Q 775 591 1075 516 
Q 1375 441 1709 441 
Q 2250 441 2565 725 
Q 2881 1009 2881 1497 
Q 2881 1984 2565 2268 
Q 2250 2553 1709 2553 
Q 1456 2553 1204 2497 
Q 953 2441 691 2322 
L 691 4666 
z
" transform="scale(0.015625)"/>
       <path id="DejaVuSans-2e" d="M 684 794 
L 1344 794 
L 1344 0 
L 684 0 
L 684 794 
z
" transform="scale(0.015625)"/>
       <path id="DejaVuSans-32" d="M 1228 531 
L 3431 531 
L 3431 0 
L 469 0 
L 469 531 
Q 828 903 1448 1529 
Q 2069 2156 2228 2338 
Q 2531 2678 2651 2914 
Q 2772 3150 2772 3378 
Q 2772 3750 2511 3984 
Q 2250 4219 1831 4219 
Q 1534 4219 1204 4116 
Q 875 4013 500 3803 
L 500 4441 
Q 881 4594 1212 4672 
Q 1544 4750 1819 4750 
Q 2544 4750 2975 4387 
Q 3406 4025 3406 3419 
Q 3406 3131 3298 2873 
Q 3191 2616 2906 2266 
Q 2828 2175 2409 1742 
Q 1991 1309 1228 531 
z
" transform="scale(0.015625)"/>
       <path id="DejaVuSans-37" d="M 525 4666 
L 3525 4666 
L 3525 4397 
L 1831 0 
L 1172 0 
L 2766 4134 
L 525 4134 
L 525 4666 
z
" transform="scale(0.015625)"/>
       <path id="DejaVuSans-25" d="M 4653 2053 
Q 4381 2053 4226 1822 
Q 4072 1591 4072 1178 
Q 4072 772 4226 539 
Q 4381 306 4653 306 
Q 4919 306 5073 539 
Q 5228 772 5228 1178 
Q 5228 1588 5073 1820 
Q 4919 2053 4653 2053 
z
M 4653 2450 
Q 5147 2450 5437 2106 
Q 5728 1763 5728 1178 
Q 5728 594 5436 251 
Q 5144 -91 4653 -91 
Q 4153 -91 3862 251 
Q 3572 594 3572 1178 
Q 3572 1766 3864 2108 
Q 4156 2450 4653 2450 
z
M 1428 4353 
Q 1159 4353 1004 4120 
Q 850 3888 850 3481 
Q 850 3069 1003 2837 
Q 1156 2606 1428 2606 
Q 1700 2606 1854 2837 
Q 2009 3069 2009 3481 
Q 2009 3884 1853 4118 
Q 1697 4353 1428 4353 
z
M 4250 4750 
L 4750 4750 
L 1831 -91 
L 1331 -91 
L 4250 4750 
z
M 1428 4750 
Q 1922 4750 2215 4408 
Q 2509 4066 2509 3481 
Q 2509 2891 2217 2550 
Q 1925 2209 1428 2209 
Q 931 2209 642 2551 
Q 353 2894 353 3481 
Q 353 4063 643 4406 
Q 934 4750 1428 4750 
z
" transform="scale(0.015625)"/>
       <path id="DejaVuSans-29" d="M 513 4856 
L 1013 4856 
Q 1481 4119 1714 3412 
Q 1947 2706 1947 2009 
Q 1947 1309 1714 600 
Q 1481 -109 1013 -844 
L 513 -844 
Q 928 -128 1133 580 
Q 1338 1288 1338 2009 
Q 1338 2731 1133 3434 
Q 928 4138 513 4856 
z
" transform="scale(0.015625)"/>
      </defs>
      <use xlink:href="#DejaVuSans-72"/>
      <use xlink:href="#DejaVuSans-61" x="41.113281"/>
      <use xlink:href="#DejaVuSans-6e" x="102.392578"/>
      <use xlink:href="#DejaVuSans-64" x="165.771484"/>
      <use xlink:href="#DejaVuSans-6f" x="229.248047"/>
      <use xlink:href="#DejaVuSans-6d" x="290.429688"/>
      <use xlink:href="#DejaVuSans-5f" x="387.841797"/>
      <use xlink:href="#DejaVuSans-66" x="437.841797"/>
      <use xlink:href="#DejaVuSans-6f" x="473.046875"/>
      <use xlink:href="#DejaVuSans-72" x="534.228516"/>
      <use xlink:href="#DejaVuSans-65" x="573.091797"/>
      <use xlink:href="#DejaVuSans-73" x="634.615234"/>
      <use xlink:href="#DejaVuSans-74" x="686.714844"/>
      <use xlink:href="#DejaVuSans-20" x="725.923828"/>
      <use xlink:href="#DejaVuSans-28" x="757.710938"/>
      <use xlink:href="#DejaVuSans-39" x="796.724609"/>
      <use xlink:href="#DejaVuSans-35" x="860.347656"/>
      <use xlink:href="#DejaVuSans-2e" x="923.970703"/>
      <use xlink:href="#DejaVuSans-32" x="955.757812"/>
      <use xlink:href="#DejaVuSans-37" x="1019.380859"/>
      <use xlink:href="#DejaVuSans-25" x="1083.003906"/>
      <use xlink:href="#DejaVuSans-29" x="1178.023438"/>
     </g>
    </g>
    <g id="patch_24">
     <path d="M 598.246304 152.070338 
L 626.246304 152.070338 
L 626.246304 142.270338 
L 598.246304 142.270338 
z
" style="fill: #52a96c; stroke: #ffffff; stroke-linejoin: miter"/>
    </g>
    <g id="text_4">
     <!-- xgboost (95.25%) -->
     <g transform="translate(637.446304 152.070338) scale(0.14 -0.14)">
      <defs>
       <path id="DejaVuSans-78" d="M 3513 3500 
L 2247 1797 
L 3578 0 
L 2900 0 
L 1881 1375 
L 863 0 
L 184 0 
L 1544 1831 
L 300 3500 
L 978 3500 
L 1906 2253 
L 2834 3500 
L 3513 3500 
z
" transform="scale(0.015625)"/>
       <path id="DejaVuSans-62" d="M 3116 1747 
Q 3116 2381 2855 2742 
Q 2594 3103 2138 3103 
Q 1681 3103 1420 2742 
Q 1159 2381 1159 1747 
Q 1159 1113 1420 752 
Q 1681 391 2138 391 
Q 2594 391 2855 752 
Q 3116 1113 3116 1747 
z
M 1159 2969 
Q 1341 3281 1617 3432 
Q 1894 3584 2278 3584 
Q 2916 3584 3314 3078 
Q 3713 2572 3713 1747 
Q 3713 922 3314 415 
Q 2916 -91 2278 -91 
Q 1894 -91 1617 61 
Q 1341 213 1159 525 
L 1159 0 
L 581 0 
L 581 4863 
L 1159 4863 
L 1159 2969 
z
" transform="scale(0.015625)"/>
      </defs>
      <use xlink:href="#DejaVuSans-78"/>
      <use xlink:href="#DejaVuSans-67" x="59.179688"/>
      <use xlink:href="#DejaVuSans-62" x="122.65625"/>
      <use xlink:href="#DejaVuSans-6f" x="186.132812"/>
      <use xlink:href="#DejaVuSans-6f" x="247.314453"/>
      <use xlink:href="#DejaVuSans-73" x="308.496094"/>
      <use xlink:href="#DejaVuSans-74" x="360.595703"/>
      <use xlink:href="#DejaVuSans-20" x="399.804688"/>
      <use xlink:href="#DejaVuSans-28" x="431.591797"/>
      <use xlink:href="#DejaVuSans-39" x="470.605469"/>
      <use xlink:href="#DejaVuSans-35" x="534.228516"/>
      <use xlink:href="#DejaVuSans-2e" x="597.851562"/>
      <use xlink:href="#DejaVuSans-32" x="629.638672"/>
      <use xlink:href="#DejaVuSans-35" x="693.261719"/>
      <use xlink:href="#DejaVuSans-25" x="756.884766"/>
      <use xlink:href="#DejaVuSans-29" x="851.904297"/>
     </g>
    </g>
    <g id="patch_25">
     <path d="M 598.246304 172.619713 
L 626.246304 172.619713 
L 626.246304 162.819713 
L 598.246304 162.819713 
z
" style="fill: #54a96d; stroke: #ffffff; stroke-linejoin: miter"/>
    </g>
    <g id="text_5">
     <!-- neural_network (94.46%) -->
     <g transform="translate(637.446304 172.619713) scale(0.14 -0.14)">
      <defs>
       <path id="DejaVuSans-75" d="M 544 1381 
L 544 3500 
L 1119 3500 
L 1119 1403 
Q 1119 906 1312 657 
Q 1506 409 1894 409 
Q 2359 409 2629 706 
Q 2900 1003 2900 1516 
L 2900 3500 
L 3475 3500 
L 3475 0 
L 2900 0 
L 2900 538 
Q 2691 219 2414 64 
Q 2138 -91 1772 -91 
Q 1169 -91 856 284 
Q 544 659 544 1381 
z
M 1991 3584 
L 1991 3584 
z
" transform="scale(0.015625)"/>
       <path id="DejaVuSans-77" d="M 269 3500 
L 844 3500 
L 1563 769 
L 2278 3500 
L 2956 3500 
L 3675 769 
L 4391 3500 
L 4966 3500 
L 4050 0 
L 3372 0 
L 2619 2869 
L 1863 0 
L 1184 0 
L 269 3500 
z
" transform="scale(0.015625)"/>
       <path id="DejaVuSans-6b" d="M 581 4863 
L 1159 4863 
L 1159 1991 
L 2875 3500 
L 3609 3500 
L 1753 1863 
L 3688 0 
L 2938 0 
L 1159 1709 
L 1159 0 
L 581 0 
L 581 4863 
z
" transform="scale(0.015625)"/>
       <path id="DejaVuSans-34" d="M 2419 4116 
L 825 1625 
L 2419 1625 
L 2419 4116 
z
M 2253 4666 
L 3047 4666 
L 3047 1625 
L 3713 1625 
L 3713 1100 
L 3047 1100 
L 3047 0 
L 2419 0 
L 2419 1100 
L 313 1100 
L 313 1709 
L 2253 4666 
z
" transform="scale(0.015625)"/>
       <path id="DejaVuSans-36" d="M 2113 2584 
Q 1688 2584 1439 2293 
Q 1191 2003 1191 1497 
Q 1191 994 1439 701 
Q 1688 409 2113 409 
Q 2538 409 2786 701 
Q 3034 994 3034 1497 
Q 3034 2003 2786 2293 
Q 2538 2584 2113 2584 
z
M 3366 4563 
L 3366 3988 
Q 3128 4100 2886 4159 
Q 2644 4219 2406 4219 
Q 1781 4219 1451 3797 
Q 1122 3375 1075 2522 
Q 1259 2794 1537 2939 
Q 1816 3084 2150 3084 
Q 2853 3084 3261 2657 
Q 3669 2231 3669 1497 
Q 3669 778 3244 343 
Q 2819 -91 2113 -91 
Q 1303 -91 875 529 
Q 447 1150 447 2328 
Q 447 3434 972 4092 
Q 1497 4750 2381 4750 
Q 2619 4750 2861 4703 
Q 3103 4656 3366 4563 
z
" transform="scale(0.015625)"/>
      </defs>
      <use xlink:href="#DejaVuSans-6e"/>
      <use xlink:href="#DejaVuSans-65" x="63.378906"/>
      <use xlink:href="#DejaVuSans-75" x="124.902344"/>
      <use xlink:href="#DejaVuSans-72" x="188.28125"/>
      <use xlink:href="#DejaVuSans-61" x="229.394531"/>
      <use xlink:href="#DejaVuSans-6c" x="290.673828"/>
      <use xlink:href="#DejaVuSans-5f" x="318.457031"/>
      <use xlink:href="#DejaVuSans-6e" x="368.457031"/>
      <use xlink:href="#DejaVuSans-65" x="431.835938"/>
      <use xlink:href="#DejaVuSans-74" x="493.359375"/>
      <use xlink:href="#DejaVuSans-77" x="532.568359"/>
      <use xlink:href="#DejaVuSans-6f" x="614.355469"/>
      <use xlink:href="#DejaVuSans-72" x="675.537109"/>
      <use xlink:href="#DejaVuSans-6b" x="716.650391"/>
      <use xlink:href="#DejaVuSans-20" x="774.560547"/>
      <use xlink:href="#DejaVuSans-28" x="806.347656"/>
      <use xlink:href="#DejaVuSans-39" x="845.361328"/>
      <use xlink:href="#DejaVuSans-34" x="908.984375"/>
      <use xlink:href="#DejaVuSans-2e" x="972.607422"/>
      <use xlink:href="#DejaVuSans-34" x="1004.394531"/>
      <use xlink:href="#DejaVuSans-36" x="1068.017578"/>
      <use xlink:href="#DejaVuSans-25" x="1131.640625"/>
      <use xlink:href="#DejaVuSans-29" x="1226.660156"/>
     </g>
    </g>
    <g id="patch_26">
     <path d="M 598.246304 193.558463 
L 626.246304 193.558463 
L 626.246304 183.758463 
L 598.246304 183.758463 
z
" style="fill: #54a96d; stroke: #ffffff; stroke-linejoin: miter"/>
    </g>
    <g id="text_6">
     <!-- logistic_regression (94.4%) -->
     <g transform="translate(637.446304 193.558463) scale(0.14 -0.14)">
      <defs>
       <path id="DejaVuSans-63" d="M 3122 3366 
L 3122 2828 
Q 2878 2963 2633 3030 
Q 2388 3097 2138 3097 
Q 1578 3097 1268 2742 
Q 959 2388 959 1747 
Q 959 1106 1268 751 
Q 1578 397 2138 397 
Q 2388 397 2633 464 
Q 2878 531 3122 666 
L 3122 134 
Q 2881 22 2623 -34 
Q 2366 -91 2075 -91 
Q 1284 -91 818 406 
Q 353 903 353 1747 
Q 353 2603 823 3093 
Q 1294 3584 2113 3584 
Q 2378 3584 2631 3529 
Q 2884 3475 3122 3366 
z
" transform="scale(0.015625)"/>
      </defs>
      <use xlink:href="#DejaVuSans-6c"/>
      <use xlink:href="#DejaVuSans-6f" x="27.783203"/>
      <use xlink:href="#DejaVuSans-67" x="88.964844"/>
      <use xlink:href="#DejaVuSans-69" x="152.441406"/>
      <use xlink:href="#DejaVuSans-73" x="180.224609"/>
      <use xlink:href="#DejaVuSans-74" x="232.324219"/>
      <use xlink:href="#DejaVuSans-69" x="271.533203"/>
      <use xlink:href="#DejaVuSans-63" x="299.316406"/>
      <use xlink:href="#DejaVuSans-5f" x="354.296875"/>
      <use xlink:href="#DejaVuSans-72" x="404.296875"/>
      <use xlink:href="#DejaVuSans-65" x="443.160156"/>
      <use xlink:href="#DejaVuSans-67" x="504.683594"/>
      <use xlink:href="#DejaVuSans-72" x="568.160156"/>
      <use xlink:href="#DejaVuSans-65" x="607.023438"/>
      <use xlink:href="#DejaVuSans-73" x="668.546875"/>
      <use xlink:href="#DejaVuSans-73" x="720.646484"/>
      <use xlink:href="#DejaVuSans-69" x="772.746094"/>
      <use xlink:href="#DejaVuSans-6f" x="800.529297"/>
      <use xlink:href="#DejaVuSans-6e" x="861.710938"/>
      <use xlink:href="#DejaVuSans-20" x="925.089844"/>
      <use xlink:href="#DejaVuSans-28" x="956.876953"/>
      <use xlink:href="#DejaVuSans-39" x="995.890625"/>
      <use xlink:href="#DejaVuSans-34" x="1059.513672"/>
      <use xlink:href="#DejaVuSans-2e" x="1123.136719"/>
      <use xlink:href="#DejaVuSans-34" x="1154.923828"/>
      <use xlink:href="#DejaVuSans-25" x="1218.546875"/>
      <use xlink:href="#DejaVuSans-29" x="1313.566406"/>
     </g>
    </g>
    <g id="patch_27">
     <path d="M 598.246304 214.497213 
L 626.246304 214.497213 
L 626.246304 204.697213 
L 598.246304 204.697213 
z
" style="fill: #54a96d; stroke: #ffffff; stroke-linejoin: miter"/>
    </g>
    <g id="text_7">
     <!-- crf (94.38%) -->
     <g transform="translate(637.446304 214.497213) scale(0.14 -0.14)">
      <defs>
       <path id="DejaVuSans-33" d="M 2597 2516 
Q 3050 2419 3304 2112 
Q 3559 1806 3559 1356 
Q 3559 666 3084 287 
Q 2609 -91 1734 -91 
Q 1441 -91 1130 -33 
Q 819 25 488 141 
L 488 750 
Q 750 597 1062 519 
Q 1375 441 1716 441 
Q 2309 441 2620 675 
Q 2931 909 2931 1356 
Q 2931 1769 2642 2001 
Q 2353 2234 1838 2234 
L 1294 2234 
L 1294 2753 
L 1863 2753 
Q 2328 2753 2575 2939 
Q 2822 3125 2822 3475 
Q 2822 3834 2567 4026 
Q 2313 4219 1838 4219 
Q 1578 4219 1281 4162 
Q 984 4106 628 3988 
L 628 4550 
Q 988 4650 1302 4700 
Q 1616 4750 1894 4750 
Q 2613 4750 3031 4423 
Q 3450 4097 3450 3541 
Q 3450 3153 3228 2886 
Q 3006 2619 2597 2516 
z
" transform="scale(0.015625)"/>
       <path id="DejaVuSans-38" d="M 2034 2216 
Q 1584 2216 1326 1975 
Q 1069 1734 1069 1313 
Q 1069 891 1326 650 
Q 1584 409 2034 409 
Q 2484 409 2743 651 
Q 3003 894 3003 1313 
Q 3003 1734 2745 1975 
Q 2488 2216 2034 2216 
z
M 1403 2484 
Q 997 2584 770 2862 
Q 544 3141 544 3541 
Q 544 4100 942 4425 
Q 1341 4750 2034 4750 
Q 2731 4750 3128 4425 
Q 3525 4100 3525 3541 
Q 3525 3141 3298 2862 
Q 3072 2584 2669 2484 
Q 3125 2378 3379 2068 
Q 3634 1759 3634 1313 
Q 3634 634 3220 271 
Q 2806 -91 2034 -91 
Q 1263 -91 848 271 
Q 434 634 434 1313 
Q 434 1759 690 2068 
Q 947 2378 1403 2484 
z
M 1172 3481 
Q 1172 3119 1398 2916 
Q 1625 2713 2034 2713 
Q 2441 2713 2670 2916 
Q 2900 3119 2900 3481 
Q 2900 3844 2670 4047 
Q 2441 4250 2034 4250 
Q 1625 4250 1398 4047 
Q 1172 3844 1172 3481 
z
" transform="scale(0.015625)"/>
      </defs>
      <use xlink:href="#DejaVuSans-63"/>
      <use xlink:href="#DejaVuSans-72" x="54.980469"/>
      <use xlink:href="#DejaVuSans-66" x="96.09375"/>
      <use xlink:href="#DejaVuSans-20" x="131.298828"/>
      <use xlink:href="#DejaVuSans-28" x="163.085938"/>
      <use xlink:href="#DejaVuSans-39" x="202.099609"/>
      <use xlink:href="#DejaVuSans-34" x="265.722656"/>
      <use xlink:href="#DejaVuSans-2e" x="329.345703"/>
      <use xlink:href="#DejaVuSans-33" x="361.132812"/>
      <use xlink:href="#DejaVuSans-38" x="424.755859"/>
      <use xlink:href="#DejaVuSans-25" x="488.378906"/>
      <use xlink:href="#DejaVuSans-29" x="583.398438"/>
     </g>
    </g>
    <g id="patch_28">
     <path d="M 598.246304 235.046588 
L 626.246304 235.046588 
L 626.246304 225.246588 
L 598.246304 225.246588 
z
" style="fill: #54a96d; stroke: #ffffff; stroke-linejoin: miter"/>
    </g>
    <g id="text_8">
     <!-- naive_bayes (94.35%) -->
     <g transform="translate(637.446304 235.046588) scale(0.14 -0.14)">
      <defs>
       <path id="DejaVuSans-76" d="M 191 3500 
L 800 3500 
L 1894 563 
L 2988 3500 
L 3597 3500 
L 2284 0 
L 1503 0 
L 191 3500 
z
" transform="scale(0.015625)"/>
       <path id="DejaVuSans-79" d="M 2059 -325 
Q 1816 -950 1584 -1140 
Q 1353 -1331 966 -1331 
L 506 -1331 
L 506 -850 
L 844 -850 
Q 1081 -850 1212 -737 
Q 1344 -625 1503 -206 
L 1606 56 
L 191 3500 
L 800 3500 
L 1894 763 
L 2988 3500 
L 3597 3500 
L 2059 -325 
z
" transform="scale(0.015625)"/>
      </defs>
      <use xlink:href="#DejaVuSans-6e"/>
      <use xlink:href="#DejaVuSans-61" x="63.378906"/>
      <use xlink:href="#DejaVuSans-69" x="124.658203"/>
      <use xlink:href="#DejaVuSans-76" x="152.441406"/>
      <use xlink:href="#DejaVuSans-65" x="211.621094"/>
      <use xlink:href="#DejaVuSans-5f" x="273.144531"/>
      <use xlink:href="#DejaVuSans-62" x="323.144531"/>
      <use xlink:href="#DejaVuSans-61" x="386.621094"/>
      <use xlink:href="#DejaVuSans-79" x="447.900391"/>
      <use xlink:href="#DejaVuSans-65" x="507.080078"/>
      <use xlink:href="#DejaVuSans-73" x="568.603516"/>
      <use xlink:href="#DejaVuSans-20" x="620.703125"/>
      <use xlink:href="#DejaVuSans-28" x="652.490234"/>
      <use xlink:href="#DejaVuSans-39" x="691.503906"/>
      <use xlink:href="#DejaVuSans-34" x="755.126953"/>
      <use xlink:href="#DejaVuSans-2e" x="818.75"/>
      <use xlink:href="#DejaVuSans-33" x="850.537109"/>
      <use xlink:href="#DejaVuSans-35" x="914.160156"/>
      <use xlink:href="#DejaVuSans-25" x="977.783203"/>
      <use xlink:href="#DejaVuSans-29" x="1072.802734"/>
     </g>
    </g>
    <g id="patch_29">
     <path d="M 598.246304 255.985338 
L 626.246304 255.985338 
L 626.246304 246.185338 
L 598.246304 246.185338 
z
" style="fill: #54a96d; stroke: #ffffff; stroke-linejoin: miter"/>
    </g>
    <g id="text_9">
     <!-- svm (94.19%) -->
     <g transform="translate(637.446304 255.985338) scale(0.14 -0.14)">
      <use xlink:href="#DejaVuSans-73"/>
      <use xlink:href="#DejaVuSans-76" x="52.099609"/>
      <use xlink:href="#DejaVuSans-6d" x="111.279297"/>
      <use xlink:href="#DejaVuSans-20" x="208.691406"/>
      <use xlink:href="#DejaVuSans-28" x="240.478516"/>
      <use xlink:href="#DejaVuSans-39" x="279.492188"/>
      <use xlink:href="#DejaVuSans-34" x="343.115234"/>
      <use xlink:href="#DejaVuSans-2e" x="406.738281"/>
      <use xlink:href="#DejaVuSans-31" x="438.525391"/>
      <use xlink:href="#DejaVuSans-39" x="502.148438"/>
      <use xlink:href="#DejaVuSans-25" x="565.771484"/>
      <use xlink:href="#DejaVuSans-29" x="660.791016"/>
     </g>
    </g>
    <g id="patch_30">
     <path d="M 598.246304 276.534713 
L 626.246304 276.534713 
L 626.246304 266.734713 
L 598.246304 266.734713 
z
" style="fill: #56aa6f; stroke: #ffffff; stroke-linejoin: miter"/>
    </g>
    <g id="text_10">
     <!-- recurrent_neural_network (93.66%) -->
     <g transform="translate(637.446304 276.534713) scale(0.14 -0.14)">
      <use xlink:href="#DejaVuSans-72"/>
      <use xlink:href="#DejaVuSans-65" x="38.863281"/>
      <use xlink:href="#DejaVuSans-63" x="100.386719"/>
      <use xlink:href="#DejaVuSans-75" x="155.367188"/>
      <use xlink:href="#DejaVuSans-72" x="218.746094"/>
      <use xlink:href="#DejaVuSans-72" x="258.109375"/>
      <use xlink:href="#DejaVuSans-65" x="296.972656"/>
      <use xlink:href="#DejaVuSans-6e" x="358.496094"/>
      <use xlink:href="#DejaVuSans-74" x="421.875"/>
      <use xlink:href="#DejaVuSans-5f" x="461.083984"/>
      <use xlink:href="#DejaVuSans-6e" x="511.083984"/>
      <use xlink:href="#DejaVuSans-65" x="574.462891"/>
      <use xlink:href="#DejaVuSans-75" x="635.986328"/>
      <use xlink:href="#DejaVuSans-72" x="699.365234"/>
      <use xlink:href="#DejaVuSans-61" x="740.478516"/>
      <use xlink:href="#DejaVuSans-6c" x="801.757812"/>
      <use xlink:href="#DejaVuSans-5f" x="829.541016"/>
      <use xlink:href="#DejaVuSans-6e" x="879.541016"/>
      <use xlink:href="#DejaVuSans-65" x="942.919922"/>
      <use xlink:href="#DejaVuSans-74" x="1004.443359"/>
      <use xlink:href="#DejaVuSans-77" x="1043.652344"/>
      <use xlink:href="#DejaVuSans-6f" x="1125.439453"/>
      <use xlink:href="#DejaVuSans-72" x="1186.621094"/>
      <use xlink:href="#DejaVuSans-6b" x="1227.734375"/>
      <use xlink:href="#DejaVuSans-20" x="1285.644531"/>
      <use xlink:href="#DejaVuSans-28" x="1317.431641"/>
      <use xlink:href="#DejaVuSans-39" x="1356.445312"/>
      <use xlink:href="#DejaVuSans-33" x="1420.068359"/>
      <use xlink:href="#DejaVuSans-2e" x="1483.691406"/>
      <use xlink:href="#DejaVuSans-36" x="1515.478516"/>
      <use xlink:href="#DejaVuSans-36" x="1579.101562"/>
      <use xlink:href="#DejaVuSans-25" x="1642.724609"/>
      <use xlink:href="#DejaVuSans-29" x="1737.744141"/>
     </g>
    </g>
    <g id="patch_31">
     <path d="M 598.246304 297.473463 
L 626.246304 297.473463 
L 626.246304 287.673463 
L 598.246304 287.673463 
z
" style="fill: #59ac72; stroke: #ffffff; stroke-linejoin: miter"/>
    </g>
    <g id="text_11">
     <!-- hmm (91.34%) -->
     <g transform="translate(637.446304 297.473463) scale(0.14 -0.14)">
      <defs>
       <path id="DejaVuSans-68" d="M 3513 2113 
L 3513 0 
L 2938 0 
L 2938 2094 
Q 2938 2591 2744 2837 
Q 2550 3084 2163 3084 
Q 1697 3084 1428 2787 
Q 1159 2491 1159 1978 
L 1159 0 
L 581 0 
L 581 4863 
L 1159 4863 
L 1159 2956 
Q 1366 3272 1645 3428 
Q 1925 3584 2291 3584 
Q 2894 3584 3203 3211 
Q 3513 2838 3513 2113 
z
" transform="scale(0.015625)"/>
      </defs>
      <use xlink:href="#DejaVuSans-68"/>
      <use xlink:href="#DejaVuSans-6d" x="63.378906"/>
      <use xlink:href="#DejaVuSans-6d" x="160.791016"/>
      <use xlink:href="#DejaVuSans-20" x="258.203125"/>
      <use xlink:href="#DejaVuSans-28" x="289.990234"/>
      <use xlink:href="#DejaVuSans-39" x="329.003906"/>
      <use xlink:href="#DejaVuSans-31" x="392.626953"/>
      <use xlink:href="#DejaVuSans-2e" x="456.25"/>
      <use xlink:href="#DejaVuSans-33" x="488.037109"/>
      <use xlink:href="#DejaVuSans-34" x="551.660156"/>
      <use xlink:href="#DejaVuSans-25" x="615.283203"/>
      <use xlink:href="#DejaVuSans-29" x="710.302734"/>
     </g>
    </g>
    <g id="patch_32">
     <path d="M 598.246304 318.022838 
L 626.246304 318.022838 
L 626.246304 308.222838 
L 598.246304 308.222838 
z
" style="fill: #5dae75; stroke: #ffffff; stroke-linejoin: miter"/>
    </g>
    <g id="text_12">
     <!-- knn (89.71%) -->
     <g transform="translate(637.446304 318.022838) scale(0.14 -0.14)">
      <use xlink:href="#DejaVuSans-6b"/>
      <use xlink:href="#DejaVuSans-6e" x="57.910156"/>
      <use xlink:href="#DejaVuSans-6e" x="121.289062"/>
      <use xlink:href="#DejaVuSans-20" x="184.667969"/>
      <use xlink:href="#DejaVuSans-28" x="216.455078"/>
      <use xlink:href="#DejaVuSans-38" x="255.46875"/>
      <use xlink:href="#DejaVuSans-39" x="319.091797"/>
      <use xlink:href="#DejaVuSans-2e" x="382.714844"/>
      <use xlink:href="#DejaVuSans-37" x="414.501953"/>
      <use xlink:href="#DejaVuSans-31" x="478.125"/>
      <use xlink:href="#DejaVuSans-25" x="541.748047"/>
      <use xlink:href="#DejaVuSans-29" x="636.767578"/>
     </g>
    </g>
   </g>
  </g>
 </g>
</svg>
