<?xml version="1.0" encoding="utf-8" standalone="no"?>
<!DOCTYPE svg PUBLIC "-//W3C//DTD SVG 1.1//EN"
  "http://www.w3.org/Graphics/SVG/1.1/DTD/svg11.dtd">
<svg xmlns:xlink="http://www.w3.org/1999/xlink" width="890.081626pt" height="653.068759pt" viewBox="0 0 890.081626 653.068759" xmlns="http://www.w3.org/2000/svg" version="1.1">
 <metadata>
  <rdf:RDF xmlns:dc="http://purl.org/dc/elements/1.1/" xmlns:cc="http://creativecommons.org/ns#" xmlns:rdf="http://www.w3.org/1999/02/22-rdf-syntax-ns#">
   <cc:Work>
    <dc:type rdf:resource="http://purl.org/dc/dcmitype/StillImage"/>
    <dc:date>2023-07-18T15:49:36.676156</dc:date>
    <dc:format>image/svg+xml</dc:format>
    <dc:creator>
     <cc:Agent>
      <dc:title>Matplotlib v3.7.0, https://matplotlib.org/</dc:title>
     </cc:Agent>
    </dc:creator>
   </cc:Work>
  </rdf:RDF>
 </metadata>
 <defs>
  <style type="text/css">*{stroke-linejoin: round; stroke-linecap: butt}</style>
 </defs>
 <g id="figure_1">
  <g id="patch_1">
   <path d="M 0 653.068759 
L 890.081626 653.068759 
L 890.081626 0 
L 0 0 
z
" style="fill: #ffffff"/>
  </g>
  <g id="axes_1">
   <g id="patch_2">
    <path d="M 326.534314 7.2 
C 317.437081 7.2 308.344003 7.588744 299.279964 8.365169 
C 290.215925 9.141594 281.189203 10.30499 272.224502 11.852174 
L 276.40218 36.058499 
C 284.677288 34.630329 293.009647 33.556425 301.376452 32.839725 
C 309.743257 32.123026 318.136869 31.764185 326.534314 31.764185 
z
" style="fill: #f4f5f5; stroke: #ffffff; stroke-linejoin: miter"/>
   </g>
   <g id="patch_3">
    <path d="M 272.224502 11.852174 
C 232.031676 18.788901 193.53752 33.362278 158.827986 54.782589 
C 124.118453 76.202901 93.832032 104.076115 69.609909 136.891817 
C 45.387787 169.707518 27.675535 206.862053 17.432958 246.342062 
C 7.190382 285.822071 4.605896 326.901309 9.819552 367.353741 
C 15.033207 407.806173 27.949097 446.887667 47.867325 482.480442 
C 67.785552 518.073218 94.339717 549.522538 126.09088 575.1242 
C 157.842043 600.725862 194.206134 620.008919 233.212625 631.928443 
C 272.219117 643.847967 313.150476 648.184697 353.78868 644.703629 
C 394.426884 641.222562 434.024384 629.987733 470.435438 611.607944 
C 506.846491 593.228155 539.401309 568.041507 566.335783 537.412835 
C 593.270257 506.784163 614.088922 471.276888 627.663639 432.815108 
C 641.238355 394.353327 647.319413 353.644555 645.577287 312.894752 
C 643.835162 272.144949 634.301899 232.103717 617.494096 194.940843 
C 600.686292 157.777969 576.913132 124.177073 547.462854 95.958948 
C 518.012576 67.740823 483.426925 45.424548 445.580057 30.219415 
C 407.733189 15.014283 367.321306 7.199996 326.53428 7.2 
L 326.534283 31.764185 
C 364.183845 31.764181 401.487122 38.977369 436.422692 53.012876 
C 471.358262 67.048382 503.283479 87.648021 530.468351 113.695521 
C 557.653223 139.743021 579.597679 170.759233 595.112574 205.063424 
C 610.627469 239.367615 619.427404 276.328753 621.03552 313.943956 
C 622.643636 351.559159 617.030352 389.136487 604.499844 424.639668 
C 591.969337 460.14285 572.752108 492.918796 547.889516 521.191417 
C 523.026925 549.464037 492.976324 572.713251 459.366121 589.67921 
C 425.755917 606.645169 389.204379 617.01578 351.692191 620.229073 
C 314.180002 623.442366 276.397209 619.439231 240.391217 608.436594 
C 204.385225 597.433956 170.818371 579.634212 141.509605 556.001908 
C 112.20084 532.369604 87.689303 503.339463 69.303247 470.484593 
C 50.917191 437.629723 38.994831 401.554498 34.182226 364.213792 
C 29.369621 326.873085 31.7553 288.953788 41.209986 252.510703 
C 50.664671 216.067618 67.014443 181.771124 89.373325 151.479708 
C 111.732207 121.188291 139.688903 95.45917 171.728473 75.686575 
C 203.768042 55.91398 239.30111 42.461632 276.40218 36.058499 
z
" style="fill: #6eaed4; stroke: #ffffff; stroke-linejoin: miter"/>
   </g>
   <g id="patch_4">
    <path d="M 326.534314 31.764185 
C 317.642737 31.764185 308.755712 32.166499 299.900505 32.969892 
C 291.045298 33.773286 282.230974 34.976937 273.484578 36.577152 
L 277.90539 60.740256 
C 285.922919 59.273392 294.002716 58.170046 302.119989 57.433601 
C 310.237262 56.697157 318.383702 56.328369 326.534314 56.328369 
z
" style="fill: #f4f5f5; stroke: #ffffff; stroke-linejoin: miter"/>
   </g>
   <g id="patch_5">
    <path d="M 273.484578 36.577152 
C 236.51103 43.341725 201.170288 57.116242 169.371193 77.156708 
C 137.572098 97.197173 109.897663 123.136159 87.842653 153.572638 
C 65.787643 184.009116 49.756421 218.385057 40.614871 254.843729 
C 31.473322 291.302401 29.38905 329.175362 34.474631 366.416999 
C 39.560213 403.658637 51.722407 439.586152 70.304305 472.259012 
C 88.886203 504.931872 113.547118 533.751043 142.955054 557.15993 
C 172.36299 580.568818 205.978773 598.138237 241.986732 608.91922 
C 277.994691 619.700202 315.734646 623.495087 353.168169 620.098903 
C 390.601692 616.70272 427.042466 606.177733 460.522235 589.092425 
C 494.002005 572.007118 523.906942 548.674735 548.621807 520.355516 
C 573.336673 492.036298 592.408337 459.249457 604.806693 423.76589 
C 617.205049 388.282324 622.702782 350.752599 621.002945 313.203787 
C 619.303108 275.654976 610.436866 238.775508 594.883109 204.557336 
C 579.329351 170.339164 557.373243 139.409652 530.200689 113.43938 
C 503.028135 87.469109 471.137324 66.934223 436.250757 52.943863 
C 401.364191 38.953503 364.121488 31.764173 326.534221 31.764185 
L 326.534228 56.328369 
C 360.989224 56.328358 395.128368 62.918578 427.10772 75.743075 
C 459.087073 88.567571 488.320317 107.391216 513.228491 131.197299 
C 538.136665 155.003381 558.263098 183.355433 572.520709 214.722091 
C 586.77832 246.088749 594.905708 279.894928 596.463892 314.314672 
C 598.022076 348.734416 592.982488 383.136664 581.617328 415.663266 
C 570.252169 448.189868 552.769809 478.244473 530.114516 504.203757 
C 507.459223 530.16304 480.046364 551.551058 449.356575 567.21259 
C 418.666787 582.874122 385.262744 592.522026 350.948681 595.635195 
C 316.634619 598.748363 282.03966 595.269719 249.032364 585.387151 
C 216.025068 575.504584 185.2106 559.399283 158.253326 537.941136 
C 131.296051 516.48299 108.690212 490.065416 91.656806 460.115295 
C 74.6234 430.165173 63.474721 397.231617 58.812938 363.093449 
C 54.151155 328.955282 56.061738 294.238401 64.441492 260.817951 
C 72.821245 227.397502 87.516533 195.886223 107.733625 167.986118 
C 127.950718 140.086013 153.31895 116.308609 182.46812 97.938182 
C 211.61729 79.567755 244.012971 66.941115 277.90539 60.740256 
z
" style="fill: #6eaed4; stroke: #ffffff; stroke-linejoin: miter"/>
   </g>
   <g id="patch_6">
    <path d="M 326.534314 56.328369 
C 317.67591 56.328369 308.822863 56.763989 300.007251 57.633649 
C 291.19164 58.503309 282.424125 59.805958 273.736477 61.536876 
L 278.53628 85.62756 
C 286.434142 84.053998 294.40461 82.869772 302.418803 82.079172 
C 310.432995 81.288571 318.48122 80.892554 326.534314 80.892554 
z
" style="fill: #f4f5f5; stroke: #ffffff; stroke-linejoin: miter"/>
   </g>
   <g id="patch_7">
    <path d="M 273.736477 61.536876 
C 240.03314 68.251895 207.918225 81.335442 179.117506 100.084441 
C 150.316787 118.83344 125.355567 142.905924 105.575199 171.008298 
C 85.794831 199.110671 71.556093 230.73037 63.624139 264.16823 
C 55.692186 297.60609 54.211689 332.252232 59.262208 366.244858 
C 64.312726 400.237484 75.802143 432.956596 93.113044 462.643951 
C 110.423946 492.331307 133.240595 518.445431 160.336883 539.583017 
C 187.433171 560.720603 218.314883 576.496118 251.322513 586.061825 
C 284.330143 595.627531 318.861658 598.80896 353.06142 595.435147 
C 387.261183 592.061334 420.505417 582.193817 451.00766 566.362849 
C 481.509903 550.531882 508.713819 529.02621 531.157538 503.001494 
C 553.601257 476.976777 570.875422 446.907687 582.051764 414.41006 
C 593.228106 381.912433 598.102777 347.579001 596.413824 313.254755 
C 594.724871 278.93051 586.5031 245.241499 572.190327 213.998085 
C 557.877555 182.754671 537.734834 154.52671 512.844586 130.8311 
C 487.954338 107.135491 458.770539 88.404423 426.861456 75.644457 
C 394.952372 62.88449 360.899998 56.328358 326.534225 56.328369 
L 326.534233 80.892554 
C 357.775845 80.892544 388.732548 86.852664 417.740806 98.452633 
C 446.749064 110.052603 473.27979 127.080846 495.907289 148.622309 
C 518.534787 170.163773 536.846351 195.825556 549.857962 224.228659 
C 562.869574 252.631763 570.343911 283.258137 571.879323 314.461996 
C 573.414735 345.665855 568.983216 376.878066 558.822905 406.421364 
C 548.662594 435.964661 532.958807 463.300197 512.555427 486.959031 
C 492.152046 510.617864 467.421213 530.168475 439.691901 544.560263 
C 411.962589 558.952051 381.740558 567.922522 350.649865 570.989624 
C 319.559172 574.056727 288.166886 571.16452 258.15995 562.468422 
C 228.153013 553.772325 200.07873 539.430948 175.445741 520.214961 
C 150.812751 500.998974 130.070343 477.258861 114.33316 450.270356 
C 98.595976 423.281851 88.151053 393.537203 83.559672 362.634816 
C 78.968291 331.732429 80.314197 300.235936 87.525064 269.837882 
C 94.735931 239.439827 107.680238 210.694647 125.662391 185.147034 
C 143.644544 159.599422 166.336562 137.715346 192.519034 120.670801 
C 218.701506 103.626257 247.896883 91.732123 278.53628 85.62756 
z
" style="fill: #6fafd5; stroke: #ffffff; stroke-linejoin: miter"/>
   </g>
   <g id="patch_8">
    <path d="M 326.534314 80.892554 
C 317.811969 80.892554 309.095811 81.357128 300.422885 82.284303 
C 291.749959 83.211478 283.132569 84.599937 274.607339 86.44378 
L 279.800036 110.452842 
C 287.472743 108.793383 295.228394 107.54377 303.034028 106.709313 
C 310.839661 105.874856 318.684203 105.456738 326.534314 105.456738 
z
" style="fill: #f4f5f5; stroke: #ffffff; stroke-linejoin: miter"/>
   </g>
   <g id="patch_9">
    <path d="M 274.607339 86.44378 
C 244.154199 93.030207 215.230415 105.350917 189.382025 122.747339 
C 163.533636 140.143761 141.229548 162.300314 123.661964 188.032681 
C 106.09438 213.765048 93.581986 242.606428 86.793599 273.015185 
C 80.005212 303.423943 79.063976 334.848444 84.020203 365.608979 
C 88.97643 396.369515 99.740211 425.90807 115.736197 452.645743 
C 131.732184 479.383415 152.670199 502.835168 177.431059 521.747453 
C 202.19192 540.659738 230.326448 554.689474 260.330792 563.086742 
C 290.335135 571.484009 321.664997 574.096475 352.645725 570.784499 
C 383.626454 567.472522 413.69604 558.296185 441.247198 543.745981 
C 468.798356 529.195777 493.33129 509.535657 513.534661 485.816497 
C 533.738033 462.097338 549.245339 434.74942 559.227681 405.234549 
C 569.210023 375.719679 573.486314 344.573274 571.827977 313.460179 
C 570.169641 282.347085 562.606759 251.831711 549.543587 223.545173 
C 536.480414 195.258635 518.153923 169.714067 495.543706 148.276884 
C 472.933489 126.839701 446.449709 109.898786 417.507983 98.359669 
C 388.566258 86.820551 357.691606 80.892558 326.534348 80.892554 
L 326.534345 105.456738 
C 354.575877 105.456742 382.363063 110.791936 408.410617 121.177142 
C 434.45817 131.562348 458.293572 146.809171 478.642767 166.102636 
C 498.991962 185.396101 515.485804 208.386212 527.242659 233.844096 
C 538.999515 259.30198 545.806108 286.765816 547.298611 314.767601 
C 548.791114 342.769387 544.942452 370.801151 535.958344 397.364534 
C 526.974237 423.927918 513.017661 448.541044 494.834627 469.888288 
C 476.651593 491.235531 454.571952 508.929639 429.77591 522.024823 
C 404.979867 535.120006 377.91724 543.37871 350.034584 546.359489 
C 322.151928 549.340268 293.955053 546.989048 266.951144 539.431507 
C 239.947235 531.873967 214.626159 519.247204 192.341385 502.226148 
C 170.05661 485.205091 151.212397 464.098514 136.816009 440.034608 
C 122.419621 415.970703 112.732219 389.386003 108.271614 361.701522 
C 103.81101 334.01704 104.658122 305.734989 110.767671 278.367107 
C 116.877219 250.999225 128.138373 225.041983 143.949199 201.882853 
C 159.760025 178.723722 179.833704 158.782825 203.097254 143.126045 
C 226.360805 127.469265 252.392211 116.380626 279.800036 110.452842 
z
" style="fill: #6fafd5; stroke: #ffffff; stroke-linejoin: miter"/>
   </g>
   <g id="patch_10">
    <path d="M 326.534314 105.456738 
C 318.429354 105.456738 310.330523 105.902444 302.274509 106.791836 
C 294.218495 107.681229 286.217482 109.012962 278.307716 110.781004 
L 283.666227 134.753604 
C 290.69713 133.182011 297.809142 131.998248 304.970043 131.207677 
C 312.130944 130.417106 319.329905 130.020923 326.534314 130.020923 
z
" style="fill: #f4f5f5; stroke: #ffffff; stroke-linejoin: miter"/>
   </g>
   <g id="patch_11">
    <path d="M 278.307716 110.781004 
C 250.972859 116.891069 225.046539 128.140622 201.911453 143.929704 
C 178.776367 159.718786 158.851237 179.761632 143.198704 202.98932 
C 127.546171 226.217009 116.449531 252.209144 110.500586 279.579518 
C 104.551642 306.949892 103.858062 335.203129 108.456839 362.832435 
C 113.055615 390.461742 122.863514 416.967054 137.357462 440.934799 
C 151.851411 464.902543 170.769083 485.898927 193.101567 502.804178 
C 215.434051 519.709428 240.77715 532.217576 267.779275 539.66154 
C 294.781399 547.105504 322.953836 549.350557 350.794101 546.276966 
C 378.634366 543.203374 405.638578 534.866767 430.366555 521.711751 
C 455.094532 508.556734 477.098723 490.8214 495.205605 469.451606 
C 513.312488 448.081812 527.194347 423.464328 536.110837 396.912049 
C 545.027327 370.35977 548.817069 342.353265 547.27795 314.38617 
C 545.738831 286.419074 538.898707 258.997565 527.122375 233.584078 
C 515.346042 208.170592 498.84664 185.225087 478.50411 165.971287 
C 458.161581 146.717487 434.344103 131.503866 408.321905 121.141795 
C 382.299707 110.779723 354.543765 105.456743 326.53435 105.456738 
L 326.534346 130.020923 
C 351.431604 130.020927 376.103553 134.752465 399.234395 143.963195 
C 422.365238 153.173926 443.536329 166.697144 461.618577 183.811633 
C 479.700826 200.926121 494.366961 221.322126 504.834812 243.911892 
C 515.302664 266.501658 521.382774 290.876333 522.750879 315.735973 
C 524.118985 340.595614 520.750325 365.490285 512.824556 389.092311 
C 504.898787 412.694336 492.559358 434.576544 476.464351 453.571916 
C 460.369344 472.567289 440.810063 488.33203 418.829639 500.025378 
C 396.849215 511.718726 372.845471 519.129044 348.098569 521.861125 
C 323.351667 524.593206 298.3095 522.597604 274.307612 515.980747 
C 250.305724 509.363889 227.778524 498.245536 207.927428 483.218647 
C 188.076331 468.191758 171.260622 449.528305 158.377112 428.223643 
C 145.493603 406.918982 136.775471 383.358704 132.687669 358.79932 
C 128.599868 334.239937 129.216383 309.125948 134.504334 284.796727 
C 139.792285 260.467505 149.655965 237.363386 163.569327 216.716551 
C 177.48269 196.069717 195.193917 178.253854 215.758438 164.219115 
C 236.322958 150.184375 259.368576 140.184772 283.666227 134.753604 
z
" style="fill: #6fafd5; stroke: #ffffff; stroke-linejoin: miter"/>
   </g>
   <g id="patch_12">
    <path d="M 326.534314 130.020923 
C 318.691435 130.020923 310.855585 130.490439 303.06882 131.42695 
C 295.282056 132.36346 287.558335 133.765288 279.939112 135.624909 
L 285.763512 159.488595 
C 292.430332 157.861427 299.188589 156.634828 306.002007 155.815381 
C 312.815426 154.995934 319.671795 154.585108 326.534314 154.585108 
z
" style="fill: #f4f5f5; stroke: #ffffff; stroke-linejoin: miter"/>
   </g>
   <g id="patch_13">
    <path d="M 279.939112 135.624909 
C 255.830009 141.509208 233.052322 151.907547 212.81311 166.268888 
C 192.573897 180.630229 175.237099 198.696326 161.721443 219.509804 
C 148.205786 240.323282 138.75431 263.509875 133.867876 287.840855 
C 128.981442 312.171835 128.747917 337.209685 133.179677 361.627574 
C 137.611436 386.045464 146.628789 409.404313 159.753878 430.466266 
C 172.878967 451.528219 189.875778 469.914542 209.8436 484.650889 
C 229.811422 499.387235 252.391195 510.208618 276.386349 516.541579 
C 300.381504 522.874541 325.36056 524.605202 349.999805 521.641851 
C 374.63905 518.678499 398.495421 511.074421 420.304699 499.23258 
C 442.113978 487.390739 461.48399 471.524073 477.388262 452.473405 
C 493.292534 433.422736 505.445076 411.530633 513.201889 387.957222 
C 520.958701 364.383812 524.180302 339.552989 522.695969 314.780614 
C 521.211636 290.008238 515.048061 265.739765 504.531869 243.261252 
C 494.015676 220.78274 479.335969 200.498395 461.270668 183.483145 
C 443.205366 166.467895 422.07932 153.027708 399.012061 143.874818 
C 375.944802 134.721929 351.351124 130.020924 326.534318 130.020923 
L 326.534318 154.585108 
C 348.249023 154.585108 369.768491 158.698488 389.952343 166.707266 
C 410.136195 174.716045 428.621485 186.476208 444.428623 201.364552 
C 460.235762 216.252895 473.080506 234.001697 482.282174 253.670396 
C 491.483842 273.339094 496.876971 294.574008 498.175762 316.249837 
C 499.474554 337.925666 496.655653 359.652635 489.868442 380.27937 
C 483.081231 400.906104 472.447757 420.061694 458.531519 436.731029 
C 444.615281 453.400364 427.66652 467.283696 408.583401 477.645308 
C 389.500282 488.006919 368.625958 494.660487 347.066618 497.253419 
C 325.507279 499.846352 303.650605 498.332023 282.654845 492.790682 
C 261.659085 487.249341 241.901784 477.780631 224.429939 464.886327 
C 206.958095 451.992024 192.085885 435.903992 180.601432 417.474783 
C 169.116979 399.045574 161.226796 378.606581 157.349006 357.240928 
C 153.471217 335.875274 153.675551 313.967156 157.951181 292.677548 
C 162.226811 271.38794 170.496852 251.099672 182.323051 232.887879 
C 194.149251 214.676085 209.318949 198.86825 227.02826 186.302077 
C 244.737571 173.735904 264.668047 164.637357 285.763512 159.488595 
z
" style="fill: #6fafd5; stroke: #ffffff; stroke-linejoin: miter"/>
   </g>
   <g id="patch_14">
    <path d="M 326.534314 154.585108 
C 318.860688 154.585108 311.195662 155.098787 303.590655 156.1227 
C 295.985648 157.146612 288.457705 158.678463 281.057327 160.707976 
L 287.554039 184.397465 
C 293.897221 182.657883 300.349743 181.344868 306.868321 180.467228 
C 313.386898 179.589589 319.956921 179.149292 326.534314 179.149292 
z
" style="fill: #f4f5f5; stroke: #ffffff; stroke-linejoin: miter"/>
   </g>
   <g id="patch_15">
    <path d="M 281.057327 160.707976 
C 260.214394 166.424036 240.634785 176.018848 223.346487 188.988656 
C 206.058189 201.958465 191.369155 218.072241 180.050602 236.483963 
C 168.732049 254.895686 160.985592 275.277391 157.217943 296.558979 
C 153.450295 317.840567 153.728567 339.642954 158.03815 360.82145 
C 162.347732 381.999945 170.61186 402.177302 182.39664 420.294147 
C 194.181421 438.410993 209.276936 454.144618 226.890626 466.668959 
C 244.504315 479.1933 264.322431 488.285264 285.304462 493.467496 
C 306.286493 498.649728 328.058693 499.829918 349.477954 496.946103 
C 370.897216 494.062288 391.582005 487.165836 410.446306 476.618832 
C 429.310608 466.071828 446.018397 452.062142 459.692466 435.325326 
C 473.366535 418.58851 483.76331 399.422692 490.336929 378.834135 
C 496.910549 358.245578 499.543919 336.60102 498.098779 315.036866 
C 496.65364 293.472712 491.155733 272.373078 481.893714 252.845759 
C 472.631696 233.31844 459.770549 215.711271 443.985522 200.948681 
C 428.200494 186.18609 409.772761 174.531041 389.669834 166.595458 
C 369.566907 158.659875 348.146873 154.585112 326.53435 154.585108 
L 326.534345 179.149292 
C 345.059365 179.149296 363.419393 182.64195 380.650474 189.443878 
C 397.881554 196.245807 413.676754 206.235849 427.206778 218.889498 
C 440.736801 231.543147 451.760642 246.635006 459.699514 263.372708 
C 467.638387 280.11041 472.350879 298.19581 473.58957 316.679371 
C 474.828261 335.162931 472.571087 353.715409 466.936556 371.362744 
C 461.302025 389.010079 452.390503 405.437923 440.669873 419.783765 
C 428.949242 434.129608 414.62828 446.137909 398.458879 455.178199 
C 382.289477 464.218488 364.559659 470.129732 346.200292 472.601574 
C 327.840924 475.073415 309.179039 474.061824 291.194441 469.619911 
C 273.209843 465.177997 256.222886 457.384885 241.125438 446.649736 
C 226.02799 435.914587 213.088977 422.428623 202.987737 406.899898 
C 192.886496 391.371173 185.802958 374.076296 182.10903 355.9233 
C 178.415102 337.770304 178.176583 319.082543 181.405996 300.841182 
C 184.635409 282.599821 191.275229 265.129788 200.976846 249.348311 
C 210.678463 233.566835 223.269064 219.755027 238.087605 208.638048 
C 252.906146 197.52107 269.688668 189.296945 287.554039 184.397465 
z
" style="fill: #70b0d5; stroke: #ffffff; stroke-linejoin: miter"/>
   </g>
   <g id="patch_16">
    <path d="M 326.534314 179.149292 
C 317.730986 179.149292 308.945334 179.938028 300.282774 181.506035 
C 291.620215 183.074042 283.115534 185.415025 274.870778 188.500893 
L 283.481368 211.506477 
C 290.351997 208.93492 297.439231 206.984102 304.658031 205.677429 
C 311.87683 204.370757 319.198207 203.713477 326.534314 203.713477 
z
" style="fill: #f4f5f5; stroke: #ffffff; stroke-linejoin: miter"/>
   </g>
   <g id="patch_17">
    <path d="M 274.870778 188.500893 
C 257.783611 194.896322 242.031585 204.409335 228.417266 216.555243 
C 214.802947 228.701152 203.561546 243.270115 195.265814 259.519841 
C 186.970083 275.769568 181.763343 293.419317 179.910879 311.569831 
C 178.058415 329.720345 179.592231 348.058043 184.43418 365.648617 
C 189.276129 383.239192 197.342557 399.778735 208.222479 414.424557 
C 219.102401 429.070378 232.607847 441.569445 248.050714 451.284929 
C 263.493582 461.000414 280.607067 467.764463 298.519238 471.232449 
C 316.431408 474.700435 334.8328 474.812442 352.78586 471.562764 
C 370.73892 468.313085 387.933479 461.757864 403.493471 452.231091 
C 419.053464 442.704317 432.710064 430.370582 443.767468 415.858291 
C 454.824872 401.345999 463.092043 384.905876 468.147769 367.375548 
C 473.203494 349.845219 474.960427 331.527552 473.329052 313.355832 
C 471.697678 295.184112 466.706179 277.472288 458.608875 261.122779 
C 450.511571 244.77327 439.448356 230.068542 425.982902 217.757802 
C 412.517447 205.447062 396.882393 195.742999 379.874345 189.140037 
C 362.866298 182.537075 344.779102 179.149291 326.5343 179.149292 
L 326.534302 203.713477 
C 341.738304 203.713475 356.810967 206.536629 370.98434 212.039097 
C 385.157713 217.541566 398.186925 225.628285 409.408137 235.887235 
C 420.629349 246.146185 429.848695 258.400125 436.596448 272.024716 
C 443.344202 285.649307 447.503784 300.40916 448.863263 315.55226 
C 450.222742 330.69536 448.758631 345.960082 444.545526 360.56869 
C 440.332422 375.177297 433.443112 388.877399 424.228609 400.970976 
C 415.014106 413.064552 403.633606 423.342664 390.666945 431.281642 
C 377.700285 439.22062 363.371486 444.683304 348.410602 447.39137 
C 333.449719 450.099435 318.115226 450.006096 303.188417 447.116108 
C 288.261608 444.226119 274.00037 438.589411 261.131314 430.493174 
C 248.262258 422.396938 237.00772 411.981048 227.941118 399.776197 
C 218.874516 387.571346 212.152493 373.788393 208.117536 359.129581 
C 204.082578 344.470769 202.804398 329.189354 204.348118 314.063926 
C 205.891838 298.938497 210.230788 284.230374 217.143898 270.688935 
C 224.057007 257.147496 233.424841 245.006694 244.770107 234.885103 
C 256.115373 224.763512 269.242062 216.836001 283.481368 211.506477 
z
" style="fill: #72b1d6; stroke: #ffffff; stroke-linejoin: miter"/>
   </g>
   <g id="patch_18">
    <path d="M 326.534314 203.713477 
C 316.037671 203.713477 305.584197 205.059089 295.429739 207.717379 
C 285.275282 210.375668 275.503364 214.324771 266.353152 219.468033 
L 278.389385 240.881306 
C 285.709554 236.766697 293.527088 233.607415 301.650654 231.480783 
C 309.77422 229.354151 318.136999 228.277662 326.534314 228.277662 
z
" style="fill: #f4f5f5; stroke: #ffffff; stroke-linejoin: miter"/>
   </g>
   <g id="patch_19">
    <path d="M 266.353152 219.468033 
C 253.445627 226.723251 241.955834 236.25316 232.43942 247.596893 
C 222.923006 258.940625 215.535888 271.912325 210.635308 285.884681 
C 205.734728 299.857037 203.400978 314.601124 203.746916 329.403919 
C 204.092855 344.206714 207.112815 358.825686 212.660751 372.553862 
C 218.208687 386.282038 226.193702 398.894494 236.229639 409.781291 
C 246.265577 420.668089 258.188008 429.650859 271.420363 436.295193 
C 284.652719 442.939527 298.978199 447.136565 313.704023 448.683337 
C 328.429848 450.230109 343.314747 449.101274 357.638888 445.351421 
C 371.963029 441.601569 385.491724 435.292137 397.570724 426.72825 
C 409.649724 418.164363 420.081127 407.486332 428.360469 395.210547 
C 436.639812 382.934762 442.631445 369.262351 446.045612 354.85451 
C 449.45978 340.44667 450.240545 325.53946 448.350149 310.853793 
C 446.459753 296.168126 441.929168 281.944613 434.977495 268.871104 
C 428.025821 255.797595 418.766954 244.088287 407.648654 234.309442 
C 396.530354 224.530597 383.734784 216.842432 369.880736 211.616748 
C 356.026689 206.391063 341.34115 203.713477 326.534314 203.713477 
L 326.534314 228.277662 
C 338.379783 228.277662 350.128214 230.419731 361.211452 234.600278 
C 372.29469 238.780826 382.531146 244.931357 391.425786 252.754433 
C 400.320426 260.57751 407.727519 269.944956 413.288858 280.403763 
C 418.850197 290.862571 422.474665 302.241381 423.986982 313.989914 
C 425.499299 325.738448 424.874687 337.664216 422.143353 349.190488 
C 419.412018 360.71676 414.618712 371.65469 407.995238 381.475318 
C 401.371764 391.295946 393.026642 399.83837 383.363442 406.68948 
C 373.700242 413.54059 362.877286 418.588135 351.417973 421.588017 
C 339.958661 424.587899 328.050741 425.490967 316.270081 424.25355 
C 304.489422 423.016132 293.029038 419.658502 282.443153 414.343034 
C 271.857269 409.027567 262.319324 401.841351 254.290574 393.131913 
C 246.261824 384.422475 239.873813 374.33251 235.435464 363.349969 
C 230.997115 352.367429 228.581147 340.672251 228.304396 328.830015 
C 228.027645 316.987779 229.894645 305.192509 233.815109 294.014625 
C 237.735573 282.83674 243.645267 272.45938 251.258399 263.384394 
C 258.87153 254.309408 268.063364 246.685481 278.389385 240.881306 
z
" style="fill: #76b3d7; stroke: #ffffff; stroke-linejoin: miter"/>
   </g>
   <g id="patch_20">
    <path d="M 326.534314 228.277662 
C 317.475568 228.277662 308.460185 229.530413 299.744645 232.000278 
C 291.029104 234.470142 282.696847 238.133472 274.984916 242.886051 
L 287.872266 263.798138 
C 293.656213 260.233704 299.905407 257.486206 306.442062 255.633808 
C 312.978718 253.78141 319.740254 252.841846 326.534314 252.841846 
z
" style="fill: #f4f5f5; stroke: #ffffff; stroke-linejoin: miter"/>
   </g>
   <g id="patch_21">
    <path d="M 274.984916 242.886051 
C 264.971221 249.057123 256.146535 256.976485 248.931747 266.266429 
C 241.716959 275.556373 236.228622 286.066822 232.728498 297.296486 
C 229.228374 308.526151 227.773008 320.293617 228.431812 332.037646 
C 229.090615 343.781675 231.852946 355.312542 236.587056 366.080291 
C 241.321167 376.848041 247.950578 386.678721 256.159105 395.103465 
C 264.367632 403.528209 274.022668 410.410916 284.663722 415.42332 
C 295.304776 420.435725 306.759943 423.496852 318.482879 424.460704 
C 330.205815 425.424556 342.007136 424.275562 353.323987 421.068521 
C 364.640838 417.861481 375.290397 412.648204 384.764742 405.677334 
C 394.239086 398.706463 402.385158 390.090613 408.814438 380.24071 
C 415.243718 370.390807 419.852341 359.465975 422.420503 347.987265 
C 424.988664 336.508555 425.474876 324.661406 423.855948 313.010856 
C 422.23702 301.360307 418.539106 290.094571 412.938575 279.75096 
C 407.338045 269.407349 399.925373 260.152962 391.054103 252.429181 
C 382.182833 244.7054 371.996278 238.637001 360.980278 234.513412 
C 349.964279 230.389823 338.296797 228.27766 326.534305 228.277662 
L 326.534307 252.841846 
C 335.356176 252.841845 344.106788 254.425968 352.368787 257.518659 
C 360.630787 260.611351 368.270703 265.16265 374.924156 270.955486 
C 381.577608 276.748322 387.137112 283.689112 391.33751 291.44682 
C 395.537908 299.204528 398.311343 307.65383 399.525539 316.391742 
C 400.739735 325.129654 400.375077 334.015017 398.448955 342.624049 
C 396.522834 351.233081 393.066367 359.426705 388.244407 366.814133 
C 383.422447 374.20156 377.312893 380.663447 370.207135 385.8916 
C 363.101376 391.119753 355.114207 395.029711 346.626569 397.434991 
C 338.13893 399.840271 329.28794 400.702017 320.495738 399.979128 
C 311.703536 399.256239 303.11216 396.960394 295.13137 393.20109 
C 287.150579 389.441787 279.909303 384.279757 273.752907 377.961199 
C 267.596512 371.642641 262.624453 364.269631 259.073871 356.193818 
C 255.523288 348.118006 253.45154 339.469856 252.957437 330.661835 
C 252.463334 321.853813 253.554859 313.028213 256.179952 304.605965 
C 258.805045 296.183716 262.921298 288.30088 268.332389 281.333422 
C 273.74348 274.365964 280.361994 268.426442 287.872266 263.798138 
z
" style="fill: #76b3d7; stroke: #ffffff; stroke-linejoin: miter"/>
   </g>
   <g id="matplotlib.axis_1"/>
   <g id="matplotlib.axis_2"/>
   <g id="text_1">
    <!-- AUPRC_1 on generalized models -->
    <g transform="translate(190.572439 94.3392) scale(0.168 -0.168)">
     <defs>
      <path id="DejaVuSans-41" d="M 2188 4044 
L 1331 1722 
L 3047 1722 
L 2188 4044 
z
M 1831 4666 
L 2547 4666 
L 4325 0 
L 3669 0 
L 3244 1197 
L 1141 1197 
L 716 0 
L 50 0 
L 1831 4666 
z
" transform="scale(0.015625)"/>
      <path id="DejaVuSans-55" d="M 556 4666 
L 1191 4666 
L 1191 1831 
Q 1191 1081 1462 751 
Q 1734 422 2344 422 
Q 2950 422 3222 751 
Q 3494 1081 3494 1831 
L 3494 4666 
L 4128 4666 
L 4128 1753 
Q 4128 841 3676 375 
Q 3225 -91 2344 -91 
Q 1459 -91 1007 375 
Q 556 841 556 1753 
L 556 4666 
z
" transform="scale(0.015625)"/>
      <path id="DejaVuSans-50" d="M 1259 4147 
L 1259 2394 
L 2053 2394 
Q 2494 2394 2734 2622 
Q 2975 2850 2975 3272 
Q 2975 3691 2734 3919 
Q 2494 4147 2053 4147 
L 1259 4147 
z
M 628 4666 
L 2053 4666 
Q 2838 4666 3239 4311 
Q 3641 3956 3641 3272 
Q 3641 2581 3239 2228 
Q 2838 1875 2053 1875 
L 1259 1875 
L 1259 0 
L 628 0 
L 628 4666 
z
" transform="scale(0.015625)"/>
      <path id="DejaVuSans-52" d="M 2841 2188 
Q 3044 2119 3236 1894 
Q 3428 1669 3622 1275 
L 4263 0 
L 3584 0 
L 2988 1197 
Q 2756 1666 2539 1819 
Q 2322 1972 1947 1972 
L 1259 1972 
L 1259 0 
L 628 0 
L 628 4666 
L 2053 4666 
Q 2853 4666 3247 4331 
Q 3641 3997 3641 3322 
Q 3641 2881 3436 2590 
Q 3231 2300 2841 2188 
z
M 1259 4147 
L 1259 2491 
L 2053 2491 
Q 2509 2491 2742 2702 
Q 2975 2913 2975 3322 
Q 2975 3731 2742 3939 
Q 2509 4147 2053 4147 
L 1259 4147 
z
" transform="scale(0.015625)"/>
      <path id="DejaVuSans-43" d="M 4122 4306 
L 4122 3641 
Q 3803 3938 3442 4084 
Q 3081 4231 2675 4231 
Q 1875 4231 1450 3742 
Q 1025 3253 1025 2328 
Q 1025 1406 1450 917 
Q 1875 428 2675 428 
Q 3081 428 3442 575 
Q 3803 722 4122 1019 
L 4122 359 
Q 3791 134 3420 21 
Q 3050 -91 2638 -91 
Q 1578 -91 968 557 
Q 359 1206 359 2328 
Q 359 3453 968 4101 
Q 1578 4750 2638 4750 
Q 3056 4750 3426 4639 
Q 3797 4528 4122 4306 
z
" transform="scale(0.015625)"/>
      <path id="DejaVuSans-5f" d="M 3263 -1063 
L 3263 -1509 
L -63 -1509 
L -63 -1063 
L 3263 -1063 
z
" transform="scale(0.015625)"/>
      <path id="DejaVuSans-31" d="M 794 531 
L 1825 531 
L 1825 4091 
L 703 3866 
L 703 4441 
L 1819 4666 
L 2450 4666 
L 2450 531 
L 3481 531 
L 3481 0 
L 794 0 
L 794 531 
z
" transform="scale(0.015625)"/>
      <path id="DejaVuSans-20" transform="scale(0.015625)"/>
      <path id="DejaVuSans-6f" d="M 1959 3097 
Q 1497 3097 1228 2736 
Q 959 2375 959 1747 
Q 959 1119 1226 758 
Q 1494 397 1959 397 
Q 2419 397 2687 759 
Q 2956 1122 2956 1747 
Q 2956 2369 2687 2733 
Q 2419 3097 1959 3097 
z
M 1959 3584 
Q 2709 3584 3137 3096 
Q 3566 2609 3566 1747 
Q 3566 888 3137 398 
Q 2709 -91 1959 -91 
Q 1206 -91 779 398 
Q 353 888 353 1747 
Q 353 2609 779 3096 
Q 1206 3584 1959 3584 
z
" transform="scale(0.015625)"/>
      <path id="DejaVuSans-6e" d="M 3513 2113 
L 3513 0 
L 2938 0 
L 2938 2094 
Q 2938 2591 2744 2837 
Q 2550 3084 2163 3084 
Q 1697 3084 1428 2787 
Q 1159 2491 1159 1978 
L 1159 0 
L 581 0 
L 581 3500 
L 1159 3500 
L 1159 2956 
Q 1366 3272 1645 3428 
Q 1925 3584 2291 3584 
Q 2894 3584 3203 3211 
Q 3513 2838 3513 2113 
z
" transform="scale(0.015625)"/>
      <path id="DejaVuSans-67" d="M 2906 1791 
Q 2906 2416 2648 2759 
Q 2391 3103 1925 3103 
Q 1463 3103 1205 2759 
Q 947 2416 947 1791 
Q 947 1169 1205 825 
Q 1463 481 1925 481 
Q 2391 481 2648 825 
Q 2906 1169 2906 1791 
z
M 3481 434 
Q 3481 -459 3084 -895 
Q 2688 -1331 1869 -1331 
Q 1566 -1331 1297 -1286 
Q 1028 -1241 775 -1147 
L 775 -588 
Q 1028 -725 1275 -790 
Q 1522 -856 1778 -856 
Q 2344 -856 2625 -561 
Q 2906 -266 2906 331 
L 2906 616 
Q 2728 306 2450 153 
Q 2172 0 1784 0 
Q 1141 0 747 490 
Q 353 981 353 1791 
Q 353 2603 747 3093 
Q 1141 3584 1784 3584 
Q 2172 3584 2450 3431 
Q 2728 3278 2906 2969 
L 2906 3500 
L 3481 3500 
L 3481 434 
z
" transform="scale(0.015625)"/>
      <path id="DejaVuSans-65" d="M 3597 1894 
L 3597 1613 
L 953 1613 
Q 991 1019 1311 708 
Q 1631 397 2203 397 
Q 2534 397 2845 478 
Q 3156 559 3463 722 
L 3463 178 
Q 3153 47 2828 -22 
Q 2503 -91 2169 -91 
Q 1331 -91 842 396 
Q 353 884 353 1716 
Q 353 2575 817 3079 
Q 1281 3584 2069 3584 
Q 2775 3584 3186 3129 
Q 3597 2675 3597 1894 
z
M 3022 2063 
Q 3016 2534 2758 2815 
Q 2500 3097 2075 3097 
Q 1594 3097 1305 2825 
Q 1016 2553 972 2059 
L 3022 2063 
z
" transform="scale(0.015625)"/>
      <path id="DejaVuSans-72" d="M 2631 2963 
Q 2534 3019 2420 3045 
Q 2306 3072 2169 3072 
Q 1681 3072 1420 2755 
Q 1159 2438 1159 1844 
L 1159 0 
L 581 0 
L 581 3500 
L 1159 3500 
L 1159 2956 
Q 1341 3275 1631 3429 
Q 1922 3584 2338 3584 
Q 2397 3584 2469 3576 
Q 2541 3569 2628 3553 
L 2631 2963 
z
" transform="scale(0.015625)"/>
      <path id="DejaVuSans-61" d="M 2194 1759 
Q 1497 1759 1228 1600 
Q 959 1441 959 1056 
Q 959 750 1161 570 
Q 1363 391 1709 391 
Q 2188 391 2477 730 
Q 2766 1069 2766 1631 
L 2766 1759 
L 2194 1759 
z
M 3341 1997 
L 3341 0 
L 2766 0 
L 2766 531 
Q 2569 213 2275 61 
Q 1981 -91 1556 -91 
Q 1019 -91 701 211 
Q 384 513 384 1019 
Q 384 1609 779 1909 
Q 1175 2209 1959 2209 
L 2766 2209 
L 2766 2266 
Q 2766 2663 2505 2880 
Q 2244 3097 1772 3097 
Q 1472 3097 1187 3025 
Q 903 2953 641 2809 
L 641 3341 
Q 956 3463 1253 3523 
Q 1550 3584 1831 3584 
Q 2591 3584 2966 3190 
Q 3341 2797 3341 1997 
z
" transform="scale(0.015625)"/>
      <path id="DejaVuSans-6c" d="M 603 4863 
L 1178 4863 
L 1178 0 
L 603 0 
L 603 4863 
z
" transform="scale(0.015625)"/>
      <path id="DejaVuSans-69" d="M 603 3500 
L 1178 3500 
L 1178 0 
L 603 0 
L 603 3500 
z
M 603 4863 
L 1178 4863 
L 1178 4134 
L 603 4134 
L 603 4863 
z
" transform="scale(0.015625)"/>
      <path id="DejaVuSans-7a" d="M 353 3500 
L 3084 3500 
L 3084 2975 
L 922 459 
L 3084 459 
L 3084 0 
L 275 0 
L 275 525 
L 2438 3041 
L 353 3041 
L 353 3500 
z
" transform="scale(0.015625)"/>
      <path id="DejaVuSans-64" d="M 2906 2969 
L 2906 4863 
L 3481 4863 
L 3481 0 
L 2906 0 
L 2906 525 
Q 2725 213 2448 61 
Q 2172 -91 1784 -91 
Q 1150 -91 751 415 
Q 353 922 353 1747 
Q 353 2572 751 3078 
Q 1150 3584 1784 3584 
Q 2172 3584 2448 3432 
Q 2725 3281 2906 2969 
z
M 947 1747 
Q 947 1113 1208 752 
Q 1469 391 1925 391 
Q 2381 391 2643 752 
Q 2906 1113 2906 1747 
Q 2906 2381 2643 2742 
Q 2381 3103 1925 3103 
Q 1469 3103 1208 2742 
Q 947 2381 947 1747 
z
" transform="scale(0.015625)"/>
      <path id="DejaVuSans-6d" d="M 3328 2828 
Q 3544 3216 3844 3400 
Q 4144 3584 4550 3584 
Q 5097 3584 5394 3201 
Q 5691 2819 5691 2113 
L 5691 0 
L 5113 0 
L 5113 2094 
Q 5113 2597 4934 2840 
Q 4756 3084 4391 3084 
Q 3944 3084 3684 2787 
Q 3425 2491 3425 1978 
L 3425 0 
L 2847 0 
L 2847 2094 
Q 2847 2600 2669 2842 
Q 2491 3084 2119 3084 
Q 1678 3084 1418 2786 
Q 1159 2488 1159 1978 
L 1159 0 
L 581 0 
L 581 3500 
L 1159 3500 
L 1159 2956 
Q 1356 3278 1631 3431 
Q 1906 3584 2284 3584 
Q 2666 3584 2933 3390 
Q 3200 3197 3328 2828 
z
" transform="scale(0.015625)"/>
      <path id="DejaVuSans-73" d="M 2834 3397 
L 2834 2853 
Q 2591 2978 2328 3040 
Q 2066 3103 1784 3103 
Q 1356 3103 1142 2972 
Q 928 2841 928 2578 
Q 928 2378 1081 2264 
Q 1234 2150 1697 2047 
L 1894 2003 
Q 2506 1872 2764 1633 
Q 3022 1394 3022 966 
Q 3022 478 2636 193 
Q 2250 -91 1575 -91 
Q 1294 -91 989 -36 
Q 684 19 347 128 
L 347 722 
Q 666 556 975 473 
Q 1284 391 1588 391 
Q 1994 391 2212 530 
Q 2431 669 2431 922 
Q 2431 1156 2273 1281 
Q 2116 1406 1581 1522 
L 1381 1569 
Q 847 1681 609 1914 
Q 372 2147 372 2553 
Q 372 3047 722 3315 
Q 1072 3584 1716 3584 
Q 2034 3584 2315 3537 
Q 2597 3491 2834 3397 
z
" transform="scale(0.015625)"/>
     </defs>
     <use xlink:href="#DejaVuSans-41"/>
     <use xlink:href="#DejaVuSans-55" x="68.408203"/>
     <use xlink:href="#DejaVuSans-50" x="141.601562"/>
     <use xlink:href="#DejaVuSans-52" x="201.904297"/>
     <use xlink:href="#DejaVuSans-43" x="266.386719"/>
     <use xlink:href="#DejaVuSans-5f" x="336.210938"/>
     <use xlink:href="#DejaVuSans-31" x="386.210938"/>
     <use xlink:href="#DejaVuSans-20" x="449.833984"/>
     <use xlink:href="#DejaVuSans-6f" x="481.621094"/>
     <use xlink:href="#DejaVuSans-6e" x="542.802734"/>
     <use xlink:href="#DejaVuSans-20" x="606.181641"/>
     <use xlink:href="#DejaVuSans-67" x="637.96875"/>
     <use xlink:href="#DejaVuSans-65" x="701.445312"/>
     <use xlink:href="#DejaVuSans-6e" x="762.96875"/>
     <use xlink:href="#DejaVuSans-65" x="826.347656"/>
     <use xlink:href="#DejaVuSans-72" x="887.871094"/>
     <use xlink:href="#DejaVuSans-61" x="928.984375"/>
     <use xlink:href="#DejaVuSans-6c" x="990.263672"/>
     <use xlink:href="#DejaVuSans-69" x="1018.046875"/>
     <use xlink:href="#DejaVuSans-7a" x="1045.830078"/>
     <use xlink:href="#DejaVuSans-65" x="1098.320312"/>
     <use xlink:href="#DejaVuSans-64" x="1159.84375"/>
     <use xlink:href="#DejaVuSans-20" x="1223.320312"/>
     <use xlink:href="#DejaVuSans-6d" x="1255.107422"/>
     <use xlink:href="#DejaVuSans-6f" x="1352.519531"/>
     <use xlink:href="#DejaVuSans-64" x="1413.701172"/>
     <use xlink:href="#DejaVuSans-65" x="1477.177734"/>
     <use xlink:href="#DejaVuSans-6c" x="1538.701172"/>
     <use xlink:href="#DejaVuSans-73" x="1566.484375"/>
    </g>
   </g>
   <g id="legend_1">
    <g id="patch_22">
     <path d="M 595.446314 326.5344 
L 880.081626 326.5344 
Q 882.881626 326.5344 882.881626 323.7344 
L 882.881626 97.1444 
Q 882.881626 94.3444 880.081626 94.3444 
L 595.446314 94.3444 
Q 592.646314 94.3444 592.646314 97.1444 
L 592.646314 323.7344 
Q 592.646314 326.5344 595.446314 326.5344 
z
" style="fill: #ffffff; opacity: 0.8; stroke: #cccccc; stroke-linejoin: miter"/>
    </g>
    <g id="text_2">
     <!-- Models -->
     <g transform="translate(713.098814 110.582212) scale(0.14 -0.14)">
      <defs>
       <path id="DejaVuSans-4d" d="M 628 4666 
L 1569 4666 
L 2759 1491 
L 3956 4666 
L 4897 4666 
L 4897 0 
L 4281 0 
L 4281 4097 
L 3078 897 
L 2444 897 
L 1241 4097 
L 1241 0 
L 628 0 
L 628 4666 
z
" transform="scale(0.015625)"/>
      </defs>
      <use xlink:href="#DejaVuSans-4d"/>
      <use xlink:href="#DejaVuSans-6f" x="86.279297"/>
      <use xlink:href="#DejaVuSans-64" x="147.460938"/>
      <use xlink:href="#DejaVuSans-65" x="210.9375"/>
      <use xlink:href="#DejaVuSans-6c" x="272.460938"/>
      <use xlink:href="#DejaVuSans-73" x="300.244141"/>
     </g>
    </g>
    <g id="patch_23">
     <path d="M 598.246314 131.131588 
L 626.246314 131.131588 
L 626.246314 121.331588 
L 598.246314 121.331588 
z
" style="fill: #6eaed4; stroke: #ffffff; stroke-linejoin: miter"/>
    </g>
    <g id="text_3">
     <!-- xgboost (97.28%) -->
     <g transform="translate(637.446314 131.131588) scale(0.14 -0.14)">
      <defs>
       <path id="DejaVuSans-78" d="M 3513 3500 
L 2247 1797 
L 3578 0 
L 2900 0 
L 1881 1375 
L 863 0 
L 184 0 
L 1544 1831 
L 300 3500 
L 978 3500 
L 1906 2253 
L 2834 3500 
L 3513 3500 
z
" transform="scale(0.015625)"/>
       <path id="DejaVuSans-62" d="M 3116 1747 
Q 3116 2381 2855 2742 
Q 2594 3103 2138 3103 
Q 1681 3103 1420 2742 
Q 1159 2381 1159 1747 
Q 1159 1113 1420 752 
Q 1681 391 2138 391 
Q 2594 391 2855 752 
Q 3116 1113 3116 1747 
z
M 1159 2969 
Q 1341 3281 1617 3432 
Q 1894 3584 2278 3584 
Q 2916 3584 3314 3078 
Q 3713 2572 3713 1747 
Q 3713 922 3314 415 
Q 2916 -91 2278 -91 
Q 1894 -91 1617 61 
Q 1341 213 1159 525 
L 1159 0 
L 581 0 
L 581 4863 
L 1159 4863 
L 1159 2969 
z
" transform="scale(0.015625)"/>
       <path id="DejaVuSans-74" d="M 1172 4494 
L 1172 3500 
L 2356 3500 
L 2356 3053 
L 1172 3053 
L 1172 1153 
Q 1172 725 1289 603 
Q 1406 481 1766 481 
L 2356 481 
L 2356 0 
L 1766 0 
Q 1100 0 847 248 
Q 594 497 594 1153 
L 594 3053 
L 172 3053 
L 172 3500 
L 594 3500 
L 594 4494 
L 1172 4494 
z
" transform="scale(0.015625)"/>
       <path id="DejaVuSans-28" d="M 1984 4856 
Q 1566 4138 1362 3434 
Q 1159 2731 1159 2009 
Q 1159 1288 1364 580 
Q 1569 -128 1984 -844 
L 1484 -844 
Q 1016 -109 783 600 
Q 550 1309 550 2009 
Q 550 2706 781 3412 
Q 1013 4119 1484 4856 
L 1984 4856 
z
" transform="scale(0.015625)"/>
       <path id="DejaVuSans-39" d="M 703 97 
L 703 672 
Q 941 559 1184 500 
Q 1428 441 1663 441 
Q 2288 441 2617 861 
Q 2947 1281 2994 2138 
Q 2813 1869 2534 1725 
Q 2256 1581 1919 1581 
Q 1219 1581 811 2004 
Q 403 2428 403 3163 
Q 403 3881 828 4315 
Q 1253 4750 1959 4750 
Q 2769 4750 3195 4129 
Q 3622 3509 3622 2328 
Q 3622 1225 3098 567 
Q 2575 -91 1691 -91 
Q 1453 -91 1209 -44 
Q 966 3 703 97 
z
M 1959 2075 
Q 2384 2075 2632 2365 
Q 2881 2656 2881 3163 
Q 2881 3666 2632 3958 
Q 2384 4250 1959 4250 
Q 1534 4250 1286 3958 
Q 1038 3666 1038 3163 
Q 1038 2656 1286 2365 
Q 1534 2075 1959 2075 
z
" transform="scale(0.015625)"/>
       <path id="DejaVuSans-37" d="M 525 4666 
L 3525 4666 
L 3525 4397 
L 1831 0 
L 1172 0 
L 2766 4134 
L 525 4134 
L 525 4666 
z
" transform="scale(0.015625)"/>
       <path id="DejaVuSans-2e" d="M 684 794 
L 1344 794 
L 1344 0 
L 684 0 
L 684 794 
z
" transform="scale(0.015625)"/>
       <path id="DejaVuSans-32" d="M 1228 531 
L 3431 531 
L 3431 0 
L 469 0 
L 469 531 
Q 828 903 1448 1529 
Q 2069 2156 2228 2338 
Q 2531 2678 2651 2914 
Q 2772 3150 2772 3378 
Q 2772 3750 2511 3984 
Q 2250 4219 1831 4219 
Q 1534 4219 1204 4116 
Q 875 4013 500 3803 
L 500 4441 
Q 881 4594 1212 4672 
Q 1544 4750 1819 4750 
Q 2544 4750 2975 4387 
Q 3406 4025 3406 3419 
Q 3406 3131 3298 2873 
Q 3191 2616 2906 2266 
Q 2828 2175 2409 1742 
Q 1991 1309 1228 531 
z
" transform="scale(0.015625)"/>
       <path id="DejaVuSans-38" d="M 2034 2216 
Q 1584 2216 1326 1975 
Q 1069 1734 1069 1313 
Q 1069 891 1326 650 
Q 1584 409 2034 409 
Q 2484 409 2743 651 
Q 3003 894 3003 1313 
Q 3003 1734 2745 1975 
Q 2488 2216 2034 2216 
z
M 1403 2484 
Q 997 2584 770 2862 
Q 544 3141 544 3541 
Q 544 4100 942 4425 
Q 1341 4750 2034 4750 
Q 2731 4750 3128 4425 
Q 3525 4100 3525 3541 
Q 3525 3141 3298 2862 
Q 3072 2584 2669 2484 
Q 3125 2378 3379 2068 
Q 3634 1759 3634 1313 
Q 3634 634 3220 271 
Q 2806 -91 2034 -91 
Q 1263 -91 848 271 
Q 434 634 434 1313 
Q 434 1759 690 2068 
Q 947 2378 1403 2484 
z
M 1172 3481 
Q 1172 3119 1398 2916 
Q 1625 2713 2034 2713 
Q 2441 2713 2670 2916 
Q 2900 3119 2900 3481 
Q 2900 3844 2670 4047 
Q 2441 4250 2034 4250 
Q 1625 4250 1398 4047 
Q 1172 3844 1172 3481 
z
" transform="scale(0.015625)"/>
       <path id="DejaVuSans-25" d="M 4653 2053 
Q 4381 2053 4226 1822 
Q 4072 1591 4072 1178 
Q 4072 772 4226 539 
Q 4381 306 4653 306 
Q 4919 306 5073 539 
Q 5228 772 5228 1178 
Q 5228 1588 5073 1820 
Q 4919 2053 4653 2053 
z
M 4653 2450 
Q 5147 2450 5437 2106 
Q 5728 1763 5728 1178 
Q 5728 594 5436 251 
Q 5144 -91 4653 -91 
Q 4153 -91 3862 251 
Q 3572 594 3572 1178 
Q 3572 1766 3864 2108 
Q 4156 2450 4653 2450 
z
M 1428 4353 
Q 1159 4353 1004 4120 
Q 850 3888 850 3481 
Q 850 3069 1003 2837 
Q 1156 2606 1428 2606 
Q 1700 2606 1854 2837 
Q 2009 3069 2009 3481 
Q 2009 3884 1853 4118 
Q 1697 4353 1428 4353 
z
M 4250 4750 
L 4750 4750 
L 1831 -91 
L 1331 -91 
L 4250 4750 
z
M 1428 4750 
Q 1922 4750 2215 4408 
Q 2509 4066 2509 3481 
Q 2509 2891 2217 2550 
Q 1925 2209 1428 2209 
Q 931 2209 642 2551 
Q 353 2894 353 3481 
Q 353 4063 643 4406 
Q 934 4750 1428 4750 
z
" transform="scale(0.015625)"/>
       <path id="DejaVuSans-29" d="M 513 4856 
L 1013 4856 
Q 1481 4119 1714 3412 
Q 1947 2706 1947 2009 
Q 1947 1309 1714 600 
Q 1481 -109 1013 -844 
L 513 -844 
Q 928 -128 1133 580 
Q 1338 1288 1338 2009 
Q 1338 2731 1133 3434 
Q 928 4138 513 4856 
z
" transform="scale(0.015625)"/>
      </defs>
      <use xlink:href="#DejaVuSans-78"/>
      <use xlink:href="#DejaVuSans-67" x="59.179688"/>
      <use xlink:href="#DejaVuSans-62" x="122.65625"/>
      <use xlink:href="#DejaVuSans-6f" x="186.132812"/>
      <use xlink:href="#DejaVuSans-6f" x="247.314453"/>
      <use xlink:href="#DejaVuSans-73" x="308.496094"/>
      <use xlink:href="#DejaVuSans-74" x="360.595703"/>
      <use xlink:href="#DejaVuSans-20" x="399.804688"/>
      <use xlink:href="#DejaVuSans-28" x="431.591797"/>
      <use xlink:href="#DejaVuSans-39" x="470.605469"/>
      <use xlink:href="#DejaVuSans-37" x="534.228516"/>
      <use xlink:href="#DejaVuSans-2e" x="597.851562"/>
      <use xlink:href="#DejaVuSans-32" x="629.638672"/>
      <use xlink:href="#DejaVuSans-38" x="693.261719"/>
      <use xlink:href="#DejaVuSans-25" x="756.884766"/>
      <use xlink:href="#DejaVuSans-29" x="851.904297"/>
     </g>
    </g>
    <g id="patch_24">
     <path d="M 598.246314 151.680963 
L 626.246314 151.680963 
L 626.246314 141.880963 
L 598.246314 141.880963 
z
" style="fill: #6eaed4; stroke: #ffffff; stroke-linejoin: miter"/>
    </g>
    <g id="text_4">
     <!-- random_forest (97.12%) -->
     <g transform="translate(637.446314 151.680963) scale(0.14 -0.14)">
      <defs>
       <path id="DejaVuSans-66" d="M 2375 4863 
L 2375 4384 
L 1825 4384 
Q 1516 4384 1395 4259 
Q 1275 4134 1275 3809 
L 1275 3500 
L 2222 3500 
L 2222 3053 
L 1275 3053 
L 1275 0 
L 697 0 
L 697 3053 
L 147 3053 
L 147 3500 
L 697 3500 
L 697 3744 
Q 697 4328 969 4595 
Q 1241 4863 1831 4863 
L 2375 4863 
z
" transform="scale(0.015625)"/>
      </defs>
      <use xlink:href="#DejaVuSans-72"/>
      <use xlink:href="#DejaVuSans-61" x="41.113281"/>
      <use xlink:href="#DejaVuSans-6e" x="102.392578"/>
      <use xlink:href="#DejaVuSans-64" x="165.771484"/>
      <use xlink:href="#DejaVuSans-6f" x="229.248047"/>
      <use xlink:href="#DejaVuSans-6d" x="290.429688"/>
      <use xlink:href="#DejaVuSans-5f" x="387.841797"/>
      <use xlink:href="#DejaVuSans-66" x="437.841797"/>
      <use xlink:href="#DejaVuSans-6f" x="473.046875"/>
      <use xlink:href="#DejaVuSans-72" x="534.228516"/>
      <use xlink:href="#DejaVuSans-65" x="573.091797"/>
      <use xlink:href="#DejaVuSans-73" x="634.615234"/>
      <use xlink:href="#DejaVuSans-74" x="686.714844"/>
      <use xlink:href="#DejaVuSans-20" x="725.923828"/>
      <use xlink:href="#DejaVuSans-28" x="757.710938"/>
      <use xlink:href="#DejaVuSans-39" x="796.724609"/>
      <use xlink:href="#DejaVuSans-37" x="860.347656"/>
      <use xlink:href="#DejaVuSans-2e" x="923.970703"/>
      <use xlink:href="#DejaVuSans-31" x="955.757812"/>
      <use xlink:href="#DejaVuSans-32" x="1019.380859"/>
      <use xlink:href="#DejaVuSans-25" x="1083.003906"/>
      <use xlink:href="#DejaVuSans-29" x="1178.023438"/>
     </g>
    </g>
    <g id="patch_25">
     <path d="M 598.246314 172.619712 
L 626.246314 172.619712 
L 626.246314 162.819712 
L 598.246314 162.819712 
z
" style="fill: #6fafd5; stroke: #ffffff; stroke-linejoin: miter"/>
    </g>
    <g id="text_5">
     <!-- neural_network (96.87%) -->
     <g transform="translate(637.446314 172.619712) scale(0.14 -0.14)">
      <defs>
       <path id="DejaVuSans-75" d="M 544 1381 
L 544 3500 
L 1119 3500 
L 1119 1403 
Q 1119 906 1312 657 
Q 1506 409 1894 409 
Q 2359 409 2629 706 
Q 2900 1003 2900 1516 
L 2900 3500 
L 3475 3500 
L 3475 0 
L 2900 0 
L 2900 538 
Q 2691 219 2414 64 
Q 2138 -91 1772 -91 
Q 1169 -91 856 284 
Q 544 659 544 1381 
z
M 1991 3584 
L 1991 3584 
z
" transform="scale(0.015625)"/>
       <path id="DejaVuSans-77" d="M 269 3500 
L 844 3500 
L 1563 769 
L 2278 3500 
L 2956 3500 
L 3675 769 
L 4391 3500 
L 4966 3500 
L 4050 0 
L 3372 0 
L 2619 2869 
L 1863 0 
L 1184 0 
L 269 3500 
z
" transform="scale(0.015625)"/>
       <path id="DejaVuSans-6b" d="M 581 4863 
L 1159 4863 
L 1159 1991 
L 2875 3500 
L 3609 3500 
L 1753 1863 
L 3688 0 
L 2938 0 
L 1159 1709 
L 1159 0 
L 581 0 
L 581 4863 
z
" transform="scale(0.015625)"/>
       <path id="DejaVuSans-36" d="M 2113 2584 
Q 1688 2584 1439 2293 
Q 1191 2003 1191 1497 
Q 1191 994 1439 701 
Q 1688 409 2113 409 
Q 2538 409 2786 701 
Q 3034 994 3034 1497 
Q 3034 2003 2786 2293 
Q 2538 2584 2113 2584 
z
M 3366 4563 
L 3366 3988 
Q 3128 4100 2886 4159 
Q 2644 4219 2406 4219 
Q 1781 4219 1451 3797 
Q 1122 3375 1075 2522 
Q 1259 2794 1537 2939 
Q 1816 3084 2150 3084 
Q 2853 3084 3261 2657 
Q 3669 2231 3669 1497 
Q 3669 778 3244 343 
Q 2819 -91 2113 -91 
Q 1303 -91 875 529 
Q 447 1150 447 2328 
Q 447 3434 972 4092 
Q 1497 4750 2381 4750 
Q 2619 4750 2861 4703 
Q 3103 4656 3366 4563 
z
" transform="scale(0.015625)"/>
      </defs>
      <use xlink:href="#DejaVuSans-6e"/>
      <use xlink:href="#DejaVuSans-65" x="63.378906"/>
      <use xlink:href="#DejaVuSans-75" x="124.902344"/>
      <use xlink:href="#DejaVuSans-72" x="188.28125"/>
      <use xlink:href="#DejaVuSans-61" x="229.394531"/>
      <use xlink:href="#DejaVuSans-6c" x="290.673828"/>
      <use xlink:href="#DejaVuSans-5f" x="318.457031"/>
      <use xlink:href="#DejaVuSans-6e" x="368.457031"/>
      <use xlink:href="#DejaVuSans-65" x="431.835938"/>
      <use xlink:href="#DejaVuSans-74" x="493.359375"/>
      <use xlink:href="#DejaVuSans-77" x="532.568359"/>
      <use xlink:href="#DejaVuSans-6f" x="614.355469"/>
      <use xlink:href="#DejaVuSans-72" x="675.537109"/>
      <use xlink:href="#DejaVuSans-6b" x="716.650391"/>
      <use xlink:href="#DejaVuSans-20" x="774.560547"/>
      <use xlink:href="#DejaVuSans-28" x="806.347656"/>
      <use xlink:href="#DejaVuSans-39" x="845.361328"/>
      <use xlink:href="#DejaVuSans-36" x="908.984375"/>
      <use xlink:href="#DejaVuSans-2e" x="972.607422"/>
      <use xlink:href="#DejaVuSans-38" x="1004.394531"/>
      <use xlink:href="#DejaVuSans-37" x="1068.017578"/>
      <use xlink:href="#DejaVuSans-25" x="1131.640625"/>
      <use xlink:href="#DejaVuSans-29" x="1226.660156"/>
     </g>
    </g>
    <g id="patch_26">
     <path d="M 598.246314 193.558463 
L 626.246314 193.558463 
L 626.246314 183.758463 
L 598.246314 183.758463 
z
" style="fill: #6fafd5; stroke: #ffffff; stroke-linejoin: miter"/>
    </g>
    <g id="text_6">
     <!-- logistic_regression (96.61%) -->
     <g transform="translate(637.446314 193.558463) scale(0.14 -0.14)">
      <defs>
       <path id="DejaVuSans-63" d="M 3122 3366 
L 3122 2828 
Q 2878 2963 2633 3030 
Q 2388 3097 2138 3097 
Q 1578 3097 1268 2742 
Q 959 2388 959 1747 
Q 959 1106 1268 751 
Q 1578 397 2138 397 
Q 2388 397 2633 464 
Q 2878 531 3122 666 
L 3122 134 
Q 2881 22 2623 -34 
Q 2366 -91 2075 -91 
Q 1284 -91 818 406 
Q 353 903 353 1747 
Q 353 2603 823 3093 
Q 1294 3584 2113 3584 
Q 2378 3584 2631 3529 
Q 2884 3475 3122 3366 
z
" transform="scale(0.015625)"/>
      </defs>
      <use xlink:href="#DejaVuSans-6c"/>
      <use xlink:href="#DejaVuSans-6f" x="27.783203"/>
      <use xlink:href="#DejaVuSans-67" x="88.964844"/>
      <use xlink:href="#DejaVuSans-69" x="152.441406"/>
      <use xlink:href="#DejaVuSans-73" x="180.224609"/>
      <use xlink:href="#DejaVuSans-74" x="232.324219"/>
      <use xlink:href="#DejaVuSans-69" x="271.533203"/>
      <use xlink:href="#DejaVuSans-63" x="299.316406"/>
      <use xlink:href="#DejaVuSans-5f" x="354.296875"/>
      <use xlink:href="#DejaVuSans-72" x="404.296875"/>
      <use xlink:href="#DejaVuSans-65" x="443.160156"/>
      <use xlink:href="#DejaVuSans-67" x="504.683594"/>
      <use xlink:href="#DejaVuSans-72" x="568.160156"/>
      <use xlink:href="#DejaVuSans-65" x="607.023438"/>
      <use xlink:href="#DejaVuSans-73" x="668.546875"/>
      <use xlink:href="#DejaVuSans-73" x="720.646484"/>
      <use xlink:href="#DejaVuSans-69" x="772.746094"/>
      <use xlink:href="#DejaVuSans-6f" x="800.529297"/>
      <use xlink:href="#DejaVuSans-6e" x="861.710938"/>
      <use xlink:href="#DejaVuSans-20" x="925.089844"/>
      <use xlink:href="#DejaVuSans-28" x="956.876953"/>
      <use xlink:href="#DejaVuSans-39" x="995.890625"/>
      <use xlink:href="#DejaVuSans-36" x="1059.513672"/>
      <use xlink:href="#DejaVuSans-2e" x="1123.136719"/>
      <use xlink:href="#DejaVuSans-36" x="1154.923828"/>
      <use xlink:href="#DejaVuSans-31" x="1218.546875"/>
      <use xlink:href="#DejaVuSans-25" x="1282.169922"/>
      <use xlink:href="#DejaVuSans-29" x="1377.189453"/>
     </g>
    </g>
    <g id="patch_27">
     <path d="M 598.246314 214.497213 
L 626.246314 214.497213 
L 626.246314 204.697213 
L 598.246314 204.697213 
z
" style="fill: #6fafd5; stroke: #ffffff; stroke-linejoin: miter"/>
    </g>
    <g id="text_7">
     <!-- svm (96.5%) -->
     <g transform="translate(637.446314 214.497213) scale(0.14 -0.14)">
      <defs>
       <path id="DejaVuSans-76" d="M 191 3500 
L 800 3500 
L 1894 563 
L 2988 3500 
L 3597 3500 
L 2284 0 
L 1503 0 
L 191 3500 
z
" transform="scale(0.015625)"/>
       <path id="DejaVuSans-35" d="M 691 4666 
L 3169 4666 
L 3169 4134 
L 1269 4134 
L 1269 2991 
Q 1406 3038 1543 3061 
Q 1681 3084 1819 3084 
Q 2600 3084 3056 2656 
Q 3513 2228 3513 1497 
Q 3513 744 3044 326 
Q 2575 -91 1722 -91 
Q 1428 -91 1123 -41 
Q 819 9 494 109 
L 494 744 
Q 775 591 1075 516 
Q 1375 441 1709 441 
Q 2250 441 2565 725 
Q 2881 1009 2881 1497 
Q 2881 1984 2565 2268 
Q 2250 2553 1709 2553 
Q 1456 2553 1204 2497 
Q 953 2441 691 2322 
L 691 4666 
z
" transform="scale(0.015625)"/>
      </defs>
      <use xlink:href="#DejaVuSans-73"/>
      <use xlink:href="#DejaVuSans-76" x="52.099609"/>
      <use xlink:href="#DejaVuSans-6d" x="111.279297"/>
      <use xlink:href="#DejaVuSans-20" x="208.691406"/>
      <use xlink:href="#DejaVuSans-28" x="240.478516"/>
      <use xlink:href="#DejaVuSans-39" x="279.492188"/>
      <use xlink:href="#DejaVuSans-36" x="343.115234"/>
      <use xlink:href="#DejaVuSans-2e" x="406.738281"/>
      <use xlink:href="#DejaVuSans-35" x="438.525391"/>
      <use xlink:href="#DejaVuSans-25" x="502.148438"/>
      <use xlink:href="#DejaVuSans-29" x="597.167969"/>
     </g>
    </g>
    <g id="patch_28">
     <path d="M 598.246314 235.046587 
L 626.246314 235.046587 
L 626.246314 225.246587 
L 598.246314 225.246587 
z
" style="fill: #6fafd5; stroke: #ffffff; stroke-linejoin: miter"/>
    </g>
    <g id="text_8">
     <!-- crf (96.19%) -->
     <g transform="translate(637.446314 235.046587) scale(0.14 -0.14)">
      <use xlink:href="#DejaVuSans-63"/>
      <use xlink:href="#DejaVuSans-72" x="54.980469"/>
      <use xlink:href="#DejaVuSans-66" x="96.09375"/>
      <use xlink:href="#DejaVuSans-20" x="131.298828"/>
      <use xlink:href="#DejaVuSans-28" x="163.085938"/>
      <use xlink:href="#DejaVuSans-39" x="202.099609"/>
      <use xlink:href="#DejaVuSans-36" x="265.722656"/>
      <use xlink:href="#DejaVuSans-2e" x="329.345703"/>
      <use xlink:href="#DejaVuSans-31" x="361.132812"/>
      <use xlink:href="#DejaVuSans-39" x="424.755859"/>
      <use xlink:href="#DejaVuSans-25" x="488.378906"/>
      <use xlink:href="#DejaVuSans-29" x="583.398438"/>
     </g>
    </g>
    <g id="patch_29">
     <path d="M 598.246314 255.595963 
L 626.246314 255.595963 
L 626.246314 245.795963 
L 598.246314 245.795963 
z
" style="fill: #70b0d5; stroke: #ffffff; stroke-linejoin: miter"/>
    </g>
    <g id="text_9">
     <!-- naive_bayes (95.74%) -->
     <g transform="translate(637.446314 255.595963) scale(0.14 -0.14)">
      <defs>
       <path id="DejaVuSans-79" d="M 2059 -325 
Q 1816 -950 1584 -1140 
Q 1353 -1331 966 -1331 
L 506 -1331 
L 506 -850 
L 844 -850 
Q 1081 -850 1212 -737 
Q 1344 -625 1503 -206 
L 1606 56 
L 191 3500 
L 800 3500 
L 1894 763 
L 2988 3500 
L 3597 3500 
L 2059 -325 
z
" transform="scale(0.015625)"/>
       <path id="DejaVuSans-34" d="M 2419 4116 
L 825 1625 
L 2419 1625 
L 2419 4116 
z
M 2253 4666 
L 3047 4666 
L 3047 1625 
L 3713 1625 
L 3713 1100 
L 3047 1100 
L 3047 0 
L 2419 0 
L 2419 1100 
L 313 1100 
L 313 1709 
L 2253 4666 
z
" transform="scale(0.015625)"/>
      </defs>
      <use xlink:href="#DejaVuSans-6e"/>
      <use xlink:href="#DejaVuSans-61" x="63.378906"/>
      <use xlink:href="#DejaVuSans-69" x="124.658203"/>
      <use xlink:href="#DejaVuSans-76" x="152.441406"/>
      <use xlink:href="#DejaVuSans-65" x="211.621094"/>
      <use xlink:href="#DejaVuSans-5f" x="273.144531"/>
      <use xlink:href="#DejaVuSans-62" x="323.144531"/>
      <use xlink:href="#DejaVuSans-61" x="386.621094"/>
      <use xlink:href="#DejaVuSans-79" x="447.900391"/>
      <use xlink:href="#DejaVuSans-65" x="507.080078"/>
      <use xlink:href="#DejaVuSans-73" x="568.603516"/>
      <use xlink:href="#DejaVuSans-20" x="620.703125"/>
      <use xlink:href="#DejaVuSans-28" x="652.490234"/>
      <use xlink:href="#DejaVuSans-39" x="691.503906"/>
      <use xlink:href="#DejaVuSans-35" x="755.126953"/>
      <use xlink:href="#DejaVuSans-2e" x="818.75"/>
      <use xlink:href="#DejaVuSans-37" x="850.537109"/>
      <use xlink:href="#DejaVuSans-34" x="914.160156"/>
      <use xlink:href="#DejaVuSans-25" x="977.783203"/>
      <use xlink:href="#DejaVuSans-29" x="1072.802734"/>
     </g>
    </g>
    <g id="patch_30">
     <path d="M 598.246314 276.534713 
L 626.246314 276.534713 
L 626.246314 266.734713 
L 598.246314 266.734713 
z
" style="fill: #72b1d6; stroke: #ffffff; stroke-linejoin: miter"/>
    </g>
    <g id="text_10">
     <!-- recurrent_neural_network (94.3%) -->
     <g transform="translate(637.446314 276.534713) scale(0.14 -0.14)">
      <defs>
       <path id="DejaVuSans-33" d="M 2597 2516 
Q 3050 2419 3304 2112 
Q 3559 1806 3559 1356 
Q 3559 666 3084 287 
Q 2609 -91 1734 -91 
Q 1441 -91 1130 -33 
Q 819 25 488 141 
L 488 750 
Q 750 597 1062 519 
Q 1375 441 1716 441 
Q 2309 441 2620 675 
Q 2931 909 2931 1356 
Q 2931 1769 2642 2001 
Q 2353 2234 1838 2234 
L 1294 2234 
L 1294 2753 
L 1863 2753 
Q 2328 2753 2575 2939 
Q 2822 3125 2822 3475 
Q 2822 3834 2567 4026 
Q 2313 4219 1838 4219 
Q 1578 4219 1281 4162 
Q 984 4106 628 3988 
L 628 4550 
Q 988 4650 1302 4700 
Q 1616 4750 1894 4750 
Q 2613 4750 3031 4423 
Q 3450 4097 3450 3541 
Q 3450 3153 3228 2886 
Q 3006 2619 2597 2516 
z
" transform="scale(0.015625)"/>
      </defs>
      <use xlink:href="#DejaVuSans-72"/>
      <use xlink:href="#DejaVuSans-65" x="38.863281"/>
      <use xlink:href="#DejaVuSans-63" x="100.386719"/>
      <use xlink:href="#DejaVuSans-75" x="155.367188"/>
      <use xlink:href="#DejaVuSans-72" x="218.746094"/>
      <use xlink:href="#DejaVuSans-72" x="258.109375"/>
      <use xlink:href="#DejaVuSans-65" x="296.972656"/>
      <use xlink:href="#DejaVuSans-6e" x="358.496094"/>
      <use xlink:href="#DejaVuSans-74" x="421.875"/>
      <use xlink:href="#DejaVuSans-5f" x="461.083984"/>
      <use xlink:href="#DejaVuSans-6e" x="511.083984"/>
      <use xlink:href="#DejaVuSans-65" x="574.462891"/>
      <use xlink:href="#DejaVuSans-75" x="635.986328"/>
      <use xlink:href="#DejaVuSans-72" x="699.365234"/>
      <use xlink:href="#DejaVuSans-61" x="740.478516"/>
      <use xlink:href="#DejaVuSans-6c" x="801.757812"/>
      <use xlink:href="#DejaVuSans-5f" x="829.541016"/>
      <use xlink:href="#DejaVuSans-6e" x="879.541016"/>
      <use xlink:href="#DejaVuSans-65" x="942.919922"/>
      <use xlink:href="#DejaVuSans-74" x="1004.443359"/>
      <use xlink:href="#DejaVuSans-77" x="1043.652344"/>
      <use xlink:href="#DejaVuSans-6f" x="1125.439453"/>
      <use xlink:href="#DejaVuSans-72" x="1186.621094"/>
      <use xlink:href="#DejaVuSans-6b" x="1227.734375"/>
      <use xlink:href="#DejaVuSans-20" x="1285.644531"/>
      <use xlink:href="#DejaVuSans-28" x="1317.431641"/>
      <use xlink:href="#DejaVuSans-39" x="1356.445312"/>
      <use xlink:href="#DejaVuSans-34" x="1420.068359"/>
      <use xlink:href="#DejaVuSans-2e" x="1483.691406"/>
      <use xlink:href="#DejaVuSans-33" x="1515.478516"/>
      <use xlink:href="#DejaVuSans-25" x="1579.101562"/>
      <use xlink:href="#DejaVuSans-29" x="1674.121094"/>
     </g>
    </g>
    <g id="patch_31">
     <path d="M 598.246314 297.473462 
L 626.246314 297.473462 
L 626.246314 287.673462 
L 598.246314 287.673462 
z
" style="fill: #76b3d7; stroke: #ffffff; stroke-linejoin: miter"/>
    </g>
    <g id="text_11">
     <!-- knn (91.85%) -->
     <g transform="translate(637.446314 297.473462) scale(0.14 -0.14)">
      <use xlink:href="#DejaVuSans-6b"/>
      <use xlink:href="#DejaVuSans-6e" x="57.910156"/>
      <use xlink:href="#DejaVuSans-6e" x="121.289062"/>
      <use xlink:href="#DejaVuSans-20" x="184.667969"/>
      <use xlink:href="#DejaVuSans-28" x="216.455078"/>
      <use xlink:href="#DejaVuSans-39" x="255.46875"/>
      <use xlink:href="#DejaVuSans-31" x="319.091797"/>
      <use xlink:href="#DejaVuSans-2e" x="382.714844"/>
      <use xlink:href="#DejaVuSans-38" x="414.501953"/>
      <use xlink:href="#DejaVuSans-35" x="478.125"/>
      <use xlink:href="#DejaVuSans-25" x="541.748047"/>
      <use xlink:href="#DejaVuSans-29" x="636.767578"/>
     </g>
    </g>
    <g id="patch_32">
     <path d="M 598.246314 318.022838 
L 626.246314 318.022838 
L 626.246314 308.222838 
L 598.246314 308.222838 
z
" style="fill: #76b3d7; stroke: #ffffff; stroke-linejoin: miter"/>
    </g>
    <g id="text_12">
     <!-- hmm (91.21%) -->
     <g transform="translate(637.446314 318.022838) scale(0.14 -0.14)">
      <defs>
       <path id="DejaVuSans-68" d="M 3513 2113 
L 3513 0 
L 2938 0 
L 2938 2094 
Q 2938 2591 2744 2837 
Q 2550 3084 2163 3084 
Q 1697 3084 1428 2787 
Q 1159 2491 1159 1978 
L 1159 0 
L 581 0 
L 581 4863 
L 1159 4863 
L 1159 2956 
Q 1366 3272 1645 3428 
Q 1925 3584 2291 3584 
Q 2894 3584 3203 3211 
Q 3513 2838 3513 2113 
z
" transform="scale(0.015625)"/>
      </defs>
      <use xlink:href="#DejaVuSans-68"/>
      <use xlink:href="#DejaVuSans-6d" x="63.378906"/>
      <use xlink:href="#DejaVuSans-6d" x="160.791016"/>
      <use xlink:href="#DejaVuSans-20" x="258.203125"/>
      <use xlink:href="#DejaVuSans-28" x="289.990234"/>
      <use xlink:href="#DejaVuSans-39" x="329.003906"/>
      <use xlink:href="#DejaVuSans-31" x="392.626953"/>
      <use xlink:href="#DejaVuSans-2e" x="456.25"/>
      <use xlink:href="#DejaVuSans-32" x="488.037109"/>
      <use xlink:href="#DejaVuSans-31" x="551.660156"/>
      <use xlink:href="#DejaVuSans-25" x="615.283203"/>
      <use xlink:href="#DejaVuSans-29" x="710.302734"/>
     </g>
    </g>
   </g>
  </g>
 </g>
</svg>
