<?xml version="1.0" encoding="utf-8" standalone="no"?>
<!DOCTYPE svg PUBLIC "-//W3C//DTD SVG 1.1//EN"
  "http://www.w3.org/Graphics/SVG/1.1/DTD/svg11.dtd">
<svg xmlns:xlink="http://www.w3.org/1999/xlink" width="898.986941pt" height="653.068784pt" viewBox="0 0 898.986941 653.068784" xmlns="http://www.w3.org/2000/svg" version="1.1">
 <metadata>
  <rdf:RDF xmlns:dc="http://purl.org/dc/elements/1.1/" xmlns:cc="http://creativecommons.org/ns#" xmlns:rdf="http://www.w3.org/1999/02/22-rdf-syntax-ns#">
   <cc:Work>
    <dc:type rdf:resource="http://purl.org/dc/dcmitype/StillImage"/>
    <dc:date>2023-11-09T15:01:40.072013</dc:date>
    <dc:format>image/svg+xml</dc:format>
    <dc:creator>
     <cc:Agent>
      <dc:title>Matplotlib v3.7.0, https://matplotlib.org/</dc:title>
     </cc:Agent>
    </dc:creator>
   </cc:Work>
  </rdf:RDF>
 </metadata>
 <defs>
  <style type="text/css">*{stroke-linejoin: round; stroke-linecap: butt}</style>
 </defs>
 <g id="figure_1">
  <g id="patch_1">
   <path d="M 0 653.068784 
L 898.986941 653.068784 
L 898.986941 -0 
L 0 -0 
z
" style="fill: #ffffff"/>
  </g>
  <g id="axes_1">
   <g id="patch_2">
    <path d="M 326.532129 7.2 
C 252.737735 7.2 181.176914 32.779514 124.103672 79.55833 
C 67.030431 126.337146 27.899699 191.483509 13.412186 263.841815 
C -1.075327 336.200121 9.95738 411.390161 44.621078 476.536462 
C 79.284776 541.682763 135.481097 592.841694 203.587036 621.252847 
L 213.044351 598.582198 
C 150.177331 572.356518 98.303803 525.132889 66.306544 464.997842 
C 34.309284 404.862795 24.125246 335.456604 37.498335 268.664321 
C 50.871424 201.872039 86.9921 141.736935 139.675092 98.556489 
C 192.358084 55.376044 258.414227 31.764185 326.532129 31.764185 
z
" style="fill: #f4f5f5; stroke: #ffffff; stroke-linejoin: miter"/>
   </g>
   <g id="patch_3">
    <path d="M 203.587036 621.252847 
C 247.19485 639.444334 294.301503 647.732497 341.499669 645.517835 
C 388.697835 643.303173 434.821415 630.640403 476.534191 608.44545 
C 518.246967 586.250498 554.518364 555.071721 582.724794 517.164348 
C 610.931224 479.256976 630.375807 435.557563 639.652072 389.226985 
C 648.928337 342.896407 647.807103 295.079326 636.369469 249.234455 
C 624.931836 203.389585 603.460387 160.649589 573.508199 124.105944 
C 543.55601 87.562298 505.863095 58.117867 463.155863 37.90243 
C 420.448631 17.686992 373.782225 7.2 326.532129 7.2 
L 326.532129 31.764185 
C 370.147602 31.764185 413.224284 41.444485 452.646345 60.104889 
C 492.068405 78.765293 526.861866 105.944768 554.510039 139.677363 
C 582.158213 173.409959 601.978012 212.862263 612.535828 255.180605 
C 623.093643 297.498947 624.128629 341.637791 615.565923 384.404479 
C 607.003216 427.171166 589.054371 467.509085 563.017666 502.500506 
C 536.980962 537.491927 503.499671 566.272337 464.995571 586.759985 
C 426.49147 607.247634 383.915857 618.936344 340.34832 620.980648 
C 296.780782 623.024951 253.297717 615.374339 213.044351 598.582198 
z
" style="fill: #f39a9e; stroke: #ffffff; stroke-linejoin: miter"/>
   </g>
   <g id="patch_4">
    <path d="M 326.532129 31.764185 
C 255.456967 31.764185 186.725516 57.470709 133.094993 104.112381 
C 79.46447 150.754053 44.471818 215.254845 34.61201 285.642789 
C 24.752201 356.030734 40.675493 427.663733 79.426368 487.246014 
C 118.177244 546.828295 177.200075 590.430395 245.539659 609.959345 
L 252.289031 586.3406 
C 189.644413 568.439062 135.540151 528.470471 100.018515 473.85338 
C 64.496879 419.236289 49.900528 353.572706 58.938686 289.050423 
C 67.976844 224.528141 100.053441 165.402415 149.214754 122.64755 
C 198.376067 79.892684 261.379897 56.328369 326.532129 56.328369 
z
" style="fill: #f4f5f5; stroke: #ffffff; stroke-linejoin: miter"/>
   </g>
   <g id="patch_5">
    <path d="M 245.539659 609.959345 
C 286.080117 621.544324 328.638293 624.297367 370.333463 618.032124 
C 412.028633 611.766881 451.898311 596.627978 487.243755 573.640153 
C 522.589198 550.652329 552.594498 520.34623 575.228622 484.773251 
C 597.862747 449.200271 612.603213 409.181572 618.452252 367.425983 
C 624.301291 325.670394 621.123884 283.141796 609.135107 242.71891 
C 597.146331 202.296024 576.622932 164.911968 548.95412 133.097233 
C 521.285309 101.282498 487.109788 75.771493 448.740869 58.291033 
C 410.371949 40.810574 368.695333 31.764177 326.532074 31.764185 
L 326.532078 56.328369 
C 365.181733 56.328362 403.385297 64.620893 438.556807 80.644647 
C 473.728317 96.668402 505.055877 120.05349 530.418954 149.216997 
C 555.782032 178.380504 574.595147 212.649222 585.584859 249.703534 
C 596.574571 286.757846 599.487194 325.742395 594.125575 364.018351 
C 588.763956 402.294308 575.251862 438.978115 554.503915 471.58668 
C 533.755967 504.195245 506.251109 531.975834 473.851119 553.048007 
C 441.451129 574.12018 404.903924 587.997507 366.683352 593.740647 
C 328.462779 599.483786 289.451118 596.960163 252.289031 586.3406 
z
" style="fill: #f49da2; stroke: #ffffff; stroke-linejoin: miter"/>
   </g>
   <g id="patch_6">
    <path d="M 326.532129 56.328369 
C 258.004041 56.328369 191.978146 82.397914 141.934984 129.214373 
C 91.891822 176.030831 61.485884 240.175346 56.925166 308.551502 
C 52.364448 376.927658 73.982003 444.542162 117.364166 497.590129 
C 160.746329 550.638096 222.725039 585.245602 290.646072 594.346816 
L 293.908441 570.000232 
C 232.162047 561.726402 175.817766 530.265033 136.379436 482.039608 
C 96.941106 433.814184 77.288782 372.346453 81.43489 310.186311 
C 85.580997 248.026169 113.222759 189.712973 158.716543 147.152557 
C 204.210327 104.59214 264.233867 80.892554 326.532129 80.892554 
z
" style="fill: #f4f5f5; stroke: #ffffff; stroke-linejoin: miter"/>
   </g>
   <g id="patch_7">
    <path d="M 290.646072 594.346816 
C 327.316127 599.260493 364.607641 596.590675 400.203718 586.503237 
C 435.799796 576.415798 468.94766 559.124066 497.587858 535.702363 
C 526.228056 512.280659 549.754913 483.224301 566.70672 450.338539 
C 583.658528 417.452776 593.676794 381.43307 596.139092 344.517298 
C 598.601389 307.601526 593.455646 270.570373 581.021563 235.72456 
C 568.58748 200.878746 549.12801 168.955182 523.852156 141.937255 
C 498.576303 114.919329 468.018593 93.378408 434.077555 78.652815 
C 400.136517 63.927221 363.529928 56.328369 326.532129 56.328369 
L 326.532129 80.892554 
C 360.166492 80.892554 393.445209 87.800601 424.300698 101.187504 
C 455.156187 114.574407 482.935923 134.157062 505.913972 158.718814 
C 528.892021 183.280565 546.582448 212.301988 557.88616 243.98 
C 569.189872 275.658012 573.86782 309.322696 571.629368 342.882489 
C 569.390916 376.442282 560.283401 409.18747 544.872666 439.083617 
C 529.461932 468.979764 508.073881 495.394636 482.037337 516.687093 
C 456.000794 537.979551 425.866371 553.699308 393.506301 562.869706 
C 361.146231 572.040104 327.244854 574.467211 293.908441 570.000232 
z
" style="fill: #f4a1a5; stroke: #ffffff; stroke-linejoin: miter"/>
   </g>
   <g id="patch_8">
    <path d="M 326.532129 80.892554 
C 293.937091 80.892554 261.665686 87.380271 231.602992 99.976735 
C 201.540299 112.573199 174.283294 131.028274 151.424151 154.263937 
C 128.565007 177.499599 110.557656 205.054442 98.453966 235.318896 
C 86.350276 265.58335 80.390599 297.95643 80.92306 330.547118 
C 81.455521 363.137806 88.469546 395.298924 101.555423 425.151835 
C 114.6413 455.004746 133.539173 481.956638 157.145154 504.433162 
C 180.751135 526.909685 208.596463 544.464508 239.0546 556.072193 
C 269.512737 567.679879 301.978852 573.109925 334.556494 572.045145 
L 333.754057 547.494071 
C 304.43418 548.452373 275.214676 543.565331 247.802353 533.118414 
C 220.39003 522.671497 195.329235 506.872157 174.083852 486.643285 
C 152.838468 466.414414 135.830383 442.157711 124.053094 415.290092 
C 112.275804 388.422472 105.963182 359.477465 105.483967 330.145846 
C 105.004752 300.814227 110.368461 271.678455 121.261782 244.440446 
C 132.155103 217.202438 148.361719 192.403079 168.934949 171.490983 
C 189.508178 150.578886 214.039482 133.969319 241.095906 122.632501 
C 268.15233 111.295683 297.196595 105.456738 326.532129 105.456738 
z
" style="fill: #f4f5f5; stroke: #ffffff; stroke-linejoin: miter"/>
   </g>
   <g id="patch_9">
    <path d="M 334.556494 572.045145 
C 398.951691 569.940429 460.002264 542.582568 504.430898 495.921366 
C 548.859532 449.260165 573.193702 386.942645 572.141197 322.521659 
C 571.088692 258.100673 544.731776 196.61134 498.802568 151.426398 
C 452.873359 106.241456 390.961666 80.892542 326.532083 80.892554 
L 326.532087 105.456738 
C 384.518712 105.456728 440.239236 128.27075 481.575524 168.937198 
C 522.911812 209.603646 546.633036 264.944046 547.58029 322.922933 
C 548.527545 380.901821 526.626792 436.987589 486.641021 478.98267 
C 446.655251 520.977751 391.709734 545.599826 333.754057 547.494071 
z
" style="fill: #f5a6aa; stroke: #ffffff; stroke-linejoin: miter"/>
   </g>
   <g id="patch_10">
    <path d="M 326.532129 105.456738 
C 295.372032 105.456738 264.561114 112.044593 236.125559 124.787072 
C 207.690003 137.529551 182.267104 156.141071 161.528719 179.397705 
C 140.790334 202.654338 125.20125 230.03486 115.786634 259.738674 
C 106.372018 289.442489 103.34287 320.803879 106.898392 351.760459 
C 110.453914 382.71704 120.51442 412.575015 136.418312 439.37087 
C 152.322204 466.166725 173.713046 489.299912 199.184136 507.249151 
C 224.655226 525.19839 253.635709 537.561403 284.219774 543.525176 
C 314.803839 549.48895 346.306038 548.919823 376.654729 541.855224 
L 371.085552 517.930688 
C 344.108937 524.210332 316.106982 524.716222 288.921147 519.41509 
C 261.735311 514.113958 235.974882 503.124613 213.333913 487.169734 
C 190.692944 471.214855 171.678862 450.652022 157.542069 426.833484 
C 143.405276 403.014947 134.462604 376.474524 131.302141 348.957564 
C 128.141677 321.440603 130.834253 293.563813 139.2028 267.160422 
C 147.571348 240.757031 161.428311 216.41879 179.862431 195.746226 
C 198.296551 175.073663 220.894683 158.530089 246.170733 147.203441 
C 271.446783 135.876794 298.834265 130.020923 326.532129 130.020923 
z
" style="fill: #f4f5f5; stroke: #ffffff; stroke-linejoin: miter"/>
   </g>
   <g id="patch_11">
    <path d="M 376.654729 541.855224 
C 429.492085 529.555691 475.997095 498.227792 507.246886 453.882384 
C 538.496676 409.536976 552.356065 355.204016 546.165863 301.30832 
C 539.975662 247.412624 514.158823 197.636686 473.668801 161.530969 
C 433.178779 125.425253 380.782107 105.456728 326.532087 105.456738 
L 326.532092 130.020923 
C 374.754332 130.020914 421.329151 147.770714 457.320282 179.864684 
C 493.311412 211.958654 516.259714 256.203933 521.762115 304.111218 
C 527.264517 352.018503 514.94506 400.314468 487.167468 439.732608 
C 459.389877 479.150749 418.052089 506.99777 371.085552 517.930688 
z
" style="fill: #f5acaf; stroke: #ffffff; stroke-linejoin: miter"/>
   </g>
   <g id="patch_12">
    <path d="M 326.532129 130.020923 
C 298.381666 130.020923 270.55708 136.069734 244.947263 147.756727 
C 219.337446 159.443721 196.535329 176.498314 178.08885 197.762743 
C 159.642371 219.027173 145.978612 244.009114 138.025148 271.01265 
C 130.071683 298.016186 128.012656 326.416117 131.987844 354.284494 
C 135.963032 382.152871 145.880399 408.844471 161.066699 432.547316 
C 176.252999 456.25016 196.356631 476.415469 220.012844 491.674306 
C 243.669058 506.933143 270.330153 516.932228 298.186222 520.992766 
C 326.042291 525.053304 354.448397 523.081283 381.476169 515.210575 
L 374.608164 491.626053 
C 350.958863 498.512922 326.103521 500.238441 301.72946 496.68547 
C 277.3554 493.1325 254.026942 484.383301 233.327755 471.031818 
C 212.628568 457.680336 195.037891 440.03569 181.749878 419.295701 
C 168.461866 398.555712 159.784169 375.200562 156.305879 350.815732 
C 152.82759 326.430903 154.629239 301.580963 161.58852 277.952869 
C 168.547802 254.324775 180.503591 232.465576 196.64426 213.8592 
C 212.784929 195.252825 232.736781 180.330056 255.145371 170.103936 
C 277.553961 159.877817 301.900474 154.585108 326.532129 154.585108 
z
" style="fill: #f4f5f5; stroke: #ffffff; stroke-linejoin: miter"/>
   </g>
   <g id="patch_13">
    <path d="M 381.476169 515.210575 
C 426.88837 501.986172 466.03406 472.800974 491.672035 433.053684 
C 517.31001 393.306395 527.755545 345.608893 521.076414 298.784306 
C 514.397283 251.959718 491.032387 209.084988 455.303786 178.091121 
C 419.575184 147.097254 373.830678 130.020923 326.532129 130.020923 
L 326.532129 154.585108 
C 367.91836 154.585108 407.944802 169.526897 439.207328 196.646531 
C 470.469855 223.766165 490.914139 261.281554 496.758378 302.253068 
C 502.602618 343.224582 493.462775 384.959896 471.029547 419.738774 
C 448.596319 454.517652 414.34384 480.0547 374.608164 491.626053 
z
" style="fill: #f6aeb1; stroke: #ffffff; stroke-linejoin: miter"/>
   </g>
   <g id="patch_14">
    <path d="M 326.532129 154.585108 
C 297.639541 154.585108 269.20765 161.867327 243.872502 175.756599 
C 218.537353 189.645871 197.106894 209.699263 181.568034 234.057536 
C 166.029174 258.415809 156.877455 286.302171 154.961371 315.131154 
C 153.045286 343.960136 158.425943 372.812375 170.604475 399.012851 
C 182.783008 425.213328 201.371038 447.926501 224.64519 465.046533 
C 247.919342 482.166564 275.137395 493.147491 303.775843 496.971223 
C 332.414291 500.794955 361.559845 497.339552 388.510293 486.92538 
C 415.460741 476.511207 439.356624 459.470377 457.98245 437.382819 
L 439.203833 421.547331 
C 423.238839 440.479524 402.756653 455.085949 379.656269 464.012383 
C 356.555885 472.938816 331.573982 475.90059 307.026741 472.623105 
C 282.4795 469.345621 259.14974 459.933398 239.200467 445.259085 
C 219.251194 430.584772 203.318596 411.116338 192.879854 388.658787 
C 182.441112 366.201235 177.829121 341.470746 179.471479 316.760189 
C 181.113837 292.049632 188.958168 268.147037 202.27719 247.268517 
C 215.596213 226.389997 233.965178 209.201376 255.68102 197.296285 
C 277.396862 185.391195 301.767054 179.149292 326.532129 179.149292 
z
" style="fill: #f4f5f5; stroke: #ffffff; stroke-linejoin: miter"/>
   </g>
   <g id="patch_15">
    <path d="M 457.98245 437.382819 
C 479.103857 412.335861 492.632897 381.766255 496.968952 349.290686 
C 501.305006 316.815117 496.270055 283.766895 482.459783 254.055949 
C 468.64951 224.345003 446.630908 199.191138 419.008993 181.570305 
C 391.387078 163.949472 359.295888 154.585108 326.532129 154.585108 
L 326.532129 179.149292 
C 354.615351 179.149292 382.122085 187.175891 405.798012 202.279462 
C 429.473939 217.383033 448.347027 238.943488 460.184403 264.410013 
C 472.02178 289.876538 476.337452 318.203586 472.620834 346.039788 
C 468.904216 373.87599 457.307896 400.07851 439.203833 421.547331 
z
" style="fill: #f7bec1; stroke: #ffffff; stroke-linejoin: miter"/>
   </g>
   <g id="patch_16">
    <path d="M 326.532129 179.149292 
C 301.653406 179.149292 277.175043 185.448614 255.386844 197.457995 
C 233.598645 209.467375 215.20186 226.800293 201.9174 247.835358 
C 188.632939 268.870422 180.888362 292.930623 179.408126 317.765271 
C 177.92789 342.599919 182.759637 367.409714 193.451386 389.873849 
C 204.143135 412.337983 220.350773 431.733451 240.558172 446.245923 
C 260.765572 460.758395 284.32236 469.920788 309.024941 472.876015 
C 333.727521 475.831242 358.780843 472.48419 381.841319 463.147955 
C 404.901795 453.81172 425.227226 438.786788 440.916289 419.478651 
L 421.852262 403.987943 
C 408.778043 420.078057 391.840184 432.598833 372.623121 440.379029 
C 353.406058 448.159225 332.528289 450.948435 311.942805 448.485746 
C 291.357322 446.023057 271.726665 438.387729 254.887165 426.294003 
C 238.047665 414.200276 224.5413 398.037386 215.631509 379.317274 
C 206.721719 360.597162 202.695263 339.922332 203.928793 319.226792 
C 205.162323 298.531252 211.616137 278.481085 222.686521 260.951865 
C 233.756905 243.422644 249.087559 228.978546 267.244391 218.970729 
C 285.401224 208.962912 305.79986 203.713477 326.532129 203.713477 
z
" style="fill: #f4f5f5; stroke: #ffffff; stroke-linejoin: miter"/>
   </g>
   <g id="patch_17">
    <path d="M 440.916289 419.478651 
C 458.482263 397.860648 469.564978 371.699382 472.873744 344.041588 
C 476.18251 316.383794 471.583694 288.34651 459.612872 263.194951 
C 447.64205 238.043393 428.782698 216.793375 405.231171 201.919671 
C 381.679644 187.045967 354.387137 179.149292 326.532129 179.149292 
L 326.532129 203.713477 
C 349.744636 203.713477 372.488392 210.294039 392.114664 222.688792 
C 411.740936 235.083546 427.457063 252.791894 437.432748 273.751526 
C 447.408433 294.711158 451.24078 318.075562 448.483475 341.123723 
C 445.72617 364.171885 436.490574 385.97294 421.852262 403.987943 
z
" style="fill: #f8c0c2; stroke: #ffffff; stroke-linejoin: miter"/>
   </g>
   <g id="patch_18">
    <path d="M 326.532129 203.713477 
C 303.391745 203.713477 280.715742 210.25321 261.129129 222.575626 
C 241.542516 234.898041 225.83142 252.508569 215.814581 273.368585 
C 205.797743 294.228602 201.877198 317.500872 204.506794 340.491361 
C 207.13639 363.481849 216.210586 385.267812 230.678939 403.327272 
C 245.147293 421.386732 264.429102 434.994856 286.292276 442.576347 
C 308.155449 450.157837 331.722488 451.408403 354.265234 446.183278 
C 376.80798 440.958153 397.421661 429.467052 413.720003 413.040202 
C 430.018345 396.613352 441.3472 375.910061 446.395122 353.326974 
L 422.422523 347.968459 
C 418.384186 366.034929 409.321102 382.597562 396.282428 395.739042 
C 383.243754 408.880521 366.75281 418.073402 348.718613 422.253502 
C 330.684416 426.433603 311.830785 425.433149 294.340246 419.367957 
C 276.849708 413.302765 261.42426 402.416266 249.849577 387.968698 
C 238.274895 373.52113 231.015538 356.092359 228.911861 337.699968 
C 226.808184 319.307578 229.94462 300.689762 237.958091 284.001748 
C 245.971562 267.313735 258.540439 253.225313 274.209729 243.36738 
C 289.87902 233.509448 308.019822 228.277662 326.532129 228.277662 
z
" style="fill: #f4f5f5; stroke: #ffffff; stroke-linejoin: miter"/>
   </g>
   <g id="patch_19">
    <path d="M 446.395122 353.326974 
C 450.40988 335.365995 450.3367 316.730196 446.181008 298.8013 
C 442.025317 280.872405 433.892422 264.104746 422.385325 249.741537 
C 410.878229 235.378327 396.28853 223.783542 379.697959 215.81686 
C 363.107388 207.850178 344.936365 203.71348 326.532152 203.713477 
L 326.532147 228.277662 
C 341.255518 228.277664 355.792337 231.587022 369.064793 237.960368 
C 382.337249 244.333714 394.009009 253.609542 403.214686 265.100109 
C 412.420363 276.590677 418.926679 290.004804 422.251232 304.34792 
C 425.575786 318.691036 425.634329 333.599676 422.422523 347.968459 
z
" style="fill: #f9cccf; stroke: #ffffff; stroke-linejoin: miter"/>
   </g>
   <g id="patch_20">
    <path d="M 326.532129 228.277662 
C 307.943764 228.277662 289.731517 233.552526 274.020435 243.486771 
C 258.309353 253.421016 245.735235 267.612622 237.765257 284.405679 
C 229.795279 301.198736 226.751972 319.913661 228.990435 338.366753 
C 231.228898 356.819845 238.658546 374.264342 250.412469 388.664779 
C 262.166392 403.065217 277.768932 413.838837 295.399548 419.728547 
C 313.030164 425.618258 331.975379 426.385714 350.02462 421.941368 
C 368.073861 417.497021 384.49671 408.020726 397.37691 394.618198 
C 410.257111 381.215671 419.073426 364.429286 422.797147 346.217717 
L 398.730892 341.296888 
C 395.938101 354.955564 389.325865 367.545353 379.665715 377.597249 
C 370.005564 387.649145 357.688428 394.756366 344.151497 398.089626 
C 330.614566 401.422886 316.405655 400.847294 303.182694 396.43001 
C 289.959732 392.012727 278.257826 383.932513 269.442384 373.132185 
C 260.626941 362.331856 255.054706 349.248484 253.375858 335.408665 
C 251.697011 321.568846 253.979491 307.532652 259.956975 294.937859 
C 265.934458 282.343067 275.365047 271.699362 287.148359 264.248678 
C 298.93167 256.797994 312.590855 252.841846 326.532129 252.841846 
z
" style="fill: #f4f5f5; stroke: #ffffff; stroke-linejoin: miter"/>
   </g>
   <g id="patch_21">
    <path d="M 422.797147 346.217717 
C 425.716356 331.94077 425.423239 317.191596 421.939096 303.041905 
C 418.454952 288.892213 411.866265 275.693227 402.651783 264.404014 
C 393.437301 253.1148 381.825745 244.01558 368.660837 237.767522 
C 355.495929 231.519465 341.104448 228.277659 326.53211 228.277662 
L 326.532115 252.841846 
C 337.461368 252.841844 348.254979 255.273198 358.12866 259.959242 
C 368.002341 264.645285 376.711008 271.4697 383.621869 279.93661 
C 390.532731 288.40352 395.474246 298.30276 398.087354 308.915028 
C 400.700462 319.527297 400.920299 330.589177 398.730892 341.296888 
z
" style="fill: #f9cccf; stroke: #ffffff; stroke-linejoin: miter"/>
   </g>
   <g id="matplotlib.axis_1"/>
   <g id="matplotlib.axis_2"/>
   <g id="text_1">
    <!-- AUPRC_0 on generalized models -->
    <g transform="translate(190.570254 94.3392) scale(0.168 -0.168)">
     <defs>
      <path id="DejaVuSans-41" d="M 2188 4044 
L 1331 1722 
L 3047 1722 
L 2188 4044 
z
M 1831 4666 
L 2547 4666 
L 4325 0 
L 3669 0 
L 3244 1197 
L 1141 1197 
L 716 0 
L 50 0 
L 1831 4666 
z
" transform="scale(0.015625)"/>
      <path id="DejaVuSans-55" d="M 556 4666 
L 1191 4666 
L 1191 1831 
Q 1191 1081 1462 751 
Q 1734 422 2344 422 
Q 2950 422 3222 751 
Q 3494 1081 3494 1831 
L 3494 4666 
L 4128 4666 
L 4128 1753 
Q 4128 841 3676 375 
Q 3225 -91 2344 -91 
Q 1459 -91 1007 375 
Q 556 841 556 1753 
L 556 4666 
z
" transform="scale(0.015625)"/>
      <path id="DejaVuSans-50" d="M 1259 4147 
L 1259 2394 
L 2053 2394 
Q 2494 2394 2734 2622 
Q 2975 2850 2975 3272 
Q 2975 3691 2734 3919 
Q 2494 4147 2053 4147 
L 1259 4147 
z
M 628 4666 
L 2053 4666 
Q 2838 4666 3239 4311 
Q 3641 3956 3641 3272 
Q 3641 2581 3239 2228 
Q 2838 1875 2053 1875 
L 1259 1875 
L 1259 0 
L 628 0 
L 628 4666 
z
" transform="scale(0.015625)"/>
      <path id="DejaVuSans-52" d="M 2841 2188 
Q 3044 2119 3236 1894 
Q 3428 1669 3622 1275 
L 4263 0 
L 3584 0 
L 2988 1197 
Q 2756 1666 2539 1819 
Q 2322 1972 1947 1972 
L 1259 1972 
L 1259 0 
L 628 0 
L 628 4666 
L 2053 4666 
Q 2853 4666 3247 4331 
Q 3641 3997 3641 3322 
Q 3641 2881 3436 2590 
Q 3231 2300 2841 2188 
z
M 1259 4147 
L 1259 2491 
L 2053 2491 
Q 2509 2491 2742 2702 
Q 2975 2913 2975 3322 
Q 2975 3731 2742 3939 
Q 2509 4147 2053 4147 
L 1259 4147 
z
" transform="scale(0.015625)"/>
      <path id="DejaVuSans-43" d="M 4122 4306 
L 4122 3641 
Q 3803 3938 3442 4084 
Q 3081 4231 2675 4231 
Q 1875 4231 1450 3742 
Q 1025 3253 1025 2328 
Q 1025 1406 1450 917 
Q 1875 428 2675 428 
Q 3081 428 3442 575 
Q 3803 722 4122 1019 
L 4122 359 
Q 3791 134 3420 21 
Q 3050 -91 2638 -91 
Q 1578 -91 968 557 
Q 359 1206 359 2328 
Q 359 3453 968 4101 
Q 1578 4750 2638 4750 
Q 3056 4750 3426 4639 
Q 3797 4528 4122 4306 
z
" transform="scale(0.015625)"/>
      <path id="DejaVuSans-5f" d="M 3263 -1063 
L 3263 -1509 
L -63 -1509 
L -63 -1063 
L 3263 -1063 
z
" transform="scale(0.015625)"/>
      <path id="DejaVuSans-30" d="M 2034 4250 
Q 1547 4250 1301 3770 
Q 1056 3291 1056 2328 
Q 1056 1369 1301 889 
Q 1547 409 2034 409 
Q 2525 409 2770 889 
Q 3016 1369 3016 2328 
Q 3016 3291 2770 3770 
Q 2525 4250 2034 4250 
z
M 2034 4750 
Q 2819 4750 3233 4129 
Q 3647 3509 3647 2328 
Q 3647 1150 3233 529 
Q 2819 -91 2034 -91 
Q 1250 -91 836 529 
Q 422 1150 422 2328 
Q 422 3509 836 4129 
Q 1250 4750 2034 4750 
z
" transform="scale(0.015625)"/>
      <path id="DejaVuSans-20" transform="scale(0.015625)"/>
      <path id="DejaVuSans-6f" d="M 1959 3097 
Q 1497 3097 1228 2736 
Q 959 2375 959 1747 
Q 959 1119 1226 758 
Q 1494 397 1959 397 
Q 2419 397 2687 759 
Q 2956 1122 2956 1747 
Q 2956 2369 2687 2733 
Q 2419 3097 1959 3097 
z
M 1959 3584 
Q 2709 3584 3137 3096 
Q 3566 2609 3566 1747 
Q 3566 888 3137 398 
Q 2709 -91 1959 -91 
Q 1206 -91 779 398 
Q 353 888 353 1747 
Q 353 2609 779 3096 
Q 1206 3584 1959 3584 
z
" transform="scale(0.015625)"/>
      <path id="DejaVuSans-6e" d="M 3513 2113 
L 3513 0 
L 2938 0 
L 2938 2094 
Q 2938 2591 2744 2837 
Q 2550 3084 2163 3084 
Q 1697 3084 1428 2787 
Q 1159 2491 1159 1978 
L 1159 0 
L 581 0 
L 581 3500 
L 1159 3500 
L 1159 2956 
Q 1366 3272 1645 3428 
Q 1925 3584 2291 3584 
Q 2894 3584 3203 3211 
Q 3513 2838 3513 2113 
z
" transform="scale(0.015625)"/>
      <path id="DejaVuSans-67" d="M 2906 1791 
Q 2906 2416 2648 2759 
Q 2391 3103 1925 3103 
Q 1463 3103 1205 2759 
Q 947 2416 947 1791 
Q 947 1169 1205 825 
Q 1463 481 1925 481 
Q 2391 481 2648 825 
Q 2906 1169 2906 1791 
z
M 3481 434 
Q 3481 -459 3084 -895 
Q 2688 -1331 1869 -1331 
Q 1566 -1331 1297 -1286 
Q 1028 -1241 775 -1147 
L 775 -588 
Q 1028 -725 1275 -790 
Q 1522 -856 1778 -856 
Q 2344 -856 2625 -561 
Q 2906 -266 2906 331 
L 2906 616 
Q 2728 306 2450 153 
Q 2172 0 1784 0 
Q 1141 0 747 490 
Q 353 981 353 1791 
Q 353 2603 747 3093 
Q 1141 3584 1784 3584 
Q 2172 3584 2450 3431 
Q 2728 3278 2906 2969 
L 2906 3500 
L 3481 3500 
L 3481 434 
z
" transform="scale(0.015625)"/>
      <path id="DejaVuSans-65" d="M 3597 1894 
L 3597 1613 
L 953 1613 
Q 991 1019 1311 708 
Q 1631 397 2203 397 
Q 2534 397 2845 478 
Q 3156 559 3463 722 
L 3463 178 
Q 3153 47 2828 -22 
Q 2503 -91 2169 -91 
Q 1331 -91 842 396 
Q 353 884 353 1716 
Q 353 2575 817 3079 
Q 1281 3584 2069 3584 
Q 2775 3584 3186 3129 
Q 3597 2675 3597 1894 
z
M 3022 2063 
Q 3016 2534 2758 2815 
Q 2500 3097 2075 3097 
Q 1594 3097 1305 2825 
Q 1016 2553 972 2059 
L 3022 2063 
z
" transform="scale(0.015625)"/>
      <path id="DejaVuSans-72" d="M 2631 2963 
Q 2534 3019 2420 3045 
Q 2306 3072 2169 3072 
Q 1681 3072 1420 2755 
Q 1159 2438 1159 1844 
L 1159 0 
L 581 0 
L 581 3500 
L 1159 3500 
L 1159 2956 
Q 1341 3275 1631 3429 
Q 1922 3584 2338 3584 
Q 2397 3584 2469 3576 
Q 2541 3569 2628 3553 
L 2631 2963 
z
" transform="scale(0.015625)"/>
      <path id="DejaVuSans-61" d="M 2194 1759 
Q 1497 1759 1228 1600 
Q 959 1441 959 1056 
Q 959 750 1161 570 
Q 1363 391 1709 391 
Q 2188 391 2477 730 
Q 2766 1069 2766 1631 
L 2766 1759 
L 2194 1759 
z
M 3341 1997 
L 3341 0 
L 2766 0 
L 2766 531 
Q 2569 213 2275 61 
Q 1981 -91 1556 -91 
Q 1019 -91 701 211 
Q 384 513 384 1019 
Q 384 1609 779 1909 
Q 1175 2209 1959 2209 
L 2766 2209 
L 2766 2266 
Q 2766 2663 2505 2880 
Q 2244 3097 1772 3097 
Q 1472 3097 1187 3025 
Q 903 2953 641 2809 
L 641 3341 
Q 956 3463 1253 3523 
Q 1550 3584 1831 3584 
Q 2591 3584 2966 3190 
Q 3341 2797 3341 1997 
z
" transform="scale(0.015625)"/>
      <path id="DejaVuSans-6c" d="M 603 4863 
L 1178 4863 
L 1178 0 
L 603 0 
L 603 4863 
z
" transform="scale(0.015625)"/>
      <path id="DejaVuSans-69" d="M 603 3500 
L 1178 3500 
L 1178 0 
L 603 0 
L 603 3500 
z
M 603 4863 
L 1178 4863 
L 1178 4134 
L 603 4134 
L 603 4863 
z
" transform="scale(0.015625)"/>
      <path id="DejaVuSans-7a" d="M 353 3500 
L 3084 3500 
L 3084 2975 
L 922 459 
L 3084 459 
L 3084 0 
L 275 0 
L 275 525 
L 2438 3041 
L 353 3041 
L 353 3500 
z
" transform="scale(0.015625)"/>
      <path id="DejaVuSans-64" d="M 2906 2969 
L 2906 4863 
L 3481 4863 
L 3481 0 
L 2906 0 
L 2906 525 
Q 2725 213 2448 61 
Q 2172 -91 1784 -91 
Q 1150 -91 751 415 
Q 353 922 353 1747 
Q 353 2572 751 3078 
Q 1150 3584 1784 3584 
Q 2172 3584 2448 3432 
Q 2725 3281 2906 2969 
z
M 947 1747 
Q 947 1113 1208 752 
Q 1469 391 1925 391 
Q 2381 391 2643 752 
Q 2906 1113 2906 1747 
Q 2906 2381 2643 2742 
Q 2381 3103 1925 3103 
Q 1469 3103 1208 2742 
Q 947 2381 947 1747 
z
" transform="scale(0.015625)"/>
      <path id="DejaVuSans-6d" d="M 3328 2828 
Q 3544 3216 3844 3400 
Q 4144 3584 4550 3584 
Q 5097 3584 5394 3201 
Q 5691 2819 5691 2113 
L 5691 0 
L 5113 0 
L 5113 2094 
Q 5113 2597 4934 2840 
Q 4756 3084 4391 3084 
Q 3944 3084 3684 2787 
Q 3425 2491 3425 1978 
L 3425 0 
L 2847 0 
L 2847 2094 
Q 2847 2600 2669 2842 
Q 2491 3084 2119 3084 
Q 1678 3084 1418 2786 
Q 1159 2488 1159 1978 
L 1159 0 
L 581 0 
L 581 3500 
L 1159 3500 
L 1159 2956 
Q 1356 3278 1631 3431 
Q 1906 3584 2284 3584 
Q 2666 3584 2933 3390 
Q 3200 3197 3328 2828 
z
" transform="scale(0.015625)"/>
      <path id="DejaVuSans-73" d="M 2834 3397 
L 2834 2853 
Q 2591 2978 2328 3040 
Q 2066 3103 1784 3103 
Q 1356 3103 1142 2972 
Q 928 2841 928 2578 
Q 928 2378 1081 2264 
Q 1234 2150 1697 2047 
L 1894 2003 
Q 2506 1872 2764 1633 
Q 3022 1394 3022 966 
Q 3022 478 2636 193 
Q 2250 -91 1575 -91 
Q 1294 -91 989 -36 
Q 684 19 347 128 
L 347 722 
Q 666 556 975 473 
Q 1284 391 1588 391 
Q 1994 391 2212 530 
Q 2431 669 2431 922 
Q 2431 1156 2273 1281 
Q 2116 1406 1581 1522 
L 1381 1569 
Q 847 1681 609 1914 
Q 372 2147 372 2553 
Q 372 3047 722 3315 
Q 1072 3584 1716 3584 
Q 2034 3584 2315 3537 
Q 2597 3491 2834 3397 
z
" transform="scale(0.015625)"/>
     </defs>
     <use xlink:href="#DejaVuSans-41"/>
     <use xlink:href="#DejaVuSans-55" x="68.408203"/>
     <use xlink:href="#DejaVuSans-50" x="141.601562"/>
     <use xlink:href="#DejaVuSans-52" x="201.904297"/>
     <use xlink:href="#DejaVuSans-43" x="266.386719"/>
     <use xlink:href="#DejaVuSans-5f" x="336.210938"/>
     <use xlink:href="#DejaVuSans-30" x="386.210938"/>
     <use xlink:href="#DejaVuSans-20" x="449.833984"/>
     <use xlink:href="#DejaVuSans-6f" x="481.621094"/>
     <use xlink:href="#DejaVuSans-6e" x="542.802734"/>
     <use xlink:href="#DejaVuSans-20" x="606.181641"/>
     <use xlink:href="#DejaVuSans-67" x="637.96875"/>
     <use xlink:href="#DejaVuSans-65" x="701.445312"/>
     <use xlink:href="#DejaVuSans-6e" x="762.96875"/>
     <use xlink:href="#DejaVuSans-65" x="826.347656"/>
     <use xlink:href="#DejaVuSans-72" x="887.871094"/>
     <use xlink:href="#DejaVuSans-61" x="928.984375"/>
     <use xlink:href="#DejaVuSans-6c" x="990.263672"/>
     <use xlink:href="#DejaVuSans-69" x="1018.046875"/>
     <use xlink:href="#DejaVuSans-7a" x="1045.830078"/>
     <use xlink:href="#DejaVuSans-65" x="1098.320312"/>
     <use xlink:href="#DejaVuSans-64" x="1159.84375"/>
     <use xlink:href="#DejaVuSans-20" x="1223.320312"/>
     <use xlink:href="#DejaVuSans-6d" x="1255.107422"/>
     <use xlink:href="#DejaVuSans-6f" x="1352.519531"/>
     <use xlink:href="#DejaVuSans-64" x="1413.701172"/>
     <use xlink:href="#DejaVuSans-65" x="1477.177734"/>
     <use xlink:href="#DejaVuSans-6c" x="1538.701172"/>
     <use xlink:href="#DejaVuSans-73" x="1566.484375"/>
    </g>
   </g>
   <g id="legend_1">
    <g id="patch_22">
     <path d="M 595.444129 326.5344 
L 888.986941 326.5344 
Q 891.786941 326.5344 891.786941 323.7344 
L 891.786941 97.1444 
Q 891.786941 94.3444 888.986941 94.3444 
L 595.444129 94.3444 
Q 592.644129 94.3444 592.644129 97.1444 
L 592.644129 323.7344 
Q 592.644129 326.5344 595.444129 326.5344 
z
" style="fill: #ffffff; opacity: 0.8; stroke: #cccccc; stroke-linejoin: miter"/>
    </g>
    <g id="text_2">
     <!-- Models -->
     <g transform="translate(717.550379 110.582212) scale(0.14 -0.14)">
      <defs>
       <path id="DejaVuSans-4d" d="M 628 4666 
L 1569 4666 
L 2759 1491 
L 3956 4666 
L 4897 4666 
L 4897 0 
L 4281 0 
L 4281 4097 
L 3078 897 
L 2444 897 
L 1241 4097 
L 1241 0 
L 628 0 
L 628 4666 
z
" transform="scale(0.015625)"/>
      </defs>
      <use xlink:href="#DejaVuSans-4d"/>
      <use xlink:href="#DejaVuSans-6f" x="86.279297"/>
      <use xlink:href="#DejaVuSans-64" x="147.460938"/>
      <use xlink:href="#DejaVuSans-65" x="210.9375"/>
      <use xlink:href="#DejaVuSans-6c" x="272.460938"/>
      <use xlink:href="#DejaVuSans-73" x="300.244141"/>
     </g>
    </g>
    <g id="patch_23">
     <path d="M 598.244129 131.131588 
L 626.244129 131.131588 
L 626.244129 121.331588 
L 598.244129 121.331588 
z
" style="fill: #f39a9e; stroke: #ffffff; stroke-linejoin: miter"/>
    </g>
    <g id="text_3">
     <!-- xgboost (56.29%) -->
     <g transform="translate(637.444129 131.131588) scale(0.14 -0.14)">
      <defs>
       <path id="DejaVuSans-78" d="M 3513 3500 
L 2247 1797 
L 3578 0 
L 2900 0 
L 1881 1375 
L 863 0 
L 184 0 
L 1544 1831 
L 300 3500 
L 978 3500 
L 1906 2253 
L 2834 3500 
L 3513 3500 
z
" transform="scale(0.015625)"/>
       <path id="DejaVuSans-62" d="M 3116 1747 
Q 3116 2381 2855 2742 
Q 2594 3103 2138 3103 
Q 1681 3103 1420 2742 
Q 1159 2381 1159 1747 
Q 1159 1113 1420 752 
Q 1681 391 2138 391 
Q 2594 391 2855 752 
Q 3116 1113 3116 1747 
z
M 1159 2969 
Q 1341 3281 1617 3432 
Q 1894 3584 2278 3584 
Q 2916 3584 3314 3078 
Q 3713 2572 3713 1747 
Q 3713 922 3314 415 
Q 2916 -91 2278 -91 
Q 1894 -91 1617 61 
Q 1341 213 1159 525 
L 1159 0 
L 581 0 
L 581 4863 
L 1159 4863 
L 1159 2969 
z
" transform="scale(0.015625)"/>
       <path id="DejaVuSans-74" d="M 1172 4494 
L 1172 3500 
L 2356 3500 
L 2356 3053 
L 1172 3053 
L 1172 1153 
Q 1172 725 1289 603 
Q 1406 481 1766 481 
L 2356 481 
L 2356 0 
L 1766 0 
Q 1100 0 847 248 
Q 594 497 594 1153 
L 594 3053 
L 172 3053 
L 172 3500 
L 594 3500 
L 594 4494 
L 1172 4494 
z
" transform="scale(0.015625)"/>
       <path id="DejaVuSans-28" d="M 1984 4856 
Q 1566 4138 1362 3434 
Q 1159 2731 1159 2009 
Q 1159 1288 1364 580 
Q 1569 -128 1984 -844 
L 1484 -844 
Q 1016 -109 783 600 
Q 550 1309 550 2009 
Q 550 2706 781 3412 
Q 1013 4119 1484 4856 
L 1984 4856 
z
" transform="scale(0.015625)"/>
       <path id="DejaVuSans-35" d="M 691 4666 
L 3169 4666 
L 3169 4134 
L 1269 4134 
L 1269 2991 
Q 1406 3038 1543 3061 
Q 1681 3084 1819 3084 
Q 2600 3084 3056 2656 
Q 3513 2228 3513 1497 
Q 3513 744 3044 326 
Q 2575 -91 1722 -91 
Q 1428 -91 1123 -41 
Q 819 9 494 109 
L 494 744 
Q 775 591 1075 516 
Q 1375 441 1709 441 
Q 2250 441 2565 725 
Q 2881 1009 2881 1497 
Q 2881 1984 2565 2268 
Q 2250 2553 1709 2553 
Q 1456 2553 1204 2497 
Q 953 2441 691 2322 
L 691 4666 
z
" transform="scale(0.015625)"/>
       <path id="DejaVuSans-36" d="M 2113 2584 
Q 1688 2584 1439 2293 
Q 1191 2003 1191 1497 
Q 1191 994 1439 701 
Q 1688 409 2113 409 
Q 2538 409 2786 701 
Q 3034 994 3034 1497 
Q 3034 2003 2786 2293 
Q 2538 2584 2113 2584 
z
M 3366 4563 
L 3366 3988 
Q 3128 4100 2886 4159 
Q 2644 4219 2406 4219 
Q 1781 4219 1451 3797 
Q 1122 3375 1075 2522 
Q 1259 2794 1537 2939 
Q 1816 3084 2150 3084 
Q 2853 3084 3261 2657 
Q 3669 2231 3669 1497 
Q 3669 778 3244 343 
Q 2819 -91 2113 -91 
Q 1303 -91 875 529 
Q 447 1150 447 2328 
Q 447 3434 972 4092 
Q 1497 4750 2381 4750 
Q 2619 4750 2861 4703 
Q 3103 4656 3366 4563 
z
" transform="scale(0.015625)"/>
       <path id="DejaVuSans-2e" d="M 684 794 
L 1344 794 
L 1344 0 
L 684 0 
L 684 794 
z
" transform="scale(0.015625)"/>
       <path id="DejaVuSans-32" d="M 1228 531 
L 3431 531 
L 3431 0 
L 469 0 
L 469 531 
Q 828 903 1448 1529 
Q 2069 2156 2228 2338 
Q 2531 2678 2651 2914 
Q 2772 3150 2772 3378 
Q 2772 3750 2511 3984 
Q 2250 4219 1831 4219 
Q 1534 4219 1204 4116 
Q 875 4013 500 3803 
L 500 4441 
Q 881 4594 1212 4672 
Q 1544 4750 1819 4750 
Q 2544 4750 2975 4387 
Q 3406 4025 3406 3419 
Q 3406 3131 3298 2873 
Q 3191 2616 2906 2266 
Q 2828 2175 2409 1742 
Q 1991 1309 1228 531 
z
" transform="scale(0.015625)"/>
       <path id="DejaVuSans-39" d="M 703 97 
L 703 672 
Q 941 559 1184 500 
Q 1428 441 1663 441 
Q 2288 441 2617 861 
Q 2947 1281 2994 2138 
Q 2813 1869 2534 1725 
Q 2256 1581 1919 1581 
Q 1219 1581 811 2004 
Q 403 2428 403 3163 
Q 403 3881 828 4315 
Q 1253 4750 1959 4750 
Q 2769 4750 3195 4129 
Q 3622 3509 3622 2328 
Q 3622 1225 3098 567 
Q 2575 -91 1691 -91 
Q 1453 -91 1209 -44 
Q 966 3 703 97 
z
M 1959 2075 
Q 2384 2075 2632 2365 
Q 2881 2656 2881 3163 
Q 2881 3666 2632 3958 
Q 2384 4250 1959 4250 
Q 1534 4250 1286 3958 
Q 1038 3666 1038 3163 
Q 1038 2656 1286 2365 
Q 1534 2075 1959 2075 
z
" transform="scale(0.015625)"/>
       <path id="DejaVuSans-25" d="M 4653 2053 
Q 4381 2053 4226 1822 
Q 4072 1591 4072 1178 
Q 4072 772 4226 539 
Q 4381 306 4653 306 
Q 4919 306 5073 539 
Q 5228 772 5228 1178 
Q 5228 1588 5073 1820 
Q 4919 2053 4653 2053 
z
M 4653 2450 
Q 5147 2450 5437 2106 
Q 5728 1763 5728 1178 
Q 5728 594 5436 251 
Q 5144 -91 4653 -91 
Q 4153 -91 3862 251 
Q 3572 594 3572 1178 
Q 3572 1766 3864 2108 
Q 4156 2450 4653 2450 
z
M 1428 4353 
Q 1159 4353 1004 4120 
Q 850 3888 850 3481 
Q 850 3069 1003 2837 
Q 1156 2606 1428 2606 
Q 1700 2606 1854 2837 
Q 2009 3069 2009 3481 
Q 2009 3884 1853 4118 
Q 1697 4353 1428 4353 
z
M 4250 4750 
L 4750 4750 
L 1831 -91 
L 1331 -91 
L 4250 4750 
z
M 1428 4750 
Q 1922 4750 2215 4408 
Q 2509 4066 2509 3481 
Q 2509 2891 2217 2550 
Q 1925 2209 1428 2209 
Q 931 2209 642 2551 
Q 353 2894 353 3481 
Q 353 4063 643 4406 
Q 934 4750 1428 4750 
z
" transform="scale(0.015625)"/>
       <path id="DejaVuSans-29" d="M 513 4856 
L 1013 4856 
Q 1481 4119 1714 3412 
Q 1947 2706 1947 2009 
Q 1947 1309 1714 600 
Q 1481 -109 1013 -844 
L 513 -844 
Q 928 -128 1133 580 
Q 1338 1288 1338 2009 
Q 1338 2731 1133 3434 
Q 928 4138 513 4856 
z
" transform="scale(0.015625)"/>
      </defs>
      <use xlink:href="#DejaVuSans-78"/>
      <use xlink:href="#DejaVuSans-67" x="59.179688"/>
      <use xlink:href="#DejaVuSans-62" x="122.65625"/>
      <use xlink:href="#DejaVuSans-6f" x="186.132812"/>
      <use xlink:href="#DejaVuSans-6f" x="247.314453"/>
      <use xlink:href="#DejaVuSans-73" x="308.496094"/>
      <use xlink:href="#DejaVuSans-74" x="360.595703"/>
      <use xlink:href="#DejaVuSans-20" x="399.804688"/>
      <use xlink:href="#DejaVuSans-28" x="431.591797"/>
      <use xlink:href="#DejaVuSans-35" x="470.605469"/>
      <use xlink:href="#DejaVuSans-36" x="534.228516"/>
      <use xlink:href="#DejaVuSans-2e" x="597.851562"/>
      <use xlink:href="#DejaVuSans-32" x="629.638672"/>
      <use xlink:href="#DejaVuSans-39" x="693.261719"/>
      <use xlink:href="#DejaVuSans-25" x="756.884766"/>
      <use xlink:href="#DejaVuSans-29" x="851.904297"/>
     </g>
    </g>
    <g id="patch_24">
     <path d="M 598.244129 151.680963 
L 626.244129 151.680963 
L 626.244129 141.880963 
L 598.244129 141.880963 
z
" style="fill: #f49da2; stroke: #ffffff; stroke-linejoin: miter"/>
    </g>
    <g id="text_4">
     <!-- random_forest (54.43%) -->
     <g transform="translate(637.444129 151.680963) scale(0.14 -0.14)">
      <defs>
       <path id="DejaVuSans-66" d="M 2375 4863 
L 2375 4384 
L 1825 4384 
Q 1516 4384 1395 4259 
Q 1275 4134 1275 3809 
L 1275 3500 
L 2222 3500 
L 2222 3053 
L 1275 3053 
L 1275 0 
L 697 0 
L 697 3053 
L 147 3053 
L 147 3500 
L 697 3500 
L 697 3744 
Q 697 4328 969 4595 
Q 1241 4863 1831 4863 
L 2375 4863 
z
" transform="scale(0.015625)"/>
       <path id="DejaVuSans-34" d="M 2419 4116 
L 825 1625 
L 2419 1625 
L 2419 4116 
z
M 2253 4666 
L 3047 4666 
L 3047 1625 
L 3713 1625 
L 3713 1100 
L 3047 1100 
L 3047 0 
L 2419 0 
L 2419 1100 
L 313 1100 
L 313 1709 
L 2253 4666 
z
" transform="scale(0.015625)"/>
       <path id="DejaVuSans-33" d="M 2597 2516 
Q 3050 2419 3304 2112 
Q 3559 1806 3559 1356 
Q 3559 666 3084 287 
Q 2609 -91 1734 -91 
Q 1441 -91 1130 -33 
Q 819 25 488 141 
L 488 750 
Q 750 597 1062 519 
Q 1375 441 1716 441 
Q 2309 441 2620 675 
Q 2931 909 2931 1356 
Q 2931 1769 2642 2001 
Q 2353 2234 1838 2234 
L 1294 2234 
L 1294 2753 
L 1863 2753 
Q 2328 2753 2575 2939 
Q 2822 3125 2822 3475 
Q 2822 3834 2567 4026 
Q 2313 4219 1838 4219 
Q 1578 4219 1281 4162 
Q 984 4106 628 3988 
L 628 4550 
Q 988 4650 1302 4700 
Q 1616 4750 1894 4750 
Q 2613 4750 3031 4423 
Q 3450 4097 3450 3541 
Q 3450 3153 3228 2886 
Q 3006 2619 2597 2516 
z
" transform="scale(0.015625)"/>
      </defs>
      <use xlink:href="#DejaVuSans-72"/>
      <use xlink:href="#DejaVuSans-61" x="41.113281"/>
      <use xlink:href="#DejaVuSans-6e" x="102.392578"/>
      <use xlink:href="#DejaVuSans-64" x="165.771484"/>
      <use xlink:href="#DejaVuSans-6f" x="229.248047"/>
      <use xlink:href="#DejaVuSans-6d" x="290.429688"/>
      <use xlink:href="#DejaVuSans-5f" x="387.841797"/>
      <use xlink:href="#DejaVuSans-66" x="437.841797"/>
      <use xlink:href="#DejaVuSans-6f" x="473.046875"/>
      <use xlink:href="#DejaVuSans-72" x="534.228516"/>
      <use xlink:href="#DejaVuSans-65" x="573.091797"/>
      <use xlink:href="#DejaVuSans-73" x="634.615234"/>
      <use xlink:href="#DejaVuSans-74" x="686.714844"/>
      <use xlink:href="#DejaVuSans-20" x="725.923828"/>
      <use xlink:href="#DejaVuSans-28" x="757.710938"/>
      <use xlink:href="#DejaVuSans-35" x="796.724609"/>
      <use xlink:href="#DejaVuSans-34" x="860.347656"/>
      <use xlink:href="#DejaVuSans-2e" x="923.970703"/>
      <use xlink:href="#DejaVuSans-34" x="955.757812"/>
      <use xlink:href="#DejaVuSans-33" x="1019.380859"/>
      <use xlink:href="#DejaVuSans-25" x="1083.003906"/>
      <use xlink:href="#DejaVuSans-29" x="1178.023438"/>
     </g>
    </g>
    <g id="patch_25">
     <path d="M 598.244129 172.619712 
L 626.244129 172.619712 
L 626.244129 162.819712 
L 598.244129 162.819712 
z
" style="fill: #f4a1a5; stroke: #ffffff; stroke-linejoin: miter"/>
    </g>
    <g id="text_5">
     <!-- neural_network (52.12%) -->
     <g transform="translate(637.444129 172.619712) scale(0.14 -0.14)">
      <defs>
       <path id="DejaVuSans-75" d="M 544 1381 
L 544 3500 
L 1119 3500 
L 1119 1403 
Q 1119 906 1312 657 
Q 1506 409 1894 409 
Q 2359 409 2629 706 
Q 2900 1003 2900 1516 
L 2900 3500 
L 3475 3500 
L 3475 0 
L 2900 0 
L 2900 538 
Q 2691 219 2414 64 
Q 2138 -91 1772 -91 
Q 1169 -91 856 284 
Q 544 659 544 1381 
z
M 1991 3584 
L 1991 3584 
z
" transform="scale(0.015625)"/>
       <path id="DejaVuSans-77" d="M 269 3500 
L 844 3500 
L 1563 769 
L 2278 3500 
L 2956 3500 
L 3675 769 
L 4391 3500 
L 4966 3500 
L 4050 0 
L 3372 0 
L 2619 2869 
L 1863 0 
L 1184 0 
L 269 3500 
z
" transform="scale(0.015625)"/>
       <path id="DejaVuSans-6b" d="M 581 4863 
L 1159 4863 
L 1159 1991 
L 2875 3500 
L 3609 3500 
L 1753 1863 
L 3688 0 
L 2938 0 
L 1159 1709 
L 1159 0 
L 581 0 
L 581 4863 
z
" transform="scale(0.015625)"/>
       <path id="DejaVuSans-31" d="M 794 531 
L 1825 531 
L 1825 4091 
L 703 3866 
L 703 4441 
L 1819 4666 
L 2450 4666 
L 2450 531 
L 3481 531 
L 3481 0 
L 794 0 
L 794 531 
z
" transform="scale(0.015625)"/>
      </defs>
      <use xlink:href="#DejaVuSans-6e"/>
      <use xlink:href="#DejaVuSans-65" x="63.378906"/>
      <use xlink:href="#DejaVuSans-75" x="124.902344"/>
      <use xlink:href="#DejaVuSans-72" x="188.28125"/>
      <use xlink:href="#DejaVuSans-61" x="229.394531"/>
      <use xlink:href="#DejaVuSans-6c" x="290.673828"/>
      <use xlink:href="#DejaVuSans-5f" x="318.457031"/>
      <use xlink:href="#DejaVuSans-6e" x="368.457031"/>
      <use xlink:href="#DejaVuSans-65" x="431.835938"/>
      <use xlink:href="#DejaVuSans-74" x="493.359375"/>
      <use xlink:href="#DejaVuSans-77" x="532.568359"/>
      <use xlink:href="#DejaVuSans-6f" x="614.355469"/>
      <use xlink:href="#DejaVuSans-72" x="675.537109"/>
      <use xlink:href="#DejaVuSans-6b" x="716.650391"/>
      <use xlink:href="#DejaVuSans-20" x="774.560547"/>
      <use xlink:href="#DejaVuSans-28" x="806.347656"/>
      <use xlink:href="#DejaVuSans-35" x="845.361328"/>
      <use xlink:href="#DejaVuSans-32" x="908.984375"/>
      <use xlink:href="#DejaVuSans-2e" x="972.607422"/>
      <use xlink:href="#DejaVuSans-31" x="1004.394531"/>
      <use xlink:href="#DejaVuSans-32" x="1068.017578"/>
      <use xlink:href="#DejaVuSans-25" x="1131.640625"/>
      <use xlink:href="#DejaVuSans-29" x="1226.660156"/>
     </g>
    </g>
    <g id="patch_26">
     <path d="M 598.244129 193.558463 
L 626.244129 193.558463 
L 626.244129 183.758463 
L 598.244129 183.758463 
z
" style="fill: #f5a6aa; stroke: #ffffff; stroke-linejoin: miter"/>
    </g>
    <g id="text_6">
     <!-- logistic_regression (49.48%) -->
     <g transform="translate(637.444129 193.558463) scale(0.14 -0.14)">
      <defs>
       <path id="DejaVuSans-63" d="M 3122 3366 
L 3122 2828 
Q 2878 2963 2633 3030 
Q 2388 3097 2138 3097 
Q 1578 3097 1268 2742 
Q 959 2388 959 1747 
Q 959 1106 1268 751 
Q 1578 397 2138 397 
Q 2388 397 2633 464 
Q 2878 531 3122 666 
L 3122 134 
Q 2881 22 2623 -34 
Q 2366 -91 2075 -91 
Q 1284 -91 818 406 
Q 353 903 353 1747 
Q 353 2603 823 3093 
Q 1294 3584 2113 3584 
Q 2378 3584 2631 3529 
Q 2884 3475 3122 3366 
z
" transform="scale(0.015625)"/>
       <path id="DejaVuSans-38" d="M 2034 2216 
Q 1584 2216 1326 1975 
Q 1069 1734 1069 1313 
Q 1069 891 1326 650 
Q 1584 409 2034 409 
Q 2484 409 2743 651 
Q 3003 894 3003 1313 
Q 3003 1734 2745 1975 
Q 2488 2216 2034 2216 
z
M 1403 2484 
Q 997 2584 770 2862 
Q 544 3141 544 3541 
Q 544 4100 942 4425 
Q 1341 4750 2034 4750 
Q 2731 4750 3128 4425 
Q 3525 4100 3525 3541 
Q 3525 3141 3298 2862 
Q 3072 2584 2669 2484 
Q 3125 2378 3379 2068 
Q 3634 1759 3634 1313 
Q 3634 634 3220 271 
Q 2806 -91 2034 -91 
Q 1263 -91 848 271 
Q 434 634 434 1313 
Q 434 1759 690 2068 
Q 947 2378 1403 2484 
z
M 1172 3481 
Q 1172 3119 1398 2916 
Q 1625 2713 2034 2713 
Q 2441 2713 2670 2916 
Q 2900 3119 2900 3481 
Q 2900 3844 2670 4047 
Q 2441 4250 2034 4250 
Q 1625 4250 1398 4047 
Q 1172 3844 1172 3481 
z
" transform="scale(0.015625)"/>
      </defs>
      <use xlink:href="#DejaVuSans-6c"/>
      <use xlink:href="#DejaVuSans-6f" x="27.783203"/>
      <use xlink:href="#DejaVuSans-67" x="88.964844"/>
      <use xlink:href="#DejaVuSans-69" x="152.441406"/>
      <use xlink:href="#DejaVuSans-73" x="180.224609"/>
      <use xlink:href="#DejaVuSans-74" x="232.324219"/>
      <use xlink:href="#DejaVuSans-69" x="271.533203"/>
      <use xlink:href="#DejaVuSans-63" x="299.316406"/>
      <use xlink:href="#DejaVuSans-5f" x="354.296875"/>
      <use xlink:href="#DejaVuSans-72" x="404.296875"/>
      <use xlink:href="#DejaVuSans-65" x="443.160156"/>
      <use xlink:href="#DejaVuSans-67" x="504.683594"/>
      <use xlink:href="#DejaVuSans-72" x="568.160156"/>
      <use xlink:href="#DejaVuSans-65" x="607.023438"/>
      <use xlink:href="#DejaVuSans-73" x="668.546875"/>
      <use xlink:href="#DejaVuSans-73" x="720.646484"/>
      <use xlink:href="#DejaVuSans-69" x="772.746094"/>
      <use xlink:href="#DejaVuSans-6f" x="800.529297"/>
      <use xlink:href="#DejaVuSans-6e" x="861.710938"/>
      <use xlink:href="#DejaVuSans-20" x="925.089844"/>
      <use xlink:href="#DejaVuSans-28" x="956.876953"/>
      <use xlink:href="#DejaVuSans-34" x="995.890625"/>
      <use xlink:href="#DejaVuSans-39" x="1059.513672"/>
      <use xlink:href="#DejaVuSans-2e" x="1123.136719"/>
      <use xlink:href="#DejaVuSans-34" x="1154.923828"/>
      <use xlink:href="#DejaVuSans-38" x="1218.546875"/>
      <use xlink:href="#DejaVuSans-25" x="1282.169922"/>
      <use xlink:href="#DejaVuSans-29" x="1377.189453"/>
     </g>
    </g>
    <g id="patch_27">
     <path d="M 598.244129 214.497213 
L 626.244129 214.497213 
L 626.244129 204.697213 
L 598.244129 204.697213 
z
" style="fill: #f5acaf; stroke: #ffffff; stroke-linejoin: miter"/>
    </g>
    <g id="text_7">
     <!-- crf (46.36%) -->
     <g transform="translate(637.444129 214.497213) scale(0.14 -0.14)">
      <use xlink:href="#DejaVuSans-63"/>
      <use xlink:href="#DejaVuSans-72" x="54.980469"/>
      <use xlink:href="#DejaVuSans-66" x="96.09375"/>
      <use xlink:href="#DejaVuSans-20" x="131.298828"/>
      <use xlink:href="#DejaVuSans-28" x="163.085938"/>
      <use xlink:href="#DejaVuSans-34" x="202.099609"/>
      <use xlink:href="#DejaVuSans-36" x="265.722656"/>
      <use xlink:href="#DejaVuSans-2e" x="329.345703"/>
      <use xlink:href="#DejaVuSans-33" x="361.132812"/>
      <use xlink:href="#DejaVuSans-36" x="424.755859"/>
      <use xlink:href="#DejaVuSans-25" x="488.378906"/>
      <use xlink:href="#DejaVuSans-29" x="583.398438"/>
     </g>
    </g>
    <g id="patch_28">
     <path d="M 598.244129 235.046587 
L 626.244129 235.046587 
L 626.244129 225.246587 
L 598.244129 225.246587 
z
" style="fill: #f6aeb1; stroke: #ffffff; stroke-linejoin: miter"/>
    </g>
    <g id="text_8">
     <!-- svm (45.49%) -->
     <g transform="translate(637.444129 235.046587) scale(0.14 -0.14)">
      <defs>
       <path id="DejaVuSans-76" d="M 191 3500 
L 800 3500 
L 1894 563 
L 2988 3500 
L 3597 3500 
L 2284 0 
L 1503 0 
L 191 3500 
z
" transform="scale(0.015625)"/>
      </defs>
      <use xlink:href="#DejaVuSans-73"/>
      <use xlink:href="#DejaVuSans-76" x="52.099609"/>
      <use xlink:href="#DejaVuSans-6d" x="111.279297"/>
      <use xlink:href="#DejaVuSans-20" x="208.691406"/>
      <use xlink:href="#DejaVuSans-28" x="240.478516"/>
      <use xlink:href="#DejaVuSans-34" x="279.492188"/>
      <use xlink:href="#DejaVuSans-35" x="343.115234"/>
      <use xlink:href="#DejaVuSans-2e" x="406.738281"/>
      <use xlink:href="#DejaVuSans-34" x="438.525391"/>
      <use xlink:href="#DejaVuSans-39" x="502.148438"/>
      <use xlink:href="#DejaVuSans-25" x="565.771484"/>
      <use xlink:href="#DejaVuSans-29" x="660.791016"/>
     </g>
    </g>
    <g id="patch_29">
     <path d="M 598.244129 255.595963 
L 626.244129 255.595963 
L 626.244129 245.795963 
L 598.244129 245.795963 
z
" style="fill: #f7bec1; stroke: #ffffff; stroke-linejoin: miter"/>
    </g>
    <g id="text_9">
     <!-- recurrent_neural_network (36.15%) -->
     <g transform="translate(637.444129 255.595963) scale(0.14 -0.14)">
      <use xlink:href="#DejaVuSans-72"/>
      <use xlink:href="#DejaVuSans-65" x="38.863281"/>
      <use xlink:href="#DejaVuSans-63" x="100.386719"/>
      <use xlink:href="#DejaVuSans-75" x="155.367188"/>
      <use xlink:href="#DejaVuSans-72" x="218.746094"/>
      <use xlink:href="#DejaVuSans-72" x="258.109375"/>
      <use xlink:href="#DejaVuSans-65" x="296.972656"/>
      <use xlink:href="#DejaVuSans-6e" x="358.496094"/>
      <use xlink:href="#DejaVuSans-74" x="421.875"/>
      <use xlink:href="#DejaVuSans-5f" x="461.083984"/>
      <use xlink:href="#DejaVuSans-6e" x="511.083984"/>
      <use xlink:href="#DejaVuSans-65" x="574.462891"/>
      <use xlink:href="#DejaVuSans-75" x="635.986328"/>
      <use xlink:href="#DejaVuSans-72" x="699.365234"/>
      <use xlink:href="#DejaVuSans-61" x="740.478516"/>
      <use xlink:href="#DejaVuSans-6c" x="801.757812"/>
      <use xlink:href="#DejaVuSans-5f" x="829.541016"/>
      <use xlink:href="#DejaVuSans-6e" x="879.541016"/>
      <use xlink:href="#DejaVuSans-65" x="942.919922"/>
      <use xlink:href="#DejaVuSans-74" x="1004.443359"/>
      <use xlink:href="#DejaVuSans-77" x="1043.652344"/>
      <use xlink:href="#DejaVuSans-6f" x="1125.439453"/>
      <use xlink:href="#DejaVuSans-72" x="1186.621094"/>
      <use xlink:href="#DejaVuSans-6b" x="1227.734375"/>
      <use xlink:href="#DejaVuSans-20" x="1285.644531"/>
      <use xlink:href="#DejaVuSans-28" x="1317.431641"/>
      <use xlink:href="#DejaVuSans-33" x="1356.445312"/>
      <use xlink:href="#DejaVuSans-36" x="1420.068359"/>
      <use xlink:href="#DejaVuSans-2e" x="1483.691406"/>
      <use xlink:href="#DejaVuSans-31" x="1515.478516"/>
      <use xlink:href="#DejaVuSans-35" x="1579.101562"/>
      <use xlink:href="#DejaVuSans-25" x="1642.724609"/>
      <use xlink:href="#DejaVuSans-29" x="1737.744141"/>
     </g>
    </g>
    <g id="patch_30">
     <path d="M 598.244129 276.534713 
L 626.244129 276.534713 
L 626.244129 266.734713 
L 598.244129 266.734713 
z
" style="fill: #f8c0c2; stroke: #ffffff; stroke-linejoin: miter"/>
    </g>
    <g id="text_10">
     <!-- naive_bayes (35.86%) -->
     <g transform="translate(637.444129 276.534713) scale(0.14 -0.14)">
      <defs>
       <path id="DejaVuSans-79" d="M 2059 -325 
Q 1816 -950 1584 -1140 
Q 1353 -1331 966 -1331 
L 506 -1331 
L 506 -850 
L 844 -850 
Q 1081 -850 1212 -737 
Q 1344 -625 1503 -206 
L 1606 56 
L 191 3500 
L 800 3500 
L 1894 763 
L 2988 3500 
L 3597 3500 
L 2059 -325 
z
" transform="scale(0.015625)"/>
      </defs>
      <use xlink:href="#DejaVuSans-6e"/>
      <use xlink:href="#DejaVuSans-61" x="63.378906"/>
      <use xlink:href="#DejaVuSans-69" x="124.658203"/>
      <use xlink:href="#DejaVuSans-76" x="152.441406"/>
      <use xlink:href="#DejaVuSans-65" x="211.621094"/>
      <use xlink:href="#DejaVuSans-5f" x="273.144531"/>
      <use xlink:href="#DejaVuSans-62" x="323.144531"/>
      <use xlink:href="#DejaVuSans-61" x="386.621094"/>
      <use xlink:href="#DejaVuSans-79" x="447.900391"/>
      <use xlink:href="#DejaVuSans-65" x="507.080078"/>
      <use xlink:href="#DejaVuSans-73" x="568.603516"/>
      <use xlink:href="#DejaVuSans-20" x="620.703125"/>
      <use xlink:href="#DejaVuSans-28" x="652.490234"/>
      <use xlink:href="#DejaVuSans-33" x="691.503906"/>
      <use xlink:href="#DejaVuSans-35" x="755.126953"/>
      <use xlink:href="#DejaVuSans-2e" x="818.75"/>
      <use xlink:href="#DejaVuSans-38" x="850.537109"/>
      <use xlink:href="#DejaVuSans-36" x="914.160156"/>
      <use xlink:href="#DejaVuSans-25" x="977.783203"/>
      <use xlink:href="#DejaVuSans-29" x="1072.802734"/>
     </g>
    </g>
    <g id="patch_31">
     <path d="M 598.244129 297.473462 
L 626.244129 297.473462 
L 626.244129 287.673462 
L 598.244129 287.673462 
z
" style="fill: #f9cccf; stroke: #ffffff; stroke-linejoin: miter"/>
    </g>
    <g id="text_11">
     <!-- hmm (28.5%) -->
     <g transform="translate(637.444129 297.473462) scale(0.14 -0.14)">
      <defs>
       <path id="DejaVuSans-68" d="M 3513 2113 
L 3513 0 
L 2938 0 
L 2938 2094 
Q 2938 2591 2744 2837 
Q 2550 3084 2163 3084 
Q 1697 3084 1428 2787 
Q 1159 2491 1159 1978 
L 1159 0 
L 581 0 
L 581 4863 
L 1159 4863 
L 1159 2956 
Q 1366 3272 1645 3428 
Q 1925 3584 2291 3584 
Q 2894 3584 3203 3211 
Q 3513 2838 3513 2113 
z
" transform="scale(0.015625)"/>
      </defs>
      <use xlink:href="#DejaVuSans-68"/>
      <use xlink:href="#DejaVuSans-6d" x="63.378906"/>
      <use xlink:href="#DejaVuSans-6d" x="160.791016"/>
      <use xlink:href="#DejaVuSans-20" x="258.203125"/>
      <use xlink:href="#DejaVuSans-28" x="289.990234"/>
      <use xlink:href="#DejaVuSans-32" x="329.003906"/>
      <use xlink:href="#DejaVuSans-38" x="392.626953"/>
      <use xlink:href="#DejaVuSans-2e" x="456.25"/>
      <use xlink:href="#DejaVuSans-35" x="488.037109"/>
      <use xlink:href="#DejaVuSans-25" x="551.660156"/>
      <use xlink:href="#DejaVuSans-29" x="646.679688"/>
     </g>
    </g>
    <g id="patch_32">
     <path d="M 598.244129 318.022838 
L 626.244129 318.022838 
L 626.244129 308.222838 
L 598.244129 308.222838 
z
" style="fill: #f9cccf; stroke: #ffffff; stroke-linejoin: miter"/>
    </g>
    <g id="text_12">
     <!-- knn (28.21%) -->
     <g transform="translate(637.444129 318.022838) scale(0.14 -0.14)">
      <use xlink:href="#DejaVuSans-6b"/>
      <use xlink:href="#DejaVuSans-6e" x="57.910156"/>
      <use xlink:href="#DejaVuSans-6e" x="121.289062"/>
      <use xlink:href="#DejaVuSans-20" x="184.667969"/>
      <use xlink:href="#DejaVuSans-28" x="216.455078"/>
      <use xlink:href="#DejaVuSans-32" x="255.46875"/>
      <use xlink:href="#DejaVuSans-38" x="319.091797"/>
      <use xlink:href="#DejaVuSans-2e" x="382.714844"/>
      <use xlink:href="#DejaVuSans-32" x="414.501953"/>
      <use xlink:href="#DejaVuSans-31" x="478.125"/>
      <use xlink:href="#DejaVuSans-25" x="541.748047"/>
      <use xlink:href="#DejaVuSans-29" x="636.767578"/>
     </g>
    </g>
   </g>
  </g>
 </g>
</svg>
