<?xml version="1.0" encoding="utf-8" standalone="no"?>
<!DOCTYPE svg PUBLIC "-//W3C//DTD SVG 1.1//EN"
  "http://www.w3.org/Graphics/SVG/1.1/DTD/svg11.dtd">
<svg xmlns:xlink="http://www.w3.org/1999/xlink" width="898.989132pt" height="653.068763pt" viewBox="0 0 898.989132 653.068763" xmlns="http://www.w3.org/2000/svg" version="1.1">
 <metadata>
  <rdf:RDF xmlns:dc="http://purl.org/dc/elements/1.1/" xmlns:cc="http://creativecommons.org/ns#" xmlns:rdf="http://www.w3.org/1999/02/22-rdf-syntax-ns#">
   <cc:Work>
    <dc:type rdf:resource="http://purl.org/dc/dcmitype/StillImage"/>
    <dc:date>2023-06-21T15:50:28.133080</dc:date>
    <dc:format>image/svg+xml</dc:format>
    <dc:creator>
     <cc:Agent>
      <dc:title>Matplotlib v3.7.0, https://matplotlib.org/</dc:title>
     </cc:Agent>
    </dc:creator>
   </cc:Work>
  </rdf:RDF>
 </metadata>
 <defs>
  <style type="text/css">*{stroke-linejoin: round; stroke-linecap: butt}</style>
 </defs>
 <g id="figure_1">
  <g id="patch_1">
   <path d="M 0 653.068763 
L 898.989132 653.068763 
L 898.989132 -0 
L 0 -0 
z
" style="fill: #ffffff"/>
  </g>
  <g id="axes_1">
   <g id="patch_2">
    <path d="M 326.53432 7.2 
C 317.872005 7.2 309.213276 7.552463 300.57962 8.256514 
C 291.945965 8.960565 283.344531 10.015622 274.796663 11.419066 
L 278.776483 35.658707 
C 286.666822 34.36322 294.606608 33.389322 302.576136 32.739428 
C 310.545664 32.089535 318.538337 31.764185 326.53432 31.764185 
z
" style="fill: #f4f5f5; stroke: #ffffff; stroke-linejoin: miter"/>
   </g>
   <g id="patch_3">
    <path d="M 274.796663 11.419066 
C 234.494406 18.036149 195.83329 32.324003 160.913863 53.506337 
C 125.994435 74.68867 95.46078 102.374779 70.971861 135.06041 
C 46.482942 167.746042 28.490454 204.828316 17.97197 244.292467 
C 7.453487 283.756617 4.603019 324.874734 9.57544 365.412774 
C 14.547862 405.950814 27.251456 445.16106 46.996008 480.913128 
C 66.74056 516.665196 93.161885 548.299644 124.824449 574.0977 
C 156.487014 599.895755 192.806808 619.381577 231.810492 631.496456 
C 270.814176 643.611334 311.782335 648.131812 352.489071 644.812282 
C 393.195807 641.492751 432.890293 630.39444 469.415834 612.120345 
C 505.941375 593.84625 538.624263 568.733435 565.688762 538.146337 
C 592.753261 507.559238 613.700169 472.062031 627.391393 433.583361 
C 641.082618 395.104691 647.265625 354.354291 645.604479 313.546225 
C 643.943332 272.738159 634.468671 232.625125 617.695276 195.386557 
C 600.921881 158.14799 577.159134 124.470749 547.698121 96.184597 
C 518.237109 67.898445 483.621233 45.525115 445.731257 30.280203 
C 407.84128 15.035291 367.376077 7.199987 326.534215 7.2 
L 326.534223 31.764185 
C 364.234403 31.764172 401.586899 38.996761 436.562262 53.068988 
C 471.537625 67.141214 503.49074 87.793518 530.685521 113.903813 
C 557.880302 140.014107 579.815145 171.100791 595.298279 205.474853 
C 610.781413 239.848915 619.527254 276.876331 621.06062 314.545315 
C 622.593986 352.214299 616.886595 389.830053 604.248542 425.348826 
C 591.610489 460.867598 572.27488 493.634251 547.292266 521.868495 
C 522.309652 550.10274 492.140832 573.2838 458.424948 590.152195 
C 424.709064 607.02059 388.068 617.265185 350.492552 620.329368 
C 312.917103 623.39355 275.100341 619.220801 239.09694 608.037836 
C 203.09354 596.854871 169.567576 578.867959 140.340593 555.054369 
C 111.113611 531.240779 86.724696 502.03975 68.498955 469.037841 
C 50.273215 436.035933 38.54682 399.841859 33.956893 362.42213 
C 29.366965 325.002401 31.998166 287.047216 41.707536 250.618769 
C 51.416905 214.190323 68.025356 179.960531 90.630512 149.789179 
C 113.235667 119.617826 141.42058 94.061419 173.653898 74.508496 
C 205.887215 54.955572 241.5744 41.766783 278.776483 35.658707 
z
" style="fill: #eb4f57; stroke: #ffffff; stroke-linejoin: miter"/>
   </g>
   <g id="patch_4">
    <path d="M 326.53432 31.764185 
C 317.858929 31.764185 309.187767 32.147173 300.546159 32.912031 
C 291.904551 33.67689 283.30092 34.822872 274.760396 36.346632 
L 279.07489 60.528946 
C 286.903704 59.132166 294.790365 58.081682 302.711839 57.380562 
C 310.633313 56.679442 318.581879 56.328369 326.53432 56.328369 
z
" style="fill: #f4f5f5; stroke: #ffffff; stroke-linejoin: miter"/>
   </g>
   <g id="patch_5">
    <path d="M 274.760396 36.346632 
C 237.730624 42.953308 202.305381 56.587178 170.400806 76.51079 
C 138.49623 96.434402 110.69812 122.281941 88.510063 152.655324 
C 66.322006 183.028706 50.151396 217.370249 40.872895 253.822432 
C 31.594393 290.274615 29.378362 328.168143 34.344666 365.453369 
C 39.310969 402.738595 51.368422 438.730928 69.86484 471.483558 
C 88.361259 504.236187 112.957032 533.147745 142.321784 556.654416 
C 171.686536 580.161086 205.281104 597.831266 241.288369 608.709182 
C 277.295635 619.587098 315.054473 623.473022 352.522521 620.156765 
C 389.99057 616.840508 426.479882 606.38296 460.016766 589.349766 
C 493.553649 572.316571 523.522335 549.020476 548.301829 520.721556 
C 573.081324 492.422635 592.216653 459.640485 604.672794 424.148277 
C 617.128935 388.65607 622.677181 351.105475 621.017431 313.527589 
C 619.35768 275.949704 610.520408 239.034493 594.983618 204.778684 
C 579.446827 170.522876 557.495789 139.55544 530.317826 113.551391 
C 503.139863 87.547342 471.233987 66.984139 436.325976 52.974037 
C 401.417964 38.963936 364.148758 31.764174 326.534237 31.764185 
L 326.534244 56.328369 
C 361.014222 56.32836 395.17766 62.928141 427.176671 75.770734 
C 459.175682 88.613327 488.422734 107.46293 513.335867 131.299975 
C 538.249 155.13702 558.370785 183.523837 572.612843 214.924994 
C 586.8549 246.326152 594.955734 280.165095 596.477171 314.61149 
C 597.998609 349.057885 592.912717 383.479264 581.494588 416.013787 
C 570.076459 448.548311 552.53574 478.598616 529.821204 504.539293 
C 507.106667 530.47997 479.635371 551.834724 448.893228 567.448485 
C 418.151085 583.062247 384.702549 592.648332 350.356838 595.688235 
C 316.011126 598.728137 281.398859 595.16604 248.392198 585.194617 
C 215.385538 575.223194 184.590518 559.025529 157.672829 537.477748 
C 130.755139 515.929966 108.209014 489.427705 91.253964 459.404461 
C 74.298913 429.381217 63.246249 396.388245 58.693804 362.210121 
C 54.141359 328.031998 56.17272 293.296264 64.678013 259.881763 
C 73.183306 226.467262 88.006366 194.987514 108.345418 167.145247 
C 128.68447 139.302979 154.166071 115.609402 183.411932 97.346091 
C 212.657792 79.082779 245.130932 66.585066 279.07489 60.528946 
z
" style="fill: #eb4f57; stroke: #ffffff; stroke-linejoin: miter"/>
   </g>
   <g id="patch_6">
    <path d="M 326.53432 56.328369 
C 318.072288 56.328369 309.614925 56.725877 301.190198 57.519578 
C 292.765472 58.313279 284.382678 59.502297 276.069537 61.0827 
L 280.657245 85.214673 
C 288.214645 83.777943 295.835367 82.697017 303.494209 81.975471 
C 311.153052 81.253924 318.841563 80.892554 326.53432 80.892554 
z
" style="fill: #f4f5f5; stroke: #ffffff; stroke-linejoin: miter"/>
   </g>
   <g id="patch_7">
    <path d="M 276.069537 61.0827 
C 242.259352 67.510324 209.986417 80.338688 180.989966 98.876454 
C 151.993515 117.41422 126.803963 141.322288 106.778809 169.312218 
C 86.753655 197.302148 72.259209 228.861937 64.076596 262.290783 
C 55.893983 295.71963 54.172882 330.40604 59.006048 364.480715 
C 63.839213 398.55539 75.138234 431.395022 92.294189 461.229836 
C 109.450145 491.06465 132.149212 517.348896 159.168106 538.66608 
C 186.187 559.983264 217.03148 575.943442 250.039294 585.686499 
C 283.047109 595.429555 317.614464 598.777266 351.878478 595.549219 
C 386.142493 592.321171 419.476394 582.576414 450.083771 566.840106 
C 480.691148 551.103797 508.01212 529.663793 530.574319 503.675524 
C 553.136518 477.687255 570.527229 447.62611 581.809241 415.112126 
C 593.091253 382.598142 598.058192 348.226078 596.442381 313.848293 
C 594.826571 279.470508 586.657569 245.715854 572.375613 214.403417 
C 558.093658 183.09098 537.960002 154.79354 513.059674 131.036085 
C 488.159347 107.278631 458.947836 88.495742 426.999391 75.699657 
C 395.050946 62.903571 360.949981 56.32836 326.534244 56.328369 
L 326.534251 80.892554 
C 357.821284 80.892545 388.822162 86.87001 417.866203 98.502815 
C 446.910244 110.13562 473.466163 127.210973 496.102824 148.808659 
C 518.739485 170.406345 537.042809 196.131291 550.026405 224.597143 
C 563.01 253.062995 570.436366 283.749044 571.905285 315.001576 
C 573.374203 346.254108 568.858805 377.501438 558.60243 407.059606 
C 548.346055 436.617773 532.536318 463.946086 512.025228 487.571785 
C 491.514138 511.197484 466.676891 530.688397 438.852003 544.994132 
C 411.027114 559.299867 380.723568 568.158737 349.574464 571.093326 
C 318.42536 574.027915 287.000491 570.984541 256.993388 562.127217 
C 226.986284 553.269893 198.945847 538.76064 174.383216 519.381382 
C 149.820585 500.002124 129.18507 476.107354 113.588747 448.984796 
C 97.992423 421.862238 87.720586 392.008027 83.3268 361.03105 
C 78.933013 330.054073 80.49765 298.520973 87.936389 268.131112 
C 95.375128 237.741251 108.551898 209.050534 126.756583 183.605143 
C 144.961268 158.159753 167.860861 136.425146 194.221271 119.572631 
C 220.581681 102.720116 249.920713 91.057967 280.657245 85.214673 
z
" style="fill: #eb4f57; stroke: #ffffff; stroke-linejoin: miter"/>
   </g>
   <g id="patch_8">
    <path d="M 326.53432 80.892554 
C 318.815826 80.892554 311.101619 81.256347 303.41738 81.982721 
C 295.733141 82.709095 288.087407 83.797245 280.505629 85.243546 
L 285.108498 109.372631 
C 291.932098 108.07096 298.813259 107.091626 305.729074 106.437889 
C 312.644889 105.784152 319.587675 105.456738 326.53432 105.456738 
z
" style="fill: #f4f5f5; stroke: #ffffff; stroke-linejoin: miter"/>
   </g>
   <g id="patch_9">
    <path d="M 280.505629 85.243546 
C 249.775962 91.105543 220.447131 102.784315 194.099385 119.650605 
C 167.751639 136.516894 144.866842 158.262241 126.678035 183.714996 
C 108.489229 209.167751 95.32906 237.862419 87.906606 268.252921 
C 80.484151 298.643423 78.935156 330.173958 83.343082 361.145649 
C 87.751008 392.117339 98.035239 421.963757 113.641657 449.076763 
C 129.248075 476.18977 149.891261 500.073508 174.458951 519.44111 
C 199.026641 538.808713 227.069527 553.305975 257.076646 562.151777 
C 287.083766 570.997579 318.506331 574.030144 349.65128 571.086077 
C 380.79623 568.14201 411.093967 559.275153 438.912038 544.963256 
C 466.730108 530.651359 491.559758 511.156167 512.063156 487.528088 
C 532.566554 463.900009 548.368721 436.571168 558.618231 407.014054 
C 568.86774 377.456941 573.377143 346.212112 571.903471 314.963052 
C 570.429799 283.713993 563.000003 253.032204 550.014403 224.570833 
C 537.028803 196.109462 518.724889 170.389028 496.088881 148.795358 
C 473.452874 127.201687 446.898755 110.129699 417.857271 98.499238 
C 388.815786 86.868777 357.818065 80.892548 326.534276 80.892554 
L 326.534281 105.456738 
C 354.689691 105.456734 382.58764 110.835339 408.724976 121.302754 
C 434.862311 131.770169 458.761019 147.134959 479.133425 166.569262 
C 499.505832 186.003565 515.979355 209.151956 527.666395 234.76719 
C 539.353434 260.382424 546.040251 287.996034 547.366556 316.120187 
C 548.692861 344.244341 544.634398 372.364687 535.40984 398.966089 
C 526.185281 425.567491 511.96333 450.163448 493.510272 471.428719 
C 475.057214 492.69399 452.710529 510.239663 427.674266 523.12037 
C 402.638003 536.001077 375.370039 543.981249 347.339584 546.630909 
C 319.309129 549.28057 291.028821 546.551261 264.022414 538.590039 
C 237.016006 530.628817 211.777409 517.581282 189.666488 500.150439 
C 167.555567 482.719597 148.9767 461.224233 134.930923 436.822527 
C 120.885147 412.420821 111.629339 385.559045 107.662206 357.684524 
C 103.695073 329.810002 105.089168 301.432521 111.769377 274.081069 
C 118.449586 246.729617 130.293738 220.904416 146.663664 197.996936 
C 163.03359 175.089457 183.629907 155.518645 207.342879 140.338984 
C 231.05585 125.159324 257.451798 114.648429 285.108498 109.372631 
z
" style="fill: #eb4f57; stroke: #ffffff; stroke-linejoin: miter"/>
   </g>
   <g id="patch_10">
    <path d="M 326.53432 105.456738 
C 319.495018 105.456738 312.459731 105.792945 305.452508 106.464207 
C 298.445286 107.13547 291.47412 108.141024 284.56284 109.477432 
L 289.226338 133.594873 
C 295.369697 132.406955 301.566289 131.513129 307.794932 130.916451 
C 314.023574 130.319773 320.277163 130.020923 326.53432 130.020923 
z
" style="fill: #f4f5f5; stroke: #ffffff; stroke-linejoin: miter"/>
   </g>
   <g id="patch_11">
    <path d="M 284.56284 109.477432 
C 256.930957 114.820504 230.571816 125.391168 206.904501 140.620337 
C 183.237185 155.849506 162.694176 175.458891 146.381436 198.392795 
C 130.068696 221.326698 118.284313 247.166039 111.662717 274.51972 
C 105.041121 301.873402 103.70331 330.241579 107.721308 358.097011 
C 111.739306 385.952444 121.039689 412.786118 135.12176 437.153406 
C 149.20383 461.520693 167.81026 482.976321 189.939346 500.365196 
C 212.068432 517.754071 237.315801 530.758438 264.322225 538.67819 
C 291.32865 546.597942 319.60063 549.288358 347.616105 546.604595 
C 375.63158 543.920832 402.878611 535.911932 427.890318 523.009065 
C 452.902024 510.106198 475.221356 492.545144 493.646721 471.271326 
C 512.072086 449.997508 526.266791 425.399671 535.466643 398.802075 
C 544.666495 372.204478 548.703382 344.09315 547.359972 315.981504 
C 546.016563 287.869857 539.317405 260.271587 527.623158 234.672486 
C 515.928912 209.073384 499.453269 185.941233 479.08322 166.521384 
C 458.713171 147.101535 434.820946 131.748855 408.692816 121.289878 
C 382.564685 110.8309 354.678099 105.456745 326.534371 105.456738 
L 326.534366 130.020923 
C 351.551013 130.020929 376.339089 134.797955 399.564094 144.094825 
C 422.789099 153.391694 444.026632 167.03852 462.133342 184.300608 
C 480.240053 201.562696 494.885068 222.124608 505.279954 244.879365 
C 515.67484 267.634122 521.629647 292.165918 522.823788 317.154048 
C 524.01793 342.142178 520.429586 367.130025 512.25194 390.772333 
C 504.074294 414.414641 491.456779 436.279385 475.078676 455.189445 
C 458.700574 474.099506 438.861168 489.709332 416.62854 501.178547 
C 394.395912 512.647762 370.176329 519.766784 345.273684 522.152351 
C 320.37104 524.537918 295.240391 522.146438 271.23468 515.106658 
C 247.22897 508.066879 224.786864 496.507441 205.116565 481.050663 
C 185.446267 465.593886 168.907218 446.522216 156.389822 424.862405 
C 143.872426 403.202594 135.605418 379.350439 132.033865 354.590054 
C 128.462311 329.82967 129.651476 304.613513 135.53734 280.299129 
C 141.423203 255.984746 151.89821 233.016443 166.398423 212.630751 
C 180.898637 192.245059 199.159089 174.814494 220.196703 161.277455 
C 241.234317 147.740416 264.664664 138.34427 289.226338 133.594873 
z
" style="fill: #eb5159; stroke: #ffffff; stroke-linejoin: miter"/>
   </g>
   <g id="patch_12">
    <path d="M 326.53432 130.020923 
C 319.947703 130.020923 313.36525 130.352072 306.811889 131.013116 
C 300.258528 131.674161 293.742544 132.664264 287.288615 133.979677 
L 292.194328 158.049018 
C 297.841516 156.898031 303.543002 156.03169 309.277193 155.453277 
C 315.011383 154.874863 320.77103 154.585108 326.53432 154.585108 
z
" style="fill: #f4f5f5; stroke: #ffffff; stroke-linejoin: miter"/>
   </g>
   <g id="patch_13">
    <path d="M 287.288615 133.979677 
C 262.816616 138.967458 239.518321 148.575081 218.643932 162.286993 
C 197.769542 175.998905 179.699235 193.565377 165.402674 214.043781 
C 151.106113 234.522185 140.843677 257.539556 135.166054 281.860766 
C 129.488431 306.181977 128.499026 331.364074 132.250931 356.055771 
C 136.002835 380.747468 144.427718 404.499064 157.073493 426.036033 
C 169.719269 447.573002 186.355625 466.5031 206.089845 481.810525 
C 225.824064 497.117951 248.296735 508.523915 272.301959 515.416368 
C 296.307183 522.30882 321.407762 524.562231 346.256784 522.05568 
C 371.105806 519.54913 395.250705 512.328269 417.395849 500.780574 
C 439.540994 489.232879 459.283063 473.568663 475.562685 454.628478 
C 491.842307 435.688294 504.362987 413.817091 512.452858 390.188493 
C 520.54273 366.559894 524.054453 341.604239 522.799589 316.660662 
C 521.544724 291.717086 515.546126 267.239877 505.125681 244.542497 
C 494.705237 221.845118 480.052731 201.340947 461.954426 184.130252 
C 443.856121 166.919557 422.641634 153.315789 399.449349 144.048935 
C 376.257064 134.782081 351.509372 130.020914 326.534251 130.020923 
L 326.534259 154.585108 
C 348.38749 154.5851 370.041721 158.75112 390.33497 166.859618 
C 410.62822 174.968115 429.190896 186.871412 445.026913 201.930771 
C 460.86293 216.990129 473.683873 234.931278 482.801761 254.791485 
C 491.91965 274.651692 497.168424 296.06925 498.26643 317.894879 
C 499.364437 339.720509 496.291678 361.556707 489.213041 382.231731 
C 482.134404 402.906755 471.178809 422.044057 456.934139 438.616719 
C 442.68947 455.18938 425.415159 468.895569 406.038158 478.999802 
C 386.661156 489.104035 365.53437 495.422288 343.791476 497.61552 
C 322.048582 499.808752 300.085575 497.837017 279.081004 491.806122 
C 258.076433 485.775226 238.412846 475.795007 221.145404 462.40101 
C 203.877962 449.007013 189.32115 432.443177 178.256097 413.598329 
C 167.191043 394.753481 159.819271 373.970835 156.536354 352.3656 
C 153.253438 330.760365 154.119167 308.72603 159.087087 287.444971 
C 164.055007 266.163911 173.034639 246.023712 185.54413 228.105108 
C 198.05362 210.186505 213.865139 194.815842 232.13023 182.817919 
C 250.395321 170.819995 270.781329 162.413326 292.194328 158.049018 
z
" style="fill: #eb5159; stroke: #ffffff; stroke-linejoin: miter"/>
   </g>
   <g id="patch_14">
    <path d="M 326.53432 154.585108 
C 317.328067 154.585108 308.136665 155.324469 299.048787 156.796058 
C 289.96091 158.267648 281.005876 160.466718 272.270081 163.372053 
L 280.022115 186.68096 
C 287.50994 184.190672 295.185682 182.305755 302.975292 181.044393 
C 310.764901 179.78303 318.643246 179.149292 326.53432 179.149292 
z
" style="fill: #f4f5f5; stroke: #ffffff; stroke-linejoin: miter"/>
   </g>
   <g id="patch_15">
    <path d="M 272.270081 163.372053 
C 251.945123 170.131691 233.061022 180.629985 216.591889 194.325395 
C 200.122755 208.020805 186.356722 224.673726 176.003891 243.42514 
C 165.65106 262.176553 158.892557 282.698397 156.07701 303.932081 
C 153.261464 325.165764 154.438132 346.739797 159.546319 367.541312 
C 164.654506 388.342828 173.604842 408.007897 185.935636 425.522123 
C 198.266431 443.03635 213.761951 458.093317 231.622885 469.916333 
C 249.483818 481.739348 269.39768 490.121564 290.337242 494.630595 
C 311.276804 499.139626 332.875721 499.696585 354.019844 496.272743 
C 375.163967 492.848901 395.483371 485.504158 413.929909 474.617384 
C 432.376447 463.730609 448.62739 449.49227 461.844456 432.636832 
C 475.061522 415.781394 485.013473 396.603748 491.186953 376.093147 
C 497.360433 355.582545 499.647434 334.097829 497.929984 312.747255 
C 496.212534 291.396681 490.520681 270.553787 481.148031 251.293723 
C 471.775381 232.03366 458.885911 214.693388 443.144508 200.167383 
C 427.403104 185.641377 409.085168 174.183774 389.135605 166.3856 
C 369.186041 158.587425 347.953874 154.58511 326.534336 154.585108 
L 326.534333 179.149292 
C 344.893938 179.149294 363.092938 182.57985 380.192564 189.264 
C 397.29219 195.94815 412.993278 205.768952 426.48591 218.219814 
C 439.978541 230.670676 451.026658 245.533765 459.060358 262.042392 
C 467.094058 278.551018 471.972789 296.416356 473.444889 314.716847 
C 474.916989 333.017339 472.956702 351.43281 467.665148 369.013326 
C 462.373594 386.593841 453.84335 403.031823 442.514436 417.479342 
C 431.185523 431.92686 417.256143 444.131151 401.444825 453.462672 
C 385.633507 462.794193 368.216874 469.089686 350.093341 472.024408 
C 331.969807 474.95913 313.456449 474.481736 295.508253 470.616853 
C 277.560057 466.751969 260.491032 459.567213 245.181661 449.4332 
C 229.87229 439.299186 216.590415 426.393214 206.021162 411.38102 
C 195.45191 396.368826 187.780194 379.513053 183.401748 361.683182 
C 179.023302 343.853312 178.014729 325.361284 180.428054 307.160983 
C 182.84138 288.960683 188.634383 271.370531 197.508238 255.297891 
C 206.382093 239.225251 218.18155 224.951319 232.29795 213.212396 
C 246.41435 201.473472 262.600722 192.474935 280.022115 186.68096 
z
" style="fill: #eb555c; stroke: #ffffff; stroke-linejoin: miter"/>
   </g>
   <g id="patch_16">
    <path d="M 326.53432 179.149292 
C 316.338677 179.149292 306.170498 180.207246 296.193237 182.306148 
C 286.215976 184.40505 276.483383 187.533591 267.151911 191.641481 
L 277.048979 214.123634 
C 284.825206 210.700393 292.9357 208.093275 301.250084 206.34419 
C 309.564468 204.595105 318.037951 203.713477 326.53432 203.713477 
z
" style="fill: #f4f5f5; stroke: #ffffff; stroke-linejoin: miter"/>
   </g>
   <g id="patch_17">
    <path d="M 267.151911 191.641481 
C 250.613777 198.92188 235.554657 209.182003 222.727372 221.908937 
C 209.900086 234.63587 199.522007 249.613944 192.111944 266.094389 
C 184.701881 282.574834 180.385406 300.278371 179.378302 318.319986 
C 178.371199 336.3616 180.690535 354.435556 186.220363 371.63832 
C 191.750192 388.841084 200.396804 404.881137 211.727948 418.956622 
C 223.059093 433.032106 236.882751 444.904499 252.507864 453.980286 
C 268.132978 463.056074 285.294763 469.181458 303.135287 472.050225 
C 320.97581 474.918992 339.192745 474.482527 356.875409 470.762651 
C 374.558073 467.042774 391.406816 460.102522 406.579351 450.288846 
C 421.751887 440.475169 434.991102 427.95437 445.635155 413.352376 
C 456.279208 398.750382 464.147724 382.314638 468.847349 364.866784 
C 473.546974 347.41893 474.998067 329.254636 473.128088 311.281955 
C 471.258108 293.309274 466.098745 275.83277 457.907919 259.726111 
C 449.717092 243.619452 438.633606 229.155582 425.211533 217.057564 
C 411.789459 204.959546 396.256251 195.432393 379.388427 188.952376 
C 362.520603 182.47236 344.604007 179.149291 326.534306 179.149292 
L 326.534308 203.713477 
C 341.592392 203.713476 356.522889 206.4827 370.579409 211.882713 
C 384.635929 217.282727 397.580269 225.222021 408.76533 235.303703 
C 419.950391 245.385385 429.18663 257.43861 436.012319 270.860826 
C 442.838007 284.283042 447.137477 298.846795 448.695793 313.824029 
C 450.254109 328.801264 449.044865 343.938175 445.128511 358.478053 
C 441.212157 373.017932 434.65506 386.714385 425.785016 398.882713 
C 416.914972 411.051042 405.882293 421.485041 393.238513 429.663105 
C 380.594733 437.841169 366.554114 443.624712 351.818561 446.724609 
C 337.083007 449.824506 321.902228 450.188226 307.035125 447.797587 
C 292.168023 445.406948 277.866535 440.302461 264.845607 432.739305 
C 251.824679 425.176149 240.304964 415.282489 230.862344 403.552918 
C 221.419723 391.823348 214.214213 378.456637 209.606023 364.121 
C 204.997832 349.785363 203.065053 334.723733 203.904305 319.689055 
C 204.743558 304.654376 208.340621 289.901428 214.515673 276.167724 
C 220.690726 262.43402 229.339125 249.952292 240.02853 239.346514 
C 250.717934 228.740736 263.267201 220.190633 277.048979 214.123634 
z
" style="fill: #eb575e; stroke: #ffffff; stroke-linejoin: miter"/>
   </g>
   <g id="patch_18">
    <path d="M 326.53432 203.713477 
C 317.444608 203.713477 308.382924 204.722542 299.515875 206.722118 
C 290.648827 208.721695 282.031096 211.699453 273.821128 215.600642 
L 284.363766 237.787394 
C 290.93174 234.666442 297.825926 232.284236 304.919564 230.684575 
C 312.013203 229.084913 319.262551 228.277662 326.53432 228.277662 
z
" style="fill: #f4f5f5; stroke: #ffffff; stroke-linejoin: miter"/>
   </g>
   <g id="patch_19">
    <path d="M 273.821128 215.600642 
C 260.287787 222.031378 248.044753 230.88466 237.698108 241.722216 
C 227.351463 252.559771 219.074805 265.199764 213.277864 279.016463 
C 207.480923 292.833161 204.260961 307.594744 203.77738 322.570452 
C 203.293799 337.54616 205.554712 352.484726 210.448195 366.646629 
C 215.341679 380.808532 222.785627 393.95616 232.411535 405.43865 
C 242.037443 416.92114 253.683804 426.545835 266.774074 433.836274 
C 279.864345 441.126713 294.178892 445.960575 309.009088 448.098562 
C 323.839283 450.236549 338.9363 449.64279 353.552775 446.346679 
C 368.169249 443.050568 382.059942 437.107408 394.537205 428.81141 
C 407.014468 420.515412 417.868955 410.005768 426.563322 397.80275 
C 435.25769 385.599732 441.646063 371.908086 445.412189 357.405604 
C 449.178315 342.903123 450.259006 327.833133 448.600763 312.941662 
C 446.94252 298.050191 442.573165 283.587092 435.708999 270.268349 
C 428.844834 256.949607 419.601027 244.998685 408.435186 235.007206 
C 397.269344 225.015726 384.368812 217.151328 370.372219 211.803333 
C 356.375625 206.455337 341.51781 203.713474 326.534297 203.713477 
L 326.534301 228.277662 
C 338.521112 228.277659 350.407364 230.47115 361.604639 234.749546 
C 372.801913 239.027943 383.122339 245.319461 392.055012 253.312645 
C 400.987686 261.305828 408.382731 270.866565 413.874063 281.52156 
C 419.365396 292.176554 422.86088 303.747033 424.187474 315.66021 
C 425.514069 327.573386 424.649516 339.629378 421.636615 351.231363 
C 418.623714 362.833349 413.513016 373.786666 406.557522 383.54908 
C 399.602028 393.311494 390.918438 401.719209 380.936628 408.356008 
C 370.954817 414.992806 359.842263 419.747335 348.149084 422.384223 
C 336.455904 425.021112 324.37829 425.496119 312.514134 423.785729 
C 300.649978 422.07534 289.19834 418.208251 278.726123 412.375899 
C 268.253907 406.543548 258.936818 398.843792 251.236092 389.6578 
C 243.535366 380.471808 237.580207 369.953706 233.66542 358.624183 
C 229.750634 347.294661 227.941903 335.343808 228.328768 323.363242 
C 228.715633 311.382675 231.291602 299.573409 235.929155 288.52005 
C 240.566708 277.466692 247.188034 267.354697 255.46535 258.684653 
C 263.742666 250.014608 273.537093 242.931982 284.363766 237.787394 
z
" style="fill: #ec5860; stroke: #ffffff; stroke-linejoin: miter"/>
   </g>
   <g id="patch_20">
    <path d="M 326.53432 228.277662 
C 318.859963 228.277662 311.211964 229.176772 303.746846 230.95659 
C 296.281728 232.736409 289.050768 235.384711 282.201955 238.847297 
L 293.285046 260.769073 
C 298.421656 258.172133 303.844876 256.185907 309.443715 254.851043 
C 315.042553 253.516179 320.778552 252.841846 326.53432 252.841846 
z
" style="fill: #f4f5f5; stroke: #ffffff; stroke-linejoin: miter"/>
   </g>
   <g id="patch_21">
    <path d="M 282.201955 238.847297 
C 271.549719 244.232796 261.967438 251.514548 253.925538 260.335069 
C 245.883638 269.155589 239.51591 279.368133 235.134966 290.471334 
C 230.754022 301.574534 228.432746 313.383671 228.285099 325.318994 
C 228.137451 337.254317 230.165887 349.117262 234.270825 360.325438 
C 238.375763 371.533615 244.48891 381.900555 252.310151 390.917313 
C 260.131393 399.934071 269.530609 407.450637 280.046361 413.097997 
C 290.562114 418.745358 302.019455 422.429561 313.855907 423.969735 
C 325.692359 425.50991 337.711002 424.880433 349.321802 422.112208 
C 360.932601 419.343982 371.942392 414.483063 381.810667 407.768088 
C 391.678941 401.053113 400.241525 392.595798 407.078052 382.811339 
C 413.914579 373.02688 418.911312 362.078059 421.822945 350.50239 
C 424.734578 338.92672 425.512672 326.916783 424.119026 315.062185 
C 422.725381 303.207587 419.183182 291.705551 413.666328 281.120748 
C 408.149474 270.535945 400.749747 261.044471 391.830424 253.112295 
C 382.911101 245.18012 372.62057 238.939207 361.464027 234.695943 
C 350.307484 230.452679 338.470537 228.277659 326.534301 228.277662 
L 326.534306 252.841846 
C 335.486483 252.841844 344.364193 254.47311 352.7316 257.655557 
C 361.099007 260.838005 368.816906 265.51869 375.506398 271.467822 
C 382.19589 277.416953 387.745685 284.535558 391.883326 292.474161 
C 396.020966 300.412763 398.677615 309.039291 399.722849 317.930239 
C 400.768084 326.821187 400.184514 335.82864 398.000789 344.510392 
C 395.817064 353.192144 392.069514 361.40376 386.942119 368.742104 
C 381.814723 376.080448 375.392786 382.423435 367.99158 387.459666 
C 360.590374 392.495897 352.333031 396.141587 343.624931 398.217756 
C 334.916832 400.293925 325.902849 400.766032 317.02551 399.610901 
C 308.148171 398.45577 299.555165 395.692619 291.668351 391.457098 
C 283.781536 387.221577 276.732124 381.584153 270.866193 374.821585 
C 265.000262 368.059017 260.415402 360.283811 257.336699 351.877679 
C 254.257995 343.471546 252.736668 334.574338 252.847404 325.622845 
C 252.958139 316.671353 254.699096 307.814501 257.984804 299.4871 
C 261.270512 291.1597 266.046308 283.500292 272.077733 276.884901 
C 278.109158 270.269511 285.295869 264.808197 293.285046 260.769073 
z
" style="fill: #ec5860; stroke: #ffffff; stroke-linejoin: miter"/>
   </g>
   <g id="matplotlib.axis_1"/>
   <g id="matplotlib.axis_2"/>
   <g id="text_1">
    <!-- AUPRC_1 on generalized models -->
    <g transform="translate(190.572445 94.3392) scale(0.168 -0.168)">
     <defs>
      <path id="DejaVuSans-41" d="M 2188 4044 
L 1331 1722 
L 3047 1722 
L 2188 4044 
z
M 1831 4666 
L 2547 4666 
L 4325 0 
L 3669 0 
L 3244 1197 
L 1141 1197 
L 716 0 
L 50 0 
L 1831 4666 
z
" transform="scale(0.015625)"/>
      <path id="DejaVuSans-55" d="M 556 4666 
L 1191 4666 
L 1191 1831 
Q 1191 1081 1462 751 
Q 1734 422 2344 422 
Q 2950 422 3222 751 
Q 3494 1081 3494 1831 
L 3494 4666 
L 4128 4666 
L 4128 1753 
Q 4128 841 3676 375 
Q 3225 -91 2344 -91 
Q 1459 -91 1007 375 
Q 556 841 556 1753 
L 556 4666 
z
" transform="scale(0.015625)"/>
      <path id="DejaVuSans-50" d="M 1259 4147 
L 1259 2394 
L 2053 2394 
Q 2494 2394 2734 2622 
Q 2975 2850 2975 3272 
Q 2975 3691 2734 3919 
Q 2494 4147 2053 4147 
L 1259 4147 
z
M 628 4666 
L 2053 4666 
Q 2838 4666 3239 4311 
Q 3641 3956 3641 3272 
Q 3641 2581 3239 2228 
Q 2838 1875 2053 1875 
L 1259 1875 
L 1259 0 
L 628 0 
L 628 4666 
z
" transform="scale(0.015625)"/>
      <path id="DejaVuSans-52" d="M 2841 2188 
Q 3044 2119 3236 1894 
Q 3428 1669 3622 1275 
L 4263 0 
L 3584 0 
L 2988 1197 
Q 2756 1666 2539 1819 
Q 2322 1972 1947 1972 
L 1259 1972 
L 1259 0 
L 628 0 
L 628 4666 
L 2053 4666 
Q 2853 4666 3247 4331 
Q 3641 3997 3641 3322 
Q 3641 2881 3436 2590 
Q 3231 2300 2841 2188 
z
M 1259 4147 
L 1259 2491 
L 2053 2491 
Q 2509 2491 2742 2702 
Q 2975 2913 2975 3322 
Q 2975 3731 2742 3939 
Q 2509 4147 2053 4147 
L 1259 4147 
z
" transform="scale(0.015625)"/>
      <path id="DejaVuSans-43" d="M 4122 4306 
L 4122 3641 
Q 3803 3938 3442 4084 
Q 3081 4231 2675 4231 
Q 1875 4231 1450 3742 
Q 1025 3253 1025 2328 
Q 1025 1406 1450 917 
Q 1875 428 2675 428 
Q 3081 428 3442 575 
Q 3803 722 4122 1019 
L 4122 359 
Q 3791 134 3420 21 
Q 3050 -91 2638 -91 
Q 1578 -91 968 557 
Q 359 1206 359 2328 
Q 359 3453 968 4101 
Q 1578 4750 2638 4750 
Q 3056 4750 3426 4639 
Q 3797 4528 4122 4306 
z
" transform="scale(0.015625)"/>
      <path id="DejaVuSans-5f" d="M 3263 -1063 
L 3263 -1509 
L -63 -1509 
L -63 -1063 
L 3263 -1063 
z
" transform="scale(0.015625)"/>
      <path id="DejaVuSans-31" d="M 794 531 
L 1825 531 
L 1825 4091 
L 703 3866 
L 703 4441 
L 1819 4666 
L 2450 4666 
L 2450 531 
L 3481 531 
L 3481 0 
L 794 0 
L 794 531 
z
" transform="scale(0.015625)"/>
      <path id="DejaVuSans-20" transform="scale(0.015625)"/>
      <path id="DejaVuSans-6f" d="M 1959 3097 
Q 1497 3097 1228 2736 
Q 959 2375 959 1747 
Q 959 1119 1226 758 
Q 1494 397 1959 397 
Q 2419 397 2687 759 
Q 2956 1122 2956 1747 
Q 2956 2369 2687 2733 
Q 2419 3097 1959 3097 
z
M 1959 3584 
Q 2709 3584 3137 3096 
Q 3566 2609 3566 1747 
Q 3566 888 3137 398 
Q 2709 -91 1959 -91 
Q 1206 -91 779 398 
Q 353 888 353 1747 
Q 353 2609 779 3096 
Q 1206 3584 1959 3584 
z
" transform="scale(0.015625)"/>
      <path id="DejaVuSans-6e" d="M 3513 2113 
L 3513 0 
L 2938 0 
L 2938 2094 
Q 2938 2591 2744 2837 
Q 2550 3084 2163 3084 
Q 1697 3084 1428 2787 
Q 1159 2491 1159 1978 
L 1159 0 
L 581 0 
L 581 3500 
L 1159 3500 
L 1159 2956 
Q 1366 3272 1645 3428 
Q 1925 3584 2291 3584 
Q 2894 3584 3203 3211 
Q 3513 2838 3513 2113 
z
" transform="scale(0.015625)"/>
      <path id="DejaVuSans-67" d="M 2906 1791 
Q 2906 2416 2648 2759 
Q 2391 3103 1925 3103 
Q 1463 3103 1205 2759 
Q 947 2416 947 1791 
Q 947 1169 1205 825 
Q 1463 481 1925 481 
Q 2391 481 2648 825 
Q 2906 1169 2906 1791 
z
M 3481 434 
Q 3481 -459 3084 -895 
Q 2688 -1331 1869 -1331 
Q 1566 -1331 1297 -1286 
Q 1028 -1241 775 -1147 
L 775 -588 
Q 1028 -725 1275 -790 
Q 1522 -856 1778 -856 
Q 2344 -856 2625 -561 
Q 2906 -266 2906 331 
L 2906 616 
Q 2728 306 2450 153 
Q 2172 0 1784 0 
Q 1141 0 747 490 
Q 353 981 353 1791 
Q 353 2603 747 3093 
Q 1141 3584 1784 3584 
Q 2172 3584 2450 3431 
Q 2728 3278 2906 2969 
L 2906 3500 
L 3481 3500 
L 3481 434 
z
" transform="scale(0.015625)"/>
      <path id="DejaVuSans-65" d="M 3597 1894 
L 3597 1613 
L 953 1613 
Q 991 1019 1311 708 
Q 1631 397 2203 397 
Q 2534 397 2845 478 
Q 3156 559 3463 722 
L 3463 178 
Q 3153 47 2828 -22 
Q 2503 -91 2169 -91 
Q 1331 -91 842 396 
Q 353 884 353 1716 
Q 353 2575 817 3079 
Q 1281 3584 2069 3584 
Q 2775 3584 3186 3129 
Q 3597 2675 3597 1894 
z
M 3022 2063 
Q 3016 2534 2758 2815 
Q 2500 3097 2075 3097 
Q 1594 3097 1305 2825 
Q 1016 2553 972 2059 
L 3022 2063 
z
" transform="scale(0.015625)"/>
      <path id="DejaVuSans-72" d="M 2631 2963 
Q 2534 3019 2420 3045 
Q 2306 3072 2169 3072 
Q 1681 3072 1420 2755 
Q 1159 2438 1159 1844 
L 1159 0 
L 581 0 
L 581 3500 
L 1159 3500 
L 1159 2956 
Q 1341 3275 1631 3429 
Q 1922 3584 2338 3584 
Q 2397 3584 2469 3576 
Q 2541 3569 2628 3553 
L 2631 2963 
z
" transform="scale(0.015625)"/>
      <path id="DejaVuSans-61" d="M 2194 1759 
Q 1497 1759 1228 1600 
Q 959 1441 959 1056 
Q 959 750 1161 570 
Q 1363 391 1709 391 
Q 2188 391 2477 730 
Q 2766 1069 2766 1631 
L 2766 1759 
L 2194 1759 
z
M 3341 1997 
L 3341 0 
L 2766 0 
L 2766 531 
Q 2569 213 2275 61 
Q 1981 -91 1556 -91 
Q 1019 -91 701 211 
Q 384 513 384 1019 
Q 384 1609 779 1909 
Q 1175 2209 1959 2209 
L 2766 2209 
L 2766 2266 
Q 2766 2663 2505 2880 
Q 2244 3097 1772 3097 
Q 1472 3097 1187 3025 
Q 903 2953 641 2809 
L 641 3341 
Q 956 3463 1253 3523 
Q 1550 3584 1831 3584 
Q 2591 3584 2966 3190 
Q 3341 2797 3341 1997 
z
" transform="scale(0.015625)"/>
      <path id="DejaVuSans-6c" d="M 603 4863 
L 1178 4863 
L 1178 0 
L 603 0 
L 603 4863 
z
" transform="scale(0.015625)"/>
      <path id="DejaVuSans-69" d="M 603 3500 
L 1178 3500 
L 1178 0 
L 603 0 
L 603 3500 
z
M 603 4863 
L 1178 4863 
L 1178 4134 
L 603 4134 
L 603 4863 
z
" transform="scale(0.015625)"/>
      <path id="DejaVuSans-7a" d="M 353 3500 
L 3084 3500 
L 3084 2975 
L 922 459 
L 3084 459 
L 3084 0 
L 275 0 
L 275 525 
L 2438 3041 
L 353 3041 
L 353 3500 
z
" transform="scale(0.015625)"/>
      <path id="DejaVuSans-64" d="M 2906 2969 
L 2906 4863 
L 3481 4863 
L 3481 0 
L 2906 0 
L 2906 525 
Q 2725 213 2448 61 
Q 2172 -91 1784 -91 
Q 1150 -91 751 415 
Q 353 922 353 1747 
Q 353 2572 751 3078 
Q 1150 3584 1784 3584 
Q 2172 3584 2448 3432 
Q 2725 3281 2906 2969 
z
M 947 1747 
Q 947 1113 1208 752 
Q 1469 391 1925 391 
Q 2381 391 2643 752 
Q 2906 1113 2906 1747 
Q 2906 2381 2643 2742 
Q 2381 3103 1925 3103 
Q 1469 3103 1208 2742 
Q 947 2381 947 1747 
z
" transform="scale(0.015625)"/>
      <path id="DejaVuSans-6d" d="M 3328 2828 
Q 3544 3216 3844 3400 
Q 4144 3584 4550 3584 
Q 5097 3584 5394 3201 
Q 5691 2819 5691 2113 
L 5691 0 
L 5113 0 
L 5113 2094 
Q 5113 2597 4934 2840 
Q 4756 3084 4391 3084 
Q 3944 3084 3684 2787 
Q 3425 2491 3425 1978 
L 3425 0 
L 2847 0 
L 2847 2094 
Q 2847 2600 2669 2842 
Q 2491 3084 2119 3084 
Q 1678 3084 1418 2786 
Q 1159 2488 1159 1978 
L 1159 0 
L 581 0 
L 581 3500 
L 1159 3500 
L 1159 2956 
Q 1356 3278 1631 3431 
Q 1906 3584 2284 3584 
Q 2666 3584 2933 3390 
Q 3200 3197 3328 2828 
z
" transform="scale(0.015625)"/>
      <path id="DejaVuSans-73" d="M 2834 3397 
L 2834 2853 
Q 2591 2978 2328 3040 
Q 2066 3103 1784 3103 
Q 1356 3103 1142 2972 
Q 928 2841 928 2578 
Q 928 2378 1081 2264 
Q 1234 2150 1697 2047 
L 1894 2003 
Q 2506 1872 2764 1633 
Q 3022 1394 3022 966 
Q 3022 478 2636 193 
Q 2250 -91 1575 -91 
Q 1294 -91 989 -36 
Q 684 19 347 128 
L 347 722 
Q 666 556 975 473 
Q 1284 391 1588 391 
Q 1994 391 2212 530 
Q 2431 669 2431 922 
Q 2431 1156 2273 1281 
Q 2116 1406 1581 1522 
L 1381 1569 
Q 847 1681 609 1914 
Q 372 2147 372 2553 
Q 372 3047 722 3315 
Q 1072 3584 1716 3584 
Q 2034 3584 2315 3537 
Q 2597 3491 2834 3397 
z
" transform="scale(0.015625)"/>
     </defs>
     <use xlink:href="#DejaVuSans-41"/>
     <use xlink:href="#DejaVuSans-55" x="68.408203"/>
     <use xlink:href="#DejaVuSans-50" x="141.601562"/>
     <use xlink:href="#DejaVuSans-52" x="201.904297"/>
     <use xlink:href="#DejaVuSans-43" x="266.386719"/>
     <use xlink:href="#DejaVuSans-5f" x="336.210938"/>
     <use xlink:href="#DejaVuSans-31" x="386.210938"/>
     <use xlink:href="#DejaVuSans-20" x="449.833984"/>
     <use xlink:href="#DejaVuSans-6f" x="481.621094"/>
     <use xlink:href="#DejaVuSans-6e" x="542.802734"/>
     <use xlink:href="#DejaVuSans-20" x="606.181641"/>
     <use xlink:href="#DejaVuSans-67" x="637.96875"/>
     <use xlink:href="#DejaVuSans-65" x="701.445312"/>
     <use xlink:href="#DejaVuSans-6e" x="762.96875"/>
     <use xlink:href="#DejaVuSans-65" x="826.347656"/>
     <use xlink:href="#DejaVuSans-72" x="887.871094"/>
     <use xlink:href="#DejaVuSans-61" x="928.984375"/>
     <use xlink:href="#DejaVuSans-6c" x="990.263672"/>
     <use xlink:href="#DejaVuSans-69" x="1018.046875"/>
     <use xlink:href="#DejaVuSans-7a" x="1045.830078"/>
     <use xlink:href="#DejaVuSans-65" x="1098.320312"/>
     <use xlink:href="#DejaVuSans-64" x="1159.84375"/>
     <use xlink:href="#DejaVuSans-20" x="1223.320312"/>
     <use xlink:href="#DejaVuSans-6d" x="1255.107422"/>
     <use xlink:href="#DejaVuSans-6f" x="1352.519531"/>
     <use xlink:href="#DejaVuSans-64" x="1413.701172"/>
     <use xlink:href="#DejaVuSans-65" x="1477.177734"/>
     <use xlink:href="#DejaVuSans-6c" x="1538.701172"/>
     <use xlink:href="#DejaVuSans-73" x="1566.484375"/>
    </g>
   </g>
   <g id="legend_1">
    <g id="patch_22">
     <path d="M 595.44632 326.5344 
L 888.989132 326.5344 
Q 891.789132 326.5344 891.789132 323.7344 
L 891.789132 97.1444 
Q 891.789132 94.3444 888.989132 94.3444 
L 595.44632 94.3444 
Q 592.64632 94.3444 592.64632 97.1444 
L 592.64632 323.7344 
Q 592.64632 326.5344 595.44632 326.5344 
z
" style="fill: #ffffff; opacity: 0.8; stroke: #cccccc; stroke-linejoin: miter"/>
    </g>
    <g id="text_2">
     <!-- Models -->
     <g transform="translate(717.55257 110.582213) scale(0.14 -0.14)">
      <defs>
       <path id="DejaVuSans-4d" d="M 628 4666 
L 1569 4666 
L 2759 1491 
L 3956 4666 
L 4897 4666 
L 4897 0 
L 4281 0 
L 4281 4097 
L 3078 897 
L 2444 897 
L 1241 4097 
L 1241 0 
L 628 0 
L 628 4666 
z
" transform="scale(0.015625)"/>
      </defs>
      <use xlink:href="#DejaVuSans-4d"/>
      <use xlink:href="#DejaVuSans-6f" x="86.279297"/>
      <use xlink:href="#DejaVuSans-64" x="147.460938"/>
      <use xlink:href="#DejaVuSans-65" x="210.9375"/>
      <use xlink:href="#DejaVuSans-6c" x="272.460938"/>
      <use xlink:href="#DejaVuSans-73" x="300.244141"/>
     </g>
    </g>
    <g id="patch_23">
     <path d="M 598.24632 131.131588 
L 626.24632 131.131588 
L 626.24632 121.331588 
L 598.24632 121.331588 
z
" style="fill: #eb4f57; stroke: #ffffff; stroke-linejoin: miter"/>
    </g>
    <g id="text_3">
     <!-- xgboost (97.41%) -->
     <g transform="translate(637.44632 131.131588) scale(0.14 -0.14)">
      <defs>
       <path id="DejaVuSans-78" d="M 3513 3500 
L 2247 1797 
L 3578 0 
L 2900 0 
L 1881 1375 
L 863 0 
L 184 0 
L 1544 1831 
L 300 3500 
L 978 3500 
L 1906 2253 
L 2834 3500 
L 3513 3500 
z
" transform="scale(0.015625)"/>
       <path id="DejaVuSans-62" d="M 3116 1747 
Q 3116 2381 2855 2742 
Q 2594 3103 2138 3103 
Q 1681 3103 1420 2742 
Q 1159 2381 1159 1747 
Q 1159 1113 1420 752 
Q 1681 391 2138 391 
Q 2594 391 2855 752 
Q 3116 1113 3116 1747 
z
M 1159 2969 
Q 1341 3281 1617 3432 
Q 1894 3584 2278 3584 
Q 2916 3584 3314 3078 
Q 3713 2572 3713 1747 
Q 3713 922 3314 415 
Q 2916 -91 2278 -91 
Q 1894 -91 1617 61 
Q 1341 213 1159 525 
L 1159 0 
L 581 0 
L 581 4863 
L 1159 4863 
L 1159 2969 
z
" transform="scale(0.015625)"/>
       <path id="DejaVuSans-74" d="M 1172 4494 
L 1172 3500 
L 2356 3500 
L 2356 3053 
L 1172 3053 
L 1172 1153 
Q 1172 725 1289 603 
Q 1406 481 1766 481 
L 2356 481 
L 2356 0 
L 1766 0 
Q 1100 0 847 248 
Q 594 497 594 1153 
L 594 3053 
L 172 3053 
L 172 3500 
L 594 3500 
L 594 4494 
L 1172 4494 
z
" transform="scale(0.015625)"/>
       <path id="DejaVuSans-28" d="M 1984 4856 
Q 1566 4138 1362 3434 
Q 1159 2731 1159 2009 
Q 1159 1288 1364 580 
Q 1569 -128 1984 -844 
L 1484 -844 
Q 1016 -109 783 600 
Q 550 1309 550 2009 
Q 550 2706 781 3412 
Q 1013 4119 1484 4856 
L 1984 4856 
z
" transform="scale(0.015625)"/>
       <path id="DejaVuSans-39" d="M 703 97 
L 703 672 
Q 941 559 1184 500 
Q 1428 441 1663 441 
Q 2288 441 2617 861 
Q 2947 1281 2994 2138 
Q 2813 1869 2534 1725 
Q 2256 1581 1919 1581 
Q 1219 1581 811 2004 
Q 403 2428 403 3163 
Q 403 3881 828 4315 
Q 1253 4750 1959 4750 
Q 2769 4750 3195 4129 
Q 3622 3509 3622 2328 
Q 3622 1225 3098 567 
Q 2575 -91 1691 -91 
Q 1453 -91 1209 -44 
Q 966 3 703 97 
z
M 1959 2075 
Q 2384 2075 2632 2365 
Q 2881 2656 2881 3163 
Q 2881 3666 2632 3958 
Q 2384 4250 1959 4250 
Q 1534 4250 1286 3958 
Q 1038 3666 1038 3163 
Q 1038 2656 1286 2365 
Q 1534 2075 1959 2075 
z
" transform="scale(0.015625)"/>
       <path id="DejaVuSans-37" d="M 525 4666 
L 3525 4666 
L 3525 4397 
L 1831 0 
L 1172 0 
L 2766 4134 
L 525 4134 
L 525 4666 
z
" transform="scale(0.015625)"/>
       <path id="DejaVuSans-2e" d="M 684 794 
L 1344 794 
L 1344 0 
L 684 0 
L 684 794 
z
" transform="scale(0.015625)"/>
       <path id="DejaVuSans-34" d="M 2419 4116 
L 825 1625 
L 2419 1625 
L 2419 4116 
z
M 2253 4666 
L 3047 4666 
L 3047 1625 
L 3713 1625 
L 3713 1100 
L 3047 1100 
L 3047 0 
L 2419 0 
L 2419 1100 
L 313 1100 
L 313 1709 
L 2253 4666 
z
" transform="scale(0.015625)"/>
       <path id="DejaVuSans-25" d="M 4653 2053 
Q 4381 2053 4226 1822 
Q 4072 1591 4072 1178 
Q 4072 772 4226 539 
Q 4381 306 4653 306 
Q 4919 306 5073 539 
Q 5228 772 5228 1178 
Q 5228 1588 5073 1820 
Q 4919 2053 4653 2053 
z
M 4653 2450 
Q 5147 2450 5437 2106 
Q 5728 1763 5728 1178 
Q 5728 594 5436 251 
Q 5144 -91 4653 -91 
Q 4153 -91 3862 251 
Q 3572 594 3572 1178 
Q 3572 1766 3864 2108 
Q 4156 2450 4653 2450 
z
M 1428 4353 
Q 1159 4353 1004 4120 
Q 850 3888 850 3481 
Q 850 3069 1003 2837 
Q 1156 2606 1428 2606 
Q 1700 2606 1854 2837 
Q 2009 3069 2009 3481 
Q 2009 3884 1853 4118 
Q 1697 4353 1428 4353 
z
M 4250 4750 
L 4750 4750 
L 1831 -91 
L 1331 -91 
L 4250 4750 
z
M 1428 4750 
Q 1922 4750 2215 4408 
Q 2509 4066 2509 3481 
Q 2509 2891 2217 2550 
Q 1925 2209 1428 2209 
Q 931 2209 642 2551 
Q 353 2894 353 3481 
Q 353 4063 643 4406 
Q 934 4750 1428 4750 
z
" transform="scale(0.015625)"/>
       <path id="DejaVuSans-29" d="M 513 4856 
L 1013 4856 
Q 1481 4119 1714 3412 
Q 1947 2706 1947 2009 
Q 1947 1309 1714 600 
Q 1481 -109 1013 -844 
L 513 -844 
Q 928 -128 1133 580 
Q 1338 1288 1338 2009 
Q 1338 2731 1133 3434 
Q 928 4138 513 4856 
z
" transform="scale(0.015625)"/>
      </defs>
      <use xlink:href="#DejaVuSans-78"/>
      <use xlink:href="#DejaVuSans-67" x="59.179688"/>
      <use xlink:href="#DejaVuSans-62" x="122.65625"/>
      <use xlink:href="#DejaVuSans-6f" x="186.132812"/>
      <use xlink:href="#DejaVuSans-6f" x="247.314453"/>
      <use xlink:href="#DejaVuSans-73" x="308.496094"/>
      <use xlink:href="#DejaVuSans-74" x="360.595703"/>
      <use xlink:href="#DejaVuSans-20" x="399.804688"/>
      <use xlink:href="#DejaVuSans-28" x="431.591797"/>
      <use xlink:href="#DejaVuSans-39" x="470.605469"/>
      <use xlink:href="#DejaVuSans-37" x="534.228516"/>
      <use xlink:href="#DejaVuSans-2e" x="597.851562"/>
      <use xlink:href="#DejaVuSans-34" x="629.638672"/>
      <use xlink:href="#DejaVuSans-31" x="693.261719"/>
      <use xlink:href="#DejaVuSans-25" x="756.884766"/>
      <use xlink:href="#DejaVuSans-29" x="851.904297"/>
     </g>
    </g>
    <g id="patch_24">
     <path d="M 598.24632 151.680963 
L 626.24632 151.680963 
L 626.24632 141.880963 
L 598.24632 141.880963 
z
" style="fill: #eb4f57; stroke: #ffffff; stroke-linejoin: miter"/>
    </g>
    <g id="text_4">
     <!-- random_forest (97.19%) -->
     <g transform="translate(637.44632 151.680963) scale(0.14 -0.14)">
      <defs>
       <path id="DejaVuSans-66" d="M 2375 4863 
L 2375 4384 
L 1825 4384 
Q 1516 4384 1395 4259 
Q 1275 4134 1275 3809 
L 1275 3500 
L 2222 3500 
L 2222 3053 
L 1275 3053 
L 1275 0 
L 697 0 
L 697 3053 
L 147 3053 
L 147 3500 
L 697 3500 
L 697 3744 
Q 697 4328 969 4595 
Q 1241 4863 1831 4863 
L 2375 4863 
z
" transform="scale(0.015625)"/>
      </defs>
      <use xlink:href="#DejaVuSans-72"/>
      <use xlink:href="#DejaVuSans-61" x="41.113281"/>
      <use xlink:href="#DejaVuSans-6e" x="102.392578"/>
      <use xlink:href="#DejaVuSans-64" x="165.771484"/>
      <use xlink:href="#DejaVuSans-6f" x="229.248047"/>
      <use xlink:href="#DejaVuSans-6d" x="290.429688"/>
      <use xlink:href="#DejaVuSans-5f" x="387.841797"/>
      <use xlink:href="#DejaVuSans-66" x="437.841797"/>
      <use xlink:href="#DejaVuSans-6f" x="473.046875"/>
      <use xlink:href="#DejaVuSans-72" x="534.228516"/>
      <use xlink:href="#DejaVuSans-65" x="573.091797"/>
      <use xlink:href="#DejaVuSans-73" x="634.615234"/>
      <use xlink:href="#DejaVuSans-74" x="686.714844"/>
      <use xlink:href="#DejaVuSans-20" x="725.923828"/>
      <use xlink:href="#DejaVuSans-28" x="757.710938"/>
      <use xlink:href="#DejaVuSans-39" x="796.724609"/>
      <use xlink:href="#DejaVuSans-37" x="860.347656"/>
      <use xlink:href="#DejaVuSans-2e" x="923.970703"/>
      <use xlink:href="#DejaVuSans-31" x="955.757812"/>
      <use xlink:href="#DejaVuSans-39" x="1019.380859"/>
      <use xlink:href="#DejaVuSans-25" x="1083.003906"/>
      <use xlink:href="#DejaVuSans-29" x="1178.023438"/>
     </g>
    </g>
    <g id="patch_25">
     <path d="M 598.24632 172.619713 
L 626.24632 172.619713 
L 626.24632 162.819713 
L 598.24632 162.819713 
z
" style="fill: #eb4f57; stroke: #ffffff; stroke-linejoin: miter"/>
    </g>
    <g id="text_5">
     <!-- neural_network (97.01%) -->
     <g transform="translate(637.44632 172.619713) scale(0.14 -0.14)">
      <defs>
       <path id="DejaVuSans-75" d="M 544 1381 
L 544 3500 
L 1119 3500 
L 1119 1403 
Q 1119 906 1312 657 
Q 1506 409 1894 409 
Q 2359 409 2629 706 
Q 2900 1003 2900 1516 
L 2900 3500 
L 3475 3500 
L 3475 0 
L 2900 0 
L 2900 538 
Q 2691 219 2414 64 
Q 2138 -91 1772 -91 
Q 1169 -91 856 284 
Q 544 659 544 1381 
z
M 1991 3584 
L 1991 3584 
z
" transform="scale(0.015625)"/>
       <path id="DejaVuSans-77" d="M 269 3500 
L 844 3500 
L 1563 769 
L 2278 3500 
L 2956 3500 
L 3675 769 
L 4391 3500 
L 4966 3500 
L 4050 0 
L 3372 0 
L 2619 2869 
L 1863 0 
L 1184 0 
L 269 3500 
z
" transform="scale(0.015625)"/>
       <path id="DejaVuSans-6b" d="M 581 4863 
L 1159 4863 
L 1159 1991 
L 2875 3500 
L 3609 3500 
L 1753 1863 
L 3688 0 
L 2938 0 
L 1159 1709 
L 1159 0 
L 581 0 
L 581 4863 
z
" transform="scale(0.015625)"/>
       <path id="DejaVuSans-30" d="M 2034 4250 
Q 1547 4250 1301 3770 
Q 1056 3291 1056 2328 
Q 1056 1369 1301 889 
Q 1547 409 2034 409 
Q 2525 409 2770 889 
Q 3016 1369 3016 2328 
Q 3016 3291 2770 3770 
Q 2525 4250 2034 4250 
z
M 2034 4750 
Q 2819 4750 3233 4129 
Q 3647 3509 3647 2328 
Q 3647 1150 3233 529 
Q 2819 -91 2034 -91 
Q 1250 -91 836 529 
Q 422 1150 422 2328 
Q 422 3509 836 4129 
Q 1250 4750 2034 4750 
z
" transform="scale(0.015625)"/>
      </defs>
      <use xlink:href="#DejaVuSans-6e"/>
      <use xlink:href="#DejaVuSans-65" x="63.378906"/>
      <use xlink:href="#DejaVuSans-75" x="124.902344"/>
      <use xlink:href="#DejaVuSans-72" x="188.28125"/>
      <use xlink:href="#DejaVuSans-61" x="229.394531"/>
      <use xlink:href="#DejaVuSans-6c" x="290.673828"/>
      <use xlink:href="#DejaVuSans-5f" x="318.457031"/>
      <use xlink:href="#DejaVuSans-6e" x="368.457031"/>
      <use xlink:href="#DejaVuSans-65" x="431.835938"/>
      <use xlink:href="#DejaVuSans-74" x="493.359375"/>
      <use xlink:href="#DejaVuSans-77" x="532.568359"/>
      <use xlink:href="#DejaVuSans-6f" x="614.355469"/>
      <use xlink:href="#DejaVuSans-72" x="675.537109"/>
      <use xlink:href="#DejaVuSans-6b" x="716.650391"/>
      <use xlink:href="#DejaVuSans-20" x="774.560547"/>
      <use xlink:href="#DejaVuSans-28" x="806.347656"/>
      <use xlink:href="#DejaVuSans-39" x="845.361328"/>
      <use xlink:href="#DejaVuSans-37" x="908.984375"/>
      <use xlink:href="#DejaVuSans-2e" x="972.607422"/>
      <use xlink:href="#DejaVuSans-30" x="1004.394531"/>
      <use xlink:href="#DejaVuSans-31" x="1068.017578"/>
      <use xlink:href="#DejaVuSans-25" x="1131.640625"/>
      <use xlink:href="#DejaVuSans-29" x="1226.660156"/>
     </g>
    </g>
    <g id="patch_26">
     <path d="M 598.24632 193.558463 
L 626.24632 193.558463 
L 626.24632 183.758463 
L 598.24632 183.758463 
z
" style="fill: #eb4f57; stroke: #ffffff; stroke-linejoin: miter"/>
    </g>
    <g id="text_6">
     <!-- logistic_regression (97.0%) -->
     <g transform="translate(637.44632 193.558463) scale(0.14 -0.14)">
      <defs>
       <path id="DejaVuSans-63" d="M 3122 3366 
L 3122 2828 
Q 2878 2963 2633 3030 
Q 2388 3097 2138 3097 
Q 1578 3097 1268 2742 
Q 959 2388 959 1747 
Q 959 1106 1268 751 
Q 1578 397 2138 397 
Q 2388 397 2633 464 
Q 2878 531 3122 666 
L 3122 134 
Q 2881 22 2623 -34 
Q 2366 -91 2075 -91 
Q 1284 -91 818 406 
Q 353 903 353 1747 
Q 353 2603 823 3093 
Q 1294 3584 2113 3584 
Q 2378 3584 2631 3529 
Q 2884 3475 3122 3366 
z
" transform="scale(0.015625)"/>
      </defs>
      <use xlink:href="#DejaVuSans-6c"/>
      <use xlink:href="#DejaVuSans-6f" x="27.783203"/>
      <use xlink:href="#DejaVuSans-67" x="88.964844"/>
      <use xlink:href="#DejaVuSans-69" x="152.441406"/>
      <use xlink:href="#DejaVuSans-73" x="180.224609"/>
      <use xlink:href="#DejaVuSans-74" x="232.324219"/>
      <use xlink:href="#DejaVuSans-69" x="271.533203"/>
      <use xlink:href="#DejaVuSans-63" x="299.316406"/>
      <use xlink:href="#DejaVuSans-5f" x="354.296875"/>
      <use xlink:href="#DejaVuSans-72" x="404.296875"/>
      <use xlink:href="#DejaVuSans-65" x="443.160156"/>
      <use xlink:href="#DejaVuSans-67" x="504.683594"/>
      <use xlink:href="#DejaVuSans-72" x="568.160156"/>
      <use xlink:href="#DejaVuSans-65" x="607.023438"/>
      <use xlink:href="#DejaVuSans-73" x="668.546875"/>
      <use xlink:href="#DejaVuSans-73" x="720.646484"/>
      <use xlink:href="#DejaVuSans-69" x="772.746094"/>
      <use xlink:href="#DejaVuSans-6f" x="800.529297"/>
      <use xlink:href="#DejaVuSans-6e" x="861.710938"/>
      <use xlink:href="#DejaVuSans-20" x="925.089844"/>
      <use xlink:href="#DejaVuSans-28" x="956.876953"/>
      <use xlink:href="#DejaVuSans-39" x="995.890625"/>
      <use xlink:href="#DejaVuSans-37" x="1059.513672"/>
      <use xlink:href="#DejaVuSans-2e" x="1123.136719"/>
      <use xlink:href="#DejaVuSans-30" x="1154.923828"/>
      <use xlink:href="#DejaVuSans-25" x="1218.546875"/>
      <use xlink:href="#DejaVuSans-29" x="1313.566406"/>
     </g>
    </g>
    <g id="patch_27">
     <path d="M 598.24632 214.497213 
L 626.24632 214.497213 
L 626.24632 204.697213 
L 598.24632 204.697213 
z
" style="fill: #eb5159; stroke: #ffffff; stroke-linejoin: miter"/>
    </g>
    <g id="text_7">
     <!-- svm (96.96%) -->
     <g transform="translate(637.44632 214.497213) scale(0.14 -0.14)">
      <defs>
       <path id="DejaVuSans-76" d="M 191 3500 
L 800 3500 
L 1894 563 
L 2988 3500 
L 3597 3500 
L 2284 0 
L 1503 0 
L 191 3500 
z
" transform="scale(0.015625)"/>
       <path id="DejaVuSans-36" d="M 2113 2584 
Q 1688 2584 1439 2293 
Q 1191 2003 1191 1497 
Q 1191 994 1439 701 
Q 1688 409 2113 409 
Q 2538 409 2786 701 
Q 3034 994 3034 1497 
Q 3034 2003 2786 2293 
Q 2538 2584 2113 2584 
z
M 3366 4563 
L 3366 3988 
Q 3128 4100 2886 4159 
Q 2644 4219 2406 4219 
Q 1781 4219 1451 3797 
Q 1122 3375 1075 2522 
Q 1259 2794 1537 2939 
Q 1816 3084 2150 3084 
Q 2853 3084 3261 2657 
Q 3669 2231 3669 1497 
Q 3669 778 3244 343 
Q 2819 -91 2113 -91 
Q 1303 -91 875 529 
Q 447 1150 447 2328 
Q 447 3434 972 4092 
Q 1497 4750 2381 4750 
Q 2619 4750 2861 4703 
Q 3103 4656 3366 4563 
z
" transform="scale(0.015625)"/>
      </defs>
      <use xlink:href="#DejaVuSans-73"/>
      <use xlink:href="#DejaVuSans-76" x="52.099609"/>
      <use xlink:href="#DejaVuSans-6d" x="111.279297"/>
      <use xlink:href="#DejaVuSans-20" x="208.691406"/>
      <use xlink:href="#DejaVuSans-28" x="240.478516"/>
      <use xlink:href="#DejaVuSans-39" x="279.492188"/>
      <use xlink:href="#DejaVuSans-36" x="343.115234"/>
      <use xlink:href="#DejaVuSans-2e" x="406.738281"/>
      <use xlink:href="#DejaVuSans-39" x="438.525391"/>
      <use xlink:href="#DejaVuSans-36" x="502.148438"/>
      <use xlink:href="#DejaVuSans-25" x="565.771484"/>
      <use xlink:href="#DejaVuSans-29" x="660.791016"/>
     </g>
    </g>
    <g id="patch_28">
     <path d="M 598.24632 235.046588 
L 626.24632 235.046588 
L 626.24632 225.246588 
L 598.24632 225.246588 
z
" style="fill: #eb5159; stroke: #ffffff; stroke-linejoin: miter"/>
    </g>
    <g id="text_8">
     <!-- crf (96.8%) -->
     <g transform="translate(637.44632 235.046588) scale(0.14 -0.14)">
      <defs>
       <path id="DejaVuSans-38" d="M 2034 2216 
Q 1584 2216 1326 1975 
Q 1069 1734 1069 1313 
Q 1069 891 1326 650 
Q 1584 409 2034 409 
Q 2484 409 2743 651 
Q 3003 894 3003 1313 
Q 3003 1734 2745 1975 
Q 2488 2216 2034 2216 
z
M 1403 2484 
Q 997 2584 770 2862 
Q 544 3141 544 3541 
Q 544 4100 942 4425 
Q 1341 4750 2034 4750 
Q 2731 4750 3128 4425 
Q 3525 4100 3525 3541 
Q 3525 3141 3298 2862 
Q 3072 2584 2669 2484 
Q 3125 2378 3379 2068 
Q 3634 1759 3634 1313 
Q 3634 634 3220 271 
Q 2806 -91 2034 -91 
Q 1263 -91 848 271 
Q 434 634 434 1313 
Q 434 1759 690 2068 
Q 947 2378 1403 2484 
z
M 1172 3481 
Q 1172 3119 1398 2916 
Q 1625 2713 2034 2713 
Q 2441 2713 2670 2916 
Q 2900 3119 2900 3481 
Q 2900 3844 2670 4047 
Q 2441 4250 2034 4250 
Q 1625 4250 1398 4047 
Q 1172 3844 1172 3481 
z
" transform="scale(0.015625)"/>
      </defs>
      <use xlink:href="#DejaVuSans-63"/>
      <use xlink:href="#DejaVuSans-72" x="54.980469"/>
      <use xlink:href="#DejaVuSans-66" x="96.09375"/>
      <use xlink:href="#DejaVuSans-20" x="131.298828"/>
      <use xlink:href="#DejaVuSans-28" x="163.085938"/>
      <use xlink:href="#DejaVuSans-39" x="202.099609"/>
      <use xlink:href="#DejaVuSans-36" x="265.722656"/>
      <use xlink:href="#DejaVuSans-2e" x="329.345703"/>
      <use xlink:href="#DejaVuSans-38" x="361.132812"/>
      <use xlink:href="#DejaVuSans-25" x="424.755859"/>
      <use xlink:href="#DejaVuSans-29" x="519.775391"/>
     </g>
    </g>
    <g id="patch_29">
     <path d="M 598.24632 255.595963 
L 626.24632 255.595963 
L 626.24632 245.795963 
L 598.24632 245.795963 
z
" style="fill: #eb555c; stroke: #ffffff; stroke-linejoin: miter"/>
    </g>
    <g id="text_9">
     <!-- recurrent_neural_network (94.89%) -->
     <g transform="translate(637.44632 255.595963) scale(0.14 -0.14)">
      <use xlink:href="#DejaVuSans-72"/>
      <use xlink:href="#DejaVuSans-65" x="38.863281"/>
      <use xlink:href="#DejaVuSans-63" x="100.386719"/>
      <use xlink:href="#DejaVuSans-75" x="155.367188"/>
      <use xlink:href="#DejaVuSans-72" x="218.746094"/>
      <use xlink:href="#DejaVuSans-72" x="258.109375"/>
      <use xlink:href="#DejaVuSans-65" x="296.972656"/>
      <use xlink:href="#DejaVuSans-6e" x="358.496094"/>
      <use xlink:href="#DejaVuSans-74" x="421.875"/>
      <use xlink:href="#DejaVuSans-5f" x="461.083984"/>
      <use xlink:href="#DejaVuSans-6e" x="511.083984"/>
      <use xlink:href="#DejaVuSans-65" x="574.462891"/>
      <use xlink:href="#DejaVuSans-75" x="635.986328"/>
      <use xlink:href="#DejaVuSans-72" x="699.365234"/>
      <use xlink:href="#DejaVuSans-61" x="740.478516"/>
      <use xlink:href="#DejaVuSans-6c" x="801.757812"/>
      <use xlink:href="#DejaVuSans-5f" x="829.541016"/>
      <use xlink:href="#DejaVuSans-6e" x="879.541016"/>
      <use xlink:href="#DejaVuSans-65" x="942.919922"/>
      <use xlink:href="#DejaVuSans-74" x="1004.443359"/>
      <use xlink:href="#DejaVuSans-77" x="1043.652344"/>
      <use xlink:href="#DejaVuSans-6f" x="1125.439453"/>
      <use xlink:href="#DejaVuSans-72" x="1186.621094"/>
      <use xlink:href="#DejaVuSans-6b" x="1227.734375"/>
      <use xlink:href="#DejaVuSans-20" x="1285.644531"/>
      <use xlink:href="#DejaVuSans-28" x="1317.431641"/>
      <use xlink:href="#DejaVuSans-39" x="1356.445312"/>
      <use xlink:href="#DejaVuSans-34" x="1420.068359"/>
      <use xlink:href="#DejaVuSans-2e" x="1483.691406"/>
      <use xlink:href="#DejaVuSans-38" x="1515.478516"/>
      <use xlink:href="#DejaVuSans-39" x="1579.101562"/>
      <use xlink:href="#DejaVuSans-25" x="1642.724609"/>
      <use xlink:href="#DejaVuSans-29" x="1737.744141"/>
     </g>
    </g>
    <g id="patch_30">
     <path d="M 598.24632 276.534713 
L 626.24632 276.534713 
L 626.24632 266.734713 
L 598.24632 266.734713 
z
" style="fill: #eb575e; stroke: #ffffff; stroke-linejoin: miter"/>
    </g>
    <g id="text_10">
     <!-- naive_bayes (93.4%) -->
     <g transform="translate(637.44632 276.534713) scale(0.14 -0.14)">
      <defs>
       <path id="DejaVuSans-79" d="M 2059 -325 
Q 1816 -950 1584 -1140 
Q 1353 -1331 966 -1331 
L 506 -1331 
L 506 -850 
L 844 -850 
Q 1081 -850 1212 -737 
Q 1344 -625 1503 -206 
L 1606 56 
L 191 3500 
L 800 3500 
L 1894 763 
L 2988 3500 
L 3597 3500 
L 2059 -325 
z
" transform="scale(0.015625)"/>
       <path id="DejaVuSans-33" d="M 2597 2516 
Q 3050 2419 3304 2112 
Q 3559 1806 3559 1356 
Q 3559 666 3084 287 
Q 2609 -91 1734 -91 
Q 1441 -91 1130 -33 
Q 819 25 488 141 
L 488 750 
Q 750 597 1062 519 
Q 1375 441 1716 441 
Q 2309 441 2620 675 
Q 2931 909 2931 1356 
Q 2931 1769 2642 2001 
Q 2353 2234 1838 2234 
L 1294 2234 
L 1294 2753 
L 1863 2753 
Q 2328 2753 2575 2939 
Q 2822 3125 2822 3475 
Q 2822 3834 2567 4026 
Q 2313 4219 1838 4219 
Q 1578 4219 1281 4162 
Q 984 4106 628 3988 
L 628 4550 
Q 988 4650 1302 4700 
Q 1616 4750 1894 4750 
Q 2613 4750 3031 4423 
Q 3450 4097 3450 3541 
Q 3450 3153 3228 2886 
Q 3006 2619 2597 2516 
z
" transform="scale(0.015625)"/>
      </defs>
      <use xlink:href="#DejaVuSans-6e"/>
      <use xlink:href="#DejaVuSans-61" x="63.378906"/>
      <use xlink:href="#DejaVuSans-69" x="124.658203"/>
      <use xlink:href="#DejaVuSans-76" x="152.441406"/>
      <use xlink:href="#DejaVuSans-65" x="211.621094"/>
      <use xlink:href="#DejaVuSans-5f" x="273.144531"/>
      <use xlink:href="#DejaVuSans-62" x="323.144531"/>
      <use xlink:href="#DejaVuSans-61" x="386.621094"/>
      <use xlink:href="#DejaVuSans-79" x="447.900391"/>
      <use xlink:href="#DejaVuSans-65" x="507.080078"/>
      <use xlink:href="#DejaVuSans-73" x="568.603516"/>
      <use xlink:href="#DejaVuSans-20" x="620.703125"/>
      <use xlink:href="#DejaVuSans-28" x="652.490234"/>
      <use xlink:href="#DejaVuSans-39" x="691.503906"/>
      <use xlink:href="#DejaVuSans-33" x="755.126953"/>
      <use xlink:href="#DejaVuSans-2e" x="818.75"/>
      <use xlink:href="#DejaVuSans-34" x="850.537109"/>
      <use xlink:href="#DejaVuSans-25" x="914.160156"/>
      <use xlink:href="#DejaVuSans-29" x="1009.179688"/>
     </g>
    </g>
    <g id="patch_31">
     <path d="M 598.24632 297.473463 
L 626.24632 297.473463 
L 626.24632 287.673463 
L 598.24632 287.673463 
z
" style="fill: #ec5860; stroke: #ffffff; stroke-linejoin: miter"/>
    </g>
    <g id="text_11">
     <!-- hmm (92.94%) -->
     <g transform="translate(637.44632 297.473463) scale(0.14 -0.14)">
      <defs>
       <path id="DejaVuSans-68" d="M 3513 2113 
L 3513 0 
L 2938 0 
L 2938 2094 
Q 2938 2591 2744 2837 
Q 2550 3084 2163 3084 
Q 1697 3084 1428 2787 
Q 1159 2491 1159 1978 
L 1159 0 
L 581 0 
L 581 4863 
L 1159 4863 
L 1159 2956 
Q 1366 3272 1645 3428 
Q 1925 3584 2291 3584 
Q 2894 3584 3203 3211 
Q 3513 2838 3513 2113 
z
" transform="scale(0.015625)"/>
       <path id="DejaVuSans-32" d="M 1228 531 
L 3431 531 
L 3431 0 
L 469 0 
L 469 531 
Q 828 903 1448 1529 
Q 2069 2156 2228 2338 
Q 2531 2678 2651 2914 
Q 2772 3150 2772 3378 
Q 2772 3750 2511 3984 
Q 2250 4219 1831 4219 
Q 1534 4219 1204 4116 
Q 875 4013 500 3803 
L 500 4441 
Q 881 4594 1212 4672 
Q 1544 4750 1819 4750 
Q 2544 4750 2975 4387 
Q 3406 4025 3406 3419 
Q 3406 3131 3298 2873 
Q 3191 2616 2906 2266 
Q 2828 2175 2409 1742 
Q 1991 1309 1228 531 
z
" transform="scale(0.015625)"/>
      </defs>
      <use xlink:href="#DejaVuSans-68"/>
      <use xlink:href="#DejaVuSans-6d" x="63.378906"/>
      <use xlink:href="#DejaVuSans-6d" x="160.791016"/>
      <use xlink:href="#DejaVuSans-20" x="258.203125"/>
      <use xlink:href="#DejaVuSans-28" x="289.990234"/>
      <use xlink:href="#DejaVuSans-39" x="329.003906"/>
      <use xlink:href="#DejaVuSans-32" x="392.626953"/>
      <use xlink:href="#DejaVuSans-2e" x="456.25"/>
      <use xlink:href="#DejaVuSans-39" x="488.037109"/>
      <use xlink:href="#DejaVuSans-34" x="551.660156"/>
      <use xlink:href="#DejaVuSans-25" x="615.283203"/>
      <use xlink:href="#DejaVuSans-29" x="710.302734"/>
     </g>
    </g>
    <g id="patch_32">
     <path d="M 598.24632 318.022838 
L 626.24632 318.022838 
L 626.24632 308.222838 
L 598.24632 308.222838 
z
" style="fill: #ec5860; stroke: #ffffff; stroke-linejoin: miter"/>
    </g>
    <g id="text_12">
     <!-- knn (92.55%) -->
     <g transform="translate(637.44632 318.022838) scale(0.14 -0.14)">
      <defs>
       <path id="DejaVuSans-35" d="M 691 4666 
L 3169 4666 
L 3169 4134 
L 1269 4134 
L 1269 2991 
Q 1406 3038 1543 3061 
Q 1681 3084 1819 3084 
Q 2600 3084 3056 2656 
Q 3513 2228 3513 1497 
Q 3513 744 3044 326 
Q 2575 -91 1722 -91 
Q 1428 -91 1123 -41 
Q 819 9 494 109 
L 494 744 
Q 775 591 1075 516 
Q 1375 441 1709 441 
Q 2250 441 2565 725 
Q 2881 1009 2881 1497 
Q 2881 1984 2565 2268 
Q 2250 2553 1709 2553 
Q 1456 2553 1204 2497 
Q 953 2441 691 2322 
L 691 4666 
z
" transform="scale(0.015625)"/>
      </defs>
      <use xlink:href="#DejaVuSans-6b"/>
      <use xlink:href="#DejaVuSans-6e" x="57.910156"/>
      <use xlink:href="#DejaVuSans-6e" x="121.289062"/>
      <use xlink:href="#DejaVuSans-20" x="184.667969"/>
      <use xlink:href="#DejaVuSans-28" x="216.455078"/>
      <use xlink:href="#DejaVuSans-39" x="255.46875"/>
      <use xlink:href="#DejaVuSans-32" x="319.091797"/>
      <use xlink:href="#DejaVuSans-2e" x="382.714844"/>
      <use xlink:href="#DejaVuSans-35" x="414.501953"/>
      <use xlink:href="#DejaVuSans-35" x="478.125"/>
      <use xlink:href="#DejaVuSans-25" x="541.748047"/>
      <use xlink:href="#DejaVuSans-29" x="636.767578"/>
     </g>
    </g>
   </g>
  </g>
 </g>
</svg>
