<?xml version="1.0" encoding="utf-8" standalone="no"?>
<!DOCTYPE svg PUBLIC "-//W3C//DTD SVG 1.1//EN"
  "http://www.w3.org/Graphics/SVG/1.1/DTD/svg11.dtd">
<svg xmlns:xlink="http://www.w3.org/1999/xlink" width="898.989018pt" height="653.068662pt" viewBox="0 0 898.989018 653.068662" xmlns="http://www.w3.org/2000/svg" version="1.1">
 <metadata>
  <rdf:RDF xmlns:dc="http://purl.org/dc/elements/1.1/" xmlns:cc="http://creativecommons.org/ns#" xmlns:rdf="http://www.w3.org/1999/02/22-rdf-syntax-ns#">
   <cc:Work>
    <dc:type rdf:resource="http://purl.org/dc/dcmitype/StillImage"/>
    <dc:date>2023-11-21T14:35:48.260668</dc:date>
    <dc:format>image/svg+xml</dc:format>
    <dc:creator>
     <cc:Agent>
      <dc:title>Matplotlib v3.7.0, https://matplotlib.org/</dc:title>
     </cc:Agent>
    </dc:creator>
   </cc:Work>
  </rdf:RDF>
 </metadata>
 <defs>
  <style type="text/css">*{stroke-linejoin: round; stroke-linecap: butt}</style>
 </defs>
 <g id="figure_1">
  <g id="patch_1">
   <path d="M -0 653.068662 
L 898.989018 653.068662 
L 898.989018 0 
L -0 0 
z
" style="fill: #ffffff"/>
  </g>
  <g id="axes_1">
   <g id="patch_2">
    <path d="M 326.534206 7.2 
C 280.468376 7.2 234.943356 17.167893 193.092341 36.417652 
C 151.241326 55.667411 114.046972 83.747054 84.069129 118.724041 
C 54.091285 153.701027 32.033828 194.754101 19.41483 239.057844 
C 6.795832 283.361586 3.911586 329.87575 10.960595 375.399064 
C 18.009605 420.922378 34.826361 464.385961 60.253474 502.798493 
C 85.680586 541.211026 119.12103 573.670586 158.273314 597.94319 
C 197.425598 622.215795 241.370432 637.731526 287.083374 643.422536 
C 332.796316 649.113546 379.204033 644.846211 423.112579 630.914223 
L 415.683473 607.500391 
C 375.152508 620.360687 332.314616 624.299766 290.118054 619.046526 
C 247.921492 613.793286 207.35703 599.471072 171.21646 577.065591 
C 135.07589 554.66011 104.207788 524.697439 80.736607 489.239717 
C 57.265426 453.781995 41.742267 413.661764 35.235488 371.640244 
C 28.72871 329.618723 31.391091 286.682571 43.039397 245.786809 
C 54.687703 204.891048 75.048433 166.995902 102.720289 134.709453 
C 130.392144 102.423004 164.725394 76.503333 203.3571 58.734325 
C 241.988806 40.965316 284.011901 31.764185 326.534206 31.764185 
z
" style="fill: #f4f5f5; stroke: #ffffff; stroke-linejoin: miter"/>
   </g>
   <g id="patch_3">
    <path d="M 423.112579 630.914223 
C 495.748924 607.867032 557.78969 559.563522 597.942996 494.795292 
C 638.096302 430.027061 653.768742 352.977335 642.107816 277.669736 
C 630.44689 202.362137 592.205749 133.660603 534.344565 84.069323 
C 476.483381 34.478043 402.739269 7.2 326.534206 7.2 
L 326.534206 31.764185 
C 396.877341 31.764185 464.948829 56.943917 518.359153 102.720483 
C 571.769477 148.497049 607.068991 211.913849 617.832923 281.428556 
C 628.596855 350.943263 614.129987 422.066087 577.065397 481.852146 
C 540.000807 541.638205 482.732408 586.22606 415.683473 607.500391 
z
" style="fill: #add6b9; stroke: #ffffff; stroke-linejoin: miter"/>
   </g>
   <g id="patch_4">
    <path d="M 326.534206 31.764185 
C 283.317033 31.764185 240.623996 41.268489 201.488193 59.601872 
C 162.35239 77.935255 127.723094 104.653023 100.060521 137.85703 
C 72.397949 171.061036 52.373079 209.94589 41.408567 251.749042 
C 30.444054 293.552193 28.805852 337.25967 36.610346 379.766303 
C 44.41484 422.272937 61.472725 462.547691 86.572134 497.729272 
C 111.671544 532.910853 144.20367 562.145901 181.857288 583.357431 
C 219.510907 604.568961 261.372697 617.242469 304.468614 620.477574 
C 347.564531 623.712679 390.849247 617.43091 431.247627 602.078551 
L 422.521509 579.116539 
C 385.489661 593.189534 345.812004 598.947822 306.307413 595.982309 
C 266.802822 593.016797 228.429515 581.399415 193.913698 561.955512 
C 159.397881 542.511609 129.576766 515.712815 106.568974 483.463033 
C 83.561182 451.21325 67.924787 414.294725 60.770668 375.330311 
C 53.616548 336.365898 55.118233 296.30071 65.169037 257.981155 
C 75.21984 219.661599 93.57597 184.01715 118.933328 153.580144 
C 144.290687 123.143137 176.034208 98.65185 211.908694 81.846249 
C 247.78318 65.040649 286.918464 56.328369 326.534206 56.328369 
z
" style="fill: #f4f5f5; stroke: #ffffff; stroke-linejoin: miter"/>
   </g>
   <g id="patch_5">
    <path d="M 431.247627 602.078551 
C 495.679934 577.592721 549.526479 531.265942 583.357237 471.211318 
C 617.187995 411.156693 628.905633 341.097306 616.458065 273.302497 
C 604.010498 205.507687 568.169412 144.18039 515.211576 100.060716 
C 462.25374 55.941041 395.46227 31.764185 326.534206 31.764185 
L 326.534206 56.328369 
C 389.718265 56.328369 450.943779 78.490488 499.488462 118.933523 
C 548.033145 159.376558 580.887474 215.593247 592.297744 277.738489 
C 603.708014 339.88373 592.966846 404.104836 561.955318 459.154908 
C 530.943789 514.20498 481.584457 556.671194 422.521509 579.116539 
z
" style="fill: #afd7bb; stroke: #ffffff; stroke-linejoin: miter"/>
   </g>
   <g id="patch_6">
    <path d="M 326.534206 56.328369 
C 282.890656 56.328369 239.889934 66.902297 201.223456 87.14243 
C 162.556979 107.382563 129.363787 136.692665 104.493365 172.556596 
C 79.622943 208.420527 63.807927 249.781805 58.405963 293.089752 
C 53.003999 336.397699 58.17422 380.376544 73.472785 421.250905 
C 88.77135 462.125266 113.747593 498.691061 146.257416 527.809282 
C 178.76724 556.927504 217.852967 577.740385 260.159265 588.461234 
C 302.465563 599.182083 346.746169 599.495084 389.199794 589.373368 
C 431.65342 579.251652 471.029462 558.993385 503.947665 530.337647 
L 487.819169 511.810079 
C 457.893529 537.86075 422.097128 556.277356 383.502923 565.478916 
C 344.908718 574.680476 304.653621 574.39593 266.19335 564.649703 
C 227.733079 554.903477 192.2006 535.982676 162.646215 509.511566 
C 133.09183 483.040455 110.386155 449.798824 96.478369 412.640314 
C 82.570582 375.481804 77.870382 335.501035 82.781258 296.130175 
C 87.692134 256.759314 102.069422 219.158152 124.678896 186.554578 
C 147.28837 153.951004 177.464 127.305457 212.615343 108.905337 
C 247.766686 90.505216 286.858251 80.892554 326.534206 80.892554 
z
" style="fill: #f4f5f5; stroke: #ffffff; stroke-linejoin: miter"/>
   </g>
   <g id="patch_7">
    <path d="M 503.947665 530.337647 
C 545.450981 494.208454 574.944179 446.249179 588.46104 392.909341 
C 601.977901 339.569503 598.884078 283.352344 579.595627 231.817895 
C 560.307175 180.283446 525.729303 135.850221 480.51201 104.493559 
C 435.294717 73.136898 381.560053 56.328369 326.534206 56.328369 
L 326.534206 80.892554 
C 376.557703 80.892554 425.407397 96.173034 466.514028 124.67909 
C 507.620658 153.185146 539.055087 193.578987 556.590043 240.428486 
C 574.124999 287.277986 576.937565 338.384494 564.649509 386.875256 
C 552.361454 435.366017 525.549456 478.965358 487.819169 511.810079 
z
" style="fill: #badcc4; stroke: #ffffff; stroke-linejoin: miter"/>
   </g>
   <g id="patch_8">
    <path d="M 326.534206 80.892554 
C 286.06216 80.892554 246.210485 90.894839 210.535324 110.006859 
C 174.860163 129.11888 144.455199 156.754724 122.033604 190.448322 
C 99.61201 224.14192 85.861156 262.860337 82.008095 303.148553 
C 78.155034 343.436769 84.317887 384.059681 99.946715 421.392324 
C 115.575543 458.724966 140.191218 491.622843 171.597172 517.150328 
C 203.003126 542.677814 240.236555 560.052319 279.974955 567.723439 
C 319.713354 575.39456 360.738474 573.127123 399.389458 561.123464 
C 438.040443 549.119804 473.13238 527.747914 501.533858 498.914904 
L 484.033893 481.676854 
C 458.472563 507.626563 426.889819 526.861264 392.103933 537.664557 
C 357.318047 548.467851 320.395439 550.508544 284.63088 543.604535 
C 248.86632 536.700527 215.356234 521.063472 187.090875 498.088735 
C 158.825517 475.113998 136.67141 445.505909 122.605464 411.906531 
C 108.539519 378.307153 102.992951 341.746532 106.460706 305.487138 
C 109.928461 269.227743 122.304229 234.381168 142.483664 204.05693 
C 162.6631 173.732692 190.027567 148.860432 222.135212 131.659613 
C 254.242857 114.458795 290.109365 105.456738 326.534206 105.456738 
z
" style="fill: #f4f5f5; stroke: #ffffff; stroke-linejoin: miter"/>
   </g>
   <g id="patch_9">
    <path d="M 501.533858 498.914904 
C 535.512802 464.419685 558.545671 420.635864 567.723243 373.093663 
C 576.900815 325.551461 571.819709 276.340503 553.121705 231.676498 
C 534.423702 187.012492 502.930635 148.858557 462.620312 122.033818 
C 422.30999 95.209078 374.954173 80.892563 326.534252 80.892554 
L 326.534247 105.456738 
C 370.112176 105.456747 412.732412 118.34161 449.011702 142.483876 
C 485.290992 166.626141 513.634752 200.964683 530.462955 241.162288 
C 547.291159 281.359893 551.864154 325.649755 543.604339 368.437736 
C 535.344524 411.225717 514.614942 450.631156 484.033893 481.676854 
z
" style="fill: #bcddc6; stroke: #ffffff; stroke-linejoin: miter"/>
   </g>
   <g id="patch_10">
    <path d="M 326.534206 105.456738 
C 289.568793 105.456738 253.187009 114.727972 220.729845 132.419049 
C 188.27268 150.110126 160.765035 175.662414 140.732976 206.729411 
C 120.700916 237.796409 108.776995 273.397112 106.056203 310.262259 
C 103.33541 347.127405 109.903661 384.092903 125.157784 417.764159 
C 140.411906 451.435416 163.87022 480.749191 193.378516 503.013562 
C 222.886812 525.277933 257.513306 539.789856 294.078197 545.216681 
C 330.643089 550.643506 367.991768 546.813869 402.694454 534.079453 
C 437.39714 521.345037 468.358023 500.107955 492.733924 472.318439 
L 474.267289 456.120212 
C 452.599821 480.822004 425.079036 499.69941 394.232204 511.018892 
C 363.385373 522.338373 330.186547 525.742494 297.684421 520.91865 
C 265.182294 516.094805 234.403189 503.195318 208.173593 483.404766 
C 181.943996 463.614215 161.092162 437.557525 147.532942 407.627519 
C 133.973722 377.697514 128.135276 344.839294 130.553759 312.070274 
C 132.972241 279.301255 143.571282 247.656186 161.377557 220.041077 
C 179.183832 192.425968 203.635072 169.712823 232.485885 153.987421 
C 261.336698 138.26202 293.676061 130.020923 326.534206 130.020923 
z
" style="fill: #f4f5f5; stroke: #ffffff; stroke-linejoin: miter"/>
   </g>
   <g id="patch_11">
    <path d="M 492.733924 472.318439 
C 520.753452 440.375041 538.978479 401.020896 545.216487 358.990408 
C 551.454495 316.959921 545.444885 274.008962 527.910628 235.304641 
C 510.376371 196.60032 482.049981 163.759553 446.339194 140.73317 
C 410.628408 117.706786 369.025083 105.456738 326.534206 105.456738 
L 326.534206 130.020923 
C 364.303874 130.020923 401.284608 140.909854 433.027529 161.377751 
C 464.77045 181.845647 489.949464 211.03744 505.53547 245.441281 
C 521.121476 279.845121 526.463352 318.023752 520.918455 355.384185 
C 515.373559 392.744618 499.173536 427.726081 474.267289 456.120212 
z
" style="fill: #bddec7; stroke: #ffffff; stroke-linejoin: miter"/>
   </g>
   <g id="patch_12">
    <path d="M 326.534206 130.020923 
C 292.986273 130.020923 259.990578 138.61166 230.702134 154.971698 
C 201.41369 171.331736 176.79674 194.922464 159.205131 223.488161 
C 141.613522 252.053858 131.62641 284.654077 130.198752 318.171618 
C 128.771094 351.68916 135.949892 385.020549 151.048717 414.978674 
C 166.147541 444.9368 188.669305 470.53537 216.4605 489.326678 
C 244.251695 508.117986 276.397372 519.483378 309.823794 522.336108 
C 343.250217 525.188837 376.85691 519.434985 407.430438 505.62473 
C 438.003966 491.814474 464.537778 470.40248 484.494739 443.43614 
L 464.749672 428.823422 
C 447.287332 452.41897 424.070246 471.154465 397.318409 483.238439 
C 370.566572 495.322412 341.160715 500.357032 311.912596 497.860894 
C 282.664476 495.364756 254.537009 485.420038 230.219713 468.977644 
C 205.902417 452.535249 186.195874 430.1365 172.984403 403.92314 
C 159.772931 377.70978 153.491483 348.544815 154.740684 319.216966 
C 155.989884 289.889117 164.728607 261.363926 180.121265 236.368941 
C 195.513924 211.373956 217.053755 190.732069 242.681143 176.417036 
C 268.308532 162.102003 297.179765 154.585108 326.534206 154.585108 
z
" style="fill: #f4f5f5; stroke: #ffffff; stroke-linejoin: miter"/>
   </g>
   <g id="patch_13">
    <path d="M 484.494739 443.43614 
C 506.139377 414.189367 519.241938 379.497978 522.335913 343.244821 
C 525.429887 306.991664 518.395371 270.581704 502.019703 238.090142 
C 485.644036 205.59858 460.561847 178.284603 429.580468 159.20534 
C 398.59909 140.126076 362.919186 130.02093 326.534243 130.020923 
L 326.534238 154.585108 
C 358.371063 154.585114 389.59098 163.427117 416.699686 180.121472 
C 443.808391 196.815828 465.755307 220.715557 480.084016 249.145674 
C 494.412725 277.575791 500.567927 309.434506 497.860699 341.156018 
C 495.153472 372.877531 483.688731 403.232496 464.749672 428.823422 
z
" style="fill: #bfdfc9; stroke: #ffffff; stroke-linejoin: miter"/>
   </g>
   <g id="patch_14">
    <path d="M 326.534206 154.585108 
C 297.06541 154.585108 268.085508 162.160683 242.386551 176.58197 
C 216.687593 191.003257 195.122283 211.791751 179.768317 236.944596 
C 164.414351 262.097442 155.781179 290.780058 154.700561 320.229033 
C 153.619943 349.678009 160.127733 378.916217 173.596941 405.126717 
C 187.06615 431.337217 207.049864 453.650336 231.622764 469.916328 
C 256.195664 486.182321 284.542411 495.861475 313.931954 498.021258 
C 343.321498 500.181041 372.77868 494.749791 399.465467 482.250778 
C 426.152254 469.751765 449.183167 450.599711 466.339305 426.639811 
L 446.367148 412.339038 
C 431.661887 432.876095 411.921104 449.292141 389.046715 460.005581 
C 366.172327 470.71902 340.923313 475.374378 315.732276 473.523135 
C 290.541239 471.671893 266.244027 463.375475 245.181542 449.433196 
C 224.119056 435.490917 206.990158 416.365386 195.445122 393.899243 
C 183.900086 371.4331 178.32198 346.371779 179.248225 321.1298 
C 180.174469 295.887821 187.57433 271.302722 200.734872 249.74314 
C 213.895415 228.183558 232.379967 210.364849 254.407644 198.003746 
C 276.435322 185.642643 301.275238 179.149292 326.534206 179.149292 
z
" style="fill: #f4f5f5; stroke: #ffffff; stroke-linejoin: miter"/>
   </g>
   <g id="patch_15">
    <path d="M 466.339305 426.639811 
C 484.740577 400.940984 495.704529 370.659193 498.021063 339.13666 
C 500.337597 307.614126 493.918232 276.054866 479.471478 247.942097 
C 465.024723 219.829329 443.102379 196.236831 416.12403 179.768523 
C 389.145681 163.300216 358.141776 154.585114 326.534238 154.585108 
L 326.534233 179.149292 
C 353.626409 179.149297 380.201184 186.619385 403.325484 200.735077 
C 426.449783 214.850769 445.240363 235.07291 457.623296 259.169569 
C 470.006228 283.266228 475.508541 310.317022 473.522941 337.336337 
C 471.53734 364.355651 462.139667 390.311472 446.367148 412.339038 
z
" style="fill: #c1e0ca; stroke: #ffffff; stroke-linejoin: miter"/>
   </g>
   <g id="patch_16">
    <path d="M 326.534206 179.149292 
C 299.807445 179.149292 273.577364 186.419224 250.663855 200.177525 
C 227.750346 213.935827 209.005041 233.67114 196.443173 257.2618 
C 183.881305 280.852459 177.969765 307.421666 179.344078 334.113069 
C 180.718391 360.804473 189.327478 386.626027 204.245811 408.801759 
C 219.164143 430.977492 239.837248 448.683191 264.042641 460.015389 
C 288.248034 471.347586 315.086068 475.885094 341.671492 473.140104 
C 368.256917 470.395114 393.601624 460.46965 414.980906 444.430758 
C 436.360188 428.391866 452.979435 406.835668 463.051979 382.079585 
L 440.299017 372.822055 
C 431.90523 393.452123 418.055858 411.415622 400.239789 424.781365 
C 382.423721 438.147108 361.303131 446.418329 339.148611 448.70582 
C 316.994091 450.993312 294.629063 447.212055 274.457902 437.768557 
C 254.286741 428.325059 237.059154 413.57031 224.62721 395.090533 
C 212.195266 376.610756 205.021027 355.092794 203.875766 332.849958 
C 202.730505 310.607122 207.656789 288.466116 218.125012 268.807233 
C 228.593235 249.14835 244.214323 232.702255 263.308913 221.237004 
C 282.403504 209.771753 304.261905 203.713477 326.534206 203.713477 
z
" style="fill: #f4f5f5; stroke: #ffffff; stroke-linejoin: miter"/>
   </g>
   <g id="patch_17">
    <path d="M 463.051979 382.079585 
C 472.156398 359.702938 475.621064 335.427283 473.139911 311.39712 
C 470.658757 287.366958 462.307061 264.311362 448.822609 244.267052 
C 435.338156 224.222742 417.130063 207.797862 395.806825 196.443377 
C 374.483586 185.088892 350.692148 179.149297 326.534233 179.149292 
L 326.534229 203.713477 
C 346.665824 203.713481 366.492023 208.663143 384.261388 218.125214 
C 402.030753 227.587285 417.204164 241.274685 428.441208 257.978277 
C 439.678252 274.681868 446.637999 293.894865 448.705627 313.92 
C 450.773255 333.945135 447.886033 354.174848 440.299017 372.822055 
z
" style="fill: #c7e3cf; stroke: #ffffff; stroke-linejoin: miter"/>
   </g>
   <g id="patch_18">
    <path d="M 326.534206 203.713477 
C 302.757551 203.713477 279.484788 210.617789 259.554863 223.584185 
C 239.624939 236.550581 223.882591 255.029474 214.248163 276.766703 
C 204.613735 298.503932 201.495585 322.578154 205.274085 346.052656 
C 209.052585 369.527159 219.567581 391.406964 235.536392 409.023048 
C 251.505203 426.639131 272.250985 439.244827 295.243046 445.30242 
C 318.235107 451.360012 342.498921 450.612748 365.074644 443.151782 
C 387.650368 435.690816 407.581121 421.832385 422.435635 403.267021 
C 437.290148 384.701657 446.438807 362.21626 448.765605 338.55373 
L 424.319325 336.149864 
C 422.457887 355.079888 415.13896 373.068205 403.255349 387.920497 
C 391.371738 402.772788 375.427136 413.859533 357.366557 419.828305 
C 339.305978 425.797078 319.894927 426.39489 301.501278 421.548816 
C 283.107629 416.702742 266.511003 406.618185 253.735955 392.525318 
C 240.960906 378.432451 232.548909 360.928607 229.526109 342.149005 
C 226.50331 323.369403 228.997829 304.110025 236.705371 286.720243 
C 244.412914 269.33046 257.006792 254.547345 272.950732 244.174228 
C 288.894671 233.801111 307.512882 228.277662 326.534206 228.277662 
z
" style="fill: #f4f5f5; stroke: #ffffff; stroke-linejoin: miter"/>
   </g>
   <g id="patch_19">
    <path d="M 448.765605 338.55373 
C 450.443144 321.493874 448.530682 304.270263 443.151586 287.993956 
C 437.77249 271.71765 429.044967 256.746322 417.532012 244.045744 
C 406.019057 231.345165 391.973669 221.194433 376.301887 214.24835 
C 360.630105 207.302267 343.676319 203.713474 326.534183 203.713477 
L 326.534187 228.277662 
C 340.247896 228.277659 353.810925 231.148693 366.348351 236.70556 
C 378.885776 242.262426 390.122087 250.383012 399.332451 260.543475 
C 408.542815 270.703938 415.524833 282.681 419.82811 295.702045 
C 424.131387 308.72309 425.661357 322.501979 424.319325 336.149864 
z
" style="fill: #d0e7d7; stroke: #ffffff; stroke-linejoin: miter"/>
   </g>
   <g id="patch_20">
    <path d="M 326.534206 228.277662 
C 316.17838 228.277662 305.887362 229.914849 296.042794 233.128509 
C 286.198226 236.342169 276.923325 241.092079 268.562049 247.202088 
C 260.200774 253.312097 252.857777 260.705731 246.805372 269.108798 
C 240.752968 277.511865 236.066909 286.819189 232.920978 296.685609 
C 229.775048 306.55203 228.208621 316.854056 228.279788 327.209637 
C 228.350955 337.565219 230.058825 347.844743 233.340063 357.666994 
C 236.621301 367.489244 241.434837 376.731284 247.602162 385.050373 
C 253.769487 393.369462 261.213409 400.661475 269.65787 406.655989 
C 278.102332 412.650504 287.441639 417.27249 297.329446 420.350543 
C 307.217253 423.428596 317.529801 424.924188 327.884649 424.781858 
C 338.239497 424.639527 348.507041 422.861054 358.30651 419.512394 
C 368.10598 416.163733 377.314722 411.286798 385.591232 405.062448 
C 393.867741 398.838099 401.108426 391.344241 407.044767 382.858783 
C 412.981108 374.373326 417.538804 365.002475 420.548834 355.093749 
C 423.558863 345.185023 424.983551 334.862441 424.770063 324.508816 
C 424.556575 314.15519 422.707584 303.900111 419.291659 294.123885 
L 396.102296 302.226514 
C 398.66424 309.558683 400.050983 317.249993 400.211099 325.015212 
C 400.371215 332.780431 399.302699 340.522367 397.045177 347.953912 
C 394.787655 355.385457 391.369383 362.413594 386.917127 368.777687 
C 382.464871 375.141781 377.034357 380.762174 370.826975 385.430436 
C 364.619593 390.098698 357.713037 393.7564 350.363434 396.267895 
C 343.013832 398.779391 335.313174 400.113245 327.547038 400.219993 
C 319.780902 400.326741 312.046492 399.205047 304.630636 396.896507 
C 297.214781 394.587968 290.2103 391.121478 283.876954 386.625592 
C 277.543608 382.129706 271.960667 376.660696 267.335173 370.42138 
C 262.709679 364.182063 259.099527 357.250533 256.638599 349.883845 
C 254.17767 342.517157 252.896767 334.807514 252.843392 327.040828 
C 252.790017 319.274142 253.964837 311.547623 256.324285 304.147807 
C 258.683733 296.747992 262.198277 289.767499 266.737581 283.465198 
C 271.276884 277.162898 276.784132 271.617673 283.055088 267.035166 
C 289.326045 262.452659 296.282221 258.890227 303.665647 256.479982 
C 311.049073 254.069737 318.767336 252.841846 326.534206 252.841846 
z
" style="fill: #f4f5f5; stroke: #ffffff; stroke-linejoin: miter"/>
   </g>
   <g id="patch_21">
    <path d="M 419.291659 294.123885 
C 412.569921 274.886569 400.027258 258.208607 383.410542 246.412811 
C 366.793825 234.617014 346.912039 228.277662 326.534206 228.277662 
L 326.534206 252.841846 
C 341.817581 252.841846 356.72892 257.596361 369.191458 266.443208 
C 381.653995 275.290055 391.060992 287.798527 396.102296 302.226514 
z
" style="fill: #dceee2; stroke: #ffffff; stroke-linejoin: miter"/>
   </g>
   <g id="matplotlib.axis_1"/>
   <g id="matplotlib.axis_2"/>
   <g id="text_1">
    <!-- AUPRC_0 on generalized models -->
    <g transform="translate(190.572331 94.3392) scale(0.168 -0.168)">
     <defs>
      <path id="DejaVuSans-41" d="M 2188 4044 
L 1331 1722 
L 3047 1722 
L 2188 4044 
z
M 1831 4666 
L 2547 4666 
L 4325 0 
L 3669 0 
L 3244 1197 
L 1141 1197 
L 716 0 
L 50 0 
L 1831 4666 
z
" transform="scale(0.015625)"/>
      <path id="DejaVuSans-55" d="M 556 4666 
L 1191 4666 
L 1191 1831 
Q 1191 1081 1462 751 
Q 1734 422 2344 422 
Q 2950 422 3222 751 
Q 3494 1081 3494 1831 
L 3494 4666 
L 4128 4666 
L 4128 1753 
Q 4128 841 3676 375 
Q 3225 -91 2344 -91 
Q 1459 -91 1007 375 
Q 556 841 556 1753 
L 556 4666 
z
" transform="scale(0.015625)"/>
      <path id="DejaVuSans-50" d="M 1259 4147 
L 1259 2394 
L 2053 2394 
Q 2494 2394 2734 2622 
Q 2975 2850 2975 3272 
Q 2975 3691 2734 3919 
Q 2494 4147 2053 4147 
L 1259 4147 
z
M 628 4666 
L 2053 4666 
Q 2838 4666 3239 4311 
Q 3641 3956 3641 3272 
Q 3641 2581 3239 2228 
Q 2838 1875 2053 1875 
L 1259 1875 
L 1259 0 
L 628 0 
L 628 4666 
z
" transform="scale(0.015625)"/>
      <path id="DejaVuSans-52" d="M 2841 2188 
Q 3044 2119 3236 1894 
Q 3428 1669 3622 1275 
L 4263 0 
L 3584 0 
L 2988 1197 
Q 2756 1666 2539 1819 
Q 2322 1972 1947 1972 
L 1259 1972 
L 1259 0 
L 628 0 
L 628 4666 
L 2053 4666 
Q 2853 4666 3247 4331 
Q 3641 3997 3641 3322 
Q 3641 2881 3436 2590 
Q 3231 2300 2841 2188 
z
M 1259 4147 
L 1259 2491 
L 2053 2491 
Q 2509 2491 2742 2702 
Q 2975 2913 2975 3322 
Q 2975 3731 2742 3939 
Q 2509 4147 2053 4147 
L 1259 4147 
z
" transform="scale(0.015625)"/>
      <path id="DejaVuSans-43" d="M 4122 4306 
L 4122 3641 
Q 3803 3938 3442 4084 
Q 3081 4231 2675 4231 
Q 1875 4231 1450 3742 
Q 1025 3253 1025 2328 
Q 1025 1406 1450 917 
Q 1875 428 2675 428 
Q 3081 428 3442 575 
Q 3803 722 4122 1019 
L 4122 359 
Q 3791 134 3420 21 
Q 3050 -91 2638 -91 
Q 1578 -91 968 557 
Q 359 1206 359 2328 
Q 359 3453 968 4101 
Q 1578 4750 2638 4750 
Q 3056 4750 3426 4639 
Q 3797 4528 4122 4306 
z
" transform="scale(0.015625)"/>
      <path id="DejaVuSans-5f" d="M 3263 -1063 
L 3263 -1509 
L -63 -1509 
L -63 -1063 
L 3263 -1063 
z
" transform="scale(0.015625)"/>
      <path id="DejaVuSans-30" d="M 2034 4250 
Q 1547 4250 1301 3770 
Q 1056 3291 1056 2328 
Q 1056 1369 1301 889 
Q 1547 409 2034 409 
Q 2525 409 2770 889 
Q 3016 1369 3016 2328 
Q 3016 3291 2770 3770 
Q 2525 4250 2034 4250 
z
M 2034 4750 
Q 2819 4750 3233 4129 
Q 3647 3509 3647 2328 
Q 3647 1150 3233 529 
Q 2819 -91 2034 -91 
Q 1250 -91 836 529 
Q 422 1150 422 2328 
Q 422 3509 836 4129 
Q 1250 4750 2034 4750 
z
" transform="scale(0.015625)"/>
      <path id="DejaVuSans-20" transform="scale(0.015625)"/>
      <path id="DejaVuSans-6f" d="M 1959 3097 
Q 1497 3097 1228 2736 
Q 959 2375 959 1747 
Q 959 1119 1226 758 
Q 1494 397 1959 397 
Q 2419 397 2687 759 
Q 2956 1122 2956 1747 
Q 2956 2369 2687 2733 
Q 2419 3097 1959 3097 
z
M 1959 3584 
Q 2709 3584 3137 3096 
Q 3566 2609 3566 1747 
Q 3566 888 3137 398 
Q 2709 -91 1959 -91 
Q 1206 -91 779 398 
Q 353 888 353 1747 
Q 353 2609 779 3096 
Q 1206 3584 1959 3584 
z
" transform="scale(0.015625)"/>
      <path id="DejaVuSans-6e" d="M 3513 2113 
L 3513 0 
L 2938 0 
L 2938 2094 
Q 2938 2591 2744 2837 
Q 2550 3084 2163 3084 
Q 1697 3084 1428 2787 
Q 1159 2491 1159 1978 
L 1159 0 
L 581 0 
L 581 3500 
L 1159 3500 
L 1159 2956 
Q 1366 3272 1645 3428 
Q 1925 3584 2291 3584 
Q 2894 3584 3203 3211 
Q 3513 2838 3513 2113 
z
" transform="scale(0.015625)"/>
      <path id="DejaVuSans-67" d="M 2906 1791 
Q 2906 2416 2648 2759 
Q 2391 3103 1925 3103 
Q 1463 3103 1205 2759 
Q 947 2416 947 1791 
Q 947 1169 1205 825 
Q 1463 481 1925 481 
Q 2391 481 2648 825 
Q 2906 1169 2906 1791 
z
M 3481 434 
Q 3481 -459 3084 -895 
Q 2688 -1331 1869 -1331 
Q 1566 -1331 1297 -1286 
Q 1028 -1241 775 -1147 
L 775 -588 
Q 1028 -725 1275 -790 
Q 1522 -856 1778 -856 
Q 2344 -856 2625 -561 
Q 2906 -266 2906 331 
L 2906 616 
Q 2728 306 2450 153 
Q 2172 0 1784 0 
Q 1141 0 747 490 
Q 353 981 353 1791 
Q 353 2603 747 3093 
Q 1141 3584 1784 3584 
Q 2172 3584 2450 3431 
Q 2728 3278 2906 2969 
L 2906 3500 
L 3481 3500 
L 3481 434 
z
" transform="scale(0.015625)"/>
      <path id="DejaVuSans-65" d="M 3597 1894 
L 3597 1613 
L 953 1613 
Q 991 1019 1311 708 
Q 1631 397 2203 397 
Q 2534 397 2845 478 
Q 3156 559 3463 722 
L 3463 178 
Q 3153 47 2828 -22 
Q 2503 -91 2169 -91 
Q 1331 -91 842 396 
Q 353 884 353 1716 
Q 353 2575 817 3079 
Q 1281 3584 2069 3584 
Q 2775 3584 3186 3129 
Q 3597 2675 3597 1894 
z
M 3022 2063 
Q 3016 2534 2758 2815 
Q 2500 3097 2075 3097 
Q 1594 3097 1305 2825 
Q 1016 2553 972 2059 
L 3022 2063 
z
" transform="scale(0.015625)"/>
      <path id="DejaVuSans-72" d="M 2631 2963 
Q 2534 3019 2420 3045 
Q 2306 3072 2169 3072 
Q 1681 3072 1420 2755 
Q 1159 2438 1159 1844 
L 1159 0 
L 581 0 
L 581 3500 
L 1159 3500 
L 1159 2956 
Q 1341 3275 1631 3429 
Q 1922 3584 2338 3584 
Q 2397 3584 2469 3576 
Q 2541 3569 2628 3553 
L 2631 2963 
z
" transform="scale(0.015625)"/>
      <path id="DejaVuSans-61" d="M 2194 1759 
Q 1497 1759 1228 1600 
Q 959 1441 959 1056 
Q 959 750 1161 570 
Q 1363 391 1709 391 
Q 2188 391 2477 730 
Q 2766 1069 2766 1631 
L 2766 1759 
L 2194 1759 
z
M 3341 1997 
L 3341 0 
L 2766 0 
L 2766 531 
Q 2569 213 2275 61 
Q 1981 -91 1556 -91 
Q 1019 -91 701 211 
Q 384 513 384 1019 
Q 384 1609 779 1909 
Q 1175 2209 1959 2209 
L 2766 2209 
L 2766 2266 
Q 2766 2663 2505 2880 
Q 2244 3097 1772 3097 
Q 1472 3097 1187 3025 
Q 903 2953 641 2809 
L 641 3341 
Q 956 3463 1253 3523 
Q 1550 3584 1831 3584 
Q 2591 3584 2966 3190 
Q 3341 2797 3341 1997 
z
" transform="scale(0.015625)"/>
      <path id="DejaVuSans-6c" d="M 603 4863 
L 1178 4863 
L 1178 0 
L 603 0 
L 603 4863 
z
" transform="scale(0.015625)"/>
      <path id="DejaVuSans-69" d="M 603 3500 
L 1178 3500 
L 1178 0 
L 603 0 
L 603 3500 
z
M 603 4863 
L 1178 4863 
L 1178 4134 
L 603 4134 
L 603 4863 
z
" transform="scale(0.015625)"/>
      <path id="DejaVuSans-7a" d="M 353 3500 
L 3084 3500 
L 3084 2975 
L 922 459 
L 3084 459 
L 3084 0 
L 275 0 
L 275 525 
L 2438 3041 
L 353 3041 
L 353 3500 
z
" transform="scale(0.015625)"/>
      <path id="DejaVuSans-64" d="M 2906 2969 
L 2906 4863 
L 3481 4863 
L 3481 0 
L 2906 0 
L 2906 525 
Q 2725 213 2448 61 
Q 2172 -91 1784 -91 
Q 1150 -91 751 415 
Q 353 922 353 1747 
Q 353 2572 751 3078 
Q 1150 3584 1784 3584 
Q 2172 3584 2448 3432 
Q 2725 3281 2906 2969 
z
M 947 1747 
Q 947 1113 1208 752 
Q 1469 391 1925 391 
Q 2381 391 2643 752 
Q 2906 1113 2906 1747 
Q 2906 2381 2643 2742 
Q 2381 3103 1925 3103 
Q 1469 3103 1208 2742 
Q 947 2381 947 1747 
z
" transform="scale(0.015625)"/>
      <path id="DejaVuSans-6d" d="M 3328 2828 
Q 3544 3216 3844 3400 
Q 4144 3584 4550 3584 
Q 5097 3584 5394 3201 
Q 5691 2819 5691 2113 
L 5691 0 
L 5113 0 
L 5113 2094 
Q 5113 2597 4934 2840 
Q 4756 3084 4391 3084 
Q 3944 3084 3684 2787 
Q 3425 2491 3425 1978 
L 3425 0 
L 2847 0 
L 2847 2094 
Q 2847 2600 2669 2842 
Q 2491 3084 2119 3084 
Q 1678 3084 1418 2786 
Q 1159 2488 1159 1978 
L 1159 0 
L 581 0 
L 581 3500 
L 1159 3500 
L 1159 2956 
Q 1356 3278 1631 3431 
Q 1906 3584 2284 3584 
Q 2666 3584 2933 3390 
Q 3200 3197 3328 2828 
z
" transform="scale(0.015625)"/>
      <path id="DejaVuSans-73" d="M 2834 3397 
L 2834 2853 
Q 2591 2978 2328 3040 
Q 2066 3103 1784 3103 
Q 1356 3103 1142 2972 
Q 928 2841 928 2578 
Q 928 2378 1081 2264 
Q 1234 2150 1697 2047 
L 1894 2003 
Q 2506 1872 2764 1633 
Q 3022 1394 3022 966 
Q 3022 478 2636 193 
Q 2250 -91 1575 -91 
Q 1294 -91 989 -36 
Q 684 19 347 128 
L 347 722 
Q 666 556 975 473 
Q 1284 391 1588 391 
Q 1994 391 2212 530 
Q 2431 669 2431 922 
Q 2431 1156 2273 1281 
Q 2116 1406 1581 1522 
L 1381 1569 
Q 847 1681 609 1914 
Q 372 2147 372 2553 
Q 372 3047 722 3315 
Q 1072 3584 1716 3584 
Q 2034 3584 2315 3537 
Q 2597 3491 2834 3397 
z
" transform="scale(0.015625)"/>
     </defs>
     <use xlink:href="#DejaVuSans-41"/>
     <use xlink:href="#DejaVuSans-55" x="68.408203"/>
     <use xlink:href="#DejaVuSans-50" x="141.601562"/>
     <use xlink:href="#DejaVuSans-52" x="201.904297"/>
     <use xlink:href="#DejaVuSans-43" x="266.386719"/>
     <use xlink:href="#DejaVuSans-5f" x="336.210938"/>
     <use xlink:href="#DejaVuSans-30" x="386.210938"/>
     <use xlink:href="#DejaVuSans-20" x="449.833984"/>
     <use xlink:href="#DejaVuSans-6f" x="481.621094"/>
     <use xlink:href="#DejaVuSans-6e" x="542.802734"/>
     <use xlink:href="#DejaVuSans-20" x="606.181641"/>
     <use xlink:href="#DejaVuSans-67" x="637.96875"/>
     <use xlink:href="#DejaVuSans-65" x="701.445312"/>
     <use xlink:href="#DejaVuSans-6e" x="762.96875"/>
     <use xlink:href="#DejaVuSans-65" x="826.347656"/>
     <use xlink:href="#DejaVuSans-72" x="887.871094"/>
     <use xlink:href="#DejaVuSans-61" x="928.984375"/>
     <use xlink:href="#DejaVuSans-6c" x="990.263672"/>
     <use xlink:href="#DejaVuSans-69" x="1018.046875"/>
     <use xlink:href="#DejaVuSans-7a" x="1045.830078"/>
     <use xlink:href="#DejaVuSans-65" x="1098.320312"/>
     <use xlink:href="#DejaVuSans-64" x="1159.84375"/>
     <use xlink:href="#DejaVuSans-20" x="1223.320312"/>
     <use xlink:href="#DejaVuSans-6d" x="1255.107422"/>
     <use xlink:href="#DejaVuSans-6f" x="1352.519531"/>
     <use xlink:href="#DejaVuSans-64" x="1413.701172"/>
     <use xlink:href="#DejaVuSans-65" x="1477.177734"/>
     <use xlink:href="#DejaVuSans-6c" x="1538.701172"/>
     <use xlink:href="#DejaVuSans-73" x="1566.484375"/>
    </g>
   </g>
   <g id="legend_1">
    <g id="patch_22">
     <path d="M 595.446206 326.5344 
L 888.989018 326.5344 
Q 891.789018 326.5344 891.789018 323.7344 
L 891.789018 97.1444 
Q 891.789018 94.3444 888.989018 94.3444 
L 595.446206 94.3444 
Q 592.646206 94.3444 592.646206 97.1444 
L 592.646206 323.7344 
Q 592.646206 326.5344 595.446206 326.5344 
z
" style="fill: #ffffff; opacity: 0.8; stroke: #cccccc; stroke-linejoin: miter"/>
    </g>
    <g id="text_2">
     <!-- Models -->
     <g transform="translate(717.552456 110.582213) scale(0.14 -0.14)">
      <defs>
       <path id="DejaVuSans-4d" d="M 628 4666 
L 1569 4666 
L 2759 1491 
L 3956 4666 
L 4897 4666 
L 4897 0 
L 4281 0 
L 4281 4097 
L 3078 897 
L 2444 897 
L 1241 4097 
L 1241 0 
L 628 0 
L 628 4666 
z
" transform="scale(0.015625)"/>
      </defs>
      <use xlink:href="#DejaVuSans-4d"/>
      <use xlink:href="#DejaVuSans-6f" x="86.279297"/>
      <use xlink:href="#DejaVuSans-64" x="147.460938"/>
      <use xlink:href="#DejaVuSans-65" x="210.9375"/>
      <use xlink:href="#DejaVuSans-6c" x="272.460938"/>
      <use xlink:href="#DejaVuSans-73" x="300.244141"/>
     </g>
    </g>
    <g id="patch_23">
     <path d="M 598.246206 131.131588 
L 626.246206 131.131588 
L 626.246206 121.331588 
L 598.246206 121.331588 
z
" style="fill: #add6b9; stroke: #ffffff; stroke-linejoin: miter"/>
    </g>
    <g id="text_3">
     <!-- xgboost (45.11%) -->
     <g transform="translate(637.446206 131.131588) scale(0.14 -0.14)">
      <defs>
       <path id="DejaVuSans-78" d="M 3513 3500 
L 2247 1797 
L 3578 0 
L 2900 0 
L 1881 1375 
L 863 0 
L 184 0 
L 1544 1831 
L 300 3500 
L 978 3500 
L 1906 2253 
L 2834 3500 
L 3513 3500 
z
" transform="scale(0.015625)"/>
       <path id="DejaVuSans-62" d="M 3116 1747 
Q 3116 2381 2855 2742 
Q 2594 3103 2138 3103 
Q 1681 3103 1420 2742 
Q 1159 2381 1159 1747 
Q 1159 1113 1420 752 
Q 1681 391 2138 391 
Q 2594 391 2855 752 
Q 3116 1113 3116 1747 
z
M 1159 2969 
Q 1341 3281 1617 3432 
Q 1894 3584 2278 3584 
Q 2916 3584 3314 3078 
Q 3713 2572 3713 1747 
Q 3713 922 3314 415 
Q 2916 -91 2278 -91 
Q 1894 -91 1617 61 
Q 1341 213 1159 525 
L 1159 0 
L 581 0 
L 581 4863 
L 1159 4863 
L 1159 2969 
z
" transform="scale(0.015625)"/>
       <path id="DejaVuSans-74" d="M 1172 4494 
L 1172 3500 
L 2356 3500 
L 2356 3053 
L 1172 3053 
L 1172 1153 
Q 1172 725 1289 603 
Q 1406 481 1766 481 
L 2356 481 
L 2356 0 
L 1766 0 
Q 1100 0 847 248 
Q 594 497 594 1153 
L 594 3053 
L 172 3053 
L 172 3500 
L 594 3500 
L 594 4494 
L 1172 4494 
z
" transform="scale(0.015625)"/>
       <path id="DejaVuSans-28" d="M 1984 4856 
Q 1566 4138 1362 3434 
Q 1159 2731 1159 2009 
Q 1159 1288 1364 580 
Q 1569 -128 1984 -844 
L 1484 -844 
Q 1016 -109 783 600 
Q 550 1309 550 2009 
Q 550 2706 781 3412 
Q 1013 4119 1484 4856 
L 1984 4856 
z
" transform="scale(0.015625)"/>
       <path id="DejaVuSans-34" d="M 2419 4116 
L 825 1625 
L 2419 1625 
L 2419 4116 
z
M 2253 4666 
L 3047 4666 
L 3047 1625 
L 3713 1625 
L 3713 1100 
L 3047 1100 
L 3047 0 
L 2419 0 
L 2419 1100 
L 313 1100 
L 313 1709 
L 2253 4666 
z
" transform="scale(0.015625)"/>
       <path id="DejaVuSans-35" d="M 691 4666 
L 3169 4666 
L 3169 4134 
L 1269 4134 
L 1269 2991 
Q 1406 3038 1543 3061 
Q 1681 3084 1819 3084 
Q 2600 3084 3056 2656 
Q 3513 2228 3513 1497 
Q 3513 744 3044 326 
Q 2575 -91 1722 -91 
Q 1428 -91 1123 -41 
Q 819 9 494 109 
L 494 744 
Q 775 591 1075 516 
Q 1375 441 1709 441 
Q 2250 441 2565 725 
Q 2881 1009 2881 1497 
Q 2881 1984 2565 2268 
Q 2250 2553 1709 2553 
Q 1456 2553 1204 2497 
Q 953 2441 691 2322 
L 691 4666 
z
" transform="scale(0.015625)"/>
       <path id="DejaVuSans-2e" d="M 684 794 
L 1344 794 
L 1344 0 
L 684 0 
L 684 794 
z
" transform="scale(0.015625)"/>
       <path id="DejaVuSans-31" d="M 794 531 
L 1825 531 
L 1825 4091 
L 703 3866 
L 703 4441 
L 1819 4666 
L 2450 4666 
L 2450 531 
L 3481 531 
L 3481 0 
L 794 0 
L 794 531 
z
" transform="scale(0.015625)"/>
       <path id="DejaVuSans-25" d="M 4653 2053 
Q 4381 2053 4226 1822 
Q 4072 1591 4072 1178 
Q 4072 772 4226 539 
Q 4381 306 4653 306 
Q 4919 306 5073 539 
Q 5228 772 5228 1178 
Q 5228 1588 5073 1820 
Q 4919 2053 4653 2053 
z
M 4653 2450 
Q 5147 2450 5437 2106 
Q 5728 1763 5728 1178 
Q 5728 594 5436 251 
Q 5144 -91 4653 -91 
Q 4153 -91 3862 251 
Q 3572 594 3572 1178 
Q 3572 1766 3864 2108 
Q 4156 2450 4653 2450 
z
M 1428 4353 
Q 1159 4353 1004 4120 
Q 850 3888 850 3481 
Q 850 3069 1003 2837 
Q 1156 2606 1428 2606 
Q 1700 2606 1854 2837 
Q 2009 3069 2009 3481 
Q 2009 3884 1853 4118 
Q 1697 4353 1428 4353 
z
M 4250 4750 
L 4750 4750 
L 1831 -91 
L 1331 -91 
L 4250 4750 
z
M 1428 4750 
Q 1922 4750 2215 4408 
Q 2509 4066 2509 3481 
Q 2509 2891 2217 2550 
Q 1925 2209 1428 2209 
Q 931 2209 642 2551 
Q 353 2894 353 3481 
Q 353 4063 643 4406 
Q 934 4750 1428 4750 
z
" transform="scale(0.015625)"/>
       <path id="DejaVuSans-29" d="M 513 4856 
L 1013 4856 
Q 1481 4119 1714 3412 
Q 1947 2706 1947 2009 
Q 1947 1309 1714 600 
Q 1481 -109 1013 -844 
L 513 -844 
Q 928 -128 1133 580 
Q 1338 1288 1338 2009 
Q 1338 2731 1133 3434 
Q 928 4138 513 4856 
z
" transform="scale(0.015625)"/>
      </defs>
      <use xlink:href="#DejaVuSans-78"/>
      <use xlink:href="#DejaVuSans-67" x="59.179688"/>
      <use xlink:href="#DejaVuSans-62" x="122.65625"/>
      <use xlink:href="#DejaVuSans-6f" x="186.132812"/>
      <use xlink:href="#DejaVuSans-6f" x="247.314453"/>
      <use xlink:href="#DejaVuSans-73" x="308.496094"/>
      <use xlink:href="#DejaVuSans-74" x="360.595703"/>
      <use xlink:href="#DejaVuSans-20" x="399.804688"/>
      <use xlink:href="#DejaVuSans-28" x="431.591797"/>
      <use xlink:href="#DejaVuSans-34" x="470.605469"/>
      <use xlink:href="#DejaVuSans-35" x="534.228516"/>
      <use xlink:href="#DejaVuSans-2e" x="597.851562"/>
      <use xlink:href="#DejaVuSans-31" x="629.638672"/>
      <use xlink:href="#DejaVuSans-31" x="693.261719"/>
      <use xlink:href="#DejaVuSans-25" x="756.884766"/>
      <use xlink:href="#DejaVuSans-29" x="851.904297"/>
     </g>
    </g>
    <g id="patch_24">
     <path d="M 598.246206 151.680963 
L 626.246206 151.680963 
L 626.246206 141.880963 
L 598.246206 141.880963 
z
" style="fill: #afd7bb; stroke: #ffffff; stroke-linejoin: miter"/>
    </g>
    <g id="text_4">
     <!-- random_forest (44.22%) -->
     <g transform="translate(637.446206 151.680963) scale(0.14 -0.14)">
      <defs>
       <path id="DejaVuSans-66" d="M 2375 4863 
L 2375 4384 
L 1825 4384 
Q 1516 4384 1395 4259 
Q 1275 4134 1275 3809 
L 1275 3500 
L 2222 3500 
L 2222 3053 
L 1275 3053 
L 1275 0 
L 697 0 
L 697 3053 
L 147 3053 
L 147 3500 
L 697 3500 
L 697 3744 
Q 697 4328 969 4595 
Q 1241 4863 1831 4863 
L 2375 4863 
z
" transform="scale(0.015625)"/>
       <path id="DejaVuSans-32" d="M 1228 531 
L 3431 531 
L 3431 0 
L 469 0 
L 469 531 
Q 828 903 1448 1529 
Q 2069 2156 2228 2338 
Q 2531 2678 2651 2914 
Q 2772 3150 2772 3378 
Q 2772 3750 2511 3984 
Q 2250 4219 1831 4219 
Q 1534 4219 1204 4116 
Q 875 4013 500 3803 
L 500 4441 
Q 881 4594 1212 4672 
Q 1544 4750 1819 4750 
Q 2544 4750 2975 4387 
Q 3406 4025 3406 3419 
Q 3406 3131 3298 2873 
Q 3191 2616 2906 2266 
Q 2828 2175 2409 1742 
Q 1991 1309 1228 531 
z
" transform="scale(0.015625)"/>
      </defs>
      <use xlink:href="#DejaVuSans-72"/>
      <use xlink:href="#DejaVuSans-61" x="41.113281"/>
      <use xlink:href="#DejaVuSans-6e" x="102.392578"/>
      <use xlink:href="#DejaVuSans-64" x="165.771484"/>
      <use xlink:href="#DejaVuSans-6f" x="229.248047"/>
      <use xlink:href="#DejaVuSans-6d" x="290.429688"/>
      <use xlink:href="#DejaVuSans-5f" x="387.841797"/>
      <use xlink:href="#DejaVuSans-66" x="437.841797"/>
      <use xlink:href="#DejaVuSans-6f" x="473.046875"/>
      <use xlink:href="#DejaVuSans-72" x="534.228516"/>
      <use xlink:href="#DejaVuSans-65" x="573.091797"/>
      <use xlink:href="#DejaVuSans-73" x="634.615234"/>
      <use xlink:href="#DejaVuSans-74" x="686.714844"/>
      <use xlink:href="#DejaVuSans-20" x="725.923828"/>
      <use xlink:href="#DejaVuSans-28" x="757.710938"/>
      <use xlink:href="#DejaVuSans-34" x="796.724609"/>
      <use xlink:href="#DejaVuSans-34" x="860.347656"/>
      <use xlink:href="#DejaVuSans-2e" x="923.970703"/>
      <use xlink:href="#DejaVuSans-32" x="955.757812"/>
      <use xlink:href="#DejaVuSans-32" x="1019.380859"/>
      <use xlink:href="#DejaVuSans-25" x="1083.003906"/>
      <use xlink:href="#DejaVuSans-29" x="1178.023438"/>
     </g>
    </g>
    <g id="patch_25">
     <path d="M 598.246206 172.619713 
L 626.246206 172.619713 
L 626.246206 162.819713 
L 598.246206 162.819713 
z
" style="fill: #badcc4; stroke: #ffffff; stroke-linejoin: miter"/>
    </g>
    <g id="text_5">
     <!-- neural_network (38.6%) -->
     <g transform="translate(637.446206 172.619713) scale(0.14 -0.14)">
      <defs>
       <path id="DejaVuSans-75" d="M 544 1381 
L 544 3500 
L 1119 3500 
L 1119 1403 
Q 1119 906 1312 657 
Q 1506 409 1894 409 
Q 2359 409 2629 706 
Q 2900 1003 2900 1516 
L 2900 3500 
L 3475 3500 
L 3475 0 
L 2900 0 
L 2900 538 
Q 2691 219 2414 64 
Q 2138 -91 1772 -91 
Q 1169 -91 856 284 
Q 544 659 544 1381 
z
M 1991 3584 
L 1991 3584 
z
" transform="scale(0.015625)"/>
       <path id="DejaVuSans-77" d="M 269 3500 
L 844 3500 
L 1563 769 
L 2278 3500 
L 2956 3500 
L 3675 769 
L 4391 3500 
L 4966 3500 
L 4050 0 
L 3372 0 
L 2619 2869 
L 1863 0 
L 1184 0 
L 269 3500 
z
" transform="scale(0.015625)"/>
       <path id="DejaVuSans-6b" d="M 581 4863 
L 1159 4863 
L 1159 1991 
L 2875 3500 
L 3609 3500 
L 1753 1863 
L 3688 0 
L 2938 0 
L 1159 1709 
L 1159 0 
L 581 0 
L 581 4863 
z
" transform="scale(0.015625)"/>
       <path id="DejaVuSans-33" d="M 2597 2516 
Q 3050 2419 3304 2112 
Q 3559 1806 3559 1356 
Q 3559 666 3084 287 
Q 2609 -91 1734 -91 
Q 1441 -91 1130 -33 
Q 819 25 488 141 
L 488 750 
Q 750 597 1062 519 
Q 1375 441 1716 441 
Q 2309 441 2620 675 
Q 2931 909 2931 1356 
Q 2931 1769 2642 2001 
Q 2353 2234 1838 2234 
L 1294 2234 
L 1294 2753 
L 1863 2753 
Q 2328 2753 2575 2939 
Q 2822 3125 2822 3475 
Q 2822 3834 2567 4026 
Q 2313 4219 1838 4219 
Q 1578 4219 1281 4162 
Q 984 4106 628 3988 
L 628 4550 
Q 988 4650 1302 4700 
Q 1616 4750 1894 4750 
Q 2613 4750 3031 4423 
Q 3450 4097 3450 3541 
Q 3450 3153 3228 2886 
Q 3006 2619 2597 2516 
z
" transform="scale(0.015625)"/>
       <path id="DejaVuSans-38" d="M 2034 2216 
Q 1584 2216 1326 1975 
Q 1069 1734 1069 1313 
Q 1069 891 1326 650 
Q 1584 409 2034 409 
Q 2484 409 2743 651 
Q 3003 894 3003 1313 
Q 3003 1734 2745 1975 
Q 2488 2216 2034 2216 
z
M 1403 2484 
Q 997 2584 770 2862 
Q 544 3141 544 3541 
Q 544 4100 942 4425 
Q 1341 4750 2034 4750 
Q 2731 4750 3128 4425 
Q 3525 4100 3525 3541 
Q 3525 3141 3298 2862 
Q 3072 2584 2669 2484 
Q 3125 2378 3379 2068 
Q 3634 1759 3634 1313 
Q 3634 634 3220 271 
Q 2806 -91 2034 -91 
Q 1263 -91 848 271 
Q 434 634 434 1313 
Q 434 1759 690 2068 
Q 947 2378 1403 2484 
z
M 1172 3481 
Q 1172 3119 1398 2916 
Q 1625 2713 2034 2713 
Q 2441 2713 2670 2916 
Q 2900 3119 2900 3481 
Q 2900 3844 2670 4047 
Q 2441 4250 2034 4250 
Q 1625 4250 1398 4047 
Q 1172 3844 1172 3481 
z
" transform="scale(0.015625)"/>
       <path id="DejaVuSans-36" d="M 2113 2584 
Q 1688 2584 1439 2293 
Q 1191 2003 1191 1497 
Q 1191 994 1439 701 
Q 1688 409 2113 409 
Q 2538 409 2786 701 
Q 3034 994 3034 1497 
Q 3034 2003 2786 2293 
Q 2538 2584 2113 2584 
z
M 3366 4563 
L 3366 3988 
Q 3128 4100 2886 4159 
Q 2644 4219 2406 4219 
Q 1781 4219 1451 3797 
Q 1122 3375 1075 2522 
Q 1259 2794 1537 2939 
Q 1816 3084 2150 3084 
Q 2853 3084 3261 2657 
Q 3669 2231 3669 1497 
Q 3669 778 3244 343 
Q 2819 -91 2113 -91 
Q 1303 -91 875 529 
Q 447 1150 447 2328 
Q 447 3434 972 4092 
Q 1497 4750 2381 4750 
Q 2619 4750 2861 4703 
Q 3103 4656 3366 4563 
z
" transform="scale(0.015625)"/>
      </defs>
      <use xlink:href="#DejaVuSans-6e"/>
      <use xlink:href="#DejaVuSans-65" x="63.378906"/>
      <use xlink:href="#DejaVuSans-75" x="124.902344"/>
      <use xlink:href="#DejaVuSans-72" x="188.28125"/>
      <use xlink:href="#DejaVuSans-61" x="229.394531"/>
      <use xlink:href="#DejaVuSans-6c" x="290.673828"/>
      <use xlink:href="#DejaVuSans-5f" x="318.457031"/>
      <use xlink:href="#DejaVuSans-6e" x="368.457031"/>
      <use xlink:href="#DejaVuSans-65" x="431.835938"/>
      <use xlink:href="#DejaVuSans-74" x="493.359375"/>
      <use xlink:href="#DejaVuSans-77" x="532.568359"/>
      <use xlink:href="#DejaVuSans-6f" x="614.355469"/>
      <use xlink:href="#DejaVuSans-72" x="675.537109"/>
      <use xlink:href="#DejaVuSans-6b" x="716.650391"/>
      <use xlink:href="#DejaVuSans-20" x="774.560547"/>
      <use xlink:href="#DejaVuSans-28" x="806.347656"/>
      <use xlink:href="#DejaVuSans-33" x="845.361328"/>
      <use xlink:href="#DejaVuSans-38" x="908.984375"/>
      <use xlink:href="#DejaVuSans-2e" x="972.607422"/>
      <use xlink:href="#DejaVuSans-36" x="1004.394531"/>
      <use xlink:href="#DejaVuSans-25" x="1068.017578"/>
      <use xlink:href="#DejaVuSans-29" x="1163.037109"/>
     </g>
    </g>
    <g id="patch_26">
     <path d="M 598.246206 193.558463 
L 626.246206 193.558463 
L 626.246206 183.758463 
L 598.246206 183.758463 
z
" style="fill: #bcddc6; stroke: #ffffff; stroke-linejoin: miter"/>
    </g>
    <g id="text_6">
     <!-- crf (37.38%) -->
     <g transform="translate(637.446206 193.558463) scale(0.14 -0.14)">
      <defs>
       <path id="DejaVuSans-63" d="M 3122 3366 
L 3122 2828 
Q 2878 2963 2633 3030 
Q 2388 3097 2138 3097 
Q 1578 3097 1268 2742 
Q 959 2388 959 1747 
Q 959 1106 1268 751 
Q 1578 397 2138 397 
Q 2388 397 2633 464 
Q 2878 531 3122 666 
L 3122 134 
Q 2881 22 2623 -34 
Q 2366 -91 2075 -91 
Q 1284 -91 818 406 
Q 353 903 353 1747 
Q 353 2603 823 3093 
Q 1294 3584 2113 3584 
Q 2378 3584 2631 3529 
Q 2884 3475 3122 3366 
z
" transform="scale(0.015625)"/>
       <path id="DejaVuSans-37" d="M 525 4666 
L 3525 4666 
L 3525 4397 
L 1831 0 
L 1172 0 
L 2766 4134 
L 525 4134 
L 525 4666 
z
" transform="scale(0.015625)"/>
      </defs>
      <use xlink:href="#DejaVuSans-63"/>
      <use xlink:href="#DejaVuSans-72" x="54.980469"/>
      <use xlink:href="#DejaVuSans-66" x="96.09375"/>
      <use xlink:href="#DejaVuSans-20" x="131.298828"/>
      <use xlink:href="#DejaVuSans-28" x="163.085938"/>
      <use xlink:href="#DejaVuSans-33" x="202.099609"/>
      <use xlink:href="#DejaVuSans-37" x="265.722656"/>
      <use xlink:href="#DejaVuSans-2e" x="329.345703"/>
      <use xlink:href="#DejaVuSans-33" x="361.132812"/>
      <use xlink:href="#DejaVuSans-38" x="424.755859"/>
      <use xlink:href="#DejaVuSans-25" x="488.378906"/>
      <use xlink:href="#DejaVuSans-29" x="583.398438"/>
     </g>
    </g>
    <g id="patch_27">
     <path d="M 598.246206 214.107838 
L 626.246206 214.107838 
L 626.246206 204.307838 
L 598.246206 204.307838 
z
" style="fill: #bddec7; stroke: #ffffff; stroke-linejoin: miter"/>
    </g>
    <g id="text_7">
     <!-- logistic_regression (36.46%) -->
     <g transform="translate(637.446206 214.107838) scale(0.14 -0.14)">
      <use xlink:href="#DejaVuSans-6c"/>
      <use xlink:href="#DejaVuSans-6f" x="27.783203"/>
      <use xlink:href="#DejaVuSans-67" x="88.964844"/>
      <use xlink:href="#DejaVuSans-69" x="152.441406"/>
      <use xlink:href="#DejaVuSans-73" x="180.224609"/>
      <use xlink:href="#DejaVuSans-74" x="232.324219"/>
      <use xlink:href="#DejaVuSans-69" x="271.533203"/>
      <use xlink:href="#DejaVuSans-63" x="299.316406"/>
      <use xlink:href="#DejaVuSans-5f" x="354.296875"/>
      <use xlink:href="#DejaVuSans-72" x="404.296875"/>
      <use xlink:href="#DejaVuSans-65" x="443.160156"/>
      <use xlink:href="#DejaVuSans-67" x="504.683594"/>
      <use xlink:href="#DejaVuSans-72" x="568.160156"/>
      <use xlink:href="#DejaVuSans-65" x="607.023438"/>
      <use xlink:href="#DejaVuSans-73" x="668.546875"/>
      <use xlink:href="#DejaVuSans-73" x="720.646484"/>
      <use xlink:href="#DejaVuSans-69" x="772.746094"/>
      <use xlink:href="#DejaVuSans-6f" x="800.529297"/>
      <use xlink:href="#DejaVuSans-6e" x="861.710938"/>
      <use xlink:href="#DejaVuSans-20" x="925.089844"/>
      <use xlink:href="#DejaVuSans-28" x="956.876953"/>
      <use xlink:href="#DejaVuSans-33" x="995.890625"/>
      <use xlink:href="#DejaVuSans-36" x="1059.513672"/>
      <use xlink:href="#DejaVuSans-2e" x="1123.136719"/>
      <use xlink:href="#DejaVuSans-34" x="1154.923828"/>
      <use xlink:href="#DejaVuSans-36" x="1218.546875"/>
      <use xlink:href="#DejaVuSans-25" x="1282.169922"/>
      <use xlink:href="#DejaVuSans-29" x="1377.189453"/>
     </g>
    </g>
    <g id="patch_28">
     <path d="M 598.246206 235.046588 
L 626.246206 235.046588 
L 626.246206 225.246588 
L 598.246206 225.246588 
z
" style="fill: #bfdfc9; stroke: #ffffff; stroke-linejoin: miter"/>
    </g>
    <g id="text_8">
     <!-- svm (35.14%) -->
     <g transform="translate(637.446206 235.046588) scale(0.14 -0.14)">
      <defs>
       <path id="DejaVuSans-76" d="M 191 3500 
L 800 3500 
L 1894 563 
L 2988 3500 
L 3597 3500 
L 2284 0 
L 1503 0 
L 191 3500 
z
" transform="scale(0.015625)"/>
      </defs>
      <use xlink:href="#DejaVuSans-73"/>
      <use xlink:href="#DejaVuSans-76" x="52.099609"/>
      <use xlink:href="#DejaVuSans-6d" x="111.279297"/>
      <use xlink:href="#DejaVuSans-20" x="208.691406"/>
      <use xlink:href="#DejaVuSans-28" x="240.478516"/>
      <use xlink:href="#DejaVuSans-33" x="279.492188"/>
      <use xlink:href="#DejaVuSans-35" x="343.115234"/>
      <use xlink:href="#DejaVuSans-2e" x="406.738281"/>
      <use xlink:href="#DejaVuSans-31" x="438.525391"/>
      <use xlink:href="#DejaVuSans-34" x="502.148438"/>
      <use xlink:href="#DejaVuSans-25" x="565.771484"/>
      <use xlink:href="#DejaVuSans-29" x="660.791016"/>
     </g>
    </g>
    <g id="patch_29">
     <path d="M 598.246206 255.595963 
L 626.246206 255.595963 
L 626.246206 245.795963 
L 598.246206 245.795963 
z
" style="fill: #c1e0ca; stroke: #ffffff; stroke-linejoin: miter"/>
    </g>
    <g id="text_9">
     <!-- naive_bayes (34.89%) -->
     <g transform="translate(637.446206 255.595963) scale(0.14 -0.14)">
      <defs>
       <path id="DejaVuSans-79" d="M 2059 -325 
Q 1816 -950 1584 -1140 
Q 1353 -1331 966 -1331 
L 506 -1331 
L 506 -850 
L 844 -850 
Q 1081 -850 1212 -737 
Q 1344 -625 1503 -206 
L 1606 56 
L 191 3500 
L 800 3500 
L 1894 763 
L 2988 3500 
L 3597 3500 
L 2059 -325 
z
" transform="scale(0.015625)"/>
       <path id="DejaVuSans-39" d="M 703 97 
L 703 672 
Q 941 559 1184 500 
Q 1428 441 1663 441 
Q 2288 441 2617 861 
Q 2947 1281 2994 2138 
Q 2813 1869 2534 1725 
Q 2256 1581 1919 1581 
Q 1219 1581 811 2004 
Q 403 2428 403 3163 
Q 403 3881 828 4315 
Q 1253 4750 1959 4750 
Q 2769 4750 3195 4129 
Q 3622 3509 3622 2328 
Q 3622 1225 3098 567 
Q 2575 -91 1691 -91 
Q 1453 -91 1209 -44 
Q 966 3 703 97 
z
M 1959 2075 
Q 2384 2075 2632 2365 
Q 2881 2656 2881 3163 
Q 2881 3666 2632 3958 
Q 2384 4250 1959 4250 
Q 1534 4250 1286 3958 
Q 1038 3666 1038 3163 
Q 1038 2656 1286 2365 
Q 1534 2075 1959 2075 
z
" transform="scale(0.015625)"/>
      </defs>
      <use xlink:href="#DejaVuSans-6e"/>
      <use xlink:href="#DejaVuSans-61" x="63.378906"/>
      <use xlink:href="#DejaVuSans-69" x="124.658203"/>
      <use xlink:href="#DejaVuSans-76" x="152.441406"/>
      <use xlink:href="#DejaVuSans-65" x="211.621094"/>
      <use xlink:href="#DejaVuSans-5f" x="273.144531"/>
      <use xlink:href="#DejaVuSans-62" x="323.144531"/>
      <use xlink:href="#DejaVuSans-61" x="386.621094"/>
      <use xlink:href="#DejaVuSans-79" x="447.900391"/>
      <use xlink:href="#DejaVuSans-65" x="507.080078"/>
      <use xlink:href="#DejaVuSans-73" x="568.603516"/>
      <use xlink:href="#DejaVuSans-20" x="620.703125"/>
      <use xlink:href="#DejaVuSans-28" x="652.490234"/>
      <use xlink:href="#DejaVuSans-33" x="691.503906"/>
      <use xlink:href="#DejaVuSans-34" x="755.126953"/>
      <use xlink:href="#DejaVuSans-2e" x="818.75"/>
      <use xlink:href="#DejaVuSans-38" x="850.537109"/>
      <use xlink:href="#DejaVuSans-39" x="914.160156"/>
      <use xlink:href="#DejaVuSans-25" x="977.783203"/>
      <use xlink:href="#DejaVuSans-29" x="1072.802734"/>
     </g>
    </g>
    <g id="patch_30">
     <path d="M 598.246206 276.534713 
L 626.246206 276.534713 
L 626.246206 266.734713 
L 598.246206 266.734713 
z
" style="fill: #c7e3cf; stroke: #ffffff; stroke-linejoin: miter"/>
    </g>
    <g id="text_10">
     <!-- recurrent_neural_network (31.15%) -->
     <g transform="translate(637.446206 276.534713) scale(0.14 -0.14)">
      <use xlink:href="#DejaVuSans-72"/>
      <use xlink:href="#DejaVuSans-65" x="38.863281"/>
      <use xlink:href="#DejaVuSans-63" x="100.386719"/>
      <use xlink:href="#DejaVuSans-75" x="155.367188"/>
      <use xlink:href="#DejaVuSans-72" x="218.746094"/>
      <use xlink:href="#DejaVuSans-72" x="258.109375"/>
      <use xlink:href="#DejaVuSans-65" x="296.972656"/>
      <use xlink:href="#DejaVuSans-6e" x="358.496094"/>
      <use xlink:href="#DejaVuSans-74" x="421.875"/>
      <use xlink:href="#DejaVuSans-5f" x="461.083984"/>
      <use xlink:href="#DejaVuSans-6e" x="511.083984"/>
      <use xlink:href="#DejaVuSans-65" x="574.462891"/>
      <use xlink:href="#DejaVuSans-75" x="635.986328"/>
      <use xlink:href="#DejaVuSans-72" x="699.365234"/>
      <use xlink:href="#DejaVuSans-61" x="740.478516"/>
      <use xlink:href="#DejaVuSans-6c" x="801.757812"/>
      <use xlink:href="#DejaVuSans-5f" x="829.541016"/>
      <use xlink:href="#DejaVuSans-6e" x="879.541016"/>
      <use xlink:href="#DejaVuSans-65" x="942.919922"/>
      <use xlink:href="#DejaVuSans-74" x="1004.443359"/>
      <use xlink:href="#DejaVuSans-77" x="1043.652344"/>
      <use xlink:href="#DejaVuSans-6f" x="1125.439453"/>
      <use xlink:href="#DejaVuSans-72" x="1186.621094"/>
      <use xlink:href="#DejaVuSans-6b" x="1227.734375"/>
      <use xlink:href="#DejaVuSans-20" x="1285.644531"/>
      <use xlink:href="#DejaVuSans-28" x="1317.431641"/>
      <use xlink:href="#DejaVuSans-33" x="1356.445312"/>
      <use xlink:href="#DejaVuSans-31" x="1420.068359"/>
      <use xlink:href="#DejaVuSans-2e" x="1483.691406"/>
      <use xlink:href="#DejaVuSans-31" x="1515.478516"/>
      <use xlink:href="#DejaVuSans-35" x="1579.101562"/>
      <use xlink:href="#DejaVuSans-25" x="1642.724609"/>
      <use xlink:href="#DejaVuSans-29" x="1737.744141"/>
     </g>
    </g>
    <g id="patch_31">
     <path d="M 598.246206 297.473463 
L 626.246206 297.473463 
L 626.246206 287.673463 
L 598.246206 287.673463 
z
" style="fill: #d0e7d7; stroke: #ffffff; stroke-linejoin: miter"/>
    </g>
    <g id="text_11">
     <!-- hmm (26.56%) -->
     <g transform="translate(637.446206 297.473463) scale(0.14 -0.14)">
      <defs>
       <path id="DejaVuSans-68" d="M 3513 2113 
L 3513 0 
L 2938 0 
L 2938 2094 
Q 2938 2591 2744 2837 
Q 2550 3084 2163 3084 
Q 1697 3084 1428 2787 
Q 1159 2491 1159 1978 
L 1159 0 
L 581 0 
L 581 4863 
L 1159 4863 
L 1159 2956 
Q 1366 3272 1645 3428 
Q 1925 3584 2291 3584 
Q 2894 3584 3203 3211 
Q 3513 2838 3513 2113 
z
" transform="scale(0.015625)"/>
      </defs>
      <use xlink:href="#DejaVuSans-68"/>
      <use xlink:href="#DejaVuSans-6d" x="63.378906"/>
      <use xlink:href="#DejaVuSans-6d" x="160.791016"/>
      <use xlink:href="#DejaVuSans-20" x="258.203125"/>
      <use xlink:href="#DejaVuSans-28" x="289.990234"/>
      <use xlink:href="#DejaVuSans-32" x="329.003906"/>
      <use xlink:href="#DejaVuSans-36" x="392.626953"/>
      <use xlink:href="#DejaVuSans-2e" x="456.25"/>
      <use xlink:href="#DejaVuSans-35" x="488.037109"/>
      <use xlink:href="#DejaVuSans-36" x="551.660156"/>
      <use xlink:href="#DejaVuSans-25" x="615.283203"/>
      <use xlink:href="#DejaVuSans-29" x="710.302734"/>
     </g>
    </g>
    <g id="patch_32">
     <path d="M 598.246206 318.022838 
L 626.246206 318.022838 
L 626.246206 308.222838 
L 598.246206 308.222838 
z
" style="fill: #dceee2; stroke: #ffffff; stroke-linejoin: miter"/>
    </g>
    <g id="text_12">
     <!-- knn (19.65%) -->
     <g transform="translate(637.446206 318.022838) scale(0.14 -0.14)">
      <use xlink:href="#DejaVuSans-6b"/>
      <use xlink:href="#DejaVuSans-6e" x="57.910156"/>
      <use xlink:href="#DejaVuSans-6e" x="121.289062"/>
      <use xlink:href="#DejaVuSans-20" x="184.667969"/>
      <use xlink:href="#DejaVuSans-28" x="216.455078"/>
      <use xlink:href="#DejaVuSans-31" x="255.46875"/>
      <use xlink:href="#DejaVuSans-39" x="319.091797"/>
      <use xlink:href="#DejaVuSans-2e" x="382.714844"/>
      <use xlink:href="#DejaVuSans-36" x="414.501953"/>
      <use xlink:href="#DejaVuSans-35" x="478.125"/>
      <use xlink:href="#DejaVuSans-25" x="541.748047"/>
      <use xlink:href="#DejaVuSans-29" x="636.767578"/>
     </g>
    </g>
   </g>
  </g>
 </g>
</svg>
