<?xml version="1.0" encoding="utf-8" standalone="no"?>
<!DOCTYPE svg PUBLIC "-//W3C//DTD SVG 1.1//EN"
  "http://www.w3.org/Graphics/SVG/1.1/DTD/svg11.dtd">
<svg xmlns:xlink="http://www.w3.org/1999/xlink" width="890.08093pt" height="653.068586pt" viewBox="0 0 890.08093 653.068586" xmlns="http://www.w3.org/2000/svg" version="1.1">
 <metadata>
  <rdf:RDF xmlns:dc="http://purl.org/dc/elements/1.1/" xmlns:cc="http://creativecommons.org/ns#" xmlns:rdf="http://www.w3.org/1999/02/22-rdf-syntax-ns#">
   <cc:Work>
    <dc:type rdf:resource="http://purl.org/dc/dcmitype/StillImage"/>
    <dc:date>2023-07-18T15:49:36.285521</dc:date>
    <dc:format>image/svg+xml</dc:format>
    <dc:creator>
     <cc:Agent>
      <dc:title>Matplotlib v3.7.0, https://matplotlib.org/</dc:title>
     </cc:Agent>
    </dc:creator>
   </cc:Work>
  </rdf:RDF>
 </metadata>
 <defs>
  <style type="text/css">*{stroke-linejoin: round; stroke-linecap: butt}</style>
 </defs>
 <g id="figure_1">
  <g id="patch_1">
   <path d="M 0 653.068586 
L 890.08093 653.068586 
L 890.08093 0 
L 0 0 
z
" style="fill: #ffffff"/>
  </g>
  <g id="axes_1">
   <g id="patch_2">
    <path d="M 326.533618 7.2 
C 247.896246 7.2 171.964513 36.247151 113.404488 88.73105 
C 54.844463 141.21495 17.68584 213.524021 9.105737 291.691905 
C 0.525633 369.85979 21.114472 448.507515 66.895559 512.444425 
C 112.676645 576.381334 180.499642 621.207733 257.264668 638.265489 
L 262.593049 614.286174 
C 191.733025 598.540554 129.127181 557.162339 86.867717 498.143653 
C 44.608253 439.124968 25.603171 366.527067 33.523266 294.372097 
C 41.443362 222.217127 75.743629 155.470293 129.799037 107.023616 
C 183.854444 58.576939 253.945275 31.764185 326.533618 31.764185 
z
" style="fill: #f4f5f5; stroke: #ffffff; stroke-linejoin: miter"/>
   </g>
   <g id="patch_3">
    <path d="M 257.264668 638.265489 
C 301.070023 647.999362 346.439199 648.391331 390.406194 639.415772 
C 434.37319 630.440213 475.958551 612.297074 512.443642 586.172459 
C 548.928734 560.047845 579.500775 526.523734 602.161126 487.791759 
C 624.821477 449.059784 639.065331 405.982779 643.961499 361.376895 
C 648.857667 316.77101 644.297077 271.629934 630.577877 228.904755 
C 616.858677 186.179576 594.286489 146.822085 564.336967 113.40527 
C 534.387445 79.988455 497.727776 53.256745 456.754577 34.957719 
C 415.781378 16.658693 371.407412 7.2 326.533618 7.2 
L 326.533618 31.764185 
C 367.955582 31.764185 408.916166 40.495286 446.73758 57.386694 
C 484.558994 74.278103 518.398689 98.953528 546.044402 129.799819 
C 573.690115 160.646109 594.52598 196.976101 607.189857 236.414728 
C 619.853734 275.853355 624.063509 317.52204 619.54397 358.696703 
C 615.02443 399.871365 601.876257 439.634754 580.95901 475.387347 
C 560.041763 511.139939 531.821417 542.085272 498.142871 566.200301 
C 464.464325 590.31533 426.077838 607.062843 385.492919 615.347974 
C 344.908 623.633106 303.028761 623.271288 262.593049 614.286174 
z
" style="fill: #b0d3e8; stroke: #ffffff; stroke-linejoin: miter"/>
   </g>
   <g id="patch_4">
    <path d="M 326.533618 31.764185 
C 250.033959 31.764185 176.460519 61.54432 121.499022 114.755519 
C 66.537525 167.966718 34.392681 240.538176 31.91771 316.997789 
C 29.44274 393.457401 56.826986 467.955794 108.232178 524.610045 
C 159.637369 581.264296 231.130864 615.740196 307.47038 620.687545 
L 309.058983 596.174783 
C 239.081094 591.639713 173.54539 560.036805 126.423965 508.103741 
C 79.302539 456.170678 54.200313 387.880485 56.469036 317.792506 
C 58.737759 247.704528 88.203866 181.180692 138.585239 132.403759 
C 188.966611 83.626826 256.40893 56.328369 326.533618 56.328369 
z
" style="fill: #f4f5f5; stroke: #ffffff; stroke-linejoin: miter"/>
   </g>
   <g id="patch_5">
    <path d="M 307.47038 620.687545 
C 346.899167 623.242814 386.442222 617.84454 423.743343 604.814383 
C 461.044465 591.784227 495.347767 571.386236 524.609263 544.83584 
C 553.870759 518.285444 577.497481 486.120672 594.081613 450.258084 
C 610.665746 414.395496 619.871222 375.561828 621.149525 336.071011 
C 622.427829 296.580195 615.753056 257.232489 601.522929 220.372454 
C 587.292801 183.51242 565.795684 149.887005 538.312499 121.499804 
C 510.829314 93.112604 477.916991 70.538867 441.536635 55.123667 
C 405.15628 39.708467 366.045118 31.764185 326.533618 31.764185 
L 326.533618 56.328369 
C 362.752493 56.328369 398.604391 63.610629 431.95305 77.741228 
C 465.30171 91.871828 495.471339 112.56442 520.664259 138.586021 
C 545.857179 164.607621 565.56287 195.430919 578.607153 229.219283 
C 591.651436 263.007648 597.769978 299.076379 596.5982 335.276294 
C 595.426421 371.476209 586.988069 407.073738 571.785947 439.947777 
C 556.583826 472.821816 534.925997 502.306191 508.102959 526.644053 
C 481.279922 550.981916 449.835228 569.680074 415.642533 581.624385 
C 381.449838 593.568695 345.202038 598.517113 309.058983 596.174783 
z
" style="fill: #b2d5e9; stroke: #ffffff; stroke-linejoin: miter"/>
   </g>
   <g id="patch_6">
    <path d="M 326.533618 56.328369 
C 286.237708 56.328369 246.447483 65.342382 210.085621 82.708308 
C 173.723759 100.074234 141.702892 125.356214 116.375022 156.697232 
C 91.047152 188.038249 73.047972 224.651689 63.699562 263.848214 
C 54.351151 303.044739 53.888142 343.840573 62.344542 383.239173 
C 70.800943 422.637773 87.96451 459.65029 112.574542 491.558074 
C 137.184574 523.465858 168.623395 549.468069 204.581754 567.654789 
C 240.540114 585.841509 280.115508 595.756276 320.401038 596.670829 
C 360.686569 597.585383 400.671126 589.476769 437.417757 572.940582 
L 427.337381 550.54002 
C 393.931353 565.572917 357.581755 572.944385 320.958546 572.112972 
C 284.335336 571.28156 248.357705 562.268135 215.668287 545.734754 
C 182.97887 529.201372 154.398124 505.562998 132.025367 476.555922 
C 109.652611 447.548845 94.049368 413.901103 86.361731 378.084194 
C 78.674094 342.267285 79.095012 305.180163 87.593567 269.546958 
C 96.092122 233.913753 112.455013 200.628808 135.480349 172.136974 
C 158.505686 143.64514 187.615565 120.661522 220.671803 104.874316 
C 253.72804 89.087111 289.900972 80.892554 326.533618 80.892554 
z
" style="fill: #f4f5f5; stroke: #ffffff; stroke-linejoin: miter"/>
   </g>
   <g id="patch_7">
    <path d="M 437.417757 572.940582 
C 493.775375 547.579344 539.761385 503.634913 567.654013 448.486252 
C 595.54664 393.337591 603.692117 330.254493 590.722688 269.829602 
C 577.75326 209.404712 544.437891 155.220652 496.370757 116.37578 
C 448.303622 77.530909 388.334647 56.328358 326.533567 56.328369 
L 326.533572 80.892554 
C 382.716372 80.892543 437.233622 100.16759 480.931017 135.481109 
C 524.628412 170.794629 554.915111 220.052865 566.7055 274.984584 
C 578.49589 329.916303 571.090911 387.264574 545.733977 437.39972 
C 520.377043 487.534867 478.571579 527.484349 427.337381 550.54002 
z
" style="fill: #bedbec; stroke: #ffffff; stroke-linejoin: miter"/>
   </g>
   <g id="patch_8">
    <path d="M 326.533618 80.892554 
C 288.57885 80.892554 251.135508 89.68929 217.151356 106.590231 
C 183.167204 123.491172 153.558088 148.040851 130.655016 178.306569 
C 107.751944 208.572287 92.172135 243.738407 85.142126 281.036441 
C 78.112117 318.334475 79.82136 356.759271 90.135294 393.285798 
C 100.449228 429.812325 119.089901 463.456221 144.589806 491.568838 
C 170.089711 519.681455 201.761646 541.50518 237.112207 555.321917 
C 272.462768 569.138654 310.539285 574.576054 348.344146 571.206052 
C 386.149006 567.83605 422.663399 555.749465 455.012693 535.897825 
L 442.164785 514.961483 
C 413.050421 532.827959 380.187467 543.705885 346.163093 546.738887 
C 312.138718 549.771889 277.869853 544.878229 246.054348 532.443165 
C 214.238843 520.008102 185.734101 500.36675 162.784187 475.065394 
C 139.834272 449.764039 123.057667 419.484532 113.775127 386.610658 
C 104.492586 353.736784 102.954267 319.154468 109.281275 285.586237 
C 115.608284 252.018006 129.630112 220.368498 150.242876 193.129352 
C 170.855641 165.890206 197.503845 143.795495 228.089582 128.584648 
C 258.675319 113.373801 292.374327 105.456738 326.533618 105.456738 
z
" style="fill: #f4f5f5; stroke: #ffffff; stroke-linejoin: miter"/>
   </g>
   <g id="patch_9">
    <path d="M 455.012693 535.897825 
C 500.612395 507.914869 535.845003 465.786112 555.321135 415.955811 
C 574.797267 366.125509 577.470507 311.27095 562.931942 259.783002 
C 548.393376 208.295054 517.424134 162.940066 474.761449 130.655798 
C 432.098764 98.37153 380.03482 80.892554 326.533618 80.892554 
L 326.533618 105.456738 
C 374.6847 105.456738 421.542249 121.187817 459.938666 150.243658 
C 498.335083 179.2995 526.2074 220.118989 539.292109 266.458142 
C 552.376818 312.797295 549.970902 362.166398 532.442383 407.01367 
C 514.913864 451.860941 483.204517 489.776822 442.164785 514.961483 
z
" style="fill: #c2dded; stroke: #ffffff; stroke-linejoin: miter"/>
   </g>
   <g id="patch_10">
    <path d="M 326.533618 105.456738 
C 291.623492 105.456738 257.204746 113.725667 226.104576 129.584305 
C 195.004407 145.442942 168.098321 168.44485 147.596414 196.700623 
C 127.094508 224.956397 113.573934 257.670604 108.145289 292.156061 
C 102.716644 326.641518 105.53275 361.927418 116.362289 395.115338 
C 127.191828 428.303257 145.729936 458.458917 170.453871 483.105295 
C 195.177806 507.751673 225.39156 526.194946 258.613341 536.920161 
C 291.835121 547.645376 327.129695 550.350606 361.597926 544.81364 
C 396.066157 539.276675 428.737723 525.653385 456.928944 505.062805 
L 442.440574 485.226316 
C 417.381711 503.529054 388.340319 515.638644 357.701892 520.560391 
C 327.063464 525.482139 295.690509 523.07749 266.160038 513.543965 
C 236.629567 504.010441 209.772897 487.616421 187.796065 465.708529 
C 165.819234 443.800637 149.340916 416.995607 139.714659 387.495234 
C 130.088402 357.994861 127.585197 326.629616 132.410659 295.975876 
C 137.236121 265.322137 149.254409 236.242842 167.478326 211.126599 
C 185.702243 186.010355 209.618764 165.564215 237.263359 151.467649 
C 264.907954 137.371082 295.502394 130.020923 326.533618 130.020923 
z
" style="fill: #f4f5f5; stroke: #ffffff; stroke-linejoin: miter"/>
   </g>
   <g id="patch_11">
    <path d="M 456.928944 505.062805 
C 494.586284 477.558268 522.592829 438.831742 536.919382 394.454667 
C 551.245935 350.077593 551.170854 302.285285 536.70494 257.953442 
C 522.239027 213.6216 494.110943 174.983261 456.367369 147.597178 
C 418.623796 120.211094 373.165914 105.45673 326.533577 105.456738 
L 326.533581 130.020923 
C 367.984548 130.020915 408.391554 143.135906 441.941397 167.479092 
C 475.49124 191.822277 500.493981 226.167467 513.352571 265.573549 
C 526.211161 304.979631 526.2779 347.461682 513.543186 386.907971 
C 500.808472 426.35426 475.913766 460.777838 442.440574 485.226316 
z
" style="fill: #c4dfee; stroke: #ffffff; stroke-linejoin: miter"/>
   </g>
   <g id="patch_12">
    <path d="M 326.533618 130.020923 
C 294.396157 130.020923 262.744001 137.904477 234.360937 152.978232 
C 205.977873 168.051986 181.721122 189.860686 163.724048 216.486271 
C 145.726975 243.111856 134.533125 273.750183 131.126989 305.706632 
C 127.720853 337.663081 132.205304 369.972508 144.185936 399.793321 
C 156.166568 429.614133 175.281545 456.045687 199.849717 476.763345 
C 224.417889 497.481002 253.697251 511.859052 285.112704 518.632954 
C 316.528156 525.406856 349.130894 524.372026 380.053528 515.619476 
C 410.976162 506.866926 439.28477 490.660999 462.489631 468.426997 
L 445.495129 450.690423 
C 425.190876 470.145174 400.420844 484.32536 373.363539 491.983841 
C 346.306235 499.642322 317.778839 500.547799 290.290318 494.620635 
C 262.801797 488.693471 237.182355 476.112677 215.685205 457.984727 
C 194.188054 439.856776 177.462449 416.729167 166.979396 390.635956 
C 156.496343 364.542745 152.572449 336.271996 155.552817 308.310103 
C 158.533186 280.34821 168.327805 253.539674 184.075245 230.242287 
C 199.822684 206.944901 221.047341 187.862288 245.882522 174.672753 
C 270.717703 161.483217 298.413339 154.585108 326.533618 154.585108 
z
" style="fill: #f4f5f5; stroke: #ffffff; stroke-linejoin: miter"/>
   </g>
   <g id="patch_13">
    <path d="M 462.489631 468.426997 
C 490.808031 441.293398 510.365535 406.293643 518.63217 367.955323 
C 526.898805 329.617003 523.502048 289.667774 508.881307 253.275496 
C 494.260565 216.883218 469.074699 185.68785 436.58177 163.724846 
C 404.08884 141.761842 365.753089 130.02093 326.533655 130.020923 
L 326.53365 154.585108 
C 360.850655 154.585114 394.394437 164.858412 422.825751 184.07604 
C 451.257064 203.293668 473.294697 230.589616 486.087846 262.432859 
C 498.880994 294.276103 501.853157 329.231678 494.619851 362.777708 
C 487.386546 396.323737 470.27373 426.948524 445.495129 450.690423 
z
" style="fill: #c8e0ef; stroke: #ffffff; stroke-linejoin: miter"/>
   </g>
   <g id="patch_14">
    <path d="M 326.533618 154.585108 
C 297.055675 154.585108 268.067081 162.165387 242.362412 176.595188 
C 216.657744 191.024989 195.090422 211.825226 179.739594 236.990703 
C 164.388766 262.156179 155.764095 290.851375 154.697021 320.309998 
C 153.629948 349.768622 160.155899 379.012615 173.645758 405.222782 
C 187.135617 431.432949 207.141505 453.739084 231.734803 469.990818 
C 256.3281 486.242551 284.692284 495.900309 314.092973 498.033057 
C 343.493662 500.165806 372.954723 494.702736 399.636032 482.170502 
C 426.317341 469.638268 449.33305 450.452953 466.464387 426.464071 
L 446.474277 412.188404 
C 431.790274 432.750302 412.062523 449.194858 389.19283 459.936773 
C 366.323136 470.678688 341.070799 475.361319 315.870208 473.533249 
C 290.669617 471.705179 266.35746 463.427101 245.27749 449.497044 
C 224.197521 435.566986 207.049617 416.447442 195.486881 393.981585 
C 183.924145 371.515727 178.330472 346.449447 179.245106 321.199198 
C 180.159741 295.94895 187.552316 271.353068 200.710169 249.782659 
C 213.868022 228.212251 232.354297 210.383476 254.38687 198.015076 
C 276.419443 185.646675 301.266809 179.149292 326.533618 179.149292 
z
" style="fill: #f4f5f5; stroke: #ffffff; stroke-linejoin: miter"/>
   </g>
   <g id="patch_15">
    <path d="M 466.464387 426.464071 
C 484.822695 400.75707 495.746772 370.481471 498.032274 338.975061 
C 500.317776 307.468651 493.87751 275.933427 479.421492 247.846047 
C 464.965475 219.758666 443.045218 196.190686 416.077357 179.740402 
C 389.109496 163.290117 358.12288 154.58512 326.533682 154.585108 
L 326.533673 179.149292 
C 353.610128 179.149302 380.170085 186.610729 403.285394 200.710973 
C 426.400703 214.811217 445.189496 235.012342 457.580367 259.08724 
C 469.971239 283.162138 475.491468 310.192329 473.532466 337.197824 
C 471.573464 364.203318 462.209969 390.153831 446.474277 412.188404 
z
" style="fill: #cce3f0; stroke: #ffffff; stroke-linejoin: miter"/>
   </g>
   <g id="patch_16">
    <path d="M 326.533618 179.149292 
C 299.74793 179.149292 273.462226 186.451316 250.514458 200.266996 
C 227.56669 214.082676 208.813547 233.896243 196.279726 257.568513 
C 183.745904 281.240783 177.899317 307.88802 179.371195 334.633237 
C 180.843073 361.378454 189.578468 387.223196 204.634258 409.377118 
C 219.690047 431.53104 240.504167 449.16709 264.829406 460.381179 
C 289.154645 471.595268 316.082892 475.968751 342.70682 473.029443 
C 369.330747 470.090134 394.656429 459.947764 415.94956 443.69736 
C 437.242691 427.446957 453.708355 405.695181 463.568825 380.790479 
L 440.729623 371.747799 
C 432.512565 392.501718 418.791179 410.628197 401.046903 424.1702 
C 383.302627 437.712203 362.197892 446.164178 340.011286 448.613602 
C 317.82468 451.063026 295.384474 447.418457 275.113441 438.073382 
C 254.842409 428.728308 237.497309 414.0316 224.950818 395.569999 
C 212.404327 377.108397 205.12483 355.571112 203.898265 333.283431 
C 202.6717 310.99575 207.543856 288.789719 217.988708 269.062828 
C 228.433559 249.335936 244.061178 232.82463 263.184318 221.311563 
C 282.307458 209.798497 304.212212 203.713477 326.533618 203.713477 
z
" style="fill: #f4f5f5; stroke: #ffffff; stroke-linejoin: miter"/>
   </g>
   <g id="patch_17">
    <path d="M 463.568825 380.790479 
C 472.418705 358.438232 475.666723 334.256469 473.028661 310.361198 
C 470.390598 286.465928 461.945716 263.575072 448.432978 243.691682 
C 434.92024 223.808291 416.745629 207.529752 395.499504 196.280508 
C 374.25338 185.031264 350.574069 179.149292 326.533618 179.149292 
L 326.533618 203.713477 
C 346.567328 203.713477 366.300086 208.61512 384.00519 217.98949 
C 401.710294 227.36386 416.855803 240.929309 428.116418 257.498801 
C 439.377033 274.068294 446.414435 293.144007 448.61282 313.056732 
C 450.811205 332.969457 448.104524 353.120927 440.729623 371.747799 
z
" style="fill: #d0e5f1; stroke: #ffffff; stroke-linejoin: miter"/>
   </g>
   <g id="patch_18">
    <path d="M 326.533618 203.713477 
C 314.363431 203.713477 302.260552 205.522372 290.622206 209.080794 
C 278.983861 212.639215 267.938782 217.907802 257.849477 224.713636 
C 247.760172 231.519471 238.738241 239.787271 231.079789 249.245684 
C 223.421337 258.704096 217.211076 269.248499 212.652831 280.532818 
C 208.094586 291.817137 205.238777 303.716554 204.179132 315.840523 
C 203.119488 327.964491 203.86773 340.178905 206.3993 352.082879 
C 208.93087 363.986854 213.217766 375.448716 219.11929 386.092281 
C 225.020813 396.735846 232.471686 406.443383 241.227366 414.896284 
C 249.983045 423.349184 259.946683 430.453949 270.791267 435.977396 
C 281.63585 441.500843 293.241425 445.381876 305.227088 447.493116 
C 317.212751 449.604356 329.445927 449.922451 341.525114 448.43696 
C 353.604302 446.95147 365.395891 443.678825 376.512873 438.726437 
C 387.629856 433.774049 397.949265 427.196696 407.132411 419.210252 
C 416.315557 411.223809 424.260863 401.916613 430.707559 391.594135 
C 437.154255 381.271656 442.031033 370.048073 445.177833 358.291751 
C 448.324633 346.535429 449.706649 334.376408 449.278521 322.213753 
L 424.72954 323.077883 
C 425.072043 332.808006 423.96643 342.535223 421.44899 351.940281 
C 418.93155 361.345338 415.030128 370.324205 409.872771 378.582188 
C 404.715414 386.840171 398.35917 394.285927 391.012653 400.675082 
C 383.666136 407.064237 375.410609 412.326119 366.517022 416.28803 
C 357.623436 420.24994 348.190165 422.868056 338.526815 424.056448 
C 328.863465 425.244841 319.076924 424.990365 309.488394 423.301373 
C 299.899863 421.612381 290.615404 418.507555 281.939737 414.088797 
C 273.26407 409.67004 265.29316 403.986227 258.288616 397.223907 
C 251.284072 390.461586 245.323374 382.695557 240.602155 374.180705 
C 235.880937 365.665853 232.45142 356.496363 230.426164 346.973184 
C 228.400907 337.450004 227.802314 327.678473 228.650029 317.979298 
C 229.497745 308.280124 231.782392 298.76059 235.428988 289.733135 
C 239.075584 280.705679 244.043793 272.270157 250.170555 264.703427 
C 256.297316 257.136697 263.514861 250.522456 271.586305 245.077789 
C 279.657749 239.633122 288.493812 235.418252 297.804489 232.571515 
C 307.115165 229.724778 316.797468 228.277662 326.533618 228.277662 
z
" style="fill: #f4f5f5; stroke: #ffffff; stroke-linejoin: miter"/>
   </g>
   <g id="patch_19">
    <path d="M 449.278521 322.213753 
C 448.159323 290.418551 434.728677 260.26981 411.839874 238.17252 
C 388.951072 216.07523 358.348524 203.71348 326.533629 203.713477 
L 326.533627 228.277662 
C 351.985543 228.277664 376.467581 238.167064 394.778623 255.844896 
C 413.089665 273.522728 423.834182 297.641721 424.72954 323.077883 
z
" style="fill: #dbebf4; stroke: #ffffff; stroke-linejoin: miter"/>
   </g>
   <g id="patch_20">
    <path d="M 326.533618 228.277662 
C 316.485744 228.277662 306.497061 229.818926 296.916517 232.847613 
C 287.335973 235.8763 278.276444 240.356726 270.054417 246.132369 
C 261.832391 251.908013 254.544739 258.910826 248.446049 266.896173 
C 242.347358 274.881519 237.509485 283.755315 234.101435 293.207561 
C 230.693385 302.659808 228.755312 312.57914 228.354921 322.619034 
C 227.95453 332.658927 229.096538 342.701093 231.741051 352.394716 
C 234.385564 362.088339 238.501424 371.31921 243.944846 379.764855 
C 249.388268 388.210501 256.095119 395.771415 263.8311 402.183464 
C 271.567081 408.595513 280.241048 413.78315 289.549982 417.565149 
C 298.858916 421.347149 308.693141 423.678951 318.709105 424.479097 
C 328.725069 425.279243 338.804766 424.538305 348.596069 422.282167 
C 358.387372 420.026029 367.774921 416.281274 376.43077 411.17872 
C 385.086619 406.076166 392.908785 399.675932 399.624007 392.201604 
C 406.339229 384.727277 411.868388 376.266918 416.018329 367.116084 
C 420.16827 357.96525 422.890098 348.231755 424.088728 338.25563 
C 425.287357 328.279506 424.948667 318.17829 423.084488 308.30486 
L 398.946771 312.862245 
C 400.344905 320.267317 400.598922 327.843229 399.69995 335.325323 
C 398.800978 342.807416 396.759607 350.107537 393.647151 356.970663 
C 390.534696 363.833789 386.387826 370.179058 381.35141 375.784803 
C 376.314993 381.390549 370.448369 386.190724 363.956482 390.01764 
C 357.464596 393.844555 350.423934 396.653122 343.080456 398.345225 
C 335.736979 400.037329 328.177206 400.593032 320.665233 399.992923 
C 313.15326 399.392813 305.777592 397.643961 298.795891 394.807462 
C 291.81419 391.970962 285.308715 388.080235 279.506729 383.271198 
C 273.704744 378.462161 268.674605 372.791476 264.592039 366.457241 
C 260.509472 360.123007 257.422577 353.199854 255.439193 345.929637 
C 253.455808 338.65942 252.599302 331.127795 252.899595 323.597875 
C 253.199888 316.067955 254.653443 308.628456 257.209481 301.539271 
C 259.765518 294.450086 263.393923 287.794739 267.967941 281.805729 
C 272.541959 275.81672 278.007698 270.56461 284.174218 266.232877 
C 290.340737 261.901144 297.135384 258.540825 304.320792 256.26931 
C 311.5062 253.997795 318.997712 252.841846 326.533618 252.841846 
z
" style="fill: #f4f5f5; stroke: #ffffff; stroke-linejoin: miter"/>
   </g>
   <g id="patch_21">
    <path d="M 423.084488 308.30486 
C 418.837476 285.811003 406.860404 265.493391 389.236125 250.885327 
C 371.611847 236.277264 349.424871 228.277655 326.53359 228.277662 
L 326.533597 252.841846 
C 343.702057 252.841841 360.34229 258.841548 373.560498 269.797595 
C 386.778707 280.753643 395.761512 295.991852 398.946771 312.862245 
z
" style="fill: #deedf5; stroke: #ffffff; stroke-linejoin: miter"/>
   </g>
   <g id="matplotlib.axis_1"/>
   <g id="matplotlib.axis_2"/>
   <g id="text_1">
    <!-- AUPRC_0 on generalized models -->
    <g transform="translate(190.571743 94.3392) scale(0.168 -0.168)">
     <defs>
      <path id="DejaVuSans-41" d="M 2188 4044 
L 1331 1722 
L 3047 1722 
L 2188 4044 
z
M 1831 4666 
L 2547 4666 
L 4325 0 
L 3669 0 
L 3244 1197 
L 1141 1197 
L 716 0 
L 50 0 
L 1831 4666 
z
" transform="scale(0.015625)"/>
      <path id="DejaVuSans-55" d="M 556 4666 
L 1191 4666 
L 1191 1831 
Q 1191 1081 1462 751 
Q 1734 422 2344 422 
Q 2950 422 3222 751 
Q 3494 1081 3494 1831 
L 3494 4666 
L 4128 4666 
L 4128 1753 
Q 4128 841 3676 375 
Q 3225 -91 2344 -91 
Q 1459 -91 1007 375 
Q 556 841 556 1753 
L 556 4666 
z
" transform="scale(0.015625)"/>
      <path id="DejaVuSans-50" d="M 1259 4147 
L 1259 2394 
L 2053 2394 
Q 2494 2394 2734 2622 
Q 2975 2850 2975 3272 
Q 2975 3691 2734 3919 
Q 2494 4147 2053 4147 
L 1259 4147 
z
M 628 4666 
L 2053 4666 
Q 2838 4666 3239 4311 
Q 3641 3956 3641 3272 
Q 3641 2581 3239 2228 
Q 2838 1875 2053 1875 
L 1259 1875 
L 1259 0 
L 628 0 
L 628 4666 
z
" transform="scale(0.015625)"/>
      <path id="DejaVuSans-52" d="M 2841 2188 
Q 3044 2119 3236 1894 
Q 3428 1669 3622 1275 
L 4263 0 
L 3584 0 
L 2988 1197 
Q 2756 1666 2539 1819 
Q 2322 1972 1947 1972 
L 1259 1972 
L 1259 0 
L 628 0 
L 628 4666 
L 2053 4666 
Q 2853 4666 3247 4331 
Q 3641 3997 3641 3322 
Q 3641 2881 3436 2590 
Q 3231 2300 2841 2188 
z
M 1259 4147 
L 1259 2491 
L 2053 2491 
Q 2509 2491 2742 2702 
Q 2975 2913 2975 3322 
Q 2975 3731 2742 3939 
Q 2509 4147 2053 4147 
L 1259 4147 
z
" transform="scale(0.015625)"/>
      <path id="DejaVuSans-43" d="M 4122 4306 
L 4122 3641 
Q 3803 3938 3442 4084 
Q 3081 4231 2675 4231 
Q 1875 4231 1450 3742 
Q 1025 3253 1025 2328 
Q 1025 1406 1450 917 
Q 1875 428 2675 428 
Q 3081 428 3442 575 
Q 3803 722 4122 1019 
L 4122 359 
Q 3791 134 3420 21 
Q 3050 -91 2638 -91 
Q 1578 -91 968 557 
Q 359 1206 359 2328 
Q 359 3453 968 4101 
Q 1578 4750 2638 4750 
Q 3056 4750 3426 4639 
Q 3797 4528 4122 4306 
z
" transform="scale(0.015625)"/>
      <path id="DejaVuSans-5f" d="M 3263 -1063 
L 3263 -1509 
L -63 -1509 
L -63 -1063 
L 3263 -1063 
z
" transform="scale(0.015625)"/>
      <path id="DejaVuSans-30" d="M 2034 4250 
Q 1547 4250 1301 3770 
Q 1056 3291 1056 2328 
Q 1056 1369 1301 889 
Q 1547 409 2034 409 
Q 2525 409 2770 889 
Q 3016 1369 3016 2328 
Q 3016 3291 2770 3770 
Q 2525 4250 2034 4250 
z
M 2034 4750 
Q 2819 4750 3233 4129 
Q 3647 3509 3647 2328 
Q 3647 1150 3233 529 
Q 2819 -91 2034 -91 
Q 1250 -91 836 529 
Q 422 1150 422 2328 
Q 422 3509 836 4129 
Q 1250 4750 2034 4750 
z
" transform="scale(0.015625)"/>
      <path id="DejaVuSans-20" transform="scale(0.015625)"/>
      <path id="DejaVuSans-6f" d="M 1959 3097 
Q 1497 3097 1228 2736 
Q 959 2375 959 1747 
Q 959 1119 1226 758 
Q 1494 397 1959 397 
Q 2419 397 2687 759 
Q 2956 1122 2956 1747 
Q 2956 2369 2687 2733 
Q 2419 3097 1959 3097 
z
M 1959 3584 
Q 2709 3584 3137 3096 
Q 3566 2609 3566 1747 
Q 3566 888 3137 398 
Q 2709 -91 1959 -91 
Q 1206 -91 779 398 
Q 353 888 353 1747 
Q 353 2609 779 3096 
Q 1206 3584 1959 3584 
z
" transform="scale(0.015625)"/>
      <path id="DejaVuSans-6e" d="M 3513 2113 
L 3513 0 
L 2938 0 
L 2938 2094 
Q 2938 2591 2744 2837 
Q 2550 3084 2163 3084 
Q 1697 3084 1428 2787 
Q 1159 2491 1159 1978 
L 1159 0 
L 581 0 
L 581 3500 
L 1159 3500 
L 1159 2956 
Q 1366 3272 1645 3428 
Q 1925 3584 2291 3584 
Q 2894 3584 3203 3211 
Q 3513 2838 3513 2113 
z
" transform="scale(0.015625)"/>
      <path id="DejaVuSans-67" d="M 2906 1791 
Q 2906 2416 2648 2759 
Q 2391 3103 1925 3103 
Q 1463 3103 1205 2759 
Q 947 2416 947 1791 
Q 947 1169 1205 825 
Q 1463 481 1925 481 
Q 2391 481 2648 825 
Q 2906 1169 2906 1791 
z
M 3481 434 
Q 3481 -459 3084 -895 
Q 2688 -1331 1869 -1331 
Q 1566 -1331 1297 -1286 
Q 1028 -1241 775 -1147 
L 775 -588 
Q 1028 -725 1275 -790 
Q 1522 -856 1778 -856 
Q 2344 -856 2625 -561 
Q 2906 -266 2906 331 
L 2906 616 
Q 2728 306 2450 153 
Q 2172 0 1784 0 
Q 1141 0 747 490 
Q 353 981 353 1791 
Q 353 2603 747 3093 
Q 1141 3584 1784 3584 
Q 2172 3584 2450 3431 
Q 2728 3278 2906 2969 
L 2906 3500 
L 3481 3500 
L 3481 434 
z
" transform="scale(0.015625)"/>
      <path id="DejaVuSans-65" d="M 3597 1894 
L 3597 1613 
L 953 1613 
Q 991 1019 1311 708 
Q 1631 397 2203 397 
Q 2534 397 2845 478 
Q 3156 559 3463 722 
L 3463 178 
Q 3153 47 2828 -22 
Q 2503 -91 2169 -91 
Q 1331 -91 842 396 
Q 353 884 353 1716 
Q 353 2575 817 3079 
Q 1281 3584 2069 3584 
Q 2775 3584 3186 3129 
Q 3597 2675 3597 1894 
z
M 3022 2063 
Q 3016 2534 2758 2815 
Q 2500 3097 2075 3097 
Q 1594 3097 1305 2825 
Q 1016 2553 972 2059 
L 3022 2063 
z
" transform="scale(0.015625)"/>
      <path id="DejaVuSans-72" d="M 2631 2963 
Q 2534 3019 2420 3045 
Q 2306 3072 2169 3072 
Q 1681 3072 1420 2755 
Q 1159 2438 1159 1844 
L 1159 0 
L 581 0 
L 581 3500 
L 1159 3500 
L 1159 2956 
Q 1341 3275 1631 3429 
Q 1922 3584 2338 3584 
Q 2397 3584 2469 3576 
Q 2541 3569 2628 3553 
L 2631 2963 
z
" transform="scale(0.015625)"/>
      <path id="DejaVuSans-61" d="M 2194 1759 
Q 1497 1759 1228 1600 
Q 959 1441 959 1056 
Q 959 750 1161 570 
Q 1363 391 1709 391 
Q 2188 391 2477 730 
Q 2766 1069 2766 1631 
L 2766 1759 
L 2194 1759 
z
M 3341 1997 
L 3341 0 
L 2766 0 
L 2766 531 
Q 2569 213 2275 61 
Q 1981 -91 1556 -91 
Q 1019 -91 701 211 
Q 384 513 384 1019 
Q 384 1609 779 1909 
Q 1175 2209 1959 2209 
L 2766 2209 
L 2766 2266 
Q 2766 2663 2505 2880 
Q 2244 3097 1772 3097 
Q 1472 3097 1187 3025 
Q 903 2953 641 2809 
L 641 3341 
Q 956 3463 1253 3523 
Q 1550 3584 1831 3584 
Q 2591 3584 2966 3190 
Q 3341 2797 3341 1997 
z
" transform="scale(0.015625)"/>
      <path id="DejaVuSans-6c" d="M 603 4863 
L 1178 4863 
L 1178 0 
L 603 0 
L 603 4863 
z
" transform="scale(0.015625)"/>
      <path id="DejaVuSans-69" d="M 603 3500 
L 1178 3500 
L 1178 0 
L 603 0 
L 603 3500 
z
M 603 4863 
L 1178 4863 
L 1178 4134 
L 603 4134 
L 603 4863 
z
" transform="scale(0.015625)"/>
      <path id="DejaVuSans-7a" d="M 353 3500 
L 3084 3500 
L 3084 2975 
L 922 459 
L 3084 459 
L 3084 0 
L 275 0 
L 275 525 
L 2438 3041 
L 353 3041 
L 353 3500 
z
" transform="scale(0.015625)"/>
      <path id="DejaVuSans-64" d="M 2906 2969 
L 2906 4863 
L 3481 4863 
L 3481 0 
L 2906 0 
L 2906 525 
Q 2725 213 2448 61 
Q 2172 -91 1784 -91 
Q 1150 -91 751 415 
Q 353 922 353 1747 
Q 353 2572 751 3078 
Q 1150 3584 1784 3584 
Q 2172 3584 2448 3432 
Q 2725 3281 2906 2969 
z
M 947 1747 
Q 947 1113 1208 752 
Q 1469 391 1925 391 
Q 2381 391 2643 752 
Q 2906 1113 2906 1747 
Q 2906 2381 2643 2742 
Q 2381 3103 1925 3103 
Q 1469 3103 1208 2742 
Q 947 2381 947 1747 
z
" transform="scale(0.015625)"/>
      <path id="DejaVuSans-6d" d="M 3328 2828 
Q 3544 3216 3844 3400 
Q 4144 3584 4550 3584 
Q 5097 3584 5394 3201 
Q 5691 2819 5691 2113 
L 5691 0 
L 5113 0 
L 5113 2094 
Q 5113 2597 4934 2840 
Q 4756 3084 4391 3084 
Q 3944 3084 3684 2787 
Q 3425 2491 3425 1978 
L 3425 0 
L 2847 0 
L 2847 2094 
Q 2847 2600 2669 2842 
Q 2491 3084 2119 3084 
Q 1678 3084 1418 2786 
Q 1159 2488 1159 1978 
L 1159 0 
L 581 0 
L 581 3500 
L 1159 3500 
L 1159 2956 
Q 1356 3278 1631 3431 
Q 1906 3584 2284 3584 
Q 2666 3584 2933 3390 
Q 3200 3197 3328 2828 
z
" transform="scale(0.015625)"/>
      <path id="DejaVuSans-73" d="M 2834 3397 
L 2834 2853 
Q 2591 2978 2328 3040 
Q 2066 3103 1784 3103 
Q 1356 3103 1142 2972 
Q 928 2841 928 2578 
Q 928 2378 1081 2264 
Q 1234 2150 1697 2047 
L 1894 2003 
Q 2506 1872 2764 1633 
Q 3022 1394 3022 966 
Q 3022 478 2636 193 
Q 2250 -91 1575 -91 
Q 1294 -91 989 -36 
Q 684 19 347 128 
L 347 722 
Q 666 556 975 473 
Q 1284 391 1588 391 
Q 1994 391 2212 530 
Q 2431 669 2431 922 
Q 2431 1156 2273 1281 
Q 2116 1406 1581 1522 
L 1381 1569 
Q 847 1681 609 1914 
Q 372 2147 372 2553 
Q 372 3047 722 3315 
Q 1072 3584 1716 3584 
Q 2034 3584 2315 3537 
Q 2597 3491 2834 3397 
z
" transform="scale(0.015625)"/>
     </defs>
     <use xlink:href="#DejaVuSans-41"/>
     <use xlink:href="#DejaVuSans-55" x="68.408203"/>
     <use xlink:href="#DejaVuSans-50" x="141.601562"/>
     <use xlink:href="#DejaVuSans-52" x="201.904297"/>
     <use xlink:href="#DejaVuSans-43" x="266.386719"/>
     <use xlink:href="#DejaVuSans-5f" x="336.210938"/>
     <use xlink:href="#DejaVuSans-30" x="386.210938"/>
     <use xlink:href="#DejaVuSans-20" x="449.833984"/>
     <use xlink:href="#DejaVuSans-6f" x="481.621094"/>
     <use xlink:href="#DejaVuSans-6e" x="542.802734"/>
     <use xlink:href="#DejaVuSans-20" x="606.181641"/>
     <use xlink:href="#DejaVuSans-67" x="637.96875"/>
     <use xlink:href="#DejaVuSans-65" x="701.445312"/>
     <use xlink:href="#DejaVuSans-6e" x="762.96875"/>
     <use xlink:href="#DejaVuSans-65" x="826.347656"/>
     <use xlink:href="#DejaVuSans-72" x="887.871094"/>
     <use xlink:href="#DejaVuSans-61" x="928.984375"/>
     <use xlink:href="#DejaVuSans-6c" x="990.263672"/>
     <use xlink:href="#DejaVuSans-69" x="1018.046875"/>
     <use xlink:href="#DejaVuSans-7a" x="1045.830078"/>
     <use xlink:href="#DejaVuSans-65" x="1098.320312"/>
     <use xlink:href="#DejaVuSans-64" x="1159.84375"/>
     <use xlink:href="#DejaVuSans-20" x="1223.320312"/>
     <use xlink:href="#DejaVuSans-6d" x="1255.107422"/>
     <use xlink:href="#DejaVuSans-6f" x="1352.519531"/>
     <use xlink:href="#DejaVuSans-64" x="1413.701172"/>
     <use xlink:href="#DejaVuSans-65" x="1477.177734"/>
     <use xlink:href="#DejaVuSans-6c" x="1538.701172"/>
     <use xlink:href="#DejaVuSans-73" x="1566.484375"/>
    </g>
   </g>
   <g id="legend_1">
    <g id="patch_22">
     <path d="M 595.445618 326.5344 
L 880.08093 326.5344 
Q 882.88093 326.5344 882.88093 323.7344 
L 882.88093 97.1444 
Q 882.88093 94.3444 880.08093 94.3444 
L 595.445618 94.3444 
Q 592.645618 94.3444 592.645618 97.1444 
L 592.645618 323.7344 
Q 592.645618 326.5344 595.445618 326.5344 
z
" style="fill: #ffffff; opacity: 0.8; stroke: #cccccc; stroke-linejoin: miter"/>
    </g>
    <g id="text_2">
     <!-- Models -->
     <g transform="translate(713.098118 110.582212) scale(0.14 -0.14)">
      <defs>
       <path id="DejaVuSans-4d" d="M 628 4666 
L 1569 4666 
L 2759 1491 
L 3956 4666 
L 4897 4666 
L 4897 0 
L 4281 0 
L 4281 4097 
L 3078 897 
L 2444 897 
L 1241 4097 
L 1241 0 
L 628 0 
L 628 4666 
z
" transform="scale(0.015625)"/>
      </defs>
      <use xlink:href="#DejaVuSans-4d"/>
      <use xlink:href="#DejaVuSans-6f" x="86.279297"/>
      <use xlink:href="#DejaVuSans-64" x="147.460938"/>
      <use xlink:href="#DejaVuSans-65" x="210.9375"/>
      <use xlink:href="#DejaVuSans-6c" x="272.460938"/>
      <use xlink:href="#DejaVuSans-73" x="300.244141"/>
     </g>
    </g>
    <g id="patch_23">
     <path d="M 598.245618 131.131588 
L 626.245618 131.131588 
L 626.245618 121.331588 
L 598.245618 121.331588 
z
" style="fill: #b0d3e8; stroke: #ffffff; stroke-linejoin: miter"/>
    </g>
    <g id="text_3">
     <!-- xgboost (53.48%) -->
     <g transform="translate(637.445618 131.131588) scale(0.14 -0.14)">
      <defs>
       <path id="DejaVuSans-78" d="M 3513 3500 
L 2247 1797 
L 3578 0 
L 2900 0 
L 1881 1375 
L 863 0 
L 184 0 
L 1544 1831 
L 300 3500 
L 978 3500 
L 1906 2253 
L 2834 3500 
L 3513 3500 
z
" transform="scale(0.015625)"/>
       <path id="DejaVuSans-62" d="M 3116 1747 
Q 3116 2381 2855 2742 
Q 2594 3103 2138 3103 
Q 1681 3103 1420 2742 
Q 1159 2381 1159 1747 
Q 1159 1113 1420 752 
Q 1681 391 2138 391 
Q 2594 391 2855 752 
Q 3116 1113 3116 1747 
z
M 1159 2969 
Q 1341 3281 1617 3432 
Q 1894 3584 2278 3584 
Q 2916 3584 3314 3078 
Q 3713 2572 3713 1747 
Q 3713 922 3314 415 
Q 2916 -91 2278 -91 
Q 1894 -91 1617 61 
Q 1341 213 1159 525 
L 1159 0 
L 581 0 
L 581 4863 
L 1159 4863 
L 1159 2969 
z
" transform="scale(0.015625)"/>
       <path id="DejaVuSans-74" d="M 1172 4494 
L 1172 3500 
L 2356 3500 
L 2356 3053 
L 1172 3053 
L 1172 1153 
Q 1172 725 1289 603 
Q 1406 481 1766 481 
L 2356 481 
L 2356 0 
L 1766 0 
Q 1100 0 847 248 
Q 594 497 594 1153 
L 594 3053 
L 172 3053 
L 172 3500 
L 594 3500 
L 594 4494 
L 1172 4494 
z
" transform="scale(0.015625)"/>
       <path id="DejaVuSans-28" d="M 1984 4856 
Q 1566 4138 1362 3434 
Q 1159 2731 1159 2009 
Q 1159 1288 1364 580 
Q 1569 -128 1984 -844 
L 1484 -844 
Q 1016 -109 783 600 
Q 550 1309 550 2009 
Q 550 2706 781 3412 
Q 1013 4119 1484 4856 
L 1984 4856 
z
" transform="scale(0.015625)"/>
       <path id="DejaVuSans-35" d="M 691 4666 
L 3169 4666 
L 3169 4134 
L 1269 4134 
L 1269 2991 
Q 1406 3038 1543 3061 
Q 1681 3084 1819 3084 
Q 2600 3084 3056 2656 
Q 3513 2228 3513 1497 
Q 3513 744 3044 326 
Q 2575 -91 1722 -91 
Q 1428 -91 1123 -41 
Q 819 9 494 109 
L 494 744 
Q 775 591 1075 516 
Q 1375 441 1709 441 
Q 2250 441 2565 725 
Q 2881 1009 2881 1497 
Q 2881 1984 2565 2268 
Q 2250 2553 1709 2553 
Q 1456 2553 1204 2497 
Q 953 2441 691 2322 
L 691 4666 
z
" transform="scale(0.015625)"/>
       <path id="DejaVuSans-33" d="M 2597 2516 
Q 3050 2419 3304 2112 
Q 3559 1806 3559 1356 
Q 3559 666 3084 287 
Q 2609 -91 1734 -91 
Q 1441 -91 1130 -33 
Q 819 25 488 141 
L 488 750 
Q 750 597 1062 519 
Q 1375 441 1716 441 
Q 2309 441 2620 675 
Q 2931 909 2931 1356 
Q 2931 1769 2642 2001 
Q 2353 2234 1838 2234 
L 1294 2234 
L 1294 2753 
L 1863 2753 
Q 2328 2753 2575 2939 
Q 2822 3125 2822 3475 
Q 2822 3834 2567 4026 
Q 2313 4219 1838 4219 
Q 1578 4219 1281 4162 
Q 984 4106 628 3988 
L 628 4550 
Q 988 4650 1302 4700 
Q 1616 4750 1894 4750 
Q 2613 4750 3031 4423 
Q 3450 4097 3450 3541 
Q 3450 3153 3228 2886 
Q 3006 2619 2597 2516 
z
" transform="scale(0.015625)"/>
       <path id="DejaVuSans-2e" d="M 684 794 
L 1344 794 
L 1344 0 
L 684 0 
L 684 794 
z
" transform="scale(0.015625)"/>
       <path id="DejaVuSans-34" d="M 2419 4116 
L 825 1625 
L 2419 1625 
L 2419 4116 
z
M 2253 4666 
L 3047 4666 
L 3047 1625 
L 3713 1625 
L 3713 1100 
L 3047 1100 
L 3047 0 
L 2419 0 
L 2419 1100 
L 313 1100 
L 313 1709 
L 2253 4666 
z
" transform="scale(0.015625)"/>
       <path id="DejaVuSans-38" d="M 2034 2216 
Q 1584 2216 1326 1975 
Q 1069 1734 1069 1313 
Q 1069 891 1326 650 
Q 1584 409 2034 409 
Q 2484 409 2743 651 
Q 3003 894 3003 1313 
Q 3003 1734 2745 1975 
Q 2488 2216 2034 2216 
z
M 1403 2484 
Q 997 2584 770 2862 
Q 544 3141 544 3541 
Q 544 4100 942 4425 
Q 1341 4750 2034 4750 
Q 2731 4750 3128 4425 
Q 3525 4100 3525 3541 
Q 3525 3141 3298 2862 
Q 3072 2584 2669 2484 
Q 3125 2378 3379 2068 
Q 3634 1759 3634 1313 
Q 3634 634 3220 271 
Q 2806 -91 2034 -91 
Q 1263 -91 848 271 
Q 434 634 434 1313 
Q 434 1759 690 2068 
Q 947 2378 1403 2484 
z
M 1172 3481 
Q 1172 3119 1398 2916 
Q 1625 2713 2034 2713 
Q 2441 2713 2670 2916 
Q 2900 3119 2900 3481 
Q 2900 3844 2670 4047 
Q 2441 4250 2034 4250 
Q 1625 4250 1398 4047 
Q 1172 3844 1172 3481 
z
" transform="scale(0.015625)"/>
       <path id="DejaVuSans-25" d="M 4653 2053 
Q 4381 2053 4226 1822 
Q 4072 1591 4072 1178 
Q 4072 772 4226 539 
Q 4381 306 4653 306 
Q 4919 306 5073 539 
Q 5228 772 5228 1178 
Q 5228 1588 5073 1820 
Q 4919 2053 4653 2053 
z
M 4653 2450 
Q 5147 2450 5437 2106 
Q 5728 1763 5728 1178 
Q 5728 594 5436 251 
Q 5144 -91 4653 -91 
Q 4153 -91 3862 251 
Q 3572 594 3572 1178 
Q 3572 1766 3864 2108 
Q 4156 2450 4653 2450 
z
M 1428 4353 
Q 1159 4353 1004 4120 
Q 850 3888 850 3481 
Q 850 3069 1003 2837 
Q 1156 2606 1428 2606 
Q 1700 2606 1854 2837 
Q 2009 3069 2009 3481 
Q 2009 3884 1853 4118 
Q 1697 4353 1428 4353 
z
M 4250 4750 
L 4750 4750 
L 1831 -91 
L 1331 -91 
L 4250 4750 
z
M 1428 4750 
Q 1922 4750 2215 4408 
Q 2509 4066 2509 3481 
Q 2509 2891 2217 2550 
Q 1925 2209 1428 2209 
Q 931 2209 642 2551 
Q 353 2894 353 3481 
Q 353 4063 643 4406 
Q 934 4750 1428 4750 
z
" transform="scale(0.015625)"/>
       <path id="DejaVuSans-29" d="M 513 4856 
L 1013 4856 
Q 1481 4119 1714 3412 
Q 1947 2706 1947 2009 
Q 1947 1309 1714 600 
Q 1481 -109 1013 -844 
L 513 -844 
Q 928 -128 1133 580 
Q 1338 1288 1338 2009 
Q 1338 2731 1133 3434 
Q 928 4138 513 4856 
z
" transform="scale(0.015625)"/>
      </defs>
      <use xlink:href="#DejaVuSans-78"/>
      <use xlink:href="#DejaVuSans-67" x="59.179688"/>
      <use xlink:href="#DejaVuSans-62" x="122.65625"/>
      <use xlink:href="#DejaVuSans-6f" x="186.132812"/>
      <use xlink:href="#DejaVuSans-6f" x="247.314453"/>
      <use xlink:href="#DejaVuSans-73" x="308.496094"/>
      <use xlink:href="#DejaVuSans-74" x="360.595703"/>
      <use xlink:href="#DejaVuSans-20" x="399.804688"/>
      <use xlink:href="#DejaVuSans-28" x="431.591797"/>
      <use xlink:href="#DejaVuSans-35" x="470.605469"/>
      <use xlink:href="#DejaVuSans-33" x="534.228516"/>
      <use xlink:href="#DejaVuSans-2e" x="597.851562"/>
      <use xlink:href="#DejaVuSans-34" x="629.638672"/>
      <use xlink:href="#DejaVuSans-38" x="693.261719"/>
      <use xlink:href="#DejaVuSans-25" x="756.884766"/>
      <use xlink:href="#DejaVuSans-29" x="851.904297"/>
     </g>
    </g>
    <g id="patch_24">
     <path d="M 598.245618 151.680963 
L 626.245618 151.680963 
L 626.245618 141.880963 
L 598.245618 141.880963 
z
" style="fill: #b2d5e9; stroke: #ffffff; stroke-linejoin: miter"/>
    </g>
    <g id="text_4">
     <!-- random_forest (51.03%) -->
     <g transform="translate(637.445618 151.680963) scale(0.14 -0.14)">
      <defs>
       <path id="DejaVuSans-66" d="M 2375 4863 
L 2375 4384 
L 1825 4384 
Q 1516 4384 1395 4259 
Q 1275 4134 1275 3809 
L 1275 3500 
L 2222 3500 
L 2222 3053 
L 1275 3053 
L 1275 0 
L 697 0 
L 697 3053 
L 147 3053 
L 147 3500 
L 697 3500 
L 697 3744 
Q 697 4328 969 4595 
Q 1241 4863 1831 4863 
L 2375 4863 
z
" transform="scale(0.015625)"/>
       <path id="DejaVuSans-31" d="M 794 531 
L 1825 531 
L 1825 4091 
L 703 3866 
L 703 4441 
L 1819 4666 
L 2450 4666 
L 2450 531 
L 3481 531 
L 3481 0 
L 794 0 
L 794 531 
z
" transform="scale(0.015625)"/>
      </defs>
      <use xlink:href="#DejaVuSans-72"/>
      <use xlink:href="#DejaVuSans-61" x="41.113281"/>
      <use xlink:href="#DejaVuSans-6e" x="102.392578"/>
      <use xlink:href="#DejaVuSans-64" x="165.771484"/>
      <use xlink:href="#DejaVuSans-6f" x="229.248047"/>
      <use xlink:href="#DejaVuSans-6d" x="290.429688"/>
      <use xlink:href="#DejaVuSans-5f" x="387.841797"/>
      <use xlink:href="#DejaVuSans-66" x="437.841797"/>
      <use xlink:href="#DejaVuSans-6f" x="473.046875"/>
      <use xlink:href="#DejaVuSans-72" x="534.228516"/>
      <use xlink:href="#DejaVuSans-65" x="573.091797"/>
      <use xlink:href="#DejaVuSans-73" x="634.615234"/>
      <use xlink:href="#DejaVuSans-74" x="686.714844"/>
      <use xlink:href="#DejaVuSans-20" x="725.923828"/>
      <use xlink:href="#DejaVuSans-28" x="757.710938"/>
      <use xlink:href="#DejaVuSans-35" x="796.724609"/>
      <use xlink:href="#DejaVuSans-31" x="860.347656"/>
      <use xlink:href="#DejaVuSans-2e" x="923.970703"/>
      <use xlink:href="#DejaVuSans-30" x="955.757812"/>
      <use xlink:href="#DejaVuSans-33" x="1019.380859"/>
      <use xlink:href="#DejaVuSans-25" x="1083.003906"/>
      <use xlink:href="#DejaVuSans-29" x="1178.023438"/>
     </g>
    </g>
    <g id="patch_25">
     <path d="M 598.245618 172.619712 
L 626.245618 172.619712 
L 626.245618 162.819712 
L 598.245618 162.819712 
z
" style="fill: #bedbec; stroke: #ffffff; stroke-linejoin: miter"/>
    </g>
    <g id="text_5">
     <!-- neural_network (43.27%) -->
     <g transform="translate(637.445618 172.619712) scale(0.14 -0.14)">
      <defs>
       <path id="DejaVuSans-75" d="M 544 1381 
L 544 3500 
L 1119 3500 
L 1119 1403 
Q 1119 906 1312 657 
Q 1506 409 1894 409 
Q 2359 409 2629 706 
Q 2900 1003 2900 1516 
L 2900 3500 
L 3475 3500 
L 3475 0 
L 2900 0 
L 2900 538 
Q 2691 219 2414 64 
Q 2138 -91 1772 -91 
Q 1169 -91 856 284 
Q 544 659 544 1381 
z
M 1991 3584 
L 1991 3584 
z
" transform="scale(0.015625)"/>
       <path id="DejaVuSans-77" d="M 269 3500 
L 844 3500 
L 1563 769 
L 2278 3500 
L 2956 3500 
L 3675 769 
L 4391 3500 
L 4966 3500 
L 4050 0 
L 3372 0 
L 2619 2869 
L 1863 0 
L 1184 0 
L 269 3500 
z
" transform="scale(0.015625)"/>
       <path id="DejaVuSans-6b" d="M 581 4863 
L 1159 4863 
L 1159 1991 
L 2875 3500 
L 3609 3500 
L 1753 1863 
L 3688 0 
L 2938 0 
L 1159 1709 
L 1159 0 
L 581 0 
L 581 4863 
z
" transform="scale(0.015625)"/>
       <path id="DejaVuSans-32" d="M 1228 531 
L 3431 531 
L 3431 0 
L 469 0 
L 469 531 
Q 828 903 1448 1529 
Q 2069 2156 2228 2338 
Q 2531 2678 2651 2914 
Q 2772 3150 2772 3378 
Q 2772 3750 2511 3984 
Q 2250 4219 1831 4219 
Q 1534 4219 1204 4116 
Q 875 4013 500 3803 
L 500 4441 
Q 881 4594 1212 4672 
Q 1544 4750 1819 4750 
Q 2544 4750 2975 4387 
Q 3406 4025 3406 3419 
Q 3406 3131 3298 2873 
Q 3191 2616 2906 2266 
Q 2828 2175 2409 1742 
Q 1991 1309 1228 531 
z
" transform="scale(0.015625)"/>
       <path id="DejaVuSans-37" d="M 525 4666 
L 3525 4666 
L 3525 4397 
L 1831 0 
L 1172 0 
L 2766 4134 
L 525 4134 
L 525 4666 
z
" transform="scale(0.015625)"/>
      </defs>
      <use xlink:href="#DejaVuSans-6e"/>
      <use xlink:href="#DejaVuSans-65" x="63.378906"/>
      <use xlink:href="#DejaVuSans-75" x="124.902344"/>
      <use xlink:href="#DejaVuSans-72" x="188.28125"/>
      <use xlink:href="#DejaVuSans-61" x="229.394531"/>
      <use xlink:href="#DejaVuSans-6c" x="290.673828"/>
      <use xlink:href="#DejaVuSans-5f" x="318.457031"/>
      <use xlink:href="#DejaVuSans-6e" x="368.457031"/>
      <use xlink:href="#DejaVuSans-65" x="431.835938"/>
      <use xlink:href="#DejaVuSans-74" x="493.359375"/>
      <use xlink:href="#DejaVuSans-77" x="532.568359"/>
      <use xlink:href="#DejaVuSans-6f" x="614.355469"/>
      <use xlink:href="#DejaVuSans-72" x="675.537109"/>
      <use xlink:href="#DejaVuSans-6b" x="716.650391"/>
      <use xlink:href="#DejaVuSans-20" x="774.560547"/>
      <use xlink:href="#DejaVuSans-28" x="806.347656"/>
      <use xlink:href="#DejaVuSans-34" x="845.361328"/>
      <use xlink:href="#DejaVuSans-33" x="908.984375"/>
      <use xlink:href="#DejaVuSans-2e" x="972.607422"/>
      <use xlink:href="#DejaVuSans-32" x="1004.394531"/>
      <use xlink:href="#DejaVuSans-37" x="1068.017578"/>
      <use xlink:href="#DejaVuSans-25" x="1131.640625"/>
      <use xlink:href="#DejaVuSans-29" x="1226.660156"/>
     </g>
    </g>
    <g id="patch_26">
     <path d="M 598.245618 193.558463 
L 626.245618 193.558463 
L 626.245618 183.758463 
L 598.245618 183.758463 
z
" style="fill: #c2dded; stroke: #ffffff; stroke-linejoin: miter"/>
    </g>
    <g id="text_6">
     <!-- crf (41.24%) -->
     <g transform="translate(637.445618 193.558463) scale(0.14 -0.14)">
      <defs>
       <path id="DejaVuSans-63" d="M 3122 3366 
L 3122 2828 
Q 2878 2963 2633 3030 
Q 2388 3097 2138 3097 
Q 1578 3097 1268 2742 
Q 959 2388 959 1747 
Q 959 1106 1268 751 
Q 1578 397 2138 397 
Q 2388 397 2633 464 
Q 2878 531 3122 666 
L 3122 134 
Q 2881 22 2623 -34 
Q 2366 -91 2075 -91 
Q 1284 -91 818 406 
Q 353 903 353 1747 
Q 353 2603 823 3093 
Q 1294 3584 2113 3584 
Q 2378 3584 2631 3529 
Q 2884 3475 3122 3366 
z
" transform="scale(0.015625)"/>
      </defs>
      <use xlink:href="#DejaVuSans-63"/>
      <use xlink:href="#DejaVuSans-72" x="54.980469"/>
      <use xlink:href="#DejaVuSans-66" x="96.09375"/>
      <use xlink:href="#DejaVuSans-20" x="131.298828"/>
      <use xlink:href="#DejaVuSans-28" x="163.085938"/>
      <use xlink:href="#DejaVuSans-34" x="202.099609"/>
      <use xlink:href="#DejaVuSans-31" x="265.722656"/>
      <use xlink:href="#DejaVuSans-2e" x="329.345703"/>
      <use xlink:href="#DejaVuSans-32" x="361.132812"/>
      <use xlink:href="#DejaVuSans-34" x="424.755859"/>
      <use xlink:href="#DejaVuSans-25" x="488.378906"/>
      <use xlink:href="#DejaVuSans-29" x="583.398438"/>
     </g>
    </g>
    <g id="patch_27">
     <path d="M 598.245618 214.107838 
L 626.245618 214.107838 
L 626.245618 204.307838 
L 598.245618 204.307838 
z
" style="fill: #c4dfee; stroke: #ffffff; stroke-linejoin: miter"/>
    </g>
    <g id="text_7">
     <!-- logistic_regression (39.96%) -->
     <g transform="translate(637.445618 214.107838) scale(0.14 -0.14)">
      <defs>
       <path id="DejaVuSans-39" d="M 703 97 
L 703 672 
Q 941 559 1184 500 
Q 1428 441 1663 441 
Q 2288 441 2617 861 
Q 2947 1281 2994 2138 
Q 2813 1869 2534 1725 
Q 2256 1581 1919 1581 
Q 1219 1581 811 2004 
Q 403 2428 403 3163 
Q 403 3881 828 4315 
Q 1253 4750 1959 4750 
Q 2769 4750 3195 4129 
Q 3622 3509 3622 2328 
Q 3622 1225 3098 567 
Q 2575 -91 1691 -91 
Q 1453 -91 1209 -44 
Q 966 3 703 97 
z
M 1959 2075 
Q 2384 2075 2632 2365 
Q 2881 2656 2881 3163 
Q 2881 3666 2632 3958 
Q 2384 4250 1959 4250 
Q 1534 4250 1286 3958 
Q 1038 3666 1038 3163 
Q 1038 2656 1286 2365 
Q 1534 2075 1959 2075 
z
" transform="scale(0.015625)"/>
       <path id="DejaVuSans-36" d="M 2113 2584 
Q 1688 2584 1439 2293 
Q 1191 2003 1191 1497 
Q 1191 994 1439 701 
Q 1688 409 2113 409 
Q 2538 409 2786 701 
Q 3034 994 3034 1497 
Q 3034 2003 2786 2293 
Q 2538 2584 2113 2584 
z
M 3366 4563 
L 3366 3988 
Q 3128 4100 2886 4159 
Q 2644 4219 2406 4219 
Q 1781 4219 1451 3797 
Q 1122 3375 1075 2522 
Q 1259 2794 1537 2939 
Q 1816 3084 2150 3084 
Q 2853 3084 3261 2657 
Q 3669 2231 3669 1497 
Q 3669 778 3244 343 
Q 2819 -91 2113 -91 
Q 1303 -91 875 529 
Q 447 1150 447 2328 
Q 447 3434 972 4092 
Q 1497 4750 2381 4750 
Q 2619 4750 2861 4703 
Q 3103 4656 3366 4563 
z
" transform="scale(0.015625)"/>
      </defs>
      <use xlink:href="#DejaVuSans-6c"/>
      <use xlink:href="#DejaVuSans-6f" x="27.783203"/>
      <use xlink:href="#DejaVuSans-67" x="88.964844"/>
      <use xlink:href="#DejaVuSans-69" x="152.441406"/>
      <use xlink:href="#DejaVuSans-73" x="180.224609"/>
      <use xlink:href="#DejaVuSans-74" x="232.324219"/>
      <use xlink:href="#DejaVuSans-69" x="271.533203"/>
      <use xlink:href="#DejaVuSans-63" x="299.316406"/>
      <use xlink:href="#DejaVuSans-5f" x="354.296875"/>
      <use xlink:href="#DejaVuSans-72" x="404.296875"/>
      <use xlink:href="#DejaVuSans-65" x="443.160156"/>
      <use xlink:href="#DejaVuSans-67" x="504.683594"/>
      <use xlink:href="#DejaVuSans-72" x="568.160156"/>
      <use xlink:href="#DejaVuSans-65" x="607.023438"/>
      <use xlink:href="#DejaVuSans-73" x="668.546875"/>
      <use xlink:href="#DejaVuSans-73" x="720.646484"/>
      <use xlink:href="#DejaVuSans-69" x="772.746094"/>
      <use xlink:href="#DejaVuSans-6f" x="800.529297"/>
      <use xlink:href="#DejaVuSans-6e" x="861.710938"/>
      <use xlink:href="#DejaVuSans-20" x="925.089844"/>
      <use xlink:href="#DejaVuSans-28" x="956.876953"/>
      <use xlink:href="#DejaVuSans-33" x="995.890625"/>
      <use xlink:href="#DejaVuSans-39" x="1059.513672"/>
      <use xlink:href="#DejaVuSans-2e" x="1123.136719"/>
      <use xlink:href="#DejaVuSans-39" x="1154.923828"/>
      <use xlink:href="#DejaVuSans-36" x="1218.546875"/>
      <use xlink:href="#DejaVuSans-25" x="1282.169922"/>
      <use xlink:href="#DejaVuSans-29" x="1377.189453"/>
     </g>
    </g>
    <g id="patch_28">
     <path d="M 598.245618 235.046587 
L 626.245618 235.046587 
L 626.245618 225.246587 
L 598.245618 225.246587 
z
" style="fill: #c8e0ef; stroke: #ffffff; stroke-linejoin: miter"/>
    </g>
    <g id="text_8">
     <!-- svm (37.84%) -->
     <g transform="translate(637.445618 235.046587) scale(0.14 -0.14)">
      <defs>
       <path id="DejaVuSans-76" d="M 191 3500 
L 800 3500 
L 1894 563 
L 2988 3500 
L 3597 3500 
L 2284 0 
L 1503 0 
L 191 3500 
z
" transform="scale(0.015625)"/>
      </defs>
      <use xlink:href="#DejaVuSans-73"/>
      <use xlink:href="#DejaVuSans-76" x="52.099609"/>
      <use xlink:href="#DejaVuSans-6d" x="111.279297"/>
      <use xlink:href="#DejaVuSans-20" x="208.691406"/>
      <use xlink:href="#DejaVuSans-28" x="240.478516"/>
      <use xlink:href="#DejaVuSans-33" x="279.492188"/>
      <use xlink:href="#DejaVuSans-37" x="343.115234"/>
      <use xlink:href="#DejaVuSans-2e" x="406.738281"/>
      <use xlink:href="#DejaVuSans-38" x="438.525391"/>
      <use xlink:href="#DejaVuSans-34" x="502.148438"/>
      <use xlink:href="#DejaVuSans-25" x="565.771484"/>
      <use xlink:href="#DejaVuSans-29" x="660.791016"/>
     </g>
    </g>
    <g id="patch_29">
     <path d="M 598.245618 255.595963 
L 626.245618 255.595963 
L 626.245618 245.795963 
L 598.245618 245.795963 
z
" style="fill: #cce3f0; stroke: #ffffff; stroke-linejoin: miter"/>
    </g>
    <g id="text_9">
     <!-- naive_bayes (34.87%) -->
     <g transform="translate(637.445618 255.595963) scale(0.14 -0.14)">
      <defs>
       <path id="DejaVuSans-79" d="M 2059 -325 
Q 1816 -950 1584 -1140 
Q 1353 -1331 966 -1331 
L 506 -1331 
L 506 -850 
L 844 -850 
Q 1081 -850 1212 -737 
Q 1344 -625 1503 -206 
L 1606 56 
L 191 3500 
L 800 3500 
L 1894 763 
L 2988 3500 
L 3597 3500 
L 2059 -325 
z
" transform="scale(0.015625)"/>
      </defs>
      <use xlink:href="#DejaVuSans-6e"/>
      <use xlink:href="#DejaVuSans-61" x="63.378906"/>
      <use xlink:href="#DejaVuSans-69" x="124.658203"/>
      <use xlink:href="#DejaVuSans-76" x="152.441406"/>
      <use xlink:href="#DejaVuSans-65" x="211.621094"/>
      <use xlink:href="#DejaVuSans-5f" x="273.144531"/>
      <use xlink:href="#DejaVuSans-62" x="323.144531"/>
      <use xlink:href="#DejaVuSans-61" x="386.621094"/>
      <use xlink:href="#DejaVuSans-79" x="447.900391"/>
      <use xlink:href="#DejaVuSans-65" x="507.080078"/>
      <use xlink:href="#DejaVuSans-73" x="568.603516"/>
      <use xlink:href="#DejaVuSans-20" x="620.703125"/>
      <use xlink:href="#DejaVuSans-28" x="652.490234"/>
      <use xlink:href="#DejaVuSans-33" x="691.503906"/>
      <use xlink:href="#DejaVuSans-34" x="755.126953"/>
      <use xlink:href="#DejaVuSans-2e" x="818.75"/>
      <use xlink:href="#DejaVuSans-38" x="850.537109"/>
      <use xlink:href="#DejaVuSans-37" x="914.160156"/>
      <use xlink:href="#DejaVuSans-25" x="977.783203"/>
      <use xlink:href="#DejaVuSans-29" x="1072.802734"/>
     </g>
    </g>
    <g id="patch_30">
     <path d="M 598.245618 276.534713 
L 626.245618 276.534713 
L 626.245618 266.734713 
L 598.245618 266.734713 
z
" style="fill: #d0e5f1; stroke: #ffffff; stroke-linejoin: miter"/>
    </g>
    <g id="text_10">
     <!-- recurrent_neural_network (31.0%) -->
     <g transform="translate(637.445618 276.534713) scale(0.14 -0.14)">
      <use xlink:href="#DejaVuSans-72"/>
      <use xlink:href="#DejaVuSans-65" x="38.863281"/>
      <use xlink:href="#DejaVuSans-63" x="100.386719"/>
      <use xlink:href="#DejaVuSans-75" x="155.367188"/>
      <use xlink:href="#DejaVuSans-72" x="218.746094"/>
      <use xlink:href="#DejaVuSans-72" x="258.109375"/>
      <use xlink:href="#DejaVuSans-65" x="296.972656"/>
      <use xlink:href="#DejaVuSans-6e" x="358.496094"/>
      <use xlink:href="#DejaVuSans-74" x="421.875"/>
      <use xlink:href="#DejaVuSans-5f" x="461.083984"/>
      <use xlink:href="#DejaVuSans-6e" x="511.083984"/>
      <use xlink:href="#DejaVuSans-65" x="574.462891"/>
      <use xlink:href="#DejaVuSans-75" x="635.986328"/>
      <use xlink:href="#DejaVuSans-72" x="699.365234"/>
      <use xlink:href="#DejaVuSans-61" x="740.478516"/>
      <use xlink:href="#DejaVuSans-6c" x="801.757812"/>
      <use xlink:href="#DejaVuSans-5f" x="829.541016"/>
      <use xlink:href="#DejaVuSans-6e" x="879.541016"/>
      <use xlink:href="#DejaVuSans-65" x="942.919922"/>
      <use xlink:href="#DejaVuSans-74" x="1004.443359"/>
      <use xlink:href="#DejaVuSans-77" x="1043.652344"/>
      <use xlink:href="#DejaVuSans-6f" x="1125.439453"/>
      <use xlink:href="#DejaVuSans-72" x="1186.621094"/>
      <use xlink:href="#DejaVuSans-6b" x="1227.734375"/>
      <use xlink:href="#DejaVuSans-20" x="1285.644531"/>
      <use xlink:href="#DejaVuSans-28" x="1317.431641"/>
      <use xlink:href="#DejaVuSans-33" x="1356.445312"/>
      <use xlink:href="#DejaVuSans-31" x="1420.068359"/>
      <use xlink:href="#DejaVuSans-2e" x="1483.691406"/>
      <use xlink:href="#DejaVuSans-30" x="1515.478516"/>
      <use xlink:href="#DejaVuSans-25" x="1579.101562"/>
      <use xlink:href="#DejaVuSans-29" x="1674.121094"/>
     </g>
    </g>
    <g id="patch_31">
     <path d="M 598.245618 297.473462 
L 626.245618 297.473462 
L 626.245618 287.673462 
L 598.245618 287.673462 
z
" style="fill: #dbebf4; stroke: #ffffff; stroke-linejoin: miter"/>
    </g>
    <g id="text_11">
     <!-- hmm (24.44%) -->
     <g transform="translate(637.445618 297.473462) scale(0.14 -0.14)">
      <defs>
       <path id="DejaVuSans-68" d="M 3513 2113 
L 3513 0 
L 2938 0 
L 2938 2094 
Q 2938 2591 2744 2837 
Q 2550 3084 2163 3084 
Q 1697 3084 1428 2787 
Q 1159 2491 1159 1978 
L 1159 0 
L 581 0 
L 581 4863 
L 1159 4863 
L 1159 2956 
Q 1366 3272 1645 3428 
Q 1925 3584 2291 3584 
Q 2894 3584 3203 3211 
Q 3513 2838 3513 2113 
z
" transform="scale(0.015625)"/>
      </defs>
      <use xlink:href="#DejaVuSans-68"/>
      <use xlink:href="#DejaVuSans-6d" x="63.378906"/>
      <use xlink:href="#DejaVuSans-6d" x="160.791016"/>
      <use xlink:href="#DejaVuSans-20" x="258.203125"/>
      <use xlink:href="#DejaVuSans-28" x="289.990234"/>
      <use xlink:href="#DejaVuSans-32" x="329.003906"/>
      <use xlink:href="#DejaVuSans-34" x="392.626953"/>
      <use xlink:href="#DejaVuSans-2e" x="456.25"/>
      <use xlink:href="#DejaVuSans-34" x="488.037109"/>
      <use xlink:href="#DejaVuSans-34" x="551.660156"/>
      <use xlink:href="#DejaVuSans-25" x="615.283203"/>
      <use xlink:href="#DejaVuSans-29" x="710.302734"/>
     </g>
    </g>
    <g id="patch_32">
     <path d="M 598.245618 318.022838 
L 626.245618 318.022838 
L 626.245618 308.222838 
L 598.245618 308.222838 
z
" style="fill: #deedf5; stroke: #ffffff; stroke-linejoin: miter"/>
    </g>
    <g id="text_12">
     <!-- knn (22.03%) -->
     <g transform="translate(637.445618 318.022838) scale(0.14 -0.14)">
      <use xlink:href="#DejaVuSans-6b"/>
      <use xlink:href="#DejaVuSans-6e" x="57.910156"/>
      <use xlink:href="#DejaVuSans-6e" x="121.289062"/>
      <use xlink:href="#DejaVuSans-20" x="184.667969"/>
      <use xlink:href="#DejaVuSans-28" x="216.455078"/>
      <use xlink:href="#DejaVuSans-32" x="255.46875"/>
      <use xlink:href="#DejaVuSans-32" x="319.091797"/>
      <use xlink:href="#DejaVuSans-2e" x="382.714844"/>
      <use xlink:href="#DejaVuSans-30" x="414.501953"/>
      <use xlink:href="#DejaVuSans-33" x="478.125"/>
      <use xlink:href="#DejaVuSans-25" x="541.748047"/>
      <use xlink:href="#DejaVuSans-29" x="636.767578"/>
     </g>
    </g>
   </g>
  </g>
 </g>
</svg>
