<?xml version="1.0" encoding="utf-8" standalone="no"?>
<!DOCTYPE svg PUBLIC "-//W3C//DTD SVG 1.1//EN"
  "http://www.w3.org/Graphics/SVG/1.1/DTD/svg11.dtd">
<svg xmlns:xlink="http://www.w3.org/1999/xlink" width="898.989132pt" height="653.068763pt" viewBox="0 0 898.989132 653.068763" xmlns="http://www.w3.org/2000/svg" version="1.1">
 <metadata>
  <rdf:RDF xmlns:dc="http://purl.org/dc/elements/1.1/" xmlns:cc="http://creativecommons.org/ns#" xmlns:rdf="http://www.w3.org/1999/02/22-rdf-syntax-ns#">
   <cc:Work>
    <dc:type rdf:resource="http://purl.org/dc/dcmitype/StillImage"/>
    <dc:date>2023-06-21T15:51:56.305726</dc:date>
    <dc:format>image/svg+xml</dc:format>
    <dc:creator>
     <cc:Agent>
      <dc:title>Matplotlib v3.7.0, https://matplotlib.org/</dc:title>
     </cc:Agent>
    </dc:creator>
   </cc:Work>
  </rdf:RDF>
 </metadata>
 <defs>
  <style type="text/css">*{stroke-linejoin: round; stroke-linecap: butt}</style>
 </defs>
 <g id="figure_1">
  <g id="patch_1">
   <path d="M 0 653.068763 
L 898.989132 653.068763 
L 898.989132 -0 
L 0 -0 
z
" style="fill: #ffffff"/>
  </g>
  <g id="axes_1">
   <g id="patch_2">
    <path d="M 326.53432 7.2 
C 317.872005 7.2 309.213276 7.552463 300.57962 8.256514 
C 291.945965 8.960565 283.344531 10.015622 274.796663 11.419066 
L 278.776483 35.658707 
C 286.666822 34.36322 294.606608 33.389322 302.576136 32.739428 
C 310.545664 32.089535 318.538337 31.764185 326.53432 31.764185 
z
" style="fill: #f4f5f5; stroke: #ffffff; stroke-linejoin: miter"/>
   </g>
   <g id="patch_3">
    <path d="M 274.796663 11.419066 
C 234.494406 18.036149 195.83329 32.324003 160.913863 53.506337 
C 125.994435 74.68867 95.46078 102.374779 70.971861 135.06041 
C 46.482942 167.746042 28.490454 204.828316 17.97197 244.292467 
C 7.453487 283.756617 4.603019 324.874734 9.57544 365.412774 
C 14.547862 405.950814 27.251456 445.16106 46.996008 480.913128 
C 66.74056 516.665196 93.161885 548.299644 124.824449 574.0977 
C 156.487014 599.895755 192.806808 619.381577 231.810492 631.496456 
C 270.814176 643.611334 311.782335 648.131812 352.489071 644.812282 
C 393.195807 641.492751 432.890293 630.39444 469.415834 612.120345 
C 505.941375 593.84625 538.624263 568.733435 565.688762 538.146337 
C 592.753261 507.559238 613.700169 472.062031 627.391393 433.583361 
C 641.082618 395.104691 647.265625 354.354291 645.604479 313.546225 
C 643.943332 272.738159 634.468671 232.625125 617.695276 195.386557 
C 600.921881 158.14799 577.159134 124.470749 547.698121 96.184597 
C 518.237109 67.898445 483.621233 45.525115 445.731257 30.280203 
C 407.84128 15.035291 367.376077 7.199987 326.534215 7.2 
L 326.534223 31.764185 
C 364.234403 31.764172 401.586899 38.996761 436.562262 53.068988 
C 471.537625 67.141214 503.49074 87.793518 530.685521 113.903813 
C 557.880302 140.014107 579.815145 171.100791 595.298279 205.474853 
C 610.781413 239.848915 619.527254 276.876331 621.06062 314.545315 
C 622.593986 352.214299 616.886595 389.830053 604.248542 425.348826 
C 591.610489 460.867598 572.27488 493.634251 547.292266 521.868495 
C 522.309652 550.10274 492.140832 573.2838 458.424948 590.152195 
C 424.709064 607.02059 388.068 617.265185 350.492552 620.329368 
C 312.917103 623.39355 275.100341 619.220801 239.09694 608.037836 
C 203.09354 596.854871 169.567576 578.867959 140.340593 555.054369 
C 111.113611 531.240779 86.724696 502.03975 68.498955 469.037841 
C 50.273215 436.035933 38.54682 399.841859 33.956893 362.42213 
C 29.366965 325.002401 31.998166 287.047216 41.707536 250.618769 
C 51.416905 214.190323 68.025356 179.960531 90.630512 149.789179 
C 113.235667 119.617826 141.42058 94.061419 173.653898 74.508496 
C 205.887215 54.955572 241.5744 41.766783 278.776483 35.658707 
z
" style="fill: #6eaed4; stroke: #ffffff; stroke-linejoin: miter"/>
   </g>
   <g id="patch_4">
    <path d="M 326.53432 31.764185 
C 317.519206 31.764185 308.508836 32.177756 299.531628 33.003593 
C 290.55442 33.829431 281.619822 35.066666 272.756012 36.711396 
L 277.237537 60.863313 
C 285.362697 59.355644 293.552745 58.221512 301.781853 57.464494 
C 310.01096 56.707476 318.270466 56.328369 326.53432 56.328369 
z
" style="fill: #f4f5f5; stroke: #ffffff; stroke-linejoin: miter"/>
   </g>
   <g id="patch_5">
    <path d="M 272.756012 36.711396 
C 235.814894 43.566031 200.522687 57.420706 168.784055 77.527705 
C 137.045424 97.634705 109.441789 123.625689 87.462876 154.097964 
C 65.483962 184.570239 49.532403 218.965583 40.469079 255.427732 
C 31.405755 291.889881 29.396698 329.750885 34.550332 366.967443 
C 39.703967 404.184002 51.925883 440.074344 70.556485 472.701524 
C 89.187086 505.328703 113.885078 534.095023 143.317547 557.448008 
C 172.750017 580.800993 206.37779 598.31284 242.386028 609.038462 
C 278.394266 619.764084 316.123333 623.506997 353.53705 620.065203 
C 390.950767 616.623409 427.363751 606.059958 460.81085 588.944943 
C 494.257949 571.829928 524.126445 548.476879 548.80438 520.146125 
C 573.482316 491.81537 592.517616 459.025901 604.882975 423.547315 
C 617.248334 388.068729 622.717231 350.550959 620.994517 313.01878 
C 619.271803 275.486602 610.389038 238.627568 594.825609 204.430903 
C 579.262181 170.234239 557.303196 139.326394 530.133748 113.375416 
C 502.9643 87.424438 471.082106 66.905724 436.207798 52.926637 
C 401.333491 38.947551 364.105934 31.764175 326.53424 31.764185 
L 326.534247 56.328369 
C 360.974966 56.32836 395.100227 62.913121 427.068342 75.727284 
C 459.036457 88.541447 488.261801 107.350268 513.167129 131.138664 
C 538.072456 154.927061 558.201525 183.259252 572.468002 214.606195 
C 586.734478 245.953137 594.877013 279.740585 596.456167 314.145082 
C 598.035322 348.549579 593.022166 382.940868 581.687254 415.462906 
C 570.352342 447.984943 552.903316 478.041956 530.281875 504.011814 
C 507.660434 529.981673 480.28098 551.388634 449.621139 567.077398 
C 418.961299 582.766162 385.58273 592.449325 351.286823 595.604303 
C 316.990915 598.759281 282.405937 595.328277 249.398386 585.496457 
C 216.390834 575.664637 185.565375 559.61211 158.585612 538.205207 
C 131.605848 516.798304 108.966022 490.429178 91.887971 460.52093 
C 74.80992 430.612682 63.606496 397.713202 58.882331 363.598023 
C 54.158166 329.482844 55.999802 294.776924 64.307849 261.353288 
C 72.615896 227.929651 87.238159 196.400586 107.385496 168.467667 
C 127.532833 140.534748 152.836165 116.70968 181.929911 98.278263 
C 211.023656 79.846847 243.374846 67.146728 277.237537 60.863313 
z
" style="fill: #6eaed4; stroke: #ffffff; stroke-linejoin: miter"/>
   </g>
   <g id="patch_6">
    <path d="M 326.53432 56.328369 
C 317.675916 56.328369 308.822869 56.763989 300.007257 57.633649 
C 291.191646 58.503309 282.424131 59.805958 273.736483 61.536876 
L 278.536286 85.62756 
C 286.434148 84.053998 294.404616 82.869772 302.418808 82.079172 
C 310.433001 81.288571 318.481225 80.892554 326.53432 80.892554 
z
" style="fill: #f4f5f5; stroke: #ffffff; stroke-linejoin: miter"/>
   </g>
   <g id="patch_7">
    <path d="M 273.736483 61.536876 
C 240.033146 68.251895 207.918231 81.335442 179.117512 100.084441 
C 150.316793 118.83344 125.355573 142.905924 105.575204 171.008298 
C 85.794836 199.110671 71.556098 230.73037 63.624145 264.16823 
C 55.692192 297.60609 54.211695 332.252232 59.262214 366.244858 
C 64.312732 400.237484 75.802148 432.956596 93.11305 462.643951 
C 110.423951 492.331307 133.240601 518.445431 160.336889 539.583017 
C 187.433177 560.720603 218.314889 576.496118 251.322519 586.061825 
C 284.330149 595.627531 318.861663 598.80896 353.061426 595.435147 
C 387.261189 592.061334 420.505422 582.193817 451.007666 566.362849 
C 481.509909 550.531882 508.713825 529.02621 531.157544 503.001494 
C 553.601263 476.976777 570.875428 446.907687 582.05177 414.41006 
C 593.228112 381.912433 598.102783 347.579001 596.41383 313.254755 
C 594.724877 278.93051 586.503106 245.241499 572.190333 213.998085 
C 557.87756 182.754671 537.73484 154.52671 512.844592 130.8311 
C 487.954343 107.135491 458.770545 88.404423 426.861461 75.644457 
C 394.952377 62.88449 360.900004 56.328358 326.534231 56.328369 
L 326.534239 80.892554 
C 357.775851 80.892544 388.732554 86.852664 417.740812 98.452633 
C 446.74907 110.052603 473.279796 127.080846 495.907294 148.622309 
C 518.534793 170.163773 536.846357 195.825556 549.857968 224.228659 
C 562.86958 252.631763 570.343917 283.258137 571.879329 314.461996 
C 573.414741 345.665855 568.983222 376.878066 558.822911 406.421364 
C 548.6626 435.964661 532.958813 463.300197 512.555433 486.959031 
C 492.152052 510.617864 467.421219 530.168475 439.691907 544.560263 
C 411.962595 558.952051 381.740564 567.922522 350.649871 570.989624 
C 319.559178 574.056727 288.166891 571.16452 258.159955 562.468422 
C 228.153019 553.772325 200.078736 539.430948 175.445746 520.214961 
C 150.812757 500.998974 130.070349 477.258861 114.333165 450.270356 
C 98.595982 423.281851 88.151058 393.537203 83.559678 362.634816 
C 78.968297 331.732429 80.314203 300.235936 87.52507 269.837882 
C 94.735937 239.439827 107.680244 210.694647 125.662397 185.147034 
C 143.64455 159.599422 166.336568 137.715346 192.51904 120.670801 
C 218.701512 103.626257 247.896889 91.732123 278.536286 85.62756 
z
" style="fill: #6fafd5; stroke: #ffffff; stroke-linejoin: miter"/>
   </g>
   <g id="patch_8">
    <path d="M 326.53432 80.892554 
C 317.837716 80.892554 309.147245 81.35439 300.499624 82.276112 
C 291.852003 83.197834 283.259429 84.578141 274.758205 86.411201 
L 279.935817 110.423521 
C 287.586918 108.773767 295.320235 107.53149 303.103094 106.701941 
C 310.885952 105.872391 318.707376 105.456738 326.53432 105.456738 
z
" style="fill: #f4f5f5; stroke: #ffffff; stroke-linejoin: miter"/>
   </g>
   <g id="patch_9">
    <path d="M 274.758205 86.411201 
C 244.29776 92.979178 215.363413 105.283585 189.502087 122.66659 
C 163.640761 140.049596 141.321694 162.195795 123.738136 187.921182 
C 106.154577 213.646568 93.625569 242.48437 86.820953 272.892827 
C 80.016337 303.301284 79.059578 334.728653 84.001828 365.494725 
C 88.944078 396.260798 99.695662 425.807342 115.681767 452.554707 
C 131.667872 479.302071 152.598439 502.76494 177.354454 521.688914 
C 202.110469 540.612888 230.242748 554.654603 260.24725 563.063343 
C 290.251752 571.472084 321.584063 574.095279 352.569058 570.792683 
C 383.554053 567.490088 413.629528 558.321626 441.187552 543.777473 
C 468.745575 529.233321 493.286124 509.577371 513.497182 485.860496 
C 533.70824 462.14362 549.223089 434.796146 559.212256 405.280157 
C 569.201424 375.764169 573.483662 344.615215 571.830029 313.498619 
C 570.176396 282.382023 562.616895 251.862376 549.555683 223.571357 
C 536.49447 195.280338 518.168533 169.731269 495.557635 148.290086 
C 472.946736 126.848903 446.461138 109.904643 417.516844 98.363199 
C 388.57255 86.821756 357.694738 80.892543 326.534233 80.892554 
L 326.534242 105.456738 
C 354.578696 105.456729 382.368727 110.793021 408.418592 121.180319 
C 434.468456 131.567618 458.305495 146.817452 478.655303 166.114517 
C 499.005112 185.411582 515.498455 208.405744 527.253546 233.867661 
C 539.008638 259.329579 545.812188 286.797261 547.300458 314.802197 
C 548.788728 342.807134 544.934713 370.841192 535.944463 397.405582 
C 526.954212 423.969971 512.990848 448.582698 494.800896 469.927886 
C 476.610944 491.273074 454.52445 508.963428 429.722228 522.053166 
C 404.920007 535.142904 377.85208 543.394519 349.965584 546.366855 
C 322.079089 549.339191 293.880009 546.978315 266.875957 539.410449 
C 239.871905 531.842582 214.552854 519.205039 192.272441 502.173463 
C 169.992027 485.141886 151.154517 464.025304 136.767022 439.952676 
C 122.379528 415.880048 112.703102 389.288158 108.255077 361.598693 
C 103.807052 333.909227 104.668135 305.624596 110.792289 278.256985 
C 116.916444 250.889373 128.192551 224.935351 144.017754 201.782503 
C 159.842957 178.629655 179.930117 158.698076 203.20531 143.053371 
C 226.480503 127.408667 252.521416 116.3347 279.935817 110.423521 
z
" style="fill: #6fafd5; stroke: #ffffff; stroke-linejoin: miter"/>
   </g>
   <g id="patch_10">
    <path d="M 326.53432 105.456738 
C 318.406191 105.456738 310.284245 105.904996 302.205483 106.799468 
C 294.126722 107.693941 286.103433 109.033268 278.172172 110.811348 
L 283.545744 134.780576 
C 290.595754 133.200061 297.727566 132.009548 304.908687 131.214461 
C 312.089808 130.419374 319.309317 130.020923 326.53432 130.020923 
z
" style="fill: #f4f5f5; stroke: #ffffff; stroke-linejoin: miter"/>
   </g>
   <g id="patch_11">
    <path d="M 278.172172 110.811348 
C 250.844009 116.937947 224.927292 128.202083 201.803921 144.003142 
C 178.680551 159.804201 158.768949 179.856261 143.130818 203.090128 
C 127.492688 226.323996 116.411004 252.319251 110.476651 279.689804 
C 104.542298 307.060357 103.862659 335.310933 108.473973 362.935189 
C 113.085286 390.559445 122.904111 417.057514 137.406898 441.016498 
C 151.909685 464.975482 170.834004 485.961838 193.170795 502.856556 
C 215.507586 519.751274 240.85266 532.248642 267.854597 539.682289 
C 294.856534 547.115936 323.02673 549.351349 350.863125 546.269335 
C 378.699521 543.18732 405.698412 534.843648 430.420195 521.683208 
C 455.141978 508.522769 477.139308 490.783703 495.23927 469.411873 
C 513.339231 448.040043 527.214301 423.422175 536.124651 396.870915 
C 545.035001 370.319655 548.819394 342.315453 547.276046 314.351516 
C 545.732697 286.387578 538.889534 258.969918 527.111438 233.560467 
C 515.333341 208.151016 498.83344 185.209564 478.491522 165.959367 
C 458.149603 146.70917 434.333759 131.498565 408.313868 121.138592 
C 382.293977 110.77862 354.540876 105.456746 326.534382 105.456738 
L 326.534375 130.020923 
C 351.429037 130.02093 376.09846 134.751484 399.227252 143.960349 
C 422.356043 153.169213 443.525683 166.689751 461.607388 183.801038 
C 479.689094 200.912324 494.355672 221.304726 504.825091 243.890904 
C 515.29451 266.477083 521.377322 290.848336 522.749187 315.70517 
C 524.121053 340.562003 520.757147 365.454627 512.836836 389.055747 
C 504.916526 412.656867 492.58313 434.539416 476.494275 453.536598 
C 460.40542 472.533781 440.852238 488.301839 418.87732 500.000007 
C 396.902401 511.698176 372.903387 519.114774 348.159925 521.854342 
C 323.416462 524.593911 298.376288 522.606877 274.374566 515.99919 
C 250.372844 509.391504 227.843889 498.282733 207.988964 483.265205 
C 188.134039 468.247678 171.312422 449.593139 158.421056 428.296265 
C 145.52969 406.999391 136.801846 383.445551 132.7029 358.890657 
C 128.603954 334.335763 129.208078 309.22414 134.483058 284.894759 
C 139.758039 260.565378 149.608425 237.458485 163.508985 216.806159 
C 177.409546 196.153832 195.108747 178.329779 215.662854 164.284393 
C 236.216961 150.239007 259.254043 140.226442 283.545744 134.780576 
z
" style="fill: #6fafd5; stroke: #ffffff; stroke-linejoin: miter"/>
   </g>
   <g id="patch_12">
    <path d="M 326.53432 130.020923 
C 319.144558 130.020923 311.760675 130.437754 304.417862 131.269429 
C 297.075049 132.101104 289.78499 133.3463 282.582428 134.999082 
L 288.076415 158.940997 
C 294.378656 157.494813 300.757458 156.405266 307.182419 155.67755 
C 313.60738 154.949835 320.068278 154.585108 326.53432 154.585108 
z
" style="fill: #f4f5f5; stroke: #ffffff; stroke-linejoin: miter"/>
   </g>
   <g id="patch_13">
    <path d="M 282.582428 134.999082 
C 258.338642 140.56234 235.3701 150.678372 214.899494 164.808668 
C 194.428888 178.938965 176.826018 196.828263 163.027943 217.524256 
C 149.229868 238.22025 139.48585 261.349066 134.314596 285.679482 
C 129.143341 310.009898 128.638268 335.102385 132.826263 359.621188 
C 137.014259 384.139991 145.819666 407.642178 158.773745 428.876651 
C 171.727825 450.111124 188.59656 468.694282 208.481974 483.636884 
C 228.367388 498.579485 250.91025 509.611591 274.910531 516.145927 
C 298.910811 522.680263 323.934945 524.598786 348.650816 521.799367 
C 373.366687 518.999948 397.327802 511.533158 419.258634 499.796479 
C 441.189466 488.0598 460.693834 472.265256 476.733457 453.25364 
C 492.773079 434.242025 505.058201 412.356783 512.934844 388.762939 
C 520.811488 365.169094 524.137361 340.292869 522.735418 315.458507 
C 521.333475 290.624144 515.229042 266.280276 504.747076 243.722807 
C 494.265111 221.165338 479.59497 200.801768 461.517594 183.716116 
C 443.440218 166.630465 422.282174 153.131384 399.169774 143.937474 
C 376.057374 134.743564 351.408144 130.020913 326.534241 130.020923 
L 326.534251 154.585108 
C 348.298916 154.585099 369.866993 158.717419 390.090342 166.76209 
C 410.313692 174.806761 428.826981 186.618457 444.644685 201.568402 
C 460.462389 216.518347 473.298762 234.336471 482.470482 254.074256 
C 491.642201 273.812042 496.983581 295.112926 498.210281 316.842993 
C 499.436981 338.573061 496.526842 360.339758 489.634779 380.984372 
C 482.742716 401.628985 471.993234 420.778572 457.958564 437.413735 
C 443.923895 454.048899 426.857573 467.869125 407.668095 478.138719 
C 388.478617 488.408313 367.512641 494.941754 345.886254 497.391246 
C 324.259867 499.840737 302.36375 498.16203 281.363504 492.444486 
C 260.363259 486.726942 240.638254 477.073849 223.238517 463.999073 
C 205.83878 450.924297 191.078637 434.664034 179.743817 416.08387 
C 168.408998 397.503706 160.704266 376.939292 157.03977 355.485339 
C 153.375274 334.031387 153.817213 312.07546 158.342061 290.786346 
C 162.866909 269.497233 171.392925 249.259519 183.46624 231.150524 
C 195.539555 213.04153 210.942067 197.388394 228.853847 185.024385 
C 246.765628 172.660375 266.863102 163.808847 288.076415 158.940997 
z
" style="fill: #6fafd5; stroke: #ffffff; stroke-linejoin: miter"/>
   </g>
   <g id="patch_14">
    <path d="M 326.53432 154.585108 
C 319.671801 154.585108 312.815432 154.995934 306.002013 155.815381 
C 299.188594 156.634828 292.430338 157.861427 285.763518 159.488595 
L 291.587918 183.352282 
C 297.302335 181.957566 303.095127 180.906195 308.9352 180.203812 
C 314.775273 179.501429 320.65216 179.149292 326.53432 179.149292 
z
" style="fill: #f4f5f5; stroke: #ffffff; stroke-linejoin: miter"/>
   </g>
   <g id="patch_15">
    <path d="M 285.763518 159.488595 
C 264.668053 164.637357 244.737577 173.735904 227.028266 186.302077 
C 209.318955 198.86825 194.149256 214.676085 182.323057 232.887879 
C 170.496858 251.099672 162.226817 271.38794 157.951187 292.677548 
C 153.675557 313.967156 153.471222 335.875274 157.349012 357.240928 
C 161.226802 378.606581 169.116985 399.045574 180.601438 417.474783 
C 192.085891 435.903992 206.958101 451.992024 224.429945 464.886327 
C 241.901789 477.780631 261.65909 487.249341 282.654851 492.790682 
C 303.650611 498.332023 325.507285 499.846352 347.066624 497.253419 
C 368.625963 494.660487 389.500288 488.006919 408.583407 477.645308 
C 427.666526 467.283696 444.615286 453.400364 458.531524 436.731029 
C 472.447762 420.061694 483.081236 400.906104 489.868448 380.27937 
C 496.655659 359.652635 499.47456 337.925666 498.175768 316.249837 
C 496.876977 294.574008 491.483848 273.339094 482.28218 253.670396 
C 473.080512 234.001697 460.235768 216.252895 444.428629 201.364552 
C 428.621491 186.476208 410.1362 174.716045 389.952349 166.707266 
C 369.768497 158.698488 348.249028 154.585108 326.534324 154.585108 
L 326.534323 179.149292 
C 345.146927 179.149293 363.592186 182.675047 380.89263 189.539714 
C 398.193075 196.404381 414.037609 206.484521 427.586585 219.245959 
C 441.135561 232.007396 452.145341 247.220655 460.032486 264.079539 
C 467.91963 280.938424 472.542312 299.139779 473.655561 317.71906 
C 474.768811 336.298342 472.35261 354.921459 466.535001 372.601517 
C 460.717391 390.281575 451.602985 406.700652 439.674781 420.988653 
C 427.746577 435.276655 413.219068 447.176654 396.862109 456.058035 
C 380.50515 464.939416 362.612871 470.642474 344.133438 472.864988 
C 325.654004 475.087502 306.919712 473.789506 288.923346 469.039785 
C 270.92698 464.290063 253.992151 456.174027 239.016284 445.121766 
C 224.040418 434.069506 211.292809 420.279764 201.448993 404.483299 
C 191.605176 388.686835 184.842161 371.167698 181.518342 352.854281 
C 178.194522 334.540863 178.369666 315.762476 182.034491 297.514241 
C 185.699317 279.266006 192.787924 261.876062 202.924666 246.265953 
C 213.061408 230.655845 226.064007 217.106272 241.243416 206.335266 
C 256.422826 195.56426 273.506091 187.765506 291.587918 183.352282 
z
" style="fill: #6fafd5; stroke: #ffffff; stroke-linejoin: miter"/>
   </g>
   <g id="patch_16">
    <path d="M 326.53432 179.149292 
C 317.328863 179.149292 308.143618 180.011731 299.099055 181.725297 
C 290.054493 183.438863 281.190328 185.996032 272.622821 189.363265 
L 281.608071 212.225121 
C 288.74766 209.419094 296.134464 207.288119 303.671599 205.860148 
C 311.208735 204.432176 318.863106 203.713477 326.53432 203.713477 
z
" style="fill: #f4f5f5; stroke: #ffffff; stroke-linejoin: miter"/>
   </g>
   <g id="patch_17">
    <path d="M 272.622821 189.363265 
C 255.689489 196.018465 240.133966 205.752041 226.744483 218.070773 
C 213.355 230.389504 202.361599 245.081745 194.32134 261.403009 
C 186.281081 277.724273 181.332102 295.394146 179.725178 313.517258 
C 178.118254 331.640371 179.880994 349.905353 184.924075 367.386678 
C 189.967156 384.868004 198.203935 401.265329 209.217036 415.747768 
C 220.230137 430.230206 233.830346 442.548937 249.328512 452.079743 
C 264.826678 461.61055 281.956528 468.189685 299.850058 471.483771 
C 317.743588 474.777857 336.093371 474.730297 353.969585 471.343502 
C 371.8458 467.956708 388.941316 461.288866 404.38987 451.677851 
C 419.838423 442.066835 433.374594 429.677772 444.312475 415.138441 
C 455.250357 400.599109 463.402027 384.159308 468.354424 366.652075 
C 473.306821 349.144843 474.974858 330.87097 473.274013 312.75643 
C 471.573167 294.641891 466.53266 276.997909 458.407906 260.718542 
C 450.283152 244.439175 439.21374 229.804117 425.760581 217.554957 
C 412.307422 205.305797 396.701653 195.652985 379.73405 189.085651 
C 362.766448 182.518317 344.72853 179.149292 326.534316 179.149292 
L 326.534317 203.713477 
C 341.696162 203.713477 356.72776 206.520997 370.867428 211.993776 
C 385.007097 217.466554 398.011905 225.510564 409.222871 235.718197 
C 420.433837 245.925831 429.658346 258.121713 436.428975 271.687852 
C 443.199604 285.253991 447.400026 299.957309 448.817397 315.052759 
C 450.234769 330.148208 448.844738 345.376436 444.71774 359.965796 
C 440.590743 374.555156 433.797684 388.254991 424.682783 400.371101 
C 415.567881 412.48721 404.287739 422.81143 391.413945 430.820609 
C 378.54015 438.829788 364.293886 444.386323 349.397041 447.208652 
C 334.500196 450.030981 319.20871 450.070614 304.297435 447.325543 
C 289.38616 444.580471 275.111285 439.097858 262.196146 431.155519 
C 249.281008 423.21318 237.947501 412.947572 228.769917 400.878873 
C 219.592332 388.810174 212.72835 375.145737 208.525783 360.577965 
C 204.323215 346.010194 202.854265 330.789376 204.193368 315.686782 
C 205.532472 300.584188 209.656621 285.859294 216.356837 272.258241 
C 223.057053 258.657188 232.21822 246.413654 243.376122 236.148044 
C 254.534025 225.882434 267.496961 217.77112 281.608071 212.225121 
z
" style="fill: #72b1d6; stroke: #ffffff; stroke-linejoin: miter"/>
   </g>
   <g id="patch_18">
    <path d="M 326.53432 203.713477 
C 316.050589 203.713477 305.609869 205.05578 295.467069 207.707614 
C 285.32427 210.359448 275.562614 214.299054 266.420433 219.430246 
L 278.44321 240.851077 
C 285.756955 236.746123 293.56628 233.594438 301.680519 231.472971 
C 309.794759 229.351504 318.147335 228.277662 326.53432 228.277662 
z
" style="fill: #f4f5f5; stroke: #ffffff; stroke-linejoin: miter"/>
   </g>
   <g id="patch_19">
    <path d="M 266.420433 219.430246 
C 253.506938 226.678148 242.010069 236.202121 232.485933 247.541488 
C 222.961797 258.880856 215.566473 271.84979 210.657676 285.82098 
C 205.748879 299.792169 203.407053 314.536657 203.745473 329.341247 
C 204.083894 344.145837 207.097014 358.767916 212.639088 372.500207 
C 218.181163 386.232499 226.16137 398.849962 236.193703 409.742285 
C 246.226037 420.634608 258.146089 429.623291 271.377284 436.273548 
C 284.608478 442.923804 298.933986 447.126652 313.660875 448.678796 
C 328.387764 450.230941 343.274695 449.106947 357.601581 445.361183 
C 371.928467 441.615419 385.460524 435.309269 397.543199 426.747763 
C 409.625874 418.186258 420.061161 407.509701 428.344301 395.234522 
C 436.627441 382.959344 442.622691 369.286705 446.04006 354.877957 
C 449.457428 340.469209 450.240912 325.560479 448.352614 310.872908 
C 446.464316 296.185337 441.93518 281.95962 434.984283 268.883862 
C 428.033387 255.808104 418.774638 244.096586 407.655887 234.315799 
C 396.537136 224.535012 383.740594 216.84524 369.885234 211.618442 
C 356.029874 206.391644 341.342754 203.713474 326.534297 203.713477 
L 326.534301 228.277662 
C 338.381067 228.277659 350.130763 230.420195 361.215051 234.601634 
C 372.299339 238.783072 382.536573 244.934889 391.431574 252.759519 
C 400.326574 260.584149 407.733573 269.953363 413.294291 280.41397 
C 418.855008 290.874576 422.478316 302.25515 423.988955 314.005206 
C 425.499594 325.755263 424.872807 337.682247 422.138912 349.209246 
C 419.405017 360.736244 414.608816 371.674355 407.982305 381.494498 
C 401.355793 391.314641 393.007563 399.855886 383.341423 406.705091 
C 373.675283 413.554295 362.849638 418.599215 351.388129 421.595827 
C 339.92662 424.592438 328.017075 425.491633 316.235564 424.249917 
C 304.454052 423.008201 292.993647 419.645923 282.408691 414.325718 
C 271.823735 409.005513 262.287693 401.814567 254.261826 393.100708 
C 246.23596 384.38685 239.851794 374.292879 235.418135 363.307046 
C 230.984475 352.321213 228.573979 340.62355 228.303243 328.779878 
C 228.032506 316.936206 229.905967 305.140615 233.833005 293.963664 
C 237.760042 282.786712 243.676301 272.411564 251.29561 263.340071 
C 258.914919 254.268577 268.112415 246.649398 278.44321 240.851077 
z
" style="fill: #76b3d7; stroke: #ffffff; stroke-linejoin: miter"/>
   </g>
   <g id="patch_20">
    <path d="M 326.53432 228.277662 
C 317.630636 228.277662 308.768125 229.487893 300.190427 231.875085 
C 291.612729 234.262277 283.399175 237.804351 275.775565 242.403933 
L 288.465253 263.43655 
C 294.182961 259.986864 300.343127 257.330307 306.7764 255.539914 
C 313.209673 253.74952 319.856557 252.841846 326.53432 252.841846 
z
" style="fill: #f4f5f5; stroke: #ffffff; stroke-linejoin: miter"/>
   </g>
   <g id="patch_21">
    <path d="M 275.775565 242.403933 
C 265.687503 248.490402 256.775937 256.34203 249.467285 265.583118 
C 242.158633 274.824206 236.571356 285.304969 232.972806 296.523906 
C 229.374255 307.742842 227.822758 319.51811 228.392552 331.286263 
C 228.962347 343.054416 231.644198 354.624712 236.30978 365.443513 
C 240.975361 376.262314 247.549051 386.154263 255.716299 394.646033 
C 263.883547 403.137804 273.511975 410.091756 284.140863 415.175144 
C 294.769751 420.258532 306.226822 423.388963 317.963856 424.416645 
C 329.70089 425.444327 341.527648 424.352603 352.878221 421.193713 
C 364.228794 418.034822 374.919207 412.859966 384.437925 405.91676 
C 393.956643 398.973554 402.149382 390.374537 408.624121 380.531171 
C 415.098859 370.687804 419.750652 359.759635 422.35691 348.269573 
C 424.963169 336.779511 425.481651 324.913794 423.887546 313.240195 
C 422.293442 301.566595 418.612589 290.274324 413.021115 279.903715 
C 407.429642 269.533106 400.018178 260.252251 391.141361 252.505238 
C 382.264544 244.758225 372.066253 238.67062 361.034475 234.533716 
C 350.002697 230.396811 338.316241 228.277659 326.534301 228.277662 
L 326.534306 252.841846 
C 335.37076 252.841844 344.135603 254.431208 352.409436 257.533887 
C 360.683269 260.636565 368.331988 265.202268 374.989601 271.012528 
C 381.647214 276.822788 387.205812 283.783429 391.399416 291.561386 
C 395.593021 299.339343 398.353661 307.808546 399.54924 316.563746 
C 400.744818 325.318946 400.355957 334.218234 398.401263 342.83578 
C 396.446569 351.453326 392.957724 359.649453 388.10167 367.031978 
C 383.245616 374.414503 377.101062 380.863766 369.962024 386.07117 
C 362.822985 391.278575 354.805176 395.159717 346.292246 397.528885 
C 337.779316 399.898052 328.909247 400.716845 320.106472 399.946083 
C 311.303696 399.175322 302.710893 396.827499 294.739227 393.014958 
C 286.767561 389.202417 279.54624 383.986953 273.420804 377.618125 
C 267.295368 371.249297 262.365101 363.830335 258.865915 355.716235 
C 255.366729 347.602134 253.35534 338.924412 252.927994 330.098297 
C 252.500648 321.272182 253.664271 312.440732 256.363184 304.026529 
C 259.062097 295.612327 263.252554 287.751754 268.734043 280.820938 
C 274.215533 273.890123 280.899207 268.001402 288.465253 263.43655 
z
" style="fill: #76b3d7; stroke: #ffffff; stroke-linejoin: miter"/>
   </g>
   <g id="matplotlib.axis_1"/>
   <g id="matplotlib.axis_2"/>
   <g id="text_1">
    <!-- AUPRC_1 on generalized models -->
    <g transform="translate(190.572445 94.3392) scale(0.168 -0.168)">
     <defs>
      <path id="DejaVuSans-41" d="M 2188 4044 
L 1331 1722 
L 3047 1722 
L 2188 4044 
z
M 1831 4666 
L 2547 4666 
L 4325 0 
L 3669 0 
L 3244 1197 
L 1141 1197 
L 716 0 
L 50 0 
L 1831 4666 
z
" transform="scale(0.015625)"/>
      <path id="DejaVuSans-55" d="M 556 4666 
L 1191 4666 
L 1191 1831 
Q 1191 1081 1462 751 
Q 1734 422 2344 422 
Q 2950 422 3222 751 
Q 3494 1081 3494 1831 
L 3494 4666 
L 4128 4666 
L 4128 1753 
Q 4128 841 3676 375 
Q 3225 -91 2344 -91 
Q 1459 -91 1007 375 
Q 556 841 556 1753 
L 556 4666 
z
" transform="scale(0.015625)"/>
      <path id="DejaVuSans-50" d="M 1259 4147 
L 1259 2394 
L 2053 2394 
Q 2494 2394 2734 2622 
Q 2975 2850 2975 3272 
Q 2975 3691 2734 3919 
Q 2494 4147 2053 4147 
L 1259 4147 
z
M 628 4666 
L 2053 4666 
Q 2838 4666 3239 4311 
Q 3641 3956 3641 3272 
Q 3641 2581 3239 2228 
Q 2838 1875 2053 1875 
L 1259 1875 
L 1259 0 
L 628 0 
L 628 4666 
z
" transform="scale(0.015625)"/>
      <path id="DejaVuSans-52" d="M 2841 2188 
Q 3044 2119 3236 1894 
Q 3428 1669 3622 1275 
L 4263 0 
L 3584 0 
L 2988 1197 
Q 2756 1666 2539 1819 
Q 2322 1972 1947 1972 
L 1259 1972 
L 1259 0 
L 628 0 
L 628 4666 
L 2053 4666 
Q 2853 4666 3247 4331 
Q 3641 3997 3641 3322 
Q 3641 2881 3436 2590 
Q 3231 2300 2841 2188 
z
M 1259 4147 
L 1259 2491 
L 2053 2491 
Q 2509 2491 2742 2702 
Q 2975 2913 2975 3322 
Q 2975 3731 2742 3939 
Q 2509 4147 2053 4147 
L 1259 4147 
z
" transform="scale(0.015625)"/>
      <path id="DejaVuSans-43" d="M 4122 4306 
L 4122 3641 
Q 3803 3938 3442 4084 
Q 3081 4231 2675 4231 
Q 1875 4231 1450 3742 
Q 1025 3253 1025 2328 
Q 1025 1406 1450 917 
Q 1875 428 2675 428 
Q 3081 428 3442 575 
Q 3803 722 4122 1019 
L 4122 359 
Q 3791 134 3420 21 
Q 3050 -91 2638 -91 
Q 1578 -91 968 557 
Q 359 1206 359 2328 
Q 359 3453 968 4101 
Q 1578 4750 2638 4750 
Q 3056 4750 3426 4639 
Q 3797 4528 4122 4306 
z
" transform="scale(0.015625)"/>
      <path id="DejaVuSans-5f" d="M 3263 -1063 
L 3263 -1509 
L -63 -1509 
L -63 -1063 
L 3263 -1063 
z
" transform="scale(0.015625)"/>
      <path id="DejaVuSans-31" d="M 794 531 
L 1825 531 
L 1825 4091 
L 703 3866 
L 703 4441 
L 1819 4666 
L 2450 4666 
L 2450 531 
L 3481 531 
L 3481 0 
L 794 0 
L 794 531 
z
" transform="scale(0.015625)"/>
      <path id="DejaVuSans-20" transform="scale(0.015625)"/>
      <path id="DejaVuSans-6f" d="M 1959 3097 
Q 1497 3097 1228 2736 
Q 959 2375 959 1747 
Q 959 1119 1226 758 
Q 1494 397 1959 397 
Q 2419 397 2687 759 
Q 2956 1122 2956 1747 
Q 2956 2369 2687 2733 
Q 2419 3097 1959 3097 
z
M 1959 3584 
Q 2709 3584 3137 3096 
Q 3566 2609 3566 1747 
Q 3566 888 3137 398 
Q 2709 -91 1959 -91 
Q 1206 -91 779 398 
Q 353 888 353 1747 
Q 353 2609 779 3096 
Q 1206 3584 1959 3584 
z
" transform="scale(0.015625)"/>
      <path id="DejaVuSans-6e" d="M 3513 2113 
L 3513 0 
L 2938 0 
L 2938 2094 
Q 2938 2591 2744 2837 
Q 2550 3084 2163 3084 
Q 1697 3084 1428 2787 
Q 1159 2491 1159 1978 
L 1159 0 
L 581 0 
L 581 3500 
L 1159 3500 
L 1159 2956 
Q 1366 3272 1645 3428 
Q 1925 3584 2291 3584 
Q 2894 3584 3203 3211 
Q 3513 2838 3513 2113 
z
" transform="scale(0.015625)"/>
      <path id="DejaVuSans-67" d="M 2906 1791 
Q 2906 2416 2648 2759 
Q 2391 3103 1925 3103 
Q 1463 3103 1205 2759 
Q 947 2416 947 1791 
Q 947 1169 1205 825 
Q 1463 481 1925 481 
Q 2391 481 2648 825 
Q 2906 1169 2906 1791 
z
M 3481 434 
Q 3481 -459 3084 -895 
Q 2688 -1331 1869 -1331 
Q 1566 -1331 1297 -1286 
Q 1028 -1241 775 -1147 
L 775 -588 
Q 1028 -725 1275 -790 
Q 1522 -856 1778 -856 
Q 2344 -856 2625 -561 
Q 2906 -266 2906 331 
L 2906 616 
Q 2728 306 2450 153 
Q 2172 0 1784 0 
Q 1141 0 747 490 
Q 353 981 353 1791 
Q 353 2603 747 3093 
Q 1141 3584 1784 3584 
Q 2172 3584 2450 3431 
Q 2728 3278 2906 2969 
L 2906 3500 
L 3481 3500 
L 3481 434 
z
" transform="scale(0.015625)"/>
      <path id="DejaVuSans-65" d="M 3597 1894 
L 3597 1613 
L 953 1613 
Q 991 1019 1311 708 
Q 1631 397 2203 397 
Q 2534 397 2845 478 
Q 3156 559 3463 722 
L 3463 178 
Q 3153 47 2828 -22 
Q 2503 -91 2169 -91 
Q 1331 -91 842 396 
Q 353 884 353 1716 
Q 353 2575 817 3079 
Q 1281 3584 2069 3584 
Q 2775 3584 3186 3129 
Q 3597 2675 3597 1894 
z
M 3022 2063 
Q 3016 2534 2758 2815 
Q 2500 3097 2075 3097 
Q 1594 3097 1305 2825 
Q 1016 2553 972 2059 
L 3022 2063 
z
" transform="scale(0.015625)"/>
      <path id="DejaVuSans-72" d="M 2631 2963 
Q 2534 3019 2420 3045 
Q 2306 3072 2169 3072 
Q 1681 3072 1420 2755 
Q 1159 2438 1159 1844 
L 1159 0 
L 581 0 
L 581 3500 
L 1159 3500 
L 1159 2956 
Q 1341 3275 1631 3429 
Q 1922 3584 2338 3584 
Q 2397 3584 2469 3576 
Q 2541 3569 2628 3553 
L 2631 2963 
z
" transform="scale(0.015625)"/>
      <path id="DejaVuSans-61" d="M 2194 1759 
Q 1497 1759 1228 1600 
Q 959 1441 959 1056 
Q 959 750 1161 570 
Q 1363 391 1709 391 
Q 2188 391 2477 730 
Q 2766 1069 2766 1631 
L 2766 1759 
L 2194 1759 
z
M 3341 1997 
L 3341 0 
L 2766 0 
L 2766 531 
Q 2569 213 2275 61 
Q 1981 -91 1556 -91 
Q 1019 -91 701 211 
Q 384 513 384 1019 
Q 384 1609 779 1909 
Q 1175 2209 1959 2209 
L 2766 2209 
L 2766 2266 
Q 2766 2663 2505 2880 
Q 2244 3097 1772 3097 
Q 1472 3097 1187 3025 
Q 903 2953 641 2809 
L 641 3341 
Q 956 3463 1253 3523 
Q 1550 3584 1831 3584 
Q 2591 3584 2966 3190 
Q 3341 2797 3341 1997 
z
" transform="scale(0.015625)"/>
      <path id="DejaVuSans-6c" d="M 603 4863 
L 1178 4863 
L 1178 0 
L 603 0 
L 603 4863 
z
" transform="scale(0.015625)"/>
      <path id="DejaVuSans-69" d="M 603 3500 
L 1178 3500 
L 1178 0 
L 603 0 
L 603 3500 
z
M 603 4863 
L 1178 4863 
L 1178 4134 
L 603 4134 
L 603 4863 
z
" transform="scale(0.015625)"/>
      <path id="DejaVuSans-7a" d="M 353 3500 
L 3084 3500 
L 3084 2975 
L 922 459 
L 3084 459 
L 3084 0 
L 275 0 
L 275 525 
L 2438 3041 
L 353 3041 
L 353 3500 
z
" transform="scale(0.015625)"/>
      <path id="DejaVuSans-64" d="M 2906 2969 
L 2906 4863 
L 3481 4863 
L 3481 0 
L 2906 0 
L 2906 525 
Q 2725 213 2448 61 
Q 2172 -91 1784 -91 
Q 1150 -91 751 415 
Q 353 922 353 1747 
Q 353 2572 751 3078 
Q 1150 3584 1784 3584 
Q 2172 3584 2448 3432 
Q 2725 3281 2906 2969 
z
M 947 1747 
Q 947 1113 1208 752 
Q 1469 391 1925 391 
Q 2381 391 2643 752 
Q 2906 1113 2906 1747 
Q 2906 2381 2643 2742 
Q 2381 3103 1925 3103 
Q 1469 3103 1208 2742 
Q 947 2381 947 1747 
z
" transform="scale(0.015625)"/>
      <path id="DejaVuSans-6d" d="M 3328 2828 
Q 3544 3216 3844 3400 
Q 4144 3584 4550 3584 
Q 5097 3584 5394 3201 
Q 5691 2819 5691 2113 
L 5691 0 
L 5113 0 
L 5113 2094 
Q 5113 2597 4934 2840 
Q 4756 3084 4391 3084 
Q 3944 3084 3684 2787 
Q 3425 2491 3425 1978 
L 3425 0 
L 2847 0 
L 2847 2094 
Q 2847 2600 2669 2842 
Q 2491 3084 2119 3084 
Q 1678 3084 1418 2786 
Q 1159 2488 1159 1978 
L 1159 0 
L 581 0 
L 581 3500 
L 1159 3500 
L 1159 2956 
Q 1356 3278 1631 3431 
Q 1906 3584 2284 3584 
Q 2666 3584 2933 3390 
Q 3200 3197 3328 2828 
z
" transform="scale(0.015625)"/>
      <path id="DejaVuSans-73" d="M 2834 3397 
L 2834 2853 
Q 2591 2978 2328 3040 
Q 2066 3103 1784 3103 
Q 1356 3103 1142 2972 
Q 928 2841 928 2578 
Q 928 2378 1081 2264 
Q 1234 2150 1697 2047 
L 1894 2003 
Q 2506 1872 2764 1633 
Q 3022 1394 3022 966 
Q 3022 478 2636 193 
Q 2250 -91 1575 -91 
Q 1294 -91 989 -36 
Q 684 19 347 128 
L 347 722 
Q 666 556 975 473 
Q 1284 391 1588 391 
Q 1994 391 2212 530 
Q 2431 669 2431 922 
Q 2431 1156 2273 1281 
Q 2116 1406 1581 1522 
L 1381 1569 
Q 847 1681 609 1914 
Q 372 2147 372 2553 
Q 372 3047 722 3315 
Q 1072 3584 1716 3584 
Q 2034 3584 2315 3537 
Q 2597 3491 2834 3397 
z
" transform="scale(0.015625)"/>
     </defs>
     <use xlink:href="#DejaVuSans-41"/>
     <use xlink:href="#DejaVuSans-55" x="68.408203"/>
     <use xlink:href="#DejaVuSans-50" x="141.601562"/>
     <use xlink:href="#DejaVuSans-52" x="201.904297"/>
     <use xlink:href="#DejaVuSans-43" x="266.386719"/>
     <use xlink:href="#DejaVuSans-5f" x="336.210938"/>
     <use xlink:href="#DejaVuSans-31" x="386.210938"/>
     <use xlink:href="#DejaVuSans-20" x="449.833984"/>
     <use xlink:href="#DejaVuSans-6f" x="481.621094"/>
     <use xlink:href="#DejaVuSans-6e" x="542.802734"/>
     <use xlink:href="#DejaVuSans-20" x="606.181641"/>
     <use xlink:href="#DejaVuSans-67" x="637.96875"/>
     <use xlink:href="#DejaVuSans-65" x="701.445312"/>
     <use xlink:href="#DejaVuSans-6e" x="762.96875"/>
     <use xlink:href="#DejaVuSans-65" x="826.347656"/>
     <use xlink:href="#DejaVuSans-72" x="887.871094"/>
     <use xlink:href="#DejaVuSans-61" x="928.984375"/>
     <use xlink:href="#DejaVuSans-6c" x="990.263672"/>
     <use xlink:href="#DejaVuSans-69" x="1018.046875"/>
     <use xlink:href="#DejaVuSans-7a" x="1045.830078"/>
     <use xlink:href="#DejaVuSans-65" x="1098.320312"/>
     <use xlink:href="#DejaVuSans-64" x="1159.84375"/>
     <use xlink:href="#DejaVuSans-20" x="1223.320312"/>
     <use xlink:href="#DejaVuSans-6d" x="1255.107422"/>
     <use xlink:href="#DejaVuSans-6f" x="1352.519531"/>
     <use xlink:href="#DejaVuSans-64" x="1413.701172"/>
     <use xlink:href="#DejaVuSans-65" x="1477.177734"/>
     <use xlink:href="#DejaVuSans-6c" x="1538.701172"/>
     <use xlink:href="#DejaVuSans-73" x="1566.484375"/>
    </g>
   </g>
   <g id="legend_1">
    <g id="patch_22">
     <path d="M 595.44632 326.5344 
L 888.989132 326.5344 
Q 891.789132 326.5344 891.789132 323.7344 
L 891.789132 97.1444 
Q 891.789132 94.3444 888.989132 94.3444 
L 595.44632 94.3444 
Q 592.64632 94.3444 592.64632 97.1444 
L 592.64632 323.7344 
Q 592.64632 326.5344 595.44632 326.5344 
z
" style="fill: #ffffff; opacity: 0.8; stroke: #cccccc; stroke-linejoin: miter"/>
    </g>
    <g id="text_2">
     <!-- Models -->
     <g transform="translate(717.55257 110.582213) scale(0.14 -0.14)">
      <defs>
       <path id="DejaVuSans-4d" d="M 628 4666 
L 1569 4666 
L 2759 1491 
L 3956 4666 
L 4897 4666 
L 4897 0 
L 4281 0 
L 4281 4097 
L 3078 897 
L 2444 897 
L 1241 4097 
L 1241 0 
L 628 0 
L 628 4666 
z
" transform="scale(0.015625)"/>
      </defs>
      <use xlink:href="#DejaVuSans-4d"/>
      <use xlink:href="#DejaVuSans-6f" x="86.279297"/>
      <use xlink:href="#DejaVuSans-64" x="147.460938"/>
      <use xlink:href="#DejaVuSans-65" x="210.9375"/>
      <use xlink:href="#DejaVuSans-6c" x="272.460938"/>
      <use xlink:href="#DejaVuSans-73" x="300.244141"/>
     </g>
    </g>
    <g id="patch_23">
     <path d="M 598.24632 131.131588 
L 626.24632 131.131588 
L 626.24632 121.331588 
L 598.24632 121.331588 
z
" style="fill: #6eaed4; stroke: #ffffff; stroke-linejoin: miter"/>
    </g>
    <g id="text_3">
     <!-- xgboost (97.41%) -->
     <g transform="translate(637.44632 131.131588) scale(0.14 -0.14)">
      <defs>
       <path id="DejaVuSans-78" d="M 3513 3500 
L 2247 1797 
L 3578 0 
L 2900 0 
L 1881 1375 
L 863 0 
L 184 0 
L 1544 1831 
L 300 3500 
L 978 3500 
L 1906 2253 
L 2834 3500 
L 3513 3500 
z
" transform="scale(0.015625)"/>
       <path id="DejaVuSans-62" d="M 3116 1747 
Q 3116 2381 2855 2742 
Q 2594 3103 2138 3103 
Q 1681 3103 1420 2742 
Q 1159 2381 1159 1747 
Q 1159 1113 1420 752 
Q 1681 391 2138 391 
Q 2594 391 2855 752 
Q 3116 1113 3116 1747 
z
M 1159 2969 
Q 1341 3281 1617 3432 
Q 1894 3584 2278 3584 
Q 2916 3584 3314 3078 
Q 3713 2572 3713 1747 
Q 3713 922 3314 415 
Q 2916 -91 2278 -91 
Q 1894 -91 1617 61 
Q 1341 213 1159 525 
L 1159 0 
L 581 0 
L 581 4863 
L 1159 4863 
L 1159 2969 
z
" transform="scale(0.015625)"/>
       <path id="DejaVuSans-74" d="M 1172 4494 
L 1172 3500 
L 2356 3500 
L 2356 3053 
L 1172 3053 
L 1172 1153 
Q 1172 725 1289 603 
Q 1406 481 1766 481 
L 2356 481 
L 2356 0 
L 1766 0 
Q 1100 0 847 248 
Q 594 497 594 1153 
L 594 3053 
L 172 3053 
L 172 3500 
L 594 3500 
L 594 4494 
L 1172 4494 
z
" transform="scale(0.015625)"/>
       <path id="DejaVuSans-28" d="M 1984 4856 
Q 1566 4138 1362 3434 
Q 1159 2731 1159 2009 
Q 1159 1288 1364 580 
Q 1569 -128 1984 -844 
L 1484 -844 
Q 1016 -109 783 600 
Q 550 1309 550 2009 
Q 550 2706 781 3412 
Q 1013 4119 1484 4856 
L 1984 4856 
z
" transform="scale(0.015625)"/>
       <path id="DejaVuSans-39" d="M 703 97 
L 703 672 
Q 941 559 1184 500 
Q 1428 441 1663 441 
Q 2288 441 2617 861 
Q 2947 1281 2994 2138 
Q 2813 1869 2534 1725 
Q 2256 1581 1919 1581 
Q 1219 1581 811 2004 
Q 403 2428 403 3163 
Q 403 3881 828 4315 
Q 1253 4750 1959 4750 
Q 2769 4750 3195 4129 
Q 3622 3509 3622 2328 
Q 3622 1225 3098 567 
Q 2575 -91 1691 -91 
Q 1453 -91 1209 -44 
Q 966 3 703 97 
z
M 1959 2075 
Q 2384 2075 2632 2365 
Q 2881 2656 2881 3163 
Q 2881 3666 2632 3958 
Q 2384 4250 1959 4250 
Q 1534 4250 1286 3958 
Q 1038 3666 1038 3163 
Q 1038 2656 1286 2365 
Q 1534 2075 1959 2075 
z
" transform="scale(0.015625)"/>
       <path id="DejaVuSans-37" d="M 525 4666 
L 3525 4666 
L 3525 4397 
L 1831 0 
L 1172 0 
L 2766 4134 
L 525 4134 
L 525 4666 
z
" transform="scale(0.015625)"/>
       <path id="DejaVuSans-2e" d="M 684 794 
L 1344 794 
L 1344 0 
L 684 0 
L 684 794 
z
" transform="scale(0.015625)"/>
       <path id="DejaVuSans-34" d="M 2419 4116 
L 825 1625 
L 2419 1625 
L 2419 4116 
z
M 2253 4666 
L 3047 4666 
L 3047 1625 
L 3713 1625 
L 3713 1100 
L 3047 1100 
L 3047 0 
L 2419 0 
L 2419 1100 
L 313 1100 
L 313 1709 
L 2253 4666 
z
" transform="scale(0.015625)"/>
       <path id="DejaVuSans-25" d="M 4653 2053 
Q 4381 2053 4226 1822 
Q 4072 1591 4072 1178 
Q 4072 772 4226 539 
Q 4381 306 4653 306 
Q 4919 306 5073 539 
Q 5228 772 5228 1178 
Q 5228 1588 5073 1820 
Q 4919 2053 4653 2053 
z
M 4653 2450 
Q 5147 2450 5437 2106 
Q 5728 1763 5728 1178 
Q 5728 594 5436 251 
Q 5144 -91 4653 -91 
Q 4153 -91 3862 251 
Q 3572 594 3572 1178 
Q 3572 1766 3864 2108 
Q 4156 2450 4653 2450 
z
M 1428 4353 
Q 1159 4353 1004 4120 
Q 850 3888 850 3481 
Q 850 3069 1003 2837 
Q 1156 2606 1428 2606 
Q 1700 2606 1854 2837 
Q 2009 3069 2009 3481 
Q 2009 3884 1853 4118 
Q 1697 4353 1428 4353 
z
M 4250 4750 
L 4750 4750 
L 1831 -91 
L 1331 -91 
L 4250 4750 
z
M 1428 4750 
Q 1922 4750 2215 4408 
Q 2509 4066 2509 3481 
Q 2509 2891 2217 2550 
Q 1925 2209 1428 2209 
Q 931 2209 642 2551 
Q 353 2894 353 3481 
Q 353 4063 643 4406 
Q 934 4750 1428 4750 
z
" transform="scale(0.015625)"/>
       <path id="DejaVuSans-29" d="M 513 4856 
L 1013 4856 
Q 1481 4119 1714 3412 
Q 1947 2706 1947 2009 
Q 1947 1309 1714 600 
Q 1481 -109 1013 -844 
L 513 -844 
Q 928 -128 1133 580 
Q 1338 1288 1338 2009 
Q 1338 2731 1133 3434 
Q 928 4138 513 4856 
z
" transform="scale(0.015625)"/>
      </defs>
      <use xlink:href="#DejaVuSans-78"/>
      <use xlink:href="#DejaVuSans-67" x="59.179688"/>
      <use xlink:href="#DejaVuSans-62" x="122.65625"/>
      <use xlink:href="#DejaVuSans-6f" x="186.132812"/>
      <use xlink:href="#DejaVuSans-6f" x="247.314453"/>
      <use xlink:href="#DejaVuSans-73" x="308.496094"/>
      <use xlink:href="#DejaVuSans-74" x="360.595703"/>
      <use xlink:href="#DejaVuSans-20" x="399.804688"/>
      <use xlink:href="#DejaVuSans-28" x="431.591797"/>
      <use xlink:href="#DejaVuSans-39" x="470.605469"/>
      <use xlink:href="#DejaVuSans-37" x="534.228516"/>
      <use xlink:href="#DejaVuSans-2e" x="597.851562"/>
      <use xlink:href="#DejaVuSans-34" x="629.638672"/>
      <use xlink:href="#DejaVuSans-31" x="693.261719"/>
      <use xlink:href="#DejaVuSans-25" x="756.884766"/>
      <use xlink:href="#DejaVuSans-29" x="851.904297"/>
     </g>
    </g>
    <g id="patch_24">
     <path d="M 598.24632 151.680963 
L 626.24632 151.680963 
L 626.24632 141.880963 
L 598.24632 141.880963 
z
" style="fill: #6eaed4; stroke: #ffffff; stroke-linejoin: miter"/>
    </g>
    <g id="text_4">
     <!-- random_forest (97.08%) -->
     <g transform="translate(637.44632 151.680963) scale(0.14 -0.14)">
      <defs>
       <path id="DejaVuSans-66" d="M 2375 4863 
L 2375 4384 
L 1825 4384 
Q 1516 4384 1395 4259 
Q 1275 4134 1275 3809 
L 1275 3500 
L 2222 3500 
L 2222 3053 
L 1275 3053 
L 1275 0 
L 697 0 
L 697 3053 
L 147 3053 
L 147 3500 
L 697 3500 
L 697 3744 
Q 697 4328 969 4595 
Q 1241 4863 1831 4863 
L 2375 4863 
z
" transform="scale(0.015625)"/>
       <path id="DejaVuSans-30" d="M 2034 4250 
Q 1547 4250 1301 3770 
Q 1056 3291 1056 2328 
Q 1056 1369 1301 889 
Q 1547 409 2034 409 
Q 2525 409 2770 889 
Q 3016 1369 3016 2328 
Q 3016 3291 2770 3770 
Q 2525 4250 2034 4250 
z
M 2034 4750 
Q 2819 4750 3233 4129 
Q 3647 3509 3647 2328 
Q 3647 1150 3233 529 
Q 2819 -91 2034 -91 
Q 1250 -91 836 529 
Q 422 1150 422 2328 
Q 422 3509 836 4129 
Q 1250 4750 2034 4750 
z
" transform="scale(0.015625)"/>
       <path id="DejaVuSans-38" d="M 2034 2216 
Q 1584 2216 1326 1975 
Q 1069 1734 1069 1313 
Q 1069 891 1326 650 
Q 1584 409 2034 409 
Q 2484 409 2743 651 
Q 3003 894 3003 1313 
Q 3003 1734 2745 1975 
Q 2488 2216 2034 2216 
z
M 1403 2484 
Q 997 2584 770 2862 
Q 544 3141 544 3541 
Q 544 4100 942 4425 
Q 1341 4750 2034 4750 
Q 2731 4750 3128 4425 
Q 3525 4100 3525 3541 
Q 3525 3141 3298 2862 
Q 3072 2584 2669 2484 
Q 3125 2378 3379 2068 
Q 3634 1759 3634 1313 
Q 3634 634 3220 271 
Q 2806 -91 2034 -91 
Q 1263 -91 848 271 
Q 434 634 434 1313 
Q 434 1759 690 2068 
Q 947 2378 1403 2484 
z
M 1172 3481 
Q 1172 3119 1398 2916 
Q 1625 2713 2034 2713 
Q 2441 2713 2670 2916 
Q 2900 3119 2900 3481 
Q 2900 3844 2670 4047 
Q 2441 4250 2034 4250 
Q 1625 4250 1398 4047 
Q 1172 3844 1172 3481 
z
" transform="scale(0.015625)"/>
      </defs>
      <use xlink:href="#DejaVuSans-72"/>
      <use xlink:href="#DejaVuSans-61" x="41.113281"/>
      <use xlink:href="#DejaVuSans-6e" x="102.392578"/>
      <use xlink:href="#DejaVuSans-64" x="165.771484"/>
      <use xlink:href="#DejaVuSans-6f" x="229.248047"/>
      <use xlink:href="#DejaVuSans-6d" x="290.429688"/>
      <use xlink:href="#DejaVuSans-5f" x="387.841797"/>
      <use xlink:href="#DejaVuSans-66" x="437.841797"/>
      <use xlink:href="#DejaVuSans-6f" x="473.046875"/>
      <use xlink:href="#DejaVuSans-72" x="534.228516"/>
      <use xlink:href="#DejaVuSans-65" x="573.091797"/>
      <use xlink:href="#DejaVuSans-73" x="634.615234"/>
      <use xlink:href="#DejaVuSans-74" x="686.714844"/>
      <use xlink:href="#DejaVuSans-20" x="725.923828"/>
      <use xlink:href="#DejaVuSans-28" x="757.710938"/>
      <use xlink:href="#DejaVuSans-39" x="796.724609"/>
      <use xlink:href="#DejaVuSans-37" x="860.347656"/>
      <use xlink:href="#DejaVuSans-2e" x="923.970703"/>
      <use xlink:href="#DejaVuSans-30" x="955.757812"/>
      <use xlink:href="#DejaVuSans-38" x="1019.380859"/>
      <use xlink:href="#DejaVuSans-25" x="1083.003906"/>
      <use xlink:href="#DejaVuSans-29" x="1178.023438"/>
     </g>
    </g>
    <g id="patch_25">
     <path d="M 598.24632 172.619713 
L 626.24632 172.619713 
L 626.24632 162.819713 
L 598.24632 162.819713 
z
" style="fill: #6fafd5; stroke: #ffffff; stroke-linejoin: miter"/>
    </g>
    <g id="text_5">
     <!-- neural_network (96.87%) -->
     <g transform="translate(637.44632 172.619713) scale(0.14 -0.14)">
      <defs>
       <path id="DejaVuSans-75" d="M 544 1381 
L 544 3500 
L 1119 3500 
L 1119 1403 
Q 1119 906 1312 657 
Q 1506 409 1894 409 
Q 2359 409 2629 706 
Q 2900 1003 2900 1516 
L 2900 3500 
L 3475 3500 
L 3475 0 
L 2900 0 
L 2900 538 
Q 2691 219 2414 64 
Q 2138 -91 1772 -91 
Q 1169 -91 856 284 
Q 544 659 544 1381 
z
M 1991 3584 
L 1991 3584 
z
" transform="scale(0.015625)"/>
       <path id="DejaVuSans-77" d="M 269 3500 
L 844 3500 
L 1563 769 
L 2278 3500 
L 2956 3500 
L 3675 769 
L 4391 3500 
L 4966 3500 
L 4050 0 
L 3372 0 
L 2619 2869 
L 1863 0 
L 1184 0 
L 269 3500 
z
" transform="scale(0.015625)"/>
       <path id="DejaVuSans-6b" d="M 581 4863 
L 1159 4863 
L 1159 1991 
L 2875 3500 
L 3609 3500 
L 1753 1863 
L 3688 0 
L 2938 0 
L 1159 1709 
L 1159 0 
L 581 0 
L 581 4863 
z
" transform="scale(0.015625)"/>
       <path id="DejaVuSans-36" d="M 2113 2584 
Q 1688 2584 1439 2293 
Q 1191 2003 1191 1497 
Q 1191 994 1439 701 
Q 1688 409 2113 409 
Q 2538 409 2786 701 
Q 3034 994 3034 1497 
Q 3034 2003 2786 2293 
Q 2538 2584 2113 2584 
z
M 3366 4563 
L 3366 3988 
Q 3128 4100 2886 4159 
Q 2644 4219 2406 4219 
Q 1781 4219 1451 3797 
Q 1122 3375 1075 2522 
Q 1259 2794 1537 2939 
Q 1816 3084 2150 3084 
Q 2853 3084 3261 2657 
Q 3669 2231 3669 1497 
Q 3669 778 3244 343 
Q 2819 -91 2113 -91 
Q 1303 -91 875 529 
Q 447 1150 447 2328 
Q 447 3434 972 4092 
Q 1497 4750 2381 4750 
Q 2619 4750 2861 4703 
Q 3103 4656 3366 4563 
z
" transform="scale(0.015625)"/>
      </defs>
      <use xlink:href="#DejaVuSans-6e"/>
      <use xlink:href="#DejaVuSans-65" x="63.378906"/>
      <use xlink:href="#DejaVuSans-75" x="124.902344"/>
      <use xlink:href="#DejaVuSans-72" x="188.28125"/>
      <use xlink:href="#DejaVuSans-61" x="229.394531"/>
      <use xlink:href="#DejaVuSans-6c" x="290.673828"/>
      <use xlink:href="#DejaVuSans-5f" x="318.457031"/>
      <use xlink:href="#DejaVuSans-6e" x="368.457031"/>
      <use xlink:href="#DejaVuSans-65" x="431.835938"/>
      <use xlink:href="#DejaVuSans-74" x="493.359375"/>
      <use xlink:href="#DejaVuSans-77" x="532.568359"/>
      <use xlink:href="#DejaVuSans-6f" x="614.355469"/>
      <use xlink:href="#DejaVuSans-72" x="675.537109"/>
      <use xlink:href="#DejaVuSans-6b" x="716.650391"/>
      <use xlink:href="#DejaVuSans-20" x="774.560547"/>
      <use xlink:href="#DejaVuSans-28" x="806.347656"/>
      <use xlink:href="#DejaVuSans-39" x="845.361328"/>
      <use xlink:href="#DejaVuSans-36" x="908.984375"/>
      <use xlink:href="#DejaVuSans-2e" x="972.607422"/>
      <use xlink:href="#DejaVuSans-38" x="1004.394531"/>
      <use xlink:href="#DejaVuSans-37" x="1068.017578"/>
      <use xlink:href="#DejaVuSans-25" x="1131.640625"/>
      <use xlink:href="#DejaVuSans-29" x="1226.660156"/>
     </g>
    </g>
    <g id="patch_26">
     <path d="M 598.24632 193.558463 
L 626.24632 193.558463 
L 626.24632 183.758463 
L 598.24632 183.758463 
z
" style="fill: #6fafd5; stroke: #ffffff; stroke-linejoin: miter"/>
    </g>
    <g id="text_6">
     <!-- logistic_regression (96.62%) -->
     <g transform="translate(637.44632 193.558463) scale(0.14 -0.14)">
      <defs>
       <path id="DejaVuSans-63" d="M 3122 3366 
L 3122 2828 
Q 2878 2963 2633 3030 
Q 2388 3097 2138 3097 
Q 1578 3097 1268 2742 
Q 959 2388 959 1747 
Q 959 1106 1268 751 
Q 1578 397 2138 397 
Q 2388 397 2633 464 
Q 2878 531 3122 666 
L 3122 134 
Q 2881 22 2623 -34 
Q 2366 -91 2075 -91 
Q 1284 -91 818 406 
Q 353 903 353 1747 
Q 353 2603 823 3093 
Q 1294 3584 2113 3584 
Q 2378 3584 2631 3529 
Q 2884 3475 3122 3366 
z
" transform="scale(0.015625)"/>
       <path id="DejaVuSans-32" d="M 1228 531 
L 3431 531 
L 3431 0 
L 469 0 
L 469 531 
Q 828 903 1448 1529 
Q 2069 2156 2228 2338 
Q 2531 2678 2651 2914 
Q 2772 3150 2772 3378 
Q 2772 3750 2511 3984 
Q 2250 4219 1831 4219 
Q 1534 4219 1204 4116 
Q 875 4013 500 3803 
L 500 4441 
Q 881 4594 1212 4672 
Q 1544 4750 1819 4750 
Q 2544 4750 2975 4387 
Q 3406 4025 3406 3419 
Q 3406 3131 3298 2873 
Q 3191 2616 2906 2266 
Q 2828 2175 2409 1742 
Q 1991 1309 1228 531 
z
" transform="scale(0.015625)"/>
      </defs>
      <use xlink:href="#DejaVuSans-6c"/>
      <use xlink:href="#DejaVuSans-6f" x="27.783203"/>
      <use xlink:href="#DejaVuSans-67" x="88.964844"/>
      <use xlink:href="#DejaVuSans-69" x="152.441406"/>
      <use xlink:href="#DejaVuSans-73" x="180.224609"/>
      <use xlink:href="#DejaVuSans-74" x="232.324219"/>
      <use xlink:href="#DejaVuSans-69" x="271.533203"/>
      <use xlink:href="#DejaVuSans-63" x="299.316406"/>
      <use xlink:href="#DejaVuSans-5f" x="354.296875"/>
      <use xlink:href="#DejaVuSans-72" x="404.296875"/>
      <use xlink:href="#DejaVuSans-65" x="443.160156"/>
      <use xlink:href="#DejaVuSans-67" x="504.683594"/>
      <use xlink:href="#DejaVuSans-72" x="568.160156"/>
      <use xlink:href="#DejaVuSans-65" x="607.023438"/>
      <use xlink:href="#DejaVuSans-73" x="668.546875"/>
      <use xlink:href="#DejaVuSans-73" x="720.646484"/>
      <use xlink:href="#DejaVuSans-69" x="772.746094"/>
      <use xlink:href="#DejaVuSans-6f" x="800.529297"/>
      <use xlink:href="#DejaVuSans-6e" x="861.710938"/>
      <use xlink:href="#DejaVuSans-20" x="925.089844"/>
      <use xlink:href="#DejaVuSans-28" x="956.876953"/>
      <use xlink:href="#DejaVuSans-39" x="995.890625"/>
      <use xlink:href="#DejaVuSans-36" x="1059.513672"/>
      <use xlink:href="#DejaVuSans-2e" x="1123.136719"/>
      <use xlink:href="#DejaVuSans-36" x="1154.923828"/>
      <use xlink:href="#DejaVuSans-32" x="1218.546875"/>
      <use xlink:href="#DejaVuSans-25" x="1282.169922"/>
      <use xlink:href="#DejaVuSans-29" x="1377.189453"/>
     </g>
    </g>
    <g id="patch_27">
     <path d="M 598.24632 214.497213 
L 626.24632 214.497213 
L 626.24632 204.697213 
L 598.24632 204.697213 
z
" style="fill: #6fafd5; stroke: #ffffff; stroke-linejoin: miter"/>
    </g>
    <g id="text_7">
     <!-- svm (96.49%) -->
     <g transform="translate(637.44632 214.497213) scale(0.14 -0.14)">
      <defs>
       <path id="DejaVuSans-76" d="M 191 3500 
L 800 3500 
L 1894 563 
L 2988 3500 
L 3597 3500 
L 2284 0 
L 1503 0 
L 191 3500 
z
" transform="scale(0.015625)"/>
      </defs>
      <use xlink:href="#DejaVuSans-73"/>
      <use xlink:href="#DejaVuSans-76" x="52.099609"/>
      <use xlink:href="#DejaVuSans-6d" x="111.279297"/>
      <use xlink:href="#DejaVuSans-20" x="208.691406"/>
      <use xlink:href="#DejaVuSans-28" x="240.478516"/>
      <use xlink:href="#DejaVuSans-39" x="279.492188"/>
      <use xlink:href="#DejaVuSans-36" x="343.115234"/>
      <use xlink:href="#DejaVuSans-2e" x="406.738281"/>
      <use xlink:href="#DejaVuSans-34" x="438.525391"/>
      <use xlink:href="#DejaVuSans-39" x="502.148438"/>
      <use xlink:href="#DejaVuSans-25" x="565.771484"/>
      <use xlink:href="#DejaVuSans-29" x="660.791016"/>
     </g>
    </g>
    <g id="patch_28">
     <path d="M 598.24632 235.046588 
L 626.24632 235.046588 
L 626.24632 225.246588 
L 598.24632 225.246588 
z
" style="fill: #6fafd5; stroke: #ffffff; stroke-linejoin: miter"/>
    </g>
    <g id="text_8">
     <!-- crf (96.41%) -->
     <g transform="translate(637.44632 235.046588) scale(0.14 -0.14)">
      <use xlink:href="#DejaVuSans-63"/>
      <use xlink:href="#DejaVuSans-72" x="54.980469"/>
      <use xlink:href="#DejaVuSans-66" x="96.09375"/>
      <use xlink:href="#DejaVuSans-20" x="131.298828"/>
      <use xlink:href="#DejaVuSans-28" x="163.085938"/>
      <use xlink:href="#DejaVuSans-39" x="202.099609"/>
      <use xlink:href="#DejaVuSans-36" x="265.722656"/>
      <use xlink:href="#DejaVuSans-2e" x="329.345703"/>
      <use xlink:href="#DejaVuSans-34" x="361.132812"/>
      <use xlink:href="#DejaVuSans-31" x="424.755859"/>
      <use xlink:href="#DejaVuSans-25" x="488.378906"/>
      <use xlink:href="#DejaVuSans-29" x="583.398438"/>
     </g>
    </g>
    <g id="patch_29">
     <path d="M 598.24632 255.595963 
L 626.24632 255.595963 
L 626.24632 245.795963 
L 598.24632 245.795963 
z
" style="fill: #6fafd5; stroke: #ffffff; stroke-linejoin: miter"/>
    </g>
    <g id="text_9">
     <!-- naive_bayes (96.19%) -->
     <g transform="translate(637.44632 255.595963) scale(0.14 -0.14)">
      <defs>
       <path id="DejaVuSans-79" d="M 2059 -325 
Q 1816 -950 1584 -1140 
Q 1353 -1331 966 -1331 
L 506 -1331 
L 506 -850 
L 844 -850 
Q 1081 -850 1212 -737 
Q 1344 -625 1503 -206 
L 1606 56 
L 191 3500 
L 800 3500 
L 1894 763 
L 2988 3500 
L 3597 3500 
L 2059 -325 
z
" transform="scale(0.015625)"/>
      </defs>
      <use xlink:href="#DejaVuSans-6e"/>
      <use xlink:href="#DejaVuSans-61" x="63.378906"/>
      <use xlink:href="#DejaVuSans-69" x="124.658203"/>
      <use xlink:href="#DejaVuSans-76" x="152.441406"/>
      <use xlink:href="#DejaVuSans-65" x="211.621094"/>
      <use xlink:href="#DejaVuSans-5f" x="273.144531"/>
      <use xlink:href="#DejaVuSans-62" x="323.144531"/>
      <use xlink:href="#DejaVuSans-61" x="386.621094"/>
      <use xlink:href="#DejaVuSans-79" x="447.900391"/>
      <use xlink:href="#DejaVuSans-65" x="507.080078"/>
      <use xlink:href="#DejaVuSans-73" x="568.603516"/>
      <use xlink:href="#DejaVuSans-20" x="620.703125"/>
      <use xlink:href="#DejaVuSans-28" x="652.490234"/>
      <use xlink:href="#DejaVuSans-39" x="691.503906"/>
      <use xlink:href="#DejaVuSans-36" x="755.126953"/>
      <use xlink:href="#DejaVuSans-2e" x="818.75"/>
      <use xlink:href="#DejaVuSans-31" x="850.537109"/>
      <use xlink:href="#DejaVuSans-39" x="914.160156"/>
      <use xlink:href="#DejaVuSans-25" x="977.783203"/>
      <use xlink:href="#DejaVuSans-29" x="1072.802734"/>
     </g>
    </g>
    <g id="patch_30">
     <path d="M 598.24632 276.534713 
L 626.24632 276.534713 
L 626.24632 266.734713 
L 598.24632 266.734713 
z
" style="fill: #72b1d6; stroke: #ffffff; stroke-linejoin: miter"/>
    </g>
    <g id="text_10">
     <!-- recurrent_neural_network (94.04%) -->
     <g transform="translate(637.44632 276.534713) scale(0.14 -0.14)">
      <use xlink:href="#DejaVuSans-72"/>
      <use xlink:href="#DejaVuSans-65" x="38.863281"/>
      <use xlink:href="#DejaVuSans-63" x="100.386719"/>
      <use xlink:href="#DejaVuSans-75" x="155.367188"/>
      <use xlink:href="#DejaVuSans-72" x="218.746094"/>
      <use xlink:href="#DejaVuSans-72" x="258.109375"/>
      <use xlink:href="#DejaVuSans-65" x="296.972656"/>
      <use xlink:href="#DejaVuSans-6e" x="358.496094"/>
      <use xlink:href="#DejaVuSans-74" x="421.875"/>
      <use xlink:href="#DejaVuSans-5f" x="461.083984"/>
      <use xlink:href="#DejaVuSans-6e" x="511.083984"/>
      <use xlink:href="#DejaVuSans-65" x="574.462891"/>
      <use xlink:href="#DejaVuSans-75" x="635.986328"/>
      <use xlink:href="#DejaVuSans-72" x="699.365234"/>
      <use xlink:href="#DejaVuSans-61" x="740.478516"/>
      <use xlink:href="#DejaVuSans-6c" x="801.757812"/>
      <use xlink:href="#DejaVuSans-5f" x="829.541016"/>
      <use xlink:href="#DejaVuSans-6e" x="879.541016"/>
      <use xlink:href="#DejaVuSans-65" x="942.919922"/>
      <use xlink:href="#DejaVuSans-74" x="1004.443359"/>
      <use xlink:href="#DejaVuSans-77" x="1043.652344"/>
      <use xlink:href="#DejaVuSans-6f" x="1125.439453"/>
      <use xlink:href="#DejaVuSans-72" x="1186.621094"/>
      <use xlink:href="#DejaVuSans-6b" x="1227.734375"/>
      <use xlink:href="#DejaVuSans-20" x="1285.644531"/>
      <use xlink:href="#DejaVuSans-28" x="1317.431641"/>
      <use xlink:href="#DejaVuSans-39" x="1356.445312"/>
      <use xlink:href="#DejaVuSans-34" x="1420.068359"/>
      <use xlink:href="#DejaVuSans-2e" x="1483.691406"/>
      <use xlink:href="#DejaVuSans-30" x="1515.478516"/>
      <use xlink:href="#DejaVuSans-34" x="1579.101562"/>
      <use xlink:href="#DejaVuSans-25" x="1642.724609"/>
      <use xlink:href="#DejaVuSans-29" x="1737.744141"/>
     </g>
    </g>
    <g id="patch_31">
     <path d="M 598.24632 297.473463 
L 626.24632 297.473463 
L 626.24632 287.673463 
L 598.24632 287.673463 
z
" style="fill: #76b3d7; stroke: #ffffff; stroke-linejoin: miter"/>
    </g>
    <g id="text_11">
     <!-- knn (91.86%) -->
     <g transform="translate(637.44632 297.473463) scale(0.14 -0.14)">
      <use xlink:href="#DejaVuSans-6b"/>
      <use xlink:href="#DejaVuSans-6e" x="57.910156"/>
      <use xlink:href="#DejaVuSans-6e" x="121.289062"/>
      <use xlink:href="#DejaVuSans-20" x="184.667969"/>
      <use xlink:href="#DejaVuSans-28" x="216.455078"/>
      <use xlink:href="#DejaVuSans-39" x="255.46875"/>
      <use xlink:href="#DejaVuSans-31" x="319.091797"/>
      <use xlink:href="#DejaVuSans-2e" x="382.714844"/>
      <use xlink:href="#DejaVuSans-38" x="414.501953"/>
      <use xlink:href="#DejaVuSans-36" x="478.125"/>
      <use xlink:href="#DejaVuSans-25" x="541.748047"/>
      <use xlink:href="#DejaVuSans-29" x="636.767578"/>
     </g>
    </g>
    <g id="patch_32">
     <path d="M 598.24632 318.022838 
L 626.24632 318.022838 
L 626.24632 308.222838 
L 598.24632 308.222838 
z
" style="fill: #76b3d7; stroke: #ffffff; stroke-linejoin: miter"/>
    </g>
    <g id="text_12">
     <!-- hmm (91.36%) -->
     <g transform="translate(637.44632 318.022838) scale(0.14 -0.14)">
      <defs>
       <path id="DejaVuSans-68" d="M 3513 2113 
L 3513 0 
L 2938 0 
L 2938 2094 
Q 2938 2591 2744 2837 
Q 2550 3084 2163 3084 
Q 1697 3084 1428 2787 
Q 1159 2491 1159 1978 
L 1159 0 
L 581 0 
L 581 4863 
L 1159 4863 
L 1159 2956 
Q 1366 3272 1645 3428 
Q 1925 3584 2291 3584 
Q 2894 3584 3203 3211 
Q 3513 2838 3513 2113 
z
" transform="scale(0.015625)"/>
       <path id="DejaVuSans-33" d="M 2597 2516 
Q 3050 2419 3304 2112 
Q 3559 1806 3559 1356 
Q 3559 666 3084 287 
Q 2609 -91 1734 -91 
Q 1441 -91 1130 -33 
Q 819 25 488 141 
L 488 750 
Q 750 597 1062 519 
Q 1375 441 1716 441 
Q 2309 441 2620 675 
Q 2931 909 2931 1356 
Q 2931 1769 2642 2001 
Q 2353 2234 1838 2234 
L 1294 2234 
L 1294 2753 
L 1863 2753 
Q 2328 2753 2575 2939 
Q 2822 3125 2822 3475 
Q 2822 3834 2567 4026 
Q 2313 4219 1838 4219 
Q 1578 4219 1281 4162 
Q 984 4106 628 3988 
L 628 4550 
Q 988 4650 1302 4700 
Q 1616 4750 1894 4750 
Q 2613 4750 3031 4423 
Q 3450 4097 3450 3541 
Q 3450 3153 3228 2886 
Q 3006 2619 2597 2516 
z
" transform="scale(0.015625)"/>
      </defs>
      <use xlink:href="#DejaVuSans-68"/>
      <use xlink:href="#DejaVuSans-6d" x="63.378906"/>
      <use xlink:href="#DejaVuSans-6d" x="160.791016"/>
      <use xlink:href="#DejaVuSans-20" x="258.203125"/>
      <use xlink:href="#DejaVuSans-28" x="289.990234"/>
      <use xlink:href="#DejaVuSans-39" x="329.003906"/>
      <use xlink:href="#DejaVuSans-31" x="392.626953"/>
      <use xlink:href="#DejaVuSans-2e" x="456.25"/>
      <use xlink:href="#DejaVuSans-33" x="488.037109"/>
      <use xlink:href="#DejaVuSans-36" x="551.660156"/>
      <use xlink:href="#DejaVuSans-25" x="615.283203"/>
      <use xlink:href="#DejaVuSans-29" x="710.302734"/>
     </g>
    </g>
   </g>
  </g>
 </g>
</svg>
